<svg id="Layer_1" data-name="Layer 1" xmlns="http://www.w3.org/2000/svg" xmlns:xlink="http://www.w3.org/1999/xlink" viewBox="0 0 461.57 395.12"><defs><style>.cls-1{fill:url(#linear-gradient);}.cls-2{fill:url(#linear-gradient-2);}.cls-3{fill:none;}.cls-4{fill:#fff;}.cls-5{fill:url(#linear-gradient-3);}.cls-6{fill:url(#linear-gradient-4);}.cls-7{fill:url(#linear-gradient-5);}</style><linearGradient id="linear-gradient" x1="193.91" y1="127.32" x2="244.28" y2="127.32" gradientUnits="userSpaceOnUse"><stop offset="0" stop-color="#1616e4"/><stop offset="1" stop-color="#439fd2"/></linearGradient><linearGradient id="linear-gradient-2" x1="164.49" y1="70.06" x2="210.11" y2="70.06" xlink:href="#linear-gradient"/><linearGradient id="linear-gradient-3" x1="221.76" y1="138.73" x2="210.83" y2="128.96" xlink:href="#linear-gradient"/><linearGradient id="linear-gradient-4" x1="223.69" y1="130.14" x2="212.94" y2="120.53" xlink:href="#linear-gradient"/><linearGradient id="linear-gradient-5" x1="228.14" y1="120.58" x2="217.17" y2="110.78" xlink:href="#linear-gradient"/></defs><g id="l4M4cD9LGkOob2fxruuJXj1"><path id="prOuH8n0D" d="M160.79,383c-14.7-6.11-25.47-10.25-41.15-15.89l-9.84-3.52-.15-1.81a3.21,3.21,0,0,1,.62-2.54,3.43,3.43,0,0,0,.83-2.38c0-1.4.21-1.76,1-1.76,1.87,0,1.09-.88-1.81-2.07-2.74-1.14-2.84-1.24-2.84-3.1a2.77,2.77,0,0,1,1.29-2.8,2.72,2.72,0,0,0,1.29-2.12c0-1.92-.93-1.45,27.95-14,10.61-4.66,14.5-5.8,14.5-4.19,0,.36,1.81,1.14,4.29,1.86,7.14,2.07,42.18,13.2,47.62,15.17l3,1v2.54c0,1.71.21,2.54.67,2.54a16,16,0,0,1,2.59.56c1.86.52,1.92.63,1.92,2.8,0,1.6-.26,2.43-.88,2.79s-.63.57-.26.57.62.73.62,2c0,1.76-.36,2.38-3.73,5.64-11.9,11.49-26.24,23.45-28.21,23.45-.67,0-1.19.26-1.19.52s-1,.51-2.17.46C175.18,388.64,170.47,386.93,160.79,383Zm26.08-16c1.76-1.87,6.21-6.73,9.94-10.87l6.78-7.56-10.66-3c-10-2.85-37.53-11.75-41.41-13.41-1.6-.67-1.91-.67-3.93.52-3.26,1.81-13.87,6.52-22.36,10l-7.3,2.95,3.68,1.55c2.07.88,5.53,2.43,7.76,3.47l4,1.81v-1.24c0-1.45,3.78-4.35,12-9.11,3.94-2.23,5.85-3.05,7.25-3.05,1.91,0,2,.05,2,2s-.16,2.07-4.25,4.82c-5.69,3.72-12.47,7.66-13.4,7.71-.42,0,1.13.93,3.41,2,4,1.91,4.14,1.91,4.4.83S152,349,156,346.2a7.28,7.28,0,0,1,4-1.5c1.81,0,1.86.05,1.86,2,0,1.65-.36,2.33-2.17,4a76.32,76.32,0,0,1-9.63,7.82l-1.71,1,2.49,1.09,2.48,1.09.16-1.66c.2-1.91,1.45-3.36,8.59-9.73,4.29-3.83,5.43-4.61,6.88-4.61,1.66,0,1.71.06,1.71,2.28s-.21,2.43-4,6.06c-6.78,6.47-8.54,7.71-10.82,7.71-1.81.05-.67.72,10.09,6.21,6.63,3.36,12.37,6.42,12.68,6.73s1.19-.1,2.85-1.92C182.73,371.46,185.16,368.82,186.87,367Z"/><path id="puehEG86j" d="M126.11,346.56c0-1.71.26-2,2.74-3.62,3.94-2.48,9.21-4.45,12-4.45h2.38l-.15,1.91c-.16,1.87-.26,2-5.85,4.71-4,2-6.52,2.9-8.39,3.11l-2.74.21Z"/><path id="pAmpDpcOS" d="M379.88,332.33c-2.27-1.14-4.6-3.21-9.88-8.75-8.18-8.7-10-9.83-17-10.46a23.85,23.85,0,0,1-7.09-1.5c-2.38-1-2.49-1.19-1.56-1.81a9.32,9.32,0,0,1,2.18-1c1-.31,1.14-.73,1.14-3.16s-.21-2.9-1.4-3.83-9-3.68-15.06-5.23c-2.49-.62-2.49-.41.72-4.71,2.49-3.26,5.59-9.21,6.16-11.7a3.68,3.68,0,0,1,.83-2,1.87,1.87,0,0,0,.47-1.3,1.25,1.25,0,0,1,.56-1.14c.83-.25,2.39-8.74,3.11-17,1.61-18-2-47.52-7.61-63.25-2.95-8.13-8.12-16.41-12.47-19.88a25.4,25.4,0,0,0-9.06-4.6,7.27,7.27,0,0,1-3.57-2.12l-1.71-1.76h1.81a10.6,10.6,0,0,0,7.4-3.78c4.66-6.11,5.23-20.19,1.14-26.66-2.69-4.24-6.1-6.36-13.87-8.49-3.67-1-4.09-1.19-2.74-1.45s1.55-.51,1.71-2.17,0-2-1.14-2.28a16.5,16.5,0,0,0-3.63-.1c-2.27.15-2.32.1-3.1-1.76s-.88-2-2.85-2c-1.65,0-2.12.21-2.12.88,0,.52-1.4-.52-3.83-2.84-5-4.92-8.33-6.42-14.34-6.73-5.33-.26-9.16.67-11.95,3-2.13,1.76-4.56,6.21-4.56,8.33,0,1.24-.2,1.4-2.69,1.66a12.52,12.52,0,0,0-8.95,5.74c-1.35,2.23-1.56,3.11-1.76,7.15-.16,4.24-.06,4.76,1.14,6.57,2,3,4.91,4.19,10.14,4.19,4.19,0,4.24,0,3.93,1.19a6.44,6.44,0,0,1-1.86,2.33,3.34,3.34,0,0,0-1.5,3c0,1.09.31,1.92.72,2.07.63.21.68,1,.47,3.83a19.64,19.64,0,0,0,.05,4.82c.36,1.45,2.49,2.43,5.28,2.43,1.5,0,1.76.16,1.76,1.24,0,1.56,3.68,6.63,6.83,9.37a18.61,18.61,0,0,0,4.87,3c2.9,1,9,1.19,11.54.31,1.35-.46,2-.41,3.68.31l2,.88L290,182.9c-4.92,3.78-10.25,12.27-13.1,20.91-.72,2.17-2.58,8.9-4.14,14.86s-3.67,13.09-4.71,15.78c-3.72,10.15-9.83,19.82-15.63,24.79a10,10,0,0,0-2.64,2.75,2.76,2.76,0,0,1-.82,1.29c-.68.67-1.14.73-2.75.21-2.59-.73-7.35-.73-8.38.1a6.38,6.38,0,0,0-1.4,1.71l-.62,1.14-5-2c-2.8-1-7.09-2.59-9.58-3.41-2.74-.88-4.55-1.76-4.55-2.13,0-.83-12.27-54.6-13.51-59.26l-.52-2h-3.21a81.57,81.57,0,0,0-9.78,1.25l-6.52,1.19.26-1.87A49.43,49.43,0,0,1,192,176.69a127.4,127.4,0,0,1,8.69-9.73c7.1-7.35,9.79-11,11.08-14.8.17-.52.35-1,.52-1.4.3-.72.57-1.19.67-1.19H213a32,32,0,0,0-5.75-3c.71.43,1.14.77,1.14.93a1.9,1.9,0,0,1-.1.57c-.66,2.29-4.78,7.43-11.55,14.44a141,141,0,0,0-10.71,12.16A47.27,47.27,0,0,0,178.54,197c-.2,3.21-.52,4.3-1,4.3-1.35,0-30.23,6.36-34.37,7.55-.62.16-1.55-1.24-3.73-5.33-5.28-10.19-7.45-20.86-6.93-34.06.46-12,2.48-21.53,5.79-27.69l1.25-2.33,0,1.76a9.76,9.76,0,0,0,3,7.3c1.55,1.4,2.12,1.56,5.12,1.56,3.68,0,5.44-.68,7.46-2.85,1.13-1.19,1.29-1.92,1.44-6,.16-3.88.06-4.91-.93-6.93a9,9,0,0,0-6.73-5.28c-1.13-.16-2.07-.47-2.07-.67,0-.68,2.28-5.9,3.83-8.8,5.18-9.68,11.81-16.25,23.3-23.09,5-3,8.88-6.28,9.09-7.64L180,85.72c0,.12-.05.18-.13.18a6.67,6.67,0,0,0-2.38,1.76,45.35,45.35,0,0,1-7,4.71c-7.51,4.25-11,6.89-15.48,11.55a52.4,52.4,0,0,0-12.78,21.17c-1.24,3.57-1.81,4.65-3.11,5.43-2,1.29-5.33,6.26-6.78,10.14-3.26,8.65-4.66,18.07-4.66,31.58.06,14.44,1.87,23.86,6.42,33l2.69,5.28-3.62.88a30,30,0,0,1-3.67.72c-.06-.1-.73-1.24-1.45-2.59-1.87-3.21-7.25-8.54-11.34-11.23-5.49-3.57-13.25-6.26-21.58-7.35-5.44-.72-21.79-.26-27.75.78-29.5,5.17-52,19-61.38,37.73a37.13,37.13,0,0,0-2.8,7.25A48.38,48.38,0,0,0,3,252.15a23.92,23.92,0,0,0,11.38,15.79c2.28,1.29,2.54,1.6,2.28,2.74-.67,2.85-.88,13.3-.31,16.31,1.14,6.21,5,11.54,9.89,13.87,2,.93,3.26,1.08,8.8,1.08,7.45,0,8.85-.41,14.49-4.08a27.83,27.83,0,0,1,6.21-3c2.48-.57,2.59-.67,2.59-2.38v-1.76l-3.83.26c-3.42.21-4.25.52-7.87,2.69-5.43,3.26-9.58,4.66-12.63,4.2a16.42,16.42,0,0,1-12.06-9.48c-1-2.07-1.14-3.31-1.09-8.38.06-6.52.68-9.06,2.18-8.59,7.87,2.48,21.48,3.57,27,2.17,9.11-2.33,15-7.66,19.3-17.55,1.45-3.31,1.61-4.34,1.76-9.67s.1-6.11-1-8c-1.87-3.21-4.76-4.46-10.41-4.46a38.09,38.09,0,0,0-7.81.83c-12.27,3.16-25.47,13.92-31.31,25.47-.88,1.76-1.82,3.21-2.08,3.21-.82,0-4.55-3-6.1-5a23.44,23.44,0,0,1-4.56-10.1c-.72-3.46-.72-4,.26-8,2.28-9.68,9-18.73,19.67-26.76,11.65-8.74,26.19-14.44,44.77-17.44,21.12-3.47,39.8,2,49.59,14.44l2.43,3.11-3,.82C111.72,217.37,110,218,109.7,219c-.15.51-.62,1-1,1-.93,0-.93.83.26,10.09,3,23.5,10,53.42,15.22,65.53.41,1,2,2.07,5.74,4,10.61,5.28,31.52,14,48.19,20.14,10.56,3.83,9.88,3.93,27.17-3.42,15.43-6.52,22.15-9.68,28.26-13.35l4.19-2.59.31,4.19c.88,13,10,21.9,29.3,28.47,15.53,5.33,29.71,7.87,48,8.59,12.06.47,13.66.36,13.66-.83,0-.41.16-.72.42-.72,1.29,0,19.82,3.41,26.5,4.92,4.4,1,8.59,1.86,9.31,2a33.94,33.94,0,0,0,8.29-.1c2.43-.62,3.15-1.35,3.46-3.62.26-1.87.52-2.28,2.18-2.95,2.84-1.19,3.67-2.18,3.67-4.4C382.83,333.93,382.68,333.78,379.88,332.33ZM145.21,134.09c.93-1.5,5.54,2.38,6.47,5.49.41,1.34-.83,4-2.23,4.81-2.17,1.14-3,.57-4.5-2.85C144.17,139.58,144.28,135.64,145.21,134.09ZM25.75,262.45c5.28-9.31,15.17-17.65,26-21.84,7.35-2.85,11-2.38,13.66,1.61,1.76,2.58,1.29,5.59-1.92,12.11-3.77,7.71-8.12,11.8-14.69,13.87-3.89,1.19-10.05,1.19-15.89-.05s-8.8-2.07-8.8-2.49A23.22,23.22,0,0,1,25.75,262.45Zm197.67,10.87a17.38,17.38,0,0,1,2.07.47l1.29.41-1.29.05a4.66,4.66,0,0,1-2.07-.46C222.74,273.32,222.74,273.27,223.42,273.32Zm-5.85,4.3c.15.1-.47.62-1.35,1-2.22,1.19-2.69,1-.62-.26C216.53,277.82,217.41,277.46,217.57,277.62ZM213.07,264a4.73,4.73,0,0,1,2.07.46c.62.42.62.52-.26.47a6,6,0,0,1-2.07-.47C211.87,264.06,211.87,264,213.07,264Zm2.12,22.77c1,.52,1,.62-.73,1.81-2.12,1.4-2.38,1.45-3.52.57-.77-.57-.67-.78,1.14-1.81C213.74,286.42,214.31,286.26,215.19,286.78ZM212,259.09a2,2,0,0,1-.72.36c-.52.21-.78-.36-1-2.07C209.55,252,210.48,252.88,212,259.09Zm-1.76,15.32c.72-.36,1.19-.42,1-.1-.46.77-2.33,1.65-2.33,1.13C208.92,275.19,209.55,274.72,210.27,274.41Zm-13-72c1.4-.31,1.6-.15,2,1.14a3.44,3.44,0,0,1,.2,1.76c-.15.1-.36-.41-.57-1.14-.26-1-.67-1.29-1.76-1.34l-1.39-.05Zm-69.82,75c-1.87-9.21-7-32.71-9.68-43.63-1.19-4.82-2-8.75-2-8.85s3-.57,6.52-1.14l6.27-1,.31,1.5a39.94,39.94,0,0,1,.31,5.28v3.83H131c1.55,0,1.81-.21,2.12-1.56a35.44,35.44,0,0,0,.21-5.85l-.21-4.24,5.38-1.14,5.38-1.09,3.63,3.06c3.62,3.05,5.48,3.83,8.43,3.47,1.35-.16,1.5-.37,1.66-2.07s0-2-1-2-2.89-.93-5-2.8l-1.19-1L162,215.25c6.37-1.61,12.73-3.31,14.23-3.73l2.69-.83.31,1.4c1.66,7.3,2.64,8.9,5.39,8.9,2,0,2.07-.1,2.07-1.55a5.75,5.75,0,0,0-.73-2.74c-.67-1-2.53-7.2-2.22-7.35.05,0,2.53-.88,5.54-1.86l5.48-1.76,1.66,8.59c1.76,9.06,6.52,30.43,8.33,37.57.62,2.33,1.09,4.46,1.09,4.71s-1.71,1.09-3.73,1.82-5.38,1.86-7.4,2.64l-3.62,1.34,1.81-1.45c7-5.48,7-5.48,7.14-7.71.11-1.71-.05-2.12-.83-2.33s-1-.93-1.34-3.31c-.42-3.83-3.42-12.79-5.95-17.81L190,225.91l-5.9.05c-6.21,0-7.45.37-20.29,5.49-1.19.41-1.45.88-1.45,2.28,0,1.7-.05,1.76-2,1.76-3.57,0-17.23,4.81-20.86,7.35-1.91,1.29-1.91,3.52-.05,8.07,3.06,7.71,9.53,16.15,15.63,20.39,2,1.45,2.54,1.56,5.08,1.3a23.88,23.88,0,0,0,6.72-2.12c2.33-1.14,4.15-1.71,4.61-1.45.73.41-.21.82-24.64,9.93l-16.46,6.21C129,285.8,129.22,286.47,127.46,277.41Zm75.25,1.45c0,.72-4.45,2.64-5.17,2.17-.47-.31,0-.72,1.45-1.5C201.21,278.39,202.71,278.14,202.71,278.86ZM180,252.67a42.06,42.06,0,0,1-5.22-4.4c-2.85-2.79-3.42-3.73-4.66-7.35-.78-2.28-1.61-4.55-1.81-5-.31-.72-.21-.93.51-.93a65.1,65.1,0,0,0,7.46-2.23,86.52,86.52,0,0,1,8.28-2.58l1.81-.37,3,8.44c1.66,4.61,3.21,9.42,3.52,10.71s.67,2.7.83,3.16c.2.83-6.06,5.44-11.8,8.64a25.43,25.43,0,0,1-3.26,1.66,8.32,8.32,0,0,1,1.55-2.64C182.68,256.14,182.63,254.27,180,252.67Zm-7.5,6.68A62.62,62.62,0,0,1,167,263.8a47.72,47.72,0,0,1-5,2.9l-2.64,1.39-4-4.19A66.58,66.58,0,0,1,145,249.82l-1.71-3.15,8.13-3c4.45-1.65,8.38-3,8.69-3s1.56,1.4,2.8,3.11c3,4.35,7.5,9.11,10.45,11.13l2.49,1.65Zm-.88,25.31a15.18,15.18,0,0,1-3.11,1c-.41,0,.26-.47,1.56-1a14.74,14.74,0,0,1,3.1-1C173.62,283.67,173,284.14,171.66,284.66Zm16.25-.42c1.66-.62,3.42-.41,3.42.37,0,.2-.78.77-1.76,1.24-1.66.77-1.81.77-2.59-.11S186.31,284.81,187.91,284.24Zm3.42,13.82c2.07-.93,2.22-.93,3.93-.05l1.81.93-2.22,1c-2.23,1.08-2.23,1.08-3.94,0l-1.71-1Zm-58.49-2.95-1.81-.77,1.81-.63c1.5-.51,1.86-.51,2,.06C135.22,295.58,134.7,295.89,132.84,295.11Zm14.13-.93c-2.74.93-2.8.93-3.68.41-.41-.25.37-.72,2.13-1.29,3.15-1,4-1.09,4-.41C149.4,293.15,148.32,293.71,147,294.18Zm9.63,4.5c-2.13.62-5.13.31-5.13-.51,0-.21.83-.68,1.87-1,1.55-.46,2.12-.41,3.2.31l1.3.83Zm-.68-8.8a29.58,29.58,0,0,1,5.75-2.12c.1,0,.15.16.15.42a6.71,6.71,0,0,1-2.53,1.29C156.54,290.45,155.1,290.61,155.92,289.88Zm6.94,13.51c-1.76-.72-1.76-.77-.62-1.19a2.6,2.6,0,0,1,2.48.37,7.19,7.19,0,0,1,1.24,1C166,304.12,164.36,304.07,162.86,303.39Zm4.71-8.48c-2.43.77-2.59.77-4.14-.11-1.24-.67-1.19-.72,1.4-1.55,2.17-.73,2.79-.78,3.67-.21C170,294,169.9,294.23,167.57,294.91Zm7,4.65c-2.07.73-2.8.78-3.16.16-.26-.36,3-1.61,4.3-1.61C176.94,298.11,176.26,298.94,174.61,299.56Zm1.09-8.74c-1.45-.83-1.14-1.3,1.39-2.23,2.07-.83,2.44-.83,3.42-.15l1.09.77-1.45.78C177.82,291.18,176.63,291.39,175.7,290.82ZM180.25,305c-1.5-.78-1.5-.83-.52-1.55a4.21,4.21,0,0,1,4.92-.42l1.71.93-1.81.93C182.37,306,182.17,306,180.25,305Zm15.17,6.16c-3.52,1.76-6.53,3.31-6.68,3.36a18.07,18.07,0,0,1-2.85-1.14c-1.86-.88-2.28-1.24-1.4-1.24.68-.05,1.14-.36,1.14-.88s.88-1.14,2-1.55,3.83-1.71,6.16-2.8c2.59-1.19,4.4-1.81,4.61-1.45a8,8,0,0,0,1.86,1.45l1.6.93Zm5.64-16.2c-1.4-.78-1.14-1.25,1.14-2.28,1.7-.78,2.32-.83,3.46-.31L207,293l-2,1.24C202.71,295.63,202.3,295.73,201.06,295Zm24.84-4.61c-1.66,0-8.33,3.83-18.17,10.4-3.31,2.23-3.26,2.23-3.72,1.5-.16-.25.46-.87,1.39-1.34,1.66-.83,15.33-9.83,17.14-11.23a3.6,3.6,0,0,0,.88-2.54c0-1.45-.37-2-1.76-3.05L220,282.85l2.17-1.35,2.18-1.4.36,3.21c.15,1.71.57,3.26.83,3.31s.51.78.51,1.45.26,1.25.52,1.25a.51.51,0,0,1,.52.51C227,290.14,226.52,290.35,225.9,290.35Zm5.23,1.76a9.63,9.63,0,0,1-1.35.78c-1,.51-1.19.46-1.19-.21,0-.52.47-.78,1.4-.78C230.71,291.9,231.23,292,231.13,292.11ZM272,139.47a17.13,17.13,0,0,1,2.64-2.07,28.74,28.74,0,0,1,3.31,3.21l3,3.16-2.85.83c-1.55.46-3.15,1-3.57,1.14s-.93-.31-1.29-1.09a6.77,6.77,0,0,0-2.12-2.23l-1.5-.82Zm-3.58,8.86a6,6,0,0,1,1,2.12,3.33,3.33,0,0,1,0,2.27c-.31.52-.47.21-.47-1a7.6,7.6,0,0,0-.57-2.85C267.93,148.07,267.93,147.91,268.39,148.33Zm15.33,26.75c-3.83,1-6.68.06-10.72-3.67l-1.34-1.24,2.27-2.23c2-1.91,2.28-2.53,2.28-4.35,0-2.48-1.09-3.31-4-3.05-1.65.16-1.91.36-2.07,1.55-.26,2-1.86,3.06-3.46,2.28a3,3,0,0,1-1.51-1.5c-.1-.52-.93-1-1.86-1.19-1.71-.36-2.38-1.24-1.91-2.54.25-.62.51-.62,1.76,0,2,1,6.05,1,8.28-.1,2-.93,3.26-3.21,3.26-6v-1.76l4.29-1.14a37.08,37.08,0,0,1,5.18-1.09,5.54,5.54,0,0,0,2.43-1.14c1.4-1,1.66-1,2.9-.41a5.56,5.56,0,0,1,2,2.12c.62,1.14.62,1.6-.16,3.1s-1.13,1.76-3.05,1.92c-2.23.16-2.23.21-2.23,2.17,0,2.18.52,2.59,3.52,2.59,1.76,0,2.07.26,3.47,2.74,1.87,3.27,4.09,4.82,7.46,5.28,2.22.31,2.58.52,2.89,1.71a6,6,0,0,0,1.14,2.28c.73.78.57,1-1.5,2-1.19.62-3.21,1.81-4.4,2.59a12.87,12.87,0,0,1-2.33,1.45c-.1,0-1.39-.73-3-1.56C290.24,174.26,287.8,174.05,283.72,175.08ZM253,265c1.09,0,6.57-4.76,9.11-7.92,7.56-9.42,10.87-17.13,15.94-36.85,1.35-5.13,3-11.08,3.68-13.2,2-5.9,5.69-13.25,7.29-14.34.73-.52,3.63-3.1,6.37-5.74,5.28-5.08,8.7-7.61,13.61-10.2l2.95-1.55,2.44,1.29c3.72,1.92,9.31,7.87,12.16,12.89,9,16,14.28,53.16,11.08,77.17l-1,7.51-5.12,2.48a68.55,68.55,0,0,1-8.8,3.52c-4.92,1.4-14.34,1.76-19,.73A59.76,59.76,0,0,1,290.7,276c-2.9-1.6-6.57-4.09-7-4.71a7.57,7.57,0,0,1,.77-3.16,45.53,45.53,0,0,0,1.76-6.62,23.34,23.34,0,0,1,2.28-6.83c3.78-6.78,15.11-34.63,15.53-38.2l.26-2.23-2,.16c-2.38.21-1.61-1.24-9.58,17-10.25,23.24-13.09,28.15-20.65,35.76-4.4,4.45-10.92,8.85-14.08,9.58-1.81.36-3.73-1.14-4.86-3.78C252.25,270.89,252.14,265,253,265Zm24.79,5.9c0,.36-.46.83-1.08,1-1,.26-1,.26-.16-.72C277.56,270,277.76,270,277.76,270.89ZM237,272.44a14,14,0,0,0,3.21-2.53c1.5-1.66,1.65-1.71,4.45-1.45l2.95.26.21,3.77c.1,2.95.46,4.14,1.55,5.8l1.4,2.12-1.14,1a12.8,12.8,0,0,1-2.69,1.86c-1.92,1-2.59,1-4.87.05a9.16,9.16,0,0,0-2.69-.77c-.78,0-1-.37-1-2.07,0-1.14-.21-2.07-.52-2.07s-.52-.57-.52-1.3c0-.93-.26-1.29-1-1.29C234.54,275.86,235,273.48,237,272.44Zm.36,19.77c0-.67-.21-1.34-.46-1.45s0-.77.72-1.55c1.14-1.34,1.29-1.4,3.11-.77l1.91.67-2.12,2.17C238.12,293.77,237.39,294,237.39,292.21Zm91,27.9c-2.74,5-4,9.47-4,13.77v3.57l-4.51-.05c-15-.26-34.88-4-50.25-9.58-11-4-18-8.33-22.11-13.71-2.53-3.31-3.15-4.51-4.14-7.87s-1-4.76.26-8.8l1-3.36,5.85-3.63a163.33,163.33,0,0,1,23.13-12.06c5.8-2.43,6.52-2.58,7.56-2l4.14,2.74c11.13,7.45,27.48,9.52,41,5.23a44.71,44.71,0,0,1,4.35-1.3c.26,0-.52,1.35-1.65,3a48.94,48.94,0,0,1-28.26,19.3c-3.83.93-5.9,1.14-11.91,1.09a80.8,80.8,0,0,1-10.09-.62c-1.55-.31-3.94-.67-5.28-.88l-2.49-.31v4.14l3,.88c2,.62,6.36,1,13.56,1.34a258.64,258.64,0,0,1,34.73,4l8,1.4Zm11.08-14.23c-1.5.93-5.28,5-5.28,5.79s-1.81.42-6.11-.62c-2.07-.46-6.26-1.29-9.31-1.81s-5.9-1-6.32-1.14,1.09-1.19,3.52-2.48a57.07,57.07,0,0,0,6-3.57,6.55,6.55,0,0,1,2.75-1.35,84.69,84.69,0,0,1,8.64,2.12L341,305Z"/><path class="cls-1" d="M241.33,104.8c-7-4.51-15.17-6.89-24.75-7.35-6-.26-6.62-.21-6.62.51a.78.78,0,0,1-.73.88c-.46,0-1,1-1.34,2.75-2,8.28-9.32,27.79-12.63,33.49a10.66,10.66,0,0,0-1.35,4.19c0,1.76.11,1.86,2.59,2.48a57.18,57.18,0,0,1,10.77,4.82,32,32,0,0,1,5.75,3c1,.2,6.28,4.78,7.08,6.15s1.25,1.6,3,1.6,2.38-.31,5-3.05c6.53-7,11.44-18.33,14.55-33.39a89.24,89.24,0,0,0,1.34-9.73l.32-4.45Zm-7.61,27.89A74.18,74.18,0,0,1,226,148c-1.19,1.71-2.17,3.11-2.22,3.11s-1.45-1.35-3.16-3c-3.36-3.16-12.11-8.08-17.39-9.68l-3-.93,1.71-3.16c3.83-6.94,9.47-23.81,10-29.66l.26-3.21,2.38.26c9.21,1.09,24.89,6.89,24.89,9.22C239.46,112.51,235.17,128.71,233.72,132.69Z"/><path class="cls-2" d="M208.72,51.74c-2.8-1-4.45-.51-14.44,4.46-11.7,5.84-27.64,14.49-29,15.63-.67.62-.88,1.39-.77,2.89l.15,2.13,5.69.31c3.16.2,5.75.36,5.8.41a42.79,42.79,0,0,1,2.23,4.19,14,14,0,0,1,1.58,4l3.06,3.1a.5.5,0,0,0,0-.12A.84.84,0,0,1,184,88a1.86,1.86,0,0,0,1.39-1c1.71-3.31,4.14-6.93,5.08-7.56,1.34-.82,12.57-2.84,16-2.84,1.71,0,2.43-.21,2.69-.88a119.64,119.64,0,0,0,.68-12.17l.25-11.28ZM187,73.12A23,23,0,0,0,184.65,77a3.56,3.56,0,0,1-1,1.66c-.36,0-2.27-3.68-2-3.83a59.81,59.81,0,0,1,7.14-4.19A18,18,0,0,1,187,73.12Zm17.86-3.52c-.42,2.07-.42,2.07-3.21,2.38-1.55.16-3.78.47-4.87.67l-2.07.42,1.92-2.28c1.08-1.24,3.41-4.19,5.17-6.52L205,59.92l.16,3.83A31.52,31.52,0,0,1,204.89,69.6Z"/><path id="pgiwpdqJ4" d="M434.23,315.35a70.58,70.58,0,0,1,1.86-9,172.42,172.42,0,0,0,5.54-39.34l.26-8.54-1.3,2.43c-2.17,4-4,11-4.29,16.83-.31,5.17-.31,5.22-1.71,5.53-1.92.37-3.11,3-3.11,6.89,0,4.76-.31,5.33-2.64,5.33-1.91,0-2,.05-2.33,2.38a20.54,20.54,0,0,0,.26,5.23,32.66,32.66,0,0,1,.57,4.91c0,2,0,2-1.91,1.87s-2-.36-2.85-2.49c-1-2.79-1.29-12.57-.31-14.85.88-2.07,2-3.26,3-3.26.73,0,1-.62,1.3-2.95a30.59,30.59,0,0,1,.77-4.09c.57-1.5,2.59-3.31,3.63-3.31.77,0,.93-.83,1.19-5.54a43.11,43.11,0,0,1,6.88-22c2.43-3.78,3.21-4.19,7-3.93,1.86.1,2.38.41,3,1.55,1,2.17,1.81,14.8,1.55,26-.21,10.25-.21,10.36.93,11.29.93.72,1.24,1.65,1.56,4.5a12.86,12.86,0,0,0,.77,3.93c.26.16.47,3.26.47,6.89,0,6.83-.62,10.19-2.64,14.18-.88,1.66-1.24,1.91-2.8,1.91-1.76,0-1.81,0-1.81-2.17A22,22,0,0,1,448.1,310a42.23,42.23,0,0,0,1.34-6.31c.31-2.85.26-3-.88-3s-1.13-.05-.77-4.91l.36-4.92H446.8a11.41,11.41,0,0,0-1.7.1c-.26.06-.94,2.8-1.5,6.11a121.39,121.39,0,0,1-4.92,18.38c-1,2.69-1.14,2.84-2.9,2.84H434Z"/><path id="peNi5bdBG" d="M64.77,307.23c-1.34-2.28-1.5-2.38-3.83-2.38-2.95,0-3.67-.63-3.67-3.16,0-1.76.31-2.23,3.47-4.82S64.46,294,66.59,294H69l-.21-2.07c-.16-1.56-.05-2.07.57-2.07a23.3,23.3,0,0,0,4.3-1.61,22.45,22.45,0,0,1,6.72-1.91l3.11-.21,2.79,2.48c1.56,1.4,4.61,4.4,6.84,6.63,3.57,3.62,4,4.29,4,6s-.15,2-2.27,3.06c-4.61,2.12-15.58,4.45-23.92,5l-4.76.36Zm5.28-7.56c2.85,0,2.8-.26-.15-.67a3.63,3.63,0,0,0-3.11.46c-.93.73-.93.78-.05.52A15.53,15.53,0,0,1,70.05,299.67Z"/><path id="pU6xRZc96" d="M368.6,293.3c-2.8-2.74-3.88-6.21-3.88-12,0-3.47.2-4.51,1-5.59,1-1.25,1-1.61.47-9-1-13.82-.06-24.64,3.26-34.47,2.07-6.21,2.38-6.58,6.21-6.58,4.45,0,5.07.83,7,9.11,2.33,9.79,5.28,27.8,5.28,32.09,0,.37.82.78,1.81.94a4,4,0,0,1,3.36,3.77,1.7,1.7,0,0,0,1.3,1.71c2.79,1,4.81,6.42,5.28,14.13l.31,5h-4.14l-.32-3.52a27.57,27.57,0,0,0-1.65-7c-1.35-3.32-1.5-3.47-3.16-3.47s-1.76-.11-1.81-1.92c-.1-1.6-.16-1.7-.31-.51s-.47,1.39-1.92,1.39-1.81-.31-2.53-1.81a12.31,12.31,0,0,1-.88-4.29c0-2.64-2.12-18.9-2.43-18.59-.11.11.2,3.94.62,8.44s.93,13.77,1.14,20.55L383,294h-1.87c-2.27,0-2.07.88-3.21-15-.67-9.73-2.33-26.71-3.72-38.77-.42-3.47-.78-2.74-2.13,3.83-1.6,7.81-1.75,10.61-1.08,22.82l.57,11.24-1.24.93c-2.44,1.86-.73,8.75,2.89,11.64,1.45,1.19,1.87,1.87,1.87,3.21,0,1.61-.05,1.66-2.13,1.66C371.08,295.53,370.46,295.22,368.6,293.3Z"/><path id="p1Cr6J16Fy" d="M369.89,208.11c-6.42-2.07-10.76-6.89-13.2-14.6-1.34-4.34-2-9.73-2.84-23.24-1.51-25.1-4.56-36.59-12.48-47.1-3.62-4.76-6.05-7-9.11-8.38-2.27-1-2.27-1-4.5,0a9.83,9.83,0,0,1-3.57,1.09c-1.3,0-1.4-.16-1.4-2.13s.1-2.12,2.43-3.15c3.06-1.35,8.65-1.14,11.8.46,2.85,1.5,9,8,11.55,12.37,6.41,10.77,8.8,21.54,10.19,45.76.78,13.77,2.07,21.32,4.2,25.52s8.64,9.16,12.26,9.16c2.23,0,6.47-2.23,10.2-5.39,2.59-2.22,3.78-2.9,5.07-2.9,1.55,0,1.66.11,1.66,1.92s-.42,2.33-3.11,4.87c-4.5,4.29-7.87,5.79-13.4,6A26.27,26.27,0,0,1,369.89,208.11Z"/><path id="pLkbIm7P0" d="M403.48,205.78c-4.5-3.42-8.49-10.87-8.12-15.17.15-1.91.2-2,2.33-2.12a7.41,7.41,0,0,1,4.55,1.19l2.33,1.4v-2.85c0-3.67-1.55-8.59-3.88-12.52-2.12-3.57-5.18-6.89-6.83-7.56-.94-.36-1.2-.83-1.2-2.28v-1.81l10,.31c8.13.26,10.77.21,14.6-.51,13.72-2.54,22.05-7.41,25.52-14.86,1.34-2.9,1.5-3.05,3.26-3.05s2.28.41,4.76,3.1c7.45,8,9.16,19.46,4.09,26.86-2.54,3.68-12.27,12.94-18.32,17.55a90.48,90.48,0,0,1-17.45,10.66c-5.53,2.64-7,3.16-9.88,3.32C406,207.64,405.76,207.54,403.48,205.78Zm10.15-5c4.5-2.38,10.56-5.9,10.4-6.05a26.51,26.51,0,0,0-4.5.87c-4.76,1.14-13.41,1.4-15.79.52l-1.4-.57,1.45,2c.83,1.09,2.18,2.79,3.06,3.83l1.6,1.81,1.81-.77C411.25,202,412.8,201.22,413.63,200.81Zm1.39-9.57a74.8,74.8,0,0,0,25.78-11c13.25-8.9,15.06-15.37,7.35-25.88l-1.24-1.65-1.19,2.12c-4.71,8.85-18.53,14.44-35.66,14.44-6.32,0-6.63,0-5.9.93,1.34,1.5,3.46,6.11,4.29,9.26a38.78,38.78,0,0,1,.78,7.77C409.23,192.74,408.87,192.53,415,191.24Z"/><path id="pn888LlHv" d="M262.23,94.55c0-6.11.73-9.26,3.16-14.28a30.54,30.54,0,0,1,19.1-15.89c5.28-1.45,22.77-1.3,29.5.2,6.32,1.45,11.44,3.94,15.06,7.25,2.54,2.33,3.21,2.69,5,2.69,1.19,0,5.59.47,9.79,1.09,9,1.29,11.59,1.08,16.09-1.14a12.44,12.44,0,0,0,7.2-9.68c.31-2.64.31-2.69,2-2.69h1.76V66c0,4.66-.83,7-3.52,9.73-4.71,4.92-11,6.16-23.55,4.76-4.3-.46-8.13-1-8.54-1.14-.57-.26-.68,0-.31.94a29.91,29.91,0,0,1,.46,6.15c0,5.9-1,8.08-4.6,9.79-2.64,1.29-8.91,1.5-11.08.36-3.47-1.81-5.28-5.23-5.28-9.94,0-5.17,2.07-8.18,7.35-10.56l2.12-.93-2.48-1.6C315,69.45,301.21,67,292,68.26c-5.43.77-8.33,1.76-12,4.14a29.16,29.16,0,0,0-13.56,22l-.31,4.14-1.92.15-2,.16Zm66.46-3.93a11.05,11.05,0,0,0,1.55-2.69c.68-1.61.68-2.07-.15-4.51a13.68,13.68,0,0,0-1.4-3.21c-.88-.88-4.5.73-6.78,2.9-2.54,2.38-2.74,3.73-1.19,6.32C322.64,92.53,326.41,93.1,328.69,90.62Z"/><path id="p1BSVsmB9X" d="M379.21,60.29c-1.24-1.5-5.54-3.37-11.29-4.82-5.22-1.34-6.1-1.39-16.51-1.34l-11,.1V52.52c0-4.34,2.69-8.64,10-16,6.31-6.37,8.33-8.8,9.63-11.75,1.86-4,1.29-7.14-1.87-10.4-1.65-1.71-1.81-2.13-1.55-4a7.68,7.68,0,0,1,.57-2.43c.62-.62,17.6-1.3,27-1,10.15.31,13.82.88,17.81,3l2,1,.36,5.43a55.75,55.75,0,0,1,0,8.44c-.41,3.46-3.78,13.82-6.06,18.73a56.67,56.67,0,0,1-9.83,14.39c-2.43,2.43-3.05,2.75-5.59,3.06C380.5,61.11,379.83,61,379.21,60.29Zm7-8.28c5.08-6.37,12.69-23.61,13.57-30.75a21.85,21.85,0,0,0-.06-4.86c-.36-2.23-.41-2.33-3.05-3.16-3.42-1.14-12.53-1.81-24.22-1.87h-9.11l1.34,2.7c1.09,2.22,1.3,3.36,1.3,7.09,0,7.09-1.35,9.42-11.29,19.67-4.45,4.55-8.07,8.33-8.07,8.43s3.67.11,8.23,0c6.73-.1,9.16.05,13.51.93,5.8,1.19,10.61,3,12.78,4.66a4,4,0,0,0,1.76.93A34.15,34.15,0,0,0,386.19,52Z"/><line class="cls-3" x1="179.97" y1="85.72" x2="178.32" y2="84.06"/></g><g id="l374ClYYSbttOARaTh7B2HH"><path id="p1G8ukcjSK" class="cls-4" d="M-59.19,207V-103.53h621.1v621.1H-59.19ZM177.35,386.88c0-.62-17.81-8.54-32.61-14.49-4.24-1.71-31.31-11.13-32-11.13-.1,0,.06-.36.42-.77,1.14-1.35.26-1.35-1,0l-1.19,1.24,1.5.62c.83.31,6.89,2.48,13.41,4.86,15.63,5.65,20.13,7.41,36.49,14.19C175.28,386.73,177.35,387.5,177.35,386.88Zm7.76-5.07c5.7-4.5,15.27-13,21.64-19.15,3.62-3.52,4.71-5.07,2.84-4-1.5.83-28.62,24.79-30.12,26.61S180,385.85,185.11,381.81Zm-13.45-.1c0-.73-32-14.65-51.92-22.52-2.33-.93-2.9-1.34-2.69-2.07a4.22,4.22,0,0,0-.26-2.33c-.67-1.71-2.17-2.22,13.15,4.51,6.57,2.89,19.77,9.21,29.29,14s17.55,8.64,17.76,8.54c.72-.21-12.06-7.5-22-12.58C143.71,363.54,133.56,359,120.93,354c-5-2-9.11-3.72-9.26-3.83-.36-.36,2.22-2.27,3.1-2.33a20.29,20.29,0,0,1,4.4,1.82c2,1,6.37,3.15,9.79,4.76s9.36,4.4,13.19,6.26,9,4.25,11.39,5.38,8.49,4.09,13.46,6.47,9.83,4.77,10.76,5.13,1.56,1,1.4,1.24,0,.52.31.52c1.24,0,17.44-17.24,23.29-24.79,1.4-1.76,1.45-1.76,4-1.3l2.64.47-4.51,3.67c-5.53,4.5-22,19.51-24.32,22.15-.93,1.09-1.61,2.07-1.45,2.23.36.41,2.79-1.71,20.44-17.75,11.7-10.56,11.44-10.35,11.44-11s-3.1-1.65-4.76-1.65c-.57,0-.78-.26-.62-.78s.21-.77,0-.77-3.41,3.41-7.19,7.66-8.28,9.1-10,11-4.3,4.66-5.65,6.21a38,38,0,0,1-2.84,3,19,19,0,0,1-3.94-2c-6.67-4.09-47.61-23.7-60.35-28.93-2.69-1.09-3.52-2.07-1.76-2.07s25-9.83,31.78-13.51l3.83-2,5,1.87c12.22,4.6,48.24,15.78,50.73,15.73,2.32,0-1.3-1.35-28.11-9.83-9.68-3.06-19.51-6.11-21.84-6.78-2.69-.78-4.3-1.51-4.3-1.92s-.31-.62-.62-.47l-28.62,12.48c-9.11,4-10.46,4.81-9.63,5.64s.73,1.24-1.24,2.43c-1,.62-1.81,1.3-1.81,1.56a8.2,8.2,0,0,0,2.84,1.55,8,8,0,0,1,2.85,1.55c0,.21.16,1.14.31,2,.31,1.45.21,1.6-1,1.6-.83,0-1.35.26-1.35.78a.9.9,0,0,0,1,.78,24.56,24.56,0,0,1,5.28,2c5.39,2.48,15.07,6.62,31.27,13.4C169.22,381.55,171.66,382.48,171.66,381.71Zm-10.61-25.57c5.84-5.13,8.17-7.56,7.91-8.34-.15-.56-8.59,6.68-12.26,10.56C153.39,361.78,156.28,360.38,161.05,356.14Zm-7.15-3.37c5.08-4.19,6.68-5.85,6.21-6.31s-4,2.17-9.11,6.62C143.19,359.86,145.78,359.61,153.9,352.77Zm-13.61-3.26c8.8-5.12,14.13-8.95,12.32-8.95-1.24,0-17.7,10.35-17.7,11.18C134.91,352.36,136.51,351.74,140.29,349.51Zm-5.43-5.59c6.21-2.95,7.66-3.88,6-3.88-2.17,0-13.25,5.38-13.25,6.47C127.66,347.18,129.42,346.56,134.86,343.92ZM374,344.6c1.55-1,1.61-2.49.16-3.83l-1.35-1.25h1.4c2.43,0,7-2.38,7-3.67,0-.26-1.35-1.14-2.95-2-2.28-1.14-4.61-3.21-9.89-8.75-8.23-8.69-10-9.83-17-10.4a19.73,19.73,0,0,1-8-2.07,12.69,12.69,0,0,1-3.52-2.07c0-.57,3.52-2.9,5.07-3.36s1.5-1.35.11-1.35c-2.69,0-7.92,4.19-9.42,7.56-.37.77-.88,1.19-1.35,1-3.1-1.19-21.12-4.5-28.21-5.23l-3.52-.31,3.68-1.24A59.19,59.19,0,0,0,319.69,301c3.36-2.22,3.36-2.22,6.47-1.76s16.71,4.25,18.37,5.13c1.5.83,1.81.62.78-.52a12.3,12.3,0,0,0-3.78-2.07c-4.71-1.76-13.62-4.14-15.53-4.14h-1.81l2.07-2.17c4.29-4.71,10-13.77,10-16.05a7.72,7.72,0,0,1,.72-2.07c.42-.83.68-1.45.57-1.45s-2.28,1-4.81,2.33c-6.89,3.42-11.08,4.45-19.05,4.76-11.7.47-20.34-2.07-30-8.95l-3.16-2.23,1.51-3.16a33,33,0,0,0,2.32-7.4,33.31,33.31,0,0,1,2.49-7.61c3.21-6.31,12.11-27.38,14.8-35.09,1-3,.31-3.16-.93-.15-2.48,5.9-12.94,29.29-14.75,32.86-4.35,8.75-10.61,16.83-16.72,21.54a50,50,0,0,1-7.4,4.45c-4.76,2.38-4.66,3,.1,1.19,6.11-2.28,13.2-8.08,18.89-15.38,1.14-1.55,2.13-2.53,2.13-2.27s-.78,2.84-1.76,5.74l-1.71,5.28,2.38,2.12c9.11,8.08,23,12.43,34.68,10.77a50.43,50.43,0,0,0,16-5c3.83-2.07,3.88-1.86.78,3.57A48.63,48.63,0,0,1,302.35,307c-4,1-5.85,1.19-13.2,1.14-7.87-.06-13.41-.57-15.63-1.45-.52-.21-.94-.16-.94.15,0,1.19,6.16,2.23,16.31,2.69a224.49,224.49,0,0,1,32.35,3.63c4.71.82,9.52,1.65,10.76,1.81l2.18.36-1.76,2.38a45.63,45.63,0,0,0-5.75,11.6c-.93,3.31-.88,10.3.11,10.61.36.15.46-.16.31-.83s-.06-1.09.26-1.09c1.65,0,22.82,3.78,29.86,5.38l9.58,2.07C368.7,345.73,372.94,345.27,374,344.6ZM325.53,340c-.36-.36-3.77-.78-8.28-1a183.19,183.19,0,0,1-23.19-2.58c-12-2.13-28.62-7.3-36-11.13-6.62-3.47-12.37-8.7-14.85-13.51a21.6,21.6,0,0,1-1.19-15.84l1-3.36,5.85-3.63a169.28,169.28,0,0,1,24.38-12.57c3.73-1.56,6.37-2.85,5.9-2.95-2.28-.42-17.55,5.95-25.78,10.76-2.43,1.45-2.64,1.5-1.5.42a17.23,17.23,0,0,0,2.33-2.8,6.22,6.22,0,0,1,1.66-1.91c.46-.31.26-.73-1-1.56-3.16-2.17-3.78-3.57-4.09-9.05-.26-4.92-.31-5-.94-2.95-1.44,4.76-.46,9.36,2.59,12.16l1.66,1.55-2,2.07c-3.47,3.57-7.4,4.56-11.49,2.85-2.69-1.14-3.05-1-5.75,1.6-2.17,2.18-2.58,2.38-4.34,2.12-2.12-.25-2.59.32-1,1.2,2.07,1.08,3.73.56,6.16-1.82,2.59-2.58,2.85-2.64,5.44-1.55,2.22.93,6.16,1,7.76.21s.73-.11-3.1,2.84c-1.82,1.35-3.26,2.64-3.26,3,0,.67-8.49,6.15-14.13,9.21-4.82,2.59-7.15,3.62-22.62,10.4-4.71,2.07-10.51,4.76-12.94,6l-4.4,2.27-16.31-6.67c-16.25-6.63-33.59-13.82-37.52-15.58-4.56-2.07-8.54-3.52-8.54-3.16,0,.93,22.88,11.33,38.56,17.49,10.4,4.09,22.51,8.44,23.45,8.44a78.54,78.54,0,0,0,8.38-3.16c4.14-1.76,11.34-4.81,16.05-6.78,9.93-4.19,18.84-8.85,24.22-12.73a20.21,20.21,0,0,1,4.09-2.54,4.09,4.09,0,0,1-.42,1.71,22.36,22.36,0,0,0-.62,5.64q0,18.48,29.09,28.42A158.3,158.3,0,0,0,315.29,340c5.43.21,10,.47,10.35.47S325.84,340.3,325.53,340ZM194.84,315.15c7.2-3.06,22.52-10.82,29.2-14.81,12.52-7.4,16.14-10.66,5-4.55-3.52,2-8.33,4.6-10.76,5.95s-10,5.28-17,8.75l-12.58,6.36-5-2.17c-7.71-3.36-7.45-3.16-4.76-4a10.73,10.73,0,0,1,3.88-.41c1.19.21,1.4.16.88-.36s.42-1,3.94-2.49c2.48-1,6-2.64,7.66-3.52l3.16-1.6,1.24,1.29c1.71,1.81,4,2.95,5.33,2.59s11.7-6.52,17.23-10.35c4-2.8,5.34-3.93,4.51-3.93-1,0-9.94,5.38-18.27,11l-3.78,2.59-2.12-1.56a9.67,9.67,0,0,1-2.28-2c-.11-.26,1.09-1.14,2.59-2,2.58-1.45,16.2-10.35,18.11-11.85a3.68,3.68,0,0,0,.88-1,14.29,14.29,0,0,0-2.85-2.22,26.6,26.6,0,0,1-2.84-2.12c0-.06,1.76-1.19,3.88-2.54,4.61-2.85,5.8-2.79,6.06.21l.15,2,3.83-3.58a27.67,27.67,0,0,0,3.62-3.83,7.08,7.08,0,0,0-2.43.78l-2.22,1,1-1.24c1.29-1.6,5.23-4.92,5.85-4.92a11.27,11.27,0,0,0,2.84-2.38c1.82-1.86,2.54-2.33,3.47-2.07,2.33.68,5.49.94,6.42.57.73-.26.31-.51-1.66-1.08-6.15-1.71-7.91-1.45-9.1,1.45-.42,1-1.35,1.81-3.16,2.58-2.33,1-7.66,6-7.66,7.2,0,.26-.36.46-.78.46s-.62-.31-.41-.88.15-.72-.26-.46c-.73.46-3.52-.42-5-1.5-.83-.62-.88-.88-.31-1.56.72-.88.36-1-1-.25-.73.36-2-.06-5.54-1.82-5.13-2.58-6-2.84-4.61-1.29.52.57.83,1.14.73,1.24s-1.76.88-3.63,1.76c-3.47,1.55-3.47,1.55-4.91.57-2.08-1.34-2.7-1.24-1.25.31l1.19,1.24-1.24.52c-.67.26-2.74,1.09-4.61,1.86s-3.83,1.61-4.39,1.82c-.73.25-1.82,0-3.37-.78-2-1-2.17-1.24-1.29-1.6.57-.21,6.31-2.44,12.78-5L210.94,267l6.63,2.28c7.71,2.69,10,3.26,10,2.53s-7.35-3.52-12.38-4.81l-3.83-1-6.26,2.12c-3.47,1.14-8.69,3-11.7,4.14s-12.42,4.55-21,7.66c-25.31,9.21-35.92,13.4-34.11,13.51.26,0,2.9-.83,5.85-1.81l5.33-1.76,2.33,1.76,2.33,1.81-2.22.93c-1.25.52-3.47,1.4-4.87,1.92l-2.64.88-3.67-1.61c-4-1.71-4.3-1.81-4.3-1.19,0,.21.62.67,1.45,1s3.16,1.56,5.28,2.75c10.92,6,41.92,19.1,45.24,19.15A27.23,27.23,0,0,0,194.84,315.15Zm244.61-8.6c4-14,6.11-33.23,5-47.15-.41-5.59-.46-8.18-.05-8.59,1-1,1.66.52,2.18,4.92.51,4.6.83,27.79.41,31.26-.21,1.91-.15,2.07,1,2.07s1.29,0,1.29,5.07.36,6.16,1.09,3.88c.26-.93.41-1,.77-.26.68,1.14-.36,9.89-1.6,14a14.53,14.53,0,0,0-.88,4.09c.26.83,2.12-2.9,3.16-6.31,1.08-3.68,1.14-12.89.1-13.31-.52-.2-.67-1.24-.67-3.72,0-3.11-.16-3.52-1.5-4.76s-1.5-1.4-1.19-4.92c.82-9.32.2-28.73-1.09-32s-4-2.38-6.94,2.17a42.83,42.83,0,0,0-6.83,21.85c-.15,3.77-.41,5.48-.83,5.59-3,.77-4.45,3.1-4.71,7.45-.15,2.22-.36,2.79-1.19,2.95-2.74.46-4,3.83-3.72,9.68.2,3.72,1.6,8.54,2.27,7.86a10,10,0,0,0-.36-3.46c-1.14-6,.1-13,2.38-13,.36,0,.88.51,1.09,1.19.36,1.08.36,1.08.77.1a18.45,18.45,0,0,0,.42-4.3c.05-4.14,1.19-6.78,3.16-7.14,1.39-.31,1.39-.36,1.7-5.54.47-7.66,3.68-17.54,7.25-22.36.73-.93.83-.88,1.19,1.56.52,3.57-.1,20.91-1,28.72a187.49,187.49,0,0,1-4.51,24.07c-.93,3.42-1.71,6.78-1.81,7.5C435.42,318.41,437.69,312.66,439.45,306.55Zm-361,.06c8.18-1.35,17.08-4.15,17.08-5.39,0-.46-6.93-7.55-10.82-11-2.53-2.33-3-2.49-4.6-2.18A31,31,0,0,0,75,289.89a19.59,19.59,0,0,1-4.14,1.5c-.52,0-.62.21-.26.67a4.39,4.39,0,0,1,.78,2.07c.26,1.4.26,1.4-2.64,1.4s-3.11.15-6.42,2.9a19.88,19.88,0,0,0-3.47,3.26c0,1,1.45,1.6,3.68,1.6s2.48.11,3.83,2.38l1.39,2.38,3.16-.36C72.64,307.54,76.06,307,78.49,306.61ZM42.1,299.46a32.18,32.18,0,0,0,5.8-3.15,29.17,29.17,0,0,1,6.37-3.11l2.74-.78-2.54.26c-1.76.16-3.72,1-6.47,2.64-5.79,3.47-9.31,4.5-13.87,4.19a14.83,14.83,0,0,1-10.61-4.91c-2.64-2.85-3.88-5.75-4.55-10.41a36.63,36.63,0,0,1,1.09-13.4c.46-1.71.82-2.18,1.44-1.92A103.28,103.28,0,0,0,34.39,272c16.15,2.79,27.07-2.9,33.33-17.5a19,19,0,0,0,1.82-8.12c.15-3.88,0-4.66-1-6.42C65.34,234.45,57,234,46.61,238.8c-10.66,5-19.93,13.77-24.85,23.76l-2,3.93-3.06-1.6c-5.69-3.06-9.52-9-10.76-16.51C4.06,236.73,11.83,222.86,26.21,212c15.07-11.33,37.89-18.48,59-18.48,17.39,0,30.49,5.28,38.46,15.43,2.32,3,3.88,5.64,3.41,5.95-.1.1-3.41,1.09-7.35,2.17s-7.55,2.33-8,2.75c-.83.67-.78.67.1.41,1.87-.62,15.27-3.93,15.84-3.93s1.86,2.43,1.5,2.79c-.1.11-3.47.93-7.45,1.81a57.13,57.13,0,0,0-7.66,2.08c-.42.41,2,.1,11.64-1.56a20,20,0,0,1,4.3-.41c.47.52,1.24,7.87,1,9.52-.2,1.24-.15,1.35.26.52.62-1.29.68-5,.05-8a8.82,8.82,0,0,1-.2-2.54c.1-.1,3.26-.88,7-1.66l6.79-1.44,3.2,2.79c3.58,3.21,6.22,4.66,7.46,4.09.67-.26.51-.41-.73-.73a8.77,8.77,0,0,1-3.1-1.44c-1.87-1.35-5.13-4.66-4.82-5,.11-.11,4.61-1.25,10-2.59s12.68-3.21,16.15-4.19,6.63-1.82,6.89-1.82.88,1.76,1.34,3.89c.93,3.93,2.38,7,3.37,7,.31,0,.2-.51-.21-1.13-.93-1.45-2.38-7-2.38-9.11,0-1.45.2-1.56,3.26-2.44,4.29-1.19,8.8-2.9,8.49-3.21s-7.72,1.61-11.39,2.75c-.78.26-.93,0-.78-1.14.16-1.4.21-1.45,9.42-3.42,5.13-1,9.37-1.86,9.37-1.81s.73,3.47,1.5,7.61c2.64,14.13,7,33.23,10.77,46.74l2.12,7.66,2.38,1.19c4.76,2.43,17.65,6.42,17.65,5.48,0-.51-8.33-3.77-15.11-6-2.75-.88-4.56-1.76-4.56-2.12,0-.62-3-13.87-10.66-47.26-3.42-14.85-3.1-14-4.76-14-1.45,0-15.53,2.38-17.39,3-.93.26-1,0-.62-3.68a47.68,47.68,0,0,1,8.74-23.39,130.31,130.31,0,0,1,8.7-9.73c7-7.25,9.78-10.92,11-14.55,1.14-3.31.36-2.84-1.45.88-1.19,2.44-3.57,5.28-10.09,12.06a144.88,144.88,0,0,0-11,12.43,47.23,47.23,0,0,0-7.51,22.36c-.2,3.2-.51,4.29-1,4.29-1,0-20.6,4.25-29.92,6.47-9,2.17-7.71,2.69-11.64-4.92-5.08-9.93-7-20.23-6.58-34.93.42-14,2.07-22,6.11-29.82a28.58,28.58,0,0,1,3.31-5.12l1.24-1.19-.31,3.67c-.41,4.82.47,7.92,2.8,9.94,2.79,2.49,6.42,2,9.42-1.24,1-1,1.34-2.07,1.5-4.45.41-5.69-3.05-10.25-8.18-10.77-1.45-.1-2.59-.46-2.59-.72,0-.88,3.32-9,4.82-11.8,5.33-9.79,11.85-16.25,23.34-23.09,4.76-2.84,9.47-6.73,8.9-7.35-.15-.15-1.14.57-2.17,1.56A45.06,45.06,0,0,1,172,93.93c-7.51,4.24-11,6.94-15.48,11.54a52.4,52.4,0,0,0-12.78,21.17c-1.24,3.57-1.81,4.66-3.11,5.44-2,1.29-5.33,6.26-6.78,10.14-3.1,8.18-4.66,18.06-4.66,29.76,0,15.06,3.06,27,9.53,37.42l1.29,2.12-5.28,1.4c-2.9.73-5.54,1.35-5.9,1.35s-1.29-1.24-2.17-2.8c-3.31-5.95-11.29-12.42-18.84-15.32-8.75-3.41-15.48-4.4-26.5-4-25.21,1-50.1,10.92-64.39,25.67C11,224.1,6.18,232,4.73,238.23c-2.74,11.7,2.18,23.6,11.81,28.52l2.84,1.4-.72,2.69a41.17,41.17,0,0,0-.78,14.6c1.4,7.6,6.06,13,12.73,14.8C32.84,300.86,39.57,300.39,42.1,299.46ZM157,282.54c16.77-6.27,36.33-13.51,43.42-16.1s13.2-4.92,13.46-5.18c2.79-2.69-53.31,17.5-81.68,29.46-3.57,1.5-5.79,2.17-6.1,1.86-1.45-1.45-10.25-40.22-13.93-61.49-1.55-8.9-1.81-10-2.27-9.52-.26.31,1.45,13.35,2.79,21.17,2.54,14.95,7.82,36.95,11.13,46.32,1.5,4.29,1.81,4.92,2.22,4.92S140.19,288.85,157,282.54Zm214.64,9.62c-2.74-2.32-4-5.59-4-10.24,0-3.06.16-3.63,1.14-4.4l1.14-.88-.52-9.58c-.62-11-.31-18,1.14-24.58,1.14-5.13,3.52-12.89,3.93-12.53.63.67,3.52,27.33,5,46.84.68,8.34,1.35,15.27,1.56,15.48,1,1-.11-22.21-1.81-37.37-1-9.11-3.42-25-3.89-25.73s1.19-.36,2,.52c2,2.18,7.56,31.63,7.61,40.06a9.77,9.77,0,0,0,1.09,4.56l1,1.81-.1-2.28c-.11-1.71.05-2.38.72-2.84,1.35-.83,2.54.62,2.85,3.51.26,1.92.41,2.28,1,1.82,1.19-1,2.64.41,4.09,4a28.1,28.1,0,0,1,1.66,7c.15,1.92.52,3.52.83,3.52s.36-1.35.15-3.62c-.67-6.58-2.74-11.49-5.23-12.42a1.76,1.76,0,0,1-1.29-1.76,3.54,3.54,0,0,0-3.47-3.52l-1.6.05-.62-5.8a247.53,247.53,0,0,0-4.77-27.48c-1.7-7.35-2.79-9.11-5.48-9.11-2.07,0-2.85,1.08-4.66,6.57-3.31,9.89-4.14,18-3.21,32.14.62,9.79.62,9.89-.47,11.29-2.38,3.05-.93,10.87,2.8,14.54A8.58,8.58,0,0,0,373,294C373.41,294,372.74,293.15,371.6,292.16ZM140.19,285c13.14-4.55,26.39-9.37,36.9-13.46,3.42-1.34,7.4-2.9,8.8-3.41,3.83-1.5,18.84-7.56,21.17-8.54,1.09-.47,1.86-1,1.71-1.14-.31-.26-18.58,6.31-36.34,13-5.38,2-15.89,6-23.29,8.75S134,286,131.85,286.78a31.5,31.5,0,0,1-4,1.4c-.05-.1-.83-3.78-1.76-8.18-5.28-26.4-13.36-59.94-13.46-56.16-.05,2.13,9,43.48,12.42,57.2,2,7.55,2.18,8.28,2.38,8.28S133.25,287.35,140.19,285Zm89.23,1.71a34.64,34.64,0,0,1,4.19-3.47c3.37-2.43,4.14-3.57,2.12-2.9-2.84.88-8.17,5.54-8.17,7C227.56,288.08,228.44,287.77,229.42,286.68Zm-.78-3.06a23.08,23.08,0,0,1,4.25-3.67c1.65-1.19,2.89-2.23,2.74-2.38-.52-.52-4.09,1-5.8,2.59-1.55,1.34-3.31,3.83-3.31,4.76C226.52,285.64,227.56,285,228.64,283.62Zm111.44-15.26c2.64-14.91,2.22-30.65-1.3-51.25-2.79-16.25-6.57-26.6-12.62-34.67-4-5.28-8.91-8.85-13.72-9.84a7.59,7.59,0,0,1-3.05-1.5c-1.14-1-3.68-4.61-3.68-5.23a5.93,5.93,0,0,1,2.48-.26c6.68-.05,11-5.33,11.75-14.54.78-8.8-3-16.15-9.83-19.1-1.24-.52-4-1.45-6.26-2.07-4.35-1.24-7.46-2.53-7.46-3.16,0-.46,3.37-1.5,4.77-1.5a1.45,1.45,0,0,0,1.19-.51c.57-.88-2.33-1.14-4.61-.42l-2.28.78-.31-1.66c-.36-1.86-1.6-3.78-2.12-3.26a5.28,5.28,0,0,0,.26,2.49,7.1,7.1,0,0,1,.36,2.43c-.15.1-2.85-2.28-6-5.28-6.42-6.11-9.58-8-14.5-8.39a15.14,15.14,0,0,0-10.5,3c-2.12,1.76-4.56,6.22-4.56,8.34,0,1.24-.2,1.39-2.69,1.65a12.16,12.16,0,0,0-10.66,11.29c-.21,2.64-.05,3.36,1.09,5.07a10.6,10.6,0,0,0,3.72,3.16c2.07,1,3,1.14,6.47.93,5.59-.31,9.58-2.38,15.22-7.77l4.24-4a4.08,4.08,0,0,1,.42,1.29c.36,1.5,5.23,6.83,7.81,8.59a6.72,6.72,0,0,1,1.81,1.56,9,9,0,0,1-2.95,1,51.68,51.68,0,0,0-6.36,1.91c-1.87.68-3.42,1-3.47.83-1.14-3.26-4.5-5.59-7.35-5-1.91.42-5,3.62-5.43,5.75a5.35,5.35,0,0,1-1.92,2.69c-1.5,1.14-1.66,2.33-.21,1.76.94-.31,1,.67.21,4.66-.78,3.83-.36,5.28,1.66,6s4.24.73,3.83.05a6.19,6.19,0,0,0-2.33-1c-2.28-.62-2.28-.62-1.5-5,.88-4.66.93-4.76,2-3,1,1.6,3.83,3.31,5.49,3.31a9.37,9.37,0,0,0,2.69-.88c2.07-.93,3.26-3.21,3.26-6.06,0-1.7.11-1.76,2.75-2.38,1.45-.36,3.77-1.08,5.17-1.6s2.43-.73,2.43-.47.83-.1,1.87-.77c2.27-1.56,3.57-1.61,5.59-.31,2.84,1.86,3.57,4.65,2.17,8.07-.83,2-2.48,3.05-4.24,2.69-.68-.1-1.25,0-1.25.21,0,.62,2.13,1.08,3.78.88,1.14-.16,1.61.26,3.06,2.69,2.07,3.42,4.24,5,7.66,5.43,2.22.31,2.59.52,2.84,1.76a9.51,9.51,0,0,0,2.13,3.42,12.38,12.38,0,0,1,1.65,2.07l-3.52,1.66A41.15,41.15,0,0,0,299,178.5a20.54,20.54,0,0,1-3.21,2.12c-.2,0-.62-.46-.93-1a8.91,8.91,0,0,0-3.36-2.38l-2.85-1.4-3.67.88c-3.06.78-4.15.83-6.27.31-3-.67-6.16-2.74-8.95-5.79l-2-2.23,1.81-.72c1.71-.68,5.13-3.83,5.13-4.77,0-.67-2-1.65-2.64-1.29-.37.26-.37.57.05,1s.15,1-1,2c-2.22,1.87-3.93,2.23-5.17,1.09-1.92-1.71-1.19.47,1.19,3.68,4.29,5.84,9.21,9,14,9a22.85,22.85,0,0,0,4.92-.83c3-.82,3.05-.82,5.59.47,4.24,2.17,4.35,2.48.88,5.12a37.32,37.32,0,0,0-10.3,13c-2.8,5.53-4.09,9.42-7.77,23.39-1.6,6-3.67,13.1-4.71,15.79-3.77,10.19-9.83,19.82-15.68,24.79-1.45,1.24-2.53,2.38-2.38,2.48.52.52,6.42-4.6,9-7.76,7.55-9.42,10.86-17.13,15.94-36.85,1.34-5.13,3-11.08,3.67-13.2,2-5.9,5.7-13.25,7.3-14.34.72-.52,3.57-3,6.31-5.69,5.8-5.59,8.08-7.25,13.41-10.09,4.55-2.39,5.54-2.39,9.89.25,11.12,6.68,17.85,23.14,21.84,53.42,1.5,11.28,1.65,30,.31,38.77-1,6.36-1,7.09-.42,6A31.68,31.68,0,0,0,340.08,268.36Zm-174.48.41a22.23,22.23,0,0,0,4.55-2.59c.83-1,1.87-.83,2.18.36s1.71,1.09,7.3-.82c4.86-1.66,12.63-6.53,17.54-11,1.5-1.45,1.87-2.33.68-1.86-.83.31-1.09-.41-1.61-4.19-.46-3.57-3.57-12.68-5.9-17.34l-1.91-3.88h-4.09c-3.73,0-4.92.31-11.91,2.84-6.31,2.33-7.45,2.9-6.05,3,1,.1,4.4-.78,8.64-2.23a61.07,61.07,0,0,1,10-2.69l3-.26,2.95,8.49c2.43,6.88,5.07,15.84,5.07,17.18,0,.62-10,7.14-14.28,9.32-5.85,2.95-7.71,3.41-8.08,2-.2-.72.31-1.6,1.76-3a34.27,34.27,0,0,0,3.52-4.24l1.5-2.23-2-1.4a49.69,49.69,0,0,1-5.27-4.5c-2.7-2.54-3.42-3.57-3.94-5.74-.77-3.06-3.83-9.68-4.71-10.2s-.62.93,1,4.86a18,18,0,0,1,1.4,4,13.36,13.36,0,0,1-2.48-2.69c-1.66-2.12-2.59-2.85-3.57-2.85-3.11,0-19.26,6.32-20.71,8-.67.83,1.25,6.06,3.73,10.3,3.11,5.23,8.8,11.65,13.09,14.7C158.82,271.46,160.17,271.25,165.6,268.77Zm41.77-19.41c-.62-3.21-2.28-11.08-3.68-17.49-4.4-19.67-7.14-29.87-7.19-26.92-.05,2.43,9.83,47.21,11.23,50.72C208.51,257.8,208.35,254.69,207.37,249.36Zm174.06-44.1c2.95-1.45,7.82-5.43,8.75-7.19.67-1.3.78-1.4-3.93,2.64-5.54,4.76-11.34,6-16.62,3.52a22.87,22.87,0,0,1-8.23-7.92c-2.12-4.19-3.41-11.75-4.19-25.52-1.4-24.22-3.78-35-10.2-45.75-2.53-4.25-8.69-10.87-11.38-12.27-3.16-1.6-6.11-1.81-8.85-.57-1.35.62-2.44,1.29-2.44,1.55s.88,0,1.92-.46c5.12-2.64,10.35,0,16.66,8.33,7.92,10.51,11,22,12.48,47.1.83,13.51,1.5,18.89,2.85,23.24,2.43,7.71,6.78,12.47,13.19,14.6C373.72,207.33,378.59,206.66,381.43,205.26Zm36.23-2.79A83.83,83.83,0,0,0,435,191.91c6.11-4.61,15.79-13.87,18.33-17.55,3.46-5.12,3.62-10.82.36-17.44-1.4-2.85-6.73-9.42-7.66-9.42a13.24,13.24,0,0,0-1.71,3.05c-2.69,5.8-8.07,9.89-16.72,12.63-7.81,2.54-12.47,3.11-23.39,2.85-5.49-.16-9.84-.05-9.68.15a1.17,1.17,0,0,0,.93.47c1,0,5,4.45,6.73,7.4,3.05,5.23,4.76,12.32,4.14,17.08-.31,2.28-.36,2.33-1.81,1.92a26.38,26.38,0,0,1-4-1.92c-3.42-1.91-4.14-1.34-2.9,2.38A25.64,25.64,0,0,0,405,204.23C408.14,206.66,409.43,206.45,417.66,202.47ZM226.52,152.73c7.61-8.13,14-24.9,15.84-41.31l.31-3.21-2.9-1.86A51.07,51.07,0,0,0,216.58,99c-5.9-.36-7.19.57-1.55,1.09,10.3,1,26.5,7,26.5,9.83,0,1.92-4.61,19.77-6.26,24.23-.88,2.38-2.49,6.16-3.63,8.38-2,4-7.5,12.22-8.23,12.22-.2,0-.67-.63-1.08-1.35-1.56-3-6.52-6.78-13-10a66.49,66.49,0,0,0-9-3.78,13.53,13.53,0,0,1-3-1c-.26-.16.52-1.76,1.6-3.52,4.51-6.94,11.6-27.33,11.44-32.87l0-2.12-.52,1.81c-4.19,14.08-9.57,28.62-12.94,34.47a11.76,11.76,0,0,0-1.39,3,31,31,0,0,0,3.31,1.09c3.88,1.14,15.11,7,18.79,9.68A21,21,0,0,1,221.5,154c.62,1,1.35,1.81,1.66,1.81A19.26,19.26,0,0,0,226.52,152.73Zm38.3-59.32c0-9.83,8.44-21.27,18.48-25.1,4-1.5,11-2.28,17.6-1.86,11.69.62,19.92,3.2,25.46,7.86,1.92,1.61,2,2.28.47,2.28-1.71,0-6.11,2.17-8,4-5.54,5.22-1.56,15.16,6.1,15.16,7.4,0,11.23-7.14,8.08-15l-1.35-3.31,3.73.31c2.07.21,6.52.67,9.94,1.09,10.24,1.24,16.09-.11,20.54-4.71a11.07,11.07,0,0,0,3.47-8.28l-.05-2.49-.47,2.85C367.67,73.07,362,77.57,354,78a74.74,74.74,0,0,1-11.65-.88c-4.19-.62-8.59-1.09-9.78-1.09-1.81,0-2.48-.36-5-2.69-3.62-3.31-8.75-5.8-15.06-7.19-6.63-1.56-21.22-1.66-26.4-.26a27.65,27.65,0,0,0-13.25,7.87,29.12,29.12,0,0,0-9,20.75c0,1.76.2,2.69.51,2.49S264.82,95.22,264.82,93.41ZM186,81.51a18.41,18.41,0,0,1,2.85-3.63c1.35-.82,16.2-3.52,17.44-3.1a1,1,0,0,0,1.3-.62c.57-1.4,1-19,.52-20.19-.63-1.29-1.14,3.21-1.3,10.46-.15,8.07-.36,8.74-2.59,8.95-1,.1-4.6.62-8,1.14a45.78,45.78,0,0,1-6.42.72c-.15-.1.11-.51.52-.88,3.42-2.79,15.68-18.73,15.17-19.61-.16-.26,0-.78.31-1.19s.51-.78.31-.78c-1.25,0-37.37,19-39.29,20.6-1.6,1.4-.72,1.92,3.57,2,7.15.1,7.09.05,10.1,6,2.38,4.71,2.69,5.13,3.21,4.14C184.08,84.92,185.11,83.11,186,81.51ZM381.8,58.94c0-1.09-3.37-3.57-6.53-4.81a62.61,62.61,0,0,0-8.59-2.44c-4.55-.93-6.42-1-12.83-.77-4.14.15-8.29.41-9.27.62l-1.76.36,1.24-2.28c.68-1.24,4.82-5.95,9.16-10.45,6.37-6.57,8.29-8.85,9.53-11.54,2.59-5.59,2-11.23-1.76-15.06-2.54-2.59-3.47-2.08-1,.56a10.94,10.94,0,0,1,2.69,9.94c-1,4.61-2.74,7-10.71,15-5.59,5.59-8.07,8.9-9.21,12.17-.42,1.19-.78,2.17-.78,2.22s5,.05,11,.05c10.3,0,11.39.11,16.57,1.4,5.64,1.45,10,3.31,11.23,4.76C381.54,59.67,381.8,59.72,381.8,58.94Zm5.53-3.21c5.75-5.95,9.37-12.52,13.1-23.7,2.28-6.63,2.74-10.61,2-17.24-.26-2.28-.47-2.64-2.18-3.52-4.81-2.43-7.45-2.74-23.65-2.64-8.39,0-15.94.31-16.82.62-1.09.31,2,.52,10.87.52,15,.1,23.91.72,27.53,1.92,2.64.82,2.69.93,3.06,3.15a48.9,48.9,0,0,1,.1,6.27c-.52,8.33-7.76,25.15-14.39,33.38C385,57,383.5,59,383.76,59A18.72,18.72,0,0,0,387.33,55.73Z"/><path id="pBSHmsuVG" class="cls-4" d="M363.89,333.05c-1.71-1.29-5-4-7.4-5.95-5-4.09-6.68-4.81-14.76-6-5.07-.78-8-1.55-7.45-2.07.16-.16,4.19.26,12,1.24,5,.67,8.18,2.43,13.82,7.66,2.69,2.49,5.74,5.18,6.73,5.95,1.19.94,1.5,1.45,1,1.45A12.53,12.53,0,0,1,363.89,333.05Z"/><path id="p1x1lRLtP" class="cls-4" d="M173,310c-1.14-.52-3.21-1.45-4.66-2.07l-2.59-1.14,3.11-1.19,3.1-1.19,4,2.18a21.13,21.13,0,0,1,4,2.38,16.81,16.81,0,0,1-4.66,2A19.15,19.15,0,0,1,173,310Z"/><path id="pokaLhEKp" class="cls-4" d="M178.44,306.4a40.8,40.8,0,0,1-3.73-2.43c-.41-.42,4.45-2.85,7.66-3.89a22.93,22.93,0,0,1,4.81,1.87l4.35,2.07-2.79,1.24c-1.56.67-3.78,1.66-5,2.17l-2.07.93Z"/><path id="p6vuiOd44" class="cls-4" d="M159.6,304.22,155,302.1l4.56-1.19,4.5-1.14,3.26,1.92,3.21,1.91-2.85,1.4a14.66,14.66,0,0,1-3.21,1.35C164.31,306.35,162.08,305.36,159.6,304.22Z"/><path id="pjOBHIWGr" class="cls-4" d="M188.58,301.17c-1.91-1.14-3.36-2.23-3.26-2.43a25.43,25.43,0,0,1,4.14-2.12l3.93-1.71,3.89,1.71c2.12.93,4,1.55,4.14,1.39s-1-1-2.54-2a16.38,16.38,0,0,1-3.1-2c-.16-.21,1.7-1.35,4.14-2.54l4.34-2.17,3.16,1.6c4,2,5,1.71,1.55-.52a10.08,10.08,0,0,1-2.64-2.07,24.94,24.94,0,0,1,4-2.43l4-2.07,3,1.61,3,1.65-2.22,1.55c-5.75,3.94-24.54,14.7-25.62,14.65A37.73,37.73,0,0,1,188.58,301.17Z"/><path id="poAMZsBcM" class="cls-4" d="M169.69,301.12a11.25,11.25,0,0,1-2.69-2,25.14,25.14,0,0,1,4.55-1.86l4.56-1.61,2.17,1.3c1.19.72,2.17,1.5,2.17,1.76s-7.29,4.08-8,4.08Z"/><path id="pRXGDOBSI" class="cls-4" d="M149.14,299.46l-3.62-1.65,5-1.71,5-1.66,3.47,2c3.88,2.33,3.83,2.43-1.45,3.93C153.7,301.48,153.33,301.48,149.14,299.46Z"/><path id="p18klCjM6L" class="cls-4" d="M161.46,296.1c-1.76-1-3.31-2-3.52-2.18s2-1.08,4.87-2.07l5.17-1.7,2.85,2a12.56,12.56,0,0,1,2.9,2.38c0,.31-5.13,2.33-8.44,3.37C164.93,298,163.22,297.19,161.46,296.1Z"/><path id="pSBZygdQT" class="cls-4" d="M180.56,296.36c-.93-.68-1.81-1.35-1.92-1.45a19.39,19.39,0,0,1,4.35-2.12l4.56-2,1.86,1.19a6,6,0,0,1,1.91,1.6c0,.42-7.55,4-8.48,4A8.56,8.56,0,0,1,180.56,296.36Z"/><path id="pE21lE1o9" class="cls-4" d="M172.59,291.39l-3-2,4.65-1.86a38.61,38.61,0,0,1,5.34-1.87c.82,0,5.38,3.16,5.53,3.83s-7.45,3.94-8.69,3.89A13.42,13.42,0,0,1,172.59,291.39Z"/><path id="p13g1x845Q" class="cls-4" d="M191.63,291.6a9.86,9.86,0,0,1-1.86-1.51,25.36,25.36,0,0,1,4.09-2.32l4.09-2,2.12,1.14a8.1,8.1,0,0,1,2.12,1.39,27,27,0,0,1-4.34,2.44l-4.3,2.17Z"/><path id="pPConLzLW" class="cls-4" d="M152.61,291c-1.24-.73-2.18-1.35-2.07-1.45s3-1.14,6.36-2.33,8.39-2.95,11-3.94a36.8,36.8,0,0,1,5.59-1.76,7.91,7.91,0,0,1,2.64,1.25c2.12,1.5,2.22,1.39-4.3,3.93l-4,1.55-2-1.29c-2.69-1.76-3.68-1.61-1.5.26,1,.83,1.71,1.6,1.55,1.71-.67.62-9,3.46-9.94,3.41A10.86,10.86,0,0,1,152.61,291Z"/><path id="pNSz1pRBj" class="cls-4" d="M184.85,287a14.53,14.53,0,0,1-2.69-2.23c-.1-.2,1.66-1.08,3.88-2l4.09-1.61,2.44,1.45a29.68,29.68,0,0,1,3,1.86c.31.31-1,1.19-3.57,2.39-2.23,1-4.15,1.91-4.25,1.91A21.24,21.24,0,0,1,184.85,287Z"/><path id="pilNzt9H1" class="cls-4" d="M201.73,286.11,200,285l1.19-.93a5.54,5.54,0,0,1,1.6-1,16.21,16.21,0,0,0,3-1.56l2.64-1.55,2.07,1.4c1.5,1,1.86,1.5,1.39,1.81a63.31,63.31,0,0,1-8,4A9.78,9.78,0,0,1,201.73,286.11Z"/><path id="pdW0PzvfJ" class="cls-4" d="M177.71,282.38a22.5,22.5,0,0,1-2.22-1.45c-.16-.15,1.76-1,4.19-1.91l4.5-1.61,2.12,1.25,2.13,1.29-1.76.78-4.3,1.81c-1.4.62-2.54,1.08-2.59,1.08S178.8,283.05,177.71,282.38Z"/><path id="p4hyg3URF" class="cls-4" d="M195.36,282.33a15.27,15.27,0,0,1-2.69-1.71c-.16-.26,2-1.45,4.81-2.69l5.13-2.17,2.12,1.65,2.12,1.71-1.55.93a46.51,46.51,0,0,1-7.09,3.57A31.14,31.14,0,0,1,195.36,282.33Z"/><path id="pcB3mWlTY" class="cls-4" d="M212.65,280.78a23.67,23.67,0,0,1-2-1.45c-.15-.16,1.35-1.24,3.31-2.43l3.63-2.13L220,276a9.2,9.2,0,0,1,2.38,1.4,19.19,19.19,0,0,1-4,2.49l-4,2.12Z"/><path id="pUX5Ecbjs" class="cls-4" d="M206.18,276.53l-2-1.34,3.26-1.76a19.27,19.27,0,0,1,3.83-1.71,10.5,10.5,0,0,1,2.8,1.24c1.5.83,2,1.35,1.5,1.66-2.23,1.34-6.26,3.31-6.78,3.26A8.73,8.73,0,0,1,206.18,276.53Z"/><path id="p1CnkhqTQ7" class="cls-4" d="M67.72,305.16l-1-1.76,1.5-.31c2.43-.47,22-1,21.58-.57a93.61,93.61,0,0,1-9.57,2.12c-5.07,1-9.73,1.86-10.35,2C69,306.86,68.5,306.5,67.72,305.16Z"/><path id="pSkUt75zc" class="cls-4" d="M59.86,301.79c0-.31.2-.57.41-.57a15.26,15.26,0,0,0,3.21-2.07c1.86-1.4,3.31-2.07,4.35-2.07.88,0,6,.83,11.44,1.76l9.83,1.76-5.95,0c-5.49.11-10.56.42-19.77,1.4C60.89,302.31,59.86,302.21,59.86,301.79Z"/><path id="puHzCCdTn" class="cls-4" d="M80.1,297.29c-3.52-.67-6.47-1.3-6.58-1.4a9.67,9.67,0,0,1-.46-1.55l-.37-1.4,4.3,1.61c2.38.88,5.38,2,6.68,2.38a18.52,18.52,0,0,1,2.84,1.24c.26.26.37.41.26.41S83.61,298,80.1,297.29Z"/><path id="poPLzyNz5" class="cls-4" d="M87.55,296.82a81.77,81.77,0,0,0-7.87-2.95c-4.76-1.55-6.52-2.48-4.66-2.48a22.54,22.54,0,0,0,3.57-1.24l2.9-1.19,4.56,4.55c2.53,2.54,4.45,4.61,4.35,4.55A26,26,0,0,1,87.55,296.82Z"/><path id="pXcBJe8kz" class="cls-4" d="M34.5,270.32c-4.92-.83-12.53-2.95-12.79-3.57-.36-.93,3.42-7.87,6.37-11.64,7.35-9.32,21-17.4,30.22-17.91,4.61-.26,6.79.62,8.7,3.46,1.09,1.61,1.19,2.28,1,5.75s-.57,4.61-2.85,9.32c-5.38,11-11.8,15-23.6,14.9C38.38,270.58,35.22,270.43,34.5,270.32Z"/><path id="phan1Ml3a" class="cls-4" d="M129.78,217.58a3.44,3.44,0,0,1-.41-1.6,109.17,109.17,0,0,1,11.28-2.75c.78,0,2.9,2.44,2.44,2.85-.16.1-12,2.85-12.48,2.85A4.82,4.82,0,0,1,129.78,217.58Z"/><path id="p5QvWlHti" class="cls-4" d="M143.71,214.42c-.57-.72-.88-1.55-.68-1.76.42-.36,30.85-7.4,34.73-8,1.76-.26,2.07-.15,2.33.83s-.05,1.19-1.08,1.66-25.73,6.67-33.08,8.43C145.16,215.77,144.48,215.41,143.71,214.42Z"/><path id="pXIRBco8o" class="cls-4" d="M145.88,146.46a6.24,6.24,0,0,1-2.28-3c-.88-2-1-3-.77-6,.36-5,.62-5.49,2.79-5.49,7.2,0,10.92,11.08,4.81,14.24A4.73,4.73,0,0,1,145.88,146.46Z"/><path id="p11sJH0x1a" class="cls-4" d="M263.79,155.78a7.23,7.23,0,0,1-1.3-8.28c2.18-4.14,7.2-3.21,8.54,1.6.83,2.85.62,4.4-.83,6.11a3.52,3.52,0,0,1-3.36,1.61A4.18,4.18,0,0,1,263.79,155.78Zm3.62-3.1c0-1.35-1.4-4.15-2.07-4.15s-.62,1.92.26,3.63S267.41,154.18,267.41,152.68Z"/><path id="pwyDh2ClU" class="cls-4" d="M153.9,265.51a84.76,84.76,0,0,1-6.93-8.39c-2.69-3.93-6.68-11.18-6.32-11.49s18.69-7.14,19.88-7.35c.77-.2,1.55.52,3.36,3.21,3.37,5,8.44,10.25,12,12.42a16.65,16.65,0,0,1,3.05,2.18c0,.57-7.19,7.09-9.83,8.9-3.31,2.28-9,5.18-10,5.18C158.61,270.17,156.34,268.1,153.9,265.51Z"/><path id="p183Q5uKi1" class="cls-4" d="M404.57,202.1c-2.12-2.53-6.68-10.24-6.73-11.28,0-.21.78.21,1.76.93,4.92,3.78,10.61,4.25,20.39,1.81a68.79,68.79,0,0,0,17-6.47c4-2.17,3.47-1.65-3.93,4C424.86,197.5,411.4,205,408.4,205,407.21,204.9,406.38,204.28,404.57,202.1Z"/><path id="pfLP7DVfJ" class="cls-4" d="M407.52,189.06a26.74,26.74,0,0,0-6.47-19.36l-2.12-2.38,7.66.26c8.74.26,14.9-.57,22.05-3,9.31-3.1,14-7.24,17.13-15,.46-1.19.57-1.14,3,1.87,7.66,9.73,7.87,17.65.67,24.69-9.16,8.9-28.31,17.33-39.33,17.33h-2.75Z"/><path id="pBWdDKwLN" class="cls-4" d="M321.76,93.31c-2.49-1.3-4.4-5.13-3.89-7.82.52-2.95,3.94-5.9,8-7l3.31-.93.93,1.14a18.74,18.74,0,0,1,2.48,7.71c-.05,2-1.81,5.54-3.31,6.52A8.26,8.26,0,0,1,321.76,93.31Z"/><path id="pbHYhRMoO" class="cls-4" d="M181.54,80c-2.48-5.59-3.21-6-9.42-5.84-2.79.1-5,.15-5,.1s6.27-3.21,13.82-7,16-8.33,18.79-9.89,5-2.74,4.92-2.53-2.12,2.79-4.56,5.74-6.26,7.61-8.54,10.41a61.55,61.55,0,0,0-6.1,9,42.89,42.89,0,0,1-2.13,3.94S182.47,82.08,181.54,80Zm-.93-7c4.09-2.18,19-12.53,19-13.25,0-1-14.76,8.17-19.93,12.47C178.07,73.48,178.64,74,180.61,72.92Z"/></g><path class="cls-5" d="M222.59,133.31c-.2.5-1,.67-2.45.52-.55-.06-1.48-.24-2.79-.52q-.22.87-.48,2.34l-.44,2.35q.9.84,2.55,2.67a.85.85,0,0,1,.17.9.88.88,0,0,1-.47.48.82.82,0,0,1-.7,0,16.18,16.18,0,0,1-2.47-2.45.85.85,0,0,1-.54-.06.93.93,0,0,1-.53-1.14c-.91-1.1-1.92-2.43-3.05-4q-2.29-3.19-2.1-3.67c.17-.43.59-.6,1.25-.51l3,.6,6.16,1.1,1.48.07a3.63,3.63,0,0,1,1,.12.83.83,0,0,1,.48.49A.89.89,0,0,1,222.59,133.31Zm-10.49-.93,2.8,3.86c.1-.72.31-1.8.62-3.24Z"/><path class="cls-6" d="M219.77,125.86c-.07.15-.24.47-.52,1q1.22.57,4.29,1.83a.83.83,0,0,1,.46.44.71.71,0,0,1,0,.62.78.78,0,0,1-.44.45.84.84,0,0,1-.64,0l-2.4-1c-.8-.32-1.9-.83-3.31-1.52s-2.63-1.27-3.3-1.56l-1.13-.46a4.91,4.91,0,0,1-1.13-.58q-.65-.48-.3-1a4.38,4.38,0,0,1,.18-.79c.11-.34.26-.73.45-1.2a4.73,4.73,0,0,1,2.16-2.38,3.61,3.61,0,0,1,3.29-.33,4.21,4.21,0,0,1,2.6,2.85A5.62,5.62,0,0,1,219.77,125.86Zm-6.31-3c-.1.24-.18.45-.25.64s-.11.36-.14.5l1.49.63,3.18,1.5.47-.85a4.08,4.08,0,0,0,.25-2.59,2.61,2.61,0,0,0-1.63-1.87,2,2,0,0,0-2,.34A3.67,3.67,0,0,0,213.46,122.81Z"/><path class="cls-7" d="M219.76,110.54a11.61,11.61,0,0,1-.64,1.27l-.71,1.24q2.29,1.15,4.45,2c.39.16.86.34,1.43.55s1,.38,1.42.54,1,.42,1.37.63l1-2.58a.81.81,0,0,1,.48-.48.85.85,0,0,1,.68,0,.89.89,0,0,1,.51.48.82.82,0,0,1,0,.67l-.54,1.38c-.23.61-.41,1.07-.54,1.37a15,15,0,0,0-.5,1.68,15.56,15.56,0,0,1-.52,1.68.84.84,0,0,1-.47.47.87.87,0,0,1-.69,0,.89.89,0,0,1-.5-.47.85.85,0,0,1,0-.68,14.38,14.38,0,0,0,.55-1.82,13.89,13.89,0,0,0-1.48-.7c-.37-.15-.84-.32-1.39-.51s-1-.35-1.39-.5q-1.87-.76-4.61-2.15l-.4,1.07-.41,1.07a.86.86,0,0,1-.48.49.9.9,0,0,1-.7,0,.81.81,0,0,1-.51-1.11c.13-.45.45-1.29.94-2.49a32.14,32.14,0,0,1,2-3.93.85.85,0,0,1,1.17-.37.82.82,0,0,1,.5.53A.94.94,0,0,1,219.76,110.54Z"/></svg>