<?xml version="1.0" encoding="UTF-8"?>
<svg xmlns="http://www.w3.org/2000/svg" viewBox="0 0 379.41 397.54">
  <defs>
    <style>.cls-1{fill:#005aff;}</style>
  </defs>
  <g id="Layer_2" data-name="Layer 2">
    <g id="Layer_13" data-name="Layer 13">
      <ellipse cx="23.04" cy="0.75" rx="7.41" ry="0.75" transform="translate(0 0.04) rotate(-0.1)"></ellipse>
      <path d="M230.1,1.84a.48.48,0,0,1,.36-.43c.43-.12.67.1.7.65a221.94,221.94,0,0,1,.41,28.68q-.49,8-.46,10.94.54,58.16-.18,116.77a.54.54,0,0,1-.54.54.53.53,0,0,1-.42-.2,1.73,1.73,0,0,1-.12-.8q-1.31-61.08-.28-122.17C229.71,27.88,229.25,13.2,230.1,1.84Z"></path>
      <path d="M9.83,3.48a.44.44,0,0,1-.52-.12C9.14,3.13,9.19,3,9.48,3q4.79-.31,9.54-.37,104.09-1.21,208.16.14a.8.8,0,0,1,.76.49c1.6,3.48,2.91,10.58-3.24,11q-7.62.51-17.81.61-93.25.95-186.49-.32c-3.72,0-10.54,1.08-11.45-4.08A9,9,0,0,1,10.13,4C10.44,3.52,10.34,3.34,9.83,3.48Z"></path>
      <path d="M7.45,162.28a.25.25,0,0,1-.26.2.22.22,0,0,1-.14-.09,1.6,1.6,0,0,1-.31-.91c-.2-3.77-.33-7.53-.38-11.3-.63-47.11-1.61-94.65.25-141.73A.53.53,0,0,1,6.84,8c.53-.35.81-.09.84.77,2.07,49.08,1.1,98.74.26,147.86A42.56,42.56,0,0,1,7.45,162.28Z"></path>
      <path d="M1.77,18.68c.07-2.23.08-4.46,0-6.69,0-.16.09-.27.3-.32s.39,0,.4.3A405.54,405.54,0,0,1,.61,69.23a.23.23,0,0,1-.28.17.24.24,0,0,1-.17-.18,48.57,48.57,0,0,1-.11-6.17Q1,40.86,1.77,18.68Z"></path>
      <path d="M224.55,20.43c0-1,0-2,.06-3a.33.33,0,0,1,.24-.34l.35-.15a.45.45,0,0,1,.6.22.47.47,0,0,1,0,.17q1.59,61.85,0,123.57a4.07,4.07,0,0,1-.47,1.36.46.46,0,0,1-.61.19.43.43,0,0,1-.23-.38Q222.64,81.21,224.55,20.43Z"></path>
      <path d="M166,19.63a.17.17,0,0,1-.16.15l-39.36-.89c-14-.32-25.42-.89-25.41-1.29h0c.07-.39,11.44-.45,25.44-.13l39.36.89a.16.16,0,0,1,.15.17h0Z"></path>
      <path d="M41.71,59c10.81,4.45,20.41-2.22,24.53-12.58,0,0,0,0,0,0s0,0,0,0q-1.19,10.48-11,14.33C35.16,68.65,19.76,42,36.33,28.5c11.28-9.19,28-3.56,30,11.25a1.15,1.15,0,0,1-.06.61q-.33.73-.36-.18a9.09,9.09,0,0,0-1.51-4.44c-5.87-9.47-16.88-13.16-26.21-6.57C27.4,36.75,29.63,54,41.71,59Z"></path>
      <path d="M48.67,33a5.34,5.34,0,0,0-1.61-3.58c-.19-.19-.15-.26.11-.23a.76.76,0,0,1,.58.39c.77,1.29,1.59,2.15,1.87,3.71a.68.68,0,0,1-.42.75l-2.34.9a1.91,1.91,0,0,0-1.11,2.46,1,1,0,0,0,0,.1l4.79,10.83a.52.52,0,0,0,.88.25l1.7-1.18a.62.62,0,0,1,.71,0,5.17,5.17,0,0,1,2.21,4.65,1.18,1.18,0,0,1-.43.9c-5.45,4.72-8.32,1-10.65-4-3.33-7.08-7.86-15.89-.18-20a.08.08,0,0,1,.11,0,.12.12,0,0,1,0,.1q-5.34,4.67-2.4,11.17c2.07,4.57,5,18.21,12.88,12.42a.93.93,0,0,0,.4-.82A4,4,0,0,0,54.51,49a1.31,1.31,0,0,0-2.24.2A1.44,1.44,0,0,1,49.84,49q-2.45-4.92-4.67-10.34c-1.14-2.79-.23-4.8,3-5.08A.49.49,0,0,0,48.67,33Z"></path>
      <path d="M77.49,51c.87-6.48,1.18-11.31-1.39-18.3a.33.33,0,0,1,0-.35.28.28,0,0,1,.09-.07c.07,0,.12,0,.17.09C78.94,37,81,46.14,77.78,51.08,77.53,51.48,77.43,51.45,77.49,51Z"></path>
      <path d="M19,35.42q3.16-6.08.7.32c-1.36,3.52-1.39,10.16-.58,13.92.49,2.26.32,2.31-.53.16Q15.5,42.07,19,35.42Z"></path>
      <path d="M24.08,34.38a.15.15,0,0,1,.2-.06.15.15,0,0,1,.07.19,24.91,24.91,0,0,0-.86,14.4.17.17,0,0,1-.14.21.19.19,0,0,1-.21-.1A15.49,15.49,0,0,1,24.08,34.38Z"></path>
      <path d="M73.12,51a25.55,25.55,0,0,0-.26-16.3c0-.11,0-.18.13-.23a.2.2,0,0,1,.27.1,17.37,17.37,0,0,1,.39,16.56.19.19,0,0,1-.26.11l-.25-.09S73.09,51.12,73.12,51Z"></path>
      <path d="M70,47.92c0-4,.67-6.69-.38-10.69a.21.21,0,0,1,.18-.24.22.22,0,0,1,.2.09A11.55,11.55,0,0,1,70.33,48a.2.2,0,0,1-.25.09A.2.2,0,0,1,70,47.92Z"></path>
      <path d="M26.19,38.14a1.52,1.52,0,0,1,.68-.75.27.27,0,0,1,.35.12.27.27,0,0,1,0,.2A15.27,15.27,0,0,0,26.32,43q0,6.15-1.38.25Q24.58,41.72,26.19,38.14Z"></path>
      <path d="M72.35,157.46c-8.86-1.62-25.95-4.46-31-13.08-4.34-7.42,0-18.62,6.77-22.83a34.24,34.24,0,0,1,12.19-4.13q18.6-3.17,37.36-5.22a1.2,1.2,0,0,0,.83-.47c4.24-5.39,11.9-1.87,14.78,3.08q5.31,9.14,4.68,21.31c0,.23-.13.32-.35.27a.41.41,0,0,1-.34-.39,66.72,66.72,0,0,0-4.51-18.2c-2.35-5.77-8.59-9.94-14.3-5.17a1.88,1.88,0,0,1-.89.42q-26.44,5-35.24,6a36.36,36.36,0,0,0-15.47,5c-5.51,3.4-7.51,14.3-4,19.69,3.65,5.57,15.91,9.51,21.92,10.53A174.58,174.58,0,0,1,84,158.27a.78.78,0,0,0,.81-.19,17.47,17.47,0,0,1,14.55-4.75c1.13.13,1.27-.18.4-.93a185,185,0,0,0-27.5-19.54,3.5,3.5,0,0,1-1.29-1.24c-.27-.45-.17-.56.31-.35a98.47,98.47,0,0,1,33.21,23.94.92.92,0,0,0,.72.31l47.44-.78q.51,0,.42-.51A31.59,31.59,0,0,0,140.58,134a.43.43,0,0,0-.73.14c-2.6,4.51-9.08,11.36-15.08,9.56-.64-.19-.63-.37,0-.53A21.58,21.58,0,0,0,138.62,133c.25-.4.14-.57-.33-.52a9.25,9.25,0,0,1-6.74-1.68.55.55,0,0,0-.89.17l-5.1,7.86a.74.74,0,0,1-1.31-.69l1.24-3a.78.78,0,0,0-.13-.88,28.77,28.77,0,0,1-6.58-15.48.43.43,0,0,1,.38-.47.41.41,0,0,1,.36.14c3.41,3.89,13,12.95,18.62,12,12-2,23.32-19.6,28.86-29.23a.76.76,0,0,0-.09-.89c-5.91-6.67-7.75-15.85-7.84-24.55,0-.37-.18-.49-.53-.38A9.54,9.54,0,0,1,149,73.68a.48.48,0,0,0-.71,0C142,79.56,134.3,86.44,124.82,85c-.39-.06-.57.11-.52.51l.19,1.71a.38.38,0,0,1-.73.2l-1.16-2.57a.92.92,0,0,0-.44-.45q-3-1.44-4.59,2c-2.59,5.82-.7,8.45,3.75,11.7a.31.31,0,0,1-.21.56,6.65,6.65,0,0,1-5-2.92.55.55,0,0,0-.77-.14.56.56,0,0,0-.23.35,5.31,5.31,0,0,1-2.8,3.78.27.27,0,0,1-.37-.1.31.31,0,0,1,0-.32l1.36-1.6a.37.37,0,0,0,0-.52.38.38,0,0,0-.35-.08c-4.7,1.29-12.93.89-12.39-6,1-12.56,11.61-14.33,15.68-24.49,2.49-6.22,9.21-22.57,17.32-20.45,15.8,4.13,28.92,10.34,40.87,12.77q5.88,1.2,8.43,3c5.08,3.58,10,14,1.68,17.4a.31.31,0,0,0-.21.26.33.33,0,0,0,0,.27,0,0,0,0,0,.05,0A32.43,32.43,0,0,1,189,79a.31.31,0,0,1,.36.24.3.3,0,0,1-.18.35,9.3,9.3,0,0,1-6,.8.31.31,0,0,0-.36.23.31.31,0,0,0,.07.26c5.52,6.73,7.31,20.72-4.06,22.87a13.82,13.82,0,0,1-10.19-1.93.57.57,0,0,0-.78.19.08.08,0,0,1,0,0c-6.35,13-13.67,24-27.27,30.21a.29.29,0,0,0,0,.52q12.53,6.92,13.74,21.49a.46.46,0,0,0,.51.47c24.41.06,46.87-.5,68,1.16.33,0,.46.2.39.52s-.29.62-.62.63q-58.21,1.5-116.4,0a.23.23,0,0,0-.23.23.28.28,0,0,0,0,.13c4.38,7.05,15.82,25.85,11.76,33.88a.52.52,0,0,1-.93-.45l.87-1.87a.7.7,0,0,0,.06-.35c-.72-8.11-6.46-17.59-10-25a33.62,33.62,0,0,0-5.56-8.62,1.13,1.13,0,0,0-.81-.36,28.43,28.43,0,0,0-15.64,4.23.32.32,0,0,0-.1.43.35.35,0,0,0,.11.1c10.7,6.2,12.23,19.85,10.23,30.75a.48.48,0,0,0,.41.54.47.47,0,0,0,.49-.25l5.51-11.47a.38.38,0,0,1,.51-.18.42.42,0,0,1,.22.31,47,47,0,0,1-.82,15.38.41.41,0,0,0,.77.27,42.62,42.62,0,0,0,4.16-17.36c0-.41.19-.5.53-.28a.87.87,0,0,1,.35.69c.46,5-.41,16-5,19.23a1.72,1.72,0,0,1-2.68-1.69L102,185.06a.2.2,0,0,0-.14-.24l-.3-.1a.12.12,0,0,0-.15.08h0A11.16,11.16,0,0,1,96.57,192a1,1,0,0,1-1.46-.28,1.09,1.09,0,0,1-.17-.73c1.42-10.85-.6-31.85-16.58-31.26q-32.25,1.18-64.48-.13a1.17,1.17,0,0,1-.55-.16l-.49-.26a.52.52,0,0,1-.23-.71.55.55,0,0,1,.45-.3q29.63-1.51,59.26-.42a.15.15,0,0,0,.16-.12A.15.15,0,0,0,72.35,157.46Z"></path>
      <ellipse cx="249.13" cy="52.3" rx="1.46" ry="7.07" transform="translate(118.95 271.06) rotate(-71.1)"></ellipse>
      <path d="M298,77.76c-.2.48-.53.57-1,.27a186.36,186.36,0,0,0-24.88-14,.76.76,0,0,1-.39-1,.78.78,0,0,1,.89-.43,51.76,51.76,0,0,1,25.22,14.46A.65.65,0,0,1,298,77.76Z"></path>
      <path d="M36.22,107.39c20.48,13,41.61-12.64,23.8-28.33-7.1-6.26-17.71-5.42-24.36,1C30,85.45,27.92,96.44,33,103.63c.15.21.11.26-.11.13A2.27,2.27,0,0,1,32,103C17.39,77,57.18,60.48,66.84,86.24c6.81,18.18-15.64,34.88-30.65,21.19a0,0,0,0,1,0,0S36.21,107.38,36.22,107.39Z"></path>
      <path d="M139.58,87.78a.27.27,0,0,1-.26-.27c0-.46.31-.76.9-.91q5.21-1.29,7.8,3a.41.41,0,0,1-.16.56.4.4,0,0,1-.41,0A14.72,14.72,0,0,0,139.58,87.78Z"></path>
      <path d="M38.46,99.4c4.48,0,9.58.67,14.06.19.11,0,.18.07.23.24s0,.29-.22.3L39,100.85a2.5,2.5,0,0,1-2.62-2.36V88.77a2.29,2.29,0,0,1,2.28-2.28H51.77a2.51,2.51,0,0,1,2.51,2.39A66.43,66.43,0,0,1,54,98.67a.79.79,0,0,1-.2.39c-.16.21-.25.18-.26-.08l-.36-10.2a1.08,1.08,0,0,0-1.08-1H38.58a1,1,0,0,0-1,1v9.77A.79.79,0,0,0,38.46,99.4Z"></path>
      <path d="M58.13,96.54a.68.68,0,0,0,1,.07.69.69,0,0,0,.24-.46l.42-4.92a.5.5,0,0,0-.46-.54.59.59,0,0,0-.23,0l-3,1.21a.29.29,0,0,1-.28-.5,10.39,10.39,0,0,1,3.61-1.73,1.28,1.28,0,0,1,1.6,1.4l-.78,6.06a1.3,1.3,0,0,1-1.46,1.12,1.33,1.33,0,0,1-.9-.55l-2.09-3a.31.31,0,0,1,.12-.41.3.3,0,0,1,.35,0Z"></path>
      <path d="M310,93.5c5.79,2,12.26,11.37,14.84,17a.69.69,0,0,1-1.15.74L309.3,94.46a.6.6,0,0,1,.65-1Z"></path>
      <path d="M137.83,94.68l-1.3.25a.39.39,0,0,1-.27-.73,3.88,3.88,0,0,1,3.35-.23.69.69,0,0,1,.5.84,4.32,4.32,0,0,1-3.51,3.88.59.59,0,0,1-.57-1l2.19-2.33C138.82,94.75,138.69,94.51,137.83,94.68Z"></path>
      <path d="M158.18,96.34c3.07-1.44,5.8,1.31,6.73,4.27a.54.54,0,0,1-1,.48,10.36,10.36,0,0,0-5.71-4,.4.4,0,0,1-.06-.74Z"></path>
      <path d="M142.94,112.75c3.82-.3,5.67-10.49,8-13.81a.4.4,0,0,1,.54-.13.39.39,0,0,1,.15.49c-1.73,4.82-2.34,12.76-7.51,15.16a1.49,1.49,0,0,1-1.06.07,4.44,4.44,0,0,1-3.24-3.68.35.35,0,0,1,.3-.41.35.35,0,0,1,.32.11l1.6,1.84A1,1,0,0,0,142.94,112.75Z"></path>
      <path d="M156.34,102.73a.84.84,0,0,1-.85-.2c-.29-.28-.25-.48.14-.6a3,3,0,0,1,2.58.33.72.72,0,0,1,.32.84c-.38,1.27-2.45,4.7-4.27,4.11a.6.6,0,0,1-.38-.76.61.61,0,0,1,.13-.22l2.72-2.83a.41.41,0,0,0,0-.57A.42.42,0,0,0,156.34,102.73Z"></path>
      <path class="cls-1" d="M246.51,136.45c4.27-8.65,16.35-25.21,27.41-24.71a.41.41,0,0,1,.13.79,29.89,29.89,0,0,0-10.16,5.92c-11.66,10.4-19.95,24.54-18.67,40.24,0,.4-.15.55-.53.44a.86.86,0,0,1-.68-.64A31.89,31.89,0,0,1,246.51,136.45Z"></path>
      <path d="M139.05,119.54a.32.32,0,0,1,.24.39.3.3,0,0,1-.14.19c-4.42,2.68-7.9-3.71-7.43-7.36a.58.58,0,0,1,.65-.5.58.58,0,0,1,.5.5Q133.59,118.42,139.05,119.54Z"></path>
      <path d="M100.32,113.23c7.62,3,12.35,13.33,12.55,20.86a.44.44,0,0,1-.42.44.42.42,0,0,1-.42-.34,34.3,34.3,0,0,0-12.12-20.27.39.39,0,0,1-.07-.56A.42.42,0,0,1,100.32,113.23Z"></path>
      <path class="cls-1" d="M255.13,146.3c3-10,9.74-21.37,21.69-22.59a5.25,5.25,0,0,1,3.31.64.43.43,0,0,1,.15.59.43.43,0,0,1-.34.21c-10.78.85-16.44,8.84-20.77,17.78-1.82,3.75-3.42,7.92-2.12,12.14a.54.54,0,0,1-.38.68.53.53,0,0,1-.33,0C254,155,254.57,148.17,255.13,146.3Z"></path>
      <path d="M332.77,126.32a34.79,34.79,0,0,1,10.36,19.18c.09.55.05.89-.13,1a.85.85,0,0,1-1.11-.45l0-.05-10-19a.56.56,0,0,1,.24-.76A.58.58,0,0,1,332.77,126.32Z"></path>
      <path class="cls-1" d="M266.18,154.29c.05.64-.4.6-1.35-.11a1.18,1.18,0,0,1-.46-1.13q2.07-12.72,13.3-16.88a2.15,2.15,0,0,1,1.2-.17.6.6,0,0,1,.41.74.63.63,0,0,1-.27.35,27.6,27.6,0,0,0-12.8,16.73A1.15,1.15,0,0,0,266.18,154.29Z"></path>
      <path d="M275.1,158.85a1.71,1.71,0,0,0-.43,1.21c-.21,4.27.52,8.48,0,12.31-.76,5.76-2.23,11.69-2.1,17.22a95.58,95.58,0,0,0,2,17.41,3.48,3.48,0,0,1-.08,1.79q-.22.71-.48,0a59.4,59.4,0,0,1-3.53-20.92,104.55,104.55,0,0,1,1.41-11.16,100.22,100.22,0,0,0,1.16-15.21,7.44,7.44,0,0,1,2-4.95,1.43,1.43,0,0,0,.35-.86,9.82,9.82,0,0,1,3.51-7.14.21.21,0,0,1,.33,0l.29.28a.11.11,0,0,1,0,.16h0c-4.07,4.41-3,14.9-3,21.13a.4.4,0,0,1-.39.41.43.43,0,0,1-.42-.4h0l-.41-11.2C275.31,158.75,275.24,158.72,275.1,158.85Z"></path>
      <path d="M279.77,149.93a1.67,1.67,0,0,1,2.28-1.32.29.29,0,0,1,.23.34.3.3,0,0,1-.17.21l-.69.32a1.11,1.11,0,0,0-.68,1l-2,18.58a.31.31,0,0,1-.31.31.32.32,0,0,1-.31-.32A66.71,66.71,0,0,1,279.77,149.93Z"></path>
      <path d="M283.89,151.38a.27.27,0,0,1,.24.28h0l-.34,4.16c-.53,6.5-1.27,11.74-1.65,11.71h0l-.21,0c-.37,0-.24-5.33.29-11.82l.34-4.16a.27.27,0,0,1,.28-.24h0Z"></path>
      <path d="M289.38,169.78a.27.27,0,0,0-.47-.24A120,120,0,0,0,281,183.08q-.3.58-.39-.06c-.48-3.42,3.36-9,5-12a.77.77,0,0,0,0-.8c-1.46-2.62-.64-14.24-.44-18,0-.39.19-.48.52-.26a2.38,2.38,0,0,1,.72,2q.08,7.62-.16,15a.24.24,0,0,0,.22.26.27.27,0,0,0,.22-.11l2-2.82a.58.58,0,0,1,.83-.13h0a4.16,4.16,0,0,1,1.61,5c-4,11.82-8.39,22.61-8.92,35.32,0,.39-.17.46-.46.19a1.17,1.17,0,0,1-.4-.8C280.31,193.35,285.17,181.69,289.38,169.78Z"></path>
      <path d="M204.55,162c-3.6.73-7.47.51-11.07.57q-30.16.46-60.33-.25a.78.78,0,0,1-.57-.2.7.7,0,0,1-.19-.28c-.08-.25,0-.39.27-.41q4.43-.39,12.35-.55,31.94-.64,59.48.35a.39.39,0,0,1,.37.41A.41.41,0,0,1,204.55,162Z"></path>
      <path d="M10.85,165.9a.35.35,0,0,1-.25-.14c-.29-.39-.13-.61.49-.64A421.9,421.9,0,0,1,54.94,165a.47.47,0,0,1,.43.49.45.45,0,0,1-.3.4,13,13,0,0,1-3.51.34A278.17,278.17,0,0,1,10.85,165.9Z"></path>
      <path d="M37.82,195.53a.15.15,0,0,1-.14.16h0c-1.67.13-3.45-5.41-4-12.36l0-.36c-.53-6.95.38-12.69,2-12.82h0a.15.15,0,0,1,.16.13Z"></path>
      <path d="M350.94,196.67a.38.38,0,0,1-.37.32h-.49a.49.49,0,0,1-.55-.5L347.67,172a.79.79,0,0,1,.1-.45c.61-1.11,1.05-1.22,1.32-.34A57.17,57.17,0,0,1,350.94,196.67Z"></path>
      <path d="M111.35,183.66c0,2.32-1.23,12.5-4.93,12.06a.75.75,0,0,1,0-1.49,1.05,1.05,0,0,0,.61-.26,1.88,1.88,0,0,0,.66-.81,70.55,70.55,0,0,0,2.4-15.42.45.45,0,0,1,.9,0l.43,3.24a1.14,1.14,0,0,0,.53.85,9.78,9.78,0,0,1,4.54,7.77.56.56,0,0,1-1,.3l-3.33-6.39a.42.42,0,0,0-.8.19Z"></path>
      <path class="cls-1" d="M95.17,205.22a.68.68,0,0,1-.2-.93.69.69,0,0,1,.69-.29c2.07.35,4.19,1.36,6.28,1.29a36.3,36.3,0,0,0,14.4-3.49,1,1,0,0,1,.57-.11.92.92,0,0,1,.55.29.6.6,0,0,1,0,.85h0C111.23,208.2,102.47,210.11,95.17,205.22Z"></path>
      <path d="M348,205a.25.25,0,0,1-.25.25l-24.05,0c-19,0-34.36-.36-34.36-.72h0v-.16c0-.36,15.38-.63,34.36-.6l24.05,0a.25.25,0,0,1,.25.25Z"></path>
      <path d="M196.82,206.47a.18.18,0,0,1-.18.18l-19-.23c-11.24-.14-20.34-.58-20.34-1h0c0-.4,9.14-.62,20.36-.48l19,.23a.18.18,0,0,1,.18.18h0Z"></path>
      <path d="M329.51,241.63a6.21,6.21,0,0,1-.76,1.9c-2.22,4.36-4.7-.65-5.77-2.88a.81.81,0,0,0-.86-.43Q314,241.65,313.2,250c0,.29-.16.37-.42.25-7.72-3.5-6.33-12.95-.17-17.13a.77.77,0,0,0,.36-.76q-.74-7.34,5.95-10.07a.29.29,0,0,0,.16-.38.29.29,0,0,0-.26-.17H289.59a.53.53,0,0,0-.53.53.57.57,0,0,0,0,.18,82.51,82.51,0,0,0,17.14,27.85.36.36,0,0,1-.48.54h0c-12.17-8.76-19.48-26.31-22.48-40.64-.15-.71.13-1.06.86-1l6.89.26a.1.1,0,0,0,.1-.08s0,0,0,0l-.09-.27s-.07,0-.19-.05l-5.51-.55a.49.49,0,0,1,0-1c22-1.2,44.22-.84,66.23-.63q9.17.09,18.3.64a.53.53,0,0,1,.51.57.53.53,0,0,1-.12.32,1.22,1.22,0,0,1-1.47.33.34.34,0,0,0-.47.22.51.51,0,0,0,0,.25.1.1,0,0,0,.05.08l2.66,1.38a.4.4,0,0,0,.54-.18s0,0,0-.06l.11-.32a.49.49,0,0,1,.63-.29.48.48,0,0,1,.32.43q1.5,71.35,0,142.72a.63.63,0,0,1-.67.6.69.69,0,0,1-.36-.13,2,2,0,0,1-.22-.43,1.46,1.46,0,0,1-.1-.47q-1.11-43.89-.94-88.53a.24.24,0,0,0-.22-.24.25.25,0,0,0-.22.14,13.33,13.33,0,0,1-5,5.78.89.89,0,0,0-.42.76q-.09,9.63-8.4,12.66-4.22,1.55-7.56-2.05c-.43-.47-.6-.39-.5.24a6.25,6.25,0,0,0,1.31,3c.27.35.18.5-.25.47a1,1,0,0,1-.66-.37,7.3,7.3,0,0,1-1.88-5.71.42.42,0,0,0-.39-.45h-.12l-1.41.3a.23.23,0,0,1-.25-.21.24.24,0,0,1,.12-.22q7.11-2.79,6.8-10.31c-.23-5.38-6-2.58-7.62.15a.5.5,0,0,1-.68.23c-9.78-3.69-12.11-17.83-12.84-26.52Q329.82,237.34,329.51,241.63Zm27.35-2.49a2.24,2.24,0,0,1-.11.31.16.16,0,0,1-.14.11,10,10,0,0,0-4.12,1.67c-.33.23-.33.47,0,.7a10,10,0,0,0,3.4,1.77c6.79,1.32,11.94,3.87,14,10.13a.31.31,0,0,0,.4.18.32.32,0,0,0,.2-.27l.47-32.82c0-.48-.19-.58-.58-.3l-1.54,1.1a.83.83,0,0,1-.48.15l-37.51.17c-.27,0-.3.09-.09.26a27.53,27.53,0,0,1,5.73,6.45c2.73,4.28,6.28,3,9.48,5.49a12.49,12.49,0,0,1,4.05,5.5.33.33,0,0,0,.42.18.37.37,0,0,0,.15-.13l2.71-4.5q.09-.15.21,0l.33.34a.17.17,0,0,1,0,.22l-1.75,3.34a.38.38,0,0,0,.16.5.37.37,0,0,0,.25,0l4-.92C356.85,238.7,357,238.82,356.86,239.14Z"></path>
      <path d="M155.73,210.43a1,1,0,0,0,.52-1.36.63.63,0,0,1,.38-.81.48.48,0,0,1,.2,0q55.9-1.4,111.81-.09a1.85,1.85,0,0,1,1,.32,4.6,4.6,0,0,0,3.43.79.59.59,0,0,1,.63.3l.31.54c.17.27.37.3.6.08a9.28,9.28,0,0,1,7.39-2.45.54.54,0,0,1,.49.57.55.55,0,0,1-.31.44l-7.28,3.38a.94.94,0,0,0-.6.92,135.66,135.66,0,0,0,21.35,75.42,1.25,1.25,0,0,1,.17,1c-.09.41-.28.45-.55.14-14.74-17.22-22-45-22.38-67.11a.74.74,0,0,0-.76-.74H272a36.77,36.77,0,0,1-5.62.63q-52.78,1.74-105.56,0A13,13,0,0,1,156,221c-.3-.14-.45,0-.45.29q.66,45.12.14,102.7-.14,15.43-.62,24.85a.39.39,0,0,1-.73.15,6.51,6.51,0,0,1-.54-2.81q-1.51-76.33,0-136.65a.38.38,0,0,1,.41-.37.37.37,0,0,1,.31.18l.52.92A.46.46,0,0,0,155.73,210.43Z"></path>
      <path class="cls-1" d="M90.43,212a1.87,1.87,0,0,1-.84-1,.55.55,0,0,1,.32-.72.58.58,0,0,1,.39,0,39.11,39.11,0,0,0,30-.89.55.55,0,0,1,.72.29.54.54,0,0,1-.1.59C113.83,217.87,98.56,216.55,90.43,212Z"></path>
      <path d="M47.07,231.84a42.47,42.47,0,0,1-7.14-20,.77.77,0,0,1,.69-.82.74.74,0,0,1,.77.49l7.08,19.64a.79.79,0,0,1-1.4.7Z"></path>
      <path d="M377.45,212.08a.41.41,0,0,1,.41-.39.38.38,0,0,1,.38.4h0c0,.87.39,1.79.41,2.57q1.55,66.89,0,134.45a.62.62,0,0,1-1.23,0c-.05-.77-.08-1.67-.1-2.7q-1.09-54.26-.65-108.51Q376.73,225.17,377.45,212.08Z"></path>
      <path d="M149.73,215.82a.36.36,0,0,1,.38-.34.38.38,0,0,1,.3.2c.09.16.2.39.35.7a1.81,1.81,0,0,1,.18.76q1.56,45.95,0,84.1a1.45,1.45,0,0,1-.81,1.2c-.27.17-.43.09-.46-.23q-.73-7.66-.77-13.41C148.77,264.83,147.52,239.64,149.73,215.82Z"></path>
      <path class="cls-1" d="M87.21,219.38A3,3,0,0,1,86.15,218a.44.44,0,0,1,.24-.56.45.45,0,0,1,.36,0c14,7.66,25.25,3.49,38.88-1.81a.58.58,0,0,1,.74.32.55.55,0,0,1-.21.67C114.65,224.65,99,228.4,87.21,219.38Z"></path>
      <path d="M211.2,226.81c-.13,0-.17-.07-.12-.19a1,1,0,0,1,1-.65l.94.1q23.06-.75,46.09.07a.52.52,0,0,1,.37.17c.15.17.09.26-.2.27Q236.42,227.81,211.2,226.81Z"></path>
      <path d="M220,251.31c-5.71-11.6-21.8-13.7-30.07-3.64a19.64,19.64,0,0,0-1.81,22.16q.51.92-.12.09c-10.52-13.67,1.88-31.8,18-30.1,12.39,1.3,20.1,14,16.18,25.74a18.81,18.81,0,0,1-30,8.89c-.26-.21-.22-.29.11-.24a1.25,1.25,0,0,1,.74.43,2.39,2.39,0,0,0,.74.6C209.72,283.29,228.22,268,220,251.31Z"></path>
      <path d="M68.57,268.75A69.18,69.18,0,0,1,54,247.8a1.89,1.89,0,0,1-.12-1.43.55.55,0,0,1,.69-.36.58.58,0,0,1,.27.19A212.25,212.25,0,0,1,69.58,268a.65.65,0,0,1-1,.79Z"></path>
      <path d="M326.43,252.33c-1.91-3.4-2.91-4.71-6.15-5.28a.41.41,0,0,1-.36-.47.42.42,0,0,1,.47-.37h0q5.5.48,6.38,6C326.87,252.87,326.76,252.91,326.43,252.33Z"></path>
      <path d="M322.67,253.37a.57.57,0,0,0-.77-.2.67.67,0,0,0-.22.25l-1.58,3.4a.78.78,0,0,1-1.48-.26,7.07,7.07,0,0,1,1.69-5.38.76.76,0,0,1,1.06-.19,6.3,6.3,0,0,1,3.2,4.52.27.27,0,0,1-.23.32.28.28,0,0,1-.28-.12Z"></path>
      <path d="M324,296.6c-1.82-4.64-6.85-6.09-11.11-7.6-10.89-3.86-7.74-13.43-5.79-22.2a.54.54,0,0,0-.38-.69c-2.27-.86-6.84-2.27-4.43-5.72a32.83,32.83,0,0,1,8.32-8.26.56.56,0,0,1,.79.14.59.59,0,0,1,0,.71l-7.28,8.48a.93.93,0,0,0,.11,1.31l.08.06,3.57,2.41a1.07,1.07,0,0,1,.49,1.07l-.73,6.66a.5.5,0,0,0,.43.55,12.38,12.38,0,0,0,7.81-1.24c.33-.17.49-.07.46.31a.42.42,0,0,1-.26.39c-3.13,1.29-4.2,2.51-8,1.42a.45.45,0,0,0-.63.35c-4.21,15.19,16.59,10.35,17.53,22.19a.53.53,0,0,0,.57.54c6.84.18,12.23-4.08,17.23-8.15a.32.32,0,0,1,.45.08.33.33,0,0,1,0,.36c-4.79,6-13.75,11.58-21.57,7.76a.9.9,0,0,1-.5-.5.73.73,0,0,1,0-.41c0-.2.15-.26.34-.18l1.91.8A.51.51,0,0,0,324,297,.55.55,0,0,0,324,296.6Z"></path>
      <path d="M193.56,265.63l10.91.58c.13,0,.18.07.14.19s-.08.23-.11.34a.17.17,0,0,1-.18.13L194,267a2.36,2.36,0,0,1-2.4-2.31v0l-.07-8.94a2.75,2.75,0,0,1,2.73-2.77h12.82a2.65,2.65,0,0,1,2.65,2.46,40.13,40.13,0,0,1-.45,9.78,1.31,1.31,0,0,1-.47.85c-.28.21-.36.16-.23-.17a7.59,7.59,0,0,0,0-5.15,1.93,1.93,0,0,1-.06-1,10,10,0,0,0-.14-4.77.8.8,0,0,0-.63-.61c-4.07-1-9.89-.44-14-.09a1.1,1.1,0,0,0-1,1.11l.05,9.52A.72.72,0,0,0,193.56,265.63Z"></path>
      <path d="M214.49,257.19l-2.79,1.14a.32.32,0,0,1-.33-.53,7.38,7.38,0,0,1,3.83-1.73.66.66,0,0,1,.75.54,14.13,14.13,0,0,1-.68,7.5.72.72,0,0,1-.93.42l-.06,0a6.15,6.15,0,0,1-3.09-3.33.27.27,0,0,1,.16-.36.26.26,0,0,1,.3.06l2.11,2.18a.52.52,0,0,0,.74,0,.59.59,0,0,0,.15-.33l.51-5.06C215.21,257.15,215,257,214.49,257.19Z"></path>
      <path d="M105.38,300.57C95.52,296.1,85.15,288,79.63,279a.46.46,0,0,1,.15-.63.45.45,0,0,1,.34-.06l.36.07a1.21,1.21,0,0,1,.62.33A218.9,218.9,0,0,0,106,299.29c.41.29.61.49.59.6a.88.88,0,0,1-1,.75A.73.73,0,0,1,105.38,300.57Z"></path>
      <path d="M354.57,354.43a49.59,49.59,0,0,1,16.75.47.69.69,0,0,1,.55.81.71.71,0,0,1-.59.56c-5.14.73-15,1.65-19.73-.29a.84.84,0,0,0-.71,0q-21.34,9.92-43.27,18.42a1.5,1.5,0,0,1-1.68-.41,74.72,74.72,0,0,1-11.71-18.23,1.53,1.53,0,0,1,.71-2,232.71,232.71,0,0,1,34.37-13.83c1-.3,2.62-1.09,3.82-.87a.49.49,0,0,1,.41.56.5.5,0,0,1-.31.38l-37.47,14.87a.28.28,0,0,0-.15.46l11.19,17.4a.48.48,0,0,0,.6.18l49.59-21.66a1,1,0,0,0,.61-.71c4.78-19,7-38.46-3.11-56.59-3.5-6.27-8.8-3.56-12.38.47a.26.26,0,0,1-.39,0h0l-.24-.24a.13.13,0,0,1,0-.2c10.75-15.68,19.6,6,21,13.77q3.94,22.22-3.6,42a8.29,8.29,0,0,1-4.34,4.21.24.24,0,0,0-.11.32A.26.26,0,0,0,354.57,354.43Z"></path>
      <path d="M297.63,292.84a1.84,1.84,0,0,1,.93-.86.51.51,0,0,1,.64.31.53.53,0,0,1,0,.39A192.15,192.15,0,0,0,280.93,347a2.8,2.8,0,0,1-.37,1.06.38.38,0,0,1-.53.09.36.36,0,0,1-.15-.34A126.11,126.11,0,0,1,297.63,292.84Z"></path>
      <path d="M318.77,304.8c-4.16-1.74-4.6-8-.46-10.33a.49.49,0,0,1,.67.19.5.5,0,0,1-.08.58q-2.64,2.67-1.16,5.42c3.11,5.8,13.47,3.22,18.31,2a.38.38,0,0,1,.47.27.39.39,0,0,1-.17.42A18,18,0,0,1,318.77,304.8Z"></path>
      <path d="M193.27,333.3c-17.82-15,.18-42.3,21-31.51,6,3.14,6.64,7.09,8.57,13.31a.21.21,0,0,1-.05.24c-.06.06-.1.05-.11,0-1.53-8.31-10.54-14.11-18.11-13.94-16.22.37-22.65,20.6-10.21,30.59,11,8.84,25.42,1.1,28.65-11.41,0-.16.06-.16.05,0A18.13,18.13,0,0,1,193.27,333.3Z"></path>
      <path d="M212.4,327.73c0,.12,0,.22,0,.31a.64.64,0,0,1-.22.39c-4.73,3.93-7.9,1.48-10.08-3.23-2.81-6.09-8.75-15.66-1.09-20.69a.2.2,0,0,1,.27,0l.2.19s0,.08,0,.11c-6.68,4.72-1.19,14.05,1.93,20.62C205.45,329.84,208.5,330.9,212.4,327.73Z"></path>
      <path d="M212.4,327.73a4.2,4.2,0,0,0-1.93-3.88.55.55,0,0,0-.71.08,3.21,3.21,0,0,1-2.63,1.07.69.69,0,0,1-.64-.42q-2.33-4.84-4.4-9.76c-1.24-2.93-1.1-5.35,2.47-6a.63.63,0,0,0,.52-.58,3.68,3.68,0,0,0-1.27-3.16c-.23-.2-.2-.29.11-.26a.59.59,0,0,1,.48.31c.85,1.42,1.66,1.71,1.72,3.59a.74.74,0,0,1-.54.78l-2.18.78a1.81,1.81,0,0,0-1.11,2.31l.05.12,4.84,11a.58.58,0,0,0,.78.29l.09-.05,1.79-1.23a.59.59,0,0,1,.74,0A4.61,4.61,0,0,1,212.4,327.73Z"></path>
      <path d="M234.08,326.47c.93-6.78,1-12.06-1.43-18.56-.11-.28,0-.36.26-.25a.5.5,0,0,1,.3.27,22.7,22.7,0,0,1,1.24,18.63.19.19,0,1,1-.37-.09Z"></path>
      <path d="M177.07,309.08c-1.74,5.86-2.87,10.36-1,17.2,0,.09,0,.14-.09.17a.45.45,0,0,1-.27,0,.22.22,0,0,1-.11-.12,19.53,19.53,0,0,1,1-17.48C177.36,307.49,177.52,307.55,177.07,309.08Z"></path>
      <path d="M145.16,316.61a.12.12,0,0,1,.08.15h0c-.54,1.55-6.05,1.06-12.31-1.11h0l-.28-.09c-6.26-2.17-10.89-5.18-10.35-6.74h0a.12.12,0,0,1,.15-.08h0Z"></path>
      <path d="M229.88,326.22c1.36-5.55,1.67-10.43-.23-15.21q-1.05-2.67.45-.22c2.34,3.81,2.87,11.11.16,15.58C229.79,327.14,229.67,327.09,229.88,326.22Z"></path>
      <path d="M180.17,310.49c.17-.32.3-.31.4,0a1.73,1.73,0,0,1-.08,1.06,21.65,21.65,0,0,0-.35,12.5.23.23,0,0,1-.43.15A15.31,15.31,0,0,1,180.17,310.49Z"></path>
      <path d="M226.61,322.06c.79-2.16.14-7.05-.27-9.4a.22.22,0,0,1,.18-.27.22.22,0,0,1,.26.14,13.36,13.36,0,0,1,.41,10.27c-.26.73-.49.76-.7.08A1.48,1.48,0,0,1,226.61,322.06Z"></path>
      <path d="M336.47,337.26a.18.18,0,0,1-.18.18h-.06c-1.19,0-2-5.57-1.88-12.38h0v-.26c.15-6.81,1.25-12.32,2.44-12.29h.06a.18.18,0,0,1,.18.18h0Z"></path>
      <path d="M183.11,313.13a.14.14,0,0,1,.19-.06.16.16,0,0,1,.08.14L183,322a.2.2,0,0,1-.2.2.2.2,0,0,1-.19-.14A10.16,10.16,0,0,1,183.11,313.13Z"></path>
      <path d="M157,354.77c-.33,0-.53-.1-.59-.25a.56.56,0,0,1,.31-.7.51.51,0,0,1,.17,0q11.57-.56,23-.7c37.42-.5,75.31-1,112.69.7a.45.45,0,0,1,.43.46.54.54,0,0,1-.09.25,1.6,1.6,0,0,1-1.16.55C247.1,356,201.62,357,157,354.77Z"></path>
      <path d="M278.57,379.41a.3.3,0,0,0-.22-.35.3.3,0,0,0-.3.12l-5.24,7.12a1.18,1.18,0,0,1-.93.48c-4.25.06-2.21-6.67-1-8.7a59.57,59.57,0,0,1,21.49-21.57.5.5,0,0,1,.78.2.52.52,0,0,1-.14.67c-5.92,4.41-21.54,18.74-21.67,26.65,0,.49.15.55.47.19l8.11-8.9a.61.61,0,0,1,.82-.08.47.47,0,0,1,.19.44c-.51,5.22-2.8,13,.22,17.69.35.55.49.5.41-.15a27.64,27.64,0,0,1,1.52-13.09.38.38,0,0,1,.49-.21.39.39,0,0,1,.24.31,9.55,9.55,0,0,1-.07,2.25A37.79,37.79,0,0,0,284,395a.54.54,0,0,0,.63.43.5.5,0,0,0,.33-.2,2.88,2.88,0,0,1,.21-.23.55.55,0,0,0,.24-.55,18.85,18.85,0,0,1,3.2-13,.49.49,0,0,1,.69-.13.51.51,0,0,1,.22.35l1,7.93a.46.46,0,0,0,.51.4.49.49,0,0,0,.41-.39c1.26-7.81,3.73-14.92,9.94-20a.49.49,0,0,1,.7.06.5.5,0,0,1,0,.65c-5.51,6.61-6.69,12.41-8.9,20.71a1.83,1.83,0,0,1-2.25,1.3h-.05c-1.92-.58-2.35-3.55-2.6-5.33,0-.29-.14-.31-.29-.06-1.52,2.48,2.18,14-5.51,9.67C275.83,392.87,277.24,385.69,278.57,379.41Z"></path>
      <path d="M148.73,361.51a.33.33,0,0,1-.28-.39.32.32,0,0,1,.13-.22,4.5,4.5,0,0,1,.5-.32,1.21,1.21,0,0,1,.54-.15q53.1-1.74,106.89,0a1,1,0,0,1,1,.94c0,.07-.14.18-.41.31a1.31,1.31,0,0,1-.49.12q-51,1.37-102,.2A46.91,46.91,0,0,1,148.73,361.51Z"></path>
      <ellipse cx="263.31" cy="364.73" rx="16.09" ry="1.52"></ellipse>
      <path d="M339,367a.57.57,0,0,1-.19-1.08l.67-.33a1.76,1.76,0,0,1,.77-.2q12.17-.66,24.34-.45a33.4,33.4,0,0,1,7.1.88.63.63,0,0,1,.47.76.65.65,0,0,1-.56.49A172.36,172.36,0,0,1,339,367Z"></path>
    </g>
  </g>
</svg>
