<?xml version="1.0" encoding="UTF-8"?>
<svg xmlns="http://www.w3.org/2000/svg" viewBox="0 0 178.35 158.06">
  <defs>
    <style>.cls-1{fill:#005aff;}</style>
  </defs>
  <g id="Layer_2" data-name="Layer 2">
    <g id="Layer_13" data-name="Layer 13">
      <path d="M158.78,69.11l-3.39.22-1.58-.23-1.23,0,.64-.16c.11,0,.11,0,0-.09a14.37,14.37,0,0,0-1.51-.4c-.19,0-.21,0-.06.13a20.8,20.8,0,0,1,3.83,4.45l.52.9a30.13,30.13,0,0,1,2.42,5.7,1,1,0,0,0,.17.44c.06.48.17.76.34.84a.54.54,0,0,1,0,.42,19.65,19.65,0,0,1,0,10.54c.06.26.05.35,0,.26l-.31.85-.41,1-.72,1.39-.5.83c-7.91,12.11-28.1,11-40.22,9.08-.15,0-.22,0-.2.19a1.42,1.42,0,0,1-.36,1.17.19.19,0,0,0,0,.27c5.49,4.79,14.34,5.9,21.31,5.45a64.13,64.13,0,0,0,18-3.78.34.34,0,0,0,.24-.31,32.4,32.4,0,0,0-.18-9.35h0c.64-.1,1,0,1,.28a32.5,32.5,0,0,1,.16,8.76l-.23,1.23a.26.26,0,0,1-.19.21l-4.21,1.38-1.4.42a63,63,0,0,1-10.63,2s0,0-.05,0v.08h-.52l-9.05,0a1,1,0,0,1-.56-.08l-3.32-.55-5.3-1.57a23,23,0,0,1-4.95-2.71.28.28,0,0,0-.39,0c-.07.07-.09.2,0,.39a.67.67,0,0,0-.23.38,90,90,0,0,0-1.9,25.5c.36,7.3,1.19,14.91,2.23,22.56a2.14,2.14,0,0,1,0,.43c-.07.37-.29.43-.65.18a.51.51,0,0,1-.22-.35c-.82-5.94-1.6-11.93-1.91-17.89-.11-2.12-.28-4.18-.28-6.31a5.72,5.72,0,0,0-.32-2l.09-7a73.37,73.37,0,0,1,2-15.29s0-.06-.05-.07l-.09,0,0-.18a.79.79,0,0,0,.24-.63c0-.12-.07-.14-.16-.07l-.8.58-2.9,1.55a13.23,13.23,0,0,1-8.2,1l-1.24-.62c-1-.48-2.33-.21-3.43-.26a.36.36,0,0,0-.22,0,2.32,2.32,0,0,1-1.35-1.8c0-.21-.19-.36-.49-.45l-.78-.88-5.13-.57-1.12-.12-7.24-1.39a115.33,115.33,0,0,1-23.78-8.4L57,96.15a.32.32,0,0,0-.14,0l-2.57.22a.47.47,0,0,0-.49.53v9.52a.55.55,0,0,1-.6.33.29.29,0,0,1-.2-.17,3.69,3.69,0,0,1-.09-1.73q0-4,0-8a.34.34,0,0,0-.35-.34h0l-5.38.22a.47.47,0,0,0-.45.47q0,6.86,0,13.89c0,.23-.06.37-.18.44a.78.78,0,0,1-.56.05,2.2,2.2,0,0,1-.09-.21.54.54,0,0,1-.05-.21q0-7,0-14a.19.19,0,0,0-.18-.19.32.32,0,0,0-.28.14.19.19,0,0,1-.13,0,1.16,1.16,0,0,0-.68-.13q-11.58.63-23.15,1.33a.67.67,0,0,1-.53-.68c0-1.16,0-2.32,0-3.49a1.07,1.07,0,0,1,.35-.49.21.21,0,0,1,.11,0l6-.45a.12.12,0,0,0,.11-.14h0a64.19,64.19,0,0,1-.86-18.29,21.17,21.17,0,0,1,.39-2.1,1.82,1.82,0,0,0,.12-1l.66-2.39c.18-.08.27-.3.26-.66A18.61,18.61,0,0,1,30,64.07C30,64,30,64,29.88,64c-4.43,1.54-6.6,7.69-7.22,11.85a2.09,2.09,0,0,0-.29,1.57,62.48,62.48,0,0,0,0,14.72,1.06,1.06,0,0,1-.5,1c0-.1,0-.15-.07-.17a2.79,2.79,0,0,1-.49-1.79,60,60,0,0,1,0-13.06l.18-1.59a1.16,1.16,0,0,1,.11-.47l1.21-4.87a1,1,0,0,0,.17-.64.52.52,0,0,0,0-.43c.19,0,.31-.1.36-.44l.42-.92.61-1.12.15-.42a1.64,1.64,0,0,0,.62-.77l.81-1a.36.36,0,0,1,0-.15.5.5,0,0,0,.46-.36A9.43,9.43,0,0,1,29,63.12c1.58-.48,3.19-1,4.83-1.45-.1-.07-.07-.08.1,0l5.26-1.48.07-.05,5.12-1.44.35-.09a2.58,2.58,0,0,0,1.09-.25l4.07-1.15c.19-.12.26-.13.22,0,1.67-.45,3.3-.9,4.9-1.32.06,0,.08-.07.08-.15s.13-.11.14-.07a.32.32,0,0,0,.3,0l4.79-1.33a.21.21,0,0,0,.14-.18l.42,0c1.63-.38,3.21-.8,4.76-1.24a.32.32,0,0,0,.13-.08.26.26,0,0,0,.07-.15.7.7,0,0,0,.38,0c1.92-.42,4-1.28,5.72-1.35,7.72-.32,13.14,7.07,14.4,13.95a.18.18,0,0,0,.19.17,17.14,17.14,0,0,0,3-.06c1-.1,1.77,0,1.83,1.13a34,34,0,0,1,0,6.39.53.53,0,0,0,.37.63,18.37,18.37,0,0,0,6.84-1.39.13.13,0,0,1,.15,0c1.33-.43,2.84-1.09,4.17-.83,2.34.45,3.78,2.73,4.84,4.78a1,1,0,0,0,.34.56.23.23,0,0,0,.27,0l1.79-1.24a.48.48,0,0,1,.59-.25A41.78,41.78,0,0,1,120,71.81a.46.46,0,0,0,.26-.15l1.1-1.29,1.19-1.25a14.79,14.79,0,0,1,4.13-2.87.08.08,0,0,0,0,0,.28.28,0,0,0,0-.09l.2-.06c.37.09.56-.11.58-.63,0-1.08,0-2.17,0-3.26,0-.45-.22-.62-.6-.49a.71.71,0,0,1-.39-.19,6.74,6.74,0,0,0-1.86,1.62c-.08.17-.11.21-.12.11s-.32.13-.56.41L122,65.28l-3,2.24-1.33.58a5.92,5.92,0,0,1-3.59-.36c-2.64-1.39-4-4-4.78-6.86-1.41-5.53-1.89-11.69,0-17a1.12,1.12,0,0,0,.21-.5l1.27-2.25a29.73,29.73,0,0,1,2.51-2.65c.12-.11.13-.21,0-.29l0-.78.26-2.41.55-3a.35.35,0,0,1,.07-.24,2.23,2.23,0,0,0,.36-.91l1.1-2.72a.48.48,0,0,0,0-.41.12.12,0,0,0,.07,0c0-.05,0-.09,0-.12-5-2.88-7.85-7-7.9-13A16.41,16.41,0,0,1,108.71,9c2.45-7,10-9.81,16.78-8.79a13,13,0,0,1,7.87,4.4.28.28,0,0,0,.3.07q10-3.27,16.86,4.28c4.51,5,6.14,10.49,8.68,16.29a1,1,0,0,0,.24.35,1,1,0,0,0,.37.22,22.22,22.22,0,0,1,18.42,20.07,21.8,21.8,0,0,1-2.44,12.59,8,8,0,0,1-1,1.52A27.5,27.5,0,0,1,158.78,69.11ZM138.44,24.67c-3.69,3.85-8.1,4.82-13.19,5a.06.06,0,0,0-.06,0,.08.08,0,0,0,0,.05,8.44,8.44,0,0,1,3.67,6.31.21.21,0,0,0,.21.21l3.18.18c.1,0,.15,0,.17-.14a8.17,8.17,0,0,1,8.88-6.95.13.13,0,0,0,.17-.11c.69-2.29-.84-3.92-2.78-4.66A.23.23,0,0,0,138.44,24.67ZM115.35,32a9.51,9.51,0,0,1,4-2.94,0,0,0,0,0,0-.05l0,0-2.46-.84a.18.18,0,0,0-.25.12l-1.44,3.64a.1.1,0,0,0,.16.1ZM120,44.49c3.55.61,7-2.15,7.69-6.17h0c.7-4-1.62-7.78-5.18-8.39h0c-3.55-.62-7,2.14-7.7,6.17s1.63,7.78,5.19,8.39Zm18.62.6c3.54.62,7-2.14,7.69-6.16s-1.6-7.79-5.15-8.41h0c-3.55-.62-7,2.14-7.7,6.16s1.61,7.8,5.16,8.41Zm14-5.61a1.9,1.9,0,0,1,.24-.62.11.11,0,0,0,0-.15.1.1,0,0,0-.07,0l-5.18.52a.34.34,0,0,0-.29.26c-1.87,8.89-13.8,9.17-14.95-.36q-.09-.68-.12-1.38a.16.16,0,0,0-.16-.16l-2.94-.21a.24.24,0,0,0-.25.22h0a9.1,9.1,0,0,1-4,6.94,7.09,7.09,0,0,1-10-2.37c-.3-.5-.4-.46-.3.11,1.73,9.92,10.62,22.61,22.26,18.67a24.73,24.73,0,0,0,10.78-8.15,62.38,62.38,0,0,0,4.63-7.53.17.17,0,0,1,.23-.06.1.1,0,0,1,.05,0c.7.8,1.94,1.47,2.94,1,1.8-.92,2.1-4.93,1.91-6.68-.31-2.82-3.19-1.2-3.77.26a.51.51,0,0,1-.66.29A.5.5,0,0,1,152.65,39.48ZM60,70.61a2.78,2.78,0,0,0,.14-1.6,49.09,49.09,0,0,1,2.14-9.12,9,9,0,0,1,.56-1.17,1.56,1.56,0,0,0,.34-.76,19.14,19.14,0,0,1,2.69-4,.05.05,0,0,0,0-.08s0,0-.06,0q-2.44.72-4.92,1.35a3.17,3.17,0,0,0-2.07,1.1,18.53,18.53,0,0,0-2.7,5.78c-2.44,9.09-2.33,19.4-1.34,29.09,0,.07,0,.11.11.11l5.26.2c.11,0,.14,0,.09-.13a2.81,2.81,0,0,1-.26-.93A91.11,91.11,0,0,1,60,70.61Zm-7-9a1.84,1.84,0,0,0,.47-1.28L55,57q.07-.17-.09-.12L35.22,62.39c-3.26.91-5,8.66-5.39,11.48a73.72,73.72,0,0,0-.12,18.89c0,.12.08.17.2.17l22.27-1.42a.24.24,0,0,0,.22-.25v0C50.71,81.65,50.41,71.13,53,61.64Zm89.67-2.56-1.7,1.1-1.12.61a.52.52,0,0,0-.29.49l0,3.84a.22.22,0,0,0,.22.22h0a23.48,23.48,0,0,1,7.65.79c.16,0,.17,0,.05-.1-2.3-1.91-4-4-4.4-7.11a.07.07,0,0,0-.08-.07h0ZM128.53,63a2.59,2.59,0,0,0,0,1.24v1.26c0,.11.06.16.17.14l.59-.09a.49.49,0,0,1,.55.4.47.47,0,0,1,0,.23c-.21.59-.48.36-.9.47-7.78,2.18-11.49,11-12.58,18.24a59.67,59.67,0,0,0-.45,14,.07.07,0,0,0,.07.06.05.05,0,0,0,0,0c4.63-4,12.17-6.66,18.23-7.83a.43.43,0,0,1,.59.44c0,.38-.19.62-.68.71A45.55,45.55,0,0,0,119,98c-1.61,1-5.28,3.92-3.21,5.71a3.34,3.34,0,0,0,1.75.66c13.09,1.8,39.32,3,41.07-16.21a23.06,23.06,0,0,0-2.13-10.89c-3-7.16-8.1-11.4-16.16-10.94-.83,0-1.71.13-2.63.24a.46.46,0,0,1-.52-.4v0c-.06-.73.82-.64,1.28-.75a.16.16,0,0,0,.14-.18V61.63a.14.14,0,0,0-.14-.14h-.05a14.86,14.86,0,0,1-9.62.81c-.11,0-.17,0-.18.13Zm-68,14.93,6.91,6a.15.15,0,0,0,.22,0L89.07,66.52a.08.08,0,0,0,0-.11.07.07,0,0,0-.06,0L62.1,68.12a.32.32,0,0,0-.26.16,2.87,2.87,0,0,0-.38.83,41.93,41.93,0,0,0-.92,8.72A.09.09,0,0,0,60.57,77.89ZM74.81,80.2,85.74,91.8c.12.13.21.11.27,0a58,58,0,0,0,4.44-24.7c0-.17-.08-.21-.21-.1L74.55,79.73a.19.19,0,0,0,0,.26l0,0,.12.07A.53.53,0,0,1,74.81,80.2Zm24.91.85-.45-.74A13.56,13.56,0,0,1,98.19,74a.53.53,0,0,1,.08-.25,1.12,1.12,0,0,0,.12-.35c0-.11,0-.15-.13-.11a17,17,0,0,1-6.66,1.13.15.15,0,0,0-.15.12l-1,6.22c0,.11,0,.16.14.17A35,35,0,0,0,98,80a1.27,1.27,0,0,1,1.11.28l.43.74c.85,1.93,4.37,7.47,7.06,5.32,1.48-1.19,1.78-3.57,1.58-5.34a13.26,13.26,0,0,0-3.3-7.44c-1.26-1.4-2.84-1.93-4.4-.72-.48.38-1.14.89-1.2,1.4a10.11,10.11,0,0,0,1,5.5.19.19,0,0,0,.18.11l1.14-.13c.09,0,.11-.06.07-.13-1.87-3.35,2.24-5.66,4.12-2.7a7.69,7.69,0,0,1,1.3,4.74,2.55,2.55,0,0,1-2.71,2.54A6.21,6.21,0,0,1,99.72,81.05Zm8.83,5a24.55,24.55,0,0,0,6.26,1A.19.19,0,0,0,115,87a37.62,37.62,0,0,1,3.45-12.31,12.22,12.22,0,0,0,.79-1.41c0-.1,0-.14-.11-.12a32.59,32.59,0,0,0-10.43,4.5.21.21,0,0,0-.09.27,10.62,10.62,0,0,1-.15,8,.14.14,0,0,0,.07.18Zm-7.47-4.84c1.15,1.15,4.38,3.45,4.87.51a5.55,5.55,0,0,0-1.67-4.93.48.48,0,0,0-.22-.12,1.47,1.47,0,0,0-1.87,1.2.36.36,0,0,0,0,.23A5.32,5.32,0,0,0,103.31,80a.45.45,0,0,1,0,.63.47.47,0,0,1-.25.11l-1.85.22C100.94,81,100.91,81.07,101.08,81.24ZM61.3,90.68l23.25,1.63a.08.08,0,0,0,.09-.08.14.14,0,0,0,0-.06L73.7,80.57a.12.12,0,0,0-.17,0l-5.17,4.21a1.09,1.09,0,0,1-1.56,0l-6.06-5.28c-.13-.11-.2-.08-.2.08a86,86,0,0,0,.61,11A.15.15,0,0,0,61.3,90.68ZM102.74,87a14.12,14.12,0,0,1-4.23-5.72.22.22,0,0,0-.22-.14,4.68,4.68,0,0,0-.9.06,30.51,30.51,0,0,1-7.06.85.12.12,0,0,0-.13.1l-1.75,6.23c0,.08,0,.11.08.1l14.18-1.36s.06,0,.06-.08A.05.05,0,0,0,102.74,87ZM90.42,89.35l-.46.14a3.47,3.47,0,0,0-1.87.12.33.33,0,0,0-.21.19l-.42,1.13-.25.58-.33,1c0,.11,0,.16.11.18a83.87,83.87,0,0,1,11.82,2.48l.89.26,3.54,1.19a.14.14,0,0,0,.2-.09.25.25,0,0,0-.06-.25q.12-.14,0-.42c.17,0,.34-.25.5-.7a1.43,1.43,0,0,1,1.66-.41.56.56,0,0,1,.24.17,2.32,2.32,0,0,0,1.73,1A11.57,11.57,0,0,1,114,99.32a6.9,6.9,0,0,0,.73.59c.06,0,.1,0,.12,0l0-.11a1.4,1.4,0,0,0-.19-1.26,1.25,1.25,0,0,0-.09-.85l.09-8.08,0-.38a.85.85,0,0,0,.11-.91.24.24,0,0,0-.22-.16l-2.88-.26a12.27,12.27,0,0,1-3.88-1,.21.21,0,0,0-.26,0,3,3,0,0,1-1.53.92Q98.27,88.54,90.42,89.35ZM55.84,92.47a.08.08,0,0,0-.08-.08l-34,2.08a.09.09,0,0,0-.07.09l.16,2.61a.08.08,0,0,0,.08.07l34-2.08a.08.08,0,0,0,.07-.08ZM96,102.34c-.12-.15-.37-.19-.76-.11a287.3,287.3,0,0,1-38.08-9.64c-.12,0-.18,0-.18.13v2.17a.31.31,0,0,0,.17.27,106.65,106.65,0,0,0,37.95,11,.21.21,0,0,0,.21-.12,2.33,2.33,0,0,1,1-1,.16.16,0,0,0,.07-.22h0a1.71,1.71,0,0,1,.26-2.18c.08-.1.07-.16-.06-.18Zm10.19-5.73c-.34-.17-.77-.65-1.15-.9a.17.17,0,0,0-.22,0c-1.14,1,1.07,2,1.54,2.38.86.67,1.9,1.7,1.51,2.83-.94,2.71-6.33,1.89-8.29,2-1,0-2.72.08-2.22,1.43a.35.35,0,0,0,.16.18c1.76.74,3.92.41,5.76.14a.2.2,0,0,1,.22.13l.14.47a.35.35,0,0,1-.23.43h0a15.6,15.6,0,0,1-5.39.16,2.48,2.48,0,0,0-.71,0c-.86.15-1.46,1.14-.33,1.5,1.52.49,4,.08,5.57-.29.49-.11.84,0,.88.54a.39.39,0,0,1-.3.4,20.86,20.86,0,0,1-5.12.62.26.26,0,0,0-.27.26.26.26,0,0,0,.2.27c1.81.55,3.4.22,5.18,0,.79-.1,1.13.81.36,1.06-.15.05-.14.09,0,.13,3.92,1.11,10.27-1.56,12.38-5a.14.14,0,0,0-.06-.23,3,3,0,0,1-1.39-3.87.24.24,0,0,0-.07-.27,15.28,15.28,0,0,0-5.3-3.71C108.1,96.92,107.15,97.09,106.17,96.61Z"></path>
      <path d="M144.1,38.81a.42.42,0,0,1-.41.4c-.42,0-.59-.21-.62-.62-.13-2-1.63-2.58-3.27-3.05a.46.46,0,0,1-.31-.57.45.45,0,0,1,.45-.32A4.12,4.12,0,0,1,144.1,38.81Z"></path>
      <path d="M122.56,36.67a.54.54,0,0,1-.86.16,4.37,4.37,0,0,0-4-.35c-.48.18-.9.11-.89-.47a.33.33,0,0,1,.11-.25c1.21-1.14,4.51-.68,5.6.51A.33.33,0,0,1,122.56,36.67Z"></path>
      <circle cx="137.93" cy="39.88" r="1.9"></circle>
      <circle cx="119.99" cy="40.3" r="1.9"></circle>
      <path d="M155,40.58a.46.46,0,0,1,.59-.23c1,.39.59,3.36-.53,3.84a.5.5,0,0,1-.64-.26.49.49,0,0,1,.1-.53,2.1,2.1,0,0,0,.43-2.34A.54.54,0,0,1,155,40.58Z"></path>
      <path d="M130.58,41a.31.31,0,0,1,.28-.18H131a.56.56,0,0,1,.57.57.54.54,0,0,1-.07.27,45,45,0,0,0-2,4.35c-.57,1.4-.51,2.62.78,3.45a.53.53,0,0,1,.21.59c-.17.5-.67.42-1,.15C126.39,47.71,129.25,43.59,130.58,41Z"></path>
      <path d="M131.92,55.86a1.85,1.85,0,0,0-.9.3c-.19,0-.29,0-.31.1A7,7,0,0,1,128,56a4.51,4.51,0,0,1-1.72-1.2.46.46,0,0,1,.06-.65l.12-.08a.77.77,0,0,1,.8.2,4.22,4.22,0,0,0,1.7,1,1.69,1.69,0,0,0,1.44,0A4.81,4.81,0,0,0,132.84,54a.46.46,0,0,1,.63,0,.64.64,0,0,1,.08.14C133.88,55,132.52,55.6,131.92,55.86Z"></path>
      <path d="M137.25,85.09a2.49,2.49,0,0,0,.62-1Q139.93,78.56,142,73a.5.5,0,0,1,.38-.31c.34-.06.55,0,.62.33a1,1,0,0,1-.07.54q-2.07,5.49-4.11,11c-1,2.78-2.67,2.3-3.48-.24-1-3.15-3.29-12.15-7-11.64-2.35.32-5,5.78-5.74,7.77a.67.67,0,0,1-.72.44.51.51,0,0,1-.36-.62s0,0,0-.07c1.6-3.81,6.21-13.51,11.12-5.68,2,3.14,2.85,7,4.06,10.47C136.83,85.24,137,85.29,137.25,85.09Z"></path>
      <path d="M125.56,116.27q.14,0,.12.09l.18.12a.34.34,0,0,1,.16.23,10.34,10.34,0,0,1,.2,1.26q.65,6.12,1.1,12.19a.34.34,0,0,0,.31.32,69.62,69.62,0,0,0,13.07.42c.24,0,.35-.14.32-.38-.16-1.64-.74-3.59-.52-5.26l.51-.05a.39.39,0,0,0,.13.37.58.58,0,0,1,.15.29l.73,4.45a.48.48,0,0,0,.6.46,66.64,66.64,0,0,0,8-1.42.42.42,0,0,1,.48.21c.21.38.07.62-.4.71a67.22,67.22,0,0,1-7.86,1.33c-.4,0-.57.25-.5.64l2,12.56a.48.48,0,0,0,.51.41,57.68,57.68,0,0,0,10.43-1.83.53.53,0,0,1,.22,0q.71.1.45.57a1.16,1.16,0,0,1-.72.44,54.4,54.4,0,0,1-9.64,1.63c-.07,0-.09.05-.08.14l-.66,0c0-.06-.09-.05-.17,0a.29.29,0,0,0-.08.23l1.45,9.32a.37.37,0,0,1-.32.43.38.38,0,0,1-.39-.19l-.46-.84c0-.12-.08-.19-.13-.21a2.23,2.23,0,0,0,.05-1.27c-.4-2.42-.8-4.84-1.18-7.27a.2.2,0,0,0-.2-.18c-1.44-.11-3.12.06-4.29,0a87.45,87.45,0,0,1-8.86-.57,9.16,9.16,0,0,0-1.17,0c-.12,0-.17.06-.16.19l.86,9.13a.41.41,0,0,1-.32.44c-.38.08-.57,0-.59-.38a14.29,14.29,0,0,0-.43-2.95,1.28,1.28,0,0,1-.07-.64,32.71,32.71,0,0,0-.41-5.7.3.3,0,0,0-.18-.23,3.29,3.29,0,0,0-.9-.22,46.81,46.81,0,0,1-6-1.14.38.38,0,0,1-.28-.47.34.34,0,0,1,.22-.26.93.93,0,0,1,.56,0q3,.6,6.21,1c.16,0,.23,0,.22-.21q-.22-3.66-.7-7.34a.45.45,0,0,0-.21-.39v-.63a20.71,20.71,0,0,0-.23-4.23.44.44,0,0,0-.36-.37q-2.52-.47-5.1-1c-.27-.06-.57-.29-.58-.56a.37.37,0,0,1,.34-.39H121c1.19.23,2.27.4,3.56.7a5.64,5.64,0,0,0,1.65.15c.15,0,.21-.08.2-.23l-.87-9.34a.13.13,0,0,0-.08-.12.2.2,0,0,0-.11,0c0-.2,0-.25,0-.16l-.14-3.46a.4.4,0,0,1,.08-.28Zm3.63,28.31c.5,0,.77,0,.79.15a47.43,47.43,0,0,0,6.81.53,37.93,37.93,0,0,0,6.39-.12.17.17,0,0,0,.16-.22l-2-12.74a.4.4,0,0,0-.43-.34l-3.41.22h-2.71l-6.9-.59a.34.34,0,0,0-.36.31v.06l1.18,12.49a.35.35,0,0,0,.1.22C129,144.73,129.14,144.75,129.19,144.58Z"></path>
      <path class="cls-1" d="M62.53,133.83,60.21,136s0,0-.06.1a17.88,17.88,0,0,0-3.26,3c0-.11,0-.11-.08,0a.25.25,0,0,0-.21,0q-2.43,2.34-5,4.51l-1.74,0a.69.69,0,0,0-.61,0,.38.38,0,0,1-.17-.08,4.74,4.74,0,0,0-2-.57c.13.08.08.07-.14,0L43.48,145l-2.31,1.28a.26.26,0,0,1-.31-.05,2.8,2.8,0,0,1-.86-2.39.2.2,0,0,0-.09-.2.16.16,0,0,0-.12-.05l-.11-.92V139.3a18.32,18.32,0,0,1-5.26-2.81.43.43,0,0,1-.08-.61.44.44,0,0,1,.31-.17,1.1,1.1,0,0,1,.68.23,18.14,18.14,0,0,0,5,2.5.48.48,0,0,1,.33.44l.17,5.27a.15.15,0,0,0,.15.15.16.16,0,0,0,.14-.11l1.21-3.62a.67.67,0,0,1,.37-.42L60.3,132a.53.53,0,0,1,.71.27.59.59,0,0,1,0,.47.79.79,0,0,1-.41.31q-8.06,3.65-16,7.41c-.16.08-.15.15,0,.22,1.23.55,5.07,2.16,6.36,2a.79.79,0,0,0,.39-.13q6.28-5.68,12.51-11.28a.11.11,0,0,0,0-.16.12.12,0,0,0-.1,0l-28.19,4.78a.77.77,0,0,1-.56-.41.19.19,0,0,1,0-.23c.11,0,.25-.11.41-.37l1.39-.25q.47-.32.33-.06l8.41-1.43L46,133l4.88-.76c.23-.17.31-.19.25-.08l3.48-.57c0-.05,0-.09.13-.12s.09.1.22.07c2.77-.45,5.54-.93,8.32-1.42a.84.84,0,0,1,.41-.11c.65,0,2.21-.57,2.2.61a.35.35,0,0,1-.12.25Zm-16.9,8.63a.1.1,0,0,0,0-.14.1.1,0,0,0-.05,0l-2.28-.93a.1.1,0,0,0-.13.06h0l-.91,2.8a.1.1,0,0,0,.06.13.08.08,0,0,0,.08,0Z"></path>
      <rect class="cls-1" x="41.65" y="135.84" width="9.29" height="1.07" rx="0.51" transform="translate(-39.67 20.83) rotate(-17.9)"></rect>
      <path class="cls-1" d="M0,146.43v-.89c5.24.15,4.67,6.28,6.13,9.31.65,1.35,2.25,2.68,3.64,1.65s2.37-4.28,2.65-6a.5.5,0,0,0-.05-.27c-1.4-2.77-4.09-10-2.2-12.59a1.93,1.93,0,0,1,3.2,0c.92,1.22.79,2.67.82,4.18a45.39,45.39,0,0,1-.67,8.31.57.57,0,0,0,0,.29c.89,1.82,3.58,5.08,5.8,2.81.77-.8,2.32-2.56,4.64-5.3,1.14-1.35,3.05-1.93,4.46-.51.67.66,1.14,1.86,2,2.43,2.35,1.62,5.61-1.6,7.5-3a.42.42,0,0,1,.6.08l.05.08a.61.61,0,0,1-.23.8c-2.28,1.67-5.45,4.73-8.43,2.87-1.18-.74-1.77-2.86-3.05-3.14-1.54-.34-4,3.26-4.94,4.3-2,2.25-3.61,4.3-6.51,2.34a12.24,12.24,0,0,1-2.17-2.3.06.06,0,0,0-.08,0v0c-.7,2.12-1.94,6.21-4.67,5.87C2.58,157,6.19,147.11,0,146.43Zm12.22,1.11.4.86c.1.21.16.2.19,0l.11-1a29.45,29.45,0,0,0,.24-8c-.13-1.1-1.84-2.61-2.44-.85C9.91,140.92,11.23,145.18,12.22,147.54Z"></path>
    </g>
  </g>
</svg>
