<?xml version="1.0" encoding="UTF-8"?>
<!-- Generator: Adobe Illustrator 26.0.1, SVG Export Plug-In . SVG Version: 6.00 Build 0)  -->
<svg xmlns="http://www.w3.org/2000/svg" xmlns:xlink="http://www.w3.org/1999/xlink" version="1.1" id="Layer_1" x="0px" y="0px" viewBox="0 0 300 360" style="enable-background:new 0 0 300 360;" xml:space="preserve">
<style type="text/css">
	.st0{fill:#FFFFFF;}
	.st1{fill:#1D1D1B;}
	.st2{fill:#005AFF;}
	.st3{fill:none;stroke:#1D1D1B;stroke-width:0.15;stroke-miterlimit:10;}
	.st4{fill:none;stroke:#1D1D1B;stroke-width:0.5;stroke-miterlimit:10;}
</style>
<g id="XMLID_00000036960156698867580200000017632249468717159069_">
	<g>
		<path class="st0" d="M251.34,272.42c-3.65-5.25-7.31-10.49-10.96-15.74l-0.17-0.16c2.52-2.62,5.05-5.24,7.58-7.86l0.4-0.28    c-3.16-4.62-6.31-9.24-9.46-13.85l-0.36-0.04c0.03-0.31,0.07-0.61,0.1-0.91c7.77,4.54,17.01,5.24,25.68,6.86    c7.26,1.36,15.67,3.02,19.72,9.83c4.77,8.01,4.8,17.42,4.67,26.45c-0.15,10.04-0.36,20.08-0.65,30.13    c-0.28,9.76,0.47,19.5,0.23,29.25c-0.02,0.87-0.05,1.75-0.1,2.62c-0.88,1.68-2.12,3.14-3.6,4.37c-1.76,1.47-3.86,2.61-6.03,3.39    c-4.41,1.57-9.16,1.83-13.84,2.01c-23.91,0.94-47.87,0.31-71.7-1.9l-0.81,0.28c-3.5-10.01-6.41-20.14-9.91-30.27    c-0.04-0.1-0.08-0.2-0.11-0.3c-3.32-14.73-4.13-29.38-5.13-44.41l0.27-0.02c4.1-5.06,7.27-10.87,9.31-17.06l0.05-0.16    c-1.53-0.44-2.76-1.62-3.9-2.74c-0.16-0.15-0.31-0.31-0.47-0.46l-0.22-0.13c3.94-6.56,8.5-12.74,13.59-18.41c0,0,0,0,0,0    c0.07-0.01,0.13-0.03,0.2-0.04c-3.01,11.62-3.98,23.63-5,35.55c-1.04,12.2-2.02,24.32-2.05,36.59    c-0.02,6.69,0.14,13.39,0.45,20.07c14.61-2.27,29.22-4.55,43.83-6.81c1.75-0.27,3.49-0.54,5.24-0.82    c3.86-14.82,8.85-29.81,12.91-44.87L251.34,272.42z"></path>
		<path class="st0" d="M240.21,256.51l0.17,0.16c3.65,5.25,7.31,10.5,10.96,15.74l-0.24,0.17c-4.06,15.07-9.05,30.05-12.91,44.87    c-1.75,0.27-3.49,0.54-5.24,0.82l0-0.02c1.08-28.02,2.31-56.07,5.43-83.77l0.36,0.04c3.16,4.62,6.31,9.24,9.46,13.85l-0.4,0.28    C245.26,251.27,242.73,253.9,240.21,256.51z"></path>
		<path class="st0" d="M228.41,193.41c1.83-2.93,2.24-6.32,1.16-9.53l0.09-0.03c2.4,0.26,4.81,0.4,7.23,0.4    c0.5,3.28,0.63,6.63,0.74,9.95c0.21,0.26,0.7,0.18,0.93-0.09c0.24-0.3,0.28-0.71,0.29-1.09c0.09-1.71,0.18-3.42,0.27-5.13    c0.07-1.24-0.03-2.44-0.16-3.66c-0.04-0.39-0.08-0.78-0.13-1.18c-0.24-2.13,1.98-3.15,3.92-2.96c0.66,0.06,1.29,0.27,1.78,0.62    c3.39,2.47,1.04,9.29-0.12,12.39c-0.64,1.71-1.7,3.67-3.56,3.67c-0.28,0-0.59-0.05-0.91-0.15l-0.05,0.16    c-0.9,3.06-1.61,6.16-2.14,9.3c-1.52,8.91-1.55,18.08-0.08,27c0.05,0.32,0.11,0.65,0.17,0.97c-4.85,7.79-12.57,13.62-21.21,16.04    c-8.17-2.85-14.65-10.37-16.43-19.08c0.32-3.13,0.1-6.29-0.66-9.37c-2.83-2.23-5.36-5.05-6.87-8.3c-2.02-4.35-2.8-9.17-3.11-13.96    c-0.21-3.15-0.39-6.29-0.58-9.44l0.85-0.05c0.05,0.83,0.15,1.66,0.29,2.48c0.21,1.22,0.41,1.85,1.69,2.31    c1.05,0.38,2.21,0.31,3.31,0.33c2.07,0.05,4.15-0.17,6.16-0.65c1.49-0.36,3.36-0.72,4.43-1.91c0.95-1.05,0.95-2.56,0.92-3.89    c-0.02-0.72-0.1-1.44-0.23-2.16h0c0.72-0.89,1.76-1.41,2.81-1.41c1.05,0,2.09,0.53,2.8,1.43h0c0,0.31,0.01,0.61,0.03,0.91    c0.1,1.32,0.25,2.94,0.99,4.12c2.47,3.95,7.64,3.68,11.89,3.11c0.94-0.13,1.88-0.3,2.71-0.7    C227.9,193.75,228.17,193.59,228.41,193.41z"></path>
		<path class="st0" d="M195.53,358.92c-1.07-0.46-1.89-1.48-2.11-2.62c-0.23-1.24,0.26-2.59,1.23-3.4c-0.3,0-0.6,0-0.9,0.01v-0.04    c0.15,0,0.29,0,0.44,0c16.47-0.26,33.25-0.26,49.48-0.32c0.09,0,0.18,0,0.27,0c0.8,1.92,0.98,4.08,0.53,6.11l-0.07-0.02    c-16.2,0.13-32.41,0.27-48.61,0.41v-0.01C195.7,359,195.62,358.96,195.53,358.92z"></path>
		<path class="st0" d="M243.67,352.28v0.26c-16.23,0.05-33,0.06-49.48,0.32v-0.07c-0.45-1.18-0.88-2.36-1.31-3.54    C209.82,350.27,226.75,351.27,243.67,352.28z"></path>
		<path class="st1" d="M188.86,160.51l0.13-0.04c-0.13-4.01,2.11-7.86,5.26-10.34c3.16-2.48,7.14-3.72,11.11-4.24    c6.67-0.87,13.58,0.19,19.68,3.03c2.81,1.3,5.44,2.97,8.27,4.25c2.82,1.28,5.92,2.18,9,1.81l0.08,0.04    c-0.82,1.52-2.3,2.67-3.98,3.09c1.71,0.49,3.19,1.75,3.93,3.37c0.68,1.48,0.74,3.23,0.18,4.76c0.69,4.57,0.76,9.25,0.23,13.84    c-1.94-0.19-4.16,0.83-3.92,2.96c0.05,0.4,0.09,0.79,0.13,1.18c-0.69,0.02-1.38,0.03-2.06,0.02c-0.21-1.42-0.5-2.82-0.88-4.21    c-1.28-4.63-3.77-9.09-7.7-11.84c-3.14,0.9-6.57,0.82-9.63-0.31c-3.72-1.37-6.85-4.14-10.68-5.14c-1.95-0.51-4.03-0.53-5.98-0.05    c-2.03,0.49-3.92,1.49-5.95,1.99c-2.03,0.49-4.42,0.36-5.9-1.11l-0.25-0.03c-0.49,3.1-1.35,6.09-1.54,9.21    c-0.11,1.79-0.11,3.59-0.05,5.38c-2.1-5.01-2.56-11.05-1.95-16.46c0.08-0.7,0.23-1.48,0.8-1.85c0.38-0.24,0.89-0.23,1.25,0.04    C188.63,160.01,188.79,160.25,188.86,160.51z"></path>
		<path d="M240.85,196.77l0.88,0.03c-0.05,3.22-0.44,8-3.99,9.28c0.53-3.14,1.25-6.24,2.14-9.3l0.05-0.16    C240.26,196.73,240.56,196.77,240.85,196.77z"></path>
		<path d="M238.95,184.23c0.13,1.22,0.23,2.42,0.16,3.66c-0.09,1.71-0.18,3.42-0.27,5.13c-0.02,0.38-0.05,0.79-0.29,1.09    c-0.23,0.28-0.72,0.36-0.93,0.09c-0.11-3.32-0.24-6.67-0.74-9.95C237.58,184.25,238.27,184.25,238.95,184.23z"></path>
		<path class="st2" d="M237.82,234.06c-0.06-0.32-0.12-0.65-0.17-0.97c0.27,0.17,0.54,0.33,0.81,0.49c-0.03,0.31-0.07,0.61-0.1,0.91    c-3.11,27.69-4.35,55.74-5.43,83.77l0,0.02c-14.61,2.27-29.22,4.54-43.83,6.81c-0.31-6.68-0.47-13.38-0.45-20.07    c0.04-12.26,1.02-24.38,2.05-36.59c1.02-11.92,1.99-23.93,5-35.55c0.02-0.07,0.03-0.13,0.05-0.2l0.02,0    c1.63-0.01,3.24-0.72,4.34-1.91c0.02,0.08,0.03,0.16,0.05,0.24c1.78,8.71,8.26,16.23,16.43,19.08    C225.26,247.68,232.97,241.85,237.82,234.06z"></path>
		<path class="st0" d="M190.15,184.11c-0.35,1.9-0.47,3.85-0.35,5.79l-0.85,0.05c-0.12-2.09-0.24-4.18-0.37-6.27    c-0.11-1.85-0.23-3.71-0.28-5.56c-0.06-1.8-0.06-3.59,0.05-5.38c0.2-3.12,1.05-6.11,1.54-9.21l0.25,0.03    c1.48,1.48,3.86,1.6,5.9,1.11c2.03-0.49,3.92-1.5,5.95-1.99c1.96-0.47,4.03-0.46,5.98,0.05c3.83,1,6.96,3.78,10.68,5.14    c3.07,1.13,6.49,1.21,9.63,0.31c3.93,2.75,6.42,7.21,7.7,11.84c0.38,1.39,0.67,2.79,0.88,4.21c-2.41,0-4.83-0.14-7.23-0.4    l-0.09,0.03c-0.07-0.22-0.15-0.44-0.24-0.67l0.06-0.23c-3.75-1.03-7.67-1.48-11.56-1.32c-1.93,0.08-3.97,0.36-5.5,1.54    c-0.24,1.06-0.35,2.15-0.33,3.24h0c-0.72-0.9-1.75-1.42-2.8-1.43c-1.05,0-2.09,0.52-2.81,1.41h0c-0.2-1.11-0.54-2.19-1.01-3.22    l0.02-0.13c-0.57-0.08-1.15-0.14-1.72-0.18l0.1-1.21c-1.79-1.29-4.08-1.88-6.27-1.62c-2.19,0.26-4.27,1.38-5.71,3.06l0.13,0.56    C191.33,183.8,190.74,183.95,190.15,184.11z"></path>
		<path class="st0" d="M229.57,183.88c1.08,3.21,0.67,6.6-1.16,9.53c-0.24,0.18-0.51,0.34-0.78,0.48c-0.83,0.4-1.77,0.57-2.71,0.7    c-4.26,0.57-9.42,0.84-11.89-3.11c-0.74-1.18-0.89-2.8-0.99-4.12c-0.02-0.3-0.03-0.6-0.03-0.91c-0.02-1.09,0.09-2.17,0.33-3.24    c1.52-1.19,3.57-1.46,5.5-1.54c3.89-0.16,7.81,0.29,11.56,1.32l-0.06,0.23C229.42,183.43,229.5,183.65,229.57,183.88z     M221.54,187.6c0-1.51-0.93-2.72-2.08-2.72c-1.15,0-2.08,1.22-2.08,2.72c0,1.5,0.93,2.72,2.08,2.72    C220.61,190.33,221.54,189.1,221.54,187.6z"></path>
		<ellipse class="st0" cx="219.47" cy="187.6" rx="2.08" ry="2.72"></ellipse>
		<path class="st0" d="M206.61,188.58c0.04,1.33,0.03,2.84-0.92,3.89c-1.07,1.18-2.94,1.55-4.43,1.91c-2.01,0.48-4.09,0.7-6.16,0.65    c-1.1-0.03-2.26,0.05-3.31-0.33c-1.28-0.46-1.49-1.09-1.69-2.31c-0.14-0.82-0.23-1.65-0.29-2.48c-0.12-1.94,0-3.89,0.35-5.79    c0.59-0.16,1.18-0.31,1.77-0.44c3.85-0.85,7.82-1.13,11.74-0.79c0.58,0.05,1.15,0.11,1.72,0.18l-0.02,0.13    c0.47,1.03,0.81,2.11,1.01,3.22C206.51,187.13,206.59,187.85,206.61,188.58z M200.92,188.37c0-1.51-0.93-2.72-2.08-2.72    c-1.15,0-2.08,1.22-2.08,2.72s0.93,2.72,2.08,2.72C199.99,191.1,200.92,189.88,200.92,188.37z"></path>
		<ellipse class="st1" cx="198.85" cy="188.37" rx="2.08" ry="2.72"></ellipse>
		<path class="st2" d="M75.94,358.21c-0.01,0-0.03,0-0.04,0c-0.85-0.01-1.68-0.57-2.03-1.43c-0.41-1-0.08-2.29,0.72-2.93    c0.15,0,0.29,0,0.44,0c39.57-0.32,79.15-0.63,118.72-0.95c0.3,0,0.6,0,0.9-0.01c-0.98,0.81-1.46,2.16-1.23,3.4    c0.21,1.15,1.03,2.16,2.11,2.62C155.66,358.69,115.81,358.44,75.94,358.21z"></path>
		<path class="st0" d="M68.72,279.57c27.51-0.55,54.95-0.75,82.57-1.3c1.05-0.02,2.11-0.05,3.17-0.07c4.1-0.08,8.21-0.18,12.32-0.28    l0,0.21c6.1,12.03,10.27,25.31,15.24,38.19c0.04,0.1,0.08,0.2,0.11,0.3c3.49,10.13,6.4,20.26,9.91,30.27    c0.27,0.8,0.56,1.59,0.85,2.38c0.42,1.18,0.86,2.36,1.31,3.54v0.07c-0.15,0-0.29,0-0.44,0v0.04    c-39.58,0.31-79.15,0.63-118.72,0.95c-2.25-5.19-4.46-10.38-6.6-15.61c-2.24-5.47-4.42-10.97-6.49-16.51    c-2.01-5.34-3.93-10.72-5.73-16.14c-2.81-8.42-5.34-16.92-7.51-25.55C55.39,279.85,62.06,279.7,68.72,279.57z"></path>
		<path class="st0" d="M159.43,254.77c1.74-3.4,4.03-6.5,6.98-9.17c6.26-5.66,13.87-8.94,21.84-11.05c2.4-0.64,4.83-1.17,7.27-1.63    c-5.08,5.68-9.64,11.85-13.59,18.41l0.22,0.13c0.16,0.15,0.31,0.31,0.47,0.46c1.14,1.13,2.37,2.3,3.9,2.74l-0.05,0.16    c-2.04,6.19-5.21,11.99-9.31,17.06l-0.27,0.02c1,15.03,1.81,29.68,5.13,44.41c-4.97-12.88-9.14-26.16-15.24-38.19l0-0.21    c-4.11,0.1-8.22,0.2-12.32,0.28c0.23-4.29,0.57-8.58,1.39-12.8C156.57,261.65,157.74,258.07,159.43,254.77z"></path>
		<path class="st0" d="M187.06,231.63c0.39,0.98,0.79,1.95,1.19,2.92c-7.97,2.11-15.59,5.39-21.84,11.05    c-2.95,2.67-5.24,5.77-6.98,9.17c-1.42-2.67-2.83-5.35-4.25-8.03c7.59-9.84,17.93-16.41,29.61-20.44l0.18-0.07    C185.65,228.04,186.35,229.84,187.06,231.63z"></path>
		<path class="st0" d="M151.07,238.98c-0.82,13.05-0.77,26.02,0.22,39.29c-27.63,0.55-55.06,0.74-82.57,1.3    c0.23-13.32,0.21-26.71,0.34-40.11c-2.42-0.26-4.85-0.43-7.29-0.51c-9.69-0.31-19.41,0.85-28.76,3.43l-0.28-0.01    c0.28-6.59,0.73-13.23,1.25-19.93c0.42-2.09,0.42-3.77,0.84-5.86c0-1.26,0-2.51,0-3.77c1.26-11.72,2.09-23.86,9.63-33.9    c9.63-12.56,24.27-18,36.83-26.37c0.57-0.49,1.11-1.01,1.63-1.54c3.99,7.16,10.41,12.78,17.58,16.63    c6.53,3.5,15.38,6.16,21.91,1.22c3.79-2.86,5.65-7.41,7.08-11.79c0.73,1.05,1.57,2.03,2.53,2.9c5.21,4.75,12.41,7.04,18.87,9.68    c7.15,2.93,14.68,6.27,19.19,12.74c4.75,6.82,5.91,15.61,8.14,23.41c1.98,6.9,4.24,13.71,6.76,20.44l-0.18,0.07    c-11.68,4.03-22.02,10.59-29.61,20.44C153.81,244.15,152.44,241.56,151.07,238.98z"></path>
		<path class="st1" d="M93.18,81.67l0.05,0.07c-0.59,2.57,0.24,5.41,2.09,7.27l-0.25,0.41c-2.59,1.15-4.64,3.47-5.46,6.19    c-0.31,1.01-0.44,2.07-0.58,3.11c-0.24,1.83-0.48,3.66-0.72,5.49l-0.08,0.05c-0.25-0.39-0.52-0.74-0.85-1.06    c-0.46-0.43-1.05-0.75-1.65-0.85c-0.43-8.62-0.85-17.23-1.28-25.84c-0.02-0.41-0.07-0.87-0.41-1.15    c-0.42-0.34-1.13-0.26-1.59,0.04c-0.41,0.28-0.67,0.69-0.9,1.1l-0.07-0.04c3.08-8.24,11.07-14.07,19.68-15.88    c8.61-1.8,17.69,0.03,25.68,3.72c2.26,1.05,4.48,2.28,6.37,3.91c0.94,0.81,1.8,1.73,2.51,2.76c0.59,0.87,0.9,1.79,1.63,2.57    c0.87,0.93,1.67,1.9,2.25,3.05c1.24,2.47,1.48,5.38,0.97,8.1c-0.52,2.72-1.75,5.26-3.3,7.56h-0.05c-0.05-2.5-0.17-4.99-0.28-7.49    c-0.13-2.98-0.04-5.36-2.9-7.07c-1.21-0.72-3-0.64-4.38-0.85c-3.51-0.54-7.06-0.8-10.61-0.78c-7.02,0.03-14.03,1.12-20.72,3.26    C96.51,79.89,94.69,80.57,93.18,81.67z"></path>
		<path class="st0" d="M126.2,138.43c-1.3,6.12-0.4,13.36,3.28,18.64c-1.43,4.38-3.29,8.92-7.08,11.79    c-6.53,4.94-15.38,2.29-21.91-1.22c-7.17-3.85-13.59-9.46-17.58-16.63c8.29-8.47,10.65-21.67,6.55-32.7    c-0.27,0.01-0.55-0.02-0.82-0.08c-0.92-0.22-1.72-0.82-2.4-1.47c-2.94-2.81-4.35-7.12-3.66-11.13c0.24-1.4,0.94-2.96,2.33-3.26    c0.27-0.06,0.54-0.06,0.81-0.02c0.61,0.1,1.2,0.42,1.65,0.85c0.33,0.31,0.61,0.67,0.85,1.06l0.08-0.05    c0.24-1.83,0.48-3.66,0.72-5.49c0.14-1.05,0.28-2.1,0.58-3.11c0.82-2.72,2.86-5.04,5.46-6.19l0.25-0.41    c-1.85-1.86-2.69-4.7-2.09-7.27l-0.05-0.07c1.51-1.1,3.34-1.78,5.14-2.36c6.68-2.14,13.7-3.24,20.72-3.26    c3.55-0.02,7.1,0.24,10.61,0.78c1.38,0.21,3.17,0.13,4.38,0.85c2.85,1.71,2.76,4.08,2.9,7.07c0.11,2.49,0.24,4.99,0.28,7.49    c0.02,1.04,0.03,2.08,0.02,3.13c-0.06,5.38-0.26,10.76-0.26,16.15c-0.04,3.88-0.09,7.81-0.94,11.58    c-1.14,5.07-3.75,9.76-7.38,13.27C127.86,137.11,127.05,137.8,126.2,138.43z M130.21,105.56c0-1.36-0.91-2.47-2.03-2.47    s-2.03,1.11-2.03,2.47c0,1.37,0.91,2.48,2.03,2.48S130.21,106.93,130.21,105.56z M111.62,105.08c0-1.36-0.91-2.47-2.03-2.47    c-1.12,0-2.03,1.11-2.03,2.47c0,1.37,0.91,2.48,2.03,2.48C110.72,107.56,111.62,106.45,111.62,105.08z"></path>
		<path class="st1" d="M128.18,103.09c1.12,0,2.03,1.11,2.03,2.47c0,1.37-0.91,2.48-2.03,2.48s-2.03-1.11-2.03-2.48    C126.16,104.2,127.06,103.09,128.18,103.09z"></path>
		<path class="st1" d="M109.59,102.6c1.12,0,2.03,1.11,2.03,2.47c0,1.37-0.91,2.48-2.03,2.48c-1.12,0-2.03-1.11-2.03-2.48    C107.56,103.71,108.47,102.6,109.59,102.6z"></path>
		<path class="st0" d="M48.71,280.04c2.17,8.62,4.7,17.13,7.51,25.55l-0.31,0.1c-1.71-0.87-3.41-1.81-5.07-2.82    c-7.04-4.28-13.31-9.94-16.02-18.07c-1.67-4.6-1.67-9.63-2.09-14.23c-0.49-9.37-0.41-18.74,0.01-28.2l0.28,0.01    c9.34-2.58,19.07-3.74,28.76-3.43c2.44,0.08,4.87,0.25,7.29,0.51c-0.13,13.4-0.1,26.79-0.34,40.11    C62.06,279.7,55.39,279.85,48.71,280.04z"></path>
		<path class="st1" d="M61.95,321.73c2.07,5.54,4.24,11.04,6.49,16.51c-5.49-0.06-10.96-0.11-16.4-0.15    c-0.03-6.2-0.15-12.4-0.38-18.6C55.02,320.5,58.46,321.25,61.95,321.73z"></path>
		<path class="st0" d="M56.22,305.59c1.8,5.42,3.72,10.8,5.73,16.14c-3.48-0.49-6.93-1.23-10.29-2.25    c-0.19-5.54-0.46-11.07-0.82-16.61v0c1.66,1.01,3.36,1.95,5.07,2.82L56.22,305.59z"></path>
	</g>
	<g>
		<path class="st3" d="M190.16,163.57c1.48,1.48,3.86,1.6,5.9,1.11c2.03-0.49,3.92-1.5,5.95-1.99c1.96-0.47,4.03-0.46,5.98,0.05    c3.83,1,6.96,3.78,10.68,5.14c3.07,1.13,6.49,1.21,9.63,0.31c1.53-0.44,3-1.11,4.31-2"></path>
		<path class="st3" d="M188.89,161.08c0.03-0.19,0.02-0.38-0.03-0.56c-0.08-0.26-0.23-0.5-0.44-0.66c-0.36-0.27-0.87-0.28-1.25-0.04    c-0.57,0.37-0.72,1.15-0.8,1.85c-0.62,5.4-0.15,11.44,1.95,16.46c0,0,0,0.01,0.01,0.02"></path>
		<path class="st3" d="M188.99,160.48c-0.13-4.01,2.11-7.86,5.26-10.34c3.16-2.48,7.14-3.72,11.11-4.24    c6.67-0.87,13.58,0.19,19.68,3.03c2.81,1.3,5.44,2.97,8.27,4.25c2.82,1.28,5.92,2.18,9,1.81"></path>
		<path class="st3" d="M242.44,154.91c-0.02,0.04-0.04,0.08-0.06,0.11c-0.82,1.52-2.3,2.67-3.98,3.09c1.71,0.49,3.19,1.75,3.93,3.37    c0.68,1.48,0.74,3.23,0.18,4.76c-0.05,0.14-0.11,0.28-0.17,0.42"></path>
		<path class="st3" d="M242.16,164.15c0.13,0.69,0.25,1.39,0.35,2.09c0.69,4.57,0.76,9.25,0.23,13.84v0"></path>
		<path class="st3" d="M241.73,196.8c-0.05,3.22-0.44,8-3.99,9.28c-0.01,0-0.02,0-0.03,0.01"></path>
		<path class="st3" d="M228.17,216.31c-3.5,7.78-13.17,11.43-20.92,9.48c-1.79-0.45-3.48-1.26-5.06-2.26    c-0.9-0.57-1.8-1.19-2.67-1.88c-2.83-2.23-5.36-5.05-6.87-8.3c-2.02-4.35-2.8-9.17-3.11-13.96c-0.21-3.15-0.39-6.29-0.58-9.44    c-0.12-2.09-0.24-4.18-0.37-6.27c-0.11-1.85-0.23-3.71-0.28-5.56c-0.06-1.8-0.06-3.59,0.05-5.38c0.2-3.12,1.05-6.11,1.54-9.21    c0.03-0.21,0.06-0.41,0.09-0.62"></path>
		<path class="st3" d="M203.54,209.86c5.25,1.66,11.26,0.67,15.69-2.59"></path>
		<path class="st3" d="M199.46,221.38c0.02,0.09,0.05,0.18,0.06,0.27c0.75,3.08,0.98,6.24,0.66,9.37c0,0.08-0.01,0.15-0.02,0.23"></path>
		<path class="st3" d="M239.88,196.79c-0.9,3.06-1.61,6.16-2.14,9.3c-1.52,8.91-1.55,18.08-0.08,27c0.05,0.32,0.11,0.65,0.17,0.97    c0.02,0.15,0.05,0.29,0.08,0.44"></path>
		<path class="st4" d="M191.79,183.11c1.44-1.68,3.52-2.79,5.71-3.06c2.19-0.26,4.48,0.33,6.27,1.62"></path>
		<path class="st4" d="M212.33,181.32c2.01-2.26,5-3.54,7.98-3.44s5.88,1.6,7.77,4"></path>
		<path class="st3" d="M228.07,168.03c0.08,0.05,0.16,0.11,0.24,0.17c3.93,2.75,6.42,7.21,7.7,11.84c0.38,1.39,0.67,2.79,0.88,4.21    c0.5,3.28,0.63,6.63,0.74,9.95c0,0.14,0.01,0.29,0.01,0.43"></path>
		<path class="st3" d="M237.58,194.14c0.01,0.02,0.03,0.04,0.05,0.05c0.21,0.26,0.7,0.18,0.93-0.09c0.24-0.3,0.28-0.71,0.29-1.09    c0.09-1.71,0.18-3.42,0.27-5.13c0.07-1.24-0.03-2.44-0.16-3.66c-0.04-0.39-0.08-0.78-0.13-1.18c-0.24-2.13,1.98-3.15,3.92-2.96    c0.66,0.06,1.29,0.27,1.78,0.62c3.39,2.47,1.04,9.29-0.12,12.39c-0.64,1.71-1.7,3.67-3.56,3.67c-0.28,0-0.59-0.05-0.91-0.15    c-0.08-0.03-0.16-0.05-0.24-0.08"></path>
		<path class="st3" d="M200.13,230.78c0.02,0.08,0.03,0.16,0.05,0.24c1.78,8.71,8.26,16.23,16.43,19.08c0.1,0.03,0.19,0.07,0.29,0.1    "></path>
		<path class="st3" d="M216.25,250.2c0.12-0.03,0.24-0.07,0.36-0.1c8.64-2.42,16.36-8.25,21.21-16.04c0.03-0.05,0.05-0.09,0.08-0.13    "></path>
		<path class="st3" d="M189.43,297.16c11.18-5.29,20.73-13.97,27.04-24.6"></path>
		<path class="st3" d="M189.61,300.02c8.39-2.01,16.59-4.83,24.45-8.41"></path>
		<path class="st3" d="M195.79,232.62c0,0.02-0.01,0.05-0.02,0.07c-0.02,0.07-0.03,0.13-0.05,0.2c-3.01,11.62-3.98,23.63-5,35.55    c-1.04,12.2-2.02,24.32-2.05,36.59c-0.02,6.69,0.14,13.39,0.45,20.07c0.01,0.22,0.02,0.44,0.03,0.65"></path>
		<path class="st3" d="M238.5,233.28c-0.01,0.1-0.02,0.2-0.03,0.3c-0.03,0.31-0.07,0.61-0.1,0.91c-3.11,27.69-4.35,55.74-5.43,83.77    "></path>
		<path class="st3" d="M195.52,232.92c-5.08,5.68-9.64,11.85-13.59,18.41c-0.1,0.16-0.2,0.33-0.3,0.49"></path>
		<path class="st3" d="M195.79,232.62c-0.09,0.1-0.18,0.2-0.27,0.3"></path>
		<path class="st3" d="M182.15,251.46c0.16,0.15,0.31,0.31,0.47,0.46c1.14,1.13,2.37,2.3,3.9,2.74c0.13,0.04,0.27,0.07,0.41,0.1"></path>
		<path class="st3" d="M186.48,254.83c-2.04,6.19-5.21,11.99-9.31,17.06"></path>
		<path class="st3" d="M176.89,271.82c0,0.03,0,0.05,0,0.08c1,15.03,1.81,29.68,5.13,44.41c0.18,0.83,0.38,1.67,0.59,2.5"></path>
		<path class="st3" d="M247.78,248.66c-2.53,2.62-5.05,5.24-7.58,7.86c-0.18,0.19-0.37,0.38-0.55,0.57"></path>
		<path class="st3" d="M240.38,256.67c3.65,5.25,7.31,10.5,10.96,15.74c0.03,0.04,0.05,0.08,0.08,0.12"></path>
		<path class="st3" d="M251.09,272.58c-4.06,15.07-9.05,30.05-12.91,44.87c-0.02,0.08-0.04,0.16-0.06,0.24"></path>
		<path class="st3" d="M200.13,230.78c-1.1,1.19-2.72,1.9-4.34,1.91"></path>
		<path class="st3" d="M197.62,232.54c-0.64,0.11-1.27,0.22-1.9,0.34c-0.07,0.01-0.13,0.03-0.2,0.04c0,0,0,0,0,0    c-2.44,0.46-4.87,0.99-7.27,1.63c-7.97,2.11-15.59,5.39-21.84,11.05c-2.95,2.67-5.24,5.77-6.98,9.17    c-1.69,3.3-2.85,6.88-3.58,10.63c-0.82,4.22-1.16,8.51-1.39,12.8c-0.01,0.09-0.01,0.18-0.02,0.27"></path>
		<path class="st3" d="M237.65,233.08C237.65,233.08,237.65,233.08,237.65,233.08c0.28,0.18,0.55,0.34,0.82,0.5    c7.77,4.54,17.01,5.24,25.68,6.86c7.26,1.36,15.67,3.02,19.72,9.83c4.77,8.01,4.8,17.42,4.67,26.45    c-0.15,10.04-0.36,20.08-0.65,30.13c-0.28,9.76,0.47,19.5,0.23,29.25c-0.02,0.87-0.05,1.75-0.1,2.62    c-0.02,0.37-0.04,0.74-0.06,1.12"></path>
		<path class="st3" d="M238.72,234.53c3.16,4.62,6.31,9.24,9.46,13.85c0.29,0.43,0.59,0.86,0.88,1.29"></path>
		<path class="st3" d="M186.44,325.5c0.89-0.14,1.79-0.28,2.68-0.41c14.61-2.27,29.22-4.55,43.83-6.81    c1.75-0.27,3.49-0.54,5.24-0.82c4.54-0.7,9.08-1.41,13.61-2.11c1.64-0.26,3.28-0.51,4.91-0.77"></path>
		<path class="st3" d="M249.91,288.01c0.63,9.11,1.26,18.22,1.89,27.33c0.01,0.15,0.02,0.29,0.03,0.44"></path>
		<path class="st3" d="M192.86,346.59c23.83,2.21,47.79,2.84,71.7,1.9c4.68-0.18,9.43-0.44,13.84-2.01    c2.17-0.77,4.26-1.91,6.03-3.39c1.47-1.23,2.72-2.69,3.6-4.37c0.22-0.41,0.41-0.83,0.58-1.26"></path>
		<path class="st3" d="M48.59,279.59c0.04,0.15,0.08,0.31,0.12,0.46c2.17,8.62,4.7,17.13,7.51,25.55c1.8,5.42,3.72,10.8,5.73,16.14    c2.07,5.54,4.24,11.04,6.49,16.51c2.14,5.23,4.35,10.43,6.6,15.61c0.06,0.15,0.13,0.3,0.19,0.44"></path>
		<path class="st3" d="M47.06,280.09c0.55-0.02,1.1-0.03,1.65-0.05c6.68-0.19,13.35-0.34,20.01-0.48    c27.51-0.55,54.95-0.75,82.57-1.3c1.05-0.02,2.11-0.05,3.17-0.07c4.1-0.08,8.21-0.18,12.32-0.28c0.13,0,0.26,0,0.39-0.01"></path>
		<path class="st3" d="M166.78,278.12c6.1,12.03,10.27,25.31,15.24,38.19c0.04,0.1,0.08,0.2,0.11,0.3    c3.49,10.13,6.4,20.26,9.91,30.27c0.27,0.8,0.56,1.59,0.85,2.38c0.42,1.18,0.86,2.36,1.31,3.54"></path>
		<path class="st3" d="M194.65,352.9c-0.98,0.81-1.46,2.16-1.23,3.4c0.21,1.15,1.03,2.16,2.11,2.62c0.09,0.04,0.18,0.08,0.27,0.1"></path>
		<path class="st3" d="M75.94,358.21c0.15,0,0.31-0.02,0.46-0.06"></path>
		<path class="st3" d="M74.65,353.81c-0.02,0.01-0.04,0.03-0.05,0.05c-0.81,0.64-1.13,1.93-0.72,2.93c0.35,0.85,1.18,1.41,2.03,1.43    "></path>
		<path class="st3" d="M75.42,358.2c0.16,0,0.32,0,0.48,0c0.01,0,0.03,0,0.04,0c39.86,0.23,79.72,0.48,119.59,0.72    c0.25,0,0.5,0,0.75,0"></path>
		<path class="st3" d="M74.29,353.86c0.1,0,0.2,0,0.3,0c0.15,0,0.29,0,0.44,0c39.57-0.32,79.15-0.63,118.72-0.95    c0.3,0,0.6,0,0.9-0.01"></path>
		<path class="st3" d="M193.76,352.87c0.15,0,0.29,0,0.44,0c16.47-0.26,33.25-0.26,49.48-0.32c0.09,0,0.18,0,0.27,0    c0.13,0,0.26,0,0.39,0"></path>
		<path class="st3" d="M194.62,359.05c0.39,0,0.79-0.01,1.18-0.01c16.2-0.14,32.41-0.27,48.61-0.41"></path>
		<path class="st3" d="M243.91,352.47c0.01,0.03,0.02,0.05,0.03,0.08c0.8,1.92,0.98,4.08,0.53,6.11c-0.03,0.15-0.07,0.3-0.11,0.44"></path>
		<path class="st3" d="M81.46,76.46c3.08-8.24,11.07-14.07,19.68-15.88c8.61-1.8,17.69,0.03,25.68,3.72    c2.26,1.05,4.48,2.28,6.37,3.91c0.94,0.81,1.8,1.73,2.51,2.76c0.59,0.87,0.9,1.79,1.63,2.57c0.87,0.93,1.67,1.9,2.25,3.05    c1.24,2.47,1.48,5.38,0.97,8.1c-0.52,2.72-1.75,5.26-3.3,7.56"></path>
		<path class="st3" d="M81.45,76.63c0.03-0.05,0.05-0.09,0.08-0.13c0.23-0.41,0.49-0.82,0.9-1.1c0.46-0.31,1.17-0.39,1.59-0.04    c0.34,0.28,0.39,0.74,0.41,1.15c0.43,8.61,0.85,17.22,1.28,25.84c0,0.08,0.01,0.17,0.01,0.26"></path>
		<path class="st3" d="M93.22,81.74c-0.59,2.57,0.24,5.41,2.09,7.27c0.1,0.1,0.2,0.19,0.3,0.28"></path>
		<path class="st3" d="M95.06,89.42c-2.59,1.15-4.64,3.47-5.46,6.19c-0.31,1.01-0.44,2.07-0.58,3.11c-0.24,1.83-0.48,3.66-0.72,5.49    "></path>
		<path class="st3" d="M115.47,142.99c0.03,0,0.07-0.01,0.1-0.02c3.81-0.61,7.48-2.18,10.63-4.54c0.85-0.63,1.66-1.32,2.43-2.06    c3.64-3.52,6.24-8.2,7.38-13.27c0.85-3.78,0.9-7.7,0.94-11.58c0-5.38,0.2-10.76,0.26-16.15c0.01-1.05,0-2.09-0.02-3.13    c-0.05-2.5-0.17-4.99-0.28-7.49c-0.13-2.98-0.04-5.36-2.9-7.07c-1.21-0.72-3-0.64-4.38-0.85c-3.51-0.54-7.06-0.8-10.61-0.78    c-7.02,0.03-14.03,1.12-20.72,3.26c-1.8,0.58-3.62,1.26-5.14,2.36c-0.4,0.29-0.78,0.62-1.13,0.97"></path>
		<path class="st3" d="M88.88,105.42c-0.21-0.39-0.42-0.79-0.66-1.16c-0.25-0.39-0.52-0.74-0.85-1.06    c-0.46-0.43-1.05-0.75-1.65-0.85c-0.27-0.04-0.54-0.04-0.81,0.02c-1.39,0.3-2.08,1.86-2.33,3.26c-0.69,4.01,0.72,8.32,3.66,11.13    c0.69,0.66,1.48,1.25,2.4,1.47c0.26,0.06,0.54,0.09,0.82,0.08c0.69-0.02,1.36-0.28,1.79-0.81"></path>
		<path class="st3" d="M55.91,305.69c-1.71-0.87-3.41-1.81-5.07-2.82c-7.04-4.28-13.31-9.94-16.02-18.07    c-1.67-4.6-1.67-9.63-2.09-14.23c-0.49-9.37-0.41-18.74,0.01-28.2c0.28-6.59,0.73-13.23,1.25-19.93c0.42-2.09,0.42-3.77,0.84-5.86    c0-1.26,0-2.51,0-3.77c1.26-11.72,2.09-23.86,9.63-33.9c9.63-12.56,24.27-18,36.83-26.37c0.57-0.49,1.11-1.01,1.63-1.54    c8.29-8.47,10.65-21.67,6.55-32.7c-0.01-0.03-0.03-0.07-0.04-0.1"></path>
		<path class="st3" d="M69.86,208.69c-0.49,10.25-0.69,20.51-0.8,30.77c-0.13,13.4-0.1,26.79-0.34,40.11c0,0.15,0,0.29-0.01,0.44"></path>
		<path class="st3" d="M50.84,302.88c0.35,5.53,0.62,11.07,0.82,16.61c0.23,6.2,0.35,12.4,0.38,18.6c0,0.18,0,0.36,0,0.54"></path>
		<path class="st3" d="M126.27,138.11c-0.03,0.1-0.05,0.21-0.07,0.32c-1.3,6.12-0.4,13.36,3.28,18.64c0.73,1.05,1.57,2.03,2.53,2.9    c5.21,4.75,12.41,7.04,18.87,9.68c7.15,2.93,14.68,6.27,19.19,12.74c4.75,6.82,5.91,15.61,8.14,23.41    c1.98,6.9,4.24,13.71,6.76,20.44c0.68,1.8,1.37,3.6,2.09,5.39c0.39,0.98,0.79,1.95,1.19,2.92c0.03,0.08,0.06,0.15,0.09,0.22"></path>
		<path class="st3" d="M155.54,205.36c-0.61,6.2-2.28,12.06-3.12,18.34c-0.58,5.12-1.03,10.2-1.35,15.28    c-0.82,13.05-0.77,26.02,0.22,39.29c0.01,0.14,0.02,0.28,0.03,0.43"></path>
		<path class="st3" d="M33.02,242.38c9.34-2.58,19.07-3.74,28.76-3.43c2.44,0.08,4.87,0.25,7.29,0.51c0.33,0.04,0.66,0.08,0.99,0.11    "></path>
		<path class="st3" d="M151.07,238.98c1.37,2.59,2.74,5.18,4.11,7.76c1.41,2.67,2.83,5.35,4.25,8.03c0.03,0.05,0.06,0.11,0.09,0.17"></path>
		<path class="st3" d="M154.85,247.17c0.11-0.15,0.22-0.29,0.33-0.43c7.59-9.84,17.93-16.41,29.61-20.44"></path>
		<path class="st3" d="M82.74,150.72c0.05,0.1,0.11,0.2,0.16,0.29c3.99,7.16,10.41,12.78,17.58,16.63    c6.53,3.5,15.38,6.16,21.91,1.22c3.79-2.86,5.65-7.41,7.08-11.79c0-0.01,0-0.02,0.01-0.03"></path>
		<path class="st4" d="M99.89,95.97c3.92-3.67,10.03-4.81,15.01-2.79"></path>
		<path class="st4" d="M126.14,94.99c1.61-0.74,3.52-0.8,5.17-0.16c1.65,0.64,3.03,1.96,3.72,3.59"></path>
		<path class="st3" d="M51.1,319.32c0.18,0.06,0.37,0.11,0.55,0.16c3.36,1.02,6.81,1.76,10.29,2.25c0.28,0.04,0.56,0.08,0.84,0.12"></path>
		<path class="st3" d="M282.88,343.13c0.51-0.01,1.03-0.03,1.54-0.03c5.51-0.13,11.02-0.26,16.53-0.38"></path>
		<path class="st3" d="M5.47,337.68c15.49,0.2,30.95,0.28,46.56,0.4c5.44,0.05,10.91,0.1,16.4,0.15c0.15,0,0.31,0,0.46,0"></path>
		<path class="st3" d="M192.59,349.24c0.1,0,0.2,0.01,0.3,0.02c16.92,1.01,33.85,2.02,50.78,3.03"></path>
		<path class="st3" d="M115.72,142.97c-0.05,0-0.1,0-0.15,0c-4.07-0.06-8.11-1.4-11.41-3.78c-3.34-2.41-5.91-5.88-7.24-9.77"></path>
		<path class="st3" d="M111.62,125.25c4.21,2.62,10.26,2.67,14.53,0.11"></path>
		<path class="st3" d="M206.38,186.42c0.72-0.89,1.76-1.41,2.81-1.41c1.05,0,2.09,0.53,2.8,1.43"></path>
		<path class="st3" d="M212.41,182.87c-0.03,0.11-0.05,0.23-0.08,0.34c-0.24,1.06-0.35,2.15-0.33,3.24c0,0.31,0.01,0.61,0.03,0.91    c0.1,1.32,0.25,2.94,0.99,4.12c2.47,3.95,7.64,3.68,11.89,3.11c0.94-0.13,1.88-0.3,2.71-0.7c0.28-0.13,0.54-0.29,0.78-0.48    c0.48-0.37,0.86-0.84,1.03-1.38"></path>
		<path class="st3" d="M212.29,183.24c0.02-0.01,0.03-0.03,0.05-0.03c1.52-1.19,3.57-1.46,5.5-1.54c3.89-0.16,7.81,0.29,11.56,1.32    c0.27,0.07,0.54,0.15,0.81,0.23"></path>
		<path class="st3" d="M229.33,183.21c0.09,0.22,0.17,0.44,0.24,0.67c1.08,3.21,0.67,6.6-1.16,9.53c-0.03,0.04-0.05,0.08-0.08,0.12"></path>
		<path class="st3" d="M229.66,183.85c2.4,0.26,4.81,0.4,7.23,0.4c0.69,0,1.38,0,2.06-0.02c0.21,0,0.41-0.01,0.62-0.02"></path>
		<path class="st3" d="M190.14,184.11c0,0,0.01,0,0.02,0c0.59-0.16,1.18-0.31,1.77-0.44c3.85-0.85,7.82-1.13,11.74-0.79    c0.58,0.05,1.15,0.11,1.72,0.18c0.03,0,0.05,0,0.08,0.01"></path>
		<path class="st3" d="M205.37,183.2c0.47,1.03,0.81,2.11,1.01,3.22c0.13,0.71,0.21,1.43,0.23,2.16c0.04,1.33,0.03,2.84-0.92,3.89    c-1.07,1.18-2.94,1.55-4.43,1.91c-2.01,0.48-4.09,0.7-6.16,0.65c-1.1-0.03-2.26,0.05-3.31-0.33c-1.28-0.46-1.49-1.09-1.69-2.31    c-0.14-0.82-0.23-1.65-0.29-2.48c-0.12-1.94,0-3.89,0.35-5.79c0-0.03,0.01-0.06,0.02-0.1"></path>
		<path class="st3" d="M123.13,103.09c-1.11,3.08-0.77,6.65,0.9,9.48c0.68,1.16,1.6,2.26,1.69,3.6c0.09,1.45-0.87,2.81-2.09,3.6    c-1.22,0.8-2.67,1.13-4.1,1.45"></path>
		<path class="st3" d="M207.15,186.9c-0.05,3.26-0.98,6.5-2.66,9.29c-0.85,1.42-1.94,2.91-1.74,4.56c0.21,1.69,1.79,2.95,3.44,3.33    c1.65,0.39,3.38,0.08,5.06-0.22"></path>
	</g>
</g>
<g>
	<g>
		<g>
			<path class="st1" d="M232.62,166.2c0.06,0.09-0.38,0.58-1.36,1.22c-0.98,0.63-2.54,1.38-4.63,1.82     c-2.07,0.44-4.69,0.51-7.44-0.28c-2.78-0.78-5.33-2.52-7.99-3.93c-1.34-0.7-2.66-1.25-3.99-1.54c-1.33-0.29-2.66-0.34-3.91-0.19     c-2.47,0.29-4.67,1.47-6.77,1.92c-2.11,0.5-3.96,0.21-5.05-0.37c-1.1-0.58-1.42-1.23-1.34-1.29c0.1-0.11,0.59,0.32,1.61,0.62     c1.01,0.31,2.61,0.37,4.44-0.22c0.93-0.29,1.93-0.72,3.05-1.18c1.11-0.46,2.39-0.94,3.83-1.16c1.42-0.22,2.96-0.21,4.5,0.1     c1.55,0.31,3.06,0.93,4.47,1.68c2.82,1.5,5.21,3.17,7.64,3.94c2.42,0.79,4.79,0.86,6.73,0.61     C230.34,167.44,232.47,165.92,232.62,166.2z"></path>
		</g>
	</g>
</g>
<g>
	<g>
		<g>
			<path class="st1" d="M188.32,178.14c-0.22,0.1-0.95-0.93-1.66-2.81c-0.7-1.87-1.32-4.6-1.43-7.65c-0.06-1.52,0-2.98,0.13-4.29     c0.07-0.66,0.16-1.27,0.25-1.85c0.11-0.6,0.25-1.25,0.71-1.81c0.23-0.27,0.54-0.48,0.87-0.58c0.33-0.09,0.64-0.07,0.91,0.01     c0.56,0.16,0.87,0.6,0.97,0.92c0.2,0.69-0.09,1.03-0.18,0.99c-0.13-0.02-0.16-0.34-0.45-0.65c-0.25-0.32-0.87-0.37-1.08,0.09     c-0.28,0.46-0.25,1.75-0.31,2.99c-0.04,1.26-0.04,2.65,0.01,4.1c0.11,2.9,0.49,5.5,0.85,7.38     C188.27,176.86,188.56,178.03,188.32,178.14z"></path>
		</g>
	</g>
</g>
<g>
	<g>
		<g>
			<path class="st1" d="M242.3,154.98c0.02,0.11-0.85,0.41-2.49,0.4c-1.63,0-4.01-0.44-6.69-1.57c-2.69-1.09-5.61-2.89-8.97-4.35     c-3.36-1.45-7.31-2.5-11.53-2.83c-4.21-0.31-8.3,0.08-11.78,1.09c-3.49,1.01-6.33,2.77-8.15,4.78c-1.85,2.01-2.75,4.1-3.15,5.59     c-0.41,1.49-0.41,2.38-0.57,2.38c-0.1,0.01-0.35-0.89-0.14-2.52c0.2-1.62,0.98-3.99,2.86-6.29c1.86-2.33,4.92-4.39,8.63-5.55     c3.71-1.18,7.98-1.63,12.42-1.31c4.44,0.34,8.58,1.5,12.07,3.11c3.5,1.63,6.29,3.52,8.82,4.71c2.5,1.23,4.68,1.82,6.21,2.04     C241.4,154.89,242.29,154.84,242.3,154.98z"></path>
		</g>
	</g>
</g>
<g>
	<g>
		<g>
			<path class="st1" d="M242.34,166.66c-0.25-0.11-0.01-0.98-0.1-2.29c-0.08-1.3-0.62-3.05-2.09-4.29     c-0.15-0.13-0.31-0.25-0.47-0.37l-0.21-0.14c-0.1-0.06-0.19-0.12-0.3-0.17c-0.23-0.1-0.43-0.21-0.67-0.31     c-1.06-0.35-2.09-0.7-3.11-1.04c0.96-0.25,1.9-0.5,2.82-0.74c0.88-0.21,1.47-0.54,1.72-0.68c0.51-0.27,0.92-0.57,1.26-0.85     c0.68-0.55,1.06-0.97,1.24-0.88c0.17,0.08,0.12,0.7-0.44,1.58c-0.28,0.43-0.69,0.92-1.25,1.36c-0.29,0.23-0.23,0.21-0.26,0.25     c-0.01,0.03,0,0.04,0.01,0.05c0.07,0.01,0.1,0.01,0.11,0.01l0.01,0l0,0c0,0,0.01,0,0.08,0.05c0.22,0.15,0.43,0.31,0.63,0.49     c0.95,0.83,1.63,1.88,1.96,2.92c0.34,1.04,0.35,2.03,0.23,2.82C243.27,166.04,242.54,166.78,242.34,166.66z"></path>
		</g>
	</g>
</g>
<g>
	<g>
		<g>
			<path class="st1" d="M242.74,180.09c-0.52-0.07-0.43-3.62-0.6-7.96c-0.15-4.34-0.49-7.87,0.02-7.98c0.48-0.11,1.66,3.4,1.81,7.91     C244.15,176.58,243.23,180.17,242.74,180.09z"></path>
		</g>
	</g>
</g>
<g>
	<g>
		<g>
			<path class="st1" d="M237.71,206.09c-0.09-0.26,0.41-0.63,0.96-1.28c0.28-0.32,0.55-0.74,0.82-1.22c0.25-0.5,0.48-1.08,0.69-1.73     c0.39-1.3,0.62-2.58,0.84-3.52c0.22-0.94,0.45-1.54,0.71-1.54c0.25,0,0.48,0.61,0.59,1.62c0.1,1,0.08,2.43-0.38,3.98     c-0.24,0.77-0.59,1.49-1.01,2.09c-0.45,0.59-0.94,1.06-1.44,1.33C238.5,206.39,237.78,206.31,237.71,206.09z"></path>
		</g>
	</g>
</g>
<g>
	<g>
		<g>
			<path class="st1" d="M190,162.92c0.12,0.01,0.07,1.37-0.32,3.76c-0.18,1.2-0.45,2.65-0.63,4.33c-0.18,1.67-0.19,3.6-0.13,5.74     c0.17,4.27,0.65,9.42,1.01,15.12c0.48,5.69,0.36,12.05,2.4,18.15c1.8,6.18,6.55,10.59,11.29,13.38c1.19,0.68,2.41,1.22,3.64,1.56     c1.24,0.3,2.49,0.53,3.71,0.56c2.44,0.1,4.73-0.26,6.72-0.9c4.02-1.27,6.71-3.58,8.24-5.34c1.54-1.8,2.09-3.04,2.25-2.96     c0.07,0.02-0.25,1.38-1.69,3.41c-1.42,1.99-4.15,4.61-8.38,6.13c-2.1,0.76-4.54,1.24-7.19,1.19c-1.33,0-2.69-0.21-4.08-0.52     c-1.39-0.36-2.75-0.93-4.05-1.64c-2.58-1.45-5.06-3.31-7.25-5.68c-1.09-1.19-2.09-2.5-2.94-3.96c-0.85-1.47-1.49-3.03-2.02-4.64     c-1.06-3.23-1.57-6.5-1.83-9.64c-0.23-3.14-0.35-6.11-0.51-8.97c-0.27-5.72-0.61-10.83-0.62-15.21c0.02-2.18,0.12-4.16,0.41-5.9     c0.29-1.72,0.65-3.16,0.94-4.34C189.58,164.2,189.87,162.9,190,162.92z"></path>
		</g>
	</g>
</g>
<g>
	<g>
		<g>
			<path class="st1" d="M219.24,207.27c0.14,0.19-0.45,0.97-1.74,1.85c-1.28,0.88-3.29,1.8-5.65,2.2c-2.37,0.39-4.57,0.16-6.06-0.26     c-1.5-0.42-2.32-0.97-2.24-1.2c0.16-0.51,3.72,0.39,8-0.36C215.85,208.83,218.92,206.83,219.24,207.27z"></path>
		</g>
	</g>
</g>
<g>
	<g>
		<g>
			<path class="st1" d="M200.16,231.25c-0.51-0.07-0.63-2.26-0.82-4.9c-0.18-2.64-0.37-4.83,0.13-4.97     c0.48-0.14,1.51,1.98,1.71,4.84C201.38,229.07,200.65,231.32,200.16,231.25z"></path>
		</g>
	</g>
</g>
<g>
	<g>
		<g>
			<path class="st1" d="M237.9,234.49c-0.23,0.04-0.89-2.01-1.45-5.45c-0.56-3.43-0.95-8.25-0.68-13.57     c0.28-5.32,1.17-10.07,2.1-13.42c0.92-3.36,1.79-5.33,2.01-5.27c0.54,0.15-1.77,8.37-2.27,18.79     C237.02,225.98,238.45,234.4,237.9,234.49z"></path>
		</g>
	</g>
</g>
<g>
	<g>
		<g>
			<path class="st1" d="M203.77,181.68c-0.51,0.69-1.49,0.88-2.54,1.04c-1.06,0.14-2.21,0.24-3.37,0.38     c-1.16,0.14-2.3,0.32-3.36,0.43c-1.05,0.09-2.06,0.13-2.71-0.41c-0.64-0.52-0.75-1.7,0.12-3.06c0.83-1.34,2.73-2.74,5.23-3.04     c2.5-0.3,4.67,0.62,5.8,1.72C204.09,179.85,204.27,181.02,203.77,181.68z"></path>
		</g>
	</g>
</g>
<g>
	<g>
		<g>
			<path class="st1" d="M228.08,181.88c-0.68,0.52-1.83,0.22-3.19-0.12c-1.36-0.36-2.99-0.75-4.68-0.82     c-1.68-0.06-3.32,0.2-4.7,0.47c-1.37,0.24-2.53,0.47-3.18-0.09c-0.62-0.52-0.55-1.94,0.79-3.52c1.29-1.55,4-3.1,7.33-2.98     c3.32,0.13,5.9,1.87,7.07,3.5C228.75,179.98,228.74,181.4,228.08,181.88z"></path>
		</g>
	</g>
</g>
<g>
	<g>
		<g>
			<path class="st1" d="M237.64,194.63c-0.26,0.01-0.52-1.64-0.82-4.27c-0.31-2.63-0.66-6.26-1.7-10.07     c-1.04-3.8-2.75-6.96-4.34-8.98c-1.57-2.04-2.88-3.04-2.72-3.28c0.11-0.19,1.74,0.45,3.7,2.43c1.97,1.94,4.03,5.29,5.13,9.35     c1.1,4.05,1.24,7.81,1.22,10.49C238.09,192.97,237.89,194.62,237.64,194.63z"></path>
		</g>
	</g>
</g>
<g>
	<g>
		<g>
			<path class="st1" d="M239.7,196.54c0.04-0.16,0.62,0.06,1.47-0.16c0.85-0.19,1.75-1.18,2.33-2.79c0.57-1.62,1.23-3.68,1.64-5.9     c0.19-1.12,0.32-2.3,0.2-3.45c-0.1-1.15-0.55-2.18-1.37-2.8c-0.76-0.53-2.05-0.6-2.98-0.26c-0.47,0.17-0.86,0.44-1.07,0.76     c-0.22,0.33-0.28,0.65-0.24,1.17c0.11,1.18,0.21,2.33,0.21,3.43c0,1.12-0.13,2.1-0.21,2.99c-0.1,0.87-0.18,1.68-0.26,2.41     c-0.11,0.72-0.11,1.29-0.33,1.89c-0.11,0.29-0.32,0.55-0.58,0.66c-0.24,0.11-0.47,0.1-0.63,0.04c-0.35-0.13-0.35-0.38-0.3-0.39     c0.06-0.03,0.17,0.06,0.36,0.03c0.09-0.02,0.21-0.06,0.3-0.15c0.08-0.08,0.14-0.21,0.17-0.4c0.05-0.37-0.02-1.04-0.02-1.74     c0-0.73-0.01-1.54-0.01-2.42c-0.01-0.91,0.05-1.88-0.02-2.87c-0.06-1.01-0.21-2.1-0.37-3.28c-0.1-0.65-0.03-1.61,0.46-2.32     c0.47-0.73,1.18-1.2,1.91-1.48c0.74-0.28,1.52-0.39,2.31-0.34c0.79,0.06,1.62,0.26,2.37,0.79c1.41,1.04,2,2.73,2.09,4.12     c0.11,1.43-0.08,2.74-0.34,3.95c-0.54,2.42-1.33,4.4-2.11,6.1c-0.42,0.85-0.92,1.59-1.53,2.13c-0.59,0.55-1.32,0.82-1.89,0.84     c-0.58,0.03-0.99-0.13-1.24-0.25C239.79,196.7,239.68,196.6,239.7,196.54z"></path>
		</g>
	</g>
</g>
<g>
	<g>
		<g>
			<path class="st1" d="M216.9,250.2c-0.06,0.21-1.62,0.03-3.91-0.99c-1.15-0.49-2.44-1.26-3.79-2.22c-1.33-1-2.69-2.22-3.95-3.67     c-2.5-2.92-4-6.13-4.68-8.52c-0.68-2.41-0.67-3.97-0.45-4c0.28-0.05,0.72,1.39,1.67,3.56c0.95,2.17,2.52,5.05,4.85,7.77     c1.17,1.35,2.41,2.53,3.59,3.54c1.21,0.97,2.34,1.8,3.36,2.41C215.62,249.31,216.99,249.93,216.9,250.2z"></path>
		</g>
	</g>
</g>
<g>
	<g>
		<g>
			<path class="st1" d="M237.91,233.92c0.2,0.12-0.38,1.6-1.81,3.73c-1.43,2.12-3.79,4.82-6.92,7.19c-1.57,1.18-3.17,2.15-4.68,2.94     c-1.52,0.76-2.93,1.35-4.15,1.73c-2.44,0.78-4.03,0.91-4.09,0.68c-0.16-0.54,5.85-2.24,11.81-6.82     C234.08,238.88,237.44,233.61,237.91,233.92z"></path>
		</g>
	</g>
</g>
<g>
	<g>
		<g>
			<path class="st1" d="M216.47,272.55c0.2,0.12-0.62,2.06-2.46,4.92c-1.83,2.85-4.78,6.57-8.62,10.07     c-3.85,3.5-7.82,6.08-10.84,7.63c-3.02,1.56-5.03,2.19-5.13,1.98c-0.26-0.51,7.27-4.12,14.73-10.98     C211.69,279.4,215.99,272.25,216.47,272.55z"></path>
		</g>
	</g>
</g>
<g>
	<g>
		<g>
			<path class="st1" d="M214.06,291.6c0.21,0.44-4.9,3.33-11.72,5.66c-6.82,2.36-12.62,3.23-12.72,2.75     c-0.12-0.51,5.42-2.17,12.13-4.49C208.45,293.23,213.83,291.13,214.06,291.6z"></path>
		</g>
	</g>
</g>
<g>
	<g>
		<g>
			<path class="st1" d="M189.14,325.74c-0.13,0.01-0.28-1.3-0.44-3.66c-0.16-2.37-0.34-5.79-0.52-10.03     c-0.59-8.47-0.23-20.24,0.76-33.14c1.05-12.89,2.05-24.56,3.51-32.96c0.72-4.19,1.49-7.55,2.13-9.84c0.63-2.29,1.1-3.52,1.21-3.5     c0.28,0.07-0.97,5.16-2.06,13.53c-1.12,8.36-1.91,20.03-2.96,32.9c-0.99,12.87-1.56,24.52-1.3,32.98     c0.01,4.23-0.01,7.65-0.06,10.02C189.36,324.42,189.27,325.74,189.14,325.74z"></path>
		</g>
	</g>
</g>
<g>
	<g>
		<g>
			<path class="st1" d="M232.94,318.26c-0.25-0.01-0.3-4.78-0.15-12.49c0.15-7.71,0.52-18.36,1.22-30.11     c0.7-11.75,1.66-22.37,2.56-30.03c0.45-3.83,0.87-6.93,1.22-9.06c0.35-2.13,0.6-3.3,0.72-3.29c0.26,0.03-0.08,4.79-0.64,12.47     c-0.57,7.68-1.32,18.29-2.02,30.02c-0.68,11.71-1.3,22.3-1.75,30.05C233.6,313.51,233.2,318.27,232.94,318.26z"></path>
		</g>
	</g>
</g>
<g>
	<g>
		<g>
			<path class="st1" d="M181.63,251.82c-0.43-0.24,1.9-5.14,5.86-10.5c3.94-5.37,7.94-9.05,8.29-8.71c0.38,0.35-2.94,4.52-6.81,9.8     C185.09,247.68,182.09,252.09,181.63,251.82z"></path>
		</g>
	</g>
</g>
<g>
	<g>
		<g>
			<path class="st1" d="M186.93,254.77c-0.04,0.24-0.44,0.42-1.06,0.36c-0.62-0.05-1.42-0.39-2.12-0.94     c-1.37-1.12-1.93-2.37-1.6-2.72c0.36-0.38,1.58,0.34,2.73,1.28c0.59,0.46,1.08,0.86,1.45,1.18     C186.71,254.24,186.98,254.51,186.93,254.77z"></path>
		</g>
	</g>
</g>
<g>
	<g>
		<g>
			<path class="st1" d="M177.17,271.89c-0.41-0.34,2.1-3.89,4.62-8.55c2.55-4.64,4.19-8.67,4.69-8.51c0.47,0.13-0.42,4.55-3.08,9.39     C180.77,269.07,177.53,272.21,177.17,271.89z"></path>
		</g>
	</g>
</g>
<g>
	<g>
		<g>
			<path class="st1" d="M182.61,318.81c-0.23,0.06-1.13-2.46-2.12-6.66c-1-4.19-2.01-10.07-2.69-16.61     c-0.68-6.53-0.98-12.46-1.1-16.75c-0.12-4.29-0.06-6.95,0.19-6.97c0.25-0.02,0.66,2.62,1.11,6.88c0.43,4.37,1,10.2,1.63,16.65     c0.68,6.49,1.48,12.33,2.14,16.55C182.43,316.13,182.88,318.74,182.61,318.81z"></path>
		</g>
	</g>
</g>
<g>
	<g>
		<g>
			<path class="st1" d="M239.65,257.09c-0.37-0.35,1.16-2.53,3.4-4.85c2.24-2.33,4.36-3.93,4.73-3.58c0.37,0.35-1.16,2.53-3.4,4.85     S240.02,257.44,239.65,257.09z"></path>
		</g>
	</g>
</g>
<g>
	<g>
		<g>
			
				<ellipse transform="matrix(0.8206 -0.5714 0.5714 0.8206 -107.1028 187.9748)" class="st1" cx="245.9" cy="264.6" rx="0.92" ry="9.66"></ellipse>
		</g>
	</g>
</g>
<g>
	<g>
		<g>
			<path class="st1" d="M238.12,317.7c-0.24-0.06,0.18-2.67,1.17-6.81c0.98-4.14,2.53-9.81,4.39-16.02     c1.86-6.21,3.63-11.8,4.95-15.83c1.32-4.03,2.22-6.51,2.47-6.44c0.24,0.06-0.21,2.67-1.22,6.8c-1,4.14-2.58,9.8-4.44,16     c-1.86,6.21-3.61,11.8-4.9,15.84C239.24,315.27,238.37,317.76,238.12,317.7z"></path>
		</g>
	</g>
</g>
<g>
	<g>
		<g>
			<path class="st1" d="M195.79,232.69c0.03-0.52,0.98-0.88,2-1.35c1.03-0.44,1.95-0.88,2.35-0.56c0.18,0.17,0.17,0.54-0.1,0.99     c-0.26,0.44-0.8,0.94-1.51,1.25c-0.71,0.31-1.44,0.37-1.94,0.26C196.07,233.18,195.79,232.93,195.79,232.69z"></path>
		</g>
	</g>
</g>
<g>
	<g>
		<g>
			<path class="st1" d="M154.45,278.47c-0.12-0.01-0.2-1-0.19-2.78c0.01-1.79,0.1-4.37,0.48-7.56c0.38-3.18,1.09-7.01,2.69-11.01     c1.58-3.99,4.11-8.16,7.74-11.6c3.61-3.44,7.69-5.93,11.56-7.73c3.89-1.77,7.56-2.92,10.68-3.68c6.24-1.5,10.19-1.78,10.23-1.57     c0.06,0.29-3.83,1.03-9.88,2.82c-3.02,0.9-6.56,2.16-10.29,3.96c-3.7,1.83-7.58,4.27-11.02,7.53c-3.43,3.25-5.85,7.14-7.45,10.92     c-1.61,3.79-2.43,7.45-2.97,10.55c-0.54,3.11-0.82,5.66-1.05,7.42C154.74,277.5,154.58,278.48,154.45,278.47z"></path>
		</g>
	</g>
</g>
<g>
	<g>
		<g>
			<path class="st1" d="M287.95,339.85c-0.15-0.01-0.12-1.98-0.16-5.53c-0.05-3.56-0.26-8.7-0.51-15.07     c-0.12-3.19-0.22-6.68-0.2-10.45c0.05-3.75,0.11-7.75,0.17-11.97c0.07-4.21,0.15-8.63,0.23-13.21c0.07-4.58,0.26-9.34,0.11-14.14     c-0.15-4.8-0.7-9.47-2.17-13.69c-0.73-2.09-1.68-4.11-2.83-5.84c-1.16-1.72-2.7-3.11-4.41-4.17c-3.43-2.14-7.31-3.14-10.92-3.94     c-3.64-0.79-7.07-1.38-10.21-1.94c-3.14-0.57-5.99-1.14-8.45-1.81c-2.46-0.68-4.54-1.41-6.18-2.16     c-1.64-0.74-2.86-1.44-3.65-1.95c-0.78-0.53-1.18-0.83-1.14-0.89c0.09-0.15,1.76,0.93,5.06,2.18c1.65,0.63,3.72,1.26,6.16,1.83     c2.45,0.57,5.27,1.05,8.41,1.53c3.14,0.47,6.61,0.99,10.31,1.73c3.68,0.76,7.73,1.71,11.51,4c1.88,1.14,3.63,2.68,4.95,4.61     c1.3,1.93,2.29,4.02,3.08,6.24c1.58,4.46,2.16,9.33,2.31,14.22c0.15,4.91-0.05,9.65-0.15,14.23c-0.12,4.58-0.23,9-0.34,13.22     c-0.12,4.21-0.24,8.2-0.34,11.95c-0.09,3.73-0.06,7.21-0.03,10.39c0.08,6.37,0.09,11.54-0.08,15.11     c-0.07,1.78-0.21,3.17-0.31,4.1C288.1,339.36,288.02,339.85,287.95,339.85z"></path>
		</g>
	</g>
</g>
<g>
	<g>
		<g>
			
				<ellipse transform="matrix(0.8258 -0.5639 0.5639 0.8258 -94.0447 179.6955)" class="st1" cx="243.89" cy="242.1" rx="0.92" ry="9.17"></ellipse>
		</g>
	</g>
</g>
<g>
	<g>
		<g>
			<path class="st1" d="M256.71,314.58c0.08,0.5-15.59,3.35-35,6.37s-35.2,5.06-35.28,4.55c-0.08-0.5,15.59-3.35,35-6.37     S256.63,314.08,256.71,314.58z"></path>
		</g>
	</g>
</g>
<g>
	<g>
		<g>
			
				<ellipse transform="matrix(0.9976 -0.069 0.069 0.9976 -20.2221 18.0188)" class="st1" cx="250.87" cy="301.9" rx="0.92" ry="13.92"></ellipse>
		</g>
	</g>
</g>
<g>
	<g>
		<g>
			<path class="st1" d="M288.59,337.47c0.08,0.02-0.17,1.48-1.69,3.6c-1.49,2.1-4.45,4.7-8.87,6.22c-2.19,0.77-4.68,1.28-7.36,1.59     c-2.68,0.31-5.53,0.43-8.51,0.55c-5.98,0.26-12.55,0.41-19.46,0.41c-13.81,0-26.3-0.67-35.32-1.44     c-4.51-0.38-8.15-0.77-10.66-1.09c-2.51-0.33-3.89-0.58-3.88-0.7s1.41-0.12,3.94-0.01c2.58,0.12,6.21,0.3,10.68,0.51     c9.01,0.43,21.47,0.89,35.23,0.9c6.88,0,13.44-0.1,19.4-0.26c2.98-0.08,5.81-0.14,8.42-0.38c2.61-0.23,5-0.65,7.1-1.3     c4.22-1.28,7.13-3.57,8.72-5.43C287.96,338.74,288.44,337.4,288.59,337.47z"></path>
		</g>
	</g>
</g>
<g>
	<g>
		<g>
			<path class="st1" d="M75.23,354.3c-0.23,0.1-2.23-3.88-5.16-10.44c-2.93-6.57-6.78-15.74-10.55-26.05     c-3.77-10.32-6.68-19.84-8.5-26.81c-1.83-6.97-2.64-11.35-2.41-11.41c0.26-0.07,1.52,4.2,3.66,11.05     c2.13,6.85,5.23,16.26,8.98,26.54c3.76,10.28,7.4,19.5,10.03,26.18C73.89,350.03,75.47,354.19,75.23,354.3z"></path>
		</g>
	</g>
</g>
<g>
	<g>
		<g>
			<path class="st1" d="M167.16,277.91c0,0.13-1.67,0.29-4.71,0.47c-3.04,0.19-7.43,0.38-12.86,0.57     c-10.87,0.38-25.88,0.7-42.47,0.93c-16.58,0.22-31.6,0.36-42.46,0.43c-5.43,0.03-9.83,0.04-12.87,0.01     c-3.04-0.03-4.72-0.1-4.73-0.23c0-0.13,1.67-0.29,4.71-0.48c3.04-0.19,7.43-0.4,12.86-0.6c10.87-0.4,25.88-0.75,42.47-0.97     c16.58-0.22,31.6-0.34,42.47-0.39c5.43-0.02,9.83-0.02,12.87,0.01C165.48,277.7,167.16,277.78,167.16,277.91z"></path>
		</g>
	</g>
</g>
<g>
	<g>
		<g>
			<path class="st1" d="M194.2,352.8c-0.22,0.09-2.07-3.99-4.5-10.79c-1.22-3.4-2.58-7.47-4.06-11.99     c-0.74-2.26-1.52-4.63-2.33-7.09c-0.84-2.46-1.62-5-2.62-7.54c-3.89-10.3-7.04-19.73-9.68-26.41c-2.58-6.7-4.47-10.73-4.23-10.86     c0.11-0.06,0.72,0.88,1.7,2.66c0.97,1.77,2.27,4.4,3.73,7.7c2.97,6.6,6.32,15.99,10.2,26.26c1.01,2.57,1.8,5.17,2.61,7.63     c0.77,2.47,1.52,4.86,2.24,7.14c1.38,4.54,2.63,8.63,3.68,12.1C193.04,348.48,194.45,352.7,194.2,352.8z"></path>
		</g>
	</g>
</g>
<g>
	<g>
		<path class="st3" d="M200.81,353.17"></path>
	</g>
</g>
<g>
	<g>
		<g>
			<path class="st1" d="M195.8,359.03c-0.06,0.23-0.61,0.35-1.37,0c-0.74-0.33-1.66-1.23-1.91-2.56c-0.24-1.34,0.29-2.5,0.86-3.08     c0.58-0.6,1.13-0.68,1.27-0.49c0.16,0.2-0.02,0.62-0.17,1.18c-0.16,0.56-0.29,1.31-0.15,2.05c0.14,0.74,0.53,1.4,0.88,1.86     C195.56,358.46,195.87,358.78,195.8,359.03z"></path>
		</g>
	</g>
</g>
<g>
	<g>
		<g>
			<path class="st1" d="M76.41,358.15c0.08,0.22-0.27,0.64-1.08,0.64c-0.76,0.01-1.91-0.55-2.35-1.76     c-0.42-1.19-0.01-2.29,0.49-2.83c0.52-0.57,1.05-0.6,1.17-0.39c0.15,0.21,0.02,0.57-0.04,1.02c-0.07,0.45-0.08,1.06,0.1,1.56     c0.17,0.49,0.56,0.88,0.91,1.13C75.97,357.78,76.33,357.9,76.41,358.15z"></path>
		</g>
	</g>
</g>
<g>
	<g>
		<g>
			<path class="st1" d="M196.28,358.93c0,0.51-27.06,0.76-60.44,0.56c-33.37-0.2-60.43-0.77-60.42-1.28     c0-0.51,27.06-0.76,60.44-0.56C169.23,357.85,196.28,358.42,196.28,358.93z"></path>
		</g>
	</g>
</g>
<g>
	<g>
		<g>
			<path class="st1" d="M194.65,352.9c0,0.51-26.94,1.13-60.17,1.4c-33.24,0.26-60.18,0.07-60.19-0.44c0-0.51,26.94-1.13,60.17-1.4     S194.65,352.39,194.65,352.9z"></path>
		</g>
	</g>
</g>
<g>
	<g>
		<g>
			<path class="st1" d="M244.34,352.55c0,0.51-11.32,0.99-25.28,1.08c-13.96,0.09-25.29-0.25-25.3-0.76     c-0.01-0.51,11.31-0.99,25.28-1.08S244.34,352.04,244.34,352.55z"></path>
		</g>
	</g>
</g>
<g>
	<g>
		<g>
			
				<ellipse transform="matrix(1 -8.355571e-03 8.355571e-03 1 -2.9907 1.8467)" class="st1" cx="219.51" cy="358.84" rx="24.9" ry="0.92"></ellipse>
		</g>
	</g>
</g>
<g>
	<g>
		<g>
			<path class="st1" d="M244.37,359.1c-0.49-0.16-0.46-1.61-0.59-3.29c-0.1-1.68-0.34-3.11,0.13-3.34c0.44-0.23,1.56,1.14,1.7,3.21     C245.76,357.76,244.83,359.27,244.37,359.1z"></path>
		</g>
	</g>
</g>
<g>
	<g>
		<g>
			<path class="st1" d="M137.25,92.24c-0.12-0.08,0.53-1.13,1.41-3.12c0.83-1.97,1.95-5.07,1.38-8.83c-0.3-1.86-1.04-3.78-2.54-5.42     c-0.35-0.43-0.78-0.78-1.22-1.38c-0.4-0.56-0.68-1.14-0.98-1.63c-0.58-0.95-1.4-1.88-2.32-2.7c-1.85-1.67-4.19-2.99-6.74-4.13     c-2.55-1.14-5.27-2.16-8.14-2.89c-5.72-1.51-11.46-1.75-16.46-0.79c-5.01,0.93-9.19,3.12-12.25,5.46c-3.08,2.35-5,4.9-6.18,6.72     c-1.15,1.85-1.62,2.99-1.77,2.93c-0.09-0.03,0.16-1.26,1.15-3.28c1.02-1.99,2.86-4.78,5.98-7.38c3.1-2.58,7.44-5.02,12.73-6.11     c5.26-1.1,11.3-0.9,17.25,0.68c2.98,0.76,5.8,1.83,8.43,3.03c2.63,1.2,5.12,2.65,7.13,4.52c1.01,0.95,1.88,1.96,2.57,3.14     c0.33,0.58,0.57,1.11,0.86,1.53c0.25,0.39,0.72,0.83,1.1,1.3c0.77,0.93,1.44,1.98,1.86,3.05c0.43,1.07,0.68,2.14,0.8,3.18     c0.24,2.07-0.03,3.95-0.46,5.51c-0.43,1.56-1.03,2.83-1.57,3.81C138.19,91.4,137.33,92.3,137.25,92.24z"></path>
		</g>
	</g>
</g>
<g>
	<g>
		<g>
			<path class="st1" d="M85.73,102.6c-0.51,0.03-1.26-6.81-1.68-15.27c-0.12-2.44-0.2-4.75-0.24-6.8c-0.01-1.01-0.02-1.97-0.03-2.87     c0-0.43,0-0.85,0.01-1.25c0-0.36-0.04-0.53-0.12-0.62c-0.1-0.16-0.51-0.21-0.79-0.13c-0.28,0.06-0.53,0.25-0.72,0.41     c-0.38,0.36-0.6,0.61-0.7,0.55c-0.08-0.05-0.07-0.37,0.22-0.93c0.15-0.27,0.4-0.62,0.87-0.86c0.44-0.2,1.1-0.41,1.84,0.08     c0.49,0.36,0.64,0.99,0.68,1.41c0.04,0.41,0.09,0.83,0.13,1.26c0.08,0.89,0.16,1.85,0.25,2.86c0.16,2.05,0.31,4.35,0.43,6.79     C86.31,95.7,86.24,102.58,85.73,102.6z"></path>
		</g>
	</g>
</g>
<g>
	<g>
		<g>
			<path class="st1" d="M95.62,89.29c-0.16,0.18-0.69,0.05-1.34-0.48c-0.64-0.52-1.36-1.48-1.74-2.7c-0.39-1.22-0.36-2.41-0.13-3.21     c0.22-0.81,0.58-1.22,0.82-1.16c0.5,0.14,0.42,1.89,1.07,3.82C94.87,87.5,95.95,88.89,95.62,89.29z"></path>
		</g>
	</g>
</g>
<g>
	<g>
		<g>
			<path class="st1" d="M88.3,104.21c-0.25-0.03-0.35-1.02-0.32-2.58c0.02-0.78,0.07-1.71,0.16-2.74c0.09-1.02,0.19-2.19,0.55-3.44     c0.73-2.53,2.43-4.34,3.82-5.22c1.41-0.91,2.47-1.02,2.55-0.81c0.11,0.25-0.7,0.78-1.74,1.82c-1.03,1.03-2.27,2.65-2.87,4.72     c-0.3,1.04-0.45,2.13-0.63,3.15c-0.18,1.01-0.37,1.93-0.55,2.69C88.91,103.31,88.55,104.24,88.3,104.21z"></path>
		</g>
	</g>
</g>
<g>
	<g>
		<g>
			<path class="st1" d="M92.05,82.64c-0.09-0.04,0.96-1.56,3.83-2.84c2.84-1.22,7.06-2.59,12.48-3.55c5.4-0.94,12-1.39,19.24-0.56     c0.89,0.11,1.79,0.23,2.69,0.34c0.88,0.09,1.85,0.11,2.9,0.37c0.5,0.12,1.12,0.38,1.55,0.69c0.45,0.28,0.88,0.64,1.27,1.04     c0.79,0.82,1.29,1.93,1.5,3c0.22,1.07,0.24,2.1,0.29,3.09c0.03,1,0.07,2,0.1,3.02c0.06,2.03,0.12,4.09,0.18,6.17     c0.1,2.09,0,4.13-0.02,6.15c-0.04,2.02-0.07,4.01-0.11,5.96c-0.04,1.96-0.08,3.88-0.12,5.76c-0.03,1.89-0.06,3.74-0.17,5.56     c-0.19,3.63-0.83,7.15-2.05,10.21c-1.21,3.06-2.86,5.68-4.69,7.79c-3.67,4.25-7.87,6.32-10.77,7.28     c-1.47,0.48-2.65,0.71-3.45,0.82c-0.8,0.11-1.23,0.1-1.24,0.04c-0.03-0.16,1.65-0.4,4.44-1.53c2.75-1.13,6.66-3.3,10.02-7.44     c1.68-2.05,3.17-4.58,4.26-7.5c1.09-2.92,1.64-6.21,1.78-9.76c0.09-1.77,0.09-3.61,0.11-5.48c0.02-1.88,0.05-3.8,0.07-5.76     c0.03-1.96,0.05-3.95,0.08-5.97c0.01-2.02,0.11-4.08,0.01-6.14c-0.06-2.06-0.11-4.1-0.17-6.11c-0.03-1.01-0.06-2.01-0.09-3     c-0.04-0.99-0.07-1.95-0.24-2.8c-0.16-0.85-0.5-1.57-1.03-2.15c-0.28-0.28-0.58-0.55-0.94-0.78c-0.35-0.25-0.62-0.35-1.03-0.47     c-0.78-0.21-1.68-0.25-2.63-0.35c-0.92-0.13-1.82-0.25-2.72-0.38c-7.05-0.9-13.51-0.6-18.84,0.16     c-5.33,0.78-9.59,1.94-12.41,2.93C93.32,81.49,92.15,82.76,92.05,82.64z"></path>
		</g>
	</g>
</g>
<g>
	<g>
		<g>
			<path class="st1" d="M91.25,117.5c0.09,0.06-0.03,0.53-0.74,0.95c-0.35,0.2-0.83,0.35-1.41,0.36c-0.59,0.01-1.24-0.16-1.87-0.48     c-0.63-0.32-1.23-0.78-1.79-1.31c-0.57-0.53-1.13-1.16-1.63-1.88c-1.01-1.44-1.81-3.25-2.14-5.27c-0.17-1-0.21-2.01-0.15-2.97     c0.07-0.95,0.22-1.89,0.58-2.78c0.35-0.86,0.91-1.72,1.8-2.19c0.88-0.48,1.9-0.38,2.57-0.06c0.69,0.31,1.18,0.78,1.51,1.22     c0.33,0.44,0.53,0.85,0.67,1.18c0.27,0.67,0.33,1.07,0.22,1.13c-0.11,0.06-0.4-0.23-0.83-0.76c-0.44-0.51-1.07-1.28-2.03-1.56     c-0.96-0.31-1.88,0.23-2.33,1.63c-0.23,0.65-0.33,1.45-0.36,2.28c-0.03,0.83,0.02,1.69,0.16,2.56c0.55,3.49,2.62,6.32,4.39,7.64     c0.89,0.64,1.77,0.7,2.36,0.58C90.84,117.67,91.15,117.42,91.25,117.5z"></path>
		</g>
	</g>
</g>
<g>
	<g>
		<g>
			<path class="st1" d="M89.42,118.21c0.06-0.02,0.36,0.69,0.89,2.08c0.43,1.41,1.08,3.53,1.34,6.36c0.28,2.81,0.28,6.33-0.59,10.29     c-0.47,1.97-1.08,4.05-2.04,6.15c-0.97,2.08-2.16,4.23-3.76,6.23c-0.82,0.98-1.65,2-2.65,2.91l-0.73,0.7     c-0.35,0.33-0.61,0.43-0.89,0.64c-0.56,0.37-1.13,0.74-1.71,1.12c-2.33,1.47-4.78,2.93-7.33,4.42c-5.09,2.97-10.61,6-15.88,9.9     c-2.63,1.95-5.2,4.11-7.56,6.57c-0.57,0.63-1.17,1.24-1.73,1.9c-0.54,0.67-1.09,1.33-1.63,2.01c-1,1.4-1.97,2.85-2.79,4.41     c-3.38,6.21-4.86,13.55-5.75,21.08c-0.23,1.89-0.43,3.77-0.63,5.65l-0.15,1.41l-0.07,0.7l-0.01,0.14l0,0.11l0,0.35     c0,0.94,0,1.87,0,2.8l0,0.35c0,0.09,0,0.22-0.03,0.33l-0.03,0.18l-0.11,0.66c-0.07,0.44-0.13,0.89-0.18,1.34     c-0.11,0.9-0.2,1.84-0.35,2.78l-0.13,0.7c-0.02,0.06-0.03,0.37-0.05,0.58l-0.1,1.36c-0.07,0.91-0.14,1.81-0.2,2.71     c-0.53,7.18-0.94,14.12-1.16,20.72c-0.22,6.61-0.24,12.89-0.06,18.76c0.04,1.47,0.09,2.9,0.18,4.31c0.1,1.42,0.19,2.81,0.28,4.17     c0.19,2.71,0.46,5.29,1.08,7.66c1.24,4.77,3.61,8.64,6.18,11.59c2.6,2.94,5.29,5.07,7.56,6.67c4.58,3.18,7.39,4.53,7.31,4.69     c-0.03,0.05-0.75-0.24-2.08-0.89c-1.33-0.66-3.26-1.68-5.63-3.21c-2.36-1.53-5.17-3.61-7.92-6.58c-1.36-1.5-2.69-3.22-3.85-5.22     c-1.17-1.99-2.11-4.25-2.82-6.72c-0.69-2.48-1.01-5.15-1.24-7.88c-0.11-1.36-0.22-2.75-0.34-4.17c-0.1-1.43-0.17-2.89-0.23-4.37     c-0.24-5.91-0.28-12.23-0.11-18.87c0.17-6.64,0.55-13.6,1.05-20.8c0.06-0.9,0.13-1.8,0.19-2.71l0.1-1.36     c0.03-0.25,0.01-0.4,0.08-0.78l0.11-0.65c0.14-0.87,0.23-1.77,0.33-2.7c0.05-0.47,0.11-0.94,0.19-1.41l0.12-0.71l0.03-0.16     c0,0,0,0.02,0-0.01l0-0.35c0-0.93,0-1.87,0-2.8l0-0.35l0-0.24l0.02-0.21l0.07-0.7l0.15-1.4c0.2-1.88,0.39-3.77,0.63-5.68     c0.9-7.6,2.42-15.2,5.99-21.71c0.86-1.63,1.89-3.16,2.95-4.63c0.57-0.7,1.14-1.39,1.71-2.08c0.58-0.68,1.21-1.31,1.8-1.96     c2.46-2.54,5.12-4.75,7.82-6.72c5.43-3.94,11.01-6.94,16.13-9.85c2.56-1.45,5.01-2.87,7.33-4.29c0.57-0.36,1.14-0.73,1.7-1.08     c0.26-0.18,0.62-0.36,0.74-0.51l0.7-0.66c0.96-0.84,1.77-1.81,2.57-2.73c1.56-1.89,2.74-3.93,3.72-5.91c0.96-2,1.6-4,2.1-5.89     c0.93-3.81,1.04-7.24,0.88-10C90.56,121.15,89.2,118.27,89.42,118.21z"></path>
		</g>
	</g>
</g>
<g>
	<g>
		<g>
			<path class="st1" d="M68.71,280c-0.26-0.01-0.41-4-0.51-10.45c-0.1-6.45-0.17-15.36-0.1-25.21c0.07-9.85,0.33-18.77,0.71-25.22     c0.37-6.45,0.81-10.43,1.06-10.42c0.26,0.01,0.28,4.01,0.24,10.46c-0.04,6.52-0.1,15.39-0.17,25.2     c-0.07,9.84-0.2,18.76-0.44,25.21C69.27,276.02,68.96,280,68.71,280z"></path>
		</g>
	</g>
</g>
<g>
	<g>
		<g>
			<path class="st1" d="M52.04,338.63c-0.51,0-0.92-8-1.25-17.85c-0.33-9.86-0.46-17.86,0.05-17.9c0.5-0.03,1.46,7.94,1.78,17.84     C52.96,330.6,52.54,338.63,52.04,338.63z"></path>
		</g>
	</g>
</g>
<g>
	<g>
		<g>
			<path class="st1" d="M188.34,234.77c-0.11,0.05-0.9-1.51-2.15-4.39c-1.25-2.88-2.96-7.1-4.84-12.4c-1.85-5.3-4-11.67-5.73-18.91     c-0.92-3.58-1.88-7.33-3.43-10.95c-0.78-1.81-1.71-3.58-2.86-5.22c-1.15-1.64-2.55-3.13-4.13-4.46     c-3.18-2.67-6.86-4.57-10.49-6.21c-3.65-1.64-7.27-3.01-10.73-4.43c-3.44-1.43-6.69-2.99-9.47-4.93     c-2.79-1.89-5.06-4.3-6.43-6.85c-1.42-2.53-2.11-5.08-2.5-7.31c-0.37-2.24-0.38-4.21-0.27-5.79c0.1-1.59,0.34-2.8,0.54-3.61     c0.22-0.81,0.36-1.22,0.42-1.2c0.17,0.03-0.25,1.74-0.25,4.84c0,1.55,0.11,3.44,0.56,5.58c0.46,2.13,1.21,4.53,2.61,6.85     c1.37,2.35,3.46,4.48,6.16,6.25c2.67,1.79,5.84,3.25,9.25,4.62c3.42,1.36,7.1,2.71,10.82,4.35c3.71,1.65,7.55,3.6,10.94,6.45     c1.69,1.42,3.21,3.04,4.45,4.82c1.23,1.77,2.21,3.66,3.02,5.56c1.6,3.81,2.54,7.65,3.42,11.25c1.63,7.22,3.63,13.55,5.32,18.9     c1.71,5.33,3.23,9.6,4.28,12.55C187.9,233.08,188.46,234.72,188.34,234.77z"></path>
		</g>
	</g>
</g>
<g>
	<g>
		<g>
			<path class="st1" d="M151.33,278.69c-0.24,0.02-0.83-4.08-1.26-10.75c-0.43-6.67-0.62-15.92-0.07-26.12     c0.27-5.1,0.69-9.94,1.18-14.34c0.26-2.19,0.48-4.3,0.85-6.25c0.36-1.94,0.75-3.74,1.11-5.36c0.74-3.25,1.33-5.87,1.7-7.69     c0.37-1.82,0.58-2.83,0.71-2.82c0.12,0.01,0.16,1.05,0,2.93c-0.15,1.87-0.56,4.56-1.13,7.84c-0.28,1.64-0.6,3.43-0.88,5.36     c-0.3,1.91-0.46,3.98-0.67,6.17c-0.4,4.38-0.76,9.2-1.03,14.26c-0.55,10.13-0.56,19.32-0.46,25.97     C151.46,274.55,151.6,278.67,151.33,278.69z"></path>
		</g>
	</g>
</g>
<g>
	<g>
		<g>
			<path class="st1" d="M70.05,239.57c-0.06,0.53-8.38-0.28-18.58,0.53c-10.21,0.74-18.31,2.8-18.45,2.28     c-0.16-0.45,7.88-3.35,18.31-4.11C61.76,237.45,70.15,239.1,70.05,239.57z"></path>
		</g>
	</g>
</g>
<g>
	<g>
		<g>
			
				<ellipse transform="matrix(0.8839 -0.4676 0.4676 0.8839 -97.4529 101.2754)" class="st1" cx="155.29" cy="246.96" rx="0.92" ry="9.03"></ellipse>
		</g>
	</g>
</g>
<g>
	<g>
		<g>
			<path class="st1" d="M184.79,226.3c0.21,0.56-7.69,3.26-16.04,8.94c-8.4,5.64-13.46,12.28-13.91,11.92     c-0.18-0.13,0.84-1.98,3.01-4.59c1.08-1.31,2.47-2.78,4.13-4.31c1.67-1.51,3.59-3.07,5.73-4.54c4.3-2.92,8.58-4.91,11.76-6.07     C182.66,226.5,184.71,226.08,184.79,226.3z"></path>
		</g>
	</g>
</g>
<g>
	<g>
		<g>
			<path class="st1" d="M129.49,157.04c0.12,0.04-0.02,0.91-0.46,2.43c-0.46,1.51-1.18,3.73-2.75,6.18     c-0.79,1.22-1.81,2.49-3.16,3.6c-1.36,1.09-3.02,2.04-4.91,2.58c-3.82,1.13-8.25,0.6-12.39-0.84c-4.17-1.45-7.78-3.57-10.85-5.76     c-3.07-2.2-5.56-4.56-7.42-6.72c-3.72-4.36-4.99-7.73-4.81-7.8c0.27-0.16,1.93,2.93,5.77,6.92c1.92,1.98,4.41,4.16,7.43,6.21     c3.02,2.04,6.55,4.04,10.48,5.41c3.92,1.36,7.95,1.86,11.33,0.94c1.69-0.44,3.17-1.22,4.42-2.15c1.25-0.94,2.23-2.05,3.03-3.14     c1.6-2.2,2.49-4.29,3.15-5.7C129,157.79,129.37,157,129.49,157.04z"></path>
		</g>
	</g>
</g>
<g>
	<g>
		<g>
			<path class="st1" d="M114.9,93.18c-0.33,0.79-1.4,1.15-2.7,1.44c-1.32,0.28-2.91,0.52-4.64,0.83c-1.73,0.33-3.3,0.68-4.63,0.89     c-1.32,0.2-2.44,0.25-3.04-0.37c-0.57-0.59-0.44-1.86,0.68-3.26c1.09-1.39,3.22-2.79,5.87-3.28c2.65-0.49,5.14,0.05,6.66,0.95     C114.64,91.29,115.22,92.42,114.9,93.18z"></path>
		</g>
	</g>
</g>
<g>
	<g>
		<g>
			<path class="st1" d="M135.03,98.42c-0.79,0.32-1.68,0.13-2.51-0.05c-0.84-0.2-1.61-0.42-2.31-0.69c-0.7-0.27-1.42-0.63-2.17-1.04     c-0.73-0.43-1.52-0.89-1.89-1.66c-0.36-0.74-0.09-1.79,1.06-2.6c1.12-0.8,3.15-1.21,5.21-0.42c2.05,0.79,3.29,2.47,3.58,3.81     C136.3,97.15,135.8,98.11,135.03,98.42z"></path>
		</g>
	</g>
</g>
<ellipse class="st1" cx="109.59" cy="105.08" rx="2.03" ry="2.48"></ellipse>
<ellipse class="st1" cx="128.19" cy="105.57" rx="2.03" ry="2.48"></ellipse>
<ellipse class="st1" cx="198.85" cy="188.37" rx="2.08" ry="2.72"></ellipse>
<ellipse class="st1" cx="219.47" cy="187.6" rx="2.08" ry="2.72"></ellipse>
<g>
	<g>
		<g>
			<path class="st1" d="M62.79,321.85c-0.05,0.5-2.81,0.6-6.09-0.11c-3.28-0.71-5.75-1.94-5.59-2.42c0.16-0.49,2.8-0.06,5.98,0.62     C60.26,320.63,62.84,321.34,62.79,321.85z"></path>
		</g>
	</g>
</g>
<g>
	<g>
		<g>
			<path class="st1" d="M299.64,342.74c0.01,0.51-3.73,1.01-8.36,1.11c-4.63,0.11-8.39-0.22-8.4-0.73s3.73-1.01,8.36-1.11     C295.86,341.91,299.63,342.23,299.64,342.74z"></path>
		</g>
	</g>
</g>
<g>
	<g>
		<g>
			<path class="st1" d="M68.9,338.24c0,0.51-13.94,0.8-31.14,0.65s-31.12-0.68-31.12-1.19c0-0.51,13.94-0.8,31.14-0.65     S68.9,337.74,68.9,338.24z"></path>
		</g>
	</g>
</g>
<g>
	<g>
		<g>
			<path class="st1" d="M243.68,352.28c-0.03,0.51-11.49,0.24-25.6-0.6c-14.11-0.84-25.52-1.93-25.49-2.44     c0.03-0.51,11.49-0.24,25.6,0.6C232.29,350.68,243.71,351.78,243.68,352.28z"></path>
		</g>
	</g>
</g>
<g>
	<g>
		<g>
			<path class="st1" d="M96.92,129.42c0.26-0.09,0.85,1.17,2.05,2.98c1.19,1.81,3.09,4.14,5.73,6.05c2.64,1.91,5.46,2.97,7.55,3.53     c2.1,0.57,3.47,0.73,3.47,1c0.01,0.23-1.41,0.54-3.72,0.28c-2.29-0.25-5.47-1.21-8.38-3.31c-2.91-2.1-4.83-4.81-5.79-6.9     C96.85,130.93,96.7,129.49,96.92,129.42z"></path>
		</g>
	</g>
</g>
<g>
	<g>
		<g>
			<path class="st1" d="M126.16,125.37c0.13,0.2-0.48,0.89-1.78,1.57c-1.28,0.68-3.27,1.25-5.51,1.23     c-2.24-0.02-4.22-0.62-5.49-1.32c-1.29-0.7-1.88-1.4-1.75-1.59c0.28-0.44,3.26,1.1,7.26,1.08     C122.87,126.42,125.88,124.92,126.16,125.37z"></path>
		</g>
	</g>
</g>
<g>
	<g>
		<g>
			<path class="st1" d="M212,186.44c-0.41,0.3-1.53-0.53-2.81-0.51c-1.28-0.03-2.4,0.79-2.81,0.49c-0.19-0.15-0.16-0.62,0.29-1.18     c0.43-0.54,1.35-1.15,2.53-1.15c1.18,0.01,2.09,0.62,2.52,1.16C212.16,185.82,212.19,186.29,212,186.44z"></path>
		</g>
	</g>
</g>
<g>
	<g>
		<g>
			<path class="st1" d="M229.44,192.02c0.11,0.02,0.16,0.49-0.27,1.16c-0.41,0.66-1.37,1.39-2.65,1.77     c-1.29,0.38-2.72,0.6-4.41,0.76c-1.67,0.14-3.6,0.15-5.6-0.48c-2-0.64-3.68-2.07-4.48-3.78c-0.4-0.88-0.53-1.73-0.61-2.49     c-0.07-0.77-0.08-1.44-0.07-2.1c0.09-2.6,0.83-4.06,1.05-3.99c0.27,0.06,0.01,1.58,0.25,3.94c0.16,1.17,0.29,2.68,0.91,3.89     c0.67,1.21,1.94,2.27,3.53,2.78c1.62,0.51,3.35,0.58,4.93,0.54c1.57-0.06,3.07-0.16,4.19-0.33c1.14-0.18,1.94-0.58,2.42-0.98     C229.13,192.32,229.31,191.98,229.44,192.02z"></path>
		</g>
	</g>
</g>
<g>
	<g>
		<g>
			<path class="st1" d="M230.19,183.21c-0.16,0.5-4.13-0.41-9.08-0.62c-2.48-0.1-4.74-0.14-6.25,0.11c-1.53,0.23-2.4,0.74-2.58,0.53     c-0.17-0.16,0.52-1.16,2.24-1.79c1.71-0.64,4.09-0.8,6.68-0.69C226.44,180.99,230.37,182.76,230.19,183.21z"></path>
		</g>
	</g>
</g>
<g>
	<g>
		<g>
			<path class="st1" d="M228.34,193.52c-0.45-0.3,0.61-2.41,0.86-5.12c0.29-2.71-0.36-4.98,0.13-5.19c0.22-0.09,0.7,0.38,1.12,1.34     c0.42,0.95,0.74,2.41,0.58,4.03c-0.16,1.61-0.75,2.99-1.34,3.84C229.09,193.28,228.54,193.66,228.34,193.52z"></path>
		</g>
	</g>
</g>
<g>
	<g>
		<g>
			<path class="st1" d="M239.57,184.21c0.03,0.5-2.21,1.02-5,0.92c-2.78-0.1-4.98-0.78-4.92-1.28c0.06-0.51,2.29-0.66,4.98-0.56     C237.34,183.39,239.55,183.7,239.57,184.21z"></path>
		</g>
	</g>
</g>
<g>
	<g>
		<g>
			<path class="st1" d="M205.46,183.08c-0.08,0.52-3.5,0.38-7.65,0.67c-4.16,0.27-7.53,0.87-7.67,0.36     c-0.15-0.46,3.16-1.91,7.55-2.2C202.08,181.61,205.55,182.6,205.46,183.08z"></path>
		</g>
	</g>
</g>
<g>
	<g>
		<g>
			<path class="st1" d="M190.17,184.01c0.28,0.05,0,2.03,0.26,5.16c0.07,0.78,0.18,1.63,0.34,2.53c0.09,0.44,0.17,0.94,0.3,1.31     c0.14,0.37,0.25,0.5,0.58,0.68c0.72,0.38,1.69,0.43,2.85,0.42c1.19,0.01,2.29,0,3.48-0.12c1.18-0.12,2.3-0.32,3.41-0.58     c1.12-0.25,2.14-0.5,2.93-0.93c0.79-0.43,1.21-1,1.41-1.79c0.2-0.77,0.2-1.65,0.22-2.43c-0.02-3.09-0.84-4.96-0.57-5.07     c0.11-0.05,0.45,0.35,0.85,1.19c0.4,0.84,0.84,2.14,1.02,3.82c0.07,0.83,0.16,1.73-0.03,2.82c-0.1,0.54-0.29,1.12-0.66,1.65     c-0.37,0.54-0.86,0.95-1.39,1.28c-1.07,0.64-2.25,0.94-3.37,1.22c-1.13,0.29-2.38,0.53-3.64,0.66c-1.25,0.14-2.55,0.13-3.68,0.09     c-1.14-0.02-2.49-0.06-3.66-0.74c-0.3-0.17-0.61-0.41-0.84-0.73c-0.23-0.31-0.37-0.65-0.46-0.95c-0.16-0.6-0.2-1.08-0.26-1.57     c-0.1-0.97-0.14-1.88-0.13-2.71C189.21,185.9,189.95,183.96,190.17,184.01z"></path>
		</g>
	</g>
</g>
<g>
	<g>
		<g>
			<path class="st1" d="M119.53,121.22c-0.03-0.12,0.26-0.31,0.78-0.55c0.52-0.24,1.29-0.53,2.12-0.99     c0.82-0.45,1.68-1.14,2.14-2.13c0.23-0.49,0.32-1.01,0.23-1.53c-0.09-0.53-0.38-1.11-0.77-1.73c-0.39-0.62-0.85-1.31-1.19-2.04     c-0.34-0.72-0.6-1.45-0.76-2.15c-0.34-1.41-0.36-2.73-0.23-3.8c0.28-2.17,1.08-3.29,1.28-3.2c0.27,0.09-0.06,1.33,0.02,3.26     c0.04,0.96,0.19,2.1,0.56,3.3c0.18,0.6,0.43,1.2,0.74,1.8c0.3,0.6,0.7,1.17,1.14,1.87c0.43,0.69,0.86,1.5,0.99,2.43     c0.14,0.94-0.1,1.87-0.5,2.57c-0.8,1.43-2.09,2.18-3.11,2.54c-1.04,0.37-1.9,0.46-2.48,0.5     C119.89,121.39,119.56,121.34,119.53,121.22z"></path>
		</g>
	</g>
</g>
<g>
	<g>
		<g>
			<path class="st1" d="M211.26,203.85c0.02,0.12-0.3,0.31-0.91,0.52c-0.61,0.2-1.52,0.47-2.73,0.53c-1.18,0.06-2.83-0.17-4.2-1.32     c-0.67-0.56-1.29-1.39-1.51-2.42c-0.23-1.03,0.02-2.12,0.41-2.99c0.4-0.89,0.89-1.61,1.31-2.28c0.41-0.66,0.78-1.31,1.09-1.95     c0.63-1.28,1.06-2.5,1.38-3.55c0.61-2.1,0.78-3.49,1.06-3.48c0.23,0,0.53,1.43,0.21,3.76c-0.17,1.16-0.5,2.53-1.1,3.97     c-0.3,0.72-0.67,1.46-1.09,2.19c-0.42,0.72-0.86,1.4-1.17,2.09c-0.31,0.69-0.43,1.33-0.33,1.9c0.1,0.56,0.43,1.09,0.87,1.51     c0.9,0.86,2.07,1.19,3.11,1.29c1.04,0.11,1.95,0.05,2.58,0.07C210.87,203.67,211.23,203.72,211.26,203.85z"></path>
		</g>
	</g>
</g>
</svg>
