<svg id="Layer_1" data-name="Layer 1" xmlns="http://www.w3.org/2000/svg" xmlns:xlink="http://www.w3.org/1999/xlink" viewBox="0 0 461.57 479.54"><defs><style>.cls-1{fill:#fff;}.cls-2{fill:url(#linear-gradient);}.cls-3{fill:url(#linear-gradient-2);}.cls-4{fill:url(#linear-gradient-3);}</style><linearGradient id="linear-gradient" x1="438.48" y1="93.26" x2="388.94" y2="48.96" gradientUnits="userSpaceOnUse"><stop offset="0" stop-color="#1616e4"/><stop offset="1" stop-color="#439fd2"/></linearGradient><linearGradient id="linear-gradient-2" x1="443.62" y1="87.51" x2="394.08" y2="43.21" xlink:href="#linear-gradient"/><linearGradient id="linear-gradient-3" x1="440.78" y1="90.69" x2="391.24" y2="46.39" xlink:href="#linear-gradient"/></defs><g id="l6OS8UH7bttg1WIhT4jIPy5"><path id="p5bKOvpCm" d="M48.82,467.61c-11.43-2.56-28.41-8.57-35.93-12.77a28.93,28.93,0,0,1-5.72-4.38c-1.81-2-2.1-2.74-2.1-5.13,0-3.44,2.22-12.66,4.9-20.24l2-5.83-1.4-1.17c-2.5-2-3.15,1.46,9.63-52.79C30.56,321.44,38.32,279.55,42.17,247l1-8.92-1.57-1.28-1.52-1.29.58-12.25A207.7,207.7,0,0,1,45,188.56l1.4-6.13L45,176.89c-2-8.28-2.57-13.07-2.57-24.09,0-33.89,5.78-47,24.8-56.58,5.42-2.68,11.31-5.08,12.65-5.08.64,0,1.05-.4,1.05-1.16,0-1-.41-1.17-3.61-1.17-6.65,0-10-3.91-11.9-13.76a69.41,69.41,0,0,0-2.8-10.15c-1.64-4.44-1.81-5.6-1.81-11.38s.17-6.77,1.46-9.27c1.92-3.8,5.54-6.83,11.43-9.63,4.72-2.27,4.9-2.45,4.9-4.37,0-2.1.7-2.69,3.21-2.69.76,0,1.57-.23,1.75-.58a3,3,0,0,1,2-.58c1.69,0,3.21-1.64,8.17-8.75,3.09-4.49,5.77-5.84,11.43-5.84,3.56,0,5,.3,6.53,1.17,2.1,1.28,4.2,4.32,4.2,6.13,0,1.1.35,1.16,5.54,1,7.12-.29,10.39.76,13.59,4.26,2.92,3.15,3.62,5.48,3.62,12.59,0,8.93-1.92,12.6-7.7,14.94-2.16.87-2.22.93-2.22,3.91,0,8.86-2.5,22-5.19,27.76-2,4.26-5.71,7.82-9.51,9.1-2.8.93-2.91,1-1.86,1.81A32.3,32.3,0,0,0,116,96.69a23.81,23.81,0,0,1,8.46,8.22l1,1.87,18.84.23c10.38.12,19.07.41,19.31.7.58.53.64,30.39.06,31a16.5,16.5,0,0,1-4.5.94c-6.82.81-12.77,4.84-14.93,10-1.22,3-1.11,5,.59,7.82,2.15,3.67,4.55,4.9,10.84,5.48a30.46,30.46,0,0,1,5.66.88c.7.7.88,35.4.24,39.6a25.59,25.59,0,0,1-.88,4.2c-.12.12-6.24.29-13.59.35-12.54.18-13.36.24-12,1.11,2.39,1.46,3,2.57,3.39,5.89l.29,3.09-3.85,1.87-3.85,1.93.35,5c.23,2.74.41,7.76.46,11.09l.06,6.18-2.33.87c-1.28.47-3.5,1.17-4.9,1.52l-2.57.64.41,4.38c.18,2.45.64,12.77,1,23a708.08,708.08,0,0,1-8.57,131c-2,12.13-2.16,12.6-4.09,15a22,22,0,0,1-3.44,3.38c-1.75,1.17-7.46,2.69-10,2.69H95.66l-.58,6.88c-.35,3.73-.59,6.88-.53,6.94s3,.41,6.48.76,8.4.88,10.79,1.23c9.68,1.28,17.32,7.23,16.8,13.24-.18,2.1-.24,2.15-3.68,3-2.51.58-8.57.82-21.87.88l-18.38.05-5.6-1.92a31.89,31.89,0,0,1-7.17-3.09c-2-1.63-2-2.86.17-27.36.47-4.9.41-5-1.22-7-2-2.45-2-3-.47-15.75,1.81-15.69,4.26-46.31,5-62.7l.29-7.59L72.5,347.51c-5.89,25-12.89,50.75-18.25,67.08l-2.1,6.47-3.56,1.52a45.15,45.15,0,0,1-11,2.92c-.76.11-1.63,1.86-3.32,6.88-1.23,3.68-2.16,6.77-2.1,6.83S41.47,445,53.2,452.27a54.22,54.22,0,0,1,6.88,5.13c2.51,2.34,2.74,2.75,2.74,5.31,0,4.32-1.28,5.49-6.18,5.66A38.27,38.27,0,0,1,48.82,467.61Zm53.37-48.35A13.6,13.6,0,0,0,107,415.7c1.75-2.22,1.86-2.68,3.85-18,4.6-34.94,6.47-57.34,7.46-88.31.53-17.79.29-52.5-.41-59.38l-.29-3.09h-2.8a6.73,6.73,0,0,1-3.44-.7,17.45,17.45,0,0,1-1-4.73c-.29-3.2-.58-3.9-1.28-3.67-3.68,1.46-17.56,1.81-20.77.58-1-.35-1.87,2.16-.93,2.74.35.18.52,1.23.41,2.34-.18,1.81-.41,2-2.51,2.39-4.32.76-17.5.52-22.46-.47S50.28,242,48.94,240.88c-.41-.29-.82-.47-.94-.35s-.46,3.38-.87,7.23c-4,41.59-13.59,91-29.34,152-1.63,6.24-3.09,11.9-3.21,12.6-.23,1,.29,1.57,2.86,3,7.12,4,14,5.37,20.82,4.26,4.09-.64,8.52-2,9.51-2.86s10.68-36.92,15.93-58.45c6.29-26.13,14.34-65.39,19.65-96,.35-2,.94-3.68,1.29-3.68s1.28-1.1,2-2.45a33.38,33.38,0,0,1,3.67-4.9c2.1-2.27,2.63-2.56,4.9-2.56,2.45,0,2.57.06,2.57,1.81s-5,9.33-8.23,12.25c-1.51,1.28-1.8,2.15-2.5,7.29-.47,3.15-1.87,12-3.15,19.48-2.28,13.47-2.34,14.06-2.69,32.37-.35,20.48-1.63,45.09-3,59.21-1,9.86-3.68,31.27-4.09,32.72-.7,2.16,5.2,5.37,11.73,6.3C94.61,421.36,97.82,421.24,102.19,419.26Zm16.92-177.68a34.17,34.17,0,0,0,5.48-1.46l2.1-.81-.17-7.3-.18-7.29h-3.09a12.3,12.3,0,0,1-5.89-1.46,20.5,20.5,0,0,0-3-1.28c-.11.12,1.11,20.24,1.23,20.24S117.24,241.93,119.11,241.58Zm-37-6.77c0-3.5.23-9.45.41-13.35l.4-7.06-4.66-1.64a62.35,62.35,0,0,1-9.22-4.25c-5.31-3-13.53-10.56-16.56-15.11a12.83,12.83,0,0,0-2.28-3c-.41.41-3.21,21.24-4.2,31.09L45,232l2.63,1.4a82,82,0,0,0,15.69,5.9A45.33,45.33,0,0,0,76.7,241l5.37.06Zm23.51-2.27c1.92-.47,3.55-.93,3.61-1s0-3-.17-6.42l-.35-6.3-2.1-1.05a8.87,8.87,0,0,0-5.31-.82,43.54,43.54,0,0,1-8.28-.52l-5.14-.88v7.06a67.83,67.83,0,0,1-.35,8.34c-.29,1.11,0,1.29,2.8,1.87,1.69.35,3.74.76,4.55.88C97,234.06,101.67,233.53,105.64,232.54Zm5-20.94c0-.53.53-.88,1.46-.88,1.22,0,1.46-.29,1.46-1.75,0-1.69.11-1.75,2.68-1.75h2.68l-.93-1.46a6.64,6.64,0,0,1-.93-3.2c0-1.05-.18-1.75-.41-1.64-3.91,2-6.71,3-9.39,3.21-1.81.18-3.5.64-3.73,1a8.08,8.08,0,0,0-.47,3.09c0,2.22.17,2.51,1.63,2.86.88.18,2.39.59,3.33.82C110.53,212.59,110.65,212.59,110.65,211.6Zm-12.83-4a31.46,31.46,0,0,1,.52-6.12l.59-1.87H94.67c-7.47,0-15-2.74-19.83-7.17L72.15,190v-10c0-9.85,0-10-1.28-10.15-2.51-.35-5.13-8.69-5.13-16.21,0-5.6.35-6.42,2.68-6.42s2.22.12,2.86,6.13a75.2,75.2,0,0,0,1.34,7.46l.93,4,5-.24c6.18-.23,8.23-1.45,10.38-6.18,1.75-3.73,1.58-6.12-.64-9.51s-6.12-5.36-11.08-5.71L73,142.77V113.6l-1.52-2a13.91,13.91,0,0,1-2.86-7.35c0-1.75-.06-1.75-3,.12-8.28,5.19-13.71,13.76-15.87,25-2.39,12.13-2.74,31.33-.7,40.77a46.67,46.67,0,0,0,13.59,24.8,46.64,46.64,0,0,0,14.76,10.61c4.32,2.16,16.92,6.24,19.37,6.36C97.7,211.89,97.82,211.31,97.82,207.63Zm58.91-22.28v-17.5l-4.26-.06c-7.11-.12-10.84-2-13.41-6.88-1.05-2-1.28-3.33-1.28-7.93,0-5.08.17-5.84,1.69-8.64,3-5.42,8.75-8.81,15.63-9.33l4-.29V112.14L118.82,112l-40.25-.18v7.06c0,3.85-.18,9.86-.41,13.24l-.35,6.24H80.9c4.73,0,7.53,1.11,10.62,4.14,3.21,3.21,4,5.49,4,11.85,0,5.54-.76,8.34-3,11.14-2.45,3-4.49,3.79-10.15,4.2l-4.9.35v16.62l3.15,2.1a40.72,40.72,0,0,0,5.72,3.15,56.12,56.12,0,0,0,14.23,3c2.8,0,4.32.94,4.32,2.63,0,.82.12,1.46.23,1.46,1,0,5.25-1.93,7.47-3.44a12.28,12.28,0,0,1,6.53-2.22l3.85-.35v-3.91l11.26.12,11.2.17.17,2.16.18,2.1-3.85.41a83.47,83.47,0,0,1-10.5.17l-6.59-.23.52,1.4a7.52,7.52,0,0,1-.23,5.95l-.76,1.52,16.22-.06h16.21ZM82.3,106.84c.24-.24-1.75-9.86-2.1-10.1A14,14,0,0,0,76.88,98c-3,1.34-3.09,1.51-2.8,3.26a21.39,21.39,0,0,0,1.22,4.09l.94,2.27,2.91-.29A15.65,15.65,0,0,0,82.3,106.84Zm19.37-1.23a12.93,12.93,0,0,1-.35-2.33c0-.76-.47-1-1.81-1H97.7l.24-5.6c.17-5.31.29-5.66,1.8-7,1.29-1.11,2.34-1.4,4.67-1.4,4.43,0,6.94-.88,9.92-3.5s4.66-5.84,6.3-11.67c1.63-5.66,1.69-5.54-2.69-5.54-2.27,0-3.79.23-3.79.64,0,1.11-4.43,3.15-6.94,3.15-2.27,0-2.39-.06-2.39-1.81s0-1.8-1.46-.87c-.93.64-2.74.93-5.48.93-3.44,0-4.32-.23-5.72-1.4a13.29,13.29,0,0,1-2.8-3.79c-.82-1.87-1.52-2.51-3.15-3A24.52,24.52,0,0,1,81,58.77l-3.21-2.1-1.46,1.11c-2.45,1.81-3.67,4.43-3.26,6.71.58,3,3.5,6.24,5.54,6.24s5.07,1.75,6.47,3.91c1,1.46,1.11,2.68,1,11.25,0,5.31.18,10.68.53,12a40.51,40.51,0,0,1,1,5.72l.41,3.32h7C102,106.89,102,106.89,101.67,105.61Zm10.15,1c0-1-2.63-5.6-3.91-6.76l-1.52-1.4.35,2.33a28.14,28.14,0,0,1,.41,4.26c0,1.81.12,1.86,2.34,1.86C110.77,106.89,111.82,106.78,111.82,106.6Zm-3-43.45c-.12-.41-.59.05-1,.93-.7,1.57-.64,1.63.24.7C108.61,64.25,109,63.55,108.79,63.15Zm-8-.59,1.4-1.11-1.57-.05H99V51.48H96.71c-1.69,0-2.39-.23-2.51-1s-.52-.18-.93,1.28c-.76,2.57-.23,5.37,1.69,9.16C96.54,64,98.46,64.55,100.79,62.56ZM119.63,58a31.51,31.51,0,0,0,1.29-5.42l.35-2.74-2.51-.24c-3.27-.35-5.08.29-2,.7,2.27.29,2.33.35,2.5,2.74a16,16,0,0,1-1.4,7.41c-.29.76-.23,1,.24.76A8.81,8.81,0,0,0,119.63,58Zm-15.39-7.64c0-1-.18-1.11-1.87-.47l-1.93.65,1.75.4c1,.24,1.81.41,1.93.47A2.52,2.52,0,0,0,104.24,50.37Zm5.83-7.93c-1.28-1.52-1.63-.94-.93,1.51.58,2.28.64,2.34,1.1.82A2.29,2.29,0,0,0,110.07,42.44Zm-8.52.76c-.52-.82-2.33-.53-3.38.64s-.88,1,1.34.46C100.79,44,101.73,43.49,101.55,43.2Z"/><path id="p12gb86eIo" d="M99.16,186.4c-.41-.12-.76-1.11-.76-2.16v-1.92L105,182c8.4-.53,29.64-.53,35.88,0l4.78.35v1.86c0,1.23-.35,2-.93,2.28C143.61,186.87,100.21,186.87,99.16,186.4Z"/><path id="p8IZTr1BO" d="M107.56,178.87a5,5,0,0,1-.41-2.39c0-1.86.06-1.92,2.51-2,2.1-.06,2.22-.12,1-.53a25.67,25.67,0,0,0-4.55-.52l-3.09-.06.18-2.16.17-2.21,20.88-.18,20.83-.12v4.5l-5.37.4c-2.92.18-7.29.41-9.74.47s-3.44.18-2.22.29c2.16.24,2.22.29,2,2.39l-.17,2.16-10.85.18A98.61,98.61,0,0,1,107.56,178.87Z"/><path id="pFlxlekDm" d="M95.08,140.32c-1-.24-1.34-.64-1.34-2.16,0-1.81.17-2,2.21-2.33,1.17-.18,6.77-.35,12.37-.35s11.2.17,12.42.35c2,.35,2.16.52,2.16,2.27,0,1.46-.29,2-1.28,2.28C120.1,140.73,97.12,140.73,95.08,140.32Z"/><path id="pt5YKAB8j" d="M90.12,134.48l-2.8-.23v-4.61l3.09-.11c2.1-.06,2.45-.12,1-.3-5.54-.52-5.83-.64-5.83-2.74,0-2.51.64-2.68,9.22-2.68h6.53v-5.19c0-6.07-.29-5.89,7.7-5.89h5l.41,3a42.78,42.78,0,0,1,0,7.88l-.41,4.84-1.8.35c-1,.17-2.92.35-4.2.46-2.28.24-2.22.24.46.3l2.74.11v4.49l-3.9.35A120.31,120.31,0,0,1,90.12,134.48Zm19.07-15.92a2.51,2.51,0,0,0-1.8-.58c-.76,0-1.4.29-1.4.58s.81.58,1.8.58S109.43,118.91,109.19,118.56Z"/><path id="p1Ao5vcLsQ" d="M117.53,133.9c-1.45-.23-1.57-.52-2-4.08-.47-4.55.06-14.7.76-15.4.29-.29,8.87-.47,19.19-.41l18.61.18v9.44c0,5.2-.24,9.63-.47,9.92C153.12,134,120.39,134.37,117.53,133.9ZM149.15,124v-5.13H120.86v10.21h28.29Z"/><path id="pkOBVhDsF" d="M100.33,76.56c-1.64-.93-1.93-1.51-1.93-3.26V71.2l3.39.4a69,69,0,0,0,8.45.35l5.08-.11v2.27c0,3-1.4,3.62-8,3.62C103.24,77.73,101.79,77.5,100.33,76.56Z"/><path id="pawbFqJGx" d="M305.65,464.46c-1.81-1-1.92-1.4-1.92-4.26a9.07,9.07,0,0,1,.87-4.31c2.16-3.09,14.53-8.17,23.33-9.57,3.27-.52,5-1.11,5.9-2,1.16-1.17,1.22-1.46.58-5.54l-.64-4.26-4.38-1.28c-5.89-1.7-7-2.34-7-4.15,0-.81-.76-6-1.75-11.55-4.2-24.55-8.92-60.08-12.89-97.41-1.11-10.32-2.1-17.56-2.33-16.91-.58,1.45-5.66,63.75-7.23,88-1.23,20.06-2.16,30.91-2.69,31.09-.29.11-.52.7-.52,1.28,0,.82-.82,1.4-2.92,2.16l-2.92,1-.11,5.83c-.06,3.21-.12,8.69-.12,12.25l-.06,6.42-3.5.35a344.26,344.26,0,0,1-34.94,1.69c-12.83,0-13.71-.06-15.1-1.17-1.75-1.34-2.45-4.25-1.93-7.23.29-1.57.93-2.33,2.92-3.5,3.61-2.1,7.23-2.92,19.65-4.43l10.91-1.34.35-2.1a47.3,47.3,0,0,0,.35-5.72c0-3.15-.17-3.68-1.05-3.68a17.38,17.38,0,0,1-7.64-3c-1.22-1.17-1.22-1.28-1.22-30.74,0-36.22,1.45-77.58,3.5-101.61,1.28-14.82,3-32.14,3.79-38.79,1.05-8.58,1.05-9,.11-9-1.51,0-4.95-3.85-5.36-5.9l-.35-2-4.55-.58c-4.73-.64-9.92-2.8-10.39-4.32-.35-1.11-.52-1.4-3.61-5.95l-2.51-3.79-7.12-.35a50.46,50.46,0,0,1-8.86-1c-2.22-.82-2.22-.7-3.21-19.95l-.76-13.88h-4.49c-5.25,0-10.5-1.46-13.48-3.74a17.59,17.59,0,0,1-3.73-4.55c-1.63-2.91-1.69-3.44-1.69-10.09,0-6.47.12-7.23,1.63-10.32,1.93-3.91,4.67-6.48,9.16-8.58,2.86-1.34,4-1.51,9.51-1.51h6.24v-2c0-3.5,1.17-20.65,1.52-22.23.23-1.4.76-1.63,5.07-2.62,3.79-.88,7-1.11,15.87-1,6.12,0,12.19.29,13.59.64s2.45.41,2.45.17,1-1.22,2.33-2.15l2.34-1.64v-5.89a36.46,36.46,0,0,1,.64-7.76c.46-1.34.46-2,0-2.62a23.44,23.44,0,0,1-1.93-4.2c-1.11-3-1.28-5-1.51-15.87l-.24-12.36H260c-1.4,0-1.69-.35-2.63-3.27a23.81,23.81,0,0,1,1.46-16.86A26.39,26.39,0,0,1,277,31.3c6-1.29,11.67-.35,15.46,2.45C294,35,295,35.15,299,35.15c6.13,0,10.09,1.45,14.29,5.3,6.65,6.07,9.63,14.7,11.44,33a67.49,67.49,0,0,0,5.07,20.77c2.22,5.3,2.22,5.42,2.22,13.41,0,6.89.11,8,.93,8.29,1.46.46,7.7,7.23,9.39,10.2a40.19,40.19,0,0,1,2.86,6.94c1.17,3.91,1.23,5,.82,12.55-.24,4.49-.29,9.68-.24,11.43s.24,8.46.24,14.87c0,10.44-.18,12.19-1.34,16.34a56.89,56.89,0,0,1-3,7.87c-2.21,4.38-2.45,5.66-1.46,9.33,1.7,6.42.59,15-2.27,17.74l-1.34,1.22,1.34,5.83c.76,3.21,1.63,7.3,2,9.05,4,22.74,6.3,37.79,9.92,65.33.93,7.52,2.68,20.65,3.79,29.16,4.26,32.84,5.43,42.41,8.17,67.37,1.75,16.39,2.27,24.27,1.69,24.74a5,5,0,0,0-1.17,1.51c-.58,1.05-1.75,2-5.13,4.09-.76.52-.82,1.28-.41,6.12.29,3,.7,8.87.93,12.89.53,9.57.59,9.51-7.87,10.09A82.52,82.52,0,0,0,338,462.54c-10,2.39-15,3.09-22.87,3.09C308.57,465.63,307.23,465.45,305.65,464.46ZM348.58,428c4.79-1.4,10.56-4.15,10.56-5,0-1.28-7.11-57.75-9.56-75.89-.82-5.89-2.28-17-3.27-24.67-4-30.63-6.53-49.47-7.93-58.92-.82-5.42-1.75-11.61-2.05-13.71s-1.16-6.82-1.92-10.49c-1.28-6.07-1.4-6.42-1.46-3.62l-.06,3h-2c-1.63,0-2,.24-2,1.17s-.41,1.17-2.33,1.17-2.45-.24-2.92-1.29-.53-1.05-.53.88c0,2.1-.11,2.16-2.15,2.16-1.81,0-2.16-.24-2.92-2.05a12.32,12.32,0,0,1-.82-3.15c0-1.05-.17-1.1-1.45-.52s-1.29.82-.76,1.81a31,31,0,0,0,7.64,7.81c1.81,1.17,2.16,1.69,2.16,3.39,0,2,0,2-2.75,2-4.6,0-10-4.26-12.48-9.86-.93-2.16-1.34-2.45-2.45-2.16-6.71,1.81-20.18,1.81-26,.06-4.25-1.28-7.11-3.91-7.11-6.47,0-1.93.06-2,2.27-2a4.51,4.51,0,0,1,2.69.59c.7,1.16,4.72,2.8,8.57,3.44,5.19.87,13-.06,19.89-2.34,6.07-2,8.87-3.55,13.18-7.23,2.69-2.33,3.5-2.68,5.37-2.57s2.51-.11,5.13-2.85c3.39-3.56,3.85-4.26,4.38-7.18.52-3.09-.18-3.15-2.45-.17-3.79,4.84-12.43,10.38-18.2,11.6a39.24,39.24,0,0,0-6.77,3c-11.31,6.12-24.38,6.59-30,1-3.26-3.21-4.2-6.53-3.9-13.94l.17-6-2.68-1.52a13,13,0,0,0-4.09-1.51c-1.75.05-7.58,1.63-6.18,1.69.76.06,1,.58,1,2.1,0,1.86-.17,2-1.63,2a4.12,4.12,0,0,0-2.8,1.22,11.89,11.89,0,0,1-3.44,2.34l-2.34,1.11h5.55v2c0,1.11-.24,2-.59,2-.87,0-.76,6.24.18,6.59s6.12-1,9.27-2.39a14.09,14.09,0,0,1,4.49-1.28c1.7,0,1.81.17,1.81,2,0,2.27-2.1,4.43-5.54,5.66-1.11.41-2,.93-2,1.16,0,1,4.26,4,6.12,4.38s2,.52,2,2.62-.18,2.28-1.35,2.28c-1.34,0-1.34.12-2.62,14.17-4.78,51.92-7.23,108.44-6.65,151.66l.12,9.74,1.63.65c2.16.81,18,3.44,20.82,3.44a21.41,21.41,0,0,0,4.44-.59l2.1-.58.35-12.42c.87-27.24,4.31-73.79,8.05-107.74l1.86-16.62-1.57-4.67c-1.52-4.73-3.15-7.12-11.67-16.86-4.32-5-4.37-5.13-4.43-7.17,0-1.87.06-1.93,2.33-1.93,2,0,2.8.41,5.25,2.68,3.73,3.5,9.74,11.38,11.43,15.11,3.45,7.41,7.3,25.55,9.28,43.58,4.37,39.49,6.12,54.19,10,81.54,1.11,7.88,2.39,17.33,2.86,21,1.58,11.43,1.23,10.38,3.68,10.85,1.16.18,3.73.7,5.65,1.11C340.24,429.76,343.28,429.58,348.58,428ZM298.36,225.54a65.39,65.39,0,0,0,8.52-3.73,20.52,20.52,0,0,1,5.54-2.34c2,0,8.46-3.85,12.13-7.17,5.72-5.25,8-8.81,11.84-18.78,4-10.27,4.38-12.2,4.2-23.45-.29-18.49-.29-20.3.18-23.69.93-6.94-2.34-15.86-8.17-22.34l-3.09-3.44-1.81,1.69c-2.16,2-2.22,2.45-.58,3,1.16.41,1.16.7.81,6a466.19,466.19,0,0,1-5.25,46.54c-1.86,10.85-1.92,11-5.24,11.9-3.1.88-8.05,4.38-12,8.4-2.28,2.34-2.57,3-2.39,5l.11,2.22-7.17.35c-9.57.41-15.64,2.21-16.34,4.78-2.09,7.41,1,14.35,7.18,16.33C289.9,227.76,292.59,227.46,298.36,225.54Zm-54.07-13.13c7.11-2.21,6.94-2.1,6.94-5.25,0-3.32.7-3.84,7-5.36,8.75-2.1,13-2,16.62.52l2.16,1.46,3.73-1.51a30.28,30.28,0,0,1,8.46-1.87l4.67-.35,6.59-6.3c7.29-6.94,9-8,13.18-8.52l2.86-.35.35-3.26c.24-1.81,1.29-10.33,2.34-19,3.55-28.7,4-32.43,3.44-33-1.4-1.28-20.07-3.15-35.35-3.5-.88,0-1,.53-1,2.8a40.26,40.26,0,0,1-2.92,13.24c-1.4,3.33-4.72,7.06-7.17,8.11l-1.64.76-.11,9.63c-.06,5.36-.35,9.91-.59,10.2s-10.38.47-22.45.47h-22l-.18-9.62c-.12-7.65.06-9.92.7-10.8.76-1.05,1.81-1.16,16-1.34l15.23-.23L260,147.67c-3.09-4.32-4.43-11.84-3.56-19.84a32.27,32.27,0,0,0,.35-5.13,49.5,49.5,0,0,0-5.95-.76c-5.6-.58-22,.29-22.57,1.23-.12.17-.59,5.36-.94,11.43s-.87,12.13-1.1,13.42l-.35,2.33-3.21-.06a49.42,49.42,0,0,1-5.6-.52,11,11,0,0,0-5.37.52,16.3,16.3,0,0,0-11.26,12.31c-.58,2.57-.46,3.32.59,6.18,1.57,4.09,3.44,6.07,7.64,8,2.74,1.29,4,1.52,9.33,1.52l6.13.06.17,2.22c.12,1.16-.06,2.15-.29,2.15s-.35,2-.12,4.38.64,9,.88,14.82l.41,10.49,3,.24C234.9,213.11,242.42,213,244.29,212.41Zm25-51.85v-5.83h-17.5c-9.62,0-17.5.23-17.5.52s4,.41,8.93.23a108.18,108.18,0,0,1,12.36.24l3.5.46.18,2.22c.12,1.23-.06,2.16-.41,2.16s-.64.87-.64,2c0,1.87-.12,2-2.68,2.33a113.08,113.08,0,0,1-17.85,0c-2-.35-2.22-.52-2.22-2.33,0-1.11-.23-2-.58-2s-.59,1.4-.59,3.09v3l17.5-.17,17.5-.18Zm3.27-15.81c4.43-2.74,8.05-10.09,8.75-18.08l.41-3.85-6.65-.41c-5.08-.29-6.83-.64-7.35-1.34-1.58-2-4.09,2-4.67,7.41-.23,2.39-.58,3.5-1.11,3.5-1,0-1-.18-.17,3.61a15.64,15.64,0,0,0,4.2,8.52C268.09,146.33,269.84,146.5,272.58,144.75ZM298.36,121c-.06-.23-.64-1.63-1.28-3.21-.94-2.33-1.34-2.74-2.69-2.74s-1.69.35-2,1.4a8.61,8.61,0,0,1-2.39,3.21l-2.1,1.81h5.31C296.2,121.48,298.48,121.3,298.36,121Zm-3.27-17.62a53.49,53.49,0,0,1,7.47-24.32c1-1.63,1.46-1.92,3.5-1.92,2.8,0,4.2-1.7,4.32-5.31.06-3.33-1.64-4.73-5.19-4.26-4,.58-8-1-11.55-4.78-3.15-3.33-4.5-3.91-4.5-2,0,1-.4,1.17-4.95,1.17h-5V60.17c0-2.62.87-3.85,3.21-4.26l2-.41V48.39l-2.86.29c-3.44.35-8.28,2.68-11.26,5.48a12.86,12.86,0,0,0-2.21,2.28,5.41,5.41,0,0,0,2.5.29c3,0,3.91.76,3.91,3.32,0,1.81-.11,1.93-2,1.93a3.9,3.9,0,0,0-2.63.82c-.58.7-.4.87.94,1.05,1.51.17,1.69.4,2.16,3.79.64,4.61.35,5.42-2.16,5.42-2.86,0-3.44-1-3.21-5.54.12-3,0-3.79-.64-3.79s-.76,1.46-.41,8.92c.47,11,1.17,14.88,3.27,19.14,3,5.95,8.1,9.27,14.29,9.27,4.49,0,6.65,2,8.16,7.47.24.81.76,1.28,1.34,1.16C294.51,109.52,294.74,108.41,295.09,103.39Z"/><path id="ptDSHvObb" d="M242.6,187l.17-2.21,7.76-.53c4.26-.23,11.32-.29,15.63-.06l7.82.41v4.55H242.42Z"/><path id="pHgM1MrsM" d="M286.46,184c-.93-.64-2-4.09-2-6.65,0-3.44,2-5.14,6-5.14,4.37,0,5.65,1.4,5.65,6.3s-1.05,5.95-5.65,5.95A12.74,12.74,0,0,1,286.46,184Z"/><path id="pa65xzhuy" d="M234.14,181.73c-2.16-.23-2.22-.29-2-2.39l.17-2.16H255l.18,2.1.17,2.1-3.09.35A133.82,133.82,0,0,1,234.14,181.73Z"/><path id="pNc6egjD8" d="M297.72,178.23a4.27,4.27,0,0,1-.41-2.21c0-1.75.18-1.93,2.22-2.28a48.84,48.84,0,0,1,11.72,0c1.64.35,1.81.58,1.81,2.63v2.27h-7.47C301.45,178.64,297.89,178.47,297.72,178.23Z"/><path id="p1AO2HE3om" d="M285.41,169.83c-1.34-1.05-1.52-1.57-1.52-4.9,0-4.49,1-5.54,5.43-5.54,2.22,0,3.09.29,4.26,1.46,1.4,1.4,1.69,1.46,6,1.11A50.42,50.42,0,0,1,308,162l3.91.4-.17,2.1-.18,2.16h-8.34c-7.35,0-8.28.12-8.28,1,0,1.64-2.8,3.39-5.54,3.39A6.35,6.35,0,0,1,285.41,169.83Z"/><path id="p130PHemDk" d="M285.29,155.43a7,7,0,0,1-2.56-6c0-3.5,2.39-5.84,6.06-5.84s5.49.82,6.65,2.92l1,1.69,7.87.18,7.88.17.17,2.1c.18,2.1.18,2.16-2.45,2.51a64.08,64.08,0,0,1-8.22.29c-5.37-.12-5.6-.06-6.77,1.46-1.05,1.34-1.58,1.52-4.78,1.52C287.57,156.42,286.17,156.13,285.29,155.43Z"/><path id="p1Yy98X1n" d="M273,91.9c-.41-.11-.76-1.28-.76-2.45a4.26,4.26,0,0,0-1.17-3.26c-1.69-1.52-1.63-6.48.18-9.1,1.05-1.58,1.75-2,3.5-2.16l2.16-.18v2.8a7.11,7.11,0,0,1-.65,3.5c-.46.47-.17.76,1.17,1,1.57.35,1.81.64,1.81,2.39,0,1.11.11,2,.29,2,.64,0,4.08-1.93,5.48-3a6,6,0,0,1,3.33-1.11c2,0,2,.06,2,2.57,0,2.28-.23,2.8-1.92,4.08-3.21,2.45-5.9,3.27-10.44,3.21A23.57,23.57,0,0,1,273,91.9Z"/><path id="p122jAsHIj" d="M288,75.4c0-.3-.53-.59-1.17-.59-.93,0-1.17-.41-1.17-1.75,0-1.16-.29-1.75-.87-1.75-1.28,0-2-2-2-5.54V62.5l2.51.18,2.45.17.17,2.8c.18,2.57.29,2.75,1.75,2.75a32.5,32.5,0,0,1,3.79.35c2,.35,2.16.46,2.16,2.62A3.57,3.57,0,0,1,294,74.75C292.41,76,288,76.5,288,75.4Z"/><path id="pOY1OULeB" d="M435,449.36c0-1.64.24-3,.53-3.21a6.4,6.4,0,0,0,.93-2.69c.47-2.8-.7-5-2.92-5.6s-2-3.38.88-7.17a25.54,25.54,0,0,0,4.67-13.42,30.27,30.27,0,0,1,1.8-7.64c5.37-15.05,8.87-28.06,10.62-39.49.87-5.71.52-7.87-1.4-8.22-1.34-.24-5.72,3.61-8,7-2,3-5.37,10-5.37,11.2a11.08,11.08,0,0,1-1.81,3.2c-2.1,2.8-6.88,14.24-9.85,23.51l-2.05,6.3-3.15.94c-3.85,1.1-7.93,4.78-9,8.1-.7,2-1.11,2.39-2.91,2.69-3.91.64-7.41,4-9,8.63a31.74,31.74,0,0,0-1.05,6.53l-.4,4.61h-1.93c-1.75,0-2-.17-2.33-2a44.81,44.81,0,0,1-.12-7.23c.18-4.09.58-5.78,1.87-8.46a12.74,12.74,0,0,1,8.75-7c1.69-.35,2-.7,2.33-2.39.29-1.35,1.4-3,3.32-5l2.92-2.92-1.17-9.21c-.64-5-1.34-11-1.57-13.13-.29-2.86-.76-4.43-1.69-5.54-1.17-1.4-1.34-2.39-1.64-9.16-.29-7.87-1.16-12.19-2.33-11.84-1.75.53-5.6,10.62-6.06,15.92a37.86,37.86,0,0,1-2.1,8.17c-1.7,4.38-1.81,5.13-1.7,11.78l.06,7.12-1.63.35c-2.8.58-5.78,4.14-7.06,8.34-2.33,7.53-1.11,19,2.39,22.58a5.18,5.18,0,0,1,1.69,3.67c0,1.81-.11,1.87-2.27,1.87-4.55,0-7.06-3.68-8.17-11.9-1.28-8.93-.46-17.73,2-22.69,1.35-2.69,4.26-5.54,6-5.95,1.52-.29,1.52-.35,1.29-5a32.39,32.39,0,0,1,2.56-14.82,43.25,43.25,0,0,0,2.22-8.86c1.11-6.94,3.32-12.78,5.66-15.05a9.07,9.07,0,0,1,8.69-1.46c2.62,1.05,3.61,4.55,4,14,.3,6.59.53,8.11,1.46,9.39,1.4,1.87,3.21,13.07,3.79,23.45.3,5.72.53,6.83,1.29,6.83s1.22-1.23,2-4.79c2-9,6.88-20.71,10.21-24.5a21.77,21.77,0,0,0,3-5.71c1.81-5.43,4.38-10,7.18-12.84,3.44-3.44,6.06-4.66,10.2-4.66,3,0,3.56.17,5.08,1.75s1.75,2.33,1.92,5.83c.53,9.39-5.54,34.82-11.66,48.65-1.52,3.38-1.93,5.25-2.22,10-.29,4.49-.7,6.54-1.86,8.93-1.46,3.09-1.46,3.09-.41,5.25,1.75,3.38,1.46,7.93-.7,12.25-1.64,3.38-1.93,3.61-3.79,3.61h-2Z"/><path id="pYvmUOvpH" d="M196.4,444.69a16,16,0,0,1,1.69-5.08c2-4.2,4.14-10.79,4.14-13.18a18.83,18.83,0,0,1,1.93-5.66c1.75-3.56,1.86-4.2,1.86-10v-6.13l4.2-11.2c7.47-19.77,7.41-19.6,7.47-26.24,0-5-.18-6.13-1.05-7-1-1-1.11-1-2.51.7-4,4.9-10.85,16.79-12.19,21.29a10.12,10.12,0,0,1-2,3.2,22.55,22.55,0,0,0-5.25,8.52c-.53,2-.88,2.28-2.28,2.28-2.91,0-5.36,3.44-7.35,10.2-1.28,4.61-2.1,6.3-3.79,8.17-3,3.32-4.49,6-5,9.27a64.46,64.46,0,0,1-1.51,6.6l-1.17,3.67h-2.27c-2.34,0-2.34,0-2.34-2.16a20.25,20.25,0,0,1,.94-5.13c1.4-4.67,1.28-13.71-.35-18.67a24.85,24.85,0,0,0-1.87-4.78c-.35-.41-.41-3.27-.18-7.35.35-5.37.24-7.23-.58-10.09-1.69-5.89-5.25-11.32-7.47-11.32-1.1,0-1.1-.29-.75-4.37.4-4.78-.3-9.74-1.93-13.13-.52-1.1-1.17-2-1.52-2s-1.05.88-1.63,1.93c-2.56,4.43-.41,24.32,4.49,41.82,2.86,10,5,23.8,5,32.26v5.95h-2c-2.22,0-2.28,0-2.92-7.88-.52-6.12-1.81-12.66-5.31-26.83-4.55-18.32-5.65-25-5.71-35.87-.12-14.06,1.22-16.92,7.87-16.92a21.91,21.91,0,0,1,4.32.35c2.27.88,4.37,7.76,4.37,14.41,0,4.49,0,4.49,2.34,6.82,2,2,2.39,2.22,2.74,1.35,1.05-3.15,2.74-6.48,3.79-7.59s1.87-1.34,5.13-1.34c4.44,0,5.89.76,7.53,4,1.22,2.45,2.68,9,3.85,17.5.41,3.09.76,5.07.81,4.31.12-2.74,4.44-8.86,6.24-8.86.41,0,1.17-1.4,1.7-3,2.45-7.52,7.93-17.26,12.36-21.93,2.16-2.27,2.51-2.45,5.49-2.45,4,0,5.36.93,6.76,4.49.82,2.16,1.05,4.38,1.05,9.51,0,8.46-1,12-7.35,27.71l-4.78,11.66.12,6.42c.17,6.94-.53,9.86-3.27,13.53A7.35,7.35,0,0,0,206.9,431c0,3.79-2,10.09-4.09,12.95-1.57,2.16-2,2.45-4.08,2.45S196.4,446.26,196.4,444.69Zm-16.92-39.2c0-3,1.93-8.92,3.68-11.2,1.4-1.87,1.4-1.92.64-7.12-1.52-10.5-3.91-17.79-5.78-17.79-1.1,0-2.33,1.93-3.85,6.19-1.1,3-1.22,4.66-1.22,14.23s.17,11.08,1.17,13.42a27.89,27.89,0,0,1,1.57,4.78l.41,2.16,1.69-1.23A3.52,3.52,0,0,0,179.48,405.49Z"/></g><g id="l4SEyAwE2LWmiMkfeBFkNO5"><path id="pCT2gWFcX" class="cls-1" d="M-142.51,235.81v-350h700v700h-700ZM60,465.05c1.58-1.93,1.28-3-1.4-5.66s-5.31-4.32-20.53-13.59c-6.77-4.14-9-5.78-8.69-6.42.17-.47,1.45-4.14,2.85-8.17,1.87-5.36,2.8-7.35,3.56-7.46a48,48,0,0,0,11-2.92l3.56-1.52,2.1-6.47c7.52-23,15.8-55.18,22.92-88.66,1.69-8,3.09-14.18,3.09-13.71.12,1.87-1.69,40.42-2.27,49-1.11,15.63-2.92,36.69-4.15,46.9-1.22,10.49-1.28,10,1.7,13.24,1.22,1.4,1.28,1.8.75,3.79a96,96,0,0,0-1.22,10.73c-.29,4.67-.76,10.44-.93,12.89-.35,4.32-.35,4.44,1.22,5.66a32.34,32.34,0,0,0,7.23,3.15l5.6,1.92h15.75c15.23,0,23.69-.7,24.5-2.09.53-.76-1.16-3.68-3.32-5.84-4.14-4.08-8.58-5.36-24.09-6.94-3.5-.35-6.54-.76-6.77-.87a7.43,7.43,0,0,1,.06-3c.29-1.51.64-5.36.87-8.46l.41-5.71h1.87c2.51,0,8.22-1.52,10-2.69a22.37,22.37,0,0,0,3.45-3.38c1.92-2.39,2-2.86,4.08-15,4.84-29.57,7.41-56.93,8.51-92.16.76-23.28-.46-64.69-1.86-64.69-.24,0-.35.58-.24,1.34.7,3.15.94,45.09.41,62.59-1,31.26-2.86,53.61-7.46,88.6-2,15.34-2.1,15.81-3.85,18a15.78,15.78,0,0,1-5.08,3.79c-2.86,1.34-3.85,1.46-9.33,1.4-10.85-.18-18-1.93-21.18-5.31-1.4-1.46-1.45-1.81-1-4,.76-3.39,3.27-23,4.38-34,1.34-14.12,2.62-38.73,3-59.21.35-18.31.41-18.9,2.69-32.37,1.28-7.52,2.68-16.33,3.15-19.54.64-4.61,1.1-6,2-6.77,1.81-1.34,8.63-10.67,8-11-.88-.3-4.67,3.67-6.59,6.94-1,1.57-2,2.91-2.39,2.91s-.94,1.64-1.29,3.68A1404.56,1404.56,0,0,1,54.36,402.34c-1.69,6.13-3.38,12.19-3.73,13.59-.82,2.86-2.45,3.79-9.28,5.13a36.68,36.68,0,0,1-25.66-4c-3.62-2-4-2.57-3.15-5.54C29.8,347.28,41.82,286.38,45.38,245.37c.41-4.43.82-8.16.87-8.28A11.12,11.12,0,0,1,49,238.31a58.84,58.84,0,0,0,16,5.43c5.89,1.11,19.54.93,20.71-.23.52-.53.52-.7-.06-.7s-.7-.82-.41-3.62a31.25,31.25,0,0,1,.52-3.79,8.41,8.41,0,0,1,2.8.76c4,1.51,14.41,1.34,18.9-.24a33.37,33.37,0,0,1,3.85-1.28c.24,0,.59,2.1.82,4.67.23,2.8.7,4.9,1.22,5.3,1.29,1,10.56.41,13.07-1a9.82,9.82,0,0,1,2.86-1.11c1.11,0,1.17-1.8.58-11-.29-4.26-.81-7.82-1.16-8.17s-.59,1.69-.35,8.52l.29,9.16-2.16.87a41.59,41.59,0,0,1-11,2.1h-1.92v-3.61c-.06-2.05-.41-7.88-.82-13s-.7-9.45-.58-9.51c.17-.23,1.92.7,5.71,3a12.91,12.91,0,0,0,9.34,1.93c3.44-.64,2.39-1.4-2.28-1.63-2.39-.12-4.61-.47-4.9-.76s.7-.47,3.39-.06c3.9.52,4.08.52,8.75-1.69,2.56-1.23,4.72-2.45,4.72-2.69s-1.52-.29-3.32-.11c-5.55.52-7.35.35-13.77-1.52-3.38-1-6.42-1.81-6.77-1.81-1.05,0-.76,1,.41,1.34l6.18,2.16a32.89,32.89,0,0,0,7.88,1.87l2.68.06-1.92.58c-2.34.7-9.86-.64-16.1-2.92-2.28-.81-5.54-1.8-7.23-2.21a21,21,0,0,1-3.5-1.11c-.35-.41-.24-7.18.23-8.57.17-.7,1.22-1,3.85-1.29a19.82,19.82,0,0,0,8.16-2.68c4.55-2.39,8.64-3.21,8.64-1.63a7.62,7.62,0,0,1-1.81,2.62l-1.75,1.87,1.22,1.69c2,2.86,4.32,4.43,9.28,6.47a26,26,0,0,1,5.07,2.39c.88,1.46-7.17-.17-12.89-2.62-6.18-2.63-7-1.75-1.16,1.28,5.07,2.63,5.42,2.69,10.32,2.74,2.74,0,5.25-.17,5.48-.4.88-.88-1.92-3-7.05-5.43l-5.25-2.45h17.38c9.51,0,17.5-.17,17.73-.35a.62.62,0,0,0-.06-.82c-.52-.52-31.55-.52-34.3,0-1.92.41-2.27.3-3.09-1s-.93-1.51.59-2.85c1.69-1.46,2.15-4,.93-5.25s-5.66-.65-8.93,1.51c-3,2-8.22,3.91-10.55,3.91-.88,0-1-.35-.88-1.75.24-2.16-.76-2.92-3.73-2.92-6.83,0-17.85-3.79-21.76-7.46l-1.75-1.58.18-9.68.17-9.68,4.9-.35c5.6-.41,7.64-1.29,10.09-4.2a14.21,14.21,0,0,0,3-9.39c0-4.61-1-7.12-4-10.1a13.1,13.1,0,0,0-11.26-4l-3,.29.35-2.1c.17-1.17.52-8,.75-15.22L77,110.1h42.24c34.88,0,42.11.12,41.88.76-.18.47-.29,6.36-.29,13.18v12.43l-4,.29c-6.88.52-12.6,3.91-15.57,9.33s-2.1,12.66,2.15,16.63c2.4,2.27,5.6,3.2,10.68,3.15h4.66l-.17,19.19c-.12,12.13.06,19.25.41,19.25s.7-2,.93-4.38c.47-5.07.12-33.89-.41-34.41-.17-.24-2.74-.59-5.66-.88-6.24-.58-8.69-1.81-10.79-5.42-1.92-3.44-2.27-6-1.16-9.69,1.81-6.18,7.87-10.73,15.45-11.66a16.5,16.5,0,0,0,4.5-.94c.58-.52.46-26.94-.06-27.53-.29-.23-8.93-.52-19.31-.64l-18.84-.23-1-1.87c-2.22-4.14-5.54-6.77-14.35-11.49-2-1.11-6.13-1.52-6.65-.64a22.77,22.77,0,0,0,.76,4.78c.58,2.39,1.22,5.48,1.46,6.88l.35,2.45h-18L85.86,105a58.36,58.36,0,0,0-1.4-7.18,11.15,11.15,0,0,1-.52-5.25,58.67,58.67,0,0,0,.4-8.16c0-5.14-.29-6.77-1.1-8.17a9.53,9.53,0,0,0-6.65-3.91c-2.75-.29-5.08-3.67-5.43-7.87-.35-3.91.53-6.24,3.09-8.29,2.28-1.8,4.9-1.57,8.52.82A20.71,20.71,0,0,0,88,59.65c1.63.46,2.33,1.1,3.15,3C92.63,66,95,67.81,97.88,67.81c4.55,0,8.51-4,9.56-9.51.35-1.75.7-2.15,1.75-2.15,1.23,0,1.34.29,1.64,4.49l.23,4.55-2.39,2.16c-2.68,2.45-2,2.85,1.46.93,2.27-1.23,2.56-1.87,2.33-4.38-.12-1.75.12-1.69,2.16.41,4.2,4.14,7.87.76,9.56-8.69.94-5.54,1.81-5.95,1.35-.64-1.4,17.15-4.38,27-9.45,31.5-3,2.62-5.49,3.5-9.92,3.5-2.33,0-3.38.29-4.61,1.4-1.46,1.22-1.63,1.81-1.81,5.36l-.11,4,.76-3.68c1-5,1.75-5.65,6.94-5.71,5-.06,7.64-1,10.73-4.14,2.92-2.92,5-7.3,6.53-14,1.4-6,2.69-17.09,2.22-19.43-.41-2,0-2.56,3.15-4,3.38-1.64,4.9-3.21,6.07-6.42a27.58,27.58,0,0,0,.23-12.54c-.93-3.27-4.67-7.12-8.23-8.28-2.91-.94-8-.94-12.25.11-1.51.35-1.63.24-1.63-1.28,0-4.2-4.2-7.82-9-7.82-4.49,0-7.64,2.34-11.49,8.46a49.45,49.45,0,0,1-3.79,5c-2,2.28-2.45,2.51-3.33,1.81s-1-.64-1.28.17a1,1,0,0,1-1.46.65c-1.34-.41-3.44.11-3.44.93,0,.29.82.52,1.75.52s1.75.3,1.75.59-3,2.1-6.71,3.85C65.8,41,62.53,45.06,62.53,53.52a23.24,23.24,0,0,0,1.81,9.63,69.41,69.41,0,0,1,2.8,10.15c1.22,6.47,3,10.14,6.12,12.24,2.16,1.52,2.74,1.64,5.95,1.35l3.62-.3-.35,4.15c-.24,3.2.06,5.83,1.11,10.85a49.91,49.91,0,0,1,1.16,6.94,28.62,28.62,0,0,1-4.55.58c-2.33.18-4.43.58-4.66.93-.88,1.4-4.5-9.62-3.8-11.55.18-.4,2.45-1.75,5-3s4.61-2.33,4.43-2.51c-.7-.76-14.4,5.72-19.59,9.28-12.43,8.4-17.45,23.15-17.45,50.69,0,9.62.59,14.17,2.75,22.45a63.06,63.06,0,0,1,1.51,7c0,.64-.7,4.09-1.51,7.59a184,184,0,0,0-4.38,33.59l-.41,10.5,1.69,1.29,1.64,1.34-1.23,10.15C39.6,284.1,32.49,322.49,22,367.05c-6,25.49-8.87,37.74-9.92,42.52l-1.22,5.49,2.1,1.69c1.57,1.34,1.92,1.92,1.51,2.68-2,3.68-7.64,22.93-7.64,25.9,0,1.69,4,5.6,7.82,7.76,5,2.74,18,7.87,25.72,10.09C53.84,467.09,58,467.44,60,465.05Zm265.58-2c2.57-.46,7.35-1.51,10.62-2.27a82.52,82.52,0,0,1,11.84-1.93c8-.52,8.34-.87,7.87-7.4-.93-12.55-1.51-19.43-1.8-20.3-.18-.65.46-1.23,2-2,2-.87,5.54-3.79,4.61-3.79a16.84,16.84,0,0,0-2.92,1.46,36,36,0,0,1-24.21,3.56c-2.16-.47-5-1-6.12-1.17-2.45-.47-2.1.58-3.68-10.85-.47-3.67-1.75-13.12-2.86-21-3.85-27.35-5.6-42.05-10-81.54-2-18-5.83-36.17-9.28-43.58-2.5-5.48-12.89-17.79-14.93-17.79-.82,0-.06,1.11,3.85,5.6,8.87,10.15,10.09,12,11.9,17.62l1.75,5.48-.87,6.47c-1.05,8.05-3,25.73-3.74,35.12-.35,3.85-1.11,13.18-1.75,20.71-2.39,27.53-4.9,76.06-4,75.24.35-.35,1.16-10.09,2.15-26.24.94-15.29,3.39-47.31,5.55-72.63,1.1-12.83,2.21-25.9,2.39-29,.23-3.44.58-5.42.87-5,.94,1.69,2.86,14.52,4.61,31.09,3.91,36.92,8.63,72.33,12.83,96.77.94,5.6,1.75,10.85,1.75,11.66,0,1.81,1.11,2.45,7,4.15l4.38,1.28.7,4.32c1.4,8.75.76,9.8-6.54,11-8.8,1.4-21.17,6.48-23.33,9.57-1.46,2-1.11,3.79,1,5.07,1.52.94,2.92,1.17,7.7,1.17A71.29,71.29,0,0,0,325.6,463.06ZM271.18,451c4.9-.35,10.5-.82,12.42-1.05l3.5-.35v-6.42c0-3.56.06-9,.18-12.25l.11-5.83,2.92-1c3.21-1.17,4.08-2.39,1.05-1.52a30,30,0,0,1-6,.53c-4.66,0-20.59-2.51-22.92-3.62l-1.58-.76.12-26.25c.12-46.19,2.28-89.83,6.71-138.36C269,240,269,239.89,270.3,239.89c2.05,0,1.58-1-.7-1.4a9.69,9.69,0,0,1-3.79-1.93c-3.21-2.68-4.43-6.59-2-6.59,1.4,0,5.13-2,6.42-3.56.64-.7.93-1.16.58-1-6.47,3.27-11.61,4.38-16.1,3.44-4.2-.87-5.66-1.8-2.68-1.69a5.66,5.66,0,0,0,2.51-.29c.4-.41.29-.47-3.56-1.52a13.55,13.55,0,0,1-3.5-1.45c-1.05-.76-.76-.82,3.09-.53,2.8.23,4.2.12,4.2-.29,0-.58-1-.88-5.54-1.58-4.26-.64-4.38-1.45-.29-1.45a19.92,19.92,0,0,0,5.54-.82c1.63-.7,1.22-.76-4.55-1.05-3.62-.18-6.59-.58-6.94-.93-.53-.53-.41-.7.4-.7,2.4,0,10.39-3.1,12.25-4.73a7.28,7.28,0,0,1,3.56-1.75l1.69-.06-1.75-.52c-.93-.24-2.45-.64-3.32-.82-3.09-.64-1.11-1.92,5.37-3.44,3.5-.82,6.7-1.52,7.17-1.52a18.8,18.8,0,0,1,4.2,1.75,14.41,14.41,0,0,0,3.62,1.58c.52-.59-4.09-3.91-6.13-4.49-2.86-.76-11.55.76-15.4,2.74-2,1-2.33,4-.41,4.72,1.05.41.94.59-1,1.52-6.41,3.15-13.35,3.91-25.37,2.92l-4.37-.41-.41-10c-.24-5.48-.64-12.83-1-16.33-.53-5.19-.47-6.42.17-6.82.41-.3.64-.53.47-.53s-3.09-.12-6.48-.23c-9.62-.29-14.41-3-16.91-9.63-2.34-6.24-.3-14.7,4.6-18.72A19.73,19.73,0,0,1,221,148.43c1.35.4,2.45.46,2.8.11.65-.64,1.7-11,2-19.83a49.12,49.12,0,0,1,.52-7.06c.64-1,16.22-2.1,23.28-1.69,9.45.58,9.91.76,9.5,2.68a51.31,51.31,0,0,0-.75,13.89c.52,4.43,2.74,9.45,4.95,11.2,6,4.72,14.88.93,18.49-7.88,1.81-4.55,2.86-10.32,2.4-13.24l-.41-2.33,11,.4c6.07.18,13.65.65,16.86.94,5.78.58,12.95,1.86,13.48,2.45.29.23-.06,3.15-4.15,36-1,8.81-2.09,17.5-2.33,19.31l-.35,3.26-2.86.35c-4.2.53-5.89,1.58-13.18,8.52l-6.59,6.3-4.61.35c-4.72.35-10.21,2-12.37,3.79-1.51,1.22-2.91,6.36-2.91,10.67,0,8.75,5.71,14.53,14.29,14.53,4,0,11.14-2.16,16.57-4.9a63.11,63.11,0,0,1,8.75-3.79,35.49,35.49,0,0,0,18.6-14.59l2.28-3.67L337,208c.7,3.79.4,8.4-.65,10.38-.75,1.46-7,7.7-9,9.1a20,20,0,0,1-3.44,1.87l-1.57.58,1.8-2c1.75-2,2.1-2.62,1.58-2.62a29.64,29.64,0,0,0-3.38,2.68c-4.26,3.62-7.12,5.19-13.13,7.17-12.07,4.09-26.6,3.62-31.85-1-.52-.46-1.1-.76-1.28-.58-.7.7,4,4,7.17,5,5.84,1.81,19.6,1.11,25.79-1.29.7-.23,1.16.41,1.92,2.51,1.69,4.67,8.58,11.08,11.32,10.5.81-.17.52-.58-1.34-1.75-3.79-2.45-10.62-10.79-9.57-11.72,1.4-1.17,9.45-5.08,10.44-5.08,1.93,0,7.06-2.8,9.51-5.13,1.22-1.17,2.27-2,2.39-1.81.29.29,4.14,21.58,5.6,30.86,1.17,7.17,4.61,32.61,7.35,53.66.76,5.95,2,16,2.92,22.46s2.1,16.39,2.91,22.17c2.1,15.57,4.09,31.14,6.42,50.45,1.17,9.45,2.33,17.85,2.57,18.67.7,2,.23-4.67-1.46-20.13-2.63-24.44-3.79-34.29-8.11-67.37-1.11-8.51-2.86-21.64-3.79-29.16-3.44-26.14-7.18-50.87-9.39-62.42-1.23-6.18-3.56-16.62-4.14-18.61-.53-1.75-.47-2,1.16-3.55,1.87-1.7,3.62-6.36,3.62-9.63a33.5,33.5,0,0,0-1.11-5.83c-1.28-4.67-.93-6.94,1.87-12.37,3.26-6.3,4.2-11.14,4.14-22,0-5.42-.12-12.13-.23-14.87s0-7.88.23-11.43c.47-5.84.41-6.83-.82-11a37.67,37.67,0,0,0-3.5-7.88,45.6,45.6,0,0,0-9.86-10c-1.16-.87-1.22-.93-.29-3.5,1.58-4.37.88-11.37-1.75-17.62a64.33,64.33,0,0,1-5-20.47c-1.81-18.32-4.79-26.95-11.44-33A17.85,17.85,0,0,0,297.31,37c-4,.18-4.55.06-6.42-1.34-5.65-4.26-13.7-3.85-21.29,1.11-8.86,5.77-13.06,14.93-10.5,23.1,1,3.15,2,4.32,2,2.27,0-1.16,4.72-7.35,7.52-9.8,4.73-4.2,11-6.41,16-5.77,2.57.35,2.8.52,2.45,1.63-1.22,4.26-1.05,7.12.64,8.75,1.52,1.58,2,1,1.05-1.22a8.21,8.21,0,0,1-.52-4.79l.47-2.68,1,2.92c3.32,9.56,10.5,16,15.81,14.17A5.43,5.43,0,0,1,312,68.22c.88,2.28.24,7.7-1.11,9.45a3.42,3.42,0,0,1-3.32,1.52c-2.1,0-2.39.23-4.2,3.2-3.73,6.25-6.88,18.32-6.48,25,.18,4,0,4.14-3.61,4.14-1.87,0-2.34-.23-2.63-1.28-1.51-5.49-3.67-7.47-8.16-7.47-6.19,0-11.26-3.32-14.29-9.27-2.28-4.55-2.86-8.35-3.33-21.18-.17-6.18-.58-11-.93-11s-.41,5.25-.29,13.3c.23,11.66.4,13.64,1.51,16.62a27.39,27.39,0,0,0,2.39,5c1.17,1.63,1.17,1.75.18,3.61-.76,1.52-1,3.5-1.05,8.52v6.59l-2.39,1.75a11.85,11.85,0,0,0-3.21,3.56c-.76,1.57-.93,1.63-1.17.64-.52-1.81-5.77-2.68-16.21-2.68-11,0-18.32,1.28-18.9,3.38-.18.64-.64,6.88-1.05,13.82l-.7,12.66-2-.93a18.81,18.81,0,0,0-6.19-.93,18,18,0,0,0-16.45,10c-1.4,2.92-1.63,4-1.63,8.57s.23,5.66,1.4,7.88c3.21,6,9.51,9.1,17.73,8.63l4.26-.17.76,14c1,19.77.93,19.36,3.5,20.24a42.26,42.26,0,0,0,8.92.7c3.79,0,6.89.23,6.89.4a24.2,24.2,0,0,0,2.5,4c2.92,4.32,3.15,4.72,3.5,5.83.65,2,10.33,5.25,13.54,4.44,1.16-.3,1.34-.06,1.69,2.1a6.91,6.91,0,0,0,2.51,4.31,8.42,8.42,0,0,0,2.86,2,1.54,1.54,0,0,1,1.1.52c.18.29-.23,4.73-.87,9.8-1.05,8.46-2.57,23.92-4.08,41-2,24-3.5,66.61-3.45,100.5.06,27,.06,27.3,1.29,28.41,1,1,3.85,2,8.34,3.21.64.17.58,4.66-.12,11.72l-.29,3-10.91,1.34c-12.48,1.51-16.1,2.33-19.66,4.37-2.68,1.58-3.44,3.09-2.62,5.25,1.11,3,2.27,3.21,15,3.21C257,451.63,266.28,451.34,271.18,451Zm169.1-6.83a8.27,8.27,0,0,0-1.52-7.64l-1.45-1.69,2.15-4.26c1.87-3.73,2.16-4.84,2.51-10.09.29-4.78.7-6.65,2.22-10,5.71-13,12.48-40.42,11.61-47-.41-3-2.92-5.71-5.2-5.71-5.65,0-12.24,7.41-15.63,17.5a21.77,21.77,0,0,1-3,5.71c-3.33,3.79-8.23,15.52-10.21,24.44-1,4.44-1.17,4.79-2.74,5.08-3.85.76-3.68,1-4.09-6.48s-1.86-19.25-2.8-22.16a6.19,6.19,0,0,0-1.57-2.63c-.88-.64-1-1.92-1-8.34,0-9.1-1.05-13.18-3.74-14.23-4.78-2-9,4.43-11,16.45a43.25,43.25,0,0,1-2.22,8.86A27.53,27.53,0,0,0,391,399.77c.29,1.4.12,1.58-1.63,1.93-6.24,1.17-10.15,11.78-8.75,23.62.81,6.83,1.92,10,4.31,12s3.33,1.81,1.17-.47c-2.57-2.62-3.73-7.7-3.73-15.86s1.4-13.07,4.55-16.22a9.75,9.75,0,0,1,3.67-2.45l1.52-.35.06-7.12c0-6.65.11-7.4,1.92-11.9,1.05-2.68,1.75-5.07,1.52-5.36-.93-1.58,4-16.51,6.12-18.43a3.63,3.63,0,0,1,2.75-.76c2.33.23,3.2,3.21,3.55,12.42.24,6.83.41,7.76,1.58,9.16,1,1.17,1.46,2.68,1.75,5.83.23,2.34,1,9.1,1.81,15,1.4,10.27,1.4,10.8.4,11.32-2.1,1.17-5.42,5.31-5.77,7.17-.29,1.64-.64,2-2.33,2.34-6,1.11-10.09,6.71-10.56,14.41a16.56,16.56,0,0,0,.29,5.6c.41,1.16.58.52.93-3.27a32.45,32.45,0,0,1,1.05-6.65c1.58-4.67,5.08-8,9-8.63,1.8-.3,2.21-.7,2.91-2.69,1.11-3.32,5.19-7,9-8.1l3.15-.94,2.05-6.3c3-9.27,7.75-20.71,9.85-23.51a11.08,11.08,0,0,0,1.81-3.2,25.45,25.45,0,0,1,1.69-4.5c5.78-12.83,15.29-18.78,17.27-10.79,1.22,4.79-5,31.33-10.85,46.73a38.7,38.7,0,0,0-2,8.16c-.47,5.66-2.28,11-4.9,14.47l-2.33,3.09,1.75.7a6.73,6.73,0,0,1,2.74,2.8c.81,1.81.87,2.45.17,5.31a9.92,9.92,0,0,1-1.28,3.56,2.38,2.38,0,0,0-.47,1.57c.06,1,.29.88,1.46-1.05A23.47,23.47,0,0,0,440.28,444.16Zm-239.22-2c2.1-2.86,4.09-9.16,4.09-12.95a7.35,7.35,0,0,1,1.34-4.61c3.21-4.31,4.32-11.08,2.45-14.64-.88-1.63-.82-1.92.47-4.66,2.5-5.31,10.09-25,11.25-29.23a40.45,40.45,0,0,0,1.11-9.33c0-4.43-.23-5.72-1.46-8.17-1.75-3.5-3.85-4.55-6.24-3.21-3.67,2.1-11.78,15.46-14.46,23.8-.53,1.64-1.29,3-1.75,3-1.87,0-5.49,5.36-6.36,9.5-.29,1.29-.7,1.58-2,1.58-1.64,0-1.64,0-2-4.49-.17-2.51-.93-7.41-1.57-10.91-1.87-9.62-3.79-12.6-8.23-12.6a4,4,0,0,0-3.61,1.75c-1.69,2-3.56,6.65-4.2,10.38l-.41,2.57-2.33-3.62a23.87,23.87,0,0,0-3.91-4.6c-1.46-.88-1.52-1.17-1.34-5,.29-6.48-1.87-14.18-4.26-15.11a6.09,6.09,0,0,0-5.66.82c-2.22,1.75-3.09,5.66-3,14,.11,8.86,1.46,17.15,5.48,33.25,3.67,14.52,5.13,22,5.66,28.58.46,6.76,1.28,8.46,1.28,2.91.06-6.76-2.27-21.29-5-30.62-1-3.62-2.86-12.07-4.37-20.12-1.63-8.34-1.75-22.17-.29-25a6.38,6.38,0,0,1,2.39-2.57c3.73-1.69,6.41,4.15,6.41,14,0,5,.12,5.95.94,5.95,2,0,5.66,5.72,7.29,11.32.76,2.74.93,5,.7,10.38-.18,3.79-.12,7.06.12,7.18a21.22,21.22,0,0,1,1.8,4.78c1.23,3.91,1.4,5.6,1.29,11.84-.06,4.73-.41,8.34-1,10.21-1.11,3.44-1.11,3.79-.35,3.79s2.68-6.3,3.2-10.27c.47-3.32,1.93-5.95,5-9.27,1.69-1.87,2.51-3.56,3.79-8.17,2-6.76,4.44-10.2,7.35-10.2,1.4,0,1.75-.3,2.28-2.28a22.55,22.55,0,0,1,5.25-8.52,10.12,10.12,0,0,0,2-3.2c2.16-7.18,12.89-23.92,15.34-23.92,3.33,0,5.19,6.53,4.2,14.41-.64,4.78-1.75,8.28-7.7,24.26l-4.2,11.2v6.13c-.06,5.71-.17,6.41-1.92,10a18.83,18.83,0,0,0-1.93,5.66c0,2.33-2.1,9-4.14,13.13C197.91,445.21,198.56,445.68,201.06,442.18ZM320.64,236.33c-.41-.93-.93-1.69-1.22-1.69-.82,0-.58,2.22.47,4.55l1,2.16.23-1.69A8.3,8.3,0,0,0,320.64,236.33Zm6.13.82c-.47-2.63-1.29-4.26-2.1-4.26-.64,0-.29,2.51.7,5.13C326.18,240.24,327.23,239.6,326.77,237.15Zm4.14-2.86a15.8,15.8,0,0,0-.7-3.27c-.7-1.11-1.4.94-1,3,.47,2.45.7,2.91,1.52,2.91C331.08,237,331.2,236,330.91,234.29Zm-189.75-42c1.52-.23,2.57-.64,2.39-.87-.41-.7-18.9-.7-18.9,0C124.65,192.41,136,193,141.16,192.29Zm131.07-5.42c0-1.35-26.89-1.35-27.77,0-.17.29,6,.52,13.71.52S272.23,187.16,272.23,186.87Zm-129-2.34c1-.64-4.43-1-17.73-1.16-12.55-.18-25.79.46-24.68,1.16S142.21,185.17,143.26,184.53Zm150-3a4.66,4.66,0,0,0-.12-6.24c-1.63-1.75-3.67-1.7-5.42.11-1.52,1.46-1.7,2.16-.88,4.09.47,1.22.88.7,1.28-1.7.47-2.85,4.09-2.56,4.44.35.23,1.81-1.17,3-3.39,2.92-1.75-.06-2.39.7-1,1.23A5.05,5.05,0,0,0,293.23,181.56ZM250.47,180c1.69-.23,2.92-.64,2.74-.87-.41-.7-18.72-.65-19.19,0C233.44,180.16,244.7,180.68,250.47,180ZM127.8,177c.35-.53-4.32-1.23-8.75-1.23-4.67,0-10.15.7-9.8,1.23C109.66,177.65,127.39,177.65,127.8,177Zm183.51-.58c0-.59-2.92-1.23-5.77-1.23-3.21,0-6.48.7-6.13,1.23C299.82,177.07,311.31,177.07,311.31,176.37Zm-171.9-4.61c2.16-.12,3.91-.47,3.91-.76,0-.7-37.74-.7-38.21,0-.17.35,1.11.7,3,.82C112.46,172.11,134.16,172.05,139.41,171.76Zm131.94-2.39c2.16-.94-7.4-1.35-23.45-1.11l-15.63.17V153h39.08l-.17,5.54c-.23,6.18.17,9,1.11,8s.41-13.36-.53-14.29c-.58-.59-5-.76-20-.76-18.6,0-19.3.06-20.12,1.16-.7.88-.87,2.92-.76,8.75a72.38,72.38,0,0,0,.29,8C231.51,170,270,169.89,271.35,169.37Zm20.36-1.29c1.93-1.51,2-3.61.06-5.48-1.63-1.69-3-1.81-4.84-.53s-1.75,4.44.23,6a2.72,2.72,0,0,0,4.55,0Zm18.08-3.38c.18-.29-1.22-.7-3.09-.93-3.91-.47-10.15.17-9.62.93S309.39,165.4,309.79,164.7Zm-56.05-1.58c1.51-.23,2.56-.64,2.39-.87-.41-.7-18.9-.7-18.9,0,0,.29.7.7,1.63.82A98.47,98.47,0,0,0,253.74,163.12Zm3.56-4.89c-1.4-1.4-21.82-1.35-21.82.05,0,.3,4.84.53,11.2.53C253.85,158.81,257.7,158.63,257.3,158.23Zm35.87-5c1.52-2,1.57-3.73.06-5.66a4.7,4.7,0,0,0-6.13-1.34c-3,2-3.21,4.49-.41,7.06C288.85,155.25,291.59,155.19,293.17,153.21Zm15.34-1.75c1.23-.23,2-.58,1.87-.88-.41-.7-14.24-.7-14.24,0,0,.3.59.7,1.35.82A53.31,53.31,0,0,0,308.51,151.46Zm-188.23-13c.87-.35.64-.52-1.17-.82-3-.52-18.61-.52-21.58,0-2.1.35-2.22.41-.88.82C98.64,139,118.82,139,120.28,138.45Zm-10.91-6.12c.7-.76-.58-.94-7.23-1-10.27-.11-13.07,0-13.07.59,0,.35,1.22.7,2.8.81C95.6,133,109,132.73,109.37,132.33Zm41.82-.35c2.33-.94-2.8-1.23-17.56-1l-14.7.17v-14h32.26l-.23,4.26c-.23,4.9.35,8.69,1.16,7.87.3-.29.47-3.38.41-6.94l-.17-6.35-16.86-.18c-9.27-.06-17.09.06-17.32.29-.76.76-1.29,8-.88,12,.41,3.56.53,3.85,2,4.08C122.26,132.62,150,132.5,151.19,132Zm-39.72-5.2c1-.4,1-.46-.29-.81-1.81-.53-20.83-.53-22.64,0-3.09.81.88,1.28,11.32,1.28C105.64,127.25,110.88,127,111.47,126.78Zm1.28-5a11.75,11.75,0,0,0-.06-4.08l-.35-3.21H109c-5.78,0-6,.17-6,4.43v3.73h4.67C111.41,122.64,112.52,122.47,112.75,121.77Zm169.8-32.08c3-1.23,6-3.68,6-4.79,0-.81-.12-.81-1.28.06-3,2.22-7.64,4-10.44,4s-3.68.58-2.1,1.16S280.51,90.5,282.55,89.69Zm-5.42-4.9c.23-.3-.47-.7-1.46-.94-2.27-.52-2.74-1.75-1.52-3.91s1.35-3.84.06-2.74a9,9,0,0,0-2.56,5,3.6,3.6,0,0,0,3.55,3.15A2.83,2.83,0,0,0,277.13,84.79Zm-165-9.51c2.51-1.17,1.63-1.58-2.8-1.23a17.68,17.68,0,0,1-6.47-.4c-2.86-.94-3.33-.35-.88,1.1C104.24,76.15,109.6,76.45,112.11,75.28Zm180.36-2.45c1.75-1.52,1.46-2.8-.41-1.63-1,.58-1.17.58-1.17-.18,0-1.11-.58-1.11-2.21.06s-1.64,2-.12,2c.64,0,1.17.29,1.17.59C289.73,74.64,290.72,74.29,292.47,72.83ZM271.12,68.1c-.17-1.28-.64-2.33-.93-2.33-.88,0-1.05,3.73-.24,4.73C271.06,71.84,271.59,70.73,271.12,68.1Zm14.87-3a1.16,1.16,0,0,0-.93-.82c-.82,0-.76,2.74.18,4.26.7,1.23.7,1.23.87-.64A7.84,7.84,0,0,0,286,65.13Zm-14.93-4.9c1.64,0,1.81-.12,1.17-.88-1.11-1.34-3.85-1.1-4.9.41s-.58,2.57.76,1.4A5,5,0,0,1,271.06,60.23Zm16.33-.7c0-.23-.52-.76-1.16-1.23-1.46-1-3.91-.64-4.67.7-.47.88-.12,1,2.68,1C286,59.94,287.39,59.76,287.39,59.53Z"/><path id="p03WXfLpS" class="cls-1" d="M72,242.81a72.44,72.44,0,0,1-16.22-3.39C50.4,237.56,43,233.88,43,233.06c0-5.42,5.07-45.14,6.18-48.59.18-.52.88.18,1.93,2.05a46.92,46.92,0,0,0,10.2,13,52.17,52.17,0,0,0,18.9,11.55l4.9,1.69-.35,2.92c-.17,1.63-.46,8.34-.7,15-.41,11.73-.46,12.08-1.63,12.08-.7,0-2.16.11-3.27.23A55.37,55.37,0,0,1,72,242.81Z"/><path id="p13285UDZ7" class="cls-1" d="M93.15,235.46c-.81-.12-2.8-.53-4.49-.88l-3-.58L86,223.67c.17-5.66.35-10.38.41-10.38s2.8.41,6.18,1c7.7,1.34,8.75,1.34,8.75.18s1.75-.82,6.18,1.16l3,1.4.4,8c.24,4.38.35,8.11.24,8.23C109.83,234.46,96.83,236.1,93.15,235.46Z"/><path id="phwftWy4K" class="cls-1" d="M93.91,213.35c-9.74-2.1-19.31-5.95-25.67-10.27-4.14-2.8-11.49-10.44-14.34-14.93-5.43-8.46-7.35-15.93-7.82-30.27-.35-10.62.41-22.35,2-30.28,2.39-12.25,7.82-20.18,18.26-26.54l3.79-2.33.35,3.32c.47,4.2,1.17,5.89,3.33,8.4l1.69,2L75,121.77c-.29,5.13-.41,11.55-.35,14.29l.18,5,4.14.35c7.76.58,12.54,5,13,11.9a11.5,11.5,0,0,1-1.23,6.88c-2,4.43-4,5.72-10.15,6.3a23.8,23.8,0,0,1-5.42.23c-.93-.58-1.17,1.75-1.17,11.55v10l2.69,2.51c5,4.55,12.3,7.17,20.41,7.17h4.79l-.94,2.51a26.69,26.69,0,0,0-.93,8.11C99.86,215,100.27,214.75,93.91,213.35ZM71,163.3a68.08,68.08,0,0,1-1.57-8.69c-.47-5.37-1.17-6.83-1.69-3.79-.53,2.86.11,8,1.57,12.36C71.51,169.72,72.74,169.77,71,163.3Z"/><path id="pKb39y9T8" class="cls-1" d="M105.17,104.44a24.5,24.5,0,0,0-1.52-6.7c-1.11-2.51-1.11-2.51.12-2.51,3.67,0,7.76,3.91,9.56,9.1.59,1.69,1.29,3.15,1.52,3.15.7,0,.53-2.34-.41-5a6.25,6.25,0,0,1-.58-2.57c.35-.35,7.87,7.41,7.87,8.11,0,.35-3.15.58-8.1.58h-8Z"/><path id="p1Fzy9OTmp" class="cls-1" d="M95.72,65.25C91.52,63.38,89.59,53,92.51,47.4a16.47,16.47,0,0,1,6-6.77c2-1.05,4.14-.18,5.72,2.39s1.51,3.33-.3,2.86c-2.5-.64-8.92,2.39-7.7,3.67.24.18,1.7-.23,3.27-.93a16.64,16.64,0,0,1,4.73-1.22h1.86l-.23,6.3c-.23,7-1.11,9.39-4.14,11.2C99.57,66.24,98.23,66.3,95.72,65.25Zm6.65-10c-.23-3.5-1.34-2.57-1.52,1.28-.11,3.15-.06,3.33.76,2.22A5.14,5.14,0,0,0,102.37,55.27Z"/><path id="pWCYKHtxh" class="cls-1" d="M115.67,62.15a20,20,0,0,1-2.86-11.43c.35-3.15,1.4-3.73,5.48-3.09,2.22.35,2.28.35,1.69-.88-.58-1-1.1-1.16-3.2-1s-2.45.06-2-.76a5.4,5.4,0,0,1,4-2.62c1.46-.29,1.93-.12,2.86,1.28,1.69,2.63,1.46,12.25-.41,16.86C119.28,65,117.83,65.42,115.67,62.15Zm1.4-6.06c.7-2.51.46-4-.59-4-.29,0-.58.47-.58,1s-.17,2-.35,3.21C115,59.3,116.25,59.18,117.07,56.09Z"/><path id="p1Fv6inPj4" class="cls-1" d="M86.21,57.2C82.65,56,81.14,55,83,55c1.23,0,5-2.1,5.6-3.09.76-1.23,1.11,0,.94,3.15l-.18,3.15Z"/><path id="pZk1TXsOj" class="cls-1" d="M108.09,49.79a22.86,22.86,0,0,0-1.81-6.89l-1.46-2.74,1.57-1.63L107.91,37l1,1.29a9.81,9.81,0,0,0,3.09,2.45c2.1,1.16,2.63,2.21,1.46,2.91-.93.65-1.81,3.21-2.22,6.71-.29,2.69-.52,3.21-1.57,3.39S108.44,53.52,108.09,49.79Z"/><path id="pZ6FhSo39" class="cls-1" d="M285.12,228.51c-3-.93-5-2.68-6.65-5.83-1-1.92-1.22-3.27-1.17-7.29.12-7.82.35-8.17,5.49-9.8a48,48,0,0,1,11.6-1.81c6.6-.35,7.24-.58,4.32-1.51-.64-.24.53-1.64,4.2-5.08,6.36-6.07,9.45-8.28,12.83-9.22,1.87-.52,2.8-1.16,3.21-2.15,1.52-4,5.19-29.69,6.36-44.51.29-4.32.7-9.22.82-10.85.29-3.33-.18-3.79-4.55-4.61-2.51-.47-2.69-1.17-.59-1.69.88-.23,3-1.81,4.67-3.56l3-3.15,2.28,1.64c5,3.61,10,11.89,11.26,18.49a32.56,32.56,0,0,1,.29,8.75c-.18,2.85-.35,6.7-.35,8.57s.11,8.63.17,15.17c.18,13.18-.06,14.64-4.2,25.2-3.85,10-6.12,13.53-11.9,18.78-3.5,3.21-11.66,8-12.54,7.46-.35-.17-3.15,1-6.3,2.63-6.06,3.09-13.36,5.25-17.32,5.19A18.64,18.64,0,0,1,285.12,228.51Z"/><path id="p15q2MX411" class="cls-1" d="M267.27,147.9c-4.37-1.11-7.93-8.69-7.87-17,.05-3,.11-3.21.81-1.93s.76,1.11,1.11-2.22a21.06,21.06,0,0,1,1.05-4.9c.7-1.4,4.61-5.65,5.19-5.65.24,0,.82.93,1.34,2,1.29,2.74,2.45,2.68,1.29-.06-.47-1.17-.88-2.22-.88-2.27a24,24,0,0,1,2.16,1.86,14.81,14.81,0,0,0,3.5,2.57c2.28.87,8.28.64,10.44-.41,2.33-1.11,5.48-4.49,5.48-5.95,0-.82.59-1,3.33-.93h3.27l1.34,3a28.17,28.17,0,0,0,2.56,4.72,9,9,0,0,1,1.17,2c0,.17-3.5.35-7.82.35a93,93,0,0,0-9.5.35c-1.7.35-1.75.46-2.1,4.49-.7,8.16-4.26,15.63-8.75,18.43A11,11,0,0,1,267.27,147.9Z"/><path id="p13JGgtkCi" class="cls-1" d="M302.91,121.07c-.23-1.23-.52-2.74-.7-3.38l-.23-1.17.7,1.17a32,32,0,0,0,3,3.38l2.28,2.16h-2.34C303.38,123.23,303.26,123.17,302.91,121.07Z"/><path id="psUmUOuxO" class="cls-1" d="M174.82,414.47c-.06-2.1-1.93-8.75-3.21-11.31s-1.52-3.33-.94-5.19c.76-2.63.82-10.68.12-13.25-1.11-3.85,2.45-15.45,5.25-17,4.73-2.62,7.18,2.34,9.74,19.25l1.05,6.77-1.63,2c-1.87,2.22-4,8.28-4,11.55,0,1.81-.46,2.51-3.2,4.9C176.27,413.72,174.82,414.76,174.82,414.47Z"/><path id="p17eeZMnai" class="cls-1" d="M287,167.27c-.52-1.35.24-3.62,1.29-4s3.15,1.11,3.15,2.33c0,.88-2.22,2.57-3.39,2.57A1.34,1.34,0,0,1,287,167.27Z"/><path id="pIaWcJOXk" class="cls-1" d="M287.39,152.39c-1.57-1.57-1.45-3.26.24-4.37a3,3,0,0,1,4.2,4.08C290.66,153.85,289,154,287.39,152.39Z"/><path id="pvnTulwdz" class="cls-1" d="M104.24,118.33v-2.57l2.8.29c4,.41,4.19.53,4.19,2.8v2h-7Z"/></g><path class="cls-2" d="M368.8,45.21c1.87-3.29,1.46-6.64.59-10.07l-.39.2a5,5,0,0,1-2.15.58c-1.45,0-2.17-.94-2.76-2a2.61,2.61,0,0,1,.53-2.89c1.6-1.74,4.06-1.24,5.05,1,.17.39.32.79.48,1.2a20.73,20.73,0,0,0,3.25-3.89c-.74-.33-1.52-.6-2.22-1a3.18,3.18,0,0,1-1.47-3.58,3.76,3.76,0,0,1,2-2.64,2.25,2.25,0,0,1,3.05.67,5.26,5.26,0,0,1,1,5.16c0,.11-.07.22-.11.33s0,0,0,.14c3.57.24,7.13.59,10.63-.43l0-.15-.47-.32a3.12,3.12,0,0,1-1.36-3.77,3,3,0,0,1,2.56-2.12A2.76,2.76,0,0,1,390,25a23.74,23.74,0,0,1-.88,2.36c.31.08.7.2,1.1.29a24,24,0,0,0,6.49.52,5.38,5.38,0,0,0,2.07-.68l-.23-.32a6.77,6.77,0,0,1-1.24-2.36,2.73,2.73,0,0,1,.82-2.91.83.83,0,0,0,.23-.3.89.89,0,0,1,.83-.65,13.44,13.44,0,0,1,1.68,0,.88.88,0,0,1,.77.61,1.28,1.28,0,0,0,.29.37,2.75,2.75,0,0,1,.81,2.72,6.7,6.7,0,0,1-1.23,2.46l-.34.42a9,9,0,0,0,1.76.58,21.2,21.2,0,0,0,7.8-.72.5.5,0,0,0,.16-.07c-.29-.75-.64-1.47-.86-2.22a2.76,2.76,0,0,1,4.62-2.65,3.1,3.1,0,0,1-.21,4.81,5.07,5.07,0,0,0-.77.68,17.25,17.25,0,0,0,1.82.45,38.76,38.76,0,0,0,8.68,0l.16-.06c-.09-.33-.19-.65-.27-1a5.22,5.22,0,0,1,1.25-4.71,2.18,2.18,0,0,1,2.77-.65c1.86.72,3.23,3.56,1.61,5.56A4.47,4.47,0,0,1,427.54,29c-.31.1-.64.17-1,.26.8,1.57,2.19,2.62,3.28,4,.13-.33.26-.61.36-.9a3.87,3.87,0,0,1,1.94-2.17,2.16,2.16,0,0,1,1.72-.18c2.07.67,3,3,1.55,4.71-1,1.21-2,1.51-3.79.89a8.75,8.75,0,0,1-1-.46c-.87,3.4-1.28,6.75.59,10.05.09-.18.16-.3.21-.42a3.46,3.46,0,0,1,2.75-2.07,1.73,1.73,0,0,1,1.93.92c.61,1,.74,4-.45,5.31a2.19,2.19,0,0,1-3,.44c-.39-.27-.74-.6-1.16-1-.15.84-.32,1.62-.43,2.42-.14,1.1-.23,2.2-.33,3.31a4.46,4.46,0,0,0,.93,3.05l1.22-1.51a2.46,2.46,0,0,1,1.78-1,1.53,1.53,0,0,1,.9.18,5.49,5.49,0,0,1,2.22,2.75,3.49,3.49,0,0,1-.31,3.16A7.86,7.86,0,0,1,436,62.51a1.85,1.85,0,0,1-2.66,0,19.44,19.44,0,0,1-1.39-1.6c-.1-.12-.18-.25-.31-.41a5.22,5.22,0,0,0-.93,2.4,25.57,25.57,0,0,0,.65,5.79l.13.61c.29-.24.52-.46.77-.67a2.52,2.52,0,0,1,1.51-.67,2.4,2.4,0,0,1,2.39,1.74,5.78,5.78,0,0,1,0,4.23A1.71,1.71,0,0,1,434.11,75a3.41,3.41,0,0,1-2.69-2.07c0-.1-.09-.18-.13-.27s0,0-.11-.09c-1.84,3.24-1.43,6.58-.56,10l.34-.17a5,5,0,0,1,2.28-.61,2,2,0,0,1,1.37.44c1.25,1,1.73,2,1.45,3.23a2.85,2.85,0,0,1-4.44,1.74,3.57,3.57,0,0,1-1.38-1.73c-.12-.32-.25-.64-.4-1l-3.44,4c.47.13.79.2,1.11.3a4,4,0,0,1,2.71,2.34,3.76,3.76,0,0,1-3.12,4.84,2.2,2.2,0,0,1-1.89-1,5.34,5.34,0,0,1-1-5.16l.14-.41c-2-.4-9-.59-10.69.49l.56.39a3.1,3.1,0,0,1,1.21,3.91,3,3,0,0,1-2.48,1.93A2.77,2.77,0,0,1,410,92.66a24.88,24.88,0,0,1,.9-2.35l-2.39-.49a21.83,21.83,0,0,0-5.17-.3,5,5,0,0,0-2.12.69l.28.38a6.27,6.27,0,0,1,1.23,2.46,2.74,2.74,0,0,1-.79,2.69,1.94,1.94,0,0,0-.34.47,1,1,0,0,1-.87.56,10.29,10.29,0,0,1-1.47,0,1,1,0,0,1-.92-.67,1,1,0,0,0-.26-.33,2.75,2.75,0,0,1-.82-2.76,7.35,7.35,0,0,1,1.57-2.84,8.37,8.37,0,0,0-1.71-.57,21.26,21.26,0,0,0-7.93.73.63.63,0,0,0-.17.08,3.18,3.18,0,0,1,.17.3,15.44,15.44,0,0,1,.8,2,2.75,2.75,0,0,1-4.54,2.63,3.11,3.11,0,0,1,.2-5l.66-.47,0-.14c-.62-.15-1.23-.36-1.85-.45a39.25,39.25,0,0,0-8.6,0,1.36,1.36,0,0,0-.22.07c0,.12.06.21.09.3a5.26,5.26,0,0,1-.86,5.16,2.35,2.35,0,0,1-3.31.71c-1.65-.88-2.8-3.5-1.28-5.39a4.58,4.58,0,0,1,2.19-1.4c.32-.1.64-.17,1.11-.3l-3.44-4-.42,1.07a3.73,3.73,0,0,1-2.12,2.11,2.06,2.06,0,0,1-.88.17,3,3,0,0,1-2.55-1.69,2.51,2.51,0,0,1,.24-2.88A2.85,2.85,0,0,1,368.18,82c.4.14.79.34,1.22.52.86-3.39,1.28-6.75-.61-10-.09.18-.15.29-.2.41A3.42,3.42,0,0,1,365.85,75a1.71,1.71,0,0,1-1.93-.9c-.63-1.06-.74-4,.43-5.31a2.19,2.19,0,0,1,3-.43c.37.26.71.58,1.12.92.12-.66.27-1.27.35-1.89.16-1.21.3-2.43.42-3.65a4.48,4.48,0,0,0-.94-3.22L367,62.16a2.3,2.3,0,0,1-1.63.89,1.7,1.7,0,0,1-1-.23,6,6,0,0,1-2.12-2.57,3.51,3.51,0,0,1-.08-2.55,4.81,4.81,0,0,1,1.51-2.23,2.75,2.75,0,0,0,.26-.22,1.83,1.83,0,0,1,2.75,0c.48.47.88,1,1.32,1.54.1.12.19.25.31.42a5.1,5.1,0,0,0,.94-2.45,24.71,24.71,0,0,0-.57-5.36c-.06-.31-.13-.62-.21-1-.28.24-.5.45-.74.65a2.55,2.55,0,0,1-1.5.69A2.38,2.38,0,0,1,363.81,48a5.77,5.77,0,0,1,0-4.23,1.71,1.71,0,0,1,2-1.09,3.42,3.42,0,0,1,2.73,2.08C368.64,44.91,368.7,45,368.8,45.21Zm6.55-15.63-.05-.11a2.12,2.12,0,0,0-.31.28,25.89,25.89,0,0,1-1.68,2.19c-.78.81-1.67,1.51-2.52,2.24a.46.46,0,0,0-.19.55c.21.78.42,1.56.6,2.35.71,3.24.61,6.38-1.23,9.26a2.06,2.06,0,0,0-.24,1.93,21.09,21.09,0,0,1,1,6.31,5.41,5.41,0,0,1-.61,2.54c-1,2-.95,1.49,0,3.48a5.52,5.52,0,0,1,.56,1.84,10.32,10.32,0,0,1-.06,2.72c-.26,1.63-.64,3.25-1,4.86a1,1,0,0,0,.13.9,11,11,0,0,1,1.81,7.75,36.7,36.7,0,0,1-.91,4.26c-.06.26-.05.43.18.59s.62.52.94.77A13.94,13.94,0,0,1,375,88a.54.54,0,0,0,.44.2A47.05,47.05,0,0,1,383,88a9.58,9.58,0,0,1,4.76,1.27.61.61,0,0,0,.44,0,25.42,25.42,0,0,1,5.6-1.07c2-.16,4.07-.23,5.93.89a.67.67,0,0,0,.55,0,7.9,7.9,0,0,1,3.91-.94,27.11,27.11,0,0,1,7.42,1.12.88.88,0,0,0,.6,0A8.57,8.57,0,0,1,416.06,88a41.74,41.74,0,0,1,8.51.15.46.46,0,0,0,.48-.25,18.25,18.25,0,0,1,1.59-2.09c.8-.83,1.71-1.55,2.58-2.31a.46.46,0,0,0,.19-.55c-.21-.76-.41-1.53-.59-2.3-.76-3.35-.59-6.57,1.35-9.53a1.39,1.39,0,0,0,.18-1.41,2.59,2.59,0,0,1-.11-.37,23.14,23.14,0,0,1-.94-6.19,5.55,5.55,0,0,1,.62-2.58c1-2,1-1.49,0-3.48a5.74,5.74,0,0,1-.57-1.89,10.85,10.85,0,0,1,.06-2.67c.27-1.66.68-3.3,1-4.95a1.1,1.1,0,0,0-.12-.76,11.65,11.65,0,0,1-1.75-8.53,34.45,34.45,0,0,1,.85-3.58.41.41,0,0,0-.15-.52c-.33-.24-.62-.51-.94-.76a13.07,13.07,0,0,1-3.29-3.7c-.13-.23-.29-.22-.5-.2a45.42,45.42,0,0,1-7.91.19,9.25,9.25,0,0,1-4.41-1.25.6.6,0,0,0-.44,0,25.56,25.56,0,0,1-5.68,1.08c-2,.15-4,.21-5.85-.9a.65.65,0,0,0-.51,0,8.6,8.6,0,0,1-2.52.89,24.27,24.27,0,0,1-8.8-1,1,1,0,0,0-.81.1,11.06,11.06,0,0,1-2,.82,21.67,21.67,0,0,1-5.51.43C378.49,29.81,376.92,29.67,375.35,29.58ZM425.07,91.3a5.58,5.58,0,0,0,1.09,2.81,1.3,1.3,0,0,0,1.31.56,2.7,2.7,0,0,0,1.81-2.22,2.27,2.27,0,0,0-1.08-2.15,6.24,6.24,0,0,0-2.37-.77.3.3,0,0,0-.4.26ZM374.91,26.54a5.17,5.17,0,0,0-1.08-3,1.22,1.22,0,0,0-1.36-.52,2.63,2.63,0,0,0-1.74,2.27,2.15,2.15,0,0,0,1.11,2.09,5.81,5.81,0,0,0,2.32.75c.22,0,.36,0,.41-.24C374.69,27.41,374.82,26.9,374.91,26.54Zm0,64.74c0-.29-.09-.65-.17-1-.2-.81-.22-.84-1-.66a7.4,7.4,0,0,0-1.66.57,2.38,2.38,0,0,0-.2,4.15,1.31,1.31,0,0,0,2-.24A5.08,5.08,0,0,0,374.9,91.28Zm50.21-64.87c.05.28.08.63.15,1,.21.87.21.87,1.08.72a4.28,4.28,0,0,0,2.23-1,2.43,2.43,0,0,0-.4-3.76,1.31,1.31,0,0,0-2,.23A5.08,5.08,0,0,0,425.11,26.41ZM363.36,58.79l-.12.05a5.8,5.8,0,0,0,.51,1.23,11.76,11.76,0,0,0,1.06,1.18c.38.42.66.34,1-.07.58-.67,1.12-1.39,1.66-2.1a.45.45,0,0,0,0-.42c-.56-.74-1.13-1.49-1.74-2.2-.32-.37-.53-.35-.91,0a5.2,5.2,0,0,0-.44.35A2.76,2.76,0,0,0,363.36,58.79Zm73.29.12.12,0a6.37,6.37,0,0,0-.51-1.23,7.93,7.93,0,0,0-1.08-1.17c-.41-.38-.62-.37-1,.07-.57.68-1.12,1.39-1.66,2.1a.45.45,0,0,0,0,.42c.55.74,1.11,1.47,1.71,2.17.34.4.55.38.95.05.13-.11.28-.21.4-.33A2.8,2.8,0,0,0,436.65,58.91ZM435.42,45.2a4,4,0,0,0,0-.69.94.94,0,0,0-1.3-.85,2.18,2.18,0,0,0-1.53,1.3c-.16.4-.33.79-.46,1.21a.6.6,0,0,0,.09.49,8.66,8.66,0,0,0,1,1.05c.72.66,1.23.57,1.75-.26A4.4,4.4,0,0,0,435.42,45.2Zm0,27.31h0c0-.16,0-.32,0-.48a3.46,3.46,0,0,0-.78-2.15.79.79,0,0,0-1.15-.13c-.28.21-.5.48-.77.69a1.26,1.26,0,0,0-.35,1.79,3.25,3.25,0,0,0,1,1.47,1.55,1.55,0,0,0,1.5.32c.57-.27.61-.85.57-1.42Zm-70.85-.09c0,.28,0,.48,0,.68a1,1,0,0,0,1.35.93,2.25,2.25,0,0,0,1.55-1.39c.59-1.49.58-1.57-.63-2.64-.74-.65-1.24-.58-1.76.25A4.3,4.3,0,0,0,364.58,72.42Zm0-27.24c0,.13,0,.26,0,.39a3.56,3.56,0,0,0,.77,2.24.8.8,0,0,0,1.19.13c.27-.21.5-.48.77-.69a1.23,1.23,0,0,0,.33-1.76c-.27-.5-.4-1.07-.92-1.42s-1-.66-1.6-.37S364.54,44.6,364.59,45.18Zm24.2,47.92a14.38,14.38,0,0,0-.52-1.45c-.45-1-.8-1.07-1.71-.42a1.92,1.92,0,0,0,0,3.36,1.14,1.14,0,0,0,1.3,0A1.48,1.48,0,0,0,388.79,93.1ZM414.44,25a2.2,2.2,0,0,0-1.23-2,1.41,1.41,0,0,0-1.47.35,1,1,0,0,0-.5,1.15,12.68,12.68,0,0,0,.75,2c.28.56.36.55.95.28A2.32,2.32,0,0,0,414.44,25Zm-28.88,0a3.43,3.43,0,0,0,.27.74,2.66,2.66,0,0,0,1.53,1.2.37.37,0,0,0,.51-.16,5.25,5.25,0,0,0,.91-2.21,1.1,1.1,0,0,0-.52-1.15c-.45-.32-.91-.62-1.47-.34A2.14,2.14,0,0,0,385.56,24.94Zm28.89,67.81a4.51,4.51,0,0,0-.3-.77,2.71,2.71,0,0,0-1.51-1.16.38.38,0,0,0-.5.17,5.16,5.16,0,0,0-.91,2.22,1.12,1.12,0,0,0,.56,1.17,1.32,1.32,0,0,0,1.44.3A2.14,2.14,0,0,0,414.45,92.75Zm-45.39-8.88c-1.58-.82-2.76-.89-3.55.51a1.3,1.3,0,0,0,.13,1.6,1.42,1.42,0,0,0,1.82.41A3.62,3.62,0,0,0,369.06,83.87ZM432.92,34.5c.78,0,1.13-.57,1.49-1.07a1.25,1.25,0,0,0,0-1.69,1.42,1.42,0,0,0-1.93-.36A3.47,3.47,0,0,0,431,33.69c0,.08.1.27.2.3C431.77,34.18,432.35,34.33,432.92,34.5Zm-2,49.36a3.4,3.4,0,0,0,1.64,2.53,1.59,1.59,0,0,0,.91.13,1.52,1.52,0,0,0,1.21-1.44,2.23,2.23,0,0,0-1.36-1.74A3.46,3.46,0,0,0,431,83.86Zm-61.89-50c-.29-1-.58-2.05-1.64-2.53a1.51,1.51,0,0,0-.91-.13,1.54,1.54,0,0,0-1.22,1.44,2.24,2.24,0,0,0,1.37,1.74A3.46,3.46,0,0,0,369.06,33.85ZM400,26.66a5.61,5.61,0,0,0,1.25-2.12,1.5,1.5,0,0,0-.55-1.72c-.66-.51-.77-.52-1.43,0a1.39,1.39,0,0,0-.61,1.35A4.94,4.94,0,0,0,400,26.66ZM400,91a5.54,5.54,0,0,0-1.25,2.1,1.49,1.49,0,0,0,.59,1.78c.65.48.67.48,1.32,0a1.49,1.49,0,0,0,.59-1.75A5.64,5.64,0,0,0,400,91Z"/><path class="cls-3" d="M399.53,48.09h0Z"/><path class="cls-4" d="M420.66,49.92c-.09-2.84-.6-5.81-3-7.69-1.59-1.28-2.72-1.43-3.77.44-1.45,2.6-1,5.47.25,8,1,2.06,2.17,3.77,2.09,6.15a16,16,0,0,1-1.64,5.53,32,32,0,0,1-1.71,2.82A65.63,65.63,0,0,0,410.17,58c-1.48-2.89-2.34-6.07-3.72-9,1.66-.33,3.08,0,2.57-2.25-.6-2.58-3.35-2-5.53-2-1.88,0-5.73-.42-6.7,1.76s1,2.1,2.34,2.52a.52.52,0,0,0,.17,0c1.46,1.52,2.1,4.72,2.08,6.63,0,1.74-1,2.9-1.8,4.43a24.35,24.35,0,0,0-2.22,4.35.25.25,0,0,0,0-.07c-.23-.71-.68-1.4-1-2.09-1.25-3.09-2.45-6.07-3.89-9.08-.48-1-2.34-3.28-1.54-4.21,0,0,.09,0,.25,0,1.33.34,2.21-.83,2.07-2.34-.29-2.94-2.32-2.56-4.61-2.46-1.81.08-3.62,0-5.43.12-1.36.06-3.49-.33-4.72.32a1.58,1.58,0,0,0-.58,2.41,3.18,3.18,0,0,0,.63,1.37c1.13,1,3.16-.07,4.2.74.83.65,1.24,2.94,1.67,4.14.57,1.63,1.2,3.25,1.83,4.86,1.54,4,3,8,4.58,12,.69,1.72,2,6.26,4.08,7.15a.25.25,0,0,0,.33.17l.11,0h0a.73.73,0,0,0,.78-.41c1.6-1.16,2.31-3.93,3.17-5.48,1.26-2.26,2.36-4.69,3.4-7.09.32.77.57,1.69.81,2.25.76,1.75,1.74,3.41,2.64,5.08.81,1.51,1.94,4.86,3.72,5.44a.83.83,0,0,0,.91-.37l0,0c1.81-1.32,4.53-6.51,4.77-7.13C418.13,63.34,420.9,57,420.66,49.92ZM416,65.28c-1,2.1-1.73,4.36-2.91,6.38a36.64,36.64,0,0,1-2.58,4.06c-1.34-.46-3.06-4.86-3.71-6a41.49,41.49,0,0,1-2.39-4.7,8.62,8.62,0,0,0-1.25-2.61.72.72,0,0,0-1.13.15c-1.09,2.44-2.19,5-3.4,7.34-.94,1.85-1.73,4.27-2.9,6.1-2.11-2.5-3.25-5.91-4.4-8.91-1.21-3.19-2.53-6.34-3.77-9.52-.6-1.53-1.19-3.06-1.73-4.6-.46-1.28-.7-3.14-1.45-4.22-1-1.42-4.3-.65-5.34-1.77.31-1-.13-1,2.06-1.06,1.33-.06,2.67-.14,4-.14s2.8-.06,4.2-.14a8.27,8.27,0,0,1,1.78-.15c.94.36.78,1.71.11,2.33-.66-.23-1.2-.6-1.79.48-.77,1.41.6,3.38,1.25,4.57a57.89,57.89,0,0,1,3.21,6.75c.88,2.3,1.5,4.83,2.92,6.88a.81.81,0,0,0,.87.36c1.31-.21,1.83-2.86,2.31-3.86,1-2,2.89-4.14,3.09-6.39.17-1.84-.75-7.74-3.24-8.25a.44.44,0,0,0-.22-.27c-.07,0-.63-.28-.61-.25-.77-1.5.18-1.4,1.33-1.51a38.12,38.12,0,0,1,4.27-.18c1,0,2.3-.24,2.9.52,1.11,1.4-1,1-2,1.38a.63.63,0,0,0-.42.75,91,91,0,0,0,3.74,9.85c1.31,2.7,2,5.7,3.33,8.36a.75.75,0,0,0,1.27,0,12.51,12.51,0,0,0,2.21-4.62c1.78-3.47,3.06-6.59.93-10.42a15.59,15.59,0,0,1-2.06-4.22c-.29-1.44-.07-5.27,2-4.73,2.52.64,2.89,5.26,2.94,7.21A32.42,32.42,0,0,1,416,65.28Z"/></svg>