<svg id="Layer_1" data-name="Layer 1" xmlns="http://www.w3.org/2000/svg" xmlns:xlink="http://www.w3.org/1999/xlink" viewBox="0 0 461.57 463.55"><defs><style>.cls-1{fill:url(#linear-gradient);}.cls-2{fill:#fff;}.cls-3{fill:url(#linear-gradient-2);}.cls-4{fill:url(#linear-gradient-3);}.cls-5{fill:url(#linear-gradient-4);}.cls-6{fill:url(#linear-gradient-5);}.cls-7{fill:url(#linear-gradient-6);}.cls-8{fill:url(#linear-gradient-7);}.cls-9{fill:url(#linear-gradient-8);}.cls-10{fill:url(#linear-gradient-9);}.cls-11{fill:url(#linear-gradient-10);}.cls-12{fill:url(#linear-gradient-11);}.cls-13{fill:url(#linear-gradient-12);}.cls-14{fill:url(#linear-gradient-13);}.cls-15{fill:url(#linear-gradient-14);}.cls-16{fill:url(#linear-gradient-15);}.cls-17{fill:url(#linear-gradient-16);}.cls-18{fill:url(#linear-gradient-17);}.cls-19{fill:url(#linear-gradient-18);}.cls-20{fill:url(#linear-gradient-19);}.cls-21{fill:url(#linear-gradient-20);}.cls-22{fill:url(#linear-gradient-21);}</style><linearGradient id="linear-gradient" x1="285.53" y1="243.44" x2="268.44" y2="228.15" gradientUnits="userSpaceOnUse"><stop offset="0" stop-color="#1616e4"/><stop offset="1" stop-color="#439fd2"/></linearGradient><linearGradient id="linear-gradient-2" x1="91.29" y1="149.22" x2="71.87" y2="131.85" xlink:href="#linear-gradient"/><linearGradient id="linear-gradient-3" x1="90.18" y1="150.46" x2="70.75" y2="133.09" xlink:href="#linear-gradient"/><linearGradient id="linear-gradient-4" x1="171.84" y1="324.31" x2="87.6" y2="290.9" xlink:href="#linear-gradient"/><linearGradient id="linear-gradient-5" x1="173.35" y1="320.52" x2="89.11" y2="287.1" xlink:href="#linear-gradient"/><linearGradient id="linear-gradient-6" x1="174.52" y1="317.55" x2="90.28" y2="284.14" xlink:href="#linear-gradient"/><linearGradient id="linear-gradient-7" x1="175.52" y1="315.03" x2="91.28" y2="281.62" xlink:href="#linear-gradient"/><linearGradient id="linear-gradient-8" x1="176.32" y1="313.02" x2="92.08" y2="279.61" xlink:href="#linear-gradient"/><linearGradient id="linear-gradient-9" x1="177.26" y1="310.66" x2="93.02" y2="277.25" xlink:href="#linear-gradient"/><linearGradient id="linear-gradient-10" x1="178.66" y1="307.12" x2="94.42" y2="273.71" xlink:href="#linear-gradient"/><linearGradient id="linear-gradient-11" x1="180" y1="303.73" x2="95.76" y2="270.32" xlink:href="#linear-gradient"/><linearGradient id="linear-gradient-12" x1="180.12" y1="303.45" x2="95.88" y2="270.04" xlink:href="#linear-gradient"/><linearGradient id="linear-gradient-13" x1="182.37" y1="297.78" x2="98.13" y2="264.37" xlink:href="#linear-gradient"/><linearGradient id="linear-gradient-14" x1="183.51" y1="294.9" x2="99.27" y2="261.49" xlink:href="#linear-gradient"/><linearGradient id="linear-gradient-15" x1="184.32" y1="292.85" x2="100.08" y2="259.44" xlink:href="#linear-gradient"/><linearGradient id="linear-gradient-16" x1="185.77" y1="289.18" x2="101.53" y2="255.77" xlink:href="#linear-gradient"/><linearGradient id="linear-gradient-17" x1="185.74" y1="289.26" x2="101.5" y2="255.85" xlink:href="#linear-gradient"/><linearGradient id="linear-gradient-18" x1="187.02" y1="286.04" x2="102.78" y2="252.63" xlink:href="#linear-gradient"/><linearGradient id="linear-gradient-19" x1="187.96" y1="283.67" x2="103.72" y2="250.26" xlink:href="#linear-gradient"/><linearGradient id="linear-gradient-20" x1="188.95" y1="281.16" x2="104.71" y2="247.75" xlink:href="#linear-gradient"/><linearGradient id="linear-gradient-21" x1="189.86" y1="278.87" x2="105.62" y2="245.46" xlink:href="#linear-gradient"/></defs><g id="l4wB3jnEvczdunqyecbAHIN"><path id="p1uLakbKd" d="M241.51,458.29c-.44-.17-.72-1.29-.72-2.63,0-2,.39-2.85,2.29-5,3.3-3.74,7.66-5.7,17.56-7.71,11.8-2.46,11.46-2.3,11.46-5.54a29.08,29.08,0,0,1,.34-4.31c.28-1.56.17-1.73-2.29-2.62-1.79-.73-2.8-1.51-3.19-2.52-1.29-3.19-.11-53,1.51-64.37.17-1.06.95-10.12,1.73-20.13s1.68-21.7,2.07-26l.67-7.83H164c-86.73,0-109-.17-109.27-.67s-.9-.73-1.73-.73H51.38L51,280.46c-.22-15.27-.39-35.9-.39-45.86V216.54H5.52l-.44-37.47c-.23-20.63-.23-54.58,0-75.49l.44-38H6.81c.78,0,1.34-.34,1.34-.78s.56-.9,1.23-1.12,33.28-.34,72.31-.34h71V35.91c0-21.87.17-27.51.73-27.9,1.73-1.07,190.24-1.68,265.35-.79l32.82.34V8.9c0,.89.34,1.29,1,1.29,1,0,1.06,1.56,1.4,35.67.84,80.2.22,202.89-1,204.62-.61.79-5.31.9-50.55.9H352.52l.33,1.17c.17.67.51,5.54.73,10.85.34,8.72.28,9.62-.56,9.62a1,1,0,0,0-.95,1.12c0,.95-1.84,2.51-4,3.47-.17.11,0,3.69.39,8s1.12,12.47,1.62,18.18c2.41,28.52,6,62.41,10.63,99.15.78,6.09,1.4,12.58,1.4,14.37,0,3-.11,3.35-1.12,3.35-.62,0-1.12.34-1.12.79,0,1.9-6.21,5.7-11.46,7l-2.24.61.17,6.27c.11,3.46.28,6.37.33,6.43s3.25-.12,7.05-.45c16.05-1.34,22.26.73,22.82,7.55l.22,3.07-2.13.56c-6.15,1.62-18,3-28.8,3.25l-11.57.33-.84-1.34c-.89-1.34-1.85-8.95-2.46-20.19-.22-4.42-.45-5.48-1.23-5.7-.5-.11-2.13-.56-3.58-.9-3.75-1-6.54-3.69-6.54-6.32,0-1.11-.62-5.87-1.4-10.56-2.63-16.45-5.7-44.13-6.77-61.24-.22-3.47-.61-6.32-.84-6.32s-.5.95-.5,2.13c0,3.85-5.37,49.1-8.05,67.77-.79,5.37-1.46,10.68-1.57,11.75-.17,1.79-.45,2.07-4.08,3.91l-3.91,2,.22,6.54a93.8,93.8,0,0,1-.22,10.18c-.45,4.31.44,3.8-11.75,6.15-20.35,3.92-26.56,4.81-32.55,4.75A42.74,42.74,0,0,1,241.51,458.29Zm46-32.1c4.08-1.12,8.67-3.41,8.67-4.36s.39-4.31,2.46-22.71c.78-6.76,2.52-22.59,3.92-35.23,2.74-24.94,3.63-32.71,5.48-48.09.61-5.54,1.28-12.53,1.39-15.55l.28-5.48-4.25-4.41c-4-4.2-4.25-4.59-4.25-7v-2.52h2c1.79,0,2.51.5,7,5.14,4.69,4.81,5,5.26,5,7.5,0,1.28-.28,2.46-.67,2.57-1.06.39,1.62,47.53,4.31,75.1.95,9.84,1.17,12,3.41,30.48.78,6.93,1.62,14,1.85,15.6.27,2.74.55,3.19,2.23,4.2,6.49,3.74,18.4,3.18,26.68-1.29a17.46,17.46,0,0,1,4-1.73c.95,0,1,.72-1.51-16.16-5.2-34.79-10.12-83.55-11.57-115.09l-.39-8.11-1.74.39A203.54,203.54,0,0,1,320,282c-4.36,0-7.22-1.07-8.11-3-.56-1.23-.95-1.34-6.65-1.57-5.37-.22-6.44-.45-9.4-2a22.49,22.49,0,0,1-5.76-4.41c-1.34-1.57-2.35-2.3-2.35-1.79s-.84.95-3.3,1.23l-3.3.39-.33,2.63c-.17,1.45-.45,5.53-.62,9.06-.45,8.33-2.12,30.87-3.91,53.12-4,50.11-4.81,61.24-5.26,74.1-.22,7.66-.33,14.26-.22,14.54C271.49,426.19,282.73,427.48,287.48,426.19Zm-14-123.53c.16-1.4.72-6.77,1.17-12s1.12-11.63,1.4-14.26a37.57,37.57,0,0,0,.28-5c-.11-.11-6.27.11-13.7.5-12.64.62-13.59.56-15.55-.39-1.79-.84-2.07-1.29-2.24-3.08a3.24,3.24,0,0,0-1.28-2.74c-.79-.39-27.07-.61-86.91-.67-47.14,0-85.89-.28-86.06-.44-.61-.56-1.06-61-.61-82.27l.39-21.13H74.7V172c0,6,.17,14.65.39,19.35l.34,8.5,1.84-3.41a36.93,36.93,0,0,1,16.27-16.28l4.93-2.46,7.66-.17c6.65-.22,8.16-.05,11.74,1,6.21,1.85,11.91,5.09,18.12,10.35,9.39,7.77,12.47,8.83,17.95,6.09,6.1-3,11.63-10.57,18.57-25.11,6.76-14.26,12.41-21.36,20-25.22,4-2,4.64-2.18,10.07-2.35,7.88-.33,10.23.12,13.87,2.58,4.25,2.85,7.49,7.32,11.79,16.16s6.6,12.64,9.4,15.26a6.83,6.83,0,0,1,2.12,3.08c0,.67.56-.06,1.4-1.85,5.26-11.52,17.23-21.08,28.36-22.76,1.45-.22,2.62-.61,2.62-.89,0-1.23,3.92-4.75,6.66-5.93,3.07-1.4,9.67-2.57,17.95-3.24,5.7-.5,6.15-.73,5.54-2.41-.45-1.11-.84-1.23-4.42-1.23a19.46,19.46,0,0,1-5.87-.78c-3-1.29-6.16-5-8.06-9.51s-4.53-16.6-4.53-20.63V107.6l-2.46-.17c-1.34-.11-20.41,0-42.33.23s-65.54.33-96.8.17l-56.93-.28v1.9c0,1.56-.45,2.18-3.08,4.25-2,1.68-2.9,2.74-2.68,3.3a20.21,20.21,0,0,1,.62,2.4l.22,1.57,46.25-.39c25.39-.23,70.51-.17,100.32,0l54.08.39v4.2l-21.36.33c-27.74.51-149,.51-176.27,0l-21.08-.33.16-2c.17-2,.28-2,2.58-2.18s2.35-.28,2.35-1.73a4,4,0,0,1,1.11-2.57c1-1,1.07-1.12.28-2.3a7.42,7.42,0,0,1-.84-3.29c0-1.91.06-2,2-2a6.14,6.14,0,0,1,3.35,1.06l1.4,1.12,2.57-1.79,2.52-1.79-2.46-.11c-1.29-.11-5.65-.23-9.68-.28L56,107.21v198h217.2Zm64-28.24c2.57-.51,6.26-1.46,8.28-2.07,3.35-1.18,3.58-1.34,3.35-2.69s-1.45-12.35-1.45-13.81c0-.56-.9,0-2.63,1.34-5.82,4.76-11.35,7.44-15.32,7.44-2,0-2.18-.17-2.8-2.24a5.69,5.69,0,0,0-1-2.23,19.43,19.43,0,0,0-2.68,3.52c-1.34,1.9-3.52,4.81-4.86,6.49-2.19,2.63-2.41,3.19-1.91,4.3a3.94,3.94,0,0,0,2,1.79C319.92,276.77,329.93,275.76,337.42,274.42Zm-28.69-3.75c2-1.68,11.41-13.14,13.31-16.16.78-1.18.84-1.57.23-2.41s-1-.89-5.65.28c-4.53,1.23-4.76,1.35-3.19,1.79s1.73.73,1.73,2.07c0,3.19-3.24,6.88-7.94,9-1.28.56-1.56,1.06-1.56,2.57,0,1-.23,1.84-.51,1.84s-.33.62-.16,1.4C305.32,272.91,306.33,272.85,308.73,270.67Zm-44.18-4.36c5.26-.28,12.53-.56,16.28-.56,6.6,0,6.76-.06,7.38-1.34.73-1.62,2.91-2.35,9.34-3.13,4.7-.62,9.23-2,9.23-2.86,0-.28-.45-.5-1-.5a4.61,4.61,0,0,1-2.24-.89c-1-.68-1.23-1.4-1.23-3.58,0-3.58.67-4,8.67-5.6,3.41-.72,6.21-1.34,6.32-1.45s-.56-4-1.51-8.72-2.57-14-3.69-20.58-2.07-12.86-2.24-13.87c-.33-1.73-.39-1.79-1.56-.95a8.34,8.34,0,0,1-4.09.84c-2.35,0-3.13-.28-4.36-1.46l-1.45-1.51v1.68c0,1.51-.17,1.68-3.19,2.29-8.89,1.79-38.53,5.71-43.4,5.71a6.14,6.14,0,0,0-4.13,1.12,6.36,6.36,0,0,1-3.58,1.11c-2.58,0-2.41-1.11-1.57,11,.5,7.32.78,9.05,1.57,9.73,1.95,1.67,5.09,7.6,5.09,9.73,0,1.34-.28,2-.79,2-1.4,0-1.34,1.29.17,4.19,1.34,2.52,1.45,3.53,1.62,10.35.17,5,.45,7.66.84,7.94a5,5,0,0,0,2.35.17C254.32,267,259.35,266.59,264.55,266.31ZM83.65,237.56c0-19.79.11-22.76.89-23.48s2.41-.9,9.62-.9c4.81,0,9.17.28,9.62.56.73.45.84,3.75,1,23.32l.12,22.82,1.84.17c1,.11,5.09.05,9.06-.17l7.27-.39V244.22c0-8.39.23-15.49.45-15.77.61-.62,20.86-.62,21.47,0,.23.28.45,7.33.45,15.71v15.27l5.65.39c3.13.23,8.78.17,12.64,0l7-.39v-27.9c0-20.7.16-28.08.67-28.58s3.8-.67,11.13-.67c10,0,10.45.05,10.68,1.12a2.38,2.38,0,0,0,.84,1.51c.44.28.61,7.94.61,27.57V259.6h4.25a49.32,49.32,0,0,1,6,.33l1.73.34.17-11.86c.16-11,.22-11.91,1.23-12.63.84-.56,3-.79,8.11-.79a42.92,42.92,0,0,1,7.77.45c1.06.73,1.9,9.51,1.68,17.56l-.17,7.16h6.88c7.77,0,7.94-.11,5.65-4.64-1.18-2.3-2.13-10-2.35-19.41-.12-3.3,0-3.69,1.17-4.19a1.44,1.44,0,0,0,1-2c-.79-3.75-1.57-21.47-1.29-29.92.22-7,.62-10.57,1.4-13.53l1.12-4.08h-1.4c-3.52,0-7.89-5.54-14.2-17.84-7.72-15.16-14.32-19.63-23.83-16.28-5.48,1.9-10.45,6-14.59,12.14-1.29,1.9-4.76,8.27-7.66,14.15-6.77,13.59-8.95,17-13.54,21.25-5.25,5-7.49,5.81-14.7,5.87-5.32,0-6.16-.17-8.67-1.51a66.42,66.42,0,0,1-8.11-5.87c-6.38-5.32-10.68-8-15.94-10-10.29-3.86-19.24-1.56-28,7.27-4.36,4.42-7.72,9.85-10.91,17.79l-2.12,5.14L75,237.4l-.39,22.76h9.06Zm15.93,1.63v-21H88.4v41.94H99.58Zm120.8,10.9V240h-8.67v20.13h8.67Zm-80-3.91V232.76H128.05v13.42L128,259.6h12.42Zm49.49-12.87V207H175.64V259.6H189.9Zm146.35,23c6.48-4.59,11-10.12,15-18.68,6-12.69,9.06-30.81,7.61-44.85-1.4-13-4.36-22.48-9.34-30-2.63-3.91-10.85-12.64-13-13.81-1.06-.56-1.17-.5-1.17.67,0,2.12-1.29,5.31-4.31,10.57l-2.8,4.92,1,3.75a41.56,41.56,0,0,1-.28,20.13,278.22,278.22,0,0,0-7.61,29.47c-1.67,7.94-1.73,8.5-1.06,13a19.86,19.86,0,0,0,1,4.7c.56-.05,3.75-4.58,5.76-8.11,6.21-11.07,9.28-24.94,7.72-34.67-.34-2.12-.79-5.48-.95-7.44l-.34-3.52,2.18.17,2.18.17,1,3.91c1.51,5.76,1.84,17.62.73,24.49a69,69,0,0,1-5.37,17.17,65,65,0,0,1-8.61,12.25l-1.91,1.84,2.18,3.25c2.52,3.69,4.76,8.5,5.26,11.41.23,1.11.62,2,.84,2A34,34,0,0,0,336.25,256.3Zm112.85-127,0-117.16h-292V63.31h54c29.69,0,54.24.23,54.63.45s.79,4,1.07,11.74c.39,11.08.39,11.3,1.34,9.73,1.17-1.9,3.75-4,4.81-4,.61,0,.78-1.23.78-5.6,0-4.86.17-6,1.34-8.27,3-5.82,7.72-8.5,15.72-9,4.14-.17,5.65,0,8.61,1,6.54,2.18,9.84,5.09,15.83,14,2.18,3.24,5.59,7.77,7.54,10.12,3.14,3.75,3.86,4.31,6.21,4.86,4.81,1.12,9.23,3,10.8,4.76,4.13,4.47,4.8,17.67,1.34,24.83-2.91,5.87-7.1,8.78-14.26,9.78-3.86.56-4.59.51-5.82-.33s-1.45-1.23-1.45-4.87.11-4.08,1.9-5.87,2.18-1.9,5.26-1.9,3.52-.17,4.53-1.45c1.5-1.91,1.5-2.07-.56-4.42s-3-2.46-4-.84a2.8,2.8,0,0,1-2.58,1.12c-1.56,0-2.63-.67-6.09-3.92-3.3-3.07-4.59-3.91-5.87-3.91-1.51,0-1.68.17-1.35,1.29a13.48,13.48,0,0,1,.34,2.79c0,1.34.22,1.51,2,1.51,1.9,0,2,.06,2,2.13a5.63,5.63,0,0,1-.5,2.68,5,5,0,0,0-.73,2.18c-.16,1.57-.33,1.68-2.51,1.85s-2.41,0-2.41-1.23-.28-1.4-1.79-1.57c-1.73-.17-1.84-.33-2-2.52-.11-1.34,0-2.4.28-2.4s.39-1.73.28-3.91c-.17-3.42-.34-3.92-1.29-3.92s-1.06-.39-1.06-2.12a5.65,5.65,0,0,1,.5-2.69c.34-.28-.44-1.56-2.07-3.3l-2.62-2.79-2.3,3.46c-2.29,3.47-2.29,3.47-1,3.75.72.22,1.34.61,1.34.89s.89.56,2.07.56h2l-.39,5.2c-.17,2.8-.5,6.21-.67,7.5-.34,2.12-.17,2.51,1.4,4.08a5.17,5.17,0,0,1,1.73,3.41c0,1.57-.06,1.62-3,1.62-3.3,0-4.48-.78-5.15-3.46-.56-2.3-1.28-1.91-1.51.83-.17,2.35-.17,2.35-2.4,2.35s-2.24-.05-2.41-2.07c-.17-1.67-.39-2.12-1.28-2.12s-1.07-.39-1.07-2.8v-2.79h4.09l-.4-2.07c-.16-1.18-.33-2.57-.33-3.08,0-1.62-2.91-1.28-4.64.56l-1.46,1.51L285,112c3.41,17.67,7.66,24,16.27,24,4.53,0,5.54.67,5.87,3.92.45,3.85,1.29,5.42,3.24,6.37,2.52,1.17,5.32.34,8.28-2.46,1.29-1.23,2.74-2.24,3.3-2.24a6.1,6.1,0,0,0,2.74-1.67,5.1,5.1,0,0,1,4.42-1.68c3,0,5.37,1.34,12.36,7,2.51,2,4.75,3.52,4.92,3.35s.39-19.4.45-42.67.22-42.89.44-43.61c.39-1.23.62-1.29,5.54-1.12l5.14.16.4,2.8c.44,3.64.55,83,.05,89.08l-.33,4.59h-4.37L355,159.5a3.3,3.3,0,0,0,2.68,1.68c2.86,0,3.25.89,3.53,7.54a60.56,60.56,0,0,0,1.56,11.75c1.23,5.14,1.35,6.71,1.35,20.13,0,13.14-.12,15.16-1.35,20.69-1.73,8.17-4.19,15.83-6.76,21l-2.07,4.2H449.1ZM50.65,201V190.48l-5-.56c-10.46-1.23-18.24-7.66-23.6-19.52-2.91-6.48-2-11.24,2.46-12.3,2.51-.67,2-2.35-.84-2.8-4.31-.72-4.36-.78-4.36-6.87,0-7.72,1.62-12.87,6.09-19.3,5.09-7.44,15.77-13.81,23-13.81h2.79V103H46.63a60,60,0,0,1-6.71-.34c-2-.33-2.13-.5-2.13-2.46s.17-2.12,1.73-2.46a58.75,58.75,0,0,1,6.94-.34,58.55,58.55,0,0,1,6.93.34c1.57.34,1.74.56,1.74,2.52s-.12,2.12-1.79,2.29c-1,.11,45.46.17,103.28.17H261.76V67.79h-2.91c-2.52,0-3,.16-3,1a6.83,6.83,0,0,1-2,3c-1.62,1.57-1.85,2.07-1.12,2.29a2.29,2.29,0,0,1,.84,2.07c0,1.4.22,1.68,1.4,1.68s1.4.23,1.4,1.9c0,1.85-.06,1.9-2.91,2.24-3.75.5-232.58.5-236.33,0-2.85-.34-2.91-.39-2.91-2.18V78l32.61-.39c17.89-.22,68.44-.28,112.4-.22l79.8.22V76.4a2.85,2.85,0,0,1,.56-1.68c.45-.45.33-.84-.28-1.34a4,4,0,0,1-.84-2.57V68.9h2.85a10.94,10.94,0,0,1,3.75.51c.67.39,1.34.22,2.24-.39,1.11-.9-6.55-1-118.06-1H10.11V211.51H50.65Zm194.28-3.74c.16-6.83.33-8.34,1.62-11.92,5.14-14.42,17.95-22.7,33.66-21.75,7.1.39,11,2,14.82,5.93,5,5,7.44,11.52,8.17,21.42.39,5.25.95,6.87,1.84,5.48.56-.84.56-1.07-.84-8.67-2.46-13.26-7.38-20.8-16.49-25.17-5.71-2.74-10.63-3.41-15.89-2.23-14.42,3.18-25.78,15.49-29.58,32.15-1,4.36-1.73,12.42-1.23,13.7.34.9.45.84,2.07-.11l1.73-1Zm10.12,3.63c3-.62,5.48-1.12,5.59-1.12,1,0,8.67-27.57,7.88-28.41-.67-.61-6.59,3.36-9.89,6.66A31.41,31.41,0,0,0,250,194.28c-.78,4.08-1.11,7.72-.61,7.72C249.51,202,252.08,201.5,255.05,200.88Zm60.67-14.26c.51-7.89,2.69-27.35,3.69-33.5.34-2,.34-2.12-.67-1.56-1.73.89-7,1.34-9.56.78-2.29-.5-2.29-.5-2.63,1.23-.17,1-.45,4.14-.61,7.05s-.62,6.15-.84,7.15c-.39,1.4-.17,2.58.84,5,1.51,3.8,3.35,12.19,3.91,17.84.39,4,.39,4,2.24,4.3,1.68.34,1.9.62,2.29,3l.5,2.63.12-2.52C315.11,196.69,315.39,191.54,315.72,186.62ZM273,198.08c2,0,2.85-1.34,3.24-5.25.23-2,1-6.77,1.74-10.46s1.39-6.88,1.39-7a6.21,6.21,0,0,1,2.24-.22h2.24v2.74c0,2.57-2,16.83-2.52,18.39-.22.62.28.73,2.35.45,1.51-.17,4.14-.45,5.93-.67a21.6,21.6,0,0,0,3.18-.45s-.39-2.18-.83-4.81c-1-5.7-1.07-9.22-.23-12.63.62-2.41.56-2.63-.84-4.09-2.62-2.74-7.21-4.69-11.8-5s-4.19-.9-5.36,6c-.51,3.13-4.14,18.28-5.32,22.31-.39,1.29-.28,1.34,1.46,1A17.07,17.07,0,0,1,273,198.08Zm25.16-7.6c-.72-3.3-.84-3.47-.61-1.12.17,1.51.28,3.52.28,4.42,0,1.23.17,1.56.61,1.12S298.78,193.22,298.16,190.48Zm26-7.22c1.12-4.36,1.17-4.58.16-9.22-.72-3.41-1.06-4.42-1.39-3.64-.45,1.07-2.24,20.69-2.13,22.93C320.87,194.62,322.43,189.92,324.17,183.26Zm-273.52.12v-1.85l-4.19-.61a22.34,22.34,0,0,1-17.62-12.75c-2.29-4.76-2.12-4.53-2.79-3.86s4.64,8.94,8.33,12.8a26.23,26.23,0,0,0,11,7.11C49.7,185.73,50.65,185.56,50.65,183.38Zm0-22.88c0-8.72.17-19.46.39-23.87l.34-8L50,129c-2.35.67-7.22,4.19-10.35,7.44-3.63,3.8-7.32,10.79-7.94,15.21-1.34,9.34,4,18.73,12.92,22.93a16.08,16.08,0,0,0,4.75,1.67h1.23Zm243.93-5.76-.22-4.25-2.57.34c-3.92.56-8.89,1.85-10.63,2.8l-1.51.78,1.79.05c2.24,0,10.12,2.47,11.63,3.58a4.58,4.58,0,0,0,1.4.9C294.64,158.94,294.7,157,294.58,154.74Zm34.06-3a12.8,12.8,0,0,0,1.79-5.36c-.22-7.11-4.36.16-6,10.62l-.33,2.24,1.39-2C326.18,156.14,327.63,153.63,328.64,151.72Zm-27.51,0c.05-1.56-.17-2.29-.45-1.95-.62.56-.9,3.41-.67,6.65l.17,2.24.5-2.24A32.28,32.28,0,0,0,301.13,151.72Zm52.62-42.27c0-40.88-.06-43.34-.95-43.34s-1,2.07-.9,36.24c.12,54,.06,50.44,1,50.44C353.64,152.79,353.75,147.59,353.75,109.45ZM30.13,138.08a49.52,49.52,0,0,1,5.26-6.43c4.13-4.2,9.39-7.22,13.53-7.77,2.18-.28,2.29-.4,2.29-2.24s-.11-2-1.51-1.62a48.93,48.93,0,0,0-6.32,2.68c-3.8,1.85-5.65,3.24-9.22,6.82A33.94,33.94,0,0,0,25,144.34c-1.45,4.36-1.45,5-.16,5.2.78.17,1.23-.72,2.4-4.36A46.23,46.23,0,0,1,30.13,138.08Zm237.39-36.85c-.84-2.58-1-2.63-1-.28,0,1.45.23,2.07.78,2.07S268,102.68,267.52,101.23Z"/><path id="pdHVU5ecK" class="cls-1" d="M272.66,247a17.94,17.94,0,0,1-.56-4.93,11.22,11.22,0,0,0-1.39-6.09,11.91,11.91,0,0,1-.9-9c.73-1.91,3.08-3.25,6.43-3.58,5.37-.56,8.17,2.18,8.17,7.94,0,2.07-.28,2.91-1.51,4.14-1.51,1.45-1.57,1.79-1.57,7.1v5.53l-4.08.17C273.33,248.47,273.22,248.41,272.66,247Z"/><path id="p1DotcqmMo" d="M381.88,208.32a3.5,3.5,0,0,0-.95-1.4c-.84-.56-1.18-31.54-.39-33.61.56-1.51.61-1.51,6.15-1.51,3.46,0,5.7.22,6,.62s.39,7.6.45,16.21.28,15.77.5,15.94c.79.78.39,4-.5,4.36a35.47,35.47,0,0,1-5.87.34C383,209.27,382.16,209.1,381.88,208.32Zm6.26-17.79v-13.7h-3.07v27.41h3.07Z"/><path id="pT8a71uXq" d="M408,200.88c-.67-.45-.83-2.24-.83-10.63s.16-10.17.83-10.62c.45-.34,3.25-.5,6.16-.45l5.31.17.33,1.68a72.19,72.19,0,0,1,.4,9.22,71.57,71.57,0,0,1-.4,9.23l-.33,1.68-5.31.17C411.24,201.38,408.44,201.22,408,200.88Zm7.27-10.63V184.1h-3.35v12.31h3.35Z"/><path id="pKKOaASRC" d="M408.44,177.06c-.56-.17-1.12-1.12-1.4-2.35-.5-2.69-.56-107.82,0-109.83l.39-1.57h13.48l-.17,56.43c-.11,31-.39,56.65-.61,56.93C419.63,177.17,410,177.5,408.44,177.06Zm7.66-57V68.34h-4.47V171.8h4.47Z"/><path id="pPbVV5p6j" d="M380.54,163.92l-1.35-1.18L379,118c-.06-24.66,0-45.41.16-46.08.4-1.74,3.58-2.63,8.22-2.29a25.12,25.12,0,0,1,4.09.5c.11.17.33,14.09.56,31,.39,35.06-.17,61.29-1.23,61.68a1.07,1.07,0,0,0-.73.95c0,1-1.29,1.4-5,1.4C382.66,165.09,381.54,164.81,380.54,163.92ZM387,117.28V75.06h-3.35V159.5H387Z"/><path id="pODB8oHK7" d="M295.48,125.61c-1.29-.67-1.57-1.18-1.57-3,0-2.24,0-2.24,2.18-2.24a12.44,12.44,0,0,1,3.58.51c1.79.72,4.59-.06,7.11-1.91a6.89,6.89,0,0,1,4-1.39c2.07,0,2.13,0,2.13,2.12,0,2.35-1.57,4.25-4.87,5.93C305.71,126.78,297.66,126.78,295.48,125.61Z"/><path id="p2ICbk7Me" d="M274.06,48.21l-11.18-.28-.17-2.07-.17-2.06,6.6-.23c3.63,0-1.23-.22-10.85-.28S240.51,43,240,42.84s-.89-1-.89-2.18c0-1.73.06-1.79,3-2.18,3.81-.44,42.84-.44,46.7.06l3,.33-.23,2.18-.22,2.13h23.88c13.09,0,28,.17,33.11.39l9.33.34v4.14l-16.88.33C322.82,48.77,292.4,48.72,274.06,48.21Z"/><path id="pHSeXK7TS" d="M320.08,42.23l-9.95-.17v-4.3l11-.34c6-.22,18.06-.39,26.73-.39s20.69.17,26.73.39l11,.34v4.13l-15.22.34C356.1,42.62,343,42.56,320.08,42.23Z"/><path id="pGzmWsWHy" d="M165.46,31c-2.29-.22-2.4-.33-2.4-2.06V27.13l15.21-.34c19.74-.5,226.65-.5,246.39,0l15.21.34v1.79c0,1.79,0,1.79-3.41,2.18C432.88,31.44,169.6,31.38,165.46,31Z"/><path id="pCixYvNTM" d="M22.92,123.32c-.45-3.75,0-25.73.61-27.18.34-.78.89-1,2.46-.84l2,.17.17,4.75c.06,2.63-.05,9.56-.28,15.38l-.45,10.62-2.06.17-2,.17Z"/><path id="p18iuku8OV" d="M29.85,94.8c-.73-.17-1-.79-1-2.07,0-1.74.17-1.9,2.13-2.24,2.74-.45,39.48-.45,42.83,0,2.46.34,2.58.45,2.58,2.18,0,1.4-.28,1.9-1.23,2.18C73.69,95.24,31.3,95.19,29.85,94.8Z"/><path id="pUV5KlbsW" d="M26.77,89.2c-.39-.11-.72-1.06-.72-2.12,0-1.57.22-1.85,1.73-2.18,2.29-.45,28.63-.45,31.43,0,1.9.33,2.07.5,2.07,2.18,0,1.4-.28,1.9-1.23,2.18C58.54,89.65,27.72,89.65,26.77,89.2Z"/></g><g id="l1DNhxg25tZcTeMd5hltRcr"><path id="pCmdLD2Mb" class="cls-2" d="M-114.32,204.79V-130.74H556.75V540.33H-114.32ZM262.21,455.33c12.69-2.3,23.65-4.37,26.22-5.09,2-.51,2-.56,2.46-4.25a85.3,85.3,0,0,0,0-10.18l-.33-6.49,2.91-1.28c3.35-1.46,5.92-3.25,5.36-3.75-.16-.17-1.56.28-3.07,1a29.48,29.48,0,0,1-14.49,3.35c-5.36-.06-11.68-1.51-12.19-2.8-.16-.39-.05-7.82.23-16.49.5-14.6,1.23-25.17,5.31-75.39,1.79-22.25,3.47-44.79,3.91-53.12.17-3.52.45-7.61.62-9.06l.34-2.63,3.29-.39c1.79-.22,3.3-.62,3.3-.95,0-.67-17.44-.17-28.68.78-6.38.56-7.27.56-8.56-.28-1.85-1.28-2.29-2.57-1.17-3.41s1.17-1.9.28-3.91c-.51-1.18-.51-1.57,0-1.91,1.73-1.06-.73-9.78-3.75-13.19-1.79-2-1.79-2.35,0-2.07,2.4.33,2-.51-1.18-2.24-4.13-2.29-6.48-7.49-2.85-6.32.62.17,1.85,1.57,2.8,3,2,3,3.8,4.87,4.3,4.36s-3.52-7.1-4.86-8.22c-.84-.72-1.06-2.4-1.57-10.34-.33-5.2-.78-10.46-1-11.58l-.33-2.12h2.51a7.34,7.34,0,0,0,6.55-4.2c.39-1.06,1.34-1.28,10.12-2.4,12.13-1.57,22.37-3,33.22-4.59,6.26-.95,8.38-1.12,8.55-.61.39,1.17,2.52,2.85,3.64,2.85a4.07,4.07,0,0,0,3.74-2.57c.56-1.35,1.46-1.68,2.58-.9.28.23,1.51,6.32,2.68,13.54,2.24,14.09,5.09,29.19,6,32.54.39,1.34.84,2,1.34,1.74s.78.05.78.61c0,1.17-1.06,1.57-8.66,3.08a39.23,39.23,0,0,0-7.38,2.07c-2.86,1.78-.79,4.41,3.85,5,1.46.22,2.69.56,2.69.78,0,.67-3.69,3.3-5.76,4.2a37.45,37.45,0,0,1-6.54,1.34c-10,1.23-11.3,2.35-7.67,6.48a18.81,18.81,0,0,0,13.26,6.27c4,.28,4.3.22,6-1.23l1.79-1.51v1.45c0,3.52,2.85,5.93,7.1,5.93,1.17,0,5.76-.5,10.23-1.06,7.44-1,10.52-1.57,13.76-2.58,1.12-.33,1.17-.16,1.57,8.22,1.23,29.42,5.92,76.67,11.24,113.75,1.56,11.07,3.07,20,3.41,20.3.5.5.16-3.8-1.18-14.32-4.58-37-8.22-70.85-10.62-99.15-1.4-16.66-2.52-28.18-2.8-28.91-.11-.39.06-.72.45-.72.89,0,4.53-2.24,4.14-2.58a4.51,4.51,0,0,0-2.35.62c-3.08,1.23-11.69,2.85-20.86,3.91-8.95,1-11.24.73-12.36-1.73-1.17-2.68-.73-4.25,2.46-8.22,1.68-2.13,4.36-5.82,6-8.28s3.08-4.25,3.3-4a25.21,25.21,0,0,1,1.63,4,13.57,13.57,0,0,0,1.62,3.46,33,33,0,0,0,3.8-1.34c4.47-1.73,8.05-4.19,12.25-8.44l3.41-3.47.39,5.87c.5,8.5,1.51,15.77,2.18,15.77s.17-12.52-.73-19.24c-.61-4.19-.61-4.36.9-6.93,4.14-7,7-14.82,9.23-25.56,1.17-5.42,1.34-7.66,1.34-19,0-11.63-.17-13.36-1.34-18.45a61.08,61.08,0,0,1-1.57-11.75c-.28-6.65-.67-7.55-3.52-7.55-1.18,0-2-.72-4-3.58l-2.57-3.52.56-3a50.68,50.68,0,0,0,.22-9.17c-.22-3.36-.39-6.38-.33-6.71.33-5.93.5-57.71.16-63.92l-.44-8.5h6.15v90l-2.52.17c-3.41.22-3.19,1.23.34,1.45l2.85.17.33-4.64c.51-6,.4-82.1,0-85.73l-.39-2.8-3.47-.17c-3.13-.16-3.47,0-3.86,1.12-.22.73-.39,21.37-.39,45.91s-.11,44.57-.17,44.57a33.64,33.64,0,0,1-2.79-2.57,103.71,103.71,0,0,0-14-10.9c-2.13-1.18-2.41-1.23-3.8-.51-2.13,1.12-3.86,4.09-5.2,8.73-2.63,9.06-5.26,33.44-6.1,56.42-.17,6.1-.5,10-.78,9.23s-1.07-5.09-2-9.62L312.2,197l-1.85-.34c-1.79-.34-1.79-.34-2.18-4.31-.61-6.76-2.9-15.82-5.09-20.41-4.41-9.17-14.87-15.77-25-15.77h-3.41l1.9-1.95c2.4-2.47,6-3.81,13.31-5,7.77-1.23,7.43-1.23,6.71.84s-.23,8.11.95,10.9c.45,1.12,1,2,1.17,1.79a19.53,19.53,0,0,0-.39-5,24.07,24.07,0,0,1-.11-7.21c.45-2.4.61-2.57,3-3.13a13.74,13.74,0,0,1,2.69-.5,13.94,13.94,0,0,1-.45,2.74c-.89,4-1.4,15.6-.73,16.83s.95-.11,1.9-11.35l.68-8,1.51,1.45c3,2.91,8.33,2.86,12.47-.11,2.29-1.56,4.3-4.25,3.69-4.86-.17-.23-1.35.67-2.63,1.84-3.47,3.3-7.94,4.25-11.58,2.52-2-.95-2.85-2.52-3.3-6.38-.33-3.24-1.34-3.91-5.59-3.8-5.54.17-9.23-2.52-12.13-8.72-1.91-4.09-4.14-12.47-5.09-19.07L282,105.2l5.87-5.71a59.12,59.12,0,0,0,8.61-10.12L299.17,85l1.12,1.57c2.57,3.57,5.31,6.09,10.57,9.84A95.16,95.16,0,0,1,320.2,104l3.8,3.58,1.51-1.51c2-2,4.36-1.51,6.88,1.17s2.51,5.76.11,8.22c-1.57,1.57-1.9,1.62-4.47,1.29s-2.91-.28-4.76,1.56c-1.56,1.57-2,2.41-2,4.2,0,3.24,1.29,4,5.37,3.35,6.71-1.06,11.69-5.42,14-12.36,1.85-5.59.56-15.32-2.51-18.67-1.57-1.74-6-3.64-10.8-4.76-2.34-.56-3.07-1.12-6.2-4.86-2-2.35-5.37-6.88-7.55-10.12-6-8.9-9.29-11.8-15.83-14-11-3.75-22.37,3.46-22.31,14.09a13.52,13.52,0,0,0,.84,4.92c1.12,2,1.06,2.12-.84,2.52A10.46,10.46,0,0,0,272,84.45c-4.81,4-5.14,13.65-.67,18.34l1.73,1.9-64.36-.33c-65.1-.39-155.74.17-151.61,1,3.69.67,134.66,1.17,178.12.67,22.31-.28,41.71-.39,43.22-.28l2.63.22v2.52c0,4,2.69,16.16,4.53,20.64s5,8.22,8.05,9.5a19.48,19.48,0,0,0,5.88.79c3.69,0,4,0,4.47,1.45a10,10,0,0,1,.56,3.24c0,1.68-.11,1.79-2.07,1.9-9.12.51-18.51,2.07-22.2,3.7-2.57,1.17-6.49,4.69-6.49,5.87,0,.28-1.17.67-2.63.89-11.8,1.74-23.54,11.58-28.91,24.22-3.58,8.44-4,11.07-3.86,26.67.06,8.05.45,16.44.9,19.74l.78,5.76-1.45.67c-1.63.79-1.57,0-.73,11.3.39,5,.84,7.32,1.73,9.06a11.91,11.91,0,0,1,1.18,3.63,8.86,8.86,0,0,0,.78,2.86l.84,1.51H223.73V251c0-10.18-.22-12.31-1.23-11.3-.28.22-.45,5.31-.45,11.3v10.85h-6.37c-6.32,0-6.32,0-6-1.24.17-.72.34-6,.34-11.74V238.35h6.1c3.41,0,6.26-.23,6.43-.51.56-.83-1.23-1.17-6.6-1.17-7.78,0-7.33-.78-7.33,13.37v11.74l-7.83-.22-7.83-.28.23-15.21c.22-17.62-.39-39.71-1.12-39.26-.28.17-.5,12.19-.5,27.4,0,25.39-.06,27.07-1,27.12-.56.06-4.53.11-8.84.17l-7.83.06V205.07l7.49.17c7.89.23,10.69-.11,9.73-1.06-.72-.73-17.28-.45-18,.34-.56.61-1,28.79-.73,46.13l.22,10.85-14.37.06H143.93l-.11-15.49c0-8.51-.28-15.66-.5-15.94-.62-.62-17.51-.62-18.12,0s-.62,29.8,0,30.36c.22.23.56.28.72.06s.34-6.88.34-14.88V231.08H142.7l-.5,5.48a146.6,146.6,0,0,0-.12,15.21l.34,9.79H103.11l-.06-22.82c-.11-19.57-.22-22.87-1-23.32-.45-.28-4-.56-7.94-.56-5.76,0-7.27.17-8,.9s-.84,3.41-.72,23.48l.16,22.6H80.46c-2.8,0-5.26.22-5.43.5-.55.84,40,1.28,104.8,1.12,49.88-.17,64.31-.06,65.26.5s1.29,1.29,1.4,2.8c.17,1.73.5,2.23,2.13,3s3,.89,12.58.44c5.87-.28,12.08-.67,13.87-.84l3.19-.33v1.68c0,.95-.23,4.13-.56,7.15s-.95,9.62-1.4,14.71-1,10.35-1.18,11.75l-.28,2.51-105.24-.17c-57.88-.05-107.15.06-109.44.34-8.22.89,44.62,1.34,130.19,1.17,56.76-.16,84.55-.05,84.55.34s-.39,4.7-.84,9.79-1.45,17.28-2.24,27.12-1.51,18.79-1.67,19.85c-1.57,11.07-2.74,57.94-1.51,61,.39,1.06,1.39,1.79,3.18,2.52l2.63.95-.39,5.93c-.45,5.92-.67,6.54-2.8,7-.61.16-4.75,1-9.22,1.95-9.62,2.07-14,4-17.28,7.72-2.35,2.69-2.8,3.8-1.57,4.25C245.15,457.45,253.48,456.84,262.21,455.33Zm101.05-2.8c4.13-.62,8.5-1.4,9.67-1.73,2-.51,2.13-.73,1.79-2.07a8.38,8.38,0,0,0-5.59-5.26c-2.63-.78-14.54-.73-19.85,0a14.93,14.93,0,0,1-4,.28c-.28-.11-.45-2.57-.5-5.37a74.25,74.25,0,0,0-.45-8.05l-.39-2.91,2.79-.67c3.75-.9,8.67-3.36,10.41-5.26,1.56-1.73,1.45-1.73-2.8.51-8.45,4.47-23,5-29.7,1.11-1.73-1-1.95-1.45-2.29-4.47-.22-1.79-1.06-8.72-1.84-15.32-4-33.44-5.26-48.54-7-80.7-1.29-23.32-1.4-29.13-.56-28.63,2.79,1.73-4.48-7.27-8.17-10.07-3.47-2.68-2.12.06,2.35,4.76l4.25,4.42-.28,7.15c-.11,3.92-.73,11.69-1.4,17.23-1.73,14.54-2.63,22.37-5.48,48.09-1.4,12.64-3.13,28.46-3.91,35.23-2.46,21.75-2.46,21.75-1.62,20.86,1.06-1,8-57.38,10.62-86.4,2.13-22.7,2.24-23.1,2.69-8.83a745.52,745.52,0,0,0,8,83c.79,4.75,1.46,9.67,1.57,10.9.28,2.74,2.57,4.87,6.37,5.88,1.46.39,3.08.78,3.64.95.78.22.95.89.95,4.3a41,41,0,0,0,.56,6.94c.28,1.62.67,5.2.84,8.05.17,3.35.61,5.59,1.17,6.49l.9,1.39,9.89-.33A166.42,166.42,0,0,0,363.26,452.53Zm-309-246.9c0-76.89-.17-99.2-.67-100.1s-.67.84-.73,9.29v10.4l-2.29.33c-4.25.56-9.4,3.58-13.76,8.11a29.85,29.85,0,0,0-8.28,14.43c-.56,2.12-1.06,3.91-1.12,4a18.33,18.33,0,0,1-3-.56c-1.9-.39-2.85-.95-2.85-1.51,0-2.18,2-8.67,4-12.92,4.08-8.56,12.81-15.88,22.54-18.79,3.13-1,3.24-1.06,1.51-1.23a16.28,16.28,0,0,0-5.37,1C31,122.53,21.07,135.51,21,148.43c0,4.25.23,4.52,4.37,5.2l2.34.39v2.68c0,2.52-.11,2.74-1.62,3.08-1.73.39-4.42,2.85-3.8,3.46.22.17,1.4-.22,2.68-.89a5.47,5.47,0,0,1,3-1,4.86,4.86,0,0,1,1.34,2.46,26.39,26.39,0,0,0,7.83,11,23,23,0,0,0,11.74,4.65l3.47.39v7.27l-3.91-.28a24.51,24.51,0,0,1-15.33-7.61c-3.63-3.74-3.8-4-7.55-10.12-1.51-2.52-2.9-4.36-3.07-4.08s.78,2.68,2.12,5.31c3.81,7.66,8.39,12.64,14,15.49,3.69,1.85,9.06,3,11.91,2.46l1.79-.33v31.54c0,48,.62,87.4,1.34,86.17C54.12,304.9,54.29,275.82,54.29,205.63Zm19,32.05.39-24.78,2.13-5.14c3.24-7.94,6.6-13.37,10.9-17.78,6.94-7,13.09-9.57,22-9.12S124,184.33,134,192.66c7.49,6.21,9.84,7.38,15.1,7.33s8.16-1.29,13-5.82c4.59-4.25,6.77-7.66,13.54-21.25,2.91-5.87,6.37-12.25,7.66-14.15,5.87-8.61,13.48-13.36,21.7-13.42s13.42,4.47,20.07,17.5c4.7,9.23,8,14.21,10.91,16.44,2.63,2,2.57,1.12-.06-1.34-2.79-2.63-5.09-6.37-9.39-15.26s-7.55-13.31-11.8-16.17c-3.47-2.34-6.27-3-12.31-2.57a17.71,17.71,0,0,0-8.38,2.41c-7.44,3.8-13.15,11-19.86,25.16-9.06,19.07-16.33,26.84-25.1,26.84-4.2-.05-7.22-1.62-14.43-7.6-6.6-5.48-12.19-8.67-18.46-10.57-3.46-1.06-5.09-1.23-10.12-1-5.76.23-6.26.34-10.9,2.69a37.74,37.74,0,0,0-13.76,12,115.52,115.52,0,0,0-7.1,14.26C73.75,209.6,73,189.58,73,171.69c0-14.6-.89-10-1.28,6.71-.73,29.3-.23,84.83.72,84.27C72.69,262.51,73.08,251.27,73.3,237.68Zm378.09,11c1-1.29,1.57-84.78,1.06-164.64-.45-77-.39-72.14-.89-72.14-.67,0-1.18,119.45-.79,178.23l.45,58.16L417.17,248c-32.94-.28-64.43.22-63.7.95s35,1,66.83.72C445.69,249.48,450.89,249.25,451.39,248.64ZM279.54,241c-.05-5.37-.05-5.53,1.57-7.1,1.84-1.85,1.95-2.63.84-5.37-1.51-3.58-5.26-4.36-8.84-1.84-2.29,1.56-2.57,4.13-.78,7.49a11.22,11.22,0,0,1,1.45,6.21,17.22,17.22,0,0,0,.56,4.92c.5,1.28.78,1.45,2.91,1.28l2.4-.16ZM51.16,214.36c1.45-.9-2.91-1.12-23-1l-20,.11.39-43.62c.34-44.34-.16-102.61-.95-102.61s-1.23,72.75-.84,111L7.2,214.8l21.59.06C40.64,214.86,50.71,214.64,51.16,214.36Zm208.92-7.05c8.89-1.06,29-4,33.44-4.86,1.74-.4,3.19-.9,3.19-1.12,0-.56.45-.56-6,.11-14.48,1.57-40.38,5.59-40.38,6.26S251.8,208.26,260.08,207.31Zm131.64-.22c.56-.39.56-.56.06-.9s-.62-2.51-.39-9.17c.16-4.81.16-12-.06-16l-.39-7.27-4.08-.17c-3.92-.17-4-.11-4.59,1.29-.67,1.73-.67,28-.06,29.64.9,2.12,1.23-3.58,1.07-16.67l-.17-12.69h6.71v30.75h-3.19c-3,0-3.8.39-2.85,1.29C384.28,207.76,390.83,207.65,391.72,207.09Zm26.4-9.29a52.85,52.85,0,0,0,.39-7.55,53.41,53.41,0,0,0-.39-7.54c-.34-1.63-.45-1.68-4-1.85-2-.06-4,.11-4.48.45-.67.39-.84,2.07-.84,8.94s.17,8.56.84,8.95c.45.34,2.46.51,4.48.45C417.67,199.48,417.78,199.43,418.12,197.8ZM418.4,175c.83-.84-.56-1.23-4.42-1.23h-4V66.67h7.83l-.17,47.64c-.17,46.36.11,62.58,1.07,56.93.22-1.4.44-25.83.44-54.35L419.07,65h-5c-4.92,0-5,0-5.37,1.57-.5,2-.5,103.79,0,106.47.28,1.23.84,2.18,1.4,2.35C411.46,175.77,418,175.49,418.4,175Zm-30.54-12.14c1.12-.67.51-1.17-2.07-1.45s-4.3.56-3,1.45A6.29,6.29,0,0,0,387.86,162.85Zm-5.65-44.73c.06-36.13-.22-46.64-1.11-45.19-.62.9-.68,85.73-.06,87.69C381.88,163.52,382.16,154.07,382.21,118.12Zm8.06,9.84c.05-16.95,0-36.52-.12-43.51l-.22-12.69-2.12-.34c-2.35-.39-5.54.11-5.54.84s1.57,1.12,4.14,1.12h2.35l-.23,32.94c-.28,34.11.17,56.2,1.07,53.79C389.88,159.39,390.15,144.9,390.27,128ZM26.33,110.79c.22-8.56.16-13.37-.17-13.59-1-.61-1.29,1.51-1.62,11.41s.11,16.78.95,15.88C25.71,124.21,26.1,118.06,26.33,110.79Zm280.33,13c2.3-1.17,5-3.8,4.42-4.3-.17-.23-1.51.39-3,1.34a11.81,11.81,0,0,1-9.73,1.85c-2.58-.73-2.8-.79-2.8-.06,0,1.06,3.13,2.18,6,2.24A11.49,11.49,0,0,0,306.66,123.76Zm-32-.22a.54.54,0,0,0,0-.78c-.68-.67-213.51-.56-214.52.11-.56.39,3.75.67,13.42.89C94.05,124.21,274.17,124,274.68,123.54ZM74.14,120.46a10.43,10.43,0,0,0-1.4-2.46l-1.34-2,3.86-3.19c3.63-3,4.64-4.19,3.47-4.19a29,29,0,0,0-4.53,2.85l-4,2.8-2.24-1.79c-2.85-2.24-3.46-1.68-1.17,1.06l1.68,2.18-2,2c-2.57,2.63-2,3.25,1.06,1.12l2.35-1.68,1.68,1.91C73.08,120.8,74.14,121.41,74.14,120.46Zm218.1-3.8c0-.89-.9-1.06-1.4-.22s.22,1.79.89,1.4A1.66,1.66,0,0,0,292.24,116.66Zm7.71-.28c-1.73-1.68-1.73-1.73-1.4-6.26.23-2.52.51-5.93.73-7.49.23-1.91.17-3-.22-3-.95,0-2.07,5.65-2.07,11,0,5.65.84,7.5,3.41,7.5C301.63,118.12,301.57,118.06,300,116.38Zm12-3a.88.88,0,0,0-.62-.72c-.33-.12-.61.22-.61.72s.28.84.61.73A.89.89,0,0,0,311.92,113.36Zm-22.2-.84a1.13,1.13,0,0,0-.67-1c-.45-.17-.73.23-.73,1s.28,1.12.73,1A1.31,1.31,0,0,0,289.72,112.52Zm3.63-.28a.84.84,0,1,0-.83.84A.86.86,0,0,0,293.35,112.24Zm15.38-1.39c.17-.34-.05-.73-.56-.9-1.06-.45-1.67,0-1.12.84A.91.91,0,0,0,308.73,110.85Zm4.64-1.51c.12-.45-.28-.73-.95-.73s-1.17.33-1.17.89C311.25,110.51,313,110.34,313.37,109.34Zm-19.46-2.46c0-2.8-1-5-1.73-3.81-.45.73-.28,2.57.39,5.15C293.07,110,293.91,109.17,293.91,106.88Zm15.38-2c-.45-3.07-.73-3.69-1.45-3.24-1.23.78-.17,5.87,1.23,5.87C309.52,107.49,309.57,106.6,309.29,104.86Zm-44.18-20.3c0-15.32-.22-18.17-1.17-17.17-.62.56-.95,22.54-.5,29.14.28,4.53.55,5.87,1.06,5.37S265.11,96.42,265.11,84.56Zm28.75,15.21c1.84.28,2.46-.84.84-1.45a4.4,4.4,0,0,0-5.2,1.12c-1.57,2-1,2.74,1.06,1.28A4.14,4.14,0,0,1,293.86,99.77Zm-240.52.79c.67-.73-.62-1.07-4.59-1.35-4.53-.28-9.28.23-9.28,1,0,.28.67.62,1.56.73C42.94,101.34,52.89,101,53.34,100.56Zm259-1.35c0-.72-1.79-2.18-3.13-2.57s-4.14.5-4.14,1.34c0,.28.95.56,2.12.56a7.2,7.2,0,0,1,2.91.56C311.19,99.77,312.37,99.83,312.37,99.21ZM73.86,93c2.13-.84-4.19-1.18-21.75-1.18S29.18,92.17,31.36,93C32.81,93.57,72.41,93.57,73.86,93Zm-15.1-5.6c2-.78-2.85-1.17-15.43-1.17C31,86.24,27,86.58,28.4,87.41,29.29,88,57.25,88,58.76,87.41Zm194.05-7.27C256.73,79.47,207.57,79,135,79,65.14,79,15.7,79.42,16.32,80,17.21,80.93,247.67,81,252.81,80.14Zm-8.56-4c2.19-1.12,2.41-1.12,4.2-.28,3.07,1.45,4,1.12,2-.62l-1.85-1.56,2.8-2.74c2.62-2.46,3.41-3.69,2.51-3.69a27.79,27.79,0,0,0-3.69,2.51c-3.69,2.74-4,2.85-6,1.68a6.53,6.53,0,0,0-2.79-.78H240l1.17,1c.67.5,1.68,1.23,2.24,1.62,1,.56.95.73-.9,2.35C240.17,77.52,241,77.8,244.25,76.12Zm8.84-9.9c7.83-.11,11.74-.34,11.18-.67S215.73,65,137.89,65C23.31,65-9.52,65.33,20.73,66.11,32.7,66.44,233.07,66.56,253.09,66.22ZM155.67,32.28l-.16-21.81h146.9c80.75,0,147.08-.17,147.3-.4a.59.59,0,0,0,.06-.78c-.23-.22-46.86-.5-103.68-.67-104.86-.28-189.58.22-190.92,1.06-.61.39-.84,4.92-.95,24.38-.11,13.15,0,25.06.22,26.46C155.34,65.83,155.84,54.31,155.67,32.28Zm200.2,14c.17-.17.12-.45-.11-.68-.56-.55-63-.95-78.29-.44-7.44.22-13.08.61-12.8.89s5.36.56,11.35.67C290.56,47,355.54,46.65,355.87,46.26ZM289.66,41c.56-.9-5.42-1.18-24.27-1.18-19,0-25.33.34-23.93,1.18C242.41,41.61,289.27,41.61,289.66,41Zm94.23-.9a.43.43,0,0,0-.05-.55c-.12-.17-9.68-.45-21.2-.62-22.2-.39-50.83.11-50.83,1,0,.28,4.47.56,9.95.67C333.9,40.83,383.5,40.44,383.89,40.1Zm51.79-10.84c6.15-.84-32.05-1.18-134.22-1.18-99.59,0-140.42.34-134.49,1.18C170.49,29.7,432.21,29.76,435.68,29.26Z"/><path id="pFYBgYYMx" class="cls-2" d="M302.64,273.63c-.23-.27,0-.67.33-.78.56-.22.56-.45-.05-.84-.39-.28-.62-.84-.39-1.17.39-.62-.28-.84-5-1.51-2.24-.34-2.46-.5-1.12-.62,6.82-.67,7.66-.84,6.93-1.34a16.71,16.71,0,0,0-5-.5c-5.54,0-6.66-.73-2.46-1.57a29.61,29.61,0,0,1,4.92-.67c4-.05,9.56-3.24,11.46-6.49l1.12-1.84-2.07-.56c-1.12-.34-2.74-.73-3.58-1-3.07-.73-1.56-1.73,5.31-3.52a53.66,53.66,0,0,0,8.06-2.63c1.34-.84,1.67-.56,3.69,3.41,1,1.9,1.34,1.28-7.27,12.08-7,8.78-8.45,10-11.91,10C304.15,274.14,302.8,273.91,302.64,273.63Z"/><path id="pORsiuqSL" class="cls-2" d="M245.15,261.67c-1.34-1.12-2.69-3.13-2.69-4s2.41,1.18,3.36,3.08a15.89,15.89,0,0,1,1,2.23A9.54,9.54,0,0,1,245.15,261.67Z"/><path id="pitL2PamL" class="cls-2" d="M86.72,239.19v-22.6l7.72-.16,7.66-.17-.39,2c-.22,1.06-.45,11.35-.45,22.81v20.81H86.72Z"/><path id="ppVYjeafV" class="cls-2" d="M330.09,261.44a15.48,15.48,0,0,1-.61-2.68c-.62-3.19-3.8-9.62-6.71-13.37l-2.46-3.18,2.68-2.52a60.77,60.77,0,0,0,9.51-13.09,61.32,61.32,0,0,0,6-28.24c-.28-6-1.79-13.42-2.74-14-.44-.28-.5.22-.22,1.51a62.55,62.55,0,0,1-6.94,44c-1.9,3.41-7.77,11.24-8.44,11.29a44.49,44.49,0,0,1-1.45-7.32l-1.12-7.33,2.07-9.9a269.59,269.59,0,0,1,7.6-29.3,30.54,30.54,0,0,0,.23-17.06,30.54,30.54,0,0,1-1.12-5.31c0-.67,1.28-3.52,2.85-6.26,3.63-6.32,3.91-7.1,4.36-11.35l.34-3.53,5,4.14c11,9,16.67,18.06,19.57,31,6.83,30-1.34,64-18.62,77.62a34.72,34.72,0,0,1-6.09,3.92C330.6,262,330.43,262,330.09,261.44Z"/><path id="p3QvHAdVV" class="cls-2" d="M243.53,255.68c-1.9-1.51-3.58-4.53-2-3.46.4.22,1.63,1,2.8,1.73s2.07,1.73,2.07,2.35C246.38,257.75,245.88,257.64,243.53,255.68Z"/><path id="pjNFXgz6E" class="cls-2" d="M244.09,251.66a14.39,14.39,0,0,1-4.64-7.61c-.23-1.62-.17-2.29.22-2.07a1.32,1.32,0,0,1,.56,1,7.65,7.65,0,0,0,1.28,2.35c1.91,2.52,4.48,7.05,4.2,7.38C245.54,252.78,244.81,252.33,244.09,251.66Z"/><path id="p1B3GUVYMl" class="cls-2" d="M317.74,211.23c.78-18.63,4.36-54.42,6.15-61.46.95-3.92,2.85-7.44,4.42-8.5,2.85-1.85,5.14,3.41,3.63,8.33a44,44,0,0,1-3.69,7.49c-1.68,2.8-3.24,6-3.41,7a27.57,27.57,0,0,0,1,7.33c1.62,6.87,1.4,9.28-1.9,20.52-1.4,4.75-3.19,11.8-4,15.66C317.57,218.27,317.46,218.44,317.74,211.23Z"/><path id="p1gE2mYtH" class="cls-2" d="M239.28,207.81c-.56-1.45.28-13,1.23-17,3.91-16.44,14.54-28.29,28.57-31.87A29.11,29.11,0,0,1,290,161.18c8.44,4.25,13.08,11.29,15.66,23.76,2.29,11.13,2.07,14.26-1.12,14.26-2.13,0-2.57-.95-3-6.71-1.51-20.07-12.47-30-29.14-26.62A31.43,31.43,0,0,0,248.28,187c-1.68,5-2.29,11.63-1.4,15.21.45,1.85.45,2.91.06,3.69C245.65,208.32,240,209.72,239.28,207.81Z"/><path id="p8R2bIxA2" class="cls-2" d="M247.89,203.84c-.67-.67-.39-6.82.45-11.24,1.95-9.73,8.22-18.12,16.49-22.09a44,44,0,0,1,5.82-2.4c1.45-.34,1.57-.28,1.23.67-.28.56-1.9,6.88-3.69,14-2.69,10.63-5.2,18.68-5.87,18.68-.06,0-3.19.61-7,1.4C247.33,204.46,248.34,204.35,247.89,203.84Z"/><path id="p114ZfQH1z" class="cls-2" d="M264.27,201.16c0-.11.68-1.57,1.46-3.24,1.4-3.19,5.2-17.68,6.32-24.44s.56-6.15,5.87-6.15c7.21,0,12.47,2.12,15.71,6.43,1.46,1.9,1.51,2,.67,3.8-1.45,3.08-1.67,6-.72,11.3,1.17,6.71,1.17,8.66-.06,8.66-.56.06-4,.4-7.72.79a55.64,55.64,0,0,1-6.87.61,29.05,29.05,0,0,1,.67-4c1.28-6.37,2.79-17.56,2.4-17.95a.51.51,0,0,0-.67-.05c-.45.44-3,13.58-3.41,17.44a19.58,19.58,0,0,1-.78,4.25C276.8,199.2,264.27,201.61,264.27,201.16Z"/><path id="p1GmmQD4kY" class="cls-2" d="M296.09,197.41c0-.11-.11-1.4-.16-3s-.4-5.7-.62-9.28c-.56-8,.06-9.85,1.85-5.65,2.4,5.59,4.36,16.27,3.13,17C299.62,196.91,296.15,197.69,296.09,197.41Z"/><path id="pbbt3rh5m" class="cls-2" d="M356.66,167.05c-.9-1.9-.84-2.52.17-2.52.55,0,.83.62.83,2C357.66,168.84,357.5,168.89,356.66,167.05Z"/><path id="pyd4yQDY9" class="cls-2" d="M47.13,177.9C35.61,175.21,28.06,163.24,30,150.77c1.51-10.06,10-20.52,19.41-23.82a13.38,13.38,0,0,1,3.3-.89c0,.11,0,12-.17,26.34l-.34,26.11-1.45,0A27.68,27.68,0,0,1,47.13,177.9Z"/><path id="pr9sejOK7" class="cls-2" d="M410.23,190.25v-7.82h6.71v15.65h-6.71Z"/></g><path class="cls-3" d="M74,133.76h0Z"/><path class="cls-4" d="M82.29,134.48a3.82,3.82,0,0,0-1.16-3c-.62-.5-1.07-.56-1.48.17a3.3,3.3,0,0,0,.1,3.14,4.9,4.9,0,0,1,.82,2.41,6.46,6.46,0,0,1-.64,2.17c-.21.37-.43.75-.67,1.1a25.29,25.29,0,0,0-1.09-2.8c-.58-1.13-.91-2.38-1.45-3.52.65-.13,1.2,0,1-.88-.23-1-1.31-.8-2.17-.79s-2.24-.17-2.62.69.4.82.92,1h.06a4.32,4.32,0,0,1,.82,2.6,3.88,3.88,0,0,1-.71,1.74,9.79,9.79,0,0,0-.87,1.71v0c-.09-.28-.27-.55-.38-.82-.49-1.21-1-2.38-1.53-3.56-.18-.38-.92-1.29-.6-1.65,0,0,0,0,.1,0,.52.13.86-.33.81-.92-.11-1.15-.91-1-1.81-1-.71,0-1.42,0-2.13.05a5,5,0,0,0-1.85.12.63.63,0,0,0-.23,1,1.36,1.36,0,0,0,.25.54c.44.37,1.24,0,1.65.29s.49,1.15.65,1.62c.23.64.47,1.28.72,1.91.6,1.56,1.18,3.13,1.8,4.69.27.68.78,2.46,1.59,2.81a.11.11,0,0,0,.13.06h.06a.28.28,0,0,0,.3-.16c.63-.46.91-1.54,1.24-2.15.5-.89.93-1.84,1.34-2.78.13.3.22.66.32.88.29.69.68,1.34,1,2s.76,1.91,1.46,2.14a.34.34,0,0,0,.36-.15h0a10.73,10.73,0,0,0,1.87-2.8C81.3,139.74,82.38,137.24,82.29,134.48Zm-1.85,6c-.4.82-.68,1.71-1.13,2.5a14.69,14.69,0,0,1-1,1.59c-.52-.18-1.2-1.9-1.45-2.35a16.78,16.78,0,0,1-.94-1.84,3.57,3.57,0,0,0-.49-1,.28.28,0,0,0-.44.05c-.43,1-.86,1.95-1.34,2.88a25.93,25.93,0,0,1-1.13,2.39,11.86,11.86,0,0,1-1.73-3.49c-.48-1.25-1-2.49-1.48-3.73-.23-.6-.46-1.2-.68-1.81a7.29,7.29,0,0,0-.56-1.65c-.39-.56-1.69-.26-2.1-.7.12-.41,0-.37.81-.41.52,0,1-.06,1.57-.06s1.09,0,1.64,0a3.61,3.61,0,0,1,.7-.06c.37.14.31.67,0,.91-.26-.09-.47-.23-.7.19s.24,1.33.49,1.79a23.78,23.78,0,0,1,1.26,2.65A12.57,12.57,0,0,0,72.9,141a.33.33,0,0,0,.34.14c.52-.08.72-1.12.91-1.52a8.37,8.37,0,0,0,1.21-2.5c.07-.72-.29-3-1.27-3.24a.19.19,0,0,0-.08-.1l-.24-.1c-.31-.59.07-.55.52-.59A15.55,15.55,0,0,1,76,133c.38,0,.9-.09,1.14.2.43.55-.38.41-.78.54a.25.25,0,0,0-.17.3,34,34,0,0,0,1.47,3.86c.51,1.06.79,2.24,1.3,3.28a.29.29,0,0,0,.5,0,5,5,0,0,0,.87-1.81c.69-1.36,1.2-2.59.36-4.09a6.09,6.09,0,0,1-.81-1.66c-.11-.56,0-2.06.8-1.85,1,.25,1.13,2.07,1.15,2.83A12.58,12.58,0,0,1,80.44,140.5Z"/><path class="cls-5" d="M72.81,281.79a1.92,1.92,0,0,1,1.44-.58,2.92,2.92,0,0,1,1.53.46,3,3,0,0,1,1.55,2.73,2.22,2.22,0,0,1-.61,1.71,3,3,0,0,1-1.9.68l-1.31.09v1.29c0,.82-.12,1.29-.38,1.4a.6.6,0,0,1-.56-.07,13.64,13.64,0,0,1-.25-3.66q0-1.65,0-1.95a6.79,6.79,0,0,1,.09-1.4A1.85,1.85,0,0,1,72.81,281.79Zm2.9,1.3a1.74,1.74,0,0,0-1.39-.72,1.15,1.15,0,0,0-.64.12.9.9,0,0,0-.24.53,4.77,4.77,0,0,0,0,.76,8.42,8.42,0,0,0,0,.9,1.82,1.82,0,0,0,.25.86,1.75,1.75,0,0,0,.88.13,2,2,0,0,0,1.26-.35,1,1,0,0,0,.46-.89A2.1,2.1,0,0,0,75.71,283.09Z"/><path class="cls-6" d="M80.46,281.72a2.58,2.58,0,0,1,1.65-.51,2.08,2.08,0,0,1,1,.23,4,4,0,0,1,1.16,1.63,5.37,5.37,0,0,1,.66,2.07.72.72,0,0,1,0,.17,2.49,2.49,0,0,1-1.07,1.5,3.22,3.22,0,0,1-1.82.55,2.78,2.78,0,0,1-2.28-1,2.68,2.68,0,0,1-.61-1.81A3.76,3.76,0,0,1,79.5,283,3.26,3.26,0,0,1,80.46,281.72Zm2.05,1.37a2.64,2.64,0,0,0-1.11-.24c-.52,0-.83.12-.93.37a4.47,4.47,0,0,0-.14,1.28,1.9,1.9,0,0,0,.48,1.36,1.51,1.51,0,0,0,1.16.51,2,2,0,0,0,1.28-.49,1.36,1.36,0,0,0,.56-1.06,1.55,1.55,0,0,0-.34-.94A2.83,2.83,0,0,0,82.51,283.09Z"/><path class="cls-7" d="M86.78,282.44a1.61,1.61,0,0,1,.09-.67.34.34,0,0,1,.35-.17.48.48,0,0,1,.48.39,14.39,14.39,0,0,1,.35,2c.18,1.47.48,2.2.88,2.2.21,0,.41-.24.61-.74a9.77,9.77,0,0,0,.51-2.09,10,10,0,0,1,.27-1.44c.08-.22.19-.32.34-.32h.14a.51.51,0,0,1,.41.29,3.48,3.48,0,0,1,.21,1,11.06,11.06,0,0,0,.42,2c.19.6.35.9.49.9s.48-.24.65-.72a5.09,5.09,0,0,0,.27-1.78,6.55,6.55,0,0,1,.06-1.15.29.29,0,0,1,.29-.26l.19,0a.5.5,0,0,1,.43.25,2.22,2.22,0,0,1,.15.86,3.74,3.74,0,0,1,0,.4,4.62,4.62,0,0,1-.64,2.5,1.77,1.77,0,0,1-1.43,1,1.35,1.35,0,0,1-1.15-.77c-.21-.35-.35-.53-.44-.53s0,0,0,0-.2.44-.58.88a1.65,1.65,0,0,1-1.29.6,1.33,1.33,0,0,1-1-.46,5.07,5.07,0,0,1-.68-1.79A11.06,11.06,0,0,1,86.78,282.44Z"/><path class="cls-8" d="M97,282.6a2.63,2.63,0,0,1,1.7-.93,1.91,1.91,0,0,1,1,.37,1.54,1.54,0,0,1,.61,1.42,2.51,2.51,0,0,1-.16.9,1.67,1.67,0,0,1-.8.7,2.48,2.48,0,0,1-1.16.36q-.36,0-.36.12a1.26,1.26,0,0,0,.14.37,1.39,1.39,0,0,0,.22.31.57.57,0,0,0,.33.08,9.8,9.8,0,0,0,1.6-.32,2.24,2.24,0,0,1,.37-.05c.17,0,.26.13.26.4,0,.49-.63.86-1.9,1.13l-.17,0a1.88,1.88,0,0,1-1.29-.62,2.34,2.34,0,0,1-.73-1.39,6.22,6.22,0,0,0-.41-1.39.82.82,0,0,1-.1-.37Q96.22,283.41,97,282.6Zm1.37,1.6a.28.28,0,0,0,.14,0,.81.81,0,0,0,.57-.24.71.71,0,0,0,.25-.55,1,1,0,0,0-.09-.35c-.1-.23-.21-.34-.31-.34a1.25,1.25,0,0,0-.48.18.9.9,0,0,0-.58.79C97.9,284,98.07,284.17,98.4,284.2Z"/><path class="cls-9" d="M102.67,283.87a15.94,15.94,0,0,1,.07-2.06.38.38,0,0,1,.4-.37.39.39,0,0,1,.37.15,1.23,1.23,0,0,1,.09.57c0,.39,0,.58.12.58a1,1,0,0,0,.4-.23,2.56,2.56,0,0,1,1.44-.37,2.41,2.41,0,0,1,1.11.23.88.88,0,0,1,.46.83c0,.39-.16.58-.48.58s-.47-.07-.47-.23-.23-.24-.7-.24a1.13,1.13,0,0,0-1,.54,4.5,4.5,0,0,0-.51,1.85,5.17,5.17,0,0,1-.2,1.1.4.4,0,0,1-.38.27c-.31,0-.5-.18-.58-.56A16.94,16.94,0,0,1,102.67,283.87Z"/><path class="cls-10" d="M109.78,282.6a2.63,2.63,0,0,1,1.71-.93,1.88,1.88,0,0,1,1,.37,1.55,1.55,0,0,1,.62,1.42,2.51,2.51,0,0,1-.16.9,1.67,1.67,0,0,1-.8.7,2.51,2.51,0,0,1-1.17.36c-.23,0-.35,0-.35.12a1.26,1.26,0,0,0,.14.37,1.13,1.13,0,0,0,.22.31.53.53,0,0,0,.33.08,9.57,9.57,0,0,0,1.59-.32,2.54,2.54,0,0,1,.37-.05c.18,0,.27.13.27.4,0,.49-.64.86-1.9,1.13l-.18,0a1.86,1.86,0,0,1-1.28-.62,2.36,2.36,0,0,1-.74-1.39,5.79,5.79,0,0,0-.4-1.39.85.85,0,0,1-.11-.37Q109,283.41,109.78,282.6Zm1.37,1.6a.3.3,0,0,0,.14,0,.81.81,0,0,0,.57-.24.72.72,0,0,0,.26-.55,1,1,0,0,0-.09-.35c-.1-.23-.21-.34-.32-.34a1.22,1.22,0,0,0-.47.18.89.89,0,0,0-.58.79C110.66,284,110.82,284.17,111.15,284.2Z"/><path class="cls-11" d="M119.46,279a.77.77,0,0,1,.6-.18c.12,0,.19,0,.21.07s0,.2,0,.57,0,.9,0,1.61,0,1.4.07,2.07c0,1.16,0,2,0,2.6a7.22,7.22,0,0,1-.07,1.29c0,.22-.12.36-.24.4a.88.88,0,0,1-.27,0,.66.66,0,0,1-.42-.12.41.41,0,0,0-.28-.11,1,1,0,0,0-.44.19,1.87,1.87,0,0,1-1.17.34,2,2,0,0,1-1.57-.62,1.76,1.76,0,0,1-.46-.79,7.35,7.35,0,0,1-.1-1.53,5,5,0,0,1,.39-2.25,2.09,2.09,0,0,1,1.35-1,1.78,1.78,0,0,1,.53-.11,1.6,1.6,0,0,1,.89.41l.71.51v-1.62A4.65,4.65,0,0,1,119.46,279ZM118.3,283a1.46,1.46,0,0,0-.75-.31.92.92,0,0,0-.63.37,2.75,2.75,0,0,0-.51,1.85,4,4,0,0,0,.18,1.23,1,1,0,0,0,.52.67l.23,0a1.56,1.56,0,0,0,.9-.35,2.07,2.07,0,0,0,.73-.84,1.86,1.86,0,0,0,.19-.85A2.06,2.06,0,0,0,118.3,283Z"/><path class="cls-12" d="M126.79,278.22a.43.43,0,0,1,.44-.3h.09a.32.32,0,0,1,.28.22,2.44,2.44,0,0,1,.07.76c0,.13,0,.57,0,1.32l0,2.24,1-.34a3.57,3.57,0,0,1,1.21-.22,2,2,0,0,1,1.64.73,3.13,3.13,0,0,1,.61,2.05,2.66,2.66,0,0,1-.12.94,2.09,2.09,0,0,1-.57.66,3.39,3.39,0,0,1-2.28.77,3.06,3.06,0,0,1-.9-.12,1.91,1.91,0,0,0-.51-.1c-.16,0-.27.11-.31.35a.77.77,0,0,1-.17.27.33.33,0,0,1-.22.12h0l0,0c-.19-.08-.28-1.29-.28-3.61V283A36,36,0,0,1,126.79,278.22Zm3.81,5.07a1.22,1.22,0,0,0-.93-.28,1.81,1.81,0,0,0-1.33.42,2.19,2.19,0,0,0-.46.89,3.62,3.62,0,0,0-.21,1.08.52.52,0,0,0,.07.34,3.73,3.73,0,0,0,1.42.14,4.6,4.6,0,0,0,1.09-.09.84.84,0,0,0,.51-.37,1.42,1.42,0,0,0,.23-.86A2,2,0,0,0,130.6,283.29Z"/><path class="cls-13" d="M134.1,281.76a.62.62,0,0,1,.47-.16c.22,0,.32,0,.32.16a26.7,26.7,0,0,0,.46,4.08c.13.49.24.74.35.74a1,1,0,0,0,.39-.19,2.2,2.2,0,0,0,.78-1.15,6,6,0,0,0,.29-1.95c0-1,.18-1.45.47-1.45a.41.41,0,0,1,.27.15c.25.25.38,1.31.38,3.17a12.66,12.66,0,0,1-.17,2.34,4.56,4.56,0,0,1-.94,2.05,2,2,0,0,1-1.47.85,2.36,2.36,0,0,1-1.31-.36,1,1,0,0,1-.55-.8.64.64,0,0,1,.26-.51.48.48,0,0,1,.3-.14c.09,0,.21.09.35.26a1,1,0,0,0,.9.39.84.84,0,0,0,.58-.18,2.78,2.78,0,0,0,.49-.79,3.16,3.16,0,0,0,.31-1c0-.08,0-.12-.07-.12s-.15.07-.29.21a1.11,1.11,0,0,1-.8.26,1.39,1.39,0,0,1-1.07-.4,3.22,3.22,0,0,1-.61-1.43,11.55,11.55,0,0,1-.25-2.68A2.76,2.76,0,0,1,134.1,281.76Z"/><path class="cls-14" d="M144.48,282.44a1.61,1.61,0,0,1,.09-.67.35.35,0,0,1,.35-.17.5.5,0,0,1,.49.39,17,17,0,0,1,.34,2c.19,1.47.48,2.2.88,2.2.21,0,.41-.24.61-.74a9.77,9.77,0,0,0,.51-2.09,11.78,11.78,0,0,1,.27-1.44c.08-.22.2-.32.35-.32h.14a.49.49,0,0,1,.4.29,3.48,3.48,0,0,1,.21,1,12,12,0,0,0,.43,2c.18.6.35.9.49.9s.47-.24.65-.72a5.35,5.35,0,0,0,.26-1.78,6.55,6.55,0,0,1,.06-1.15.29.29,0,0,1,.29-.26l.2,0a.52.52,0,0,1,.43.25,2.7,2.7,0,0,1,.15.86c0,.09,0,.23,0,.4a4.62,4.62,0,0,1-.64,2.5c-.43.7-.9,1-1.43,1a1.32,1.32,0,0,1-1.14-.77c-.21-.35-.36-.53-.44-.53s0,0,0,0-.19.44-.58.88a1.64,1.64,0,0,1-1.28.6,1.35,1.35,0,0,1-1-.46,5.07,5.07,0,0,1-.68-1.79A12.37,12.37,0,0,1,144.48,282.44Z"/><path class="cls-15" d="M155.2,281.72a2.63,2.63,0,0,1,1.66-.51,2.07,2.07,0,0,1,1,.23,3.83,3.83,0,0,1,1.16,1.63,5.25,5.25,0,0,1,.67,2.07.37.37,0,0,1,0,.17,2.43,2.43,0,0,1-1.06,1.5,3.22,3.22,0,0,1-1.82.55,2.78,2.78,0,0,1-2.28-1,2.69,2.69,0,0,1-.62-1.81,3.78,3.78,0,0,1,.35-1.57A3.14,3.14,0,0,1,155.2,281.72Zm2.06,1.37a2.64,2.64,0,0,0-1.11-.24c-.53,0-.84.12-.93.37a4.47,4.47,0,0,0-.14,1.28,1.94,1.94,0,0,0,.47,1.36,1.54,1.54,0,0,0,1.16.51,2,2,0,0,0,1.29-.49,1.36,1.36,0,0,0,.56-1.06,1.55,1.55,0,0,0-.34-.94A2.83,2.83,0,0,0,157.26,283.09Z"/><path class="cls-16" d="M161.51,283.87a15.94,15.94,0,0,1,.07-2.06.39.39,0,0,1,.41-.37c.18,0,.31.05.36.15a1.23,1.23,0,0,1,.09.57c0,.39,0,.58.13.58a1.07,1.07,0,0,0,.4-.23,2.51,2.51,0,0,1,1.44-.37,2.43,2.43,0,0,1,1.11.23.89.89,0,0,1,.45.83c0,.39-.15.58-.47.58s-.47-.07-.47-.23-.24-.24-.71-.24a1.16,1.16,0,0,0-1,.54,4.84,4.84,0,0,0-.51,1.85,4.12,4.12,0,0,1-.2,1.1.38.38,0,0,1-.38.27c-.3,0-.49-.18-.58-.56A16.94,16.94,0,0,1,161.51,283.87Z"/><path class="cls-17" d="M171.81,279q.13-.18.6-.18a.26.26,0,0,1,.21.07s0,.2,0,.57,0,.9.06,1.61,0,1.4.07,2.07c0,1.16.05,2,.05,2.6a7.22,7.22,0,0,1-.07,1.29c-.05.22-.13.36-.25.4a.82.82,0,0,1-.26,0,.62.62,0,0,1-.42-.12.43.43,0,0,0-.28-.11.92.92,0,0,0-.44.19,1.92,1.92,0,0,1-1.18.34,2,2,0,0,1-1.56-.62,1.7,1.7,0,0,1-.47-.79,8.15,8.15,0,0,1-.1-1.53,5,5,0,0,1,.4-2.25,2,2,0,0,1,1.34-1,1.78,1.78,0,0,1,.53-.11,1.6,1.6,0,0,1,.9.41l.7.51v-1.62A4.31,4.31,0,0,1,171.81,279ZM170.65,283a1.52,1.52,0,0,0-.76-.31.94.94,0,0,0-.63.37,2.75,2.75,0,0,0-.51,1.85,3.69,3.69,0,0,0,.19,1.23,1,1,0,0,0,.51.67l.23,0a1.61,1.61,0,0,0,.91-.35,2.24,2.24,0,0,0,.73-.84,2,2,0,0,0,.19-.85A2.08,2.08,0,0,0,170.65,283Z"/><path class="cls-18" d="M175.09,281.79a1.92,1.92,0,0,1,1.44-.58,2.92,2.92,0,0,1,1.53.46,3,3,0,0,1,1.55,2.73,2.22,2.22,0,0,1-.61,1.71,3,3,0,0,1-1.9.68l-1.3.09v1.29c0,.82-.13,1.29-.39,1.4a.6.6,0,0,1-.56-.07,14.17,14.17,0,0,1-.25-3.66q0-1.65,0-1.95a6.79,6.79,0,0,1,.09-1.4A1.85,1.85,0,0,1,175.09,281.79Zm2.9,1.3a1.73,1.73,0,0,0-1.39-.72,1.15,1.15,0,0,0-.64.12.84.84,0,0,0-.23.53,3.68,3.68,0,0,0-.06.76,6.37,6.37,0,0,0,.06.9,1.86,1.86,0,0,0,.24.86,1.78,1.78,0,0,0,.88.13,2.08,2.08,0,0,0,1.27-.35,1.06,1.06,0,0,0,.45-.89A2.1,2.1,0,0,0,178,283.09Z"/><path class="cls-19" d="M181.4,283.87a18.22,18.22,0,0,1,.07-2.06.39.39,0,0,1,.41-.37c.18,0,.31.05.36.15a1.23,1.23,0,0,1,.09.57c0,.39,0,.58.13.58a1.07,1.07,0,0,0,.4-.23,2.51,2.51,0,0,1,1.44-.37,2.41,2.41,0,0,1,1.11.23.89.89,0,0,1,.45.83c0,.39-.15.58-.47.58s-.47-.07-.47-.23-.24-.24-.71-.24a1.16,1.16,0,0,0-1,.54,4.84,4.84,0,0,0-.51,1.85,4.12,4.12,0,0,1-.2,1.1.38.38,0,0,1-.38.27c-.3,0-.49-.18-.58-.56A16.94,16.94,0,0,1,181.4,283.87Z"/><path class="cls-20" d="M188.52,282.6a2.63,2.63,0,0,1,1.7-.93,1.91,1.91,0,0,1,1,.37,1.54,1.54,0,0,1,.61,1.42,2.74,2.74,0,0,1-.15.9,1.72,1.72,0,0,1-.8.7,2.51,2.51,0,0,1-1.17.36c-.24,0-.35,0-.35.12a1,1,0,0,0,.14.37,1,1,0,0,0,.22.31.51.51,0,0,0,.32.08,9.61,9.61,0,0,0,1.6-.32,2.38,2.38,0,0,1,.37-.05c.18,0,.26.13.26.4,0,.49-.63.86-1.89,1.13l-.18,0a1.86,1.86,0,0,1-1.28-.62,2.36,2.36,0,0,1-.74-1.39,6.29,6.29,0,0,0-.4-1.39.73.73,0,0,1-.11-.37Q187.71,283.41,188.52,282.6Zm1.37,1.6a.28.28,0,0,0,.14,0,.81.81,0,0,0,.57-.24.71.71,0,0,0,.25-.55.9.9,0,0,0-.08-.35c-.11-.23-.21-.34-.32-.34a1.22,1.22,0,0,0-.47.18.89.89,0,0,0-.58.79C189.4,284,189.56,284.17,189.89,284.2Z"/><path class="cls-21" d="M195.65,280.88a1.55,1.55,0,0,1,.69-.13,3.88,3.88,0,0,1,1.78.47c.6.31.91.64.91,1a.42.42,0,0,1-.46.47,1.38,1.38,0,0,1-.83-.35,2,2,0,0,0-1.28-.48,1,1,0,0,0-.62.18.57.57,0,0,0-.24.48.3.3,0,0,0,0,.15c0,.29.37.51,1,.67a2.51,2.51,0,0,1,1.29.8,1.85,1.85,0,0,1,.43,1.19,2,2,0,0,1-.66,1.46,2.57,2.57,0,0,1-1.8.62,1.76,1.76,0,0,1-1.11-.45,1.23,1.23,0,0,1-.55-.94.45.45,0,0,1,.14-.35.56.56,0,0,1,.35-.13.49.49,0,0,1,.52.36c.09.22.37.33.85.33a1.21,1.21,0,0,0,.86-.26,1.09,1.09,0,0,0,.28-.81.58.58,0,0,0-.18-.47,2.52,2.52,0,0,0-.79-.32,3.2,3.2,0,0,1-1.38-.6,1.26,1.26,0,0,1-.41-1,2.12,2.12,0,0,1,.34-1.12A1.92,1.92,0,0,1,195.65,280.88Z"/><path class="cls-22" d="M202.35,280.88a1.47,1.47,0,0,1,.68-.13,3.85,3.85,0,0,1,1.78.47c.61.31.91.64.91,1a.41.41,0,0,1-.46.47,1.36,1.36,0,0,1-.82-.35,2,2,0,0,0-1.29-.48,1,1,0,0,0-.61.18.58.58,0,0,0-.25.48.49.49,0,0,0,0,.15c.05.29.37.51,1,.67a2.48,2.48,0,0,1,1.28.8,1.87,1.87,0,0,1,.44,1.19,1.93,1.93,0,0,1-.67,1.46,2.53,2.53,0,0,1-1.79.62,1.77,1.77,0,0,1-1.12-.45,1.23,1.23,0,0,1-.55-.94.43.43,0,0,1,.15-.35.53.53,0,0,1,.34-.13.51.51,0,0,1,.53.36q.12.33.84.33a1.19,1.19,0,0,0,.86-.26,1.09,1.09,0,0,0,.28-.81.58.58,0,0,0-.18-.47,2.33,2.33,0,0,0-.78-.32,3.32,3.32,0,0,1-1.39-.6,1.25,1.25,0,0,1-.4-1,2,2,0,0,1,.34-1.12A1.87,1.87,0,0,1,202.35,280.88Z"/></svg>