<?xml version="1.0" encoding="UTF-8"?>
<svg xmlns="http://www.w3.org/2000/svg" width="51" height="51" viewBox="0 0 51 51" fill="none">
  <g id="fi_4988403" clip-path="url(#clip0_1601_61030)">
    <path id="Vector" d="M39.0938 0.890625H31.2812C30.5563 0.891423 29.8613 1.17976 29.3486 1.69239C28.836 2.20501 28.5477 2.90004 28.5469 3.625V27.0625C28.547 27.2314 28.5833 27.3982 28.6534 27.5519C28.7235 27.7055 28.8257 27.8423 28.9531 27.9531L34.4219 32.6406C34.6357 32.8222 34.907 32.9219 35.1875 32.9219C35.468 32.9219 35.7393 32.8222 35.9531 32.6406L41.4219 27.9531C41.5493 27.8423 41.6515 27.7055 41.7216 27.5519C41.7917 27.3982 41.828 27.2314 41.8281 27.0625V3.625C41.8273 2.90004 41.539 2.20501 41.0264 1.69239C40.5137 1.17976 39.8187 0.891423 39.0938 0.890625ZM31.2812 3.23437H39.0938C39.1452 3.23386 39.1962 3.24362 39.2438 3.26307C39.2915 3.28252 39.3347 3.31127 39.3711 3.34765C39.4075 3.38402 39.4362 3.42729 39.4557 3.47491C39.4751 3.52254 39.4849 3.57356 39.4844 3.625V5.57812H30.8906V3.625C30.8901 3.57356 30.8999 3.52254 30.9193 3.47491C30.9388 3.42729 30.9675 3.38402 31.0039 3.34765C31.0403 3.31127 31.0835 3.28252 31.1312 3.26307C31.1788 3.24362 31.2298 3.23386 31.2812 3.23437Z" fill="#F9F8F4"></path>
    <path id="Vector_2" d="M46.9062 5.57812H45.3438C45.0329 5.57812 44.7349 5.70159 44.5151 5.92136C44.2953 6.14113 44.1719 6.4392 44.1719 6.75C44.1719 7.0608 44.2953 7.35887 44.5151 7.57864C44.7349 7.79841 45.0329 7.92188 45.3438 7.92188H46.9062C47.0098 7.92208 47.109 7.9633 47.1822 8.03651C47.2554 8.10973 47.2967 8.20896 47.2969 8.3125V47.375C47.2967 47.4785 47.2554 47.5778 47.1822 47.651C47.109 47.7242 47.0098 47.7654 46.9062 47.7656H3.15625C3.05271 47.7654 2.95348 47.7242 2.88026 47.651C2.80705 47.5778 2.76583 47.4785 2.76562 47.375V8.3125C2.76583 8.20896 2.80705 8.10973 2.88026 8.03651C2.95348 7.9633 3.05271 7.92208 3.15625 7.92188H7.45312V11.4375C7.45312 11.7483 7.57659 12.0464 7.79636 12.2661C8.01613 12.4859 8.3142 12.6094 8.625 12.6094C8.9358 12.6094 9.23387 12.4859 9.45364 12.2661C9.67341 12.0464 9.79688 11.7483 9.79688 11.4375V7.92188H16.8281V11.4375C16.8281 11.7483 16.9516 12.0464 17.1714 12.2661C17.3911 12.4859 17.6892 12.6094 18 12.6094C18.3108 12.6094 18.6089 12.4859 18.8286 12.2661C19.0484 12.0464 19.1719 11.7483 19.1719 11.4375V7.92188H25.0312C25.3421 7.92188 25.6401 7.79841 25.8599 7.57864C26.0797 7.35887 26.2031 7.0608 26.2031 6.75C26.2031 6.4392 26.0797 6.14113 25.8599 5.92136C25.6401 5.70159 25.3421 5.57812 25.0312 5.57812H19.1719V2.0625C19.1719 1.7517 19.0484 1.45363 18.8286 1.23386C18.6089 1.01409 18.3108 0.890625 18 0.890625C17.6892 0.890625 17.3911 1.01409 17.1714 1.23386C16.9516 1.45363 16.8281 1.7517 16.8281 2.0625V5.57812H9.79688V2.0625C9.79688 1.7517 9.67341 1.45363 9.45364 1.23386C9.23387 1.01409 8.9358 0.890625 8.625 0.890625C8.3142 0.890625 8.01613 1.01409 7.79636 1.23386C7.57659 1.45363 7.45312 1.7517 7.45312 2.0625V5.57812H3.15625C2.43132 5.579 1.73633 5.86737 1.22372 6.37997C0.711118 6.89258 0.422752 7.58757 0.421875 8.3125V47.375C0.422752 48.0999 0.711118 48.7949 1.22372 49.3075C1.73633 49.8201 2.43132 50.1085 3.15625 50.1094H46.9062C47.6312 50.1085 48.3262 49.8201 48.8388 49.3075C49.3514 48.7949 49.6397 48.0999 49.6406 47.375V8.3125C49.6397 7.58757 49.3514 6.89258 48.8388 6.37997C48.3262 5.86737 47.6312 5.579 46.9062 5.57812Z" fill="white"></path>
    <path id="Vector_3" d="M7.45312 29.0156C7.4538 28.3942 7.70095 27.7985 8.14034 27.3591C8.57973 26.9197 9.17548 26.6726 9.79688 26.6719H21.5156C22.7588 26.6719 23.9511 26.178 24.8302 25.2989C25.7093 24.4199 26.2031 23.2276 26.2031 21.9844C26.2031 20.7412 25.7093 19.5489 24.8302 18.6698C23.9511 17.7907 22.7588 17.2969 21.5156 17.2969H6.28125C5.97045 17.2969 5.67238 17.4203 5.45261 17.6401C5.23284 17.8599 5.10938 18.1579 5.10938 18.4688C5.10938 18.7796 5.23284 19.0776 5.45261 19.2974C5.67238 19.5172 5.97045 19.6406 6.28125 19.6406H21.5156C22.1372 19.6406 22.7334 19.8876 23.1729 20.3271C23.6124 20.7666 23.8594 21.3628 23.8594 21.9844C23.8594 22.606 23.6124 23.2021 23.1729 23.6417C22.7334 24.0812 22.1372 24.3281 21.5156 24.3281H9.79688C8.55367 24.3281 7.36139 24.822 6.48231 25.7011C5.60324 26.5801 5.10938 27.7724 5.10938 29.0156C5.10938 30.2588 5.60324 31.4511 6.48231 32.3302C7.36139 33.2093 8.55367 33.7031 9.79688 33.7031H28.9375C29.2483 33.7031 29.5464 33.5797 29.7661 33.3599C29.9859 33.1401 30.1094 32.8421 30.1094 32.5312C30.1094 32.2204 29.9859 31.9224 29.7661 31.7026C29.5464 31.4828 29.2483 31.3594 28.9375 31.3594H9.79688C9.17548 31.3587 8.57973 31.1115 8.14034 30.6722C7.70095 30.2328 7.4538 29.637 7.45312 29.0156Z" fill="white"></path>
    <path id="Vector_4" d="M43.7812 37.6094H6.28125C5.97045 37.6094 5.67238 37.7328 5.45261 37.9526C5.23284 38.1724 5.10938 38.4704 5.10938 38.7812C5.10938 39.0921 5.23284 39.3901 5.45261 39.6099C5.67238 39.8297 5.97045 39.9531 6.28125 39.9531H43.7812C44.0921 39.9531 44.3901 39.8297 44.6099 39.6099C44.8297 39.3901 44.9531 39.0921 44.9531 38.7812C44.9531 38.4704 44.8297 38.1724 44.6099 37.9526C44.3901 37.7328 44.0921 37.6094 43.7812 37.6094Z" fill="white"></path>
    <path id="Vector_5" d="M43.7812 43.0781H6.28125C5.97045 43.0781 5.67238 43.2016 5.45261 43.4214C5.23284 43.6411 5.10938 43.9392 5.10938 44.25C5.10938 44.5608 5.23284 44.8589 5.45261 45.0786C5.67238 45.2984 5.97045 45.4219 6.28125 45.4219H43.7812C44.0921 45.4219 44.3901 45.2984 44.6099 45.0786C44.8297 44.8589 44.9531 44.5608 44.9531 44.25C44.9531 43.9392 44.8297 43.6411 44.6099 43.4214C44.3901 43.2016 44.0921 43.0781 43.7812 43.0781Z" fill="white"></path>
  </g>
  <defs>
    <clipPath id="clip0_1601_61030">
      <rect width="50" height="50" fill="white" transform="translate(0.03125 0.5)"></rect>
    </clipPath>
  </defs>
</svg>
