<?xml version="1.0" encoding="UTF-8"?>
<svg xmlns="http://www.w3.org/2000/svg" width="51" height="51" viewBox="0 0 51 51" fill="none">
  <g id="fi_6036317" clip-path="url(#clip0_1601_61059)">
    <path id="Vector" d="M49.4981 28.4095L44.3323 21.0441V21.0006C44.3323 11.5653 38.1975 4.10986 28.7027 2.00719C28.3992 1.94001 28.0814 1.99616 27.8193 2.16328C27.5571 2.33039 27.3721 2.5948 27.305 2.89831C27.2378 3.20183 27.2939 3.51961 27.461 3.78173C27.6282 4.04385 27.8926 4.22885 28.1961 4.29603C36.7886 6.19884 42.1862 13.0383 41.9839 21.3813C41.9783 21.6311 42.0527 21.8762 42.196 22.0809L47.1956 29.2082H42.3448C42.034 29.2083 41.736 29.3318 41.5162 29.5516C41.2965 29.7713 41.173 30.0693 41.1729 30.3801V34.9616C41.1714 36.2474 40.6599 37.4801 39.7507 38.3894C38.8415 39.2986 37.6087 39.81 36.3229 39.8116H35.0038C34.693 39.8116 34.395 39.9351 34.1752 40.1549C33.9555 40.3746 33.832 40.6727 33.8319 40.9834V47.9682H17.8621L17.4463 46.482C16.3803 42.8087 14.208 39.5532 11.2253 37.1588C8.67835 35.0626 6.72565 32.3352 5.56198 29.2487C5.50788 29.1046 5.42593 28.9726 5.32081 28.8602C5.21569 28.7478 5.08946 28.6572 4.94933 28.5936C4.8092 28.53 4.65791 28.4946 4.5041 28.4894C4.35028 28.4843 4.19697 28.5095 4.05289 28.5636C3.90882 28.6177 3.77681 28.6996 3.66441 28.8047C3.55201 28.9099 3.46141 29.0361 3.39779 29.1762C3.33417 29.3164 3.29878 29.4676 3.29363 29.6215C3.28848 29.7753 3.31367 29.9286 3.36777 30.0727C4.67626 33.5435 6.8717 36.6107 9.73521 38.9686C12.3469 41.0582 14.2513 43.9017 15.1895 47.1122L15.8441 49.4551C15.9128 49.7016 16.0603 49.9188 16.264 50.0735C16.4678 50.2282 16.7166 50.3119 16.9725 50.3119H35.0038C35.3146 50.3118 35.6126 50.1884 35.8323 49.9686C36.0521 49.7489 36.1756 49.4508 36.1757 49.1401V42.1554H36.3229C38.2301 42.1532 40.0586 41.3945 41.4072 40.0459C42.7558 38.6973 43.5145 36.8688 43.5167 34.9616V31.552H48.0073C48.3715 31.552 48.7283 31.4487 49.0362 31.254C49.3441 31.0593 49.5904 30.7813 49.7465 30.4522C49.9026 30.1231 49.9622 29.7565 49.9182 29.3949C49.8742 29.0333 49.7286 28.6916 49.4981 28.4095Z" fill="white"></path>
    <path id="Vector_2" d="M17.8637 11.9775H11.6282C11.5844 11.9775 11.5488 12.0131 11.5488 12.0569V18.2924C11.5488 18.3362 11.5844 18.3717 11.6282 18.3717H17.8637C17.9075 18.3717 17.943 18.3362 17.943 18.2924V12.0569C17.943 12.0131 17.9075 11.9775 17.8637 11.9775Z" fill="#3E3EF4"></path>
    <path id="Vector_3" d="M27.8801 12.0719H26.4032C26.1298 11.0385 25.7194 10.0462 25.1829 9.12155L26.2259 8.07872C26.3513 7.95334 26.4508 7.80449 26.5186 7.64067C26.5865 7.47685 26.6214 7.30127 26.6214 7.12395C26.6214 6.94662 26.5865 6.77104 26.5186 6.60722C26.4508 6.4434 26.3513 6.29455 26.2259 6.16917L23.7489 3.6921C23.4908 3.44819 23.1492 3.3123 22.7941 3.3123C22.439 3.3123 22.0974 3.44819 21.8393 3.6921L20.7965 4.73518C19.8718 4.19867 18.8796 3.78827 17.8461 3.51491V2.03795C17.8461 1.8606 17.8112 1.68499 17.7434 1.52113C17.6755 1.35727 17.576 1.20839 17.4506 1.08298C17.3252 0.957577 17.1764 0.858104 17.0125 0.790246C16.8487 0.722388 16.673 0.687474 16.4957 0.6875H12.9926C12.8153 0.687474 12.6396 0.722388 12.4758 0.790246C12.3119 0.858104 12.1631 0.957577 12.0377 1.08298C11.9123 1.20839 11.8128 1.35727 11.7449 1.52113C11.6771 1.68499 11.6422 1.8606 11.6422 2.03795V3.51491C10.6087 3.78828 9.61639 4.19871 8.69173 4.73527L7.64855 3.6921C7.39049 3.44819 7.04886 3.3123 6.69378 3.3123C6.33869 3.3123 5.99707 3.44819 5.73901 3.6921L3.26237 6.16917C3.13695 6.29453 3.03745 6.44338 2.96957 6.6072C2.90169 6.77102 2.86675 6.94662 2.86675 7.12395C2.86675 7.30128 2.90169 7.47687 2.96957 7.64069C3.03745 7.80451 3.13695 7.95336 3.26237 8.07872L4.30534 9.12169C3.76887 10.0463 3.3585 11.0385 3.08516 12.0719H1.60822C1.43087 12.0719 1.25526 12.1068 1.0914 12.1747C0.927549 12.2425 0.778668 12.342 0.653265 12.4674C0.527862 12.5928 0.428394 12.7417 0.360541 12.9055C0.292688 13.0694 0.257781 13.245 0.257813 13.4223V16.9255C0.257783 17.1028 0.292692 17.2784 0.360546 17.4423C0.428399 17.6061 0.527869 17.755 0.653271 17.8804C0.778674 18.0058 0.927554 18.1053 1.09141 18.1731C1.25526 18.241 1.43087 18.2759 1.60822 18.2759H3.08517C3.35856 19.3093 3.76895 20.3015 4.30542 21.2262L3.26237 22.2695C3.13695 22.3948 3.03745 22.5437 2.96957 22.7075C2.90169 22.8713 2.86675 23.0469 2.86675 23.2243C2.86675 23.4016 2.90169 23.5772 2.96957 23.741C3.03745 23.9048 3.13695 24.0537 3.26237 24.179L5.73902 26.6557C5.86437 26.7811 6.01321 26.8806 6.17704 26.9485C6.34086 27.0164 6.51645 27.0513 6.69378 27.0513C6.87112 27.0513 7.04671 27.0164 7.21053 26.9485C7.37436 26.8806 7.5232 26.7811 7.64855 26.6557L8.69187 25.6126C9.61651 26.1491 10.6088 26.5595 11.6422 26.8329V28.3099C11.6422 28.4872 11.6771 28.6629 11.745 28.8267C11.8128 28.9906 11.9123 29.1394 12.0377 29.2648C12.1631 29.3902 12.312 29.4897 12.4758 29.5576C12.6397 29.6254 12.8153 29.6603 12.9926 29.6603H16.4957C16.673 29.6603 16.8487 29.6254 17.0125 29.5576C17.1764 29.4897 17.3252 29.3902 17.4506 29.2648C17.576 29.1394 17.6755 28.9906 17.7434 28.8267C17.8112 28.6629 17.8461 28.4872 17.8461 28.3099V26.8329C18.8795 26.5595 19.8717 26.1491 20.7963 25.6127L21.8393 26.6557C21.9647 26.7811 22.1135 26.8806 22.2773 26.9485C22.4412 27.0164 22.6167 27.0513 22.7941 27.0513C22.9714 27.0513 23.147 27.0164 23.3108 26.9485C23.4747 26.8806 23.6235 26.7811 23.7489 26.6557L26.2259 24.179C26.3513 24.0536 26.4508 23.9048 26.5187 23.741C26.5865 23.5771 26.6215 23.4016 26.6215 23.2242C26.6215 23.0469 26.5865 22.8713 26.5187 22.7075C26.4508 22.5437 26.3513 22.3948 26.2259 22.2695L25.1828 21.2263C25.7194 20.3017 26.1298 19.3094 26.4032 18.2758H27.8801C28.0575 18.2758 28.2331 18.2409 28.3969 18.1731C28.5608 18.1052 28.7097 18.0058 28.8351 17.8804C28.9605 17.7549 29.0599 17.6061 29.1278 17.4422C29.1956 17.2784 29.2306 17.1028 29.2305 16.9254V13.4223C29.2306 13.245 29.1956 13.0694 29.1278 12.9055C29.0599 12.7417 28.9605 12.5928 28.8351 12.4674C28.7097 12.342 28.5608 12.2425 28.3969 12.1747C28.2331 12.1068 28.0575 12.0719 27.8801 12.0719ZM21.4562 16.2165C21.7152 16.2165 21.9636 16.3194 22.1467 16.5025C22.3299 16.6857 22.4328 16.9341 22.4328 17.1931C22.4328 17.4521 22.3299 17.7005 22.1467 17.8836C21.9636 18.0668 21.7152 18.1696 21.4562 18.1696H19.8945V18.2917C19.8939 18.8306 19.6796 19.3472 19.2985 19.7282C18.9175 20.1092 18.4009 20.3236 17.862 20.3242H17.7399V21.8859C17.7399 22.1449 17.6371 22.3933 17.4539 22.5764C17.2708 22.7596 17.0224 22.8624 16.7634 22.8624C16.5044 22.8624 16.256 22.7596 16.0728 22.5764C15.8897 22.3933 15.7868 22.1449 15.7868 21.8859V20.3242H13.7017V21.8859C13.7017 22.1449 13.5988 22.3933 13.4156 22.5764C13.2325 22.7596 12.9841 22.8624 12.7251 22.8624C12.4661 22.8624 12.2177 22.7596 12.0346 22.5764C11.8514 22.3933 11.7485 22.1449 11.7485 21.8859V20.3242H11.6265C11.0876 20.3236 10.571 20.1092 10.1899 19.7282C9.80892 19.3472 9.59459 18.8306 9.594 18.2917V18.1696H8.03228C7.77328 18.1696 7.52489 18.0667 7.34175 17.8836C7.15861 17.7005 7.05572 17.4521 7.05572 17.1931C7.05572 16.9341 7.15861 16.6857 7.34175 16.5025C7.52489 16.3194 7.77328 16.2165 8.03228 16.2165H9.594V14.1314H8.03228C7.77328 14.1314 7.52489 14.0285 7.34175 13.8454C7.15861 13.6622 7.05572 13.4138 7.05572 13.1548C7.05572 12.8958 7.15861 12.6474 7.34175 12.4643C7.52489 12.2812 7.77328 12.1783 8.03228 12.1783H9.594V12.0554C9.59475 11.5167 9.80915 11.0002 10.1902 10.6194C10.5712 10.2385 11.0877 10.0243 11.6265 10.0237H11.7485V8.46201C11.7485 8.20301 11.8514 7.95462 12.0346 7.77147C12.2177 7.58833 12.4661 7.48545 12.7251 7.48545C12.9841 7.48545 13.2325 7.58833 13.4156 7.77147C13.5988 7.95462 13.7017 8.20301 13.7017 8.46201V10.0237H15.7868V8.46201C15.7868 8.20301 15.8897 7.95462 16.0728 7.77147C16.256 7.58833 16.5043 7.48545 16.7633 7.48545C17.0223 7.48545 17.2707 7.58833 17.4539 7.77147C17.637 7.95462 17.7399 8.20301 17.7399 8.46201V10.0237H17.862C18.4007 10.0243 18.9173 10.2385 19.2983 10.6194C19.6793 11.0002 19.8937 11.5167 19.8945 12.0554V12.1783H21.4562C21.7152 12.1783 21.9636 12.2812 22.1467 12.4643C22.3299 12.6474 22.4328 12.8958 22.4328 13.1548C22.4328 13.4138 22.3299 13.6622 22.1467 13.8454C21.9636 14.0285 21.7152 14.1314 21.4562 14.1314H19.8945V16.2165H21.4562Z" fill="#F9F8F4"></path>
  </g>
  <defs>
    <clipPath id="clip0_1601_61059">
      <rect width="50" height="50" fill="white" transform="translate(0.0976562 0.5)"></rect>
    </clipPath>
  </defs>
</svg>
