<?xml version="1.0" encoding="UTF-8"?>
<svg xmlns="http://www.w3.org/2000/svg" width="51" height="51" viewBox="0 0 51 51" fill="none">
  <g id="fi_5762332" clip-path="url(#clip0_1601_61063)">
    <path id="Vector" d="M14.817 31.5364C14.3849 31.9685 14.0907 32.519 13.9715 33.1183C13.8523 33.7177 13.9134 34.3389 14.1473 34.9034C14.3811 35.468 14.7771 35.9505 15.2852 36.29C15.7933 36.6295 16.3906 36.8107 17.0017 36.8107C17.6128 36.8107 18.2101 36.6295 18.7182 36.29C19.2263 35.9505 19.6223 35.468 19.8561 34.9034C20.09 34.3389 20.1512 33.7177 20.0319 33.1183C19.9127 32.519 19.6185 31.9685 19.1864 31.5364C18.8996 31.2493 18.559 31.0216 18.1842 30.8662C17.8093 30.7108 17.4075 30.6309 17.0017 30.6309C16.5959 30.6309 16.1941 30.7108 15.8193 30.8662C15.4444 31.0216 15.1038 31.2493 14.817 31.5364Z" fill="#F9F8F4"></path>
    <path id="Vector_2" d="M17.0012 39.1513C15.7936 39.1516 14.6203 38.7494 13.6668 38.0084C12.7132 37.2674 12.0338 36.2298 11.7358 35.0595C11.4379 33.8893 11.5384 32.6531 12.0215 31.5463C12.5046 30.4395 13.3428 29.5253 14.4035 28.9481C12.7695 28.6007 11.0745 28.6682 9.47331 29.1444C7.87211 29.6206 6.41571 30.4903 5.23707 31.6741C-0.261075 37.1726 0.577777 48.5492 0.616308 49.0306C0.63716 49.2547 0.721546 49.4682 0.859551 49.646C0.997556 49.8238 1.18345 49.9585 1.39537 50.0343C1.6073 50.1101 1.83646 50.1238 2.05592 50.0739C2.27538 50.0239 2.47603 49.9124 2.63428 49.7523C4.79131 47.5322 7.63553 46.1065 10.705 45.7068L10.0047 47.8324C9.93971 48.0302 9.92861 48.2418 9.97251 48.4453C10.0164 48.6489 10.1137 48.8371 10.2545 48.9905C10.3952 49.144 10.5743 49.2572 10.7733 49.3186C10.9722 49.3799 11.184 49.3872 11.3867 49.3396C14.2482 48.7891 16.9004 47.4546 19.0477 45.4848C20.2315 44.3061 21.1011 42.8497 21.5773 41.2486C22.0534 39.6474 22.121 37.9525 21.7737 36.3185C21.307 37.1767 20.6173 37.893 19.7772 38.3916C18.9372 38.8902 17.9781 39.1527 17.0012 39.1513Z" fill="#F9F8F4"></path>
    <path id="Vector_3" d="M48.5996 28.2344H47.8184V27.4531C47.8184 27.1423 47.6949 26.8443 47.4751 26.6245C47.2554 26.4047 46.9573 26.2812 46.6465 26.2812C46.3357 26.2812 46.0376 26.4047 45.8178 26.6245C45.5981 26.8443 45.4746 27.1423 45.4746 27.4531V28.2344H44.6934C44.3826 28.2344 44.0845 28.3578 43.8647 28.5776C43.645 28.7974 43.5215 29.0954 43.5215 29.4062C43.5215 29.7171 43.645 30.0151 43.8647 30.2349C44.0845 30.4547 44.3826 30.5781 44.6934 30.5781H45.4746V31.3594C45.4746 31.6702 45.5981 31.9682 45.8178 32.188C46.0376 32.4078 46.3357 32.5312 46.6465 32.5312C46.9573 32.5312 47.2554 32.4078 47.4751 32.188C47.6949 31.9682 47.8184 31.6702 47.8184 31.3594V30.5781H48.5996C48.9104 30.5781 49.2085 30.4547 49.4283 30.2349C49.648 30.0151 49.7715 29.7171 49.7715 29.4062C49.7715 29.0954 49.648 28.7974 49.4283 28.5776C49.2085 28.3578 48.9104 28.2344 48.5996 28.2344Z" fill="white"></path>
    <path id="Vector_4" d="M40.7871 45.8125H40.0059V45.0312C40.0059 44.7204 39.8824 44.4224 39.6626 44.2026C39.4429 43.9828 39.1448 43.8594 38.834 43.8594C38.5232 43.8594 38.2251 43.9828 38.0053 44.2026C37.7856 44.4224 37.6621 44.7204 37.6621 45.0312V45.8125H36.8809C36.5701 45.8125 36.272 45.936 36.0522 46.1557C35.8325 46.3755 35.709 46.6736 35.709 46.9844C35.709 47.2952 35.8325 47.5932 36.0522 47.813C36.272 48.0328 36.5701 48.1562 36.8809 48.1562H37.6621V48.9375C37.6621 49.2483 37.7856 49.5464 38.0053 49.7661C38.2251 49.9859 38.5232 50.1094 38.834 50.1094C39.1448 50.1094 39.4429 49.9859 39.6626 49.7661C39.8824 49.5464 40.0059 49.2483 40.0059 48.9375V48.1562H40.7871C41.0979 48.1562 41.396 48.0328 41.6158 47.813C41.8355 47.5932 41.959 47.2952 41.959 46.9844C41.959 46.6736 41.8355 46.3755 41.6158 46.1557C41.396 45.936 41.0979 45.8125 40.7871 45.8125Z" fill="white"></path>
    <path id="Vector_5" d="M19.3027 5.1875H20.084V5.96875C20.084 6.27955 20.2074 6.57762 20.4272 6.79739C20.647 7.01716 20.9451 7.14062 21.2559 7.14062C21.5667 7.14062 21.8647 7.01716 22.0845 6.79739C22.3043 6.57762 22.4277 6.27955 22.4277 5.96875V5.1875H23.209C23.5198 5.1875 23.8179 5.06403 24.0376 4.84427C24.2574 4.6245 24.3809 4.32643 24.3809 4.01562C24.3809 3.70482 24.2574 3.40675 24.0376 3.18698C23.8179 2.96722 23.5198 2.84375 23.209 2.84375H22.4277V2.0625C22.4277 1.7517 22.3043 1.45363 22.0845 1.23386C21.8647 1.01409 21.5667 0.890625 21.2559 0.890625C20.9451 0.890625 20.647 1.01409 20.4272 1.23386C20.2074 1.45363 20.084 1.7517 20.084 2.0625V2.84375H19.3027C18.9919 2.84375 18.6939 2.96722 18.4741 3.18698C18.2543 3.40675 18.1309 3.70482 18.1309 4.01562C18.1309 4.32643 18.2543 4.6245 18.4741 4.84427C18.6939 5.06403 18.9919 5.1875 19.3027 5.1875Z" fill="white"></path>
    <path id="Vector_6" d="M6.80273 11.8281C6.80276 11.6742 6.77246 11.5218 6.71358 11.3796C6.6547 11.2374 6.56838 11.1083 6.45955 10.9994C6.35073 10.8906 6.22154 10.8043 6.07935 10.7454C5.93716 10.6865 5.78476 10.6562 5.63086 10.6562H4.84961V9.875C4.84961 9.5642 4.72614 9.26613 4.50637 9.04636C4.28661 8.82659 3.98853 8.70313 3.67773 8.70312C3.36693 8.70313 3.06886 8.82659 2.84909 9.04636C2.62932 9.26613 2.50586 9.5642 2.50586 9.875V10.6562H1.72461C1.41381 10.6562 1.11574 10.7797 0.895969 10.9995C0.676199 11.2193 0.552734 11.5173 0.552734 11.8281C0.552734 12.1389 0.676199 12.437 0.895969 12.6568C1.11574 12.8765 1.41381 13 1.72461 13H2.50586V13.7812C2.50586 14.0921 2.62932 14.3901 2.84909 14.6099C3.06886 14.8297 3.36693 14.9531 3.67773 14.9531C3.98853 14.9531 4.28661 14.8297 4.50637 14.6099C4.72614 14.3901 4.84961 14.0921 4.84961 13.7812V13H5.63086C5.78476 13 5.93716 12.9697 6.07935 12.9108C6.22154 12.852 6.35073 12.7656 6.45955 12.6568C6.56838 12.548 6.6547 12.4188 6.71358 12.2766C6.77246 12.1344 6.80276 11.982 6.80273 11.8281Z" fill="white"></path>
    <path id="Vector_7" d="M40.1357 16.9443C40.7704 16.3096 41.2026 15.501 41.3777 14.6207C41.5528 13.7404 41.4629 12.8279 41.1194 11.9987C40.776 11.1695 40.1943 10.4607 39.448 9.96208C38.7017 9.46342 37.8243 9.19727 36.9268 9.19727C36.0292 9.19727 35.1518 9.46342 34.4055 9.96208C33.6593 10.4607 33.0776 11.1695 32.7341 11.9987C32.3906 12.8279 32.3008 13.7404 32.4759 14.6207C32.651 15.501 33.0832 16.3096 33.7179 16.9443C34.5695 17.7942 35.7236 18.2715 36.9268 18.2715C38.13 18.2715 39.284 17.7942 40.1357 16.9443ZM35.375 12.1836C35.6819 11.8766 36.0729 11.6676 36.4986 11.5829C36.9243 11.4983 37.3656 11.5417 37.7666 11.7078C38.1676 11.8739 38.5104 12.1552 38.7515 12.5161C38.9927 12.877 39.1214 13.3013 39.1214 13.7354C39.1214 14.1694 38.9927 14.5937 38.7515 14.9546C38.5104 15.3155 38.1676 15.5968 37.7666 15.7629C37.3656 15.929 36.9243 15.9725 36.4986 15.8878C36.0729 15.8031 35.6819 15.5941 35.375 15.2872C34.9641 14.8753 34.7333 14.3172 34.7333 13.7354C34.7333 13.1536 34.9641 12.5955 35.375 12.1836Z" fill="white"></path>
    <path id="Vector_8" d="M37.3258 36.0665V28.2521L40.5816 24.9962C43.5861 21.9917 45.9494 18.4085 47.5284 14.4638C49.1074 10.5191 49.8693 6.29484 49.7678 2.04702C49.7626 1.74309 49.6396 1.45304 49.4247 1.23809C49.2097 1.02314 48.9197 0.900104 48.6157 0.894945C44.3685 0.797818 40.1455 1.56165 36.2014 3.14042C32.2573 4.71918 28.6737 7.08018 25.6665 10.0811L22.4107 13.337H14.5963C14.4424 13.337 14.29 13.3673 14.1478 13.4262C14.0057 13.4851 13.8765 13.5714 13.7677 13.6803L5.76982 21.6782C5.60633 21.8422 5.49508 22.051 5.45008 22.2782C5.40508 22.5053 5.42837 22.7408 5.51699 22.9547C5.60561 23.1687 5.7556 23.3516 5.94805 23.4805C6.1405 23.6093 6.36678 23.6782 6.59838 23.6786H14.4128L26.9841 36.25V44.064C26.9844 44.2957 27.0533 44.522 27.1821 44.7146C27.3109 44.9071 27.4939 45.0571 27.7079 45.1458C27.9219 45.2344 28.1574 45.2577 28.3846 45.2126C28.6118 45.1676 28.8206 45.0562 28.9845 44.8926L36.9824 36.895C37.0913 36.7862 37.1776 36.657 37.2365 36.5149C37.2954 36.3727 37.3257 36.2203 37.3258 36.0665ZM47.4221 3.2406C47.3802 5.27883 47.1306 7.30749 46.6772 9.2951C45.4251 8.91228 44.2862 8.22793 43.3603 7.30212C42.4344 6.37632 41.75 5.23737 41.3671 3.98528C43.3549 3.53194 45.3837 3.28243 47.4221 3.2406ZM27.3236 11.7382C30.6145 8.43715 34.6572 5.98391 39.1048 4.58905C39.5971 6.2375 40.4919 7.73755 41.7084 8.95407C42.9249 10.1706 44.4249 11.0653 46.0734 11.5577C44.6786 16.0053 42.2254 20.0481 38.9245 23.3391L32.4558 29.8079L27.4839 24.836L32.5864 19.7334C32.8062 19.5137 32.9296 19.2157 32.9296 18.9049C32.9296 18.5941 32.8062 18.2961 32.5864 18.0763C32.3667 17.8566 32.0686 17.7331 31.7579 17.7331C31.4471 17.7331 31.1491 17.8566 30.9293 18.0763L25.8267 23.1789L20.8549 18.207L27.3236 11.7382ZM9.42735 21.3349L15.0815 15.6807H20.0669L14.4128 21.3349H9.42735ZM28.156 34.1076L16.5551 22.5068L19.1977 19.8641L30.7986 31.465L28.156 34.1076ZM34.982 35.5808L29.3279 41.235V36.2499L34.982 30.5958V35.5808Z" fill="white"></path>
    <path id="Vector_9" d="M45.8652 41.125C46.7282 41.125 47.4277 40.4254 47.4277 39.5625C47.4277 38.6996 46.7282 38 45.8652 38C45.0023 38 44.3027 38.6996 44.3027 39.5625C44.3027 40.4254 45.0023 41.125 45.8652 41.125Z" fill="white"></path>
    <path id="Vector_10" d="M23.5996 49.7188C24.4626 49.7188 25.1621 49.0192 25.1621 48.1562C25.1621 47.2933 24.4626 46.5938 23.5996 46.5938C22.7367 46.5938 22.0371 47.2933 22.0371 48.1562C22.0371 49.0192 22.7367 49.7188 23.5996 49.7188Z" fill="white"></path>
    <path id="Vector_11" d="M2.50586 28.625C3.3688 28.625 4.06836 27.9254 4.06836 27.0625C4.06836 26.1996 3.3688 25.5 2.50586 25.5C1.64291 25.5 0.943359 26.1996 0.943359 27.0625C0.943359 27.9254 1.64291 28.625 2.50586 28.625Z" fill="white"></path>
    <path id="Vector_12" d="M11.0996 6.35938C11.9626 6.35938 12.6621 5.65982 12.6621 4.79688C12.6621 3.93393 11.9626 3.23438 11.0996 3.23438C10.2367 3.23438 9.53711 3.93393 9.53711 4.79688C9.53711 5.65982 10.2367 6.35938 11.0996 6.35938Z" fill="white"></path>
  </g>
  <defs>
    <clipPath id="clip0_1601_61063">
      <rect width="50" height="50" fill="white" transform="translate(0.160156 0.5)"></rect>
    </clipPath>
  </defs>
</svg>
