<?xml version="1.0" encoding="UTF-8"?>
<svg xmlns="http://www.w3.org/2000/svg" width="51" height="51" viewBox="0 0 51 51" fill="none">
  <g id="fi_6227546" clip-path="url(#clip0_1601_61076)">
    <path id="Vector" d="M48.6641 22.4215C48.3533 22.4216 48.0552 22.545 47.8354 22.7648C47.6157 22.9846 47.4922 23.2826 47.4922 23.5934V28.0627L43.1675 28.9622C42.9528 29.0071 42.755 29.1112 42.5966 29.2628C42.4381 29.4143 42.3253 29.6073 42.271 29.8198C41.8517 31.4602 41.1979 33.0315 40.3297 34.4852C40.2169 34.674 40.1596 34.8909 40.1644 35.1108C40.1691 35.3307 40.2356 35.5449 40.3564 35.7287L42.786 39.432L39.1582 43.0598L35.4557 40.6298C35.2717 40.5092 35.0575 40.4427 34.8375 40.438C34.6176 40.4332 34.4007 40.4905 34.2117 40.6031C32.7583 41.4716 31.1869 42.1254 29.5463 42.544C29.3338 42.5982 29.1407 42.711 28.989 42.8694C28.8374 43.0279 28.7332 43.2258 28.6884 43.4405L27.7889 47.7656H22.6642L21.7647 43.4405C21.7199 43.2258 21.6158 43.0279 21.4641 42.8695C21.3125 42.711 21.1194 42.5982 20.9068 42.5441C19.2662 42.1254 17.6948 41.4716 16.2414 40.6031C16.0524 40.4905 15.8356 40.4332 15.6156 40.4379C15.3956 40.4427 15.1814 40.5092 14.9974 40.6298L11.2949 43.0598L7.66713 39.432L10.0967 35.7287C10.2175 35.5448 10.284 35.3307 10.2887 35.1108C10.2935 34.8909 10.2362 34.674 10.1234 34.4852C9.25527 33.0315 8.60144 31.4602 8.18214 29.8198C8.12783 29.6073 8.01504 29.4144 7.85658 29.2628C7.69812 29.1112 7.50033 29.0071 7.28568 28.9622L2.96094 28.0627V22.9373L7.28566 22.0378C7.50031 21.9929 7.6981 21.8888 7.85656 21.7372C8.01502 21.5857 8.12781 21.3927 8.18212 21.1802C8.60142 19.5398 9.25527 17.9685 10.1234 16.5148C10.2362 16.326 10.2935 16.1091 10.2888 15.8892C10.284 15.6693 10.2175 15.4551 10.0967 15.2713L7.66713 11.568L11.2949 7.9402L14.9975 10.3702C15.1814 10.4908 15.3956 10.5573 15.6156 10.562C15.8356 10.5668 16.0524 10.5095 16.2414 10.3969C17.6948 9.52837 19.2662 8.87464 20.9068 8.45595C21.1193 8.40178 21.3124 8.28905 21.4641 8.13057C21.6158 7.97209 21.7199 7.77424 21.7647 7.5595L22.6642 3.23438H27.1328C27.4436 3.23438 27.7416 3.11091 27.9614 2.89114C28.1812 2.67137 28.3046 2.3733 28.3046 2.0625C28.3046 1.7517 28.1812 1.45363 27.9614 1.23386C27.7416 1.01409 27.4436 0.890625 27.1328 0.890625H21.7109C21.4416 0.890665 21.1805 0.983453 20.9715 1.15338C20.7625 1.32332 20.6184 1.56003 20.5635 1.8237L19.6159 6.38073C18.2502 6.78373 16.9317 7.33212 15.683 8.01648L11.784 5.45758C11.5587 5.30977 11.2893 5.24409 11.0213 5.27161C10.7532 5.29912 10.5028 5.41814 10.3122 5.60864L5.33559 10.5853C5.145 10.7758 5.02592 11.0262 4.9984 11.2943C4.97088 11.5624 5.03662 11.8318 5.18452 12.057L7.74304 15.9564C7.0591 17.205 6.51073 18.5233 6.1073 19.8886L1.55027 20.8369C1.28653 20.8918 1.04975 21.0358 0.879799 21.2448C0.709846 21.4538 0.617103 21.715 0.617188 21.9844V29.0156C0.617098 29.285 0.709838 29.5462 0.879792 29.7552C1.04974 29.9642 1.28653 30.1082 1.55027 30.1631L6.1073 31.1114C6.51073 32.4767 7.0591 33.795 7.74304 35.0436L5.18452 38.943C5.03662 39.1682 4.97089 39.4376 4.99841 39.7057C5.02593 39.9738 5.14501 40.2242 5.33559 40.4147L10.3122 45.3913C10.5028 45.5818 10.7532 45.7009 11.0213 45.7284C11.2893 45.7559 11.5587 45.6902 11.784 45.5424L15.683 42.9835C16.9317 43.6679 18.2502 44.2162 19.6159 44.6192L20.5635 49.1763C20.6184 49.44 20.7625 49.6767 20.9715 49.8466C21.1805 50.0165 21.4416 50.1093 21.7109 50.1094H28.7422C29.0115 50.1093 29.2726 50.0165 29.4816 49.8466C29.6906 49.6767 29.8347 49.44 29.8896 49.1763L30.8372 44.6193C32.2029 44.2163 33.5215 43.6679 34.7702 42.9835L38.6692 45.5424C38.8945 45.6903 39.1638 45.7559 39.4319 45.7284C39.6999 45.7009 39.9503 45.5819 40.1409 45.3914L45.1175 40.4147C45.3081 40.2242 45.4272 39.9738 45.4547 39.7057C45.4822 39.4376 45.4165 39.1683 45.2686 38.943L42.7101 35.0436C43.394 33.795 43.9424 32.4767 44.3458 31.1114L48.9029 30.1631C49.1666 30.1082 49.4034 29.9642 49.5733 29.7552C49.7433 29.5462 49.836 29.285 49.8359 29.0156V23.5934C49.8359 23.2826 49.7125 22.9846 49.4927 22.7648C49.2729 22.545 48.9749 22.4216 48.6641 22.4215Z" fill="white"></path>
    <path id="Vector_2" d="M14.6797 25.5002C14.6801 23.1795 15.4455 20.9236 16.8574 19.0818C18.2693 17.24 20.249 15.915 22.4899 15.3119C22.7902 15.2317 23.0463 15.0355 23.2019 14.7664C23.3575 14.4974 23.3999 14.1775 23.3196 13.8772C23.2394 13.5769 23.0432 13.3208 22.7741 13.1652C22.5051 13.0096 22.1852 12.9673 21.8849 13.0475C19.6998 13.6342 17.7076 14.7856 16.1084 16.3861C14.5092 17.9865 13.3594 19.9796 12.7744 22.1652C12.1894 24.3507 12.1898 26.6517 12.7757 28.8371C13.3615 31.0224 14.5122 33.015 16.112 34.6149C17.7118 36.2147 19.7045 37.3653 21.8898 37.9512C24.0751 38.537 26.3761 38.5375 28.5617 37.9525C30.7472 37.3674 32.7403 36.2176 34.3407 34.6184C35.9412 33.0192 37.0926 31.027 37.6793 28.8419C37.7596 28.5416 37.7174 28.2217 37.5618 27.9526C37.4063 27.6835 37.1502 27.4871 36.85 27.4068C36.5497 27.3265 36.2298 27.3687 35.9607 27.5243C35.6915 27.6798 35.4952 27.9359 35.4149 28.2361C34.751 30.7068 33.2118 32.852 31.0839 34.2723C28.956 35.6925 26.3845 36.2911 23.8481 35.9564C21.3118 35.6217 18.9835 34.3767 17.2968 32.4531C15.6102 30.5295 14.6801 28.0585 14.6797 25.5002Z" fill="white"></path>
    <path id="Vector_3" d="M48.1926 7.46106C48.1082 7.29691 47.9863 7.15501 47.8367 7.04691C47.687 6.93879 47.514 6.86753 47.3317 6.8389C47.1493 6.81027 46.9628 6.8251 46.7873 6.88216C46.6117 6.93923 46.4521 7.03693 46.3215 7.16731L39.7641 13.7247L37.002 10.9626L43.5594 4.40518C43.6898 4.27454 43.7875 4.11495 43.8446 3.93941C43.9017 3.76387 43.9165 3.57733 43.8879 3.39497C43.8592 3.21261 43.788 3.03959 43.6798 2.88998C43.5717 2.74037 43.4298 2.61841 43.2656 2.53402C41.3675 1.56227 39.2336 1.14629 37.1094 1.33399C34.9853 1.52169 32.9574 2.30543 31.2591 3.59498C29.5608 4.88453 28.2612 6.62747 27.5099 8.62314C26.7586 10.6188 26.5862 12.7861 27.0125 14.8754L20.4291 21.4586C20.2094 21.6784 20.0859 21.9765 20.0859 22.2873C20.0859 22.5981 20.2094 22.8961 20.4291 23.1159L27.6107 30.2975C27.8305 30.5172 28.1286 30.6407 28.4394 30.6407C28.7501 30.6407 29.0482 30.5172 29.268 30.2975L35.8512 23.7142C37.9406 24.1405 40.1079 23.968 42.1035 23.2167C44.0992 22.4655 45.8421 21.1659 47.1317 19.4676C48.4212 17.7693 49.205 15.7414 49.3927 13.6172C49.5804 11.4931 49.1644 9.35917 48.1926 7.46106ZM34.5107 21.5031C34.4201 21.5938 34.3124 21.6657 34.1939 21.7148C34.0755 21.7639 33.9485 21.7892 33.8202 21.7892C33.692 21.7892 33.565 21.7639 33.4466 21.7148C33.3281 21.6657 33.2204 21.5938 33.1298 21.5031L29.2235 17.5968C29.041 17.4136 28.9386 17.1654 28.9388 16.9068C28.9391 16.6481 29.0419 16.4001 29.2248 16.2172C29.4077 16.0343 29.6557 15.9314 29.9144 15.9312C30.173 15.931 30.4212 16.0334 30.6045 16.2159L34.5107 20.1222C34.6014 20.2128 34.6734 20.3205 34.7225 20.4389C34.7715 20.5574 34.7968 20.6844 34.7968 20.8126C34.7968 20.9409 34.7715 21.0678 34.7225 21.1863C34.6734 21.3048 34.6014 21.4124 34.5107 21.5031Z" fill="#F9F8F4"></path>
  </g>
  <defs>
    <clipPath id="clip0_1601_61076">
      <rect width="50" height="50" fill="white" transform="translate(0.226562 0.5)"></rect>
    </clipPath>
  </defs>
</svg>
