<?xml version="1.0" encoding="UTF-8"?>
<svg xmlns="http://www.w3.org/2000/svg" width="51" height="51" viewBox="0 0 51 51" fill="none">
  <g id="fi_5131391" clip-path="url(#clip0_1601_61080)">
    <path id="Vector" d="M47.1641 18.0781H37.7891C37.0641 18.079 36.3691 18.3674 35.8565 18.88C35.3439 19.3926 35.0556 20.0876 35.0547 20.8125V47.7656H32.7109V29.4062C32.7101 28.6813 32.4217 27.9863 31.9091 27.4737C31.3965 26.9611 30.7015 26.6728 29.9766 26.6719H20.6016C19.8766 26.6728 19.1816 26.9611 18.669 27.4737C18.1564 27.9863 17.8681 28.6813 17.8672 29.4062V47.7656H15.5234V37.2188C15.5226 36.4938 15.2342 35.7988 14.7216 35.2862C14.209 34.7736 13.514 34.4853 12.7891 34.4844H3.41406C2.68913 34.4853 1.99414 34.7736 1.48154 35.2862C0.968931 35.7988 0.680564 36.4938 0.679688 37.2188V47.375C0.680564 48.0999 0.968931 48.7949 1.48154 49.3075C1.99414 49.8201 2.68913 50.1085 3.41406 50.1094H47.1641C47.889 50.1085 48.584 49.8201 49.0966 49.3075C49.6092 48.7949 49.8976 48.0999 49.8984 47.375V20.8125C49.8976 20.0876 49.6092 19.3926 49.0966 18.88C48.584 18.3674 47.889 18.079 47.1641 18.0781ZM3.02344 47.375V37.2188C3.02357 37.1152 3.06477 37.0159 3.138 36.9427C3.21122 36.8695 3.3105 36.8283 3.41406 36.8281H12.7891C12.8926 36.8283 12.9919 36.8695 13.0651 36.9427C13.1384 37.0159 13.1796 37.1152 13.1797 37.2188V47.7656H3.41406C3.3105 47.7655 3.21122 47.7243 3.138 47.6511C3.06477 47.5778 3.02357 47.4786 3.02344 47.375ZM20.2109 47.7656V29.4062C20.2111 29.3027 20.2523 29.2034 20.3255 29.1302C20.3987 29.057 20.498 29.0158 20.6016 29.0156H29.9766C30.0801 29.0158 30.1794 29.057 30.2526 29.1302C30.3259 29.2034 30.3671 29.3027 30.3672 29.4062V47.7656H20.2109ZM47.5547 47.375C47.5546 47.4786 47.5134 47.5778 47.4401 47.6511C47.3669 47.7243 47.2676 47.7655 47.1641 47.7656H37.3984V20.8125C37.3986 20.7089 37.4398 20.6097 37.513 20.5364C37.5862 20.4632 37.6855 20.422 37.7891 20.4219H47.1641C47.2676 20.422 47.3669 20.4632 47.4401 20.5364C47.5134 20.6097 47.5546 20.7089 47.5547 20.8125V47.375Z" fill="white"></path>
    <path id="Vector_2" d="M26.8516 23.5469H31.5391C31.8499 23.5469 32.1479 23.4234 32.3677 23.2036C32.5875 22.9839 32.7109 22.6858 32.7109 22.375V15.7344H45.6016C45.9124 15.7344 46.2104 15.6109 46.4302 15.3911C46.65 15.1714 46.7734 14.8733 46.7734 14.5625V4.89148L47.898 6.01605C48.1178 6.2358 48.4158 6.35925 48.7266 6.35925C49.0373 6.35925 49.3354 6.2358 49.5551 6.01605C49.7749 5.79631 49.8983 5.49827 49.8983 5.1875C49.8983 4.87673 49.7749 4.57869 49.5551 4.35894L46.4301 1.23394C46.3213 1.1251 46.1922 1.03876 46.05 0.979853C45.9078 0.920945 45.7554 0.890625 45.6016 0.890625C45.4477 0.890625 45.2953 0.920945 45.1531 0.979853C45.011 1.03876 44.8818 1.1251 44.773 1.23394L41.648 4.35894C41.4283 4.57869 41.3048 4.87673 41.3048 5.1875C41.3048 5.49827 41.4283 5.79631 41.648 6.01605C41.8678 6.2358 42.1658 6.35925 42.4766 6.35925C42.7873 6.35925 43.0854 6.2358 43.3051 6.01605L44.4297 4.89148V13.3906H31.5391C31.2283 13.3906 30.9302 13.5141 30.7104 13.7339C30.4907 13.9536 30.3672 14.2517 30.3672 14.5625V21.2031H26.8516C26.5408 21.2031 26.2427 21.3266 26.0229 21.5464C25.8032 21.7661 25.6797 22.0642 25.6797 22.375C25.6797 22.6858 25.8032 22.9839 26.0229 23.2036C26.2427 23.4234 26.5408 23.5469 26.8516 23.5469Z" fill="white"></path>
    <path id="Vector_3" d="M1.85156 32.1406H14.3516C14.6624 32.1406 14.9604 32.0172 15.1802 31.7974C15.4 31.5776 15.5234 31.2796 15.5234 30.9688C15.5234 30.6579 15.4 30.3599 15.1802 30.1401C14.9604 29.9203 14.6624 29.7969 14.3516 29.7969H1.85156C1.54076 29.7969 1.24269 29.9203 1.02292 30.1401C0.803153 30.3599 0.679688 30.6579 0.679688 30.9688C0.679688 31.2796 0.803153 31.5776 1.02292 31.7974C1.24269 32.0172 1.54076 32.1406 1.85156 32.1406Z" fill="white"></path>
    <path id="Vector_4" d="M13.5703 0.890647C11.1677 0.886221 8.81186 1.55459 6.76952 2.82007C4.72718 4.08555 3.07996 5.89758 2.01437 8.05098C0.948794 10.2044 0.507425 12.6131 0.74025 15.0044C0.973074 17.3957 1.87079 19.6741 3.33174 21.5815L15.8195 9.09377H10.0547C9.74392 9.09377 9.44584 8.97031 9.22608 8.75054C9.00631 8.53077 8.88284 8.2327 8.88284 7.9219C8.88284 7.6111 9.00631 7.31303 9.22608 7.09326C9.44584 6.87349 9.74392 6.75002 10.0547 6.75002H18.6485C18.9593 6.75004 19.2573 6.87351 19.4771 7.09327C19.6969 7.31304 19.8203 7.6111 19.8203 7.9219V16.5156C19.8203 16.8264 19.6969 17.1245 19.4771 17.3443C19.2573 17.5641 18.9593 17.6875 18.6485 17.6875C18.3377 17.6875 18.0396 17.5641 17.8198 17.3443C17.6001 17.1245 17.4766 16.8264 17.4766 16.5156V10.7509L4.91842 23.3091C6.46756 24.7159 8.3361 25.7242 10.3624 26.2467C12.3888 26.7692 14.5119 26.7902 16.5482 26.3078C18.5845 25.8255 20.4726 24.8543 22.0492 23.4784C23.6259 22.1024 24.8436 20.3631 25.597 18.4108C26.3504 16.4585 26.6169 14.3521 26.3734 12.2737C26.1299 10.1953 25.3838 8.20748 24.1995 6.48223C23.0152 4.75697 21.4284 3.3462 19.5764 2.37194C17.7244 1.39768 15.663 0.889254 13.5703 0.890647Z" fill="#F9F8F4"></path>
  </g>
  <defs>
    <clipPath id="clip0_1601_61080">
      <rect width="50" height="50" fill="white" transform="translate(0.289062 0.5)"></rect>
    </clipPath>
  </defs>
</svg>
