<?xml version="1.0" encoding="UTF-8"?>
<svg xmlns="http://www.w3.org/2000/svg" viewBox="0 0 393.01 369.73">
  <defs>
    <style>.cls-1{fill:#fff;}.cls-2{fill:#005aff;}</style>
  </defs>
  <g id="Layer_2" data-name="Layer 2">
    <g id="Layer_13" data-name="Layer 13">
      <polygon class="cls-1" points="59.45 65.33 60.44 249.59 246.53 250.85 246.91 62.48 168.33 62.48 167.4 59.38 126.05 64.08 59.45 65.33"></polygon>
      <polygon class="cls-1" points="311.94 11.95 309.08 12.55 308.16 14.65 309.6 16.73 312.48 17.2 313.32 15.24 313.62 14.04 311.94 11.95"></polygon>
      <polygon class="cls-1" points="325.98 11.95 323.12 12.55 322.2 14.65 323.64 16.73 326.14 16.41 327.36 15.24 327.66 14.04 325.98 11.95"></polygon>
      <polygon class="cls-1" points="336 11.95 333.43 12.78 333.17 14.88 333.91 16.7 336.31 16.43 337.38 15.24 337.68 14.04 336 11.95"></polygon>
      <polyline class="cls-1" points="0.91 0.01 1.8 22.95 10.98 23.77 34.92 23.23 45.99 21.61 45.99 2.17 9.9 0.99 0.91 0.01"></polyline>
      <polyline class="cls-1" points="177.62 239.04 177.62 267.49 180 294.96 183.24 315.19 186.72 328.56 187.15 330.8 192.66 331.38 200.58 330.31 204.91 328.14 203.7 320.64 201.12 301.44 200.76 281.35 201.36 276.13 203.1 281.52 206.7 299.7 211.5 316.32 216.6 330.13 217.16 331.55 219.36 331.55 229.56 330.55 236.95 326.84 237.31 326.17 238.09 325.18 236.83 322 225 279.19 222.15 264.79 220.33 259.29 221.04 244.26 177.62 239.04"></polyline>
      <path class="cls-1" d="M78.75,367.29l7.2-.81.85-7.65,2.39-16-.36-2.88-.27-1.53,4.07-.54L92,333.63l-1-2.84-1.26-2.64s-9.62,1.4-13.25,1.44l-17.71.22-8.6.36-4.5-.5-4.05-.08V336l1.17,1.62,3,.63,1.08,5.17,3.38,14.22,2.83,9.27,1.58.72,12.84,1.13Z"></path>
      <polygon class="cls-1" points="54.62 331.56 54 328.15 52.01 326.52 45.78 324.53 41.62 317.17 38.88 307.13 33.57 289.63 30.24 276.39 29.61 265.5 31.41 260.67 34.38 265.14 39.69 275.68 45.81 288.85 52.14 299.64 56.16 305.29 54.12 296.27 54.06 291.58 57.06 284.21 60.72 276.61 63.24 267.31 64.86 259.75 66.59 254.5 68.82 253.03 72.12 260.35 73.56 265.38 73.56 273.13 72.3 280.02 71.7 289.2 71.64 297.85 71.88 298.93 76.48 293.94 82.98 284.21 87.78 276.79 91.08 272.4 92.64 270.96 93.84 270.61 95.64 271.38 98.04 274.69 98.04 282.73 93.78 293.82 90.12 300.61 89.34 308.29 86.8 314.1 80.7 318.67 76.2 322.38 74.46 327.79 74.4 331.2 54.62 331.56"></polygon>
      <path class="cls-1" d="M263.25,89.69h-1.8s-1.18,1.59-.74,2.07,5.55,3.51,5.55,3.51l.5.18a8.91,8.91,0,0,0,1.08,3.37,1.08,1.08,0,0,1,0,1.58l.54,3.33,1.12,1.5,1.67.42s3.91-.39,5.17-1.54,7.2.7,7.2.7l8.1,2.16-.46,4.33.46,2.22,1.7,1.68,34,23.28-1,22.74-1,27.42,3.06,2.25,1.85.86v13.18l-.15,63.81L329.58,287l-.19,11-1.16,6.91-.45,2.88,1.62,1.1,5.83,1.89,8,.52,3,.18,4.88-.29-.68-3.39-.16-16.91,1.38-46L352.84,233v-1.9l.83-1.31,1.14,1.64,5,44.14L361,287.19l.4,12.85.74,8.35a2.18,2.18,0,0,0,2.07,2.16c2.16.36,8.51,1.12,8.51,1.12l8.46-2,2.43-1.26s1.35.36,1-7.07S382.32,281,382.32,281l-2.61-18.23-2.3-51.15-.46-6.52-1.14-3.35s-.08-6.3.91-7.69a5.55,5.55,0,0,0,4.36-3.4c1.26-3.1,1.4-5.65.43-7.24s-2.66-7.59-2.66-7.59l3.26-.06,2.52-3.45s9.51-11.09,7.53-23-6.47-24.78-22.4-30.9l-6.25-2a12.53,12.53,0,0,0-2.34-3,14.53,14.53,0,0,1-3.57-7.75c-.58-4.72.12-5.59.12-5.59l2.34-.7,1.74-1.74,1.08-3.06-1.2-6.4-7.74-13.28-14.16-2.7-7.89-.36-3.33,6.06-1,7.14v8.76l1.14,7.08,6.24,8.58,2.68,2.1-.34,1-5-2-12.66-3.66-13-4.86-11.3-4.79L293,96.33,292,98l-3.58-1.33-8.14-3.38L272.32,92l-5.94-1.26Z"></path>
      <path d="M303.84,28.44l1.44,9.18,8.64-.78s9.16-1.14,8.93-1.32-4.43-7.68-4.43-7.68h-13.5Z"></path>
      <path d="M3,22.37a213.34,213.34,0,0,0,40.51-.64.25.25,0,0,1,.28.35l-.09.24a.17.17,0,0,1-.14.13,158,158,0,0,1-42,1.2.52.52,0,0,1-.51-.55q-.45-10-.24-20A5.28,5.28,0,0,0,.1.65C-.12.2,0,0,.52,0L45.78,1.44a1.11,1.11,0,0,1,1.08,1.14h0l-.42,17.25a.25.25,0,0,1-.27.25.26.26,0,0,1-.24-.16c-1.2-2.84-.29-10.61-.49-16.34A.57.57,0,0,0,44.83,3L2,1.18c-.34,0-.5.15-.48.49l1,20.13A.54.54,0,0,0,3,22.37Z"></path>
      <path d="M22.08,17.47l2.65.61a.38.38,0,0,1-.14.74l-5.27-.68c-.56-.07-.64-.31-.24-.71l.93-.94a1.32,1.32,0,0,0,.39-.79l1.25-9.88c.08-.61.29-.66.63-.14,1.24,1.88-.22,8.83-.6,11.19A.48.48,0,0,0,22.08,17.47Z"></path>
      <path d="M13.74,11.71c-3.15,3.84-9.12,1-5.59-3,3-3.4,9.78-3.73,7.55,3a12.76,12.76,0,0,1-6.46,7.89.22.22,0,0,1-.29-.1.19.19,0,0,1,0-.1v-.28a.29.29,0,0,1,.14-.25A12.79,12.79,0,0,0,14.31,12a.34.34,0,0,0-.18-.43A.33.33,0,0,0,13.74,11.71Zm-5.14,0c.49.89,2.22.87,3.86,0S15,9.32,14.54,8.44s-2.21-.87-3.85,0S8.12,10.83,8.6,11.71Z"></path>
      <path d="M29.45,7.51a.31.31,0,0,1,.29.2.73.73,0,0,1-.3,1c-.41.25-.71.13-.92-.36a.6.6,0,0,1,.32-.79.69.69,0,0,1,.24,0Z"></path>
      <path d="M31.21,18.05a.1.1,0,0,1-.13.06h0l-.06,0c-.74-.27-.52-2.74.48-5.52l.12-.34c1-2.78,2.43-4.82,3.17-4.55h0l.06,0a.1.1,0,0,1,.06.13h0Z"></path>
      <ellipse cx="37.4" cy="14.73" rx="1.61" ry="1.12" transform="translate(16.22 48.9) rotate(-79.7)"></ellipse>
      <path class="cls-1" d="M65.85,15.78c3.55,2.24,3.57,5.37,3.94,10q1.63,20,1.52,40.07c0,.3-.14.4-.42.29a.51.51,0,0,1-.35-.51Q69.6,45,68.27,24.47c-.6-9.36-7.58-11.07-15.53-9.51a.82.82,0,0,1-.55,0,1.28,1.28,0,0,1-.25-.15c-.16-.13-.14-.23.05-.3Q59.58,11.81,65.85,15.78Z"></path>
      <path d="M336.74,16.77a2.79,2.79,0,0,1-3.83-.89h0a2.78,2.78,0,0,1,.72-3.87h0a2.79,2.79,0,0,1,3.83.89h0a2.78,2.78,0,0,1-.72,3.87Zm-.25-2.12A1.54,1.54,0,0,0,335,13.11h0a1.54,1.54,0,1,0,1.54,1.54Z"></path>
      <path d="M322.7,16c-.94-1.22-.69-3.4.53-4.13l.29-.18c1.22-.72,3.33.34,3.89,1.5s.46,3.05-.93,3.77A2.91,2.91,0,0,1,322.7,16Zm1.49-3.17a1.63,1.63,0,0,0-.84,1.94h0a2,2,0,0,0,2.19,1.11,1.65,1.65,0,0,0,.72-2.35A1.82,1.82,0,0,0,324.19,12.84Z"></path>
      <path d="M314.54,14.51a3.39,3.39,0,0,1-6.78,0h0a3.39,3.39,0,0,1,3.39-3.39h0A3.38,3.38,0,0,1,314.54,14.51Zm-3.42,2.21a2,2,0,0,0,1.82-2.18h0a1.93,1.93,0,1,0-3.85.19h0A2,2,0,0,0,311.12,16.72Z"></path>
      <path class="cls-1" d="M250.32,47.58,250.47,72a.34.34,0,0,1-.3.37.38.38,0,0,1-.33,0s0,0-.05-.07q-.43-12.91-.79-25.85a.5.5,0,0,1,.58-.58l41.07,1.65a.47.47,0,0,0,.55-.5A114.32,114.32,0,0,0,290,23.55c-.07-.41.1-.55.5-.42a32.34,32.34,0,0,0,13.25,1.48q7.38-.7.17.87-4.33.94-11.8-.78a.53.53,0,0,0-.63.39.46.46,0,0,0,0,.2,102.12,102.12,0,0,1,1,23.3.44.44,0,0,1-.52.47L250.8,47.12A.41.41,0,0,0,250.32,47.58Z"></path>
      <path class="cls-1" d="M307.33,28.66l-2.06-.33a.56.56,0,0,0-.63.46v.14l1,8.65a.45.45,0,1,1-.88.19,24.64,24.64,0,0,1-1.21-9,1.12,1.12,0,0,1,1.17-1.19,262.56,262.56,0,0,1,39.67.45c1.05.09,3.13-.21,4.54.38a.34.34,0,0,1,.18.45.37.37,0,0,1-.32.21h-1.37a.54.54,0,0,0-.61.61v7.35a.21.21,0,0,1-.24.24l-39,.47c-.63,0-.79-.26-.49-.81L315,35.89a1.94,1.94,0,0,0,.24-1V29C315.22,28.68,307.64,28.71,307.33,28.66Z"></path>
      <path d="M199.37,95.73l-2.77-.51a.21.21,0,0,1-.18-.24.21.21,0,0,1,.24-.18c10,.82,3.86-17.36-2.61-10.41a.51.51,0,0,1-.82,0l-.24-.25a.63.63,0,0,1-.11-.86,8.21,8.21,0,0,0,1-6.67.61.61,0,0,0-.62-.5c-7.18-.21-21.45,1.62-22.75-8.11a10.82,10.82,0,0,1,14.58-11.77q6,2.11,12.36,3.91a.31.31,0,0,0,.37-.21.34.34,0,0,0-.08-.29l-.9-.9a.4.4,0,0,1,0-.56.38.38,0,0,1,.48-.06l3.76,2.25a2.14,2.14,0,0,0,1.07.31c4.29.14,8.31,1.23,12.42,1.08q16-.56,32,.12c.93,0,1,.23.34.58a3.18,3.18,0,0,1-1.31.25q-16,.47-31.78,0a.33.33,0,0,0-.34.32.35.35,0,0,0,.22.33c15.89,5.7,9.49,24.46,3.67,34.51-3.11,5.39-11.81,8.67-16.2,2.16a.34.34,0,0,0-.59.34l1.16,2.32a.31.31,0,0,1-.05.33l-.21.2a.21.21,0,0,1-.33,0q-3.41-2.86-1.53-7.07C199.73,95.94,199.65,95.78,199.37,95.73Z"></path>
      <path d="M119.8,65.49A398.84,398.84,0,0,1,77,65q-2.06-.13-.69-1.5A4.41,4.41,0,0,1,78,63.28c19.52-.75,32.55-.19,48.86,0a52.06,52.06,0,0,0,9.71-.89,199.26,199.26,0,0,1,27.79-3c.27,0,.4.12.37.39a.4.4,0,0,1-.4.37,335.6,335.6,0,0,0-59.91,11.13.24.24,0,0,1-.29-.18.29.29,0,0,1,0-.18,2.25,2.25,0,0,1,1.23-.74q7.15-2.25,14.49-4.33C120.83,65.57,120.81,65.45,119.8,65.49Z"></path>
      <path d="M176.59,105.91a.13.13,0,0,1-.15-.1l-5.57-26.19c-2.23-10.49-3.76-19.06-3.43-19.16l.16,0c.34-.08,2.42,8.37,4.66,18.87v0l5.57,26.2a.13.13,0,0,1-.1.15Z"></path>
      <path d="M331.35,81.37a2.89,2.89,0,0,1,3.51,1.94.41.41,0,0,1-.69.43,2.59,2.59,0,0,0-3.65-.56.92.92,0,0,1-1,.06c-.73-.36-1.14-.14-1.21.66-1,10.24-.29,21.55,10.43,26.87,9.46.82.77,8.74,5,12.83,5.66,5.5,15.81-2.81,19.1-6.86a.26.26,0,1,1,.44.28c-2.18,4.62-13.1,13.35-19.06,8.85q-5-3.8-2.63-10.43c.11-.31.54-1.53.33-1.79-.93-1.15-2.83-.62-3.92-1.25a26.46,26.46,0,0,1-4.88-3.59c-5.74-5.37-6.86-13.34-5.85-20.83a.38.38,0,0,0-.34-.42.41.41,0,0,0-.26.07l-.4.29a.25.25,0,0,1-.34,0l0-.06a1.87,1.87,0,0,1,.14-1.77.5.5,0,0,0-.26-.81c-1.95-.9-8.11-16.13,6.6-18.12a.62.62,0,0,0,.8-.09c6.9-12.68,18-8.52,24.34-4.64s10.48,10.32,7.8,20.27,1,21.45-4.57,20.21a1.74,1.74,0,0,1-.85-.56,2.14,2.14,0,0,0-1.25-.77c-.67-.15-.79,0-.38.6,0,0-.27,9,3,10.68,1.61.8,1,1.52.66,1.6-5.88-1.75-5.19-13-4.8-14.72a.85.85,0,0,0-.24-.83l-.23-.23a.35.35,0,0,1,0-.49.36.36,0,0,1,.34-.09c4.8,1.49,5.43-5.25,2.18-7.53a1,1,0,0,0-.91-.16l-3.1.87a.55.55,0,0,1-.69-.38.6.6,0,0,1,0-.23,4.81,4.81,0,0,0-.92-3.6.32.32,0,0,0-.46-.08.35.35,0,0,0-.14.34,2.18,2.18,0,0,1,0,.79.5.5,0,0,1-.6.39.51.51,0,0,1-.39-.36,7.17,7.17,0,0,1,.74-6c.24-.39.14-.62-.31-.69a34.18,34.18,0,0,1-14.59-6.1.65.65,0,0,0-.94.07L331.17,81C330.87,81.32,330.93,81.44,331.35,81.37Z"></path>
      <path d="M246,69.76c0-.64.26-.75.73-.32a2.87,2.87,0,0,1,.67,2.15q1.45,88.36-.07,177.06,0,2.68-1.5.42a2.76,2.76,0,0,1,0-1.49,9.33,9.33,0,0,0,.11-1.49Q244.05,159.1,246,69.76Z"></path>
      <path class="cls-2" d="M147.93,70.58c17.33,2.27,16.11,38.83-6.61,35C120.47,102,124.5,67.53,147.93,70.58Zm8.78,9.64c-2.38-7.94-11.08-10.42-18.14-7a.29.29,0,0,0-.16.43l6.23,14.08a.29.29,0,0,0,.37.15l0,0L156.42,81A.6.6,0,0,0,156.71,80.22Zm.47,13.14c-3.86-.23-9.07-2.19-12.76-3.61a1.25,1.25,0,0,1-.74-.72l-6.37-14.64c-.14-.33-.36-.39-.66-.2q-8.13,5.36-7.63,15.4c.88,17.52,21.79,20.67,28.77,4.77C158.06,93.73,157.86,93.4,157.18,93.36Zm-11.31-4.31,11.58,3.2c.71.2,1-.07,1-.8l-.59-8.68a.65.65,0,0,0-.68-.6.63.63,0,0,0-.3.1l-11,6.71a.05.05,0,0,0,0,0S145.85,89.06,145.87,89.05Z"></path>
      <path d="M107.17,75.78a.33.33,0,0,1-.38-.29.34.34,0,0,1,.29-.39h0l20.21-4.54a.26.26,0,0,1,.2.47C123.17,73.93,112.42,75.53,107.17,75.78Z"></path>
      <path d="M60.38,232.59c0,2.89-.35,5.83-.62,8.7q0,.42-.45.3l-.28-.08a.19.19,0,0,1-.12-.16q-1.75-84.78-.24-169.55a.6.6,0,0,1,1.08-.36,2.66,2.66,0,0,1,.23.38,1.29,1.29,0,0,1,.14.56Q61.55,152.5,60.38,232.59Z"></path>
      <path d="M103.13,78a55.61,55.61,0,0,1-1-6.13c0-.08.07-.15.24-.22a.31.31,0,0,1,.41.17v0Q106,83.37,108.54,95a.89.89,0,0,1,0,.59.63.63,0,0,1-.23.27c-.3.17-.49.09-.58-.24l-4.43-16a.51.51,0,0,0-.56-.4,303.66,303.66,0,0,1-30.77.08.4.4,0,0,1-.38-.42h0q0-.37.3-.39,15.44-.73,30.89,0C103.07,78.52,103.2,78.37,103.13,78Z"></path>
      <path d="M107.84,78.57a.12.12,0,0,1,.08-.15h0l7.92-1.9c4.81-1.15,8.79-1.77,8.88-1.38h0v0c.09.39-3.73,1.65-8.54,2.8l-7.91,1.9a.12.12,0,0,1-.15-.08h0Z"></path>
      <path d="M229,77.59l2,56.53c0,.66-.2.76-.68.31-.73-.7-.47-1.9-.52-2.66q-1.55-27.33-1.83-54.72c0-.46.22-.66.68-.6l7.32,1a1,1,0,0,1,.82.68,17.09,17.09,0,0,1,.57,4.2q1.22,32.11.85,49.62c0,.36-.15.42-.42.19a1.63,1.63,0,0,1-.42-1.25q-.65-25.78-1.32-51.58a.78.78,0,0,0-.69-.82l-5.92-1.2C229.16,77.18,229,77.3,229,77.59Z"></path>
      <path d="M181.08,95.32c1.31,7.55,11.49,8.64,12.35,14.21a.33.33,0,0,1-.27.4.34.34,0,0,1-.4-.27h0c-.6-2.51-5.12-4.85-7.4-6.46a12.52,12.52,0,0,1-5.86-9.93.78.78,0,0,0-.51-.7c-2.91-1.24-2.09-5.07.09-6.59a1,1,0,0,0,.42-.79c0-1.84.14-4.45.35-7.84a.27.27,0,0,1,.19-.27.14.14,0,0,1,.19.09.09.09,0,0,1,0,0l.17,15.43a1.28,1.28,0,0,0,1.29,1.27,1.34,1.34,0,0,0,.4-.07l2.77-.94a.37.37,0,0,1,.39.59,3.8,3.8,0,0,1-3.69,1.32C181.18,94.76,181,94.93,181.08,95.32Zm-2.58-4.43a.37.37,0,0,0,.72-.07l.34-3.27a.46.46,0,0,0-.41-.49.47.47,0,0,0-.45.27A5.14,5.14,0,0,0,178.5,90.89Z"></path>
      <path d="M185.78,78.19a.5.5,0,0,1,0,.71.5.5,0,0,1-.44.12l-2.49-.49a.4.4,0,0,1-.33-.46.42.42,0,0,1,.18-.27A2.17,2.17,0,0,1,185.78,78.19Z"></path>
      <ellipse cx="113.74" cy="80.88" rx="4.58" ry="0.75" transform="translate(-12.63 21.64) rotate(-10.3)"></ellipse>
      <path d="M105.9,120.7a.78.78,0,0,1,.66.22c.35.33.28.5-.19.53q-16.66.83-33.32.11a.76.76,0,0,0-.69.34.48.48,0,0,1-.47.19.39.39,0,0,1-.35-.36Q70.07,101.2,70.3,80.61a.47.47,0,0,1,.32-.46L71,80c.19-.06.29,0,.3.22l1.25,40a.47.47,0,0,0,.55.51q16.2-.73,32.22,0A3.34,3.34,0,0,0,105.9,120.7Z"></path>
      <path d="M341.11,82.4c1.76-3.22,5.51-1,6.09,1.71a.35.35,0,0,1-.63.26,3.57,3.57,0,0,0-5-1.49C340.92,83.17,340.78,83,341.11,82.4Z"></path>
      <path d="M183.87,85.51a.19.19,0,0,1-.21.17h0l-.14,0c-.58-.08-.94-1.07-.79-2.22l.05-.4c.15-1.15.75-2,1.33-1.94h.14a.19.19,0,0,1,.17.21h0Z"></path>
      <path d="M337.21,97.87a.75.75,0,0,1,.42.52c.1.37,0,.51-.41.41-4.58-1.17-2.73-1.47-1.5-4.8.25-.66.39-.63.44.07C335,97.73,336.92,97.74,337.21,97.87Z"></path>
      <path d="M331,87.65v2.24q0,.61-.6.51a.55.55,0,0,1-.46-.5,10.48,10.48,0,0,1-.15-3.35.69.69,0,0,1,.66-.68A3.07,3.07,0,0,1,334,87.62a.53.53,0,0,1-.22.72.52.52,0,0,1-.57,0l-1.38-1C331.29,86.9,331,87,331,87.65Z"></path>
      <path d="M343.83,87.56l.25,2.61a.32.32,0,0,1-.3.34.29.29,0,0,1-.22-.07,3.21,3.21,0,0,1-.87-3.77,1.23,1.23,0,0,1,1.16-.86,3.63,3.63,0,0,1,3.64,2.46.38.38,0,0,1-.2.48.33.33,0,0,1-.33,0l-2.45-1.57a.44.44,0,0,0-.61.13A.45.45,0,0,0,343.83,87.56Z"></path>
      <path d="M291.29,98.05c-3.65-.62-6.42-2.84-9.4-3.68-6.75-1.9-12.87-1.48-19.35-4.26a.92.92,0,0,0-1,.11l-.23.17c-.64.47-.8.35-.47-.38s1.07-1,2.2-.75c2.92.66,5.26,1.83,8.37,1.91,7.32.21,13.84,3.47,20.15,5.74a.57.57,0,0,0,.65-.15l.6-.59a.41.41,0,0,1,.57,0,.4.4,0,0,1,.11.39,73.63,73.63,0,0,0-1.65,16.07,1,1,0,0,0,.43.83l35.39,24.74a.79.79,0,0,1,.36.72l-2,49.15a1.58,1.58,0,0,0,.89,1.48,52.71,52.71,0,0,0,33.64,4,.32.32,0,0,1,.4.2.31.31,0,0,1-.2.39c-8,3.9-21.91,1.76-29.72-1.46a.32.32,0,0,0-.43.19.28.28,0,0,0,0,.13q.5,36,0,71.86c-.2,15.8-.08,28.26-2.19,39.8a.18.18,0,0,1-.2.16.2.2,0,0,1-.16-.21h0c2.42-37,1.17-74.53,1.79-111.66a.8.8,0,0,0-.38-.73l-4.13-2.74a1.22,1.22,0,0,1-.57-1.1l2-49.46a.65.65,0,0,0-.34-.63,276.76,276.76,0,0,1-34.85-24.5,1.57,1.57,0,0,1-.53-.83c-1.28-4.68,0-9.57.69-14.26A.5.5,0,0,0,291.29,98.05Z"></path>
      <path d="M269.79,96a.11.11,0,0,1,0,.15h0l0,.05c-.31.64-2.46.22-4.79-.94h0l-.21-.11c-2.33-1.15-4-2.61-3.66-3.25l0-.06a.11.11,0,0,1,.15,0h0Z"></path>
      <path d="M113.41,94.5a1.13,1.13,0,0,1,.27-.47.48.48,0,0,1,.6,0,.34.34,0,0,1,.08.29,24.91,24.91,0,0,0,1,15,.33.33,0,0,1-.19.43.3.3,0,0,1-.23,0,1,1,0,0,1-.58-.48A17.21,17.21,0,0,1,113.41,94.5Z"></path>
      <path d="M119.24,105.84l.17-2.5a1,1,0,0,1,.51-.79c5.12-2.76,6.25,14.78,6.12,16.84a.37.37,0,0,1-.73,0c-.57-4.48-1.26-11.53-3.79-15.2a.48.48,0,0,0-.65-.13.46.46,0,0,0-.21.41l.18,4.81c0,.4-.14.49-.47.27-4.4-3-4.06-9.68-4.64-14.33a.39.39,0,0,1,.33-.43.42.42,0,0,1,.16,0l.45.15a.25.25,0,0,1,.17.2l1.81,10.7a.31.31,0,0,0,.36.23A.3.3,0,0,0,119.24,105.84Z"></path>
      <path d="M105.79,108.35c-.12,8.36,6.1,14.47,13.81,16.43.58.15.58.3,0,.46-6.75,2-16.57-9.86-14.84-16.53a1.26,1.26,0,0,1,.57-.75c1.1-.64-.24-7.44,3.86-10.43a5.9,5.9,0,0,0,.75-.66l1.37-1.45a.36.36,0,0,1,.51,0,.34.34,0,0,1,.07.39c-2.68,5.66-.91,10.34,1,15.4a.35.35,0,0,1-.18.45.34.34,0,0,1-.41-.12,16.36,16.36,0,0,1-3.14-12.23c.09-.67,0-.73-.44-.16-2.93,4.28-.91,9.37,1.21,14,.36.77.23,1-.38.64a1.72,1.72,0,0,1-.61-.62,22.72,22.72,0,0,1-2.46-4.9A.39.39,0,0,0,106,108,.37.37,0,0,0,105.79,108.35Z"></path>
      <path d="M275,98.05a3.67,3.67,0,0,1,2.64-1.86.42.42,0,0,1,.5.32.4.4,0,0,1-.15.42L276.71,98a.69.69,0,0,0,.3,1.19l4,.93a.42.42,0,0,1,.34.47.4.4,0,0,1-.35.34,7.44,7.44,0,0,1-5.64-1.06A1.36,1.36,0,0,1,275,98.05Z"></path>
      <path d="M269.26,103.69a2.86,2.86,0,0,0,3.06,1.12.4.4,0,0,1,.47.34.4.4,0,0,1-.14.38,3,3,0,0,1-4.83-2.34,2,2,0,0,0-.16-.83,10.78,10.78,0,0,1-.86-5.3.37.37,0,0,1,.39-.33.38.38,0,0,1,.29.2,4,4,0,0,0,4.81,2.36.44.44,0,0,1,.27.82,4.64,4.64,0,0,1-3.77.25.34.34,0,0,0-.44.17.33.33,0,0,0,.1.39,4.25,4.25,0,0,0,3.83,1.13.35.35,0,0,1,.4.27.33.33,0,0,1-.09.3,2.18,2.18,0,0,1-2.83.46.42.42,0,0,0-.54.21A.41.41,0,0,0,269.26,103.69Z"></path>
      <path d="M332.21,109.83a21,21,0,0,1,7.76,4,.3.3,0,0,1-.35.49h0a40.49,40.49,0,0,0-9.21-3.69,148.69,148.69,0,0,1-35-13.19.2.2,0,0,1-.09-.27l0,0,.25-.24a.12.12,0,0,1,.16,0A262.81,262.81,0,0,0,332.21,109.83Z"></path>
      <path d="M341.41,100.6c-1.86,1.9-3.55,2.88-6,1.25a.42.42,0,0,1,.33-.76,6.14,6.14,0,0,0,4.87-1,.44.44,0,0,1,.5,0l.24.14C341.52,100.36,341.54,100.47,341.41,100.6Z"></path>
      <path d="M172.82,101.8l-25.26,6.89a.39.39,0,0,1-.5-.25.4.4,0,0,1,.25-.51h0a156,156,0,0,1,25.31-7,.44.44,0,0,1,.52.32A.43.43,0,0,1,172.82,101.8Z"></path>
      <ellipse cx="285.63" cy="105.23" rx="0.74" ry="3.97" transform="translate(121.52 361.6) rotate(-77.6)"></ellipse>
      <ellipse cx="184.77" cy="107.95" rx="0.76" ry="6.55" transform="translate(21.09 245.8) rotate(-70.4)"></ellipse>
      <ellipse cx="152.32" cy="115.23" rx="22.71" ry="0.77" transform="matrix(0.97, -0.26, 0.26, 0.97, -24.63, 43.35)"></ellipse>
      <path d="M219.46,128.47a.37.37,0,0,0-.3-.41.36.36,0,0,0-.34.15c-1.38,2.1-6.41,2.47-8.79,2.54-2.79.09-2.83-.18-.1-.79,5.92-1.32,9.8-3.83,8-10.73a1,1,0,0,1,.19-.84l2.58-3.22a.82.82,0,0,0,.17-.72c-1.46-7.07-10.78.68-14.93-.73-.29-.1-.28-.19,0-.28,3.94-1.21,11.18-5,14.76-2.19,3.35,2.63.83,5.28-1,7.45a1,1,0,0,0-.2.91,9.79,9.79,0,0,1-.33,6,1,1,0,0,0,0,.88c2.12,4.5-.71,14.33-1.57,19.27a116.93,116.93,0,0,0,1,46.47q.83,3.66-.67.2a33.44,33.44,0,0,1-1.83-6.94C212.45,165.12,216.11,148.35,219.46,128.47Z"></path>
      <path d="M174,119.9a17.73,17.73,0,0,1,10-2.57.11.11,0,0,1,.09.13.1.1,0,0,1-.07.08q-7.85,2.1-12,5c-12.75,8.93-26,12-40.29,4.14a.33.33,0,0,1-.13-.47.35.35,0,0,1,.46-.2h0c15.37,6.6,26.61,4,39.9-5.14.29-.2.27-.38,0-.54a12.14,12.14,0,0,1-6.18-7.11.44.44,0,0,1,.79-.38,27.08,27.08,0,0,0,6.47,7A.91.91,0,0,0,174,119.9Z"></path>
      <path d="M212.39,117a.3.3,0,0,1,0,.59c-3.83,1-10.23-.61-13.89-1.82-5.21-1.73-8.71-1.74-13.54-.09a.43.43,0,0,1-.54-.28.43.43,0,0,1,.19-.5c4.8-2.71,8.17-2.17,13.84-.59A89.54,89.54,0,0,0,212.39,117Z"></path>
      <path d="M365,116.81c25.94,3.7,37.17,38.9,19.39,56.36a.87.87,0,0,1-.53.28c-.28,0-.33-.07-.16-.29,15.6-19.57,6.75-49.41-18.76-55.77-.21,0-.27-.18-.18-.37S364.89,116.8,365,116.81Z"></path>
      <path d="M188.44,118.31c2.65,9.86,6.43,15.28,17.74,12.51a.32.32,0,0,1,.4.2.31.31,0,0,1-.2.39h0c-11.16,4.86-17.76-2.74-18.57-13a.32.32,0,0,1,.63-.1Z"></path>
      <path d="M170,151q-26.38,6.47-42.14-14.59a1.62,1.62,0,0,1-.33-.84,14.09,14.09,0,0,1,1.78-9.3.45.45,0,0,1,.61-.13.44.44,0,0,1,.19.46l-2,8.25a1,1,0,0,0,.21.87q18.58,22.2,46.52,12.47a1.22,1.22,0,0,1,.47-.07.23.23,0,0,1,.21.25.22.22,0,0,1-.14.19Z"></path>
      <path d="M123.42,127.86a6,6,0,0,1,3.35,4.34.44.44,0,0,1-.32.54.46.46,0,0,1-.46-.17l-3.15-4a.47.47,0,0,1,.58-.71Z"></path>
      <ellipse cx="234.82" cy="135.07" rx="0.76" ry="3.64" transform="translate(87.25 362.24) rotate(-86.9)"></ellipse>
      <path d="M368.73,139.9a.9.9,0,0,1-.62-.37.39.39,0,0,1,0-.55.41.41,0,0,1,.47,0c10.7,6.41,10.54,20.65,1.51,28.66-.18.16-.3.13-.36-.1a.92.92,0,0,1,0-.29.5.5,0,0,1,.1-.24C376.86,158.56,377.69,147.34,368.73,139.9Z"></path>
      <path d="M70.2,150.76a1.15,1.15,0,0,1-.71-.36.34.34,0,0,1,.06-.48.37.37,0,0,1,.23-.07q13.11,1.23,26.26,1.89c.65,0,1,.22,1,.56a.41.41,0,0,1-.45.5A121.78,121.78,0,0,1,70.2,150.76Z"></path>
      <path d="M170,151c.51.27.71,1,.58,2.07q-2.62,23.21-4.35,46.89a.79.79,0,0,0,.51.8l4.32,1.7a.34.34,0,0,1-.22.64l-5.25-1.56a.61.61,0,0,1-.48-.66A383.75,383.75,0,0,1,170,151Z"></path>
      <path d="M175.29,218.56a.37.37,0,0,1,.21.18.34.34,0,0,1,0,.2,1.89,1.89,0,0,1-.06.38.59.59,0,0,1-1.16,0c-4.85-22.27-2.22-45.22-.53-67.61a.11.11,0,0,1,.1-.1.12.12,0,0,1,.08,0l.23.22a.25.25,0,0,1,.06.16c.28,22.55-3.51,44.78.8,66.26A.35.35,0,0,0,175.29,218.56Z"></path>
      <path d="M136.76,162.75l-67.8.51q-.31,0-.21-.3l.12-.36a.16.16,0,0,1,.16-.12q33.91-1.64,67.85-.41c.17,0,.22.09.17.24l-.1.3A.2.2,0,0,1,136.76,162.75Z"></path>
      <path d="M379.53,176.85c1.55,4.35,5.31,10,1.8,14.2-.45.53-.64.45-.58-.24a5.42,5.42,0,0,1,.58-1.95,1.79,1.79,0,0,0,.19-.73c.15-3.55-2.41-8.2-3.2-11.88a.79.79,0,0,0-.63-.64,13.08,13.08,0,0,1-5.75-3,.56.56,0,0,0-.8,0c-3.59,2.83-8.81,9.55-4.61,13.75.45.46.37.6-.24.41a3.63,3.63,0,0,1-2.85-4.28q.74-6.7,7.12-10.48a.52.52,0,0,0,.19-.71l0,0-1.24-1.79a.41.41,0,0,1,.07-.56.39.39,0,0,1,.55.07,17.7,17.7,0,0,0,11.75,6.11.4.4,0,0,1,.4.39.39.39,0,0,1-.39.39h0l-1.93.29a.51.51,0,0,0-.42.57A.3.3,0,0,0,379.53,176.85Z"></path>
      <path d="M110.55,174.72A313.19,313.19,0,0,1,70.61,176a.58.58,0,0,1-.46-.16.6.6,0,0,1-.08-.42.31.31,0,0,1,.33-.3l40.08-1.24a.31.31,0,0,1,.33.29.28.28,0,0,1,0,.09C110.73,174.56,110.65,174.71,110.55,174.72Z"></path>
      <path d="M368.63,192.69l-3.26.93a.48.48,0,0,1-.58-.35.49.49,0,0,1,.13-.46,5.46,5.46,0,0,1,3.89-1.45.64.64,0,0,0,.7-.59,21.11,21.11,0,0,0,0-7.18.38.38,0,0,1,.08-.31c.39-.47.69-.36.88.33a16.79,16.79,0,0,1-.64,11.29.31.31,0,0,0,.17.44.36.36,0,0,0,.32,0,.37.37,0,0,0,.21-.2,28.07,28.07,0,0,0,3.3-11.53.41.41,0,0,1,.46-.35.4.4,0,0,1,.35.33A15.53,15.53,0,0,1,370,197.05a.49.49,0,0,1-.69,0,.57.57,0,0,1-.11-.16,5.27,5.27,0,0,1-.15-3.75.35.35,0,0,0-.23-.45A.3.3,0,0,0,368.63,192.69Z"></path>
      <path d="M72.69,184.39a.14.14,0,0,1-.14-.16v0c.07-.32.34-.49.8-.51q26.3-.78,52.58,0a.34.34,0,0,1,.36.34c0,.19-.05.29-.19.3Q100.53,185.24,72.69,184.39Z"></path>
      <path d="M376.34,184.07a.36.36,0,0,1,.34-.36.35.35,0,0,1,.35.27,11.58,11.58,0,0,1-3.16,11.51.49.49,0,0,1-.46.13c-.44-.11-.52-.35-.24-.73A16.83,16.83,0,0,0,376.34,184.07Z"></path>
      <path d="M376.54,195.11V203a.54.54,0,0,1-.52.56.55.55,0,0,1-.56-.53h0c-.18-3.06-.62-5.51.68-8.43a30.3,30.3,0,0,0,2.45-8.88.39.39,0,0,1,.77,0,9,9,0,0,1-2.49,8.56A1.14,1.14,0,0,0,376.54,195.11Z"></path>
      <path d="M190.39,200.49c-6.66-1.36-12-7.43-13.22-14a.34.34,0,0,1,.65-.18,23.89,23.89,0,0,0,12.8,13.47.37.37,0,0,1-.23.7Z"></path>
      <path d="M202.23,280.48a.12.12,0,0,0-.14-.13.15.15,0,0,0-.15.15h0a193.31,193.31,0,0,0,3.35,46.59c.47,2.41-3.81,3.62-5.42,4.14a.69.69,0,0,0-.52.77l1.29,23.27a.57.57,0,0,1-.45.64c-9.41,2.88-23.87,5.71-33.42,3a1,1,0,0,1-.69-1.25,1,1,0,0,1,.23-.41c4.44-4.75,16.81-8.78,23.09-10.86a.84.84,0,0,0,.61-.78l1.09-13.26a.56.56,0,0,0-.57-.68l-2.64-.27a.82.82,0,0,1-.74-.59c-6.63-18.47-8.87-40.84-9.91-59.46q-1.44-25.84-.54-51.74a.66.66,0,0,0-.5-.71l-.37-.12a.27.27,0,0,1-.17-.36.31.31,0,0,1,.15-.17c14.36-6.42,30.18-11,42-22.18a.32.32,0,0,1,.5.39l-.83,1.48a.68.68,0,0,0,0,.77,17.3,17.3,0,0,1,2.92,8.65q1.44,21.59,1.26,43.22a.4.4,0,0,0,.44.44l21.11.34c.42,0,.57.21.45.62-.05.18-.21.28-.46.3A132.48,132.48,0,0,1,222.2,252a.42.42,0,0,0-.52.43,31.72,31.72,0,0,0,0,8.47q6.79,31,15.72,61.47a2.21,2.21,0,0,1,.11.91.26.26,0,0,1-.31.22.25.25,0,0,1-.21-.17,390.16,390.16,0,0,1-14.94-56,.44.44,0,0,0-.64-.38l-.48.15a.52.52,0,0,1-.64-.34.77.77,0,0,1,0-.15q.18-25.63-.6-51.24a101.12,101.12,0,0,0-1.13-13.72c-.09-.49-.33-.58-.72-.28-12.2,9.22-28.85,12.81-40,16.86a.79.79,0,0,0-.57.76c-.13,2.51.28,5.57.29,7.5.06,28.07,1,56.29,5.51,84A150,150,0,0,0,187.49,330a.87.87,0,0,0,.8.61A54.7,54.7,0,0,0,203,329a2,2,0,0,0,1.51-2.46h0c-7.38-30.95-4.64-65.73,3.81-96.1.64-2.29.84-2.26.6.11a44,44,0,0,1-.84,4.85,323.84,323.84,0,0,0-5.56,35.95,24.78,24.78,0,0,0,.37,7.34,362.31,362.31,0,0,0,14.61,52.42c.11.29,0,.43-.3.4a.41.41,0,0,1-.37-.24A210.29,210.29,0,0,1,202.23,280.48Z"></path>
      <path d="M373.07,208c-5.65.72-10-2.37-11.26-7.87a1.53,1.53,0,0,1,.08-1.23c.26-.37.46-.33.59.1q2.41,7.72,10.56,8.18a.41.41,0,0,1,.43.4.42.42,0,0,1-.4.42Z"></path>
      <path d="M72.88,202.24a.1.1,0,0,1-.1-.11v0c0-.73,6.68-1.27,14.9-1.2l17.18.14c8.22.07,14.88.73,14.87,1.46v0a.11.11,0,0,1-.11.11Z"></path>
      <path d="M353.76,231.37a.37.37,0,0,0-.41-.3.35.35,0,0,0-.29.29.54.54,0,0,0,.09.3.77.77,0,0,1,.12.47q-2.34,38.7-2.22,77.47c0,.41-.12.45-.35.12a2.3,2.3,0,0,1-.36-1.19,560.68,560.68,0,0,1,2-75.44c.2-2.21.9-4,.45-6a94.53,94.53,0,0,0-7.59-21.67c-.11-.22,0-.31.2-.28a.49.49,0,0,1,.36.26c6.16,10.36,9.19,22.85,10.85,34.68a599.28,599.28,0,0,1,5.61,68c0,.47-.08.49-.25.06a7.33,7.33,0,0,1-.61-2.44Q359.26,268.23,353.76,231.37Z"></path>
      <path d="M384.65,303.77q0,.36-.3.12a1.34,1.34,0,0,1-.25-.37.79.79,0,0,1-.08-.41,59.37,59.37,0,0,0-.77-12.27,464.8,464.8,0,0,1-6.36-84.46s.06-.06.13,0h0l.19.06s.06,0,.07.1c.12,1.9.5,4,.53,5.79a602.33,602.33,0,0,0,6.48,77.29A58,58,0,0,1,384.65,303.77Z"></path>
      <path d="M74.48,208.89a.19.19,0,0,1-.19-.19h0v-.07c0-.69,4.32-1.27,9.62-1.29h.26c5.31,0,9.62.53,9.62,1.23h0v.07a.18.18,0,0,1-.19.19h0Z"></path>
      <path d="M74.09,216.46a188.71,188.71,0,0,0,25.09.58,164.19,164.19,0,0,1,33.36,1.84,1.39,1.39,0,0,1,.6.23.29.29,0,0,1,.06.41.31.31,0,0,1-.27.11,230,230,0,0,0-31.07-1.09c-9.55.32-19.3.92-27.87-1.53a.28.28,0,0,1,.1-.55Z"></path>
      <path d="M136.52,239.24a9.92,9.92,0,0,1-.31-5.27.43.43,0,0,1,.52-.31.4.4,0,0,1,.31.29,12,12,0,0,1,.15,6,.81.81,0,0,1-.71.63c-1,.11-2.4.18-4.19.22q-23.19.56-57.25,0a44.6,44.6,0,0,1-6.09-.4.43.43,0,0,1-.4-.51l.61-7.84c0-.37.21-.48.55-.34.71.29.66.42,1.5.39q32.75-1,65.48,0a.31.31,0,0,1,.33.36c0,.23-.11.35-.29.35q-30.55.81-65.75,0a.44.44,0,0,0-.5.44l-.67,6.19a.25.25,0,0,0,.22.28h0l66.13,0C136.51,239.7,136.62,239.55,136.52,239.24Z"></path>
      <path d="M172.85,249a.3.3,0,0,1,.26.34.28.28,0,0,1-.12.2,2,2,0,0,1-1.21.35q-55.07,1.74-110.15.24A1.6,1.6,0,0,1,61,250a1.46,1.46,0,0,1-.54-.41.5.5,0,0,1,.11-.71.56.56,0,0,1,.28-.1q52.83-1.65,105.71-.24C168.57,248.59,170.68,248.75,172.85,249Z"></path>
      <path d="M53.61,300.17c-2.09-12.13,5.08-15.86,7.22-26.32,1.18-5.77,3-17.24,7.37-21.31a.62.62,0,0,1,.87,0l.07.09a31,31,0,0,1,4.67,23.71,81.63,81.63,0,0,0-1.72,20.83.4.4,0,0,0,.68.27,30.78,30.78,0,0,0,4.06-5.08Q87.56,276.1,90.94,271.5q2.69-3.66,6.06-.11c2.7,2.83,2,10.78,1.06,14.14-2.17,8-8.11,11.53-7.85,21.33.27,10.42-14.2,11.63-15.32,21.55a.42.42,0,0,0,.37.46h0l11.82-.42c.21,0,.27.09.17.28a.92.92,0,0,1-.75.37,206.22,206.22,0,0,1-41.17,1.14c-.22,0-.3-.13-.24-.34s.12-.23.21-.23q3.85-.07,7.69-.1a.49.49,0,0,0,.5-.48.5.5,0,0,0-.06-.24l-.78-1.47a.87.87,0,0,0-.65-.48C43,325.34,41.13,319.74,39.24,311c-2.67-12.43-8.07-23.55-9.78-36.51-.75-5.71-1.45-9.1.86-13.44a.81.81,0,0,1,1.09-.34.83.83,0,0,1,.21.16c6.38,6.9,8.31,14.62,11.8,21.86a168.41,168.41,0,0,0,9.84,17.61.19.19,0,0,0,.35-.13Zm14.57-45.75c-4.6,8.72-4.58,18.54-9.07,27.41-1.82,3.6-5.27,8.71-4.34,12.9,1.67,7.47,4.53,12.66,6.72,19.11a.39.39,0,0,0,.5.24.37.37,0,0,0,.25-.35c.13-6.78,4-10.67,8.82-14.76a1,1,0,0,0,.34-.82,84.14,84.14,0,0,1,.81-21.51c1.47-8.77.81-15-3.81-22.23C68.32,254.29,68.25,254.29,68.18,254.42Zm-6.26,73.89C61.31,316.18,55,305,48.11,294.21a98.74,98.74,0,0,1-9.22-18.69,47.24,47.24,0,0,0-7-12.31.7.7,0,0,0-1-.12.68.68,0,0,0-.25.41c-1.33,6.5.72,14.8,2.19,21.22,1.74,7.64,5.73,16.36,7.44,25.18,1.83,9.44,3,14.51,12.76,16.43,1.27.25,1.82,1.12,1.67,2.63a.57.57,0,0,0,.52.63h1c.5,0,.66-.23.48-.7-4.29-11.1-10.15-21.09-15.68-31.59a39.78,39.78,0,0,1-3.48-12.24.26.26,0,0,1,.08-.23l.19-.19c.09-.1.16-.08.2.05a91.06,91.06,0,0,0,3.27,9.85c4,8.57,13.33,22,16.07,34.43a.52.52,0,0,0,.58.45L72.55,329a.42.42,0,0,0,.47-.49c-.22-10.48,13.22-10.6,14.78-18.7,1.18-6.18,1.65-11.95,5.29-17.32s5.78-12.34,3.39-18.74c-.64-1.72-2.49-3.75-4.12-1.63-4.63,6.06-10.7,17.52-17.82,25.25-7.65,8.28-12,9-11.75,22a1.11,1.11,0,0,1-.34.82,1.5,1.5,0,0,0-.36,1.56,14.16,14.16,0,0,1,.24,6.53.22.22,0,0,1-.26.15A.23.23,0,0,1,61.92,328.31Z"></path>
      <path class="cls-1" d="M67.59,265c-1.87,13.54-10.2,28.25-7.34,41.89a.15.15,0,0,0,.12.13l.24.08c.15.05.22,0,.21-.16-.85-15.13,7-27.58,7.7-42.34a.41.41,0,0,0-.39-.43.39.39,0,0,0-.33.14A1.54,1.54,0,0,0,67.59,265Z"></path>
      <path class="cls-1" d="M86.48,288.9c-6.68,12-17.27,21-20.22,34.66a2.24,2.24,0,0,0,.11,1.62c.27.45.46.42.56-.09,3-14.51,14.6-21.66,19.8-35.52.12-.31.09-.55-.1-.7a.1.1,0,0,0-.14,0Z"></path>
      <path d="M67.59,265a1.54,1.54,0,0,1,.21-.69.41.41,0,0,1,.58,0,.38.38,0,0,1,.14.33C67.8,279.37,60,291.82,60.82,307c0,.15-.06.21-.21.16l-.24-.08a.15.15,0,0,1-.12-.13C57.39,293.26,65.72,278.55,67.59,265Z"></path>
      <path d="M86.48,288.9a.11.11,0,0,1,.14,0h0c.19.15.22.39.1.7-5.2,13.86-16.83,21-19.8,35.52-.1.51-.29.54-.56.09a2.24,2.24,0,0,1-.11-1.62C69.21,309.9,79.8,300.87,86.48,288.9Z"></path>
      <path d="M370.67,312.16c-2.38-.19-5.24-.29-7.3-1.61-.66-.43-.6-.58.18-.47,7.88,1.15,13.33,1.41,20.07-2.25a.28.28,0,0,1,.38.1.32.32,0,0,1,0,.16v.28a.25.25,0,0,1-.13.24L381.74,310a1,1,0,0,0-.48.9q.25,10.13.56,13.42c.63,6.8-18.55,10.66-23.45,10.88a1.52,1.52,0,0,1-1.59-1.44,1.55,1.55,0,0,1,.15-.73c2.15-4.45,11-8.59,15.2-11.22a.68.68,0,0,0,.34-.73l-1.28-8.47A.52.52,0,0,0,370.67,312.16Z"></path>
      <path d="M344.35,312.64l-1.13,16.73a.58.58,0,0,1-.5.57c-7.86,1.61-24.93,7-32.08,3a1.18,1.18,0,0,1-.46-1.6,1.43,1.43,0,0,1,.3-.35,22.87,22.87,0,0,1,6.18-3.5c4.1-1.51,10.35-1.08,14.88-3.66q7.06-4,3.38-12.39a.62.62,0,0,0-.53-.39,11.57,11.57,0,0,1-5.77-2.26.38.38,0,0,1-.06-.53.37.37,0,0,1,.44-.12c5.1,2.24,12.4,2.42,17.94,3,.56.06.61.26.16.59a2.31,2.31,0,0,1-2,.36.62.62,0,0,0-.74.47A.44.44,0,0,0,344.35,312.64Z"></path>
      <path d="M225.07,332.12l-6.07.19c-.52,0-.68-.21-.49-.7a.54.54,0,0,1,.52-.35A39.58,39.58,0,0,0,236.81,326a.38.38,0,0,1,.5.15.34.34,0,0,1-.09.45l-2.52,2a.77.77,0,0,0-.31.78l3.69,22.7a.66.66,0,0,1-.41.78c-7.38,3.44-19.58,8.84-27.65,8.44a1.5,1.5,0,0,1-1.41-1.57,1.65,1.65,0,0,1,.23-.71c2.88-4.56,6.55-4.47,10.4-6.4a46.24,46.24,0,0,0,9-5.95.75.75,0,0,0,.24-.88l-4.12-12.12a.73.73,0,0,1,.42-1l.36-.17a.22.22,0,0,0,.11-.29A.23.23,0,0,0,225.07,332.12Z"></path>
      <path d="M54,367.18a104.21,104.21,0,0,0,30.86-2.72c2.3-.55,4.59,0,6.91.09a1.09,1.09,0,0,1,.88.5l1.3,1.89c.23.33.15.56-.23.68-11.19,3.63-29.22,1.8-40.05.21a1,1,0,0,1-.76-.6A115.61,115.61,0,0,1,45.59,339a.46.46,0,0,0-.61-.44c-5.69,1.11-3.94-7.06-3.62-9.94a.46.46,0,0,1,.47-.43.43.43,0,0,1,.42.45l.41,7.74a.77.77,0,0,0,.63.72l4.22.79c.45.09.49.27.12.55a1.26,1.26,0,0,1-.71.24.62.62,0,0,0-.58.64.5.5,0,0,0,0,.12l7.13,27.35A.52.52,0,0,0,54,367.18Z"></path>
      <path d="M90.51,330.54a.13.13,0,0,1,.11-.15h0c.72-.14,1.53.95,1.81,2.44v0l.06.33c.27,1.49-.09,2.81-.81,2.94h-.06a.13.13,0,0,1-.16-.09v0Z"></path>
      <path d="M88.8,342.26a.56.56,0,0,0-.42-.67h0q-5.47-.75-10.88-1.86c-8.08-1.65-17-.91-25.27-1.39q-.23,0-.15-.21l.09-.29a.14.14,0,0,1,.13-.09q18.57-.86,37.13,0c.74,0,.85.31.33.83l-.34.33a.6.6,0,0,0-.09.79,4.46,4.46,0,0,1,.41,2.85q-1.06,9.54-2.29,16.55-1.52,8.63-1.26-.12A83.47,83.47,0,0,1,88.8,342.26Z"></path>
    </g>
  </g>
</svg>
