<?xml version="1.0" encoding="UTF-8"?>
<svg xmlns="http://www.w3.org/2000/svg" width="286" height="350" viewBox="0 0 286 350" fill="none">
  <g clip-path="url(#clip0_50_253)">
    <path d="M3.37064e-05 38.5453C1.44721 34.0206 3.67196 29.7831 6.57433 26.0232C8.57337 23.3257 11.0285 20.9987 13.8287 19.1473C14.6333 18.6955 15.3137 18.0517 15.8094 17.2731C14.3657 16.2704 12.6475 16.4853 11.0367 16.0794C9.88882 15.8446 8.77459 15.4676 7.71977 14.9573C5.6556 13.9307 5.05903 11.2926 6.52661 9.9198C7.20671 9.25131 8.42372 9.32296 8.53111 10.1705C8.86519 12.8206 10.81 12.4505 12.5401 12.558C12.6117 12.7609 12.6714 12.7848 12.6952 12.6296H12.5043C12.1737 10.889 11.9387 9.13157 11.8004 7.36525C11.6556 5.8471 11.8596 4.31593 12.3969 2.88878C12.8026 2.0293 13.3753 1.20562 14.4492 1.61149C15.523 2.01735 15.4753 2.80523 15.3083 3.86764C14.8811 6.87982 15.4643 9.94868 16.9667 12.5938C17.1099 12.8683 17.4679 13.0474 17.7781 13.31C18.6014 12.3192 18.5894 11.0419 19.2695 9.96756C21.9064 5.83727 25.9751 4.32124 30.354 3.40207C34.184 2.59034 38.0618 2.14866 41.8918 1.19368C47.0225 -0.00434562 52.3157 -0.347143 57.558 0.179041C60.0875 0.393911 62.617 0.477454 65.1107 0.907195C67.2279 1.15706 69.3171 1.60467 71.3509 2.24416C75.1809 3.64082 79.2138 3.77214 83.1393 4.41675C87.8242 5.25858 92.2177 7.27978 95.9061 10.2899C98.7577 12.4744 100.762 15.3154 103.065 17.9416C105.218 20.3819 107.911 22.2865 110.928 23.5044C112.314 24.1489 113.869 24.3329 115.366 24.0296C116.452 23.767 117.753 23.3015 118.683 24.3997C119.244 25.0562 118.6 26.7872 117.49 28.0764L116.19 29.5208C116.983 30.1812 117.906 30.6691 118.898 30.9533C119.716 31.1764 120.45 31.6346 121.01 32.2711C121.57 32.9077 121.931 33.6946 122.048 34.5344C122.251 36.3131 121.07 37.4948 119.781 38.4976C117.544 40.1391 115.111 41.4946 112.539 42.5324C112.873 44.2394 113.732 45.7435 114.102 47.4505C114.746 50.8271 114.842 54.2853 114.388 57.6927C113.947 61.1664 113.195 64.6043 112.801 68.0661C112.252 72.3277 112.121 76.6609 111.692 80.9344C110.993 88.4227 109.797 95.8561 108.112 103.185C106.227 111.255 104.159 119.281 101.908 127.263C100.67 131.648 98.7316 135.804 96.1686 139.57C94.1546 142.43 91.1973 144.489 87.8165 145.384C85.6748 145.878 83.6331 146.734 81.7791 147.914C81.5166 148.105 81.1944 148.416 80.8365 148.272C77.961 147.079 75.2287 148.666 72.4128 148.714C71.4225 148.714 71.1242 149.216 70.8975 150.23C69.9788 154.468 68.7856 158.646 67.8788 162.896C67.0289 166.916 66.4035 170.981 66.0055 175.072C65.8522 175.648 65.9203 176.262 66.1964 176.791C67.4387 174.911 68.5663 172.957 69.5731 170.941C71.3533 168.073 73.5036 165.452 75.9684 163.146C79.1935 159.828 82.9988 157.13 87.196 155.184C92.5533 152.904 97.7435 150.266 103.638 149.215C107.785 148.532 111.987 148.232 116.19 148.32C117.087 148.369 117.978 148.501 118.851 148.714C124.315 149.812 129.935 150.099 135.268 152.021C139.519 153.489 143.638 155.314 147.582 157.476C151.608 159.7 155.429 162.276 159 165.176C163.397 168.81 167.396 172.899 170.932 177.375C174.355 181.748 177.165 186.567 179.284 191.7C179.975 193.204 180.38 194.823 180.477 196.475C180.477 197.323 180.978 197.919 181.813 197.394C185.5 195.09 189.927 195.234 193.84 193.491C200.14 190.686 206.965 189.253 213.611 187.522C218.626 186.122 223.739 185.1 228.907 184.466C234.873 183.869 240.839 183.272 246.805 184.048C252.629 184.893 258.167 187.115 262.96 190.53C268.026 193.898 272.397 198.211 275.834 203.232C280.029 209.262 282.754 216.192 283.793 223.465C284.461 228.336 285.129 233.206 285.427 238.1C285.802 241.669 285.981 245.255 285.964 248.844C286.021 249.396 285.894 249.952 285.603 250.425C285.312 250.898 284.872 251.261 284.353 251.458C282.981 251.995 282.313 251.052 281.573 250.264C280.834 249.476 280.464 248.856 279.843 248.211C279.223 247.566 278.65 247.578 278.412 248.712C277.595 252.287 276.498 255.791 275.13 259.193C275.068 259.504 274.944 259.8 274.767 260.062C274.589 260.325 274.36 260.55 274.095 260.723C273.829 260.896 273.532 261.015 273.22 261.072C272.908 261.129 272.588 261.124 272.279 261.056C271.987 260.971 271.675 261 271.405 261.138C271.134 261.275 270.926 261.51 270.823 261.796C270.339 262.796 269.729 263.73 269.009 264.577C268.365 265.386 268.001 266.384 267.971 267.418C267.426 274.115 266.45 280.77 265.048 287.341C263.585 293.386 261.531 299.271 258.915 304.913C258.338 305.987 257.676 307.013 256.935 307.981C254.524 311.387 251.635 314.426 248.356 317.005C246.876 318.199 245.457 319.584 243.965 320.813C242.019 322.34 239.915 323.652 237.689 324.729C237.314 324.889 236.983 325.138 236.726 325.454C236.468 325.77 236.291 326.144 236.21 326.543C235.78 328.214 235.16 329.826 234.611 331.461C234.062 333.097 234.157 333.264 235.804 333.252C237.45 333.24 239.133 333.049 240.779 333.18C244.18 333.443 247.103 334.637 248.797 337.872C248.797 337.872 248.666 337.979 248.666 338.015C248.697 338.131 248.741 338.243 248.797 338.349C249.417 340.915 249.586 343.568 249.298 346.192C249.161 347.456 249.129 348.73 249.203 350H245.027C244.866 349.18 244.866 348.337 245.027 347.517C245.317 345.265 245.429 342.994 245.361 340.725C245.406 339.705 245.061 338.706 244.396 337.932C243.731 337.158 242.796 336.667 241.782 336.559C239.558 336.199 237.299 336.099 235.052 336.26C232.511 336.368 232.666 336.427 231.711 338.874C231.055 340.605 229.432 347.231 228.466 348.83C228.293 349.134 228.02 349.368 227.693 349.492C227.367 349.616 227.007 349.623 226.676 349.511C225.877 349.367 225.805 348.699 225.829 348.066C225.829 347.242 227.237 341.668 227.428 340.904C227.869 338.946 229.325 337.167 228.621 334.935C228.602 334.8 228.616 334.662 228.661 334.533C228.707 334.404 228.783 334.288 228.884 334.195C231.353 332.631 231.425 329.79 232.463 327.474C232.702 327.319 232.558 327.689 232.642 327.474V327.343C232.642 327.343 232.451 327.343 232.499 327.558C232.154 327.547 231.809 327.579 231.473 327.653C226.595 329.526 221.435 330.556 216.212 330.697C211.551 330.758 206.93 329.839 202.646 328C200.636 327.251 198.702 326.312 196.871 325.194C192.406 322.317 188.332 318.874 184.749 314.952C184.328 317.478 183.774 319.981 183.09 322.449C181.957 326.03 180.931 329.611 179.797 333.097C179.618 333.634 179.487 334.028 180.06 334.291C181.994 335.336 183.986 336.272 186.025 337.096C189.845 338.266 193.745 339.156 197.694 339.758C200.546 340.223 203.481 340.749 206.488 339.973C209.065 339.304 210.485 340.88 210.664 343.661C210.807 345.798 210.27 347.875 210.354 350H205.343C205.844 348.166 206.065 346.266 205.999 344.366C205.096 344.547 204.176 344.631 203.255 344.616C198.267 344.509 193.53 343.017 188.746 341.883C185.55 341.091 182.498 339.802 179.702 338.063C178.508 337.358 176.922 337.502 176.122 336.141C175.94 335.622 175.608 335.169 175.168 334.84C174.227 334.028 173.356 333.137 172.566 332.178C172.427 332.021 172.323 331.835 172.262 331.634C172.201 331.433 172.185 331.221 172.215 331.013C172.244 330.805 172.319 330.606 172.433 330.43C172.548 330.254 172.699 330.105 172.877 329.993C173.533 329.468 173.986 329.599 174.607 330.256C174.953 330.638 175.347 331.259 176.027 331.306C176.993 330.113 177.041 328.632 177.578 327.319C177.745 326.913 177.578 326.555 177.268 326.46C176.074 326.137 174.881 325.397 173.521 326.173C171.29 327.367 170.478 329.599 169.691 331.652C167.305 337.728 165.24 343.9 162.759 349.928H139.421C141.81 349.167 144.268 348.635 146.758 348.341C150.517 347.815 154.299 347.732 158.082 347.577C158.421 347.614 158.762 347.532 159.048 347.345C159.333 347.157 159.544 346.876 159.645 346.55C161.053 342.885 162.413 339.185 164.035 335.628C165.164 332.751 166.496 329.959 168.021 327.271C170.335 323.69 173.366 322.759 177.566 324.192C177.864 324.287 178.139 324.562 178.496 324.192C179.081 323.631 179.594 321.1 179.117 320.539C177.029 318.151 175.919 315.107 174.344 312.374C171.704 307.476 169.699 302.261 168.378 296.855C167.961 295.268 167.818 293.274 165.229 293.632C164.803 293.654 164.383 293.532 164.035 293.286C163.367 292.856 162.389 292.462 162.639 291.496C163.057 289.836 162.15 289.239 160.885 288.583C159.987 287.957 159.144 287.254 158.368 286.482C153.595 282.698 152.7 277.266 152.128 271.739C151.925 269.746 152.128 267.717 152.128 265.604C151.636 265.769 151.215 266.098 150.935 266.535C149.397 268.63 147.407 270.352 145.112 271.572C144.159 271.92 143.374 272.615 142.913 273.519C142.453 274.423 142.352 275.467 142.63 276.443C142.793 277.741 143.159 279.006 143.716 280.191C146.237 284.46 148.324 288.971 149.944 293.656C151.269 297.93 151.137 301.845 148.477 305.593C147.031 307.434 145.465 309.177 143.788 310.81C141.58 313.281 139.015 315.442 137.118 318.175C136.531 318.957 136.163 319.881 136.05 320.852C135.936 321.823 136.083 322.806 136.473 323.702C137.154 325.397 137.977 327.033 138.86 328.668C139.948 330.768 140.365 333.152 140.053 335.496C139.301 341.465 135.984 345.858 131.057 349.129L130.901 349.284C130.627 349.714 129.959 349.534 129.708 350.036H125.282C125.016 349.344 125.027 348.576 125.311 347.892C125.595 347.208 126.132 346.659 126.809 346.359C129.362 344.795 131.212 342.491 133.216 340.391C134.958 338.552 135.817 333.383 134.552 331.223C133.074 328.616 131.931 325.832 131.152 322.938C130.305 318.82 132.667 315.967 135.077 313.185C137.488 310.404 140.351 308.029 142.952 305.414C144.623 303.743 146.281 301.953 146.782 299.577C147.088 297.098 146.704 294.582 145.673 292.307C144.48 288.845 142.761 285.515 141.186 282.173C140.077 279.785 139.182 277.29 139.993 274.569C140.196 273.876 139.79 273.721 139.206 273.733C137.01 273.733 134.779 273.625 133.693 276.12C133.453 276.624 133.131 277.084 132.739 277.481C131.79 278.689 130.562 279.648 129.159 280.275C126.296 281.468 123.969 279.916 121.845 278.472C119.924 277.159 119.638 274.974 120.211 272.73C120.211 272.587 120.318 272.587 120.306 272.73C120.294 272.873 120.473 272.73 120.211 272.73C117.134 275.782 113.701 278.452 109.985 280.68C107.388 282.101 105.32 284.325 104.091 287.019C103.113 289.086 101.989 291.081 100.726 292.988C99.6693 294.757 98.7325 296.595 97.9225 298.491C96.7294 301.069 96.1089 303.862 95.047 306.477C94.0686 308.864 92.8397 311.073 92.076 313.532C91.5749 315.155 91.8851 316.218 93.5078 316.289C93.7258 316.273 93.9446 316.307 94.1474 316.388C94.3502 316.47 94.5318 316.597 94.678 316.759C94.8243 316.921 94.9314 317.115 94.9913 317.326C95.0511 317.536 95.062 317.757 95.0231 317.972C95.08 319.459 94.9028 320.945 94.4981 322.377C93.5087 325.205 92.2668 327.938 90.7874 330.542C89.9761 331.951 90.5011 332.381 91.5391 332.93C93.3169 333.813 95.0112 334.852 96.7174 335.878C100.631 338.266 104.568 340.57 108.506 342.921C112.249 344.924 115.765 347.326 118.994 350.084H111.894C109.508 348.46 107.122 346.705 104.58 345.309C99.4498 342.36 94.522 339.089 89.7017 335.663C88.592 334.887 88.0909 334.923 87.4943 335.974C87.3119 336.317 87.001 336.573 86.6297 336.688C86.2585 336.802 85.8571 336.764 85.5137 336.583C85.1524 336.44 84.8575 336.168 84.6874 335.818C84.5173 335.469 84.4843 335.069 84.5949 334.696C84.7129 333.599 85.0368 332.534 85.5495 331.557C87.1006 328.871 88.6278 326.149 90.0357 323.38C91.7777 319.99 91.73 319.966 87.9835 318.975C87.7807 318.975 87.5898 318.856 87.3989 318.796C85.4063 318.151 85.0125 318.319 84.416 320.312C83.4972 323.619 82.3876 326.854 81.2899 330.101C80.6695 331.927 80.0013 332.488 78.9036 332.082C77.3405 331.473 77.9729 330.22 78.2473 329.253C79.3331 325.421 80.0251 321.458 82.0893 317.937C81.3594 317.419 80.5546 317.017 79.703 316.743C78.5098 316.158 77.8655 316.456 77.257 317.59C75.8252 320.174 74.5657 322.85 73.4866 325.6C73.0571 326.794 72.6156 327.988 72.1742 329.098C72.1046 329.371 71.9528 329.616 71.7393 329.799C71.5259 329.983 71.2611 330.096 70.981 330.124C70.3606 330.124 70.1697 329.671 69.8714 329.313C69.709 329.081 69.6039 328.814 69.5644 328.534C69.525 328.254 69.5525 327.969 69.6447 327.701C70.0407 325.813 70.5792 323.957 71.2554 322.15C72.3412 319.763 73.7491 317.507 74.9662 315.107C72.8596 314.467 70.8307 313.594 68.9168 312.505C67.0316 311.228 66.6379 311.407 65.5402 313.46C63.5156 316.904 61.8064 320.524 60.4335 324.275C60.171 325.099 59.6579 325.696 58.7511 325.469C57.8443 325.242 57.7489 324.442 57.8921 323.631C58.1393 322.067 58.5637 320.538 59.1568 319.071C60.388 316.302 61.8446 313.639 63.5118 311.108C64.0368 310.297 63.8817 309.915 63.1658 309.485C60.9585 307.957 58.596 306.668 56.5199 304.937C55.6728 304.245 55.0523 304.388 54.5035 305.474C52.7018 309.055 50.7808 312.565 48.9553 316.122C48.5976 316.946 48.2908 317.791 48.0366 318.653C47.9619 318.998 47.7552 319.299 47.4608 319.493C47.1664 319.688 46.8077 319.759 46.4616 319.691C45.6861 319.56 45.4951 318.963 45.34 318.354C45.2328 317.732 45.329 317.091 45.6145 316.528C46.2826 314.857 46.8076 313.126 47.6428 311.538C48.9911 308.888 50.5183 306.333 51.9382 303.719C52.3439 302.979 52.8569 302.358 51.6518 301.559C49.8279 300.434 48.0999 299.16 46.4855 297.751C45.1253 296.473 45.006 296.557 44.0992 298.336L42.7032 300.866C41.1759 303.636 39.4697 306.31 38.0618 309.151C37.501 310.344 36.6896 310.344 35.9022 309.282C35.9022 309.139 35.9857 309.127 35.9857 309.282C35.9857 309.437 36.1408 309.222 35.8783 309.282C34.8522 307.945 36.0334 306.895 36.4987 305.916C38.0637 302.544 39.895 299.303 41.9753 296.223C42.6316 295.244 42.5361 294.623 41.5577 293.835C40.0384 292.647 38.6288 291.325 37.3459 289.884C36.6777 289.12 36.3794 289.036 35.5681 289.598C33.6901 291.122 32.0565 292.926 30.7239 294.945C29.0654 297.046 27.5023 299.219 25.6768 301.189C24.1018 302.896 22.8729 302.943 22.2405 301.189C21.9422 300.341 21.5365 300.52 21.0473 300.52C20.4978 300.49 19.9554 300.382 19.4366 300.198C15.0338 298.897 10.5953 297.715 6.24025 296.306C4.14029 295.626 1.90909 295.363 -0.0357596 294.229V290.899C2.68464 291.066 5.10675 292.343 7.62431 293.143C12.3969 294.671 17.0741 296.629 22.0019 297.703C22.5085 297.907 23.0719 297.92 23.5876 297.74C24.1033 297.56 24.5361 297.199 24.8058 296.724C25.3013 295.896 25.8472 295.098 26.4404 294.337C28.6399 291.147 31.4454 288.421 34.6971 286.315C35.0673 286.002 35.5023 285.776 35.9707 285.652C36.4392 285.528 36.9292 285.51 37.4055 285.599C38.3839 285.957 38.8731 285.455 39.3742 284.942C42.4299 281.868 45.1094 278.442 47.3565 274.736C49.528 271.154 51.0911 267.191 53.4058 263.658C53.7928 263.045 54.031 262.35 54.1014 261.629C54.1719 260.908 54.0726 260.18 53.8115 259.504C52.6183 255.361 52.6183 251.148 52.8689 246.838C52.8409 244.596 53.0408 242.356 53.4654 240.153C52.5348 240.691 52.0694 240.977 51.5802 241.228C51.0287 241.547 50.4155 241.745 49.7815 241.809C49.1474 241.872 48.5071 241.8 47.9032 241.597C47.2993 241.393 46.7455 241.064 46.2789 240.63C45.8122 240.196 45.4434 239.667 45.1969 239.079C44.6593 238.043 44.3786 236.892 44.3786 235.725C44.3786 234.557 44.6593 233.407 45.1969 232.37C45.4952 231.774 45.9008 231.177 45.2685 230.484C42.7858 227.915 41.178 224.627 40.6748 221.09C40.1807 221.635 39.7299 222.217 39.3265 222.832C36.9402 227.297 34.1482 227.775 30.0796 226.509C26.3211 225.315 22.4672 224.91 18.84 226.688C13.781 229.171 12.3731 232.048 13.8287 236.381C14.0554 237.038 14.4253 237.635 14.6759 238.279C15.4276 240.297 15.7855 242.231 14.2344 244.14C13.0412 245.645 11.3708 245.645 9.76006 245.871C7.02773 246.253 4.27153 246.385 1.93294 248.199C1.40379 248.758 0.684356 249.099 -0.0834961 249.154V244.14C2.1859 242.971 4.65483 242.238 7.19478 241.98C8.15985 242.005 9.12541 241.953 10.0822 241.825C11.1799 241.514 11.6691 241.18 11.1203 239.986C10.5714 238.793 10.2373 237.694 9.81972 236.536C9.29727 235.326 9.08164 234.005 9.19195 232.691C9.30227 231.377 9.73511 230.111 10.4521 229.004C11.9493 226.821 13.957 225.037 16.3006 223.807C18.6442 222.578 21.2527 221.94 23.899 221.949C26.7268 221.83 29.3279 222.785 31.9886 223.453C32.8153 223.726 33.7096 223.715 34.529 223.42C35.3485 223.126 36.046 222.566 36.5107 221.83C38.615 219.295 40.0763 216.289 40.7702 213.068C41.4532 209.676 42.4725 206.361 43.8128 203.172C45.1014 199.829 46.4974 196.63 49.3371 194.267C48.9527 194.029 48.5211 193.878 48.0724 193.825C44.7288 193.427 41.468 192.508 38.4078 191.103C32.9073 188.31 27.4427 185.409 22.0138 182.461C19.2576 180.981 16.5969 179.345 13.9242 177.686C10.4998 175.621 8.12544 172.433 5.36925 169.652C4.18878 168.466 3.52413 166.861 3.51985 165.188C3.51985 163.994 4.21188 162.645 3.28122 161.797C2.35055 160.95 1.05 161.296 -0.0834961 161.021V158.109C0.880206 157.955 1.86689 158.037 2.79202 158.348C3.60337 158.682 4.23574 158.347 4.35505 157.572C4.66527 155.459 6.21638 154.766 7.93453 154.337C8.39242 154.222 8.81926 154.007 9.1844 153.708C9.54954 153.409 9.84392 153.032 10.0464 152.606C11.0009 151.066 11.7288 149.418 12.5163 147.831C14.98 142.813 16.7809 137.496 17.8735 132.014C18.4305 129.069 18.7932 126.09 18.9593 123.097C19.2482 120.121 19.2801 117.125 19.0548 114.144C18.6252 114.227 18.3627 114.275 18.1002 114.347C16.1306 114.883 14.0621 114.947 12.0633 114.532C10.0645 114.117 8.1919 113.236 6.5982 111.959C3.98749 109.712 1.75908 107.055 3.37064e-05 104.093V89.0637C0.930697 90.6394 0.739798 92.4897 1.05002 94.1848C1.97081 99.945 5.08349 105.125 9.73621 108.641C10.6626 109.462 11.7507 110.079 12.9304 110.453C14.11 110.828 15.355 110.95 16.5849 110.813C17.7781 110.646 18.9712 110.061 20.1644 109.954C20.9519 109.882 21.2502 109.62 21.2502 108.832C21.2502 107.829 21.6439 107.065 22.8132 107.125C23.9825 107.184 23.8155 108.199 23.8871 108.975C24.1018 111.434 24.2808 113.893 24.5552 116.34C25.2348 121.33 26.2513 126.267 27.5978 131.119C27.71 131.834 27.9641 132.519 28.3453 133.134C28.7265 133.749 29.2269 134.281 29.8171 134.7C32.0513 136.014 34.3533 137.21 36.7135 138.281C43.658 141.343 50.969 143.493 58.4648 144.679C59.7892 144.906 60.0278 144.56 60.1233 143.486C60.1648 142.518 60.3291 141.559 60.6125 140.633C60.7556 140.179 60.863 139.331 61.8056 139.558C62.5692 139.737 63.0823 140 62.9988 140.895C62.9988 141.444 62.9988 142.005 62.9988 142.566C62.9988 145.109 62.9988 145.133 65.5641 145.181C66.0294 145.181 66.5544 145.252 66.9123 144.823C66.5191 143.862 66.3321 142.829 66.3635 141.791C66.3635 139.928 67.5566 139.403 69.2271 140.501C68.8333 140.645 69.0242 140.776 69.2271 140.919C69.2515 141.957 69.4079 142.988 69.6924 143.987C69.7204 144.137 69.7788 144.28 69.8641 144.407C69.9493 144.534 70.0595 144.642 70.188 144.725C70.3165 144.807 70.4605 144.863 70.6112 144.888C70.762 144.913 70.9162 144.907 71.0645 144.87C72.7301 144.489 74.4279 144.265 76.1354 144.202C77.2093 144.071 77.7343 143.605 77.3883 142.375C76.9647 140.778 76.7009 139.143 76.6008 137.493C76.5292 136.646 76.5173 135.81 77.4837 135.714C77.8927 135.631 78.318 135.709 78.6713 135.931C79.0247 136.153 79.2787 136.503 79.3808 136.908C79.9655 138.579 80.4189 140.298 80.9319 141.993C81.2183 142.96 81.7552 143.271 82.6262 142.901C83.7909 142.345 84.986 141.854 86.2057 141.432C90.0119 140.334 92.3266 137.612 94.0686 134.437C95.9732 130.838 97.4508 127.028 98.4714 123.085C99.6645 118.967 100.679 114.824 101.824 110.718C103.22 105.692 104.21 100.619 105.249 95.5098C106.256 90.0572 106.969 84.5541 107.384 79.0245C107.778 74.4167 108.172 69.8089 108.446 65.1892C108.552 61.139 108.328 57.087 107.778 53.073C107.777 52.2573 107.508 51.4646 107.012 50.8174C106.516 50.1701 105.821 49.7042 105.034 49.4918C100.078 47.8154 94.798 47.3248 89.6181 48.0593C88.0432 48.2742 86.504 48.7755 84.941 48.9546C83.1154 49.1695 82.7455 48.501 83.4614 46.6388C81.0751 46.2807 81.0155 45.839 81.7194 43.5828C82.4234 41.3267 84.416 40.9805 86.1222 40.694C92.5772 39.6078 99.0679 38.808 105.356 41.6252C105.481 41.2143 105.521 40.7823 105.474 40.3554C105.427 39.9285 105.293 39.5157 105.081 39.1422C103.901 35.6158 102.269 32.2573 100.225 29.1507C97.8879 25.2351 94.6477 21.9361 90.7755 19.5293C86.0385 16.8901 80.9762 14.8834 75.7178 13.5607C69.6301 11.9451 63.3403 11.2214 57.0449 11.412C54.3312 11.4269 51.6917 12.3002 49.5042 13.9069C47.5257 15.4094 45.3392 16.6158 43.0134 17.488C36.1885 19.9829 31.9528 24.8056 30.7596 32.0515C30.3632 34.5805 29.8012 37.0808 29.0773 39.5361C27.7639 43.8311 27.0846 48.295 27.0608 52.7864C27.137 54.986 27.0092 57.1879 26.679 59.3639C26.3885 60.6434 26.3039 61.9611 26.4285 63.2673C26.7745 65.8577 27.1682 68.4243 27.5381 71.0027C28.3375 76.4342 29.471 81.8298 29.8171 87.3209C29.9364 89.3264 30.1989 91.3437 27.7887 92.5852C25.6768 93.6596 23.6246 93.4447 22.5627 91.3915C21.9227 90.323 21.4858 89.1453 21.274 87.9178C20.8206 83.7159 18.2315 80.0631 18.2315 75.7537C18.2315 75.6344 18.1241 75.5031 18.0644 75.3837C16.1077 72.1487 12.9458 69.4986 8.51918 70.1432C7.4337 70.3188 6.39992 70.7305 5.49077 71.3492C4.58162 71.968 3.81923 72.7788 3.25735 73.7244C1.67045 76.0283 1.1932 78.7739 -0.0476846 81.2091L3.37064e-05 38.5453ZM158.69 254.371C158.793 254.351 158.887 254.298 158.958 254.221C159.029 254.143 159.073 254.045 159.084 253.941C159.334 253.941 159.501 253.822 159.513 253.559L163.403 252.246C164.947 251.612 166.627 251.38 168.285 251.57C169.944 251.76 171.527 252.366 172.889 253.332C173.939 254.096 174.523 253.893 175.275 252.855C176.098 251.466 176.512 249.873 176.468 248.259C176.802 243.341 179.63 239.771 183.305 236.692C185.691 234.71 188.388 233.11 190.583 230.95C196.549 224.886 202.706 218.869 207.001 211.325C207.675 209.81 208.635 208.44 209.829 207.29C211.4 206.056 213.177 205.11 215.079 204.497C220.327 202.774 225.778 201.742 231.294 201.429C236.345 201.219 241.399 201.783 246.28 203.1C248.787 203.657 251.158 204.706 253.255 206.188C255.353 207.669 257.135 209.554 258.498 211.731C260.154 214.408 261.514 217.258 262.554 220.23C264.159 224.271 265.506 228.41 266.587 232.621C267.887 238.704 268.63 244.894 268.807 251.112C268.866 252.556 268.962 254.001 269.045 255.433C270.763 255.23 269.94 253.762 270.346 252.926C270.751 252.091 270.847 251.458 271.861 251.207C272.875 250.957 273.555 251.124 273.878 252.652C275.524 247.972 275.727 243.842 273.878 239.724C273.543 238.972 273.257 238.184 272.947 237.408C272.505 236.334 273.138 235.88 274.033 235.617C274.334 235.542 274.649 235.545 274.95 235.624C275.25 235.703 275.526 235.857 275.751 236.071C277.614 237.614 279.106 239.555 280.118 241.753C280.547 242.541 280.798 243.448 281.752 243.926C281.734 242.497 281.607 241.073 281.371 239.664C281.141 233.889 280.563 228.132 279.64 222.427C278.948 217.461 276.884 213.056 274.713 208.711C272.541 204.366 269.069 200.964 265.633 197.609C262.479 194.662 258.848 192.272 254.894 190.542C251.828 189.146 248.738 187.677 245.349 187.451C235.727 186.876 226.074 187.753 216.713 190.053C213.563 190.793 210.461 191.76 207.311 192.44C203.274 193.288 199.29 194.372 195.38 195.687C191.218 196.975 187.158 198.571 183.233 200.462C181.384 201.441 181.312 201.166 181.372 203.172C181.507 205.557 181.507 207.949 181.372 210.334C180.801 215.577 179.078 220.627 176.325 225.124C173.056 230.89 169.405 236.369 164.214 240.643C163.88 240.917 163.916 241.204 163.844 241.526C163.222 244.633 162.17 247.639 160.718 250.455C160.034 251.339 159.65 252.418 159.621 253.535C159.346 253.535 159.263 253.714 159.227 253.953L158.774 254.359C158.774 254.49 158.774 254.502 158.678 254.359L158.69 254.371ZM144.491 243.902C144.706 243.902 144.742 243.806 144.611 243.77C144.48 243.735 144.539 243.878 144.503 243.938L144.491 243.902ZM22.145 121.199V121.652C21.5007 122.106 21.7752 122.786 21.7632 123.371C21.6354 126.871 21.2365 130.355 20.5701 133.793C19.0917 141.109 16.3545 148.113 12.4805 154.492C11.4305 156.306 11.4066 156.569 12.7668 158.073C14.7594 160.341 16.4895 162.848 18.661 164.937C22.5536 168.835 26.813 172.349 31.3801 175.43C33.4907 176.705 35.7157 177.78 38.026 178.641C43.1446 180.801 48.1082 183.272 53.895 183.487C56.6154 183.583 58.7869 183.344 60.5886 181.291C61.2926 180.491 62.0204 180.169 62.8675 180.98C63.2374 181.339 63.4999 181.47 63.8817 181.04C64.2635 180.61 64.2039 180.276 63.6789 179.847C63.2207 179.467 62.8695 178.975 62.6602 178.418C62.4509 177.861 62.3908 177.259 62.4857 176.671C62.5812 174.809 62.7124 172.971 62.951 171.12C63.5712 166.559 64.5122 162.048 65.7669 157.619C66.5305 154.838 67.676 152.176 68.3919 149.132C66.3993 149.299 64.4902 148.296 62.8198 150.027C62.687 150.163 62.5235 150.266 62.3431 150.326C62.1626 150.387 61.9704 150.403 61.7824 150.374C61.5944 150.344 61.4161 150.271 61.2624 150.158C61.1087 150.046 60.9841 149.899 60.8988 149.729C60.7401 149.424 60.5 149.168 60.2052 148.991C59.9103 148.814 59.5722 148.723 59.2284 148.726C55.2433 148.487 51.4371 147.138 47.4877 146.565C46.1858 146.399 44.9082 146.078 43.6815 145.611C39.5413 143.927 35.2221 142.674 31.225 140.573C28.735 139.399 26.6712 137.48 25.3188 135.082C24.6268 133.757 25.1876 132.336 24.8654 131.059C24.078 127.848 23.0041 124.708 22.0496 121.509C22.4314 121.378 22.4553 121.247 22.0496 121.115L21.978 120.602C21.9064 120.602 21.7871 120.686 21.7752 120.745C21.7312 120.798 21.7071 120.865 21.7069 120.934C21.7067 121.003 21.7304 121.07 21.774 121.124C21.8176 121.177 21.8785 121.214 21.9461 121.228C22.0138 121.241 22.0841 121.231 22.145 121.199ZM152.331 208.472C152.462 208.651 152.533 208.663 152.486 208.472C152.438 208.281 152.354 208.472 152.283 208.472C152.283 208.03 152.581 207.457 151.877 207.278C151.817 207.099 152.163 206.717 151.662 206.789C151.579 206.789 151.758 207.123 151.925 207.242C152.044 207.66 151.901 208.162 152.331 208.472ZM151.137 205.106C151.118 205.236 151.139 205.37 151.199 205.488C151.259 205.605 151.354 205.701 151.471 205.762C151.615 205.822 151.722 205.762 151.65 205.607C151.579 205.452 151.46 205.094 151.102 205.142C151.102 204.676 151.281 204.163 150.72 203.864C150.833 203.54 150.833 203.186 150.72 202.861C150.165 200.238 149.853 197.568 149.789 194.887C149.906 193.442 150.26 192.027 150.839 190.697C150.914 190.502 151.03 190.325 151.181 190.179C151.331 190.033 151.512 189.923 151.71 189.854C151.908 189.786 152.118 189.762 152.327 189.784C152.535 189.806 152.736 189.873 152.915 189.981C153.097 190.046 153.257 190.16 153.378 190.311C153.498 190.463 153.572 190.645 153.594 190.837C153.615 191.029 153.581 191.223 153.497 191.397C153.413 191.57 153.282 191.717 153.118 191.82C153.118 191.64 153.118 191.593 153.023 191.664L153.154 191.784C152.622 192.982 152.424 194.302 152.581 195.604C152.796 200.593 154.967 205.046 156.781 209.546C157.867 212.137 159.167 214.644 160.36 217.174C161.005 218.511 161.231 219.693 159.943 220.851C159.299 221.573 158.816 222.424 158.523 223.346C157.402 226.278 155.849 229.025 153.917 231.499C152.44 232.984 151.164 234.658 150.123 236.477C151.734 235.967 153.177 235.031 154.299 233.767C157.086 231.368 159.747 228.826 162.27 226.151C162.806 225.468 163.393 224.826 164.023 224.229C164.243 224.007 164.527 223.859 164.835 223.805C165.143 223.752 165.46 223.796 165.742 223.931C166.505 224.229 166.207 224.79 166.255 225.315C166.277 225.662 166.23 226.01 166.115 226.338C166 226.667 165.82 226.968 165.587 227.225C164.886 228.172 164.112 229.062 163.272 229.887C162.198 230.866 162.079 231.69 163.081 232.812C163.511 233.432 163.849 234.112 164.083 234.829C164.353 234.665 164.605 234.473 164.835 234.256C166.804 231.869 168.307 229.028 170.085 226.438C171.051 224.71 172.111 223.036 173.258 221.424C173.354 221.281 173.783 221.161 173.258 220.994C174.768 218.211 175.892 215.235 176.599 212.149C177.22 209.427 176.898 206.658 177.005 203.912C177.113 201.041 176.877 198.168 176.301 195.353C175.287 190.339 172.722 185.935 169.953 181.792C164.806 174.339 158.291 167.931 150.756 162.908C144.071 158.369 136.669 154.991 128.861 152.916C125.604 152.021 122.251 152.009 118.994 151.269C116.336 150.725 113.605 150.632 110.916 150.994C101.845 152.045 93.152 155.232 85.5495 160.293C78.9283 164.636 73.6511 170.742 70.3128 177.925C69.1931 180.537 67.7715 183.009 66.0771 185.29C64.884 186.734 64.1323 188.465 62.8914 189.874C62.5096 190.315 62.5573 190.674 63.2135 190.972C64.5295 191.676 65.7355 192.569 66.793 193.622C69.418 189.599 71.5656 185.445 74.4531 181.756C76.6485 178.939 78.653 175.967 81.0035 173.293C84.1057 169.712 87.208 166.274 91.205 163.671C95.5058 161.023 100.146 158.971 104.998 157.572C108.136 156.581 111.513 156.509 114.794 156.139C116.551 155.894 118.334 155.894 120.091 156.139C121.22 156.499 122.444 156.418 123.516 155.912C125.258 154.85 125.986 155.244 126.081 157.285C126.129 157.908 126.093 158.534 125.974 159.147C123.976 167.617 124.356 176.474 127.071 184.741C127.351 186.008 127.843 187.219 128.527 188.322C128.688 188.122 128.802 187.888 128.86 187.638C128.918 187.388 128.918 187.128 128.861 186.877C128.685 183.693 129.024 180.5 129.863 177.423C130.889 173.651 131.617 169.771 133.729 166.369C134.254 165.51 134.922 164.638 135.96 164.865C136.998 165.092 137.154 166.238 137.368 167.181C137.427 167.525 137.427 167.876 137.368 168.22C136.741 172.174 136.741 176.202 137.368 180.157C138.529 187.456 140.981 194.49 144.611 200.928C144.849 201.357 145.195 202.253 146.09 202.121C145.553 202.993 146.472 203.196 146.758 203.876C146.937 202.981 146.758 202.432 146.102 202.121C146.102 200.328 145.889 198.541 145.47 196.797C144.973 193.592 144.929 190.334 145.339 187.116C145.404 185.994 145.822 184.92 146.532 184.048C146.961 183.571 147.224 182.664 148.119 183.129C148.311 183.211 148.486 183.332 148.63 183.484C148.775 183.636 148.887 183.816 148.959 184.012C149.032 184.209 149.064 184.419 149.052 184.628C149.041 184.837 148.987 185.042 148.894 185.23C148.543 186.133 148.322 187.082 148.238 188.047C147.918 193.416 148.761 198.791 150.708 203.805C150.672 204.366 150.66 204.819 151.125 205.106H151.137ZM16.3105 174.642C20.9042 177.029 25.4143 179.679 30.1153 181.947C34.8164 184.215 39.3981 187.057 44.5406 188.441C46.9638 189.208 49.4582 189.728 51.9859 189.993C53.5848 190.077 55.3506 188.931 56.6392 190.817C56.7108 190.924 57.033 190.817 57.2358 190.817C58.9659 190.817 59.7534 189.79 59.6818 187.51C59.8488 187.51 59.9324 187.51 59.9324 187.379C59.9324 187.248 59.8369 187.379 59.8131 187.379C59.776 187.427 59.744 187.479 59.7176 187.534C55.9972 188.315 52.1498 188.258 48.4542 187.367C45.4832 186.782 42.8463 185.29 40.1021 184.156C35.353 182.403 30.8557 180.031 26.7268 177.101C21.1963 173.085 16.3047 168.256 12.218 162.776C11.8481 162.263 11.4663 161.69 10.7981 161.678C9.43792 161.678 9.09191 160.663 8.76975 159.661C8.53112 158.932 8.38794 158.156 8.20897 157.404C7.5098 159.988 7.1646 162.654 7.18285 165.331C7.19072 165.573 7.24765 165.811 7.3502 166.031C7.45275 166.25 7.59877 166.447 7.77943 166.608C10.5953 169.33 12.8146 172.708 16.3702 174.642L16.1435 174.761H16.2508C16.2636 174.723 16.2716 174.682 16.2747 174.642H16.3105ZM60.5289 208.83C61.9011 206.86 62.2829 204.449 63.3209 202.3C64.0598 200.822 64.7053 199.299 65.2539 197.74C65.4686 197.084 65.755 196.463 65.0749 195.854C63.4402 194.386 61.7698 193.276 59.3477 193.789C58.3574 193.992 57.3193 194.147 56.3171 194.338C54.7247 194.666 53.2379 195.383 51.989 196.424C50.7401 197.465 49.7676 198.799 49.1581 200.307C48.2871 202.121 47.7383 204.007 47.0462 205.87C45.7425 208.975 44.9371 212.266 44.6599 215.622C44.4203 219.137 45.2524 222.642 47.0462 225.674C48.0127 227.202 48.3468 227.225 49.7547 226.103C50.484 225.452 51.3736 225.007 52.3319 224.814C53.1672 224.683 54.0859 224.814 54.2768 225.888C54.408 226.652 53.8353 227.082 53.2149 227.285C53.0156 227.343 52.8265 227.432 52.6541 227.548C51.9143 228.24 50.6257 228.813 50.7808 229.84C50.9359 230.866 52.141 231.033 53.0836 231.38C54.5632 231.893 54.7541 231.809 54.9211 230.329C55.1359 228.348 54.9211 226.163 55.6847 224.432C57.0211 221.436 56.0427 218.583 56.0785 215.455C54.8132 216.136 53.7759 217.174 53.0956 218.44C52.7853 219.192 52.2126 219.836 51.3416 219.478C50.9541 219.309 50.6406 219.006 50.4586 218.625C50.2767 218.243 50.2386 217.809 50.3513 217.401C50.4558 216.572 50.8288 215.801 51.4132 215.205C52.3903 214.028 53.6118 213.079 54.9927 212.423C55.563 212.257 56.0554 211.893 56.3813 211.397C56.7072 210.9 56.8453 210.303 56.7705 209.713C56.6691 208.123 56.6691 206.529 56.7705 204.939C56.8576 203.969 56.7001 202.993 56.3124 202.101C55.9246 201.208 55.3191 200.427 54.5512 199.829C53.8353 199.256 53.2984 198.636 53.9427 197.728C54.587 196.821 55.6251 197.108 56.329 197.645C57.7529 198.618 58.8868 199.959 59.6102 201.525C60.6125 203.912 60.3977 206.383 60.517 208.854V208.914L60.5289 208.83ZM142.857 239.724V239.819V239.748C146.436 235.295 150.016 230.89 153.512 226.342C154.8 224.635 156.161 222.761 156.125 220.445C156.075 219.622 156.151 218.797 156.351 217.998C156.638 217.007 156.351 216.183 155.158 216.1C154.745 216.046 154.347 215.905 153.992 215.687C153.636 215.469 153.33 215.179 153.094 214.835C150.606 211.922 147.863 209.237 144.897 206.813C144.819 206.624 144.704 206.453 144.558 206.309C144.413 206.165 144.24 206.053 144.05 205.977C143.992 205.774 143.912 205.578 143.811 205.392C139.946 200.379 137.738 194.565 136.032 188.573C134.655 184.12 133.928 179.493 133.872 174.833C133.019 177.789 132.471 180.825 132.238 183.893C132.13 186.854 131.713 189.862 133.753 192.381C133.964 192.615 134.08 192.919 134.08 193.234C134.08 193.549 133.964 193.853 133.753 194.088C133.288 194.661 132.739 194.613 132.083 194.326C131.426 194.04 131.188 193.264 130.46 193.598C128.515 194.505 127.668 193.168 126.88 191.855C123.003 185.767 121.869 178.915 121.726 171.896C121.634 168.038 122.003 164.183 122.824 160.413C123.217 158.634 123.098 158.574 121.285 158.455C117.754 158.32 114.219 158.556 110.737 159.159C104.795 160.075 99.1074 162.213 94.0328 165.438C89.7017 168.124 86.4443 171.992 83.2944 175.955C81.2064 178.593 79.2496 181.327 77.3286 184.096C74.4648 188.064 71.9876 192.297 69.931 196.738C67.9583 201.282 66.2004 205.905 64.6573 210.609C63.3687 214.476 61.6624 218.201 60.7556 222.188C59.2811 229.26 58.2095 236.41 57.546 243.603C57.0928 247.171 57.1129 250.784 57.6057 254.347C58.2389 259.073 59.6968 263.651 61.913 267.872C63.5626 270.88 65.3791 273.793 67.3538 276.598C70.1339 280.573 74.6798 281.826 79.0587 283.044C83.4376 284.262 87.9716 283.283 92.434 282.841C95.5883 282.418 98.6589 281.512 101.538 280.155C104.902 278.793 108.072 276.99 110.964 274.795C114.138 272.277 117.311 269.77 120.509 267.227C124.616 264.087 128.368 260.508 131.701 256.555C133.86 253.857 136.104 251.219 137.977 248.33C139.85 245.442 142.356 243.281 142.773 239.724H142.857ZM263.795 254.788C263.924 254.402 264.004 254.001 264.034 253.595C263.879 250.396 263.616 247.196 263.545 243.985C263.589 243.445 263.467 242.905 263.193 242.437C262.92 241.969 262.51 241.597 262.018 241.371C255.932 237.79 249.394 237.133 242.557 238.076C241.364 238.243 240.171 238.411 238.906 238.518C238.286 238.578 237.713 238.59 237.403 237.766C237.092 236.942 237.641 236.739 238.107 236.286C241.292 233.218 245.54 232.908 249.489 231.833C250.558 231.546 251.665 231.429 252.771 231.487C256.101 231.498 259.356 232.482 262.137 234.316C262.268 234.316 262.28 234.412 262.137 234.4C261.994 234.388 262.137 234.567 262.137 234.304C261.801 232.248 261.307 230.22 260.657 228.24C259.536 223.92 257.989 219.721 256.04 215.706C254.613 212.465 252.138 209.799 249.012 208.138C244.765 206.087 240.125 204.975 235.41 204.879C229.153 204.611 222.892 205.304 216.845 206.932C215.149 207.244 213.553 207.956 212.188 209.008C210.822 210.061 209.727 211.424 208.994 212.984C207.338 216.491 205.236 219.769 202.741 222.737C198.625 227.643 194.616 232.717 189.39 236.441C186.896 238.302 185.192 241.033 184.617 244.093C183.639 247.925 183.675 251.912 183.424 255.827C183.322 259.364 183.598 262.901 184.247 266.38C184.403 267.573 184.164 268.278 183.054 268.695C181.73 269.233 181.205 268.982 180.537 267.502C179.869 266.021 179.714 264.338 178.437 263.55C177.342 262.832 176.49 261.801 175.991 260.59C175.322 259.308 174.424 258.159 173.342 257.2C172.602 256.32 171.672 255.62 170.622 255.153C169.572 254.686 168.429 254.463 167.281 254.502C164.42 254.825 161.759 256.124 159.744 258.181C157.729 260.238 156.485 262.927 156.22 265.795C155.97 268.66 156.865 271.405 156.996 274.151C157.282 280.477 163.403 285.348 168.2 287.067C169.035 287.365 169.655 287.186 169.786 286.351C170.062 285.499 170.464 284.694 170.98 283.963C171.314 283.295 171.6 282.435 172.638 282.913C173.676 283.39 173.366 284.106 173.151 284.894C172.889 285.849 172.209 286.709 172.364 287.735C173.165 287.82 173.975 287.715 174.729 287.432C175.482 287.148 176.16 286.692 176.707 286.1C177.097 285.706 177.576 285.411 178.103 285.24C178.771 285.073 179.57 284.56 180.107 285.551C180.352 285.892 180.456 286.313 180.398 286.729C180.34 287.144 180.125 287.522 179.797 287.783C178.975 288.689 178.045 289.49 177.029 290.171C176.671 290.361 176.182 290.541 176.492 291.066C177.291 292.427 177.136 294.038 177.685 295.447C179.167 299.022 181.108 302.389 183.46 305.462C185.297 308.12 187.391 310.591 189.712 312.839C193.151 316.389 197.062 319.45 201.334 321.935C205.636 324.092 210.334 325.344 215.138 325.612C217.739 325.786 220.351 325.532 222.87 324.86C225.899 324.235 228.861 323.316 231.711 322.115C237.16 319.734 242.105 316.335 246.28 312.099C248.237 310.01 250.635 308.327 252.246 305.856C253.439 303.922 254.334 301.785 255.467 299.816C257.686 295.972 258.629 291.663 259.715 287.509C261.001 282.668 261.883 277.729 262.352 272.742C262.853 266.905 263.616 261.103 263.819 255.242L263.795 254.788ZM101.991 284.99C98.4117 285.945 95.1544 287.377 91.4556 287.079C91.2886 287.079 91.1096 287.353 90.9306 287.353C88.6517 287.353 86.4563 288.07 84.1654 288.058C81.0939 287.904 78.0566 287.342 75.1332 286.386C70.138 285.167 65.7419 282.204 62.7363 278.03C59.9945 274.041 57.5994 269.823 55.5773 265.425C51.7831 274.306 47.4161 282.507 40.2095 288.905C41.2328 289.572 42.2022 290.319 43.1088 291.137C47.7298 294.851 52.5665 298.287 57.5938 301.427C59.9801 302.967 62.1874 304.746 64.6692 306.047C69.3159 308.586 74.1992 310.665 79.2496 312.254C81.7194 312.983 84.0222 314.188 86.6949 314.367C87.7807 314.451 88.4608 314.546 88.5801 313.078C88.7262 311.273 89.3388 309.537 90.3579 308.041C91.4678 306.213 92.3305 304.246 92.9232 302.191C94.3838 298.048 96.3091 294.083 98.6623 290.373C99.8077 288.571 100.882 286.733 101.991 284.99ZM151.448 240.368C152.199 241.025 152.796 240.858 153.309 241.001C154.113 241.226 154.851 241.642 155.46 242.213C156.068 242.785 156.53 243.495 156.805 244.284C156.953 244.525 157.01 244.812 156.966 245.092C156.923 245.372 156.781 245.627 156.566 245.812C156.332 246.022 156.028 246.139 155.713 246.139C155.398 246.139 155.094 246.022 154.86 245.812C154.61 245.693 154.381 245.536 154.18 245.346C153.178 244.152 151.901 244.224 150.6 244.534C148.214 245.084 146.615 246.922 144.635 248.116C144.074 248.426 144.026 248.963 144.635 249.596C145.072 249.935 145.417 250.378 145.64 250.884C145.863 251.391 145.956 251.945 145.911 252.497C145.562 254.471 144.854 256.364 143.823 258.083C143.286 258.943 142.523 259.707 141.246 259.014C139.969 258.322 140.411 257.271 140.924 256.388C141.467 255.206 141.867 253.964 142.117 252.688C142.356 251.9 141.831 251.494 141.365 251.124C140.9 250.754 140.59 251.434 140.244 251.709C137.989 253.571 136.533 256.078 134.863 258.406C132.789 261.217 130.478 263.845 127.954 266.26C127.083 267.132 127.584 267.382 128.265 267.717C130.126 268.588 132.214 268.027 134.135 268.612C134.708 268.791 134.91 268.087 135.054 267.657C135.459 266.463 135.781 265.269 136.116 264.135C136.45 263.001 136.986 263.025 137.834 263.455C138.213 263.634 138.517 263.943 138.689 264.326C138.862 264.709 138.893 265.141 138.776 265.544C138.449 266.503 138.303 267.515 138.347 268.528C139.772 268.467 141.161 268.057 142.392 267.335C145.266 265.467 147.727 263.029 149.622 260.172C153.048 255.29 156.005 250.094 158.451 244.654C159.629 241.741 160.334 238.658 160.539 235.522C160.566 235.245 160.509 234.968 160.375 234.725C160.241 234.482 160.036 234.285 159.788 234.161C159.239 233.827 158.953 234.34 158.595 234.686C158.11 235.167 157.596 235.618 157.055 236.035L151.448 240.368ZM181.277 315.573C181.611 313.973 182.327 312.803 181.563 311.502C179.892 308.685 178.162 305.916 176.492 303.146C174.976 300.434 173.931 297.483 173.402 294.42C172.912 292.092 173.151 292.033 170.681 292.271C173.099 300.506 176.696 308.347 181.36 315.549L181.277 315.573ZM124.804 270.379C122.848 274.031 122.967 275.153 125.317 276.478C127.668 277.803 129.279 277.04 131.283 273.446C129.076 272.706 126.654 272.408 124.804 270.379ZM48.7167 233.373C48.4186 233.916 48.2418 234.518 48.1985 235.136C48.1553 235.754 48.2466 236.375 48.4661 236.954C48.6212 237.396 48.7644 237.742 49.2655 237.694C50.969 237.53 52.593 236.893 53.9546 235.856C54.2291 235.665 54.42 234.841 53.6564 234.853C51.8666 234.901 50.3632 234.018 48.7167 233.409V233.373ZM20.9161 113.165C21.0831 113.165 21.1428 113.058 21.0831 112.914C21.0672 112.891 21.0457 112.873 21.0207 112.86C20.9957 112.848 20.9679 112.842 20.94 112.843C20.8403 112.895 20.7446 112.955 20.6536 113.022L20.9161 113.165ZM21.9303 119.647C21.9946 119.541 22.0391 119.423 22.0615 119.301C22.0388 119.182 21.9943 119.069 21.9303 118.967C21.8663 119.069 21.8218 119.182 21.799 119.301C21.7871 119.456 21.8826 119.611 21.9303 119.683V119.647ZM153.058 209.678V209.522H152.939C152.934 209.574 152.934 209.626 152.939 209.678H153.058ZM150.839 240.715L150.946 240.786V240.679L150.839 240.715Z" fill="black"></path>
    <path d="M0 160.866C1.1335 161.141 2.5295 160.866 3.36471 161.642C4.19992 162.418 3.56755 163.886 3.60334 165.032C3.60762 166.706 4.27227 168.311 5.45274 169.497C8.20894 172.278 10.5833 175.465 14.0077 177.531C16.6804 179.154 19.3411 180.789 22.0973 182.306C27.5262 185.254 32.9908 188.155 38.4913 190.948C41.5515 192.353 44.8123 193.271 48.1559 193.67C48.6046 193.723 49.0362 193.874 49.4206 194.111C46.5809 196.499 45.1849 199.674 43.8963 203.017C42.5559 206.206 41.5367 209.521 40.8537 212.913C40.1598 216.134 38.6985 219.14 36.5942 221.675C36.1295 222.411 35.4319 222.971 34.6125 223.265C33.7931 223.559 32.8988 223.571 32.0721 223.298C29.4114 222.629 26.8103 221.675 23.9825 221.794C21.3362 221.785 18.7277 222.423 16.3841 223.652C14.0405 224.882 12.0327 226.666 10.5356 228.849C9.81861 229.955 9.38575 231.222 9.27543 232.536C9.16512 233.85 9.38076 235.171 9.90322 236.381C10.3208 237.575 10.7026 238.769 11.2038 239.831C11.7049 240.894 11.2634 241.359 10.1657 241.669C9.20891 241.798 8.24335 241.85 7.27827 241.825C4.73833 242.082 2.2694 242.815 0 243.985V160.866Z" fill="#1226AA"></path>
    <path d="M229.588 350C231.306 348.448 232.63 346.419 234.587 345.225C235.633 344.464 236.822 343.924 238.083 343.637C238.646 343.49 239.241 343.527 239.782 343.741C240.323 343.956 240.781 344.338 241.09 344.831C242.177 346.347 242.818 348.138 242.939 350H239.61C239.278 349.262 238.991 348.505 238.751 347.732C238.512 346.789 237.999 346.705 237.26 347.087C235.847 347.716 234.637 348.724 233.764 350H229.588Z" fill="black"></path>
    <path d="M195.773 350C196.691 348.706 197.923 347.667 199.353 346.98C201.656 345.786 203.123 346.335 203.935 348.782C204.06 349.167 204.113 349.572 204.09 349.976H201.167C200.892 349.535 200.606 349.367 200.331 349.976L195.773 350Z" fill="black"></path>
    <path d="M0 87.8103C0.0548537 87.9062 0.102699 88.0059 0.143173 88.1087C0.143173 88.1087 0.0477263 88.1923 0 88.2281V87.8103Z" fill="black"></path>
    <path d="M159.454 253.559C159.483 252.442 159.867 251.363 160.551 250.479C162.003 247.663 163.055 244.657 163.677 241.55C163.749 241.228 163.677 240.941 164.047 240.667C169.238 236.393 172.889 230.914 176.158 225.148C178.914 220.644 180.638 215.585 181.205 210.334C181.34 207.949 181.34 205.557 181.205 203.172C181.145 201.166 181.205 201.441 183.066 200.462C186.991 198.571 191.051 196.975 195.213 195.687C199.123 194.372 203.107 193.288 207.144 192.44C210.294 191.736 213.396 190.769 216.546 190.053C225.907 187.753 235.56 186.876 245.182 187.45C248.606 187.677 251.697 189.145 254.727 190.542C258.681 192.272 262.312 194.662 265.466 197.609C268.902 200.963 272.374 204.389 274.546 208.711C276.717 213.032 278.781 217.461 279.473 222.427C280.396 228.132 280.973 233.889 281.203 239.664C281.44 241.073 281.567 242.497 281.585 243.926C280.631 243.448 280.392 242.541 279.951 241.753C278.939 239.555 277.447 237.613 275.584 236.071C275.358 235.857 275.083 235.703 274.783 235.624C274.482 235.545 274.167 235.542 273.866 235.617C272.971 235.88 272.338 236.333 272.78 237.408C273.09 238.184 273.376 238.972 273.71 239.724C275.548 243.842 275.345 247.972 273.71 252.652C273.388 251.124 272.732 250.968 271.694 251.207C270.656 251.446 270.501 252.162 270.179 252.926C269.857 253.69 270.596 255.23 268.878 255.433C268.795 254.001 268.699 252.556 268.64 251.112C268.463 244.893 267.72 238.704 266.42 232.621C265.374 228.412 264.063 224.273 262.495 220.23C261.455 217.258 260.094 214.408 258.438 211.731C257.075 209.554 255.293 207.669 253.195 206.188C251.098 204.706 248.727 203.656 246.22 203.1C241.339 201.783 236.285 201.219 231.234 201.429C225.719 201.742 220.268 202.774 215.019 204.497C213.118 205.11 211.34 206.056 209.769 207.29C208.575 208.44 207.615 209.81 206.941 211.325C202.646 218.869 196.549 224.886 190.523 230.95C188.328 233.158 185.62 234.71 183.245 236.692C179.57 239.771 176.742 243.341 176.408 248.259C176.452 249.873 176.038 251.466 175.215 252.855C174.499 253.893 173.915 254.048 172.829 253.332C171.467 252.366 169.884 251.76 168.226 251.57C166.567 251.38 164.888 251.612 163.343 252.246L159.454 253.559Z" fill="black"></path>
    <path d="M181.36 315.549C176.721 308.327 173.152 300.47 170.765 292.224C173.235 291.985 172.996 292.045 173.485 294.373C174.018 297.436 175.067 300.387 176.587 303.099C178.258 305.892 179.988 308.661 181.658 311.455C182.362 312.78 181.646 313.95 181.36 315.549Z" fill="black"></path>
    <path d="M65.0867 46.0898C65.1822 47.379 64.693 48.2026 63.2254 48.2385C63.4521 48.9786 64.3589 49.4322 63.6191 50.2917C62.8794 51.1511 62.3186 50.5782 61.7936 50.2917C60.0806 49.5497 58.2805 49.0283 56.4363 48.7398C55.4194 48.5072 54.363 48.5072 53.3461 48.7398C46.8626 50.1467 40.5951 52.4107 34.7089 55.4724C33.8737 55.9141 33.0146 56.6662 32.1078 55.6396C31.3681 54.8039 31.8334 54.1355 32.2749 53.2521C32.7163 52.3688 32.4777 50.8646 33.468 49.9216C34.5287 48.8404 35.6781 47.8501 36.9043 46.9612C41.3765 44.2174 46.2294 42.1498 51.3057 40.8254C51.8449 40.7132 52.391 40.6374 52.9404 40.5986C55.5772 40.1928 58.1545 41.2552 60.8271 40.8374C62.9629 40.5031 64.5498 42.0311 66.1844 43.1651C66.5188 43.3548 66.7817 43.6491 66.9326 44.0028C67.0835 44.3565 67.1141 44.7501 67.0196 45.1228C66.781 46.0898 65.9577 46.0778 65.1702 46.0301C65.183 45.9877 65.1873 45.9433 65.1828 45.8993C65.1783 45.8553 65.1652 45.8127 65.1441 45.7738C65.123 45.7349 65.0944 45.7007 65.06 45.6729C65.0256 45.6452 64.986 45.6246 64.9435 45.6123C64.9435 45.6123 64.8362 45.6839 64.8242 45.7197C64.7884 45.9226 64.86 46.054 65.0867 46.0898Z" fill="black"></path>
    <path d="M65.0988 98.2673C65.5283 97.8256 65.9101 97.2885 66.6618 97.7779C69.8117 99.7833 73.4628 99.9146 76.9945 100.44C77.9849 100.583 78.6769 100.44 78.9632 99.1029C79.7507 95.3427 80.5501 91.5944 81.0155 87.7864C81.1049 87.1139 81.1289 86.4342 81.0871 85.7571C80.5998 80.8904 79.855 76.053 78.8559 71.2652C77.9712 66.451 77.425 61.5806 77.2212 56.6899C77.1139 54.4815 76.6843 52.3089 76.744 50.0766C76.7007 49.5948 76.7659 49.1094 76.9349 48.6561C77.0281 48.4202 77.194 48.2201 77.4085 48.0849C77.6231 47.9496 77.8751 47.8863 78.128 47.9041C78.6888 47.9041 78.9155 48.3577 78.9871 48.8949C79.4047 52.0344 79.8581 55.1619 80.2519 58.3014C80.932 63.5538 81.3615 68.8778 82.9007 73.9631C83.9042 77.7371 84.6575 81.5733 85.1557 85.4467C85.6688 88.4668 84.929 91.5586 84.2967 94.5429C83.7836 97.0258 82.9842 99.449 82.3041 101.896C82.0893 102.672 81.6598 103.353 80.753 103.221C77.7224 102.792 74.6798 103.603 71.6015 102.732C69.6086 102.232 67.6965 101.452 65.922 100.416C65.1226 99.9265 64.4544 99.282 65.1942 98.2315L65.0988 98.2673Z" fill="black"></path>
    <path d="M71.327 118.334C69.0003 118.191 66.7094 118.704 64.347 118.608C61.1465 118.419 58.0412 117.448 55.3029 115.779C53.1389 114.699 51.1319 113.33 49.3371 111.709C48.7286 111.1 48.2632 111.351 47.8217 111.959C47.7449 112.097 47.6369 112.215 47.5064 112.304C47.3759 112.393 47.2266 112.45 47.0702 112.471C46.9138 112.491 46.7547 112.475 46.6055 112.424C46.4564 112.373 46.3213 112.287 46.211 112.174C45.9198 111.977 45.7099 111.681 45.6199 111.341C45.53 111.001 45.5662 110.639 45.7218 110.324C46.4128 108.964 47.3563 107.749 48.5018 106.743C48.7258 106.472 49.046 106.298 49.3952 106.258C49.7445 106.218 50.0956 106.315 50.3751 106.528C51.0075 107.017 51.091 107.59 50.3751 108.271C49.6592 108.951 50.4705 109.345 50.9239 109.703C53.1595 111.202 55.5232 112.5 57.9875 113.583C62.4021 115.97 67.0316 114.944 71.6372 114.609C75.2181 114.415 78.6895 113.306 81.7194 111.386C82.7813 110.694 83.187 112.007 84.0102 111.9C83.9386 112.604 84.2489 113.428 83.6284 113.965C82.9635 114.625 82.1933 115.169 81.3495 115.576C78.1399 116.866 75.0496 118.764 71.327 118.334Z" fill="black"></path>
    <path d="M53.4654 60.8679C49.507 61.8637 45.6876 63.3473 42.0946 65.2847C41.1401 65.8457 40.1617 66.3232 39.1833 66.8246C38.2049 67.326 37.7157 67.1946 37.2265 66.5023C36.7373 65.8099 37.1072 65.1892 37.7276 64.7356C39.3599 63.3785 41.1087 62.1681 42.9537 61.1186C45.4267 59.7692 48.0498 58.7154 50.7689 57.9791C53.6735 57.4553 56.6238 57.2273 59.5744 57.2986C60.0472 57.3913 60.5105 57.5272 60.9584 57.7045C61.3069 57.7546 61.6267 57.9254 61.8622 58.1872C62.0977 58.4489 62.2339 58.7851 62.247 59.137C62.247 59.9487 61.7221 60.3307 60.9226 60.4143C59.9204 60.4143 59.8249 61.0828 59.6698 61.9303C59.3461 64.7057 57.9342 67.239 55.7443 68.9733C54.0023 70.2506 52.7018 69.7612 52.0694 67.708C51.5206 65.989 52.0694 64.461 52.5705 62.933C52.83 62.2285 53.1288 61.539 53.4654 60.8679Z" fill="black"></path>
    <path d="M96.1089 60.9158C92.6488 60.1399 89.8568 61.6202 86.9455 62.3245C86.2117 62.5219 85.5001 62.7939 84.8216 63.1362C84.6697 63.2237 84.5017 63.2795 84.3277 63.3004C84.1537 63.3213 83.9772 63.3068 83.8089 63.2577C83.6406 63.2087 83.484 63.1261 83.3484 63.0149C83.2128 62.9038 83.1011 62.7664 83.02 62.6109C82.8709 62.3323 82.8262 62.0096 82.8941 61.701C82.9619 61.3924 83.1377 61.1181 83.3899 60.9278C83.7365 60.5949 84.1408 60.328 84.583 60.1399C88.6994 58.3613 92.9351 56.8214 97.5049 57.2869C99.0884 57.4442 100.631 57.8807 102.063 58.5761C102.993 59.0298 103.638 59.937 103.125 60.7368C102.015 62.4319 102.301 64.4135 101.633 66.2041C101.308 67.2246 100.715 68.1389 99.9147 68.8509C99.1149 69.5629 98.1383 70.0464 97.0873 70.2508C96.7084 70.3079 96.3214 70.2784 95.9554 70.1648C95.5894 70.0511 95.2538 69.856 94.9738 69.5943C94.6938 69.3325 94.4766 69.0108 94.3384 68.6531C94.2003 68.2955 94.1448 67.9112 94.176 67.5291C94.0877 65.1734 94.766 62.8527 96.1089 60.9158Z" fill="black"></path>
    <path d="M11.6691 97.8017C10.3327 97.4317 10.3327 96.608 10.6787 95.4143C11.402 93.4802 12.2965 91.6145 13.3514 89.8396C13.5982 89.3933 13.7136 88.8861 13.684 88.3769C13.6544 87.8678 13.4812 87.3774 13.1844 86.9628C12.2004 85.0416 10.544 83.5501 8.53105 82.7728C8.46549 82.7544 8.40163 82.7304 8.34016 82.7011C7.43336 82.1162 6.14474 81.6149 6.69359 80.254C7.24244 78.8932 8.37594 79.502 9.39012 79.7885C14.0196 81.1135 16.5491 84.4201 17.8854 88.813C18.4898 90.8473 18.7992 92.9578 18.8041 95.0801C18.8041 96.7274 17.957 97.3959 16.7042 96.9303C16.4739 96.881 16.2663 96.7572 16.1132 96.5782C15.9601 96.3992 15.8701 96.1747 15.857 95.9395C15.7616 95.1875 15.5349 94.4593 15.3559 93.6715C13.9838 94.8652 13.948 97.0377 12.1225 97.7898C12.0963 97.7504 12.0609 97.7181 12.0192 97.6957C11.9776 97.6734 11.9311 97.6617 11.8838 97.6617C11.8366 97.6617 11.7901 97.6734 11.7484 97.6957C11.7068 97.7181 11.6713 97.7504 11.6452 97.7898L11.6691 97.8017Z" fill="black"></path>
    <path d="M49.8859 70.4297C50.4467 70.5013 51.258 70.4297 51.4131 71.325C51.5683 72.2203 50.8404 72.6142 50.22 72.7216C48.7405 72.9842 47.2252 72.841 45.7337 73.1514C44.994 73.3066 44.4451 72.662 44.3854 71.8861C44.3258 71.1101 44.9462 70.6923 45.7098 70.6923C47.1072 70.7491 48.5067 70.661 49.8859 70.4297Z" fill="black"></path>
    <path d="M12.1225 97.8018C12.0935 97.8328 12.0584 97.8577 12.0194 97.8746C11.9804 97.8916 11.9383 97.9003 11.8958 97.9003C11.8533 97.9003 11.8112 97.8916 11.7722 97.8746C11.7332 97.8577 11.6981 97.8328 11.6691 97.8018H12.1463H12.1225Z" fill="black"></path>
    <path d="M65.1347 98.2317L65.0629 98.1719L65.0988 98.2676L65.1347 98.2317Z" fill="black"></path>
    <path d="M69.2867 140.86V140.382C69.3406 140.485 69.3846 140.593 69.418 140.704C69.418 140.704 69.3225 140.812 69.2867 140.86Z" fill="black"></path>
    <path d="M131.105 322.879L131.009 322.903L131.141 322.915L131.105 322.879Z" fill="black"></path>
    <path d="M131.152 349.093C131.152 349.093 131.236 349.189 131.236 349.224C131.236 349.26 131.105 349.356 130.997 349.224L131.152 349.093Z" fill="black"></path>
    <path d="M176.122 336.177V336.273L176.158 336.201L176.122 336.177Z" fill="black"></path>
    <path d="M220.734 307.121C217.73 306.989 214.796 306.173 212.155 304.734C210.962 304.053 209.686 303.48 208.48 302.824C205.278 301.207 202.554 298.779 200.582 295.781C199.431 293.977 198.701 291.937 198.446 289.812C198.334 288.37 198.759 286.938 199.641 285.792C200.522 284.645 201.797 283.866 203.219 283.605C205.736 283.283 208.17 283.927 210.628 284.178C215.699 284.715 220.77 285.372 225.865 285.646C228.466 285.789 231.043 286.362 233.704 285.754C234.882 285.636 236.063 285.945 237.033 286.625C238.226 287.317 239.121 288.368 240.409 289.012C241.698 289.657 241.603 290.851 241.137 291.973C239.514 296.918 236.112 301.083 231.592 303.66C228.995 305.061 226.255 306.178 223.419 306.99C222.543 307.221 221.628 307.266 220.734 307.121ZM214.578 287.819C214.591 287.76 214.591 287.699 214.578 287.64H214.458C214.458 287.64 214.458 287.819 214.661 287.819C215.092 288.84 215.76 289.745 216.608 290.459C217.456 291.173 218.461 291.675 219.541 291.925C223.3 293.047 226.986 292.068 230.47 288.559C227.774 288.642 225.197 288.225 222.584 288.213C219.971 288.201 217.25 287.664 214.542 287.819H214.578ZM204.233 294.587C205.426 295.685 206.07 296.473 206.941 297.178C209.274 298.841 211.783 300.242 214.422 301.356C216.204 302.357 218.193 302.934 220.233 303.039C222.274 303.145 224.312 302.777 226.187 301.964C228.883 300.736 231.39 299.128 233.632 297.19C234.205 296.736 234.265 296.103 233.465 295.721C232.49 295.142 231.397 294.79 230.267 294.691C229.137 294.592 228 294.748 226.939 295.148C225.49 295.808 223.915 296.142 222.324 296.127C220.733 296.113 219.164 295.75 217.727 295.065C213.36 292.832 209.089 293.465 204.197 294.587H204.233Z" fill="black"></path>
    <path d="M227.977 277.422C227.639 277.426 227.307 277.329 227.026 277.141C226.745 276.953 226.527 276.685 226.402 276.371C226.264 275.898 226.294 275.392 226.488 274.939C226.681 274.486 227.026 274.115 227.464 273.888C228.906 273.004 230.4 272.207 231.938 271.501C232.927 271.022 233.873 270.458 234.766 269.818C235.44 269.405 235.959 268.781 236.242 268.043C236.525 267.304 236.555 266.493 236.329 265.735C235.806 263.371 234.794 261.142 233.358 259.193C231.267 256.118 229.462 252.857 227.965 249.453C227.707 248.806 227.603 248.109 227.659 247.415C227.714 246.722 227.929 246.05 228.287 245.454C228.342 245.288 228.431 245.136 228.548 245.006C228.665 244.876 228.808 244.772 228.967 244.701C229.126 244.629 229.298 244.591 229.473 244.589C229.647 244.587 229.821 244.621 229.981 244.69C230.119 244.742 230.246 244.822 230.353 244.924C230.46 245.026 230.546 245.148 230.606 245.284C230.666 245.419 230.699 245.565 230.702 245.713C230.705 245.861 230.679 246.008 230.625 246.146C230.148 247.423 230.757 248.378 231.365 249.441C233.203 252.592 235.446 255.409 237.57 258.417C239.693 261.426 241.447 264.971 240.242 269.042C239.801 270.463 239.041 271.765 238.019 272.847C236.997 273.929 235.742 274.763 234.348 275.285C232.324 276.265 230.183 276.983 227.977 277.422Z" fill="black"></path>
    <path d="M256.947 252.986C256.947 255.935 256.159 258.239 253.964 259.957C253.47 260.401 252.853 260.684 252.194 260.769C251.536 260.854 250.868 260.738 250.277 260.435C249.683 260.136 249.184 259.677 248.836 259.109C248.489 258.542 248.306 257.889 248.308 257.224C248.264 255.546 248.804 253.904 249.835 252.58C250.265 252.019 250.468 251.387 250.921 250.718C247.326 250.085 243.629 250.385 240.183 251.589C238.922 251.967 237.699 252.462 236.532 253.07C236.054 253.332 235.339 253.667 234.909 252.855C234.813 252.713 234.747 252.553 234.714 252.385C234.681 252.217 234.681 252.044 234.716 251.876C234.75 251.708 234.818 251.549 234.915 251.407C235.011 251.266 235.135 251.145 235.279 251.052C236.869 249.821 238.685 248.913 240.624 248.378C244.58 247.041 248.814 246.753 252.914 247.543C255.557 248.267 258.003 249.577 260.073 251.375C260.307 251.63 260.5 251.92 260.645 252.234C260.817 252.497 260.909 252.804 260.909 253.117C260.909 253.431 260.817 253.738 260.645 254.001C260.24 254.598 259.595 254.442 258.951 254.24C258.199 253.973 257.515 253.546 256.947 252.986Z" fill="black"></path>
    <path d="M208.624 252.222C204.758 252.079 201.906 254.335 198.935 256.329C198.315 256.746 197.742 257.26 197.134 257.713C196.525 258.167 195.845 258.334 195.32 257.606C195.206 257.474 195.119 257.32 195.064 257.154C195.01 256.988 194.989 256.813 195.002 256.639C195.015 256.465 195.063 256.295 195.142 256.139C195.221 255.983 195.33 255.845 195.463 255.732C196.048 255.147 196.656 254.538 197.229 253.989C199.54 251.911 202.224 250.29 205.14 249.214C207.696 248.411 210.422 248.32 213.026 248.951C214.234 249.181 215.428 249.472 216.606 249.823C219.601 250.742 220.782 252.449 220.281 255.576C220.105 256.895 219.565 258.139 218.722 259.168C217.879 260.196 216.766 260.97 215.508 261.402C213.826 262.023 211.774 260.292 211.523 258.155C211.407 256.69 211.727 255.224 212.442 253.941C213.062 252.747 212.692 252.341 211.428 252.353C210.521 252.318 209.59 251.876 208.624 252.222Z" fill="black"></path>
    <path d="M217.155 240.261C209.924 240.667 202.706 241.24 195.809 243.723C194.903 244.038 194.028 244.437 193.196 244.916C193.046 245.04 192.872 245.13 192.685 245.181C192.497 245.232 192.301 245.242 192.11 245.212C191.918 245.181 191.735 245.111 191.572 245.004C191.41 244.898 191.272 244.758 191.168 244.594C190.75 243.89 191.287 243.197 191.848 242.839C194.676 240.871 197.665 239.146 200.785 237.682C203.598 236.439 206.598 235.669 209.662 235.402C213.5 235.026 217.364 235.803 220.758 237.635C221.085 237.763 221.356 238.001 221.524 238.309C221.692 238.617 221.746 238.974 221.677 239.318C221.486 240.201 220.734 240.225 220.018 240.225L217.155 240.261Z" fill="black"></path>
    <path d="M173.533 271.107C172.507 272.695 171.517 274.199 170.574 275.715C170.18 276.335 169.739 276.908 168.951 276.503C168.164 276.097 167.627 275.548 168.009 274.485C168.614 272.732 169.55 271.111 170.765 269.71C171.54 268.839 171.863 268.158 170.765 267.168C168.871 265.343 166.494 264.1 163.916 263.586C163.117 263.467 162.592 263.204 162.592 262.393C162.592 261.581 163.188 261.092 164.047 261.044C166.919 261.024 169.711 261.989 171.958 263.777C175.06 265.938 176.528 269.245 177.769 272.647C178.413 274.425 178.079 275.607 177.065 275.858C175.275 276.3 175.43 274.557 174.857 273.721C174.285 272.886 174.44 271.931 173.533 271.107Z" fill="black"></path>
    <path d="M248.344 289.251C248.093 289.812 248.439 290.278 248.129 290.755C247.979 291.065 247.748 291.329 247.46 291.518C247.172 291.707 246.838 291.815 246.494 291.83C246.162 291.745 245.868 291.548 245.664 291.271C245.46 290.995 245.357 290.657 245.373 290.314C245.412 289.509 245.323 288.703 245.11 287.926C245.027 287.619 245.057 287.291 245.195 287.004C245.333 286.717 245.57 286.489 245.862 286.362C246.59 286.004 247.055 286.506 247.425 287.007C247.723 287.299 247.959 287.648 248.117 288.034C248.275 288.42 248.352 288.834 248.344 289.251Z" fill="black"></path>
    <path d="M193.972 285.217C194.012 284.536 194.246 283.882 194.646 283.33C195.045 282.778 195.594 282.352 196.227 282.101C196.456 282.027 196.701 282.015 196.936 282.068C197.171 282.12 197.387 282.235 197.563 282.399C197.731 282.545 197.838 282.749 197.863 282.971C197.887 283.192 197.827 283.414 197.694 283.593C197.222 284.349 196.822 285.149 196.501 285.981C196.355 286.3 196.097 286.554 195.776 286.697C195.456 286.84 195.094 286.861 194.759 286.756C193.912 286.53 194.151 285.766 193.972 285.217Z" fill="black"></path>
    <path d="M75.9445 236.847C77.9164 238.373 79.7528 240.066 81.4331 241.908C85.3376 245.603 90.1499 248.197 95.3811 249.429C99.0441 250.396 102.695 251.386 106.334 252.461C107.293 252.57 108.242 252.75 109.174 252.998C110.093 253.428 111.31 253.452 111.56 254.729C111.669 255.386 111.579 256.06 111.303 256.666C111.026 257.272 110.576 257.782 110.009 258.131C108.483 259.331 106.89 260.443 105.237 261.462C102.075 263.228 99.2708 265.831 95.5004 266.236C91.3363 266.654 87.1483 267.43 82.9364 266.571C79.8223 265.938 78.2473 263.742 76.8394 261.414C74.1309 256.913 73.4866 251.864 73.2599 246.707C73.1883 244.988 72.4724 243.388 72.5321 241.634C72.578 240.532 72.7665 239.44 73.0929 238.387C73.5105 236.978 74.286 236.644 75.9565 236.907L75.9445 236.847ZM84.2966 249.023V248.498C84.225 248.498 84.0819 248.498 84.0819 248.581C84.0728 248.67 84.0953 248.76 84.1455 248.834C84.1956 248.908 84.2702 248.962 84.3563 248.987C85.8716 251.016 87.0767 253.452 89.8806 253.977C92.2669 254.43 94.8322 255.23 97.4452 253.977C94.4504 252.783 91.4795 252.222 88.6755 250.921C87.196 250.241 85.9074 249.106 84.2608 249.023H84.2966ZM95.4527 262.619C93.5913 261.426 92.0044 260.65 90.68 259.587C87.2915 256.997 83.2228 256.4 79.2377 255.565C78.5576 255.409 78.1042 255.755 78.5337 256.651C79.4186 258.662 80.5704 260.546 81.9581 262.249C82.1645 262.517 82.4616 262.699 82.7933 262.763C84.4291 263.293 86.1462 263.527 87.8642 263.455C90.3766 263.039 92.9099 262.76 95.4527 262.619Z" fill="black"></path>
    <path d="M91.7896 240.571C91.3911 240.303 91.0571 239.95 90.8116 239.537C90.566 239.124 90.4151 238.662 90.3697 238.184C90.0367 236.578 90.0642 234.919 90.45 233.325C90.8358 231.731 91.5705 230.243 92.601 228.968C96.2759 224.36 100.356 220.111 104.163 215.622C105.566 213.735 106.739 211.687 107.659 209.522C107.933 208.973 108.184 208.4 108.506 207.875C108.578 207.714 108.681 207.569 108.81 207.448C108.94 207.328 109.092 207.235 109.258 207.174C109.424 207.114 109.6 207.088 109.776 207.098C109.953 207.108 110.125 207.153 110.284 207.231C110.445 207.301 110.589 207.403 110.709 207.532C110.829 207.66 110.922 207.812 110.981 207.977C111.04 208.143 111.065 208.319 111.054 208.494C111.043 208.669 110.996 208.841 110.916 208.997C110.451 210.296 109.913 211.567 109.305 212.805C107.201 216.852 104.613 220.628 101.597 224.05C99.4308 226.603 97.3958 229.264 95.5003 232.024C95.0401 232.632 94.7055 233.326 94.5162 234.065C94.3269 234.803 94.2866 235.573 94.3977 236.327C94.5087 237.082 94.769 237.807 95.1631 238.459C95.5573 239.112 96.0776 239.68 96.6935 240.13C97.3855 240.607 97.8866 241.084 97.6122 241.968C97.4814 242.329 97.2455 242.642 96.935 242.868C96.6245 243.093 96.2537 243.22 95.8702 243.233C95.016 243.316 94.1584 243.113 93.4325 242.655C92.7066 242.197 92.1538 241.51 91.8612 240.703L91.7896 240.571Z" fill="black"></path>
    <path d="M144.038 205.941C144.027 206.053 144.041 206.165 144.078 206.271C144.116 206.376 144.176 206.472 144.254 206.552C144.333 206.632 144.428 206.693 144.533 206.732C144.638 206.771 144.75 206.786 144.861 206.777C146.054 208.651 147.152 210.513 148.238 212.399C149.831 214.808 150.829 217.562 151.149 220.433C151.191 221.125 151.191 221.819 151.149 222.51C151.154 222.632 151.135 222.753 151.092 222.867C151.049 222.982 150.985 223.086 150.901 223.175C150.818 223.264 150.718 223.335 150.607 223.385C150.496 223.435 150.376 223.462 150.254 223.465C150.014 223.525 149.76 223.495 149.54 223.381C149.32 223.267 149.15 223.076 149.061 222.844C148.857 222.475 148.723 222.07 148.667 221.651C148.675 221.121 148.512 220.603 148.202 220.173C147.893 219.743 147.454 219.424 146.949 219.263C146.423 219.02 146 218.596 145.756 218.07C143.953 215.121 141.657 212.504 138.967 210.334C136.841 208.384 134.426 206.773 131.808 205.559C130.615 205.082 130.424 203.876 130.126 202.85C129.947 202.205 130.698 202.014 131.152 201.787C132.655 201.035 134.194 201.56 135.614 201.942C138.466 202.516 141.119 203.824 143.31 205.738C143.517 205.898 143.778 205.971 144.038 205.941Z" fill="black"></path>
    <path d="M96.7413 183.654C100.762 183.201 105.308 185.266 109.484 188.429C110.032 188.855 110.543 189.326 111.011 189.838C111.239 190.057 111.392 190.341 111.449 190.652C111.507 190.962 111.467 191.283 111.334 191.569C111.023 192.357 110.379 192.225 109.747 192.106C109.484 192.106 109.079 191.879 108.983 191.987C107.432 193.646 106.322 192.237 105.07 191.509C101.929 189.885 98.5144 188.861 94.9993 188.489C91.8933 188.01 88.7618 187.715 85.621 187.606C84.7739 187.606 84.0103 187.45 83.9148 186.495C83.8194 185.54 84.5353 185.206 85.3108 184.967C89.0435 184.012 92.8892 183.57 96.7413 183.654Z" fill="black"></path>
    <path d="M124.088 221.782C126.012 221.689 127.934 221.982 129.743 222.642C131.553 223.302 133.212 224.316 134.624 225.626C135.382 226.232 135.919 227.071 136.151 228.013C136.354 229.482 137.261 229.828 138.538 229.971C138.967 229.971 139.361 229.876 139.731 229.971C140.363 230.078 140.924 230.305 141.031 231.093C141.139 231.881 140.471 232.024 139.993 232.203C139.275 232.461 138.504 232.534 137.75 232.418C137.44 232.418 137.034 232.203 136.915 232.705C136.796 233.206 137.13 233.361 137.535 233.6C137.942 233.781 138.386 233.866 138.831 233.847C139.276 233.829 139.71 233.707 140.101 233.493C140.888 233.23 141.676 232.729 142.236 233.791C142.373 234.266 142.327 234.775 142.106 235.218C141.885 235.66 141.505 236.003 141.043 236.178C139.794 236.604 138.467 236.755 137.154 236.62C136.545 236.525 135.925 236.525 135.316 236.62C135.066 236.717 134.796 236.749 134.531 236.714C134.266 236.678 134.013 236.577 133.797 236.419C133.581 236.261 133.408 236.051 133.294 235.809C133.18 235.567 133.129 235.3 133.145 235.032C133.097 234.201 133.097 233.368 133.145 232.538C133.276 228.395 130.293 226.414 127.453 225.709C125.465 225.09 123.391 224.787 121.308 224.814C121.101 224.841 120.891 224.825 120.691 224.768C120.49 224.71 120.303 224.613 120.141 224.481C119.98 224.349 119.846 224.186 119.749 224.001C119.653 223.816 119.594 223.614 119.578 223.406C119.34 222.343 120.378 222.212 120.986 221.997C122.002 221.756 123.05 221.684 124.088 221.782Z" fill="black"></path>
    <path d="M87.1006 202.826C89.8169 202.757 92.5037 203.403 94.8919 204.7C96.0589 205.289 97.0806 206.13 97.8833 207.162C98.6859 208.194 99.2495 209.392 99.5333 210.669C99.6884 211.361 99.9867 212.316 98.9606 212.781C97.9345 213.247 97.3379 212.65 96.8606 211.755C94.4027 207.147 90.0835 206.073 85.3824 205.918C84.1351 205.872 82.8873 205.992 81.6717 206.276C79.7388 206.717 78.1877 205.404 77.7224 203.232C77.5686 202.341 77.7062 201.424 78.1146 200.618C78.523 199.811 79.1804 199.158 79.9894 198.755C80.34 198.602 80.7302 198.565 81.1034 198.649C81.4767 198.732 81.8136 198.933 82.0655 199.221C82.5069 199.782 82.0655 200.414 81.6478 200.904C81.3358 201.182 81.127 201.557 81.0555 201.969C80.984 202.381 81.054 202.805 81.2541 203.172C81.5047 203.697 81.9223 203.482 82.316 203.423C83.2825 203.279 84.3205 203.303 84.3921 201.931C84.3921 201.155 85.0603 200.737 85.5853 200.259C85.6729 200.126 85.7866 200.011 85.9193 199.922C86.0521 199.833 86.2014 199.772 86.3583 199.742C86.5152 199.712 86.6765 199.714 86.8327 199.747C86.9889 199.781 87.1368 199.845 87.2676 199.937C87.9239 200.391 87.7449 201.023 87.4943 201.62C87.2915 201.978 86.9574 202.193 87.1006 202.826Z" fill="black"></path>
    <path d="M123.325 226.282C125.672 226.557 127.84 227.677 129.422 229.434C129.528 229.526 129.614 229.639 129.676 229.765C129.738 229.891 129.773 230.028 129.781 230.168C129.789 230.309 129.769 230.449 129.721 230.581C129.674 230.713 129.6 230.835 129.505 230.938C129.432 231.059 129.334 231.163 129.218 231.245C129.102 231.327 128.971 231.384 128.833 231.413C128.694 231.442 128.551 231.442 128.412 231.414C128.273 231.386 128.142 231.329 128.026 231.248C126.321 230.081 124.477 229.131 122.537 228.419C121.976 228.24 121.845 227.548 122 226.963C122.215 226.103 122.967 226.414 123.325 226.282Z" fill="black"></path>
    <path d="M84.3085 271.441C84.3175 271.671 84.2654 271.899 84.1577 272.102C84.05 272.305 83.8904 272.476 83.6952 272.597C83.5 272.718 83.2761 272.786 83.0464 272.792C82.8167 272.799 82.5894 272.745 82.3875 272.635C80.5108 271.926 78.8841 270.681 77.7104 269.054C77.4359 268.636 77.1376 268.278 77.4837 267.752C77.637 267.521 77.8663 267.35 78.132 267.269C78.3977 267.189 78.6832 267.203 78.9393 267.311C79.6195 267.636 80.2772 268.007 80.908 268.421C81.9222 268.982 82.5188 270.116 83.7358 270.426C83.84 270.455 83.9375 270.505 84.0227 270.571C84.1079 270.638 84.1791 270.721 84.2323 270.815C84.2855 270.909 84.3196 271.013 84.3327 271.12C84.3458 271.228 84.3376 271.337 84.3085 271.441Z" fill="black"></path>
    <path d="M87.9596 207.613C89.7494 208.201 91.4245 209.093 92.9112 210.251C93.0329 210.319 93.1389 210.412 93.2226 210.524C93.3063 210.635 93.3657 210.763 93.3972 210.899C93.4286 211.035 93.4314 211.176 93.4052 211.313C93.3791 211.45 93.3246 211.58 93.2453 211.695C93.1032 211.937 92.8806 212.12 92.6167 212.214C92.3527 212.308 92.0642 212.306 91.8016 212.208C90.0119 211.516 88.2818 210.692 86.5278 209.917C86.2736 209.797 86.0762 209.583 85.9781 209.319C85.8799 209.056 85.8888 208.765 86.0029 208.508C86.2176 207.756 86.9097 207.565 87.9596 207.613Z" fill="black"></path>
    <path d="M91.8738 240.667C91.8738 240.667 91.8738 240.739 91.7661 240.751C91.6583 240.763 91.6942 240.691 91.6942 240.679L91.79 240.571L91.8738 240.667Z" fill="black"></path>
  </g>
  <defs>
    <clipPath id="clip0_50_253">
      <rect width="286" height="350" fill="white"></rect>
    </clipPath>
  </defs>
</svg>
