<?xml version="1.0" encoding="UTF-8"?>
<svg xmlns="http://www.w3.org/2000/svg" width="235" height="350" viewBox="0 0 235 350" fill="none">
  <g clip-path="url(#clip0_50_294)">
    <path d="M30.7316 207.526C24.9803 201.615 20.1055 194.912 16.2556 187.62C13.2854 182.069 10.6641 176.338 8.4067 170.462C5.44454 162.549 3.22161 154.379 1.76634 146.057C1.12334 142.588 0.706331 139.082 0.517948 135.56C0.0177087 128.334 -0.0709888 121.085 0.252318 113.849C0.517932 108.541 0.677278 103.1 1.1421 97.7383C1.64677 91.8594 2.33739 85.9938 3.39984 80.168C4.38262 74.8597 5.27246 69.5515 6.25523 64.1636C7.66299 56.6391 8.20746 48.9953 9.20352 41.4045C9.52148 37.6693 10.2111 33.9751 11.2621 30.3766C12.3777 27.0987 14.9541 25.0683 17.6501 23.3696C24.291 19.2143 31.3454 15.7587 38.7 13.0583C44.5594 10.9554 50.6016 9.40052 56.7486 8.41359C60.7328 7.72352 64.717 7.1662 68.7941 6.55575C68.9668 6.90079 69.1395 6.8477 69.3121 6.55575C76.6716 5.16746 84.1781 4.72152 91.6503 5.22869C96.9626 5.65335 102.275 6.46286 107.149 9.05064C108.278 9.64782 109.128 11.3066 110.323 10.9218C111.279 10.6033 111.718 8.95774 112.594 8.13496C116.87 4.15377 121.678 1.07498 127.575 0.172574C128.649 -0.0526673 129.769 0.136945 130.709 0.703351C130.979 0.854055 131.196 1.08359 131.331 1.36113C131.466 1.63868 131.513 1.95101 131.466 2.25607C131.386 3.02577 130.749 2.99917 130.297 3.18495C129.075 3.68924 127.761 3.37082 126.459 3.67604C123.333 4.52095 120.425 6.02804 117.933 8.09511C115.989 9.35493 114.311 10.9824 112.992 12.8858C115.821 12.3948 118.477 11.9569 121.12 11.4526C122.41 11.2344 123.718 11.1544 125.025 11.2138C125.622 11.2138 126.353 11.3066 126.459 12.1029C126.504 12.4491 126.416 12.7994 126.215 13.0845C126.013 13.3695 125.712 13.5686 125.37 13.6422C124.078 14.0777 122.742 14.367 121.386 14.5049C119.622 14.7507 117.875 15.1007 116.153 15.5532C116.246 16.522 117.109 16.7476 117.654 17.1988C120.979 20.1285 123.758 23.6242 125.861 27.5234C128.611 32.3937 129.846 37.5958 130.921 42.9041C131.094 43.7136 131.293 44.5231 131.492 45.3591C131.796 45.3394 132.09 45.2516 132.355 45.1023C132.619 44.9529 132.847 44.7458 133.02 44.4965C136.769 39.8508 141.304 35.8983 146.42 32.8183C148.731 31.4913 150.67 29.4742 153.167 28.3727C156.859 26.7537 160.352 24.7232 164.15 23.2767C170.896 20.6778 177.989 19.0902 185.2 18.5657C195.054 17.8491 204.922 17.6898 214.63 19.7733C220.38 21.0207 226.197 22.2815 231.125 25.8645C231.326 25.9764 231.547 26.0485 231.775 26.0768C233.685 26.558 235.375 27.6713 236.57 29.2352C237.444 30.1261 238.119 31.1926 238.55 32.3641C238.98 33.5356 239.156 34.7851 239.066 36.0298C238.947 48.9421 239.066 61.8678 239.066 74.7801C239.214 75.6771 239.104 76.5977 238.748 77.4342C236.734 76.7032 234.519 76.7601 232.546 77.5935C232.101 77.7033 231.693 77.926 231.36 78.2399C231.028 78.5538 230.782 78.9483 230.646 79.3851C229.225 84.0829 227.034 88.502 225.653 93.2131C225.374 94.3123 224.772 95.303 223.925 96.0575C223.077 96.812 222.023 97.2957 220.898 97.4464C220.587 97.4335 220.276 97.4849 219.985 97.5974C219.694 97.7098 219.429 97.8809 219.208 98.1C218.986 98.3192 218.812 98.5816 218.696 98.871C218.58 99.1604 218.525 99.4705 218.534 99.782C217.99 103.471 216.316 106.749 214.882 110.12C212.824 114.035 209.357 115.335 205.187 115.428C203.288 115.428 201.389 115.733 199.503 115.654C195.253 115.468 190.91 116.304 186.754 115.03C182.026 113.57 177.789 111.168 175.558 106.51C174.732 104.44 174.2 102.265 173.978 100.047C173.868 97.9751 173.121 95.987 171.839 94.3543C170.79 93.1998 170.75 91.5277 170.511 90.0149C170.511 89.7362 170.657 89.4044 170.206 89.338C169.754 89.2717 169.529 89.338 169.382 89.6167C169.026 90.2095 168.741 90.842 168.532 91.5012C167.43 95.761 165.491 99.7157 164.309 103.936C163.495 106.638 163.233 109.477 163.539 112.283C163.7 113.579 164.165 114.818 164.897 115.899C165.629 116.981 166.606 117.875 167.749 118.507C168.586 119.051 169.529 119.608 168.944 120.882C168.36 122.156 167.47 122.209 165.916 121.718C162.476 120.697 160.856 117.989 159.581 115.003C158.689 112.913 158.394 110.616 158.731 108.368C155.321 110.865 151.353 112.492 147.17 113.107C142.988 113.723 138.718 113.308 134.733 111.898C135.45 115.005 136.336 118.071 137.389 121.081C139.089 126.668 140.736 132.255 143.671 137.365C146.544 142.563 150.758 146.898 155.876 149.918C159.746 152.261 164.06 153.775 168.546 154.364C173.367 154.935 178.254 155.227 182.929 153.794C187.082 152.47 190.997 150.49 194.523 147.928C198.056 145.433 201.283 142.62 204.629 139.966C207.86 137.327 210.54 134.081 212.518 130.411C214.378 127.053 216.303 123.775 218.123 120.352C218.734 119.237 219.066 117.989 219.61 116.835C219.911 116.126 220.334 115.475 220.858 114.911C220.971 114.751 221.125 114.625 221.304 114.546C221.483 114.467 221.679 114.438 221.873 114.463C222.067 114.488 222.251 114.564 222.404 114.685C222.558 114.806 222.675 114.967 222.744 115.149C224.404 118.029 226.636 118.6 229.836 116.981C232.967 115.166 235.835 112.934 238.363 110.345C238.562 110.231 238.771 110.133 238.987 110.054V144.305C235.374 141.253 233.396 137.404 231.098 133.503C230.474 134.617 230.806 135.772 230.553 136.807C230.323 137.853 230.159 138.912 230.062 139.979C229.83 143.163 228.925 146.261 227.406 149.069C227.139 149.636 226.73 150.123 226.217 150.484C225.705 150.845 225.108 151.066 224.484 151.126C224.107 151.195 223.717 151.118 223.394 150.912C223.071 150.705 222.839 150.383 222.744 150.011C222.439 149.348 222.319 148.472 223.183 148.034C224.046 147.596 224.152 146.707 224.365 145.964C226.147 139.145 226.727 132.067 226.078 125.049C226.119 124.086 225.848 123.136 225.304 122.34C224.761 121.544 223.975 120.944 223.063 120.63C222.666 120.433 222.292 120.193 221.948 119.914C218.03 127.478 214.497 135.334 207.883 141.147C201.535 146.654 195.771 152.918 187.67 156.302C189.357 158.357 190.876 160.545 192.212 162.844C194.343 166.695 195.892 170.841 196.807 175.146C197.089 176.483 197.867 177.664 198.985 178.45C201.553 180.487 204.438 182.087 207.525 183.188C210.491 184.307 213.714 184.565 216.821 183.931H217.352C225.321 182.166 232.824 179.22 239.226 172.983C239.226 174.96 239.226 176.46 239.226 177.946C239.221 178.331 239.119 178.708 238.928 179.042C238.738 179.377 238.465 179.657 238.137 179.857C237.672 180.136 237.26 180.494 236.809 180.799C233.781 182.909 233.674 183.453 235.64 186.771C236.158 186.36 236.689 185.962 237.194 185.537C237.699 185.112 238.243 184.621 238.774 184.21C239.345 185.723 239.558 335.708 238.973 339.476C223.638 332.828 207.775 327.47 191.548 323.459C191.545 326.051 191.758 328.639 192.185 331.196C192.637 337.26 193.381 343.312 193.992 349.376C193.962 349.609 193.89 349.833 193.779 350.04H182.132C180.641 349.175 179.077 348.442 177.457 347.85C174.19 346.244 174.031 346.404 174.243 350.04H170.525C170.232 349.5 170.064 348.901 170.033 348.288C170.139 344.307 169.568 340.326 169.542 336.345C169.542 333.199 168.878 330.094 169.077 326.949C169.058 326.255 168.91 325.571 168.639 324.932C168.865 324.932 168.904 324.852 168.758 324.786L168.679 324.972C168.466 325.078 168.174 325.118 168.081 325.277C166.295 328.189 164.298 330.965 162.105 333.584C159.819 336.711 157.201 339.581 154.295 342.144C151.068 344.798 147.881 347.532 144.508 350.013H139.859C139.58 349.191 140.324 348.925 140.749 348.58C143.405 346.377 146.141 344.267 148.718 342.038C150.987 340.314 153.09 338.381 154.999 336.265C158.784 331.541 162.596 326.816 165.969 321.787C166.899 320.46 168.307 319.239 166.487 317.58C166.389 317.461 166.341 317.309 166.354 317.155C166.169 314.478 165.796 311.818 165.239 309.193C164.931 305.312 164.081 301.493 162.715 297.846C162.423 297.138 161.984 296.499 161.428 295.971C160.872 295.443 160.211 295.037 159.488 294.781C158.665 294.462 157.895 294.515 157.908 295.59C158.014 300.076 155.942 303.871 154.056 307.706C151.971 311.913 148.558 315.191 145.836 318.96C141.426 323.299 137.296 327.958 131.612 330.797C130.204 331.501 128.956 332.416 127.495 333.266C128.71 335.713 130.095 338.072 131.639 340.326C134.109 343.409 136.363 346.659 138.385 350.053H115.728C117.736 345.496 119.353 340.777 120.562 335.946C120.881 334.619 120.722 334.102 119.301 333.677C116.759 332.879 114.267 331.93 111.837 330.837C106.525 328.488 101.664 325.104 96.2986 322.782C95.7939 322.57 95.847 322.012 95.4088 321.68C95.2228 323.552 94.9439 325.33 94.8775 327.174C94.7049 331.74 95.847 336.199 95.7408 340.75C95.755 341.13 95.8951 341.494 96.1392 341.785C97.3376 343.556 98.7321 345.185 100.296 346.643C101.611 347.543 102.746 348.682 103.643 350H98.0649L93.9744 344.692C93.8815 346.444 93.9744 348.195 93.8815 350H90.1629C90.7602 348.5 90.7602 346.829 90.1629 345.329C90.3488 345.329 90.4285 345.329 90.4152 345.183C90.4019 345.037 90.3089 345.183 90.2956 345.183C90.2824 345.183 90.2293 345.302 90.2028 345.355C86.6153 345.6 83.0585 346.177 79.5782 347.08C77.4931 347.744 77.4798 347.757 78.1571 349.987H74.9033C74.0002 346.324 74.9033 342.608 74.8369 338.813C70.4389 339.64 66.1201 340.844 61.928 342.409C56.8548 344.4 51.941 346.709 47.0404 349.045C46.8235 349.111 46.6251 349.227 46.4613 349.383C46.2975 349.54 46.1729 349.733 46.0974 349.947H36.8009C37.2525 348.991 38.2618 348.859 39.0852 348.514C42.4983 347.094 45.8185 345.488 49.1254 343.882C54.2023 341.328 59.4899 339.214 64.9295 337.565C68.502 336.53 72.1807 335.973 75.8595 334.712C73.1605 331.143 71.2913 327.018 70.3878 322.636C69.7206 319.092 69.3959 315.493 69.4184 311.887C69.2192 307.361 68.595 302.836 68.7809 298.298C68.9304 297.399 68.7989 296.475 68.4044 295.654C68.0099 294.832 67.3716 294.152 66.5763 293.706C65.8852 293.246 65.2324 292.731 64.6241 292.167C61.5342 289.378 58.7557 286.263 56.3369 282.877C52.9396 278.804 50.3724 274.107 48.7802 269.049C47.5849 264.763 46.3099 260.49 45.5264 256.11C44.7525 250.692 44.309 245.232 44.1983 239.761C43.676 233.933 43.4986 228.079 43.667 222.23C43.7733 220.359 43.5874 218.899 41.7281 217.851C41.4071 217.608 41.0153 217.476 40.6125 217.476C40.2096 217.476 39.8178 217.608 39.4969 217.851C38.317 218.662 37.3136 219.704 36.5468 220.912C35.7799 222.121 35.2655 223.472 35.0345 224.884C33.9325 230.169 33.1739 235.519 32.7636 240.902C32.3121 245.401 31.741 249.873 31.1035 254.345C30.2668 260.184 29.1778 265.984 28.4474 271.836C27.531 279.36 26.7341 286.898 26.163 294.462C25.6584 301.098 25.5256 307.733 25.2865 314.368C25.0342 321.229 25.1803 328.103 24.7686 334.964C24.5295 339.078 24.4631 343.219 24.6225 347.359C24.7359 348.272 24.5691 349.197 24.1443 350.013H20.9038C20.9038 342.993 20.9038 335.973 20.9038 328.953C20.9038 326.299 20.9039 323.737 21.0101 321.123C21.2492 312.617 21.3155 304.084 21.8202 295.59C22.285 287.827 23.0023 280.064 24.0381 272.34C25.2201 263.502 26.8138 254.743 27.8895 245.892C28.6598 239.602 29.5363 233.325 30.7183 227.101C31.3956 223.531 32.3917 219.948 35.2072 217.227C36.7479 215.9 38.5041 214.845 40.4 214.109C36.4158 212.582 33.6268 209.902 30.5988 207.473C30.6606 207.481 30.723 207.481 30.7847 207.473C30.7847 207.473 30.7847 207.407 30.7847 207.367L30.7316 207.526ZM12.1386 123.072L12.0589 123.006L12.1652 123.085L12.2449 123.948C12.2449 123.948 12.3909 123.868 12.4042 123.815C12.4441 123.47 12.4839 123.178 12.1386 123.072ZM172.835 319.411C173.6 318.739 174.568 318.341 175.585 318.283C174.642 318.111 173.924 316.956 172.928 317.553C172.145 318.018 172.716 318.788 172.928 319.424H172.835V319.411ZM210.021 193.168C210.274 192.066 209.61 191.111 209.557 190.036C209.539 189.252 209.213 188.507 208.648 187.962C208.083 187.418 207.326 187.119 206.542 187.129C205.612 187.037 205.453 187.448 205.639 188.191C206.143 190.646 207.193 192.69 210.021 193.168ZM225.865 192.172C226.038 192.531 226.197 192.398 226.357 192.172C228.059 191.537 229.71 190.774 231.297 189.89C232.028 189.505 232.333 189.014 232.067 188.257C231.722 187.249 231.337 186.254 230.952 185.258C230.7 184.635 230.368 184.117 229.624 184.674C228.424 185.345 227.137 185.846 225.799 186.161C222.094 187.488 222.08 187.488 223.249 191.164C223.78 193.088 223.94 193.141 225.826 192.172H225.865ZM188.679 334.168L188.786 334.274L188.64 334.195C189.304 332.868 188.414 331.673 188.64 330.386C188.799 329.43 188.254 328.939 187.232 329.311C186.117 329.635 184.94 329.676 183.805 329.431C180.934 329.108 178.083 328.625 175.266 327.984C174.668 327.838 173.858 327.466 173.539 327.984C172.968 328.833 173.433 329.908 173.539 330.877C173.539 331.501 174.044 331.633 174.668 331.74C177.537 332.204 180.366 332.894 183.194 333.584C184.946 334.208 186.818 334.422 188.666 334.208L188.679 334.168ZM135.238 162.499L135.37 163.056C135.45 163.056 135.596 162.95 135.596 162.884C135.602 162.834 135.597 162.783 135.581 162.735C135.566 162.686 135.54 162.642 135.506 162.604C135.473 162.567 135.431 162.537 135.385 162.516C135.338 162.496 135.288 162.486 135.238 162.486C134.773 160.442 133.524 158.73 132.94 156.74C132.728 156.05 132.303 156.076 131.758 155.93C129.452 155.398 127.316 154.298 125.543 152.732C123.55 150.918 122.04 148.638 121.147 146.097C120.642 144.65 120.177 144.61 119.141 145.765C118.539 146.573 117.775 147.246 116.897 147.742C112.78 149.534 108.809 151.723 104.519 153.05C101.067 154.371 97.3175 154.716 93.6823 154.046C93.2175 153.94 92.3542 153.608 92.3542 154.377C92.4298 156.908 92.8087 159.421 93.4831 161.862C94.1205 161.291 94.5986 160.907 95.0369 160.535C96.8088 158.754 99.0933 157.571 101.571 157.151C104.148 156.852 106.75 156.852 109.327 157.151C111.983 157.324 114.639 157.974 117.295 157.576C120.178 157.013 123.15 157.11 125.989 157.862C128.828 158.614 131.459 160 133.684 161.915C133.866 162.144 134.107 162.318 134.38 162.421C134.654 162.524 134.95 162.551 135.238 162.499ZM177.032 186.599C174.443 185.546 171.714 184.876 168.931 184.608C168.931 193.26 170.857 201.727 167.842 210.34C176.342 205.615 182.172 198.874 187.139 191.111L177.032 186.599ZM152.914 107.28C153.091 107.131 153.278 106.994 153.472 106.869C155.827 105.667 157.859 103.919 159.4 101.772C160.942 99.6251 161.946 97.1409 162.33 94.5268C162.891 90.3572 162.752 86.1232 161.919 81.9993C161.616 80.2875 160.844 78.6933 159.687 77.3945C156.566 73.7583 152.25 73.5326 148.213 73.2672C142.731 72.9922 137.264 74.044 132.276 76.3328C131.435 76.5324 130.698 77.0361 130.208 77.747C129.717 78.4578 129.508 79.3251 129.62 80.1813C129.62 82.4107 129.62 84.6535 129.739 86.8829C130.286 92.641 131.173 98.3619 132.396 104.015C132.465 104.703 132.712 105.36 133.112 105.923C133.513 106.486 134.053 106.936 134.68 107.227C137.53 108.548 140.635 109.232 143.777 109.232C146.919 109.232 150.024 108.548 152.874 107.227L152.914 107.28ZM106.432 46.434C106.418 46.4997 106.418 46.5675 106.432 46.6331H106.565C106.565 46.6331 106.565 46.4208 106.339 46.4473C106.379 45.9084 106.379 45.3672 106.339 44.8282C106.179 43.7799 106.432 42.7713 107.454 42.5988C107.678 42.5746 107.905 42.5978 108.119 42.6667C108.334 42.7357 108.531 42.8489 108.699 42.9991C108.867 43.1492 109.001 43.333 109.093 43.5384C109.185 43.7437 109.233 43.9662 109.234 44.1913C109.327 45.3193 109.978 45.5183 111 45.4387C113.022 45.1806 115.077 45.391 117.005 46.0538C118.932 46.7166 120.681 47.8139 122.116 49.2607C123.481 50.8448 124.69 52.5556 125.729 54.3698C127.522 52.2864 128.836 50.3887 127.681 47.4957C126.594 44.6385 125.85 41.6629 125.463 38.6309C124.427 31.5576 121.067 25.6788 116.552 20.344C115.649 19.269 114.506 17.9685 113.085 17.8491C109.566 17.5571 106.047 16.9732 102.461 16.9599C99.0795 17.0228 95.7048 17.2843 92.3542 17.7429C88.5608 18.1397 84.8515 19.12 81.3577 20.6492C79.3125 21.5781 78.9008 22.9848 79.4453 25.3868C79.9135 27.2437 80.5217 29.0626 81.2648 30.8277C84.4389 38.7901 88.3434 46.4738 94.2667 52.8703C95.9604 54.6827 98.1416 55.9683 100.548 56.5728C99.8047 55.405 100.548 54.3832 99.7914 53.6002C97.1353 50.5878 95.8072 46.7923 94.0143 43.249C93.5362 42.2028 93.1883 41.1021 92.9784 39.9712C92.8621 39.5992 92.8888 39.1971 93.0534 38.8437C93.2179 38.4903 93.5084 38.211 93.8682 38.0602C94.0697 37.9835 94.2864 37.9545 94.5011 37.9755C94.7158 37.9966 94.9227 38.0671 95.1055 38.1816C95.2882 38.2961 95.4419 38.4514 95.5544 38.6353C95.667 38.8191 95.7354 39.0266 95.7541 39.2414C96.339 41.1482 97.1835 42.9656 98.2641 44.6425C99.4195 46.7525 100.19 49.1014 101.916 50.9062C102.74 50.256 103.576 49.6588 103.776 48.7697C103.975 47.8805 103.019 47.509 102.647 46.8587C101.108 44.3831 99.9277 41.7024 99.1407 38.8963C98.893 38.0799 98.8295 37.2187 98.9547 36.3749C98.9677 36.0554 99.0892 35.7499 99.2992 35.5087C99.5092 35.2674 99.7953 35.1048 100.11 35.0478C100.934 34.8753 101.133 35.4592 101.345 36.0962C101.624 36.9721 101.996 37.8214 102.315 38.7504C103.117 41.5779 104.522 44.1989 106.432 46.434ZM215.546 325.901H215.679H215.506C215.484 324.366 215.174 322.848 214.59 321.428C213.474 317.367 212.093 313.373 211.217 309.272C209.995 303.593 209.092 297.86 208.136 292.127C206.871 285.815 205.984 279.434 205.479 273.017C205.307 269.301 204.151 265.705 203.793 262.002C203.315 257.835 202.598 253.682 201.734 249.568C200.672 244.551 199.955 239.482 199.078 234.439C198.162 229.131 197.631 223.637 196.767 218.262C195.66 211.199 194.955 204.079 194.656 196.936C194.667 196.112 194.416 195.305 193.939 194.632C193.461 193.959 192.782 193.456 191.999 193.194C191.375 192.915 190.818 192.517 190.273 193.659C189.447 195.222 188.459 196.694 187.325 198.051C186.506 199.152 186.043 200.476 185.997 201.847C185.319 211.64 184.669 221.447 183.619 231.214C182.982 236.855 182.809 242.561 181.109 248.028C180.804 249.024 181.109 249.355 181.826 249.86C184.091 251.41 186.496 252.743 189.011 253.841C191.402 254.916 193.66 256.216 196.01 257.331C196.306 257.425 196.578 257.581 196.809 257.788C197.04 257.995 197.225 258.248 197.35 258.532C197.476 258.815 197.54 259.122 197.538 259.432C197.536 259.742 197.468 260.048 197.338 260.33C196.92 261.235 196.561 262.166 196.263 263.117C195.499 267.121 194.157 270.992 192.278 274.609C190.764 277.264 189.41 280.011 187.936 282.678C187.73 282.949 187.627 283.284 187.644 283.624C187.661 283.964 187.797 284.287 188.029 284.536C191.495 288.928 194.762 293.48 198.374 297.807C202.407 302.591 206.07 307.675 209.331 313.015C210.916 315.866 212.249 318.85 213.315 321.933C213.82 323.22 213.581 325.29 215.559 325.901H215.546ZM220.274 29.7661C216.465 30.2751 212.732 31.2466 209.158 32.6591C204.774 34.2777 200.517 36.2206 196.422 38.4716C194.895 39.2944 193.66 40.794 191.814 40.8603C189.961 41.0265 188.218 41.8065 186.86 43.0765C182.852 46.3036 178.331 48.8379 173.486 50.5745C166.859 52.7552 160.104 54.5279 153.26 55.8827C147.383 57.0179 141.71 59.0311 136.433 61.8545C132.09 64.2963 130.151 67.5343 130.364 73.7981C131.055 73.8574 131.747 73.6846 132.329 73.3071C135.75 71.7338 139.455 70.8715 143.219 70.7724C145.504 70.6663 147.881 71.0643 150.086 70.4804C156.088 68.9012 163.858 73.6919 165.133 80.9244C165.212 81.3491 165.531 82.2515 165.983 81.9728C166.327 81.6623 166.774 81.4903 167.238 81.4903C167.701 81.4903 168.148 81.6623 168.493 81.9728C168.828 82.2956 169.094 82.6833 169.274 83.1122C169.455 83.5412 169.546 84.0024 169.542 84.4677C169.542 84.9587 169.714 85.4497 170.272 85.4762C171.121 85.537 171.974 85.4834 172.809 85.317C173.659 85.1312 172.902 84.2155 173.313 83.7378C173.725 83.26 173.539 82.8885 173.579 82.4107C173.978 78.2305 176.74 75.7754 180.047 73.7715C181.787 72.6966 183.845 72.6436 185.784 72.2587C188.856 71.7073 191.962 71.3659 195.081 71.2369C198.623 71.1871 202.154 71.6338 205.572 72.5639C211.708 73.891 216.409 76.8636 218.123 83.3264C218.441 84.5075 218.681 85.7151 219.026 86.8829C219.159 87.3209 219.026 87.9977 219.809 88.0773C219.902 87.9181 220.062 87.7721 220.048 87.6659C219.22 84.1962 218.617 80.6765 218.242 77.129C218.245 75.9332 217.969 74.7531 217.436 73.6821C216.904 72.6111 216.13 71.6785 215.174 70.9581C214.64 70.4957 214.19 69.9433 213.846 69.3259C211.671 66.3484 209.671 63.2467 207.857 60.0364C205.878 56.387 203.235 53.149 201.283 49.4199C200.167 47.2833 199.862 44.8548 198.507 42.7846C198.029 42.0547 198.6 41.6035 199.304 41.1921C200.818 40.303 202.385 39.52 203.872 38.538C209.041 35.1122 214.498 32.1417 220.181 29.6599C220.447 29.5007 220.287 29.9121 220.394 29.6599C220.398 29.6069 220.398 29.5536 220.394 29.5007C220.301 29.4874 220.234 29.567 220.287 29.7661H220.274ZM52.0737 152.719C52.3856 152.679 52.7021 152.741 52.9752 152.897C53.2484 153.052 53.4634 153.293 53.5878 153.581C54.4909 155.651 56.1111 157.217 57.2931 159.089C58.4713 161.276 59.8027 163.378 61.2773 165.379C61.6757 165.843 62.0476 166.706 62.6054 166.44C64.4115 165.777 66.3638 166.44 68.4223 165.724C67.8911 165.246 67.5723 164.928 67.2137 164.649C65.7935 163.461 64.6165 162.01 63.7475 160.376C63.2163 159.46 62.9772 158.398 64.0662 157.722C65.1552 157.045 65.7927 157.642 66.3903 158.505C66.9205 159.444 67.5774 160.306 68.3426 161.066C69.6707 162.154 70.7199 164.118 72.8713 163.348C77.4943 161.85 82.4138 161.504 87.2013 162.34C87.601 162.463 88.0216 162.502 88.4373 162.457C88.8529 162.411 89.2549 162.281 89.6184 162.074C89.0075 161.225 89.2465 160.203 89.0738 159.235C88.7418 157.363 88.5294 155.479 88.0247 153.608C87.2411 150.794 85.3022 148.631 84.2264 146.017C83.8147 145.008 83.2437 145.353 82.5663 145.712C81.0489 146.587 79.4737 147.359 77.8516 148.021C71.183 150.49 63.9125 150.833 57.0407 149.003C52.5699 147.982 48.2679 146.329 44.2647 144.093C39.4094 141.127 35.0604 137.404 31.3824 133.065C28.5234 129.85 25.9338 126.406 23.6397 122.767C19.1395 115.621 15.7121 107.855 13.4667 99.7157C12.4462 96.3521 11.6258 92.9311 11.0098 89.4707C9.91247 82.1198 9.58304 74.6747 10.0269 67.2557C10.0933 66.2736 10.6379 65.1456 9.82775 63.7389C8.84498 70.5733 6.95909 76.8371 6.4013 83.3795C5.9232 88.8736 4.88734 94.3278 4.44907 99.8218C4.02409 105.064 4.07722 110.332 3.87801 115.587C3.37334 128.858 3.98423 142.022 7.25129 155.001C8.87516 161.711 11.0381 168.279 13.719 174.642C16.2481 180.412 19.1448 186.015 22.3913 191.416C25.884 197.38 30.2991 202.755 35.4728 207.341C36.7728 208.672 38.3978 209.642 40.1875 210.154C40.4042 207.57 40.9808 205.028 41.9007 202.603C42.1303 202.143 42.2658 201.642 42.2992 201.129C42.3325 200.616 42.263 200.102 42.0948 199.616C41.9266 199.13 41.6629 198.683 41.3195 198.3C40.976 197.918 40.5595 197.607 40.0945 197.388C39.4179 197.023 38.7658 196.616 38.1423 196.167C32.4581 191.681 28.7129 185.55 25.5123 179.353C23.157 174.81 21.1201 170.11 19.4164 165.286C16.4916 157.398 14.061 149.336 12.1386 141.147C10.6473 134.619 9.49483 128.019 8.68563 121.373C7.95817 114.685 7.68744 107.954 7.87544 101.228C7.85334 100.217 8.1977 99.2324 8.84499 98.455C9.03092 98.6938 8.60594 98.5611 8.84499 98.654C9.08404 98.7469 9.07077 98.654 9.01765 98.4815C8.96452 98.3089 9.01762 98.6274 8.8184 98.4815C10.1465 98.1895 10.9566 98.6274 11.1824 100.14C12.1751 107.432 13.7246 114.637 15.8174 121.692C17.0259 125.554 17.7298 129.575 19.0446 133.383C20.4922 137.577 22.2187 141.677 23.7725 145.831C26.349 152.679 29.5098 159.248 32.6706 165.817C34.4237 169.466 37.0001 172.625 38.9657 176.155C40.8082 179.175 42.9386 182.01 45.3271 184.621C45.8716 185.258 46.2833 185.391 46.7482 184.701C48.4081 182.391 50.2752 180.236 52.3261 178.265C52.9237 177.641 53.2823 176.938 52.2198 176.42C49.7363 175.093 48.2356 172.771 46.788 170.554C42.9234 164.914 40.2672 158.611 37.4915 152.4C36.961 151.372 36.6404 150.249 36.5486 149.096C36.5486 148.061 37.3056 147.769 37.8766 147.503C38.4477 147.238 38.8993 147.928 39.1383 148.512C39.6164 149.719 40.0281 150.98 40.5992 152.148C41.9273 154.895 43.3483 157.616 44.7428 160.336C47.2843 165.501 50.6282 170.23 54.6502 174.35C54.895 174.697 55.2593 174.942 55.6734 175.037C56.0876 175.133 56.5224 175.072 56.8947 174.867C57.0937 174.797 57.2751 174.685 57.426 174.537C57.577 174.39 57.6938 174.212 57.7685 174.014C57.8431 173.817 57.8737 173.606 57.8581 173.396C57.8425 173.186 57.7811 172.981 57.6782 172.797C57.4815 172.21 57.4636 171.577 57.6267 170.979C57.7898 170.382 58.1266 169.846 58.5946 169.44C59.3914 168.67 59.2984 168.113 58.5946 167.356C55.7497 163.824 53.3129 159.982 51.33 155.904C50.8519 154.988 50.2808 153.767 51.4894 152.811C51.7816 153.183 51.9808 152.944 52.0737 152.719ZM208.693 323.565C208.826 323.565 208.839 323.645 208.693 323.645C208.388 323.645 208.786 323.817 208.693 323.552C208.045 320.944 207.039 318.439 205.705 316.107C203 311.529 200.052 307.099 196.873 302.836C193.381 297.979 189.45 293.427 186.541 288.159C186.418 287.83 186.216 287.536 185.951 287.305C185.687 287.073 185.37 286.911 185.027 286.832C183.699 286.566 183.261 285.637 183.46 284.297C184.044 281.379 185.199 278.605 186.86 276.136C189.386 272.12 191.411 267.81 192.889 263.303C193.567 261.087 193.633 261.06 191.335 260.33C186.039 258.465 181.035 255.856 176.474 252.58C176.172 252.396 175.91 252.153 175.702 251.866C175.495 251.579 175.348 251.253 175.269 250.908C175.19 250.563 175.18 250.206 175.241 249.857C175.302 249.508 175.433 249.175 175.624 248.878C176.197 247.88 176.707 246.847 177.152 245.786C178.732 241.367 179.091 236.722 179.702 232.143C180.605 225.389 181.242 218.607 181.959 211.826C182.198 209.477 182.318 207.102 182.517 204.554C177.882 207.951 174.031 211.946 168.679 213.671C167.802 213.963 167.975 214.573 168.347 215.13C169.123 216.432 169.612 217.884 169.781 219.39C170.607 224.472 170.308 229.672 168.904 234.625C167.369 239.928 165.079 244.983 162.105 249.634C160.325 252.58 158.439 255.513 155.464 257.437C152.766 259.416 149.665 260.776 146.38 261.418C144.614 261.657 144.587 261.949 145.251 263.674C146.5 266.966 147.788 270.243 148.917 273.574C150.835 279.221 153.052 284.763 155.557 290.176C156.155 291.503 156.752 292.007 158.359 291.596C159.838 291.28 161.378 291.445 162.755 292.069C164.132 292.692 165.273 293.74 166.009 295.06C169.064 300.673 169.993 306.844 170.657 313.187C172.092 312.67 173.314 313.599 174.774 313.957C179.967 315.284 185.054 317.049 190.233 318.456C196.263 320.154 202.651 321.15 208.693 323.565ZM121.293 187.01C120.788 186.094 120.031 186.386 119.274 186.585C114.971 187.713 110.921 186.731 106.883 185.258C102.883 183.62 99.2253 181.248 96.0993 178.265C93.8468 176.082 91.7102 173.783 89.6981 171.377C89.4856 171.152 89.1403 170.86 89.1668 170.647C89.2465 170.077 88.5559 169.493 89.1668 168.935C89.2905 168.809 89.4382 168.709 89.6013 168.64C89.7644 168.571 89.9395 168.536 90.1164 168.536C90.2933 168.536 90.4684 168.571 90.6315 168.64C90.7945 168.709 90.9423 168.809 91.0659 168.935C91.3714 169.161 91.6238 169.466 91.9159 169.718C95.4752 172.731 98.4633 176.354 102.541 178.862C105.753 180.977 109.32 182.497 113.072 183.347C114.95 183.755 116.901 183.659 118.73 183.069C120.058 182.591 119.646 180.945 120.058 179.831C120.47 178.716 121.386 178.61 122.262 178.504C123.139 178.397 123.59 179.22 123.816 179.91C124.053 180.472 124.157 181.08 124.122 181.688C123.604 184.037 125.131 185.258 126.884 186.147C127.747 186.641 128.684 186.99 129.66 187.182C130.282 187.244 130.874 187.485 131.362 187.876C131.85 188.267 132.214 188.791 132.409 189.385C132.899 190.904 133.592 192.35 134.467 193.685C135.025 194.72 135.596 195.954 136.991 196.207C138.611 196.512 139.248 197.321 138.73 198.993C138.505 199.723 138.425 200.586 139.766 200.32C144.454 199.657 149.156 200.32 153.857 200.135C154.937 200.14 156.009 200.32 157.031 200.665C157.735 200.878 158.532 201.316 158.359 202.271C158.187 203.227 157.39 203.359 156.62 203.412C155.624 203.412 154.614 203.412 153.605 203.412C156.075 204.302 158.638 204.209 161.122 204.66C162.224 204.846 163.26 205.151 163.22 206.345C163.22 207.765 161.892 207.566 160.896 207.579C157.886 207.579 154.871 207.579 151.852 207.579C150.557 207.556 149.27 207.772 148.054 208.216C150.345 208.594 152.682 208.594 154.973 208.216C156.307 207.879 157.701 207.849 159.049 208.127C160.396 208.405 161.664 208.985 162.755 209.822C163.433 210.287 163.831 210.3 164.243 209.61C164.569 209.099 164.824 208.545 165 207.964C166.371 203.574 166.431 198.879 165.172 194.455C164.409 191.333 163.833 188.169 163.446 184.98C163.247 184.037 162.888 183.347 161.64 183.361C160.391 183.374 158.784 183.108 157.337 183.002C156.367 183.002 155.464 182.83 155.345 181.569C155.246 181.045 155.339 180.503 155.607 180.043C155.875 179.582 156.301 179.234 156.806 179.061C158.154 178.635 159.601 178.635 160.949 179.061C160.541 178.379 160.097 177.719 159.621 177.084C158.147 175.279 157.284 175.133 155.278 176.327C154.548 176.765 153.871 177.283 153.18 177.774C152.192 178.53 150.987 178.948 149.742 178.965C148.498 178.982 147.282 178.596 146.274 177.866C143.987 176.211 141.846 174.364 139.873 172.346C136.459 169.347 133.418 165.936 129.58 163.428C127.335 161.951 124.764 161.041 122.09 160.774C119.646 160.508 117.322 161.491 114.945 161.092C111.351 160.597 107.72 160.42 104.094 160.562C102.715 160.508 101.342 160.766 100.077 161.318C98.812 161.869 97.6883 162.7 96.7899 163.747C96.0097 164.763 94.9409 165.521 93.7232 165.921C92.5054 166.321 91.1952 166.345 89.9636 165.989C86.1599 165.115 82.236 164.886 78.3563 165.312C75.7537 165.465 73.234 166.283 71.0386 167.688C70.3843 168.294 69.6062 168.752 68.7579 169.029C67.9096 169.307 67.0113 169.397 66.1248 169.294C65.3615 169.262 64.6001 169.39 63.8889 169.668C63.1778 169.947 62.5325 170.371 61.9944 170.913C61.7345 171.085 61.5261 171.324 61.3914 171.605C61.2567 171.886 61.2006 172.199 61.2292 172.509C61.2578 172.819 61.37 173.116 61.5539 173.368C61.7377 173.619 61.9863 173.817 62.2733 173.938C62.9712 174.478 63.8283 174.77 64.7104 174.77C65.5924 174.77 66.4495 174.478 67.1473 173.938C70.261 171.665 73.8028 170.044 77.5595 169.174C79.4277 168.695 81.3424 168.419 83.2702 168.351C84.067 168.351 84.5982 168.697 84.5982 169.546C84.6021 169.701 84.5739 169.855 84.5155 169.998C84.4571 170.142 84.3698 170.272 84.2589 170.38C84.1479 170.489 84.0159 170.573 83.8709 170.628C83.7259 170.683 83.5712 170.708 83.4162 170.7C83.0305 170.718 82.6478 170.776 82.2741 170.873C80.2422 171.47 78.0243 171.271 75.9525 172.372C77.7454 173.421 78.3962 175.544 80.2289 176.234C82.0617 176.924 83.6686 178.318 85.7935 177.561C85.7935 176.672 85.2091 176.234 84.917 175.584C84.1467 173.885 84.3592 172.372 85.5146 171.921C87.188 171.271 87.6794 172.664 88.2504 173.7C90.0795 176.872 92.9871 179.283 96.4446 180.494C97.6532 180.985 98.7821 181.503 98.3173 182.856C97.8524 184.21 96.5641 184.011 95.3556 183.719C93.5862 183.193 91.9037 182.411 90.3621 181.396C89.8309 181.091 89.4457 180.773 88.702 181.038C86.0776 182.011 83.1813 181.949 80.6007 180.866C79.8437 180.56 79.0337 180.109 78.2501 181.317C77.8744 181.717 77.3939 182.003 76.8633 182.144C76.3328 182.285 75.7734 182.274 75.2486 182.113C72.6855 181.569 70.0426 180.945 68.4223 178.649C67.5856 177.468 66.9349 177.322 65.7662 178.158C64.059 179.37 62.4392 180.701 60.9187 182.14C56.1376 187.05 53.3753 193.194 50.5199 199.285C49.4699 201.591 48.72 204.022 48.2887 206.518C47.5609 211.606 47.2501 216.746 47.3591 221.885C47.2396 228.043 47.9567 234.161 48.2356 240.292C48.395 243.596 48.4614 246.927 48.8465 250.178C49.5091 255.102 50.4894 259.978 51.7815 264.776C53.2371 269.929 55.5492 274.801 58.6211 279.188C61.8294 283.954 65.8797 288.095 70.5738 291.41C74.3662 294.391 78.727 296.567 83.3897 297.807C87.706 298.775 92.1417 298.298 96.5509 297.807C100.776 297.115 104.856 295.725 108.623 293.693C112.58 291.971 116.346 289.841 119.859 287.336C122.515 285.292 124.44 282.559 127.083 280.555C127.958 279.933 128.71 279.155 129.301 278.259C131.267 275.14 133.285 272.048 135.025 268.797C138.369 262.679 140.994 256.195 142.848 249.475C143.141 248.746 143.595 248.093 144.176 247.564C144.335 247.341 144.56 247.172 144.819 247.082C145.079 246.992 145.359 246.984 145.623 247.06C145.93 247.137 146.198 247.322 146.381 247.579C146.563 247.837 146.648 248.152 146.619 248.466C146.645 249.362 146.538 250.256 146.301 251.12C145.567 253.384 145.003 255.7 144.614 258.048C144.401 258.18 144.375 258.234 144.534 258.22C144.694 258.207 144.534 258.088 144.534 258.021C148.864 257.597 152.117 255.009 154.667 251.943C157.755 247.913 160.213 243.439 161.958 238.673C164.333 233.197 165.331 227.224 164.867 221.275C164.759 219.656 164.197 218.101 163.246 216.787C162.295 215.473 160.993 214.453 159.488 213.843C159.015 213.597 158.481 213.487 157.949 213.527C157.416 213.567 156.905 213.755 156.474 214.069C153.847 215.82 151.658 218.149 150.072 220.877C149.448 221.872 148.904 223.345 147.416 223.119C145.929 222.894 145.464 223.597 144.76 224.446C145.915 225.614 147.243 226.742 146.619 228.574C146.208 229.821 145.132 230.923 146.234 232.343C146.46 232.634 146.088 233.059 145.902 233.404C144.999 235.129 141.612 235.819 140.125 234.28C138.797 232.953 137.934 231.334 136.632 229.967C135.331 228.6 136.459 226.955 137.27 225.747C137.854 224.884 138.372 224.5 137.402 223.584C137.221 223.414 137.076 223.208 136.977 222.98C136.878 222.752 136.827 222.506 136.827 222.257C136.827 222.008 136.878 221.762 136.977 221.534C137.076 221.305 137.221 221.1 137.402 220.93C138.292 220.027 137.867 219.603 137.124 219.125C136.559 218.742 136.116 218.207 135.846 217.582C135.575 216.957 135.489 216.268 135.596 215.595C135.885 213.405 136.956 211.393 138.611 209.928C136.539 207.142 134.773 204.249 134.521 200.639C134.538 199.863 134.3 199.103 133.843 198.476C132.158 196.366 130.814 194.007 129.859 191.482C129.763 191.153 129.571 190.859 129.309 190.637C129.047 190.416 128.726 190.276 128.385 190.235C125.814 189.815 123.394 188.741 121.359 187.116L121.625 186.891L121.492 186.771C121.397 186.843 121.308 186.923 121.227 187.01H121.293ZM104.798 65.703C104.997 64.7608 105.09 64.1636 105.25 63.5797C106.219 60.1558 107.335 56.7984 110.31 54.5026C112.142 53.0826 114.028 51.6361 116.565 52.1802C117.216 52.3129 118.145 52.4058 118.105 53.5073C118.131 53.904 118.01 54.2963 117.766 54.6095C117.521 54.9228 117.169 55.1351 116.777 55.2059C112.408 56.2808 110.575 59.7577 108.995 63.4204C108.689 64.1105 108.477 65.1855 109.818 65.358C110.894 65.5304 111.892 66.0228 112.684 66.7709C113.475 67.519 114.022 68.4879 114.254 69.5515C114.946 71.5705 115.278 73.6949 115.237 75.8285C115.237 76.6779 115.051 77.8191 113.749 77.7793C113.515 77.7793 113.282 77.7328 113.065 77.6426C112.849 77.5524 112.652 77.4203 112.486 77.2538C112.321 77.0872 112.19 76.8896 112.101 76.6724C112.013 76.4551 111.968 76.2224 111.97 75.9878C111.99 75.7582 111.99 75.5273 111.97 75.2977C111.425 73.3204 111.253 71.2236 110.031 69.4586C109.865 69.1989 109.623 68.9961 109.338 68.8776C109.053 68.759 108.739 68.7302 108.437 68.795C108.285 68.8137 108.138 68.8638 108.007 68.9423C107.875 69.0207 107.761 69.1258 107.673 69.2506C107.584 69.3755 107.522 69.5176 107.491 69.6676C107.461 69.8177 107.462 69.9724 107.494 70.1221C107.932 73.3601 106.79 76.5318 107.361 79.8495C108.057 84.1364 108.408 88.4721 108.411 92.8149C108.385 93.424 108.589 94.0205 108.982 94.4871C109.486 94.2216 109.964 93.996 110.416 93.7173C111.089 93.3419 111.741 92.9299 112.368 92.4832C112.753 92.1867 113.066 91.8085 113.287 91.3762C113.507 90.9438 113.628 90.468 113.642 89.983C113.656 89.498 113.563 89.016 113.367 88.5717C113.172 88.1274 112.881 87.7319 112.514 87.4138C110.243 85.2772 110.788 82.7292 113.696 81.495C114.217 81.24 114.804 81.154 115.375 81.2492C115.947 81.3444 116.474 81.616 116.884 82.0259C117.277 82.3514 117.545 82.8033 117.642 83.3043C117.739 83.8053 117.659 84.3244 117.415 84.7729C117.282 85.0516 117.282 85.3966 117.136 85.662C116.99 85.9275 116.791 86.5778 117.362 86.7768C117.933 86.9759 117.973 86.5247 118.079 86.1133C118.33 85.2288 118.696 84.381 119.168 83.5918C120.23 81.8003 120.284 79.3851 122.302 78.1509C122.833 77.8324 122.701 77.3015 122.621 76.9167C122.302 75.4436 122.462 73.9308 122.236 72.4445C121.744 69.3457 121.926 66.1776 122.767 63.155C123.084 62.4524 123.173 61.6678 123.019 60.9123C122.442 58.8774 121.678 56.9005 120.735 55.0069C119.593 53.0428 118.464 51.0257 116.087 50.0967C111.558 48.2521 107.893 49.3536 104.626 52.7509C104.046 53.3544 103.643 54.1059 103.463 54.923C103.282 55.74 103.331 56.591 103.603 57.3823C104.121 59.3198 103.895 59.9568 102.049 60.2222C101.137 60.3871 100.2 60.3325 99.3133 60.063C96.1475 59.1601 93.2903 57.4066 91.0527 54.9936C88.875 52.6802 87.0088 50.0927 85.5013 47.2966C82.2741 41.0462 78.861 34.862 77.4134 27.8817C76.9884 25.9044 77.4134 23.6616 75.315 22.0691C74.1552 20.9967 72.729 20.2544 71.1847 19.9193C69.1234 19.6106 67.0401 19.473 64.9561 19.5079C60.1064 19.462 55.2796 20.1785 50.6527 21.6312C45.1491 23.3238 39.7443 25.3219 34.4635 27.6163C31.1204 29.1564 27.9091 30.9673 24.8615 33.0307C22.5773 34.5568 21.621 37.0915 20.2398 39.2811C17.0524 44.3107 15.7111 49.8977 14.808 56.1614C17.096 53.2765 19.8687 50.8113 23.0022 48.8759C26.2239 46.7646 29.8367 45.3206 33.6268 44.6292C34.49 44.47 35.5525 44.4699 35.8579 45.3989C36.3095 46.7259 37.8899 48.0531 36.19 49.6057C36.0372 49.7878 35.925 50.0003 35.8609 50.2292C35.7967 50.458 35.7822 50.6979 35.8181 50.9328C35.8181 52.4058 34.6893 52.6447 33.7464 52.4324C31.921 52.185 30.0655 52.2795 28.2747 52.711C26.1696 52.9029 24.1267 53.5263 22.2736 54.5424C20.4204 55.5584 18.7967 56.9453 17.504 58.6165C16.5876 59.8241 15.6713 60.3947 14.2503 59.9435C13.7083 62.6153 13.4722 65.34 13.5463 68.0652C13.5463 69.3922 13.0948 70.7193 15.0737 70.9581C15.4986 70.9581 15.7775 71.7013 15.9634 72.2852C16.0657 72.7354 16.2753 73.1543 16.5744 73.5062C16.6903 73.6386 16.8332 73.7447 16.9935 73.8174C17.1539 73.8902 17.3279 73.9278 17.504 73.9278C17.6801 73.9278 17.8541 73.8902 18.0145 73.8174C18.1748 73.7447 18.3177 73.6386 18.4336 73.5062C19.1242 72.8957 18.4336 72.6701 18.0883 72.2719C17.7217 71.8892 17.439 71.4342 17.2584 70.936C17.0777 70.4379 17.0031 69.9076 17.0392 69.3789C17.0431 69.0665 17.1381 68.7619 17.3127 68.5026C17.4872 68.2433 17.7337 68.0406 18.0219 67.9192C18.7657 67.6405 19.0977 68.1182 19.5094 68.6358C19.7075 68.9491 19.9711 69.216 20.2819 69.4181C20.5928 69.6203 20.9437 69.753 21.3107 69.8072C21.6776 69.8614 22.0519 69.8358 22.4081 69.7321C22.7642 69.6284 23.0937 69.4491 23.3741 69.2064C27.3583 66.3665 31.6878 65.8755 36.3228 66.5523C37.4 66.6639 38.4093 67.1308 39.1914 67.8793C39.4423 68.0631 39.6305 68.3197 39.7303 68.6142C39.8301 68.9086 39.8367 69.2267 39.7492 69.525C39.5234 70.1089 38.9125 70.1619 38.4211 70.2548C37.6799 70.2171 36.938 70.3114 36.2299 70.5335C37.7704 74.1829 36.3759 77.5404 34.9018 80.8714C34.4502 81.9197 33.7596 82.915 32.2456 82.7425C31.6619 82.6784 31.1143 82.4283 30.6838 82.0292C30.2533 81.6301 29.9628 81.1032 29.8551 80.5263C29.3381 79.0112 29.0996 77.4152 29.1512 75.8152C29.291 73.9682 29.787 72.1657 30.612 70.507C26.5248 71.264 22.8369 73.4403 20.2 76.6513C19.1907 77.7793 18.5133 78.058 17.1322 77.4608C15.8375 76.9643 14.614 76.2995 13.4932 75.4835C13.4307 75.8032 13.3908 76.1269 13.3737 76.4522C13.6117 84.2894 14.9163 92.0577 17.2516 99.5432C19.4328 106.375 22.3916 112.934 26.0701 119.091C28.8999 123.581 32.1602 127.786 35.8049 131.645C38.3779 134.695 41.4167 137.319 44.8091 139.421C50.2749 142.735 56.3978 144.818 62.7514 145.526C66.7982 145.958 70.8906 145.57 74.7838 144.385C78.8184 142.883 82.6399 140.862 86.1521 138.373C87.4872 137.615 88.7116 136.677 89.791 135.586C93.5046 131.721 96.6807 127.373 99.2336 122.661C101.591 118.019 103.06 112.978 103.563 107.797C104.156 101.251 104.351 94.6742 104.148 88.1039C104.081 81.4267 103.446 74.7673 102.248 68.1979C102.052 67.3763 101.954 66.5344 101.956 65.6897C101.956 64.867 102.474 64.3627 103.284 64.7741C103.795 65.0375 104.28 65.3486 104.732 65.703H104.798ZM98.729 301.828C99.7781 307.72 100.708 313.453 99.5657 319.292C99.3797 320.287 99.8976 320.791 100.774 321.136C104.758 322.716 108.357 324.865 112.302 326.445C116.02 327.891 119.739 329.311 123.511 330.638C124.083 330.849 124.7 330.903 125.3 330.796C125.9 330.689 126.461 330.424 126.924 330.028C130.975 326.975 135.264 324.308 138.797 320.526C142.685 316.301 146.3 311.833 149.621 307.149C151.44 304.614 152.104 301.589 153.605 298.921C154.092 298.096 154.328 297.147 154.283 296.19C154.238 295.233 153.915 294.31 153.353 293.533C150.565 288.935 148.302 284.038 146.606 278.936C145.278 275.167 144.415 271.279 142.808 267.629C142.476 266.859 142.808 265.838 141.971 265.187C140.156 269.237 137.978 273.115 135.463 276.773C133.105 279.886 130.4 282.722 127.402 285.226C123.577 288.743 119.832 292.366 115.091 294.675C112.886 295.763 110.549 296.612 108.45 297.86C105.439 299.685 102.158 301.024 98.729 301.828ZM195.904 74.8067C192.189 74.7488 188.479 75.1319 184.854 75.9479C181.84 76.5982 177.935 78.8409 177.67 83.5785C177.22 89.6182 177.442 95.6892 178.334 101.68C179.064 106.059 181.787 108.726 185.598 110.425C188.7 111.857 192.163 112.32 195.532 111.752C198.937 111.199 202.376 110.889 205.825 110.823C206.857 110.846 207.872 110.556 208.737 109.993C209.602 109.429 210.277 108.618 210.672 107.665C212.383 103.821 213.717 99.8216 214.656 95.7212C215.892 91.1296 214.776 86.7635 213.448 82.4506C212.973 81.1421 212.198 79.9627 211.186 79.0065C210.174 78.0503 208.952 77.3437 207.618 76.9432C203.913 75.3968 199.917 74.668 195.904 74.8067ZM108.822 101.348H108.384C108.57 103.14 107.946 104.825 107.906 106.656C107.942 111.7 106.849 116.688 104.705 121.254C102.835 125.528 100.42 129.542 97.5204 133.198C94.6333 136.837 91.2282 140.033 87.4137 142.686C86.5505 143.23 86.5372 143.721 86.9888 144.464C88.1707 146.442 90.0566 147.901 90.973 150.051C90.973 150.21 91.3449 150.436 91.4909 150.41C93.8416 149.773 96.1525 150.927 98.5696 150.41C102.169 149.574 105.659 148.323 108.968 146.68C111.478 145.539 114.161 144.69 116.299 142.845C117.335 141.956 118.956 141.293 118.411 139.488C117.083 135.507 116.339 131.326 115.303 127.252C114.174 122.793 112.833 118.401 111.877 113.902C111.014 109.801 109.858 105.568 108.822 101.361V101.348ZM11.2355 54.1177C12.1146 50.3415 13.2913 46.6407 14.7549 43.05C15.7509 40.7807 17.3446 38.8034 17.9556 36.4147C18.3173 35.0786 19.0713 33.8814 20.1203 32.9776C25.0873 28.2798 31.0769 25.254 37.2392 22.5203C39.4172 21.5515 41.6882 20.8084 43.8796 19.8662C51.6218 16.8321 59.8669 15.2833 68.1833 15.3011C70.9191 15.3011 73.9604 15.4736 75.9924 17.3581C77.772 19.0036 78.5422 19.2027 80.707 17.8225C85.913 14.4916 92.0222 14.1864 97.9719 13.9342C101.041 13.8612 104.111 13.9942 107.162 14.3323C107.6 14.3323 108.172 14.4916 108.331 13.9077C108.49 13.3238 108.065 13.0849 107.667 12.8195C106.004 11.5876 104.145 10.6454 102.169 10.0327C94.2053 7.96397 85.9179 7.44581 77.7586 8.5065C70.1621 9.32928 62.5921 10.6564 55.0752 12.0498C48.553 13.1367 42.1884 15.0174 36.1236 17.65C30.5143 20.135 25.0946 23.0269 19.9078 26.3025C17.1843 27.8949 15.167 30.4608 14.2635 33.4819C13.3471 36.7199 12.9354 40.1172 12.019 43.3155C11.1027 46.5137 11.4613 50.5214 11.2355 54.131V54.1177ZM72.3269 297.74C72.2735 298.105 72.2425 298.473 72.2339 298.842C72.8315 303.394 73.7744 307.945 73.9471 312.51C74.2127 319.716 76.6032 326.246 79.2594 332.761C79.4453 333.226 79.5516 333.797 80.375 333.571C83.3822 332.9 86.2644 331.758 88.9145 330.187C89.5785 329.749 90.8004 329.404 90.6675 328.024C90.6338 326.338 90.8485 324.657 91.305 323.034C91.9292 319.995 92.7394 317.009 95.6744 315.231C95.9489 315.083 96.1719 314.856 96.3142 314.578C96.4565 314.301 96.5112 313.987 96.4712 313.678C95.9533 310.321 96.1923 306.91 95.6478 303.553C95.4884 302.584 95.1432 302.146 94.1604 302.226L92.3542 302.478C89.3206 302.885 86.2418 302.813 83.2304 302.266C79.2797 301.637 75.5315 300.092 72.287 297.754L72.3269 297.74ZM163.871 173.673L163.738 174.111C164.221 174.705 164.665 175.33 165.066 175.982C165.574 177.217 166.416 178.287 167.497 179.072C168.578 179.857 169.856 180.326 171.189 180.428C175.969 181.179 180.576 182.784 184.788 185.165C189.383 187.461 189.489 187.368 190.817 182.365C191.641 179.3 192.929 176.34 191.827 172.943C191.017 170.448 190.818 170.077 188.547 171.205C188.473 171.223 188.402 171.25 188.334 171.284C185.904 172.956 183.022 172.611 180.91 170.09C179.436 168.405 177.869 166.799 176.355 165.153C176.613 166.364 176.963 167.553 177.404 168.71C177.709 169.771 178.121 171.364 177.245 171.908C175.385 173.142 173.553 175.093 170.843 173.806C170.321 173.686 169.782 173.655 169.25 173.713C167.523 173.607 165.677 174.39 163.831 173.686L163.871 173.673ZM121.519 134.684C121.519 133.065 121.519 131.87 121.519 130.703C121.93 123.736 123.033 116.848 123.909 109.947C124.454 105.687 124.347 101.388 124.932 97.1412C124.996 96.604 124.96 96.0595 124.826 95.5354C124.679 94.925 124.454 94.3676 123.497 94.6861C122.902 94.867 122.264 94.8496 121.68 94.6366C121.095 94.4235 120.596 94.0264 120.257 93.505C119.752 92.9609 119.367 92.1779 118.424 91.9523C118.246 92.9147 118.175 93.8939 118.212 94.8719C118.373 96.7878 117.783 98.6915 116.565 100.18C116.239 100.797 115.739 101.305 115.128 101.642C114.517 101.979 113.821 102.13 113.125 102.078C111.797 101.945 111.957 102.635 112.222 103.485C112.846 105.449 113.55 107.466 114.068 109.403C115.901 115.694 117.92 121.931 119.527 128.301C119.897 130.508 120.553 132.659 121.479 134.697L121.519 134.684ZM41.6616 194.402C42.1525 192.665 42.8621 190.997 43.7733 189.439C44.2116 188.682 44.1452 188.311 43.3749 187.806C40.7911 185.882 38.5468 183.541 36.7345 180.879C31.8545 174.513 27.7651 167.58 24.556 160.23C23.799 158.505 22.9358 156.819 22.2851 155.041C21.289 152.294 20.532 149.441 19.4031 146.773C16.65 140.214 14.5504 133.4 13.1346 126.43C13.0284 125.965 12.9222 125.408 12.2449 125.301C12.6034 127.956 12.962 130.477 13.5729 133.012C14.6866 139.117 16.1544 145.152 17.9688 151.086C20.7844 159.248 23.2811 167.542 27.2654 175.319C30.2147 181.201 33.8477 186.715 38.0891 191.748C38.9757 192.973 40.2046 193.911 41.6218 194.442L41.6616 194.402ZM180.18 43.0367C170.604 41.9353 146.978 49.6721 143.538 55.0599C145.971 54.0135 148.497 53.196 151.082 52.6181C155.212 51.729 159.196 50.3356 163.3 49.4066C166.766 48.6104 169.94 46.9781 173.38 46.1023C175.774 45.3911 178.062 44.3599 180.18 43.0367ZM127.389 113.623C126.937 118.932 126.127 124.24 125.915 129.548C125.662 135.958 126.313 142.115 129.5 147.809C129.699 148.093 129.835 148.416 129.9 148.757C129.964 149.098 129.954 149.449 129.872 149.786C129.301 151.803 129.461 151.962 131.599 152.015C129.381 139.368 129.939 126.337 127.389 113.623ZM62.2202 177.23C61.4058 176.878 60.5017 176.79 59.6348 176.978C58.7679 177.167 57.9815 177.621 57.386 178.278C54.5218 180.696 52.0136 183.506 49.9356 186.625C48.4747 189.107 46.7084 191.456 45.9514 194.242C45.4998 195.875 44.942 197.799 46.6552 199.192C50.9847 191.336 54.3182 182.87 62.2202 177.23ZM173.221 325.038C174.509 324.601 175.902 324.578 177.205 324.972C179.861 325.449 182.517 326.007 185.173 326.511C188.082 327.082 188.44 326.75 188.161 323.857C188.161 323.552 188.068 323.246 188.055 322.941C188.067 322.848 188.058 322.753 188.029 322.663C188 322.573 187.951 322.491 187.886 322.423C187.822 322.354 187.742 322.301 187.654 322.266C187.566 322.232 187.472 322.218 187.378 322.225C183.234 321.893 179.091 321.083 174.92 322.012C172.742 322.477 172.742 322.463 173.221 325.038ZM189.649 341.507C189.649 340.711 189.649 340.1 189.543 339.503C189.29 336.756 189.264 337.287 186.886 337.101C185.187 336.955 183.54 336.544 181.866 336.345C179.077 336 176.408 335.018 173.433 334.765C173.668 335.479 173.758 336.233 173.699 336.982C173.473 338.388 173.978 338.853 175.465 338.8C180.324 338.773 185.142 339.692 189.649 341.507ZM175.85 342.184C175.465 342.184 175.08 342.117 174.708 342.051C174.336 341.985 174.097 342.051 173.978 342.396C173.939 342.484 173.92 342.58 173.92 342.676C173.92 342.773 173.94 342.868 173.979 342.956C174.017 343.045 174.074 343.124 174.144 343.19C174.215 343.256 174.298 343.306 174.389 343.338C174.756 343.457 175.135 343.537 175.518 343.577C177.701 343.948 179.812 344.66 181.773 345.687C184.084 346.868 186.554 347.731 188.958 348.726C189.436 348.925 189.968 349.283 190.366 348.633C190.66 347.83 190.656 346.949 190.357 346.148C190.057 345.348 189.481 344.681 188.732 344.267C184.529 343.097 180.208 342.398 175.85 342.184ZM89.9636 338.202L88.5028 338.468C85.0527 339.138 81.7339 340.361 78.675 342.091C78.0375 342.422 77.586 342.754 77.8782 343.418C78.1704 344.081 78.7813 343.962 79.2859 343.736C79.9275 343.516 80.5909 343.364 81.2648 343.285C84.2264 342.568 87.2943 342.714 90.4285 342.077C89.977 340.817 90.6409 339.516 89.9636 338.176V338.202ZM220.221 193.95C219.643 192.479 219.229 190.948 218.986 189.385C218.893 188.563 218.415 187.926 217.432 188.191C216.234 188.484 214.999 188.601 213.767 188.536C212.744 188.536 212.585 188.948 212.864 189.863C214.484 194.919 214.112 194.826 219.052 194.15L220.221 193.95ZM73.9073 173.076C72.7784 173.726 72.0347 174.111 71.3441 174.562C70.016 175.425 70.016 175.77 71.1051 177.004C72.1976 177.969 73.5344 178.616 74.9697 178.875C75.315 178.981 75.7267 179.286 76.0189 178.875C76.311 178.464 75.9525 178.079 75.6868 177.707C74.7838 176.407 73.5354 175.265 73.9073 173.076ZM78.2235 338.136C79.193 338.547 79.9102 337.977 80.6406 337.698C83.2717 336.658 86.0048 335.898 88.7949 335.429C90.8003 335.137 90.8137 335.11 90.6012 332.775C86.7497 335.177 82.2741 336.185 78.2235 338.136ZM201.734 187.926C201.296 184.608 200.937 184.064 198.109 182.471C198.069 184.953 198.813 186.001 201.761 187.926H201.734ZM121.784 86.1133C124.44 85.6754 124.573 85.5161 124.44 83.7644C124.44 83.2866 124.533 82.7425 123.776 82.5435C123.019 82.3444 122.873 82.9947 122.714 83.3662C122.369 84.2554 122.103 85.1976 121.811 86.1133H121.784ZM146.526 173.315C150.511 175.823 150.51 175.544 151.082 173.646C149.621 173.17 148.067 173.057 146.553 173.315H146.526ZM193.832 184.25C194.151 185.882 191.508 187.567 194.138 189.306C194.549 187.63 194.452 185.87 193.859 184.25H193.832ZM112.581 96.6634C112.196 96.6634 112.023 96.8624 111.943 97.1677C111.943 97.1677 112.169 97.3137 112.315 97.3535C112.387 97.3753 112.462 97.3818 112.536 97.3724C112.611 97.3631 112.682 97.3382 112.746 97.2994C112.81 97.2605 112.865 97.2086 112.907 97.147C112.95 97.0855 112.979 97.0156 112.992 96.9421C113.072 96.6501 112.78 96.6767 112.607 96.6634H112.581ZM10.9566 56.8514C10.9566 56.8514 10.8371 56.8515 10.8238 56.9709C10.8337 57.0407 10.8562 57.1082 10.8902 57.17C10.8902 57.17 11.0098 57.0771 11.0098 57.024C11.0098 56.9709 10.9965 56.8913 10.9832 56.8382L10.9566 56.8514ZM10.4386 60.5938C10.4386 60.5938 10.5582 60.5938 10.5715 60.4877C10.585 60.4562 10.592 60.4223 10.592 60.3881C10.592 60.3539 10.585 60.32 10.5715 60.2886C10.4519 60.1559 10.3722 60.2089 10.3589 60.4213C10.3457 60.6336 10.4386 60.5274 10.4652 60.5805L10.4386 60.5938ZM137.323 164.954L137.243 165.074H137.363L137.323 164.954ZM10.0535 62.3986L9.96053 62.5313H10.0934L10.0535 62.3986Z" fill="black"></path>
    <path d="M24.1843 350C24.6091 349.184 24.7758 348.259 24.6624 347.346C24.503 343.206 24.5694 339.065 24.8085 334.951C25.2202 328.09 25.0741 321.216 25.3264 314.355C25.5655 307.72 25.6984 301.085 26.203 294.449C26.7741 286.885 27.5311 279.347 28.4873 271.823C29.2044 265.97 30.2934 260.171 31.1434 254.332C31.7809 249.86 32.352 245.388 32.8035 240.889C33.2138 235.506 33.9725 230.156 35.0745 224.871C35.3055 223.459 35.8199 222.108 36.5867 220.899C37.3535 219.69 38.357 218.649 39.5368 217.838C39.8578 217.594 40.2495 217.463 40.6524 217.463C41.0552 217.463 41.447 217.594 41.768 217.838C43.6273 218.886 43.8133 220.346 43.707 222.217C43.5386 228.066 43.7159 233.92 44.2382 239.748C44.3489 245.219 44.7924 250.679 45.5663 256.097C46.3498 260.476 47.6248 264.75 48.8201 269.036C50.3733 274.145 52.9185 278.898 56.3104 283.023C58.7292 286.41 61.5077 289.524 64.5976 292.313C65.2059 292.877 65.8588 293.392 66.5498 293.852C67.3451 294.298 67.9835 294.978 68.378 295.8C68.7725 296.622 68.9039 297.545 68.7544 298.444C68.5685 302.982 69.1927 307.508 69.3919 312.033C69.3695 315.639 69.6942 319.238 70.3614 322.782C71.2649 327.164 73.1341 331.289 75.8331 334.858C72.1543 336.185 68.4755 336.676 64.903 337.712C59.4634 339.36 54.1759 341.474 49.099 344.028C45.7921 345.634 42.4586 347.24 39.0588 348.66C38.2354 349.005 37.226 349.138 36.7744 350.093L24.1843 350Z" fill="#1226AA"></path>
    <path d="M150.125 126.23C151.042 125.328 151.812 126.058 152.596 126.456C156.66 128.573 161.05 129.995 165.584 130.663C172.117 131.509 178.737 129.989 184.244 126.376C185.386 125.673 184.071 125.049 184.536 124.412C185.452 122.647 186.395 122.568 187.949 123.815C189.321 124.955 190.232 126.553 190.512 128.314C190.698 129.19 190.844 130.318 189.715 130.703C188.586 131.087 187.989 130.384 187.564 129.376C187.416 129.109 187.233 128.863 187.019 128.646C184.115 130.483 181.063 132.077 177.895 133.41C173.963 134.807 169.738 135.173 165.624 134.471C160.957 133.84 156.476 132.23 152.476 129.747C151.467 129.137 150.311 128.553 149.979 127.186C149.934 127.003 149.929 126.812 149.963 126.627C149.997 126.442 150.071 126.266 150.178 126.111L150.125 126.23Z" fill="black"></path>
    <path d="M233.13 98.6143C233.542 97.3802 232.864 96.3185 232.732 95.1772C232.736 94.8591 232.625 94.5501 232.421 94.3065C232.216 94.063 231.93 93.901 231.616 93.8501C231.34 93.8123 231.06 93.8674 230.82 94.0069C230.579 94.1463 230.392 94.3621 230.288 94.6198C229.624 96.0531 228.243 96.9157 227.632 98.3489C227.581 98.5347 227.488 98.7059 227.358 98.8486C227.229 98.9913 227.068 99.1014 226.888 99.17C226.708 99.2385 226.514 99.2637 226.323 99.2432C226.131 99.2227 225.947 99.1573 225.786 99.0523C224.83 98.6011 224.896 97.8845 225.069 97.1413C225.216 96.5511 225.444 95.984 225.746 95.4559C227.257 92.5347 229.19 89.8517 231.483 87.4935C233.196 85.7152 235.613 84.8394 237.712 83.645C238.442 83.1938 238.96 83.5123 238.974 84.5209C238.974 86.1267 239.066 87.6262 237.061 88.1438C236.362 88.4553 235.72 88.8814 235.162 89.4045C234.511 89.8557 233.834 90.4927 234.883 91.6207C237.127 94.1952 236.995 97.3935 236.503 100.552C236.473 101.018 236.261 101.453 235.914 101.765C235.566 102.078 235.111 102.242 234.644 102.224C234.227 102.152 233.855 101.921 233.607 101.578C233.359 101.236 233.254 100.811 233.316 100.393C233.25 99.8086 233.157 99.185 233.13 98.6143Z" fill="black"></path>
    <path d="M231.51 111.195C231.521 111.597 231.449 111.998 231.299 112.372C231.149 112.746 230.924 113.085 230.638 113.369C230.352 113.652 230.01 113.874 229.635 114.021C229.259 114.167 228.858 114.235 228.455 114.221C227.127 114.221 225.547 112.893 225.586 111.858C225.792 111.007 226.256 110.241 226.915 109.664C227.573 109.086 228.394 108.727 229.265 108.634C230.7 108.594 231.523 109.536 231.51 111.195Z" fill="black"></path>
    <path d="M236.065 104.944C236.333 105.128 236.557 105.369 236.719 105.65C236.881 105.931 236.978 106.245 237.002 106.569C237.027 106.893 236.978 107.218 236.859 107.52C236.74 107.822 236.555 108.094 236.317 108.315C234.989 109.642 234.245 109.536 232.931 108.315C231.616 107.094 232.718 106.351 233.037 105.661C233.145 105.373 233.32 105.114 233.547 104.907C233.775 104.7 234.049 104.55 234.346 104.47C234.643 104.389 234.956 104.381 235.257 104.445C235.558 104.509 235.839 104.644 236.078 104.838L235.985 104.931L236.065 104.944Z" fill="black"></path>
    <path d="M214.723 110.014L214.802 110.146L214.67 110.067L214.723 110.014Z" fill="black"></path>
    <path d="M72.2871 297.753C75.5319 300.124 79.2901 301.697 83.257 302.345C86.2683 302.893 89.3472 302.965 92.3808 302.557L94.1871 302.305C95.1698 302.159 95.5151 302.597 95.6745 303.632C96.219 306.99 95.9799 310.4 96.4979 313.758C96.5379 314.067 96.4832 314.381 96.3409 314.658C96.1986 314.935 95.9755 315.163 95.701 315.31C92.766 317.089 91.9559 320.075 91.3317 323.114C90.8752 324.737 90.6604 326.418 90.6942 328.103C90.827 329.43 89.6052 329.829 88.9411 330.266C86.291 331.837 83.4089 332.979 80.4017 333.65C79.5782 333.876 79.472 333.305 79.286 332.841C76.6299 326.325 74.173 319.796 73.9737 312.59C73.8011 308.025 72.8582 303.473 72.2606 298.921C72.2443 298.532 72.2532 298.142 72.2871 297.753Z" fill="#1226AA"></path>
    <path d="M177.032 186.598L187.179 191.15C182.212 198.914 176.382 205.655 167.882 210.379C170.897 201.767 168.997 193.3 168.971 184.648C171.754 184.915 174.483 185.586 177.072 186.638C176.873 186.638 176.833 186.718 176.979 186.784L177.032 186.598Z" fill="#1226AA"></path>
    <path d="M135.238 162.499C134.97 162.551 134.693 162.535 134.432 162.451C134.172 162.368 133.938 162.22 133.75 162.021C131.525 160.106 128.894 158.72 126.055 157.968C123.217 157.217 120.244 157.119 117.362 157.682C114.706 158.08 112.049 157.43 109.393 157.257C106.817 156.958 104.214 156.958 101.637 157.257C99.1597 157.677 96.8752 158.86 95.1032 160.641C94.665 161.066 94.1869 161.451 93.5494 161.968C92.8751 159.527 92.4961 157.015 92.4206 154.484C92.3409 153.714 93.2706 154.046 93.7487 154.152C97.3839 154.822 101.134 154.477 104.586 153.156C108.875 151.829 112.846 149.587 116.963 147.848C117.841 147.353 118.606 146.679 119.208 145.871C120.244 144.716 120.709 144.756 121.213 146.203C122.106 148.744 123.617 151.024 125.609 152.838C127.382 154.405 129.518 155.504 131.824 156.036C132.369 156.182 132.794 156.156 133.006 156.846C133.591 158.836 134.839 160.548 135.304 162.592L135.238 162.499Z" fill="#1226AA"></path>
    <path d="M63.2297 268.333C62.3133 267.842 62.2602 267.005 62.4461 266.156C63.0217 263.685 64.1173 261.364 65.6601 259.348C65.8512 259.004 66.1679 258.748 66.544 258.631C66.9201 258.515 67.3267 258.548 67.6788 258.725C67.9975 258.874 68.2437 259.144 68.3632 259.475C68.4828 259.806 68.4658 260.171 68.3162 260.49C67.3866 262.454 68.5951 263.144 70.0162 264.033C72.5794 265.532 75.023 267.271 77.6127 268.731C82.3672 271.385 87.2015 270.735 91.863 268.532C96.4934 266.283 100.622 263.123 104.002 259.242C104.573 258.618 105.091 258.127 104.666 257.092C104.585 256.854 104.553 256.601 104.57 256.35C104.588 256.099 104.656 255.854 104.77 255.629C104.884 255.404 105.041 255.204 105.233 255.041C105.425 254.877 105.647 254.754 105.887 254.677C106.334 254.53 106.82 254.556 107.248 254.75C107.676 254.945 108.015 255.293 108.198 255.725C108.902 257.053 109.619 258.287 110.429 259.494C111.027 260.41 111.505 261.379 110.615 262.148C109.726 262.918 108.623 262.626 107.76 261.777C107.564 261.61 107.356 261.459 107.136 261.326C105.316 263.157 103.537 265.015 101.664 266.767C99.7914 268.444 97.6898 269.847 95.4222 270.934C92.3237 272.63 88.9209 273.698 85.4085 274.079C81.421 274.351 77.4606 273.25 74.1863 270.96C72.0659 269.574 70.0303 268.063 68.0905 266.435C66.7624 265.4 66.1249 265.44 65.4343 266.992C65.0359 267.921 64.425 268.784 63.1368 268.2C63.3227 268.2 63.5485 268.293 63.3758 267.961L63.2297 268.333Z" fill="black"></path>
    <path d="M107.654 202.855C112.349 202.382 117.067 203.509 121.041 206.053C121.705 206.43 122.328 206.874 122.9 207.381C124.68 209.106 124.414 209.371 122.82 211.282C121.758 212.609 120.895 213.153 119.381 212.782C117.521 212.317 115.689 211.773 113.829 211.322C108.384 209.889 102.66 209.889 97.215 211.322C96.551 211.521 95.8869 211.76 95.3292 211.11C94.7714 210.459 95.2096 209.875 95.3292 209.199C96.2057 204.355 99.911 203.36 103.922 202.815C105.157 202.597 106.423 202.611 107.654 202.855Z" fill="black"></path>
    <path d="M79.4984 219.125C81.2117 219.125 81.65 219.51 81.7961 221.394C81.9654 223.755 81.8 226.127 81.3047 228.441C80.3011 233.198 78.9698 237.881 77.3205 242.455C76.0914 245.445 75.7458 248.724 76.3244 251.904C76.4117 252.605 76.7137 253.261 77.1892 253.784C77.6648 254.307 78.2905 254.67 78.9806 254.823C79.4733 255.025 79.9238 255.318 80.3086 255.686C80.9328 256.177 81.6367 256.747 81.1851 257.623C80.9912 258.047 80.6723 258.401 80.2711 258.638C79.8699 258.875 79.4056 258.984 78.9407 258.95C77.2428 258.82 75.6334 258.141 74.3562 257.016C73.079 255.891 72.2034 254.38 71.862 252.713C70.9324 248.4 72.1276 244.419 73.6151 240.517C75.9525 234.413 78.1173 228.282 78.6485 221.7C78.6082 220.744 78.9043 219.805 79.4852 219.045L79.4984 219.125Z" fill="black"></path>
    <path d="M68.2496 213.976C63.6515 213.642 59.0294 214.013 54.5439 215.077C53.5345 215.369 52.3924 215.94 51.8877 214.759C51.6471 214.194 51.5987 213.567 51.7498 212.972C51.901 212.377 52.2434 211.849 52.7244 211.468C55.5085 209.138 58.9567 207.745 62.5787 207.487C66.2728 207.245 69.9673 207.953 73.3095 209.543C74.3986 210.034 75.3547 210.539 75.1954 212.012C75.036 213.485 74.0134 213.339 72.9244 213.671C71.3865 213.978 69.8145 214.081 68.2496 213.976Z" fill="black"></path>
    <path d="M120.908 226.583C120.933 226.849 120.895 227.117 120.794 227.365C120.694 227.612 120.536 227.832 120.332 228.005C120.129 228.179 119.887 228.3 119.626 228.36C119.366 228.42 119.095 228.415 118.836 228.348C117.584 227.99 116.451 227.303 115.556 226.357C111.571 223.345 107.308 223.186 102.753 225.03C100.827 225.8 99.0874 226.928 97.1484 227.684C96.2454 228.016 95.422 228.375 94.7446 227.313C94.0673 226.251 94.7447 225.402 95.5946 224.831C98.6994 222.583 102.148 220.853 105.808 219.709C111.492 218.196 117.295 221.169 120.416 225.203C120.698 225.612 120.867 226.088 120.908 226.583Z" fill="black"></path>
    <path d="M159.634 221.898C159.882 221.861 160.135 221.876 160.376 221.941C160.618 222.007 160.843 222.122 161.038 222.279C161.233 222.436 161.393 222.632 161.508 222.855C161.623 223.077 161.69 223.321 161.706 223.57C161.865 224.712 161.042 224.99 160.166 225.203C158.619 225.629 157.198 226.421 156.022 227.512C155.358 228.082 155.119 228.454 155.823 229.33C157.642 231.639 157.589 234.466 157.43 237.213C157.43 238.181 156.898 239.336 155.637 239.243C154.614 239.243 154.402 238.235 154.176 237.266C153.87 235.939 153.897 234.691 153.618 233.417C153.459 232.714 153.286 231.918 152.529 231.785C152.182 231.763 151.837 231.847 151.539 232.024C151.24 232.202 151.002 232.465 150.856 232.78C150.577 233.231 150.285 233.683 150.032 234.107C149.941 234.301 149.811 234.474 149.65 234.616C149.489 234.758 149.301 234.866 149.097 234.933C148.894 235 148.678 235.025 148.465 235.006C148.251 234.988 148.043 234.926 147.854 234.824C147.523 234.628 147.269 234.326 147.134 233.966C146.999 233.607 146.99 233.212 147.111 232.847C147.197 232.309 147.411 231.799 147.735 231.36C150.298 228.029 152.901 224.725 156.752 222.721C157.612 222.172 158.614 221.886 159.634 221.898Z" fill="black"></path>
    <path d="M65.3677 223.69C67.652 223.809 70.5737 225.282 73.3361 227.021C73.7315 227.194 74.0449 227.512 74.2107 227.91C74.3765 228.309 74.3819 228.755 74.2259 229.157C74.1311 229.394 73.9904 229.609 73.8119 229.79C73.6333 229.971 73.4206 230.116 73.1859 230.214C72.9512 230.313 72.6993 230.364 72.4447 230.365C72.1901 230.366 71.9378 230.316 71.7025 230.219C70.3745 229.755 68.9667 229.25 67.7183 228.666C65.9438 227.821 63.939 227.586 62.0169 227.999C60.0947 228.412 58.3635 229.449 57.0937 230.949C56.443 231.772 55.6594 232.648 54.5969 231.918C53.5345 231.188 54.0923 229.874 54.5969 229.065C56.9078 225.681 60.0155 223.663 65.3677 223.69Z" fill="black"></path>
    <path d="M95.8072 249.501C95.3291 252.647 94.6119 255.566 91.398 257.132C90.2426 257.689 89.1801 257.676 88.5294 256.734C87.8786 255.792 88.5294 254.969 89.4458 254.425C90.2715 253.927 90.9746 253.249 91.5033 252.443C92.032 251.637 92.3727 250.722 92.5003 249.767C92.5933 249.183 93.0183 248.851 93.337 248.44C93.6557 248.028 94.2666 247.378 95.0635 247.816C95.3498 247.982 95.5759 248.235 95.7095 248.538C95.8431 248.841 95.8773 249.178 95.8072 249.501Z" fill="black"></path>
    <path d="M102.899 229.861C101.956 229.861 101.106 229.861 100.907 229.078C100.826 228.668 100.881 228.243 101.063 227.868C101.245 227.492 101.545 227.185 101.916 226.994C102.476 226.59 103.13 226.334 103.815 226.251C105.748 225.969 107.718 226.081 109.606 226.583C109.989 226.666 110.328 226.889 110.556 227.208C110.785 227.526 110.886 227.919 110.841 228.308C110.682 229.343 109.885 229.37 109.088 229.37C107.012 229.265 104.932 229.43 102.899 229.861Z" fill="black"></path>
    <path d="M64.1326 230.14C65.1685 230.14 66.0184 230.14 66.2176 230.936C66.3139 231.353 66.2427 231.791 66.0191 232.156C65.7956 232.52 65.4377 232.783 65.0224 232.887C62.9722 233.713 60.8396 234.318 58.6609 234.691C58.1164 234.691 57.5188 234.851 57.3328 234.254C57.1662 233.991 57.0915 233.68 57.1203 233.37C57.1491 233.061 57.2799 232.769 57.4922 232.542C57.7945 232.195 58.1652 231.915 58.5812 231.719C60.4803 231.122 62.4725 230.564 64.1326 230.14Z" fill="black"></path>
    <path d="M85.9794 278.949H86.67C87.5067 278.949 88.5426 278.684 88.7551 279.798C88.9676 280.913 87.8387 281.47 86.9223 281.789C85.7357 281.972 84.5242 281.908 83.3631 281.603C83.2303 281.588 83.1022 281.545 82.9871 281.477C82.872 281.409 82.7724 281.317 82.6949 281.209C82.6173 281.1 82.5633 280.976 82.5366 280.845C82.5099 280.714 82.511 280.579 82.5397 280.449C82.6725 279.825 82.7655 279.122 83.4694 279.055C84.1733 278.989 85.1427 278.923 85.9794 278.856V278.949Z" fill="black"></path>
    <path d="M79.3389 100.512C79.1264 108.05 77.6656 115.202 73.4291 121.386C71.1315 124.731 68.6347 128.088 64.6106 129.84C62.6291 130.691 60.413 130.827 58.3421 130.225C53.4754 129.133 48.7737 127.406 44.3575 125.089C42.6897 124.178 41.1603 123.034 39.8155 121.692C37.2523 119.038 37.5578 116.675 40.785 115.056C44.0122 113.437 47.1598 112.071 50.3604 110.571C58.2969 106.676 65.9716 102.27 73.3361 97.3799C74.4517 96.6766 75.8594 95.3495 76.789 96.3183C77.7187 97.287 80.2287 98.269 79.3389 100.512ZM75.3547 101.189C75.1953 100.923 75.036 100.724 74.8899 101.189C74.5031 101.184 74.1269 101.315 73.8275 101.56C69.5909 104.307 65.3942 107.107 60.9717 109.523C60.1751 109.981 59.5079 110.634 59.0327 111.42C56.5541 114.943 54.8107 118.928 53.9064 123.138C53.8001 123.775 53.8134 124.094 54.4641 124.386C57.0017 125.68 59.8822 126.144 62.6982 125.713C63.1785 125.65 63.6353 125.468 64.0263 125.182C67.7105 122.111 70.5339 118.138 72.2205 113.65C73.7876 109.801 74.279 105.687 75.3946 101.706C75.5805 101.56 75.7531 101.414 75.3016 101.242L75.3547 101.189Z" fill="black"></path>
    <path d="M69.6708 59.373C65.7662 60.1427 62.2867 60.4479 59.4845 63.0357C58.2839 63.8427 56.9733 64.4728 55.5932 64.9068C55.4081 65.0152 55.1976 65.0725 54.9831 65.0726C54.7686 65.0728 54.558 65.0159 54.3727 64.9078C54.1875 64.7997 54.0344 64.6444 53.9291 64.4576C53.8238 64.2709 53.7702 64.0595 53.7737 63.8452C53.7644 63.4325 53.6528 63.0285 53.4488 62.6695C53.2449 62.3105 52.9549 62.0077 52.605 61.7883C52.0573 61.3029 51.6314 60.6957 51.3615 60.0157C51.0917 59.3357 50.9853 58.6019 51.0512 57.8734C51.0512 57.1303 51.516 56.3473 52.1668 56.2809C52.5394 56.2498 52.9099 56.3613 53.2034 56.5929C53.4968 56.8245 53.6912 57.1589 53.7472 57.5284C54.0527 58.7758 54.6104 60.0365 56.1775 60.2754C56.3246 60.3176 56.479 60.3277 56.6303 60.3048C56.7816 60.2819 56.9262 60.2266 57.0541 60.1427C57.4658 59.811 57.2267 59.4792 57.0541 59.1341C56.8497 58.8164 56.6889 58.4727 56.576 58.1123C56.4674 57.8202 56.4651 57.4993 56.5695 57.2057C56.6739 56.9122 56.8784 56.6647 57.1471 56.5066C57.2663 56.406 57.4056 56.3318 57.5557 56.289C57.7058 56.2462 57.8632 56.2358 58.0176 56.2584C58.1721 56.281 58.3199 56.3361 58.4515 56.4201C58.583 56.504 58.6951 56.6149 58.7806 56.7454C59.7899 58.0725 60.9719 58.0725 62.4062 57.3293C67.9442 54.6752 73.4425 55.5776 78.9009 57.6743C79.9634 58.0724 80.654 58.7891 80.322 59.9702C79.9899 61.1513 78.9938 60.9921 78.0243 60.8992C77.0548 60.8063 76.0322 59.8507 75.1822 60.6204C74.3323 61.3901 75.0096 62.5314 75.0362 63.4869C75.0555 65.7283 74.263 67.9012 72.805 69.6047C72.407 70.1824 71.8458 70.6285 71.1929 70.8862C70.5401 71.1438 69.8252 71.2012 69.1395 71.0512C67.6654 70.6928 67.0811 69.5516 66.6959 68.052C66.0584 65.504 67.5193 63.6594 68.3427 61.5892C68.7352 60.8216 69.1789 60.0812 69.6708 59.373Z" fill="black"></path>
    <path d="M44.8887 63.7122C45.3933 68.8877 43.5606 73.6916 42.5114 78.5885C41.5993 82.1849 41.0302 85.8597 40.8115 89.5633C40.8481 90.8022 41.1517 92.0185 41.7018 93.1293C42.2519 94.24 43.0354 95.2191 43.9989 95.9996C44.9816 96.8754 46.084 97.6053 47.1199 98.4148C47.5631 98.7201 47.9236 99.1305 48.169 99.6092C48.7932 101.016 48.0893 102.157 46.5753 101.905C41.3959 101.042 36.2563 96.8754 36.1633 90.7709C36.0703 84.6664 38.0624 79.2122 39.7623 73.5987C41.0315 70.1255 41.7181 66.4667 41.7943 62.7699V62.5443C41.9006 60.8059 42.7903 59.2798 43.6403 59.5584C45.1144 60.0362 44.9684 61.3765 44.902 62.624C44.8754 62.9955 45.1676 63.3538 44.8887 63.7122Z" fill="black"></path>
    <path d="M51.4361 46.1022C51.1174 45.797 50.719 46.1022 50.3604 46.1022C48.8464 45.85 48.3019 44.6291 49.3245 43.448C49.8551 42.7879 50.4979 42.2264 51.2236 41.7892C55.7871 39.3175 61.028 38.3865 66.1644 39.1351C69.0207 39.6803 71.8278 40.4569 74.5579 41.4575C75.4078 41.6963 76.3773 42.2404 76.0984 43.4215C75.8195 44.6026 74.9164 44.8945 73.7743 44.7485C69.0883 44.3371 64.3665 44.7868 59.8428 46.0756C57.7645 46.6251 55.818 47.5863 54.1188 48.9023C53.468 49.4065 52.8704 49.964 51.8611 49.3668C50.8517 48.7696 51.0776 48.0397 51.2635 47.1904C51.3432 46.8453 51.6221 46.5136 51.4361 46.1022Z" fill="black"></path>
    <path d="M52.9635 95.7743C51.8898 95.9362 50.808 96.038 49.723 96.0795C48.9925 96.0795 48.1824 95.9734 47.9965 94.9516C47.8106 93.9297 48.5676 93.6245 49.3246 93.3591C50.6662 92.7848 52.1598 92.6682 53.5744 93.0273C54.4775 93.2794 55.3142 93.7572 55.3275 94.8587C55.2744 95.6416 54.7697 95.8407 52.9635 95.7743Z" fill="black"></path>
    <path d="M65.9785 136.462C65.6922 136.479 65.4081 136.403 65.1687 136.245C64.9293 136.087 64.7475 135.856 64.6504 135.586C64.5383 135.298 64.53 134.981 64.6269 134.688C64.7239 134.395 64.9201 134.144 65.1817 133.98C66.4301 132.998 68.0503 133.025 69.4714 132.507C70.2416 132.229 70.7994 133.662 70.2948 134.511C69.2456 136.21 67.28 135.812 65.9785 136.462Z" fill="black"></path>
    <path d="M24.1575 83.1273C23.0771 83.5626 22.1519 84.3114 21.5014 85.2771C21.4368 85.4167 21.3411 85.5396 21.2216 85.6365C21.1022 85.7334 20.9622 85.8018 20.8123 85.8364C20.6624 85.871 20.5065 85.8708 20.3566 85.836C20.2067 85.8012 20.0668 85.7325 19.9476 85.6354C19.8062 85.5669 19.6823 85.4672 19.5851 85.3438C19.488 85.2204 19.4203 85.0766 19.387 84.9232C19.3538 84.7697 19.3558 84.6107 19.3931 84.4582C19.4304 84.3057 19.5019 84.1638 19.6022 84.043C19.9962 83.3836 20.4939 82.7921 21.0764 82.2912C22.6302 80.8713 23.2678 81.0836 24.1177 83.167L24.1575 83.1273Z" fill="black"></path>
    <path d="M63.0569 71.3164C63.4022 71.3164 63.6014 71.5288 63.867 71.688C64.7169 72.179 64.3317 72.8956 64.1458 73.5061C63.8669 74.4483 63.6943 75.5896 62.6053 75.8948C62.2334 76.001 61.503 75.4435 61.1709 75.0189C60.5069 74.1032 61.9546 71.3164 63.0569 71.3164Z" fill="black"></path>
    <path d="M60.4141 72.4711C60.4141 73.5858 58.9267 75.3243 58.0635 75.311C57.2002 75.2978 56.8682 74.6873 56.8682 73.984C56.8682 73.2806 58.7541 71.3298 59.4048 71.3298C60.0556 71.3298 60.3875 71.8872 60.4141 72.4711Z" fill="black"></path>
    <path d="M24.0912 83.1671C24.9146 83.4059 25.9638 81.9727 26.6146 83.5917C27.1458 84.9188 26.3224 85.8743 25.7247 86.8828C25.6799 86.9693 25.6161 87.0447 25.5382 87.1033C25.4603 87.1619 25.3702 87.2023 25.2745 87.2214C25.1789 87.2405 25.0802 87.2378 24.9857 87.2137C24.8912 87.1896 24.8034 87.1445 24.7287 87.0819C24.4868 86.9325 24.2853 86.7261 24.1418 86.4809C23.9983 86.2357 23.917 85.9591 23.9053 85.6752C23.9053 84.7728 24.8482 84.0164 24.1443 83.1273L24.0912 83.1671Z" fill="black"></path>
    <path d="M190.937 62.7303C195.299 62.5498 199.655 63.2307 203.753 64.7341C204.403 64.9521 205.023 65.2509 205.599 65.6233C206.015 65.8422 206.332 66.2101 206.487 66.6533C206.643 67.0964 206.624 67.5819 206.436 68.012C206.051 68.9675 205.28 68.9276 204.337 68.8746C202.08 68.7684 200.114 67.6537 197.896 67.2954C192.735 66.5043 187.465 66.7981 182.424 68.158C181.907 68.3012 181.378 68.399 180.844 68.45C180.074 68.45 179.25 68.4499 178.971 67.5741C178.89 67.3758 178.85 67.1633 178.854 66.9492C178.857 66.7352 178.903 66.524 178.99 66.3282C179.077 66.1325 179.202 65.9563 179.359 65.8101C179.515 65.6639 179.7 65.5507 179.901 65.4773C182.255 64.3787 184.748 63.6063 187.312 63.1815C188.52 62.9824 189.729 62.8763 190.937 62.7303Z" fill="black"></path>
    <path d="M146.274 66.1409C143.901 66.0971 141.539 66.4792 139.301 67.2689C138.505 67.5591 137.688 67.7897 136.858 67.9589C136.366 68.0518 135.742 68.4234 135.45 67.4149C135.158 66.4063 134.839 65.9153 135.702 65.2783C135.951 65.1075 136.213 64.9565 136.486 64.8271C139.815 63.0761 143.552 62.2468 147.31 62.4251C151.068 62.6374 154.76 62.9427 158.16 64.774C159.262 65.3579 160.219 66.0347 159.648 67.4282C159.077 68.8216 157.881 68.0917 156.991 67.8263C153.531 66.7008 149.913 66.1319 146.274 66.1409Z" fill="black"></path>
    <path d="M185.054 88.9796C183.805 89.4706 182.57 90.028 181.282 90.4261C180.512 90.6517 179.476 90.9967 179.051 89.9749C178.922 89.5611 178.958 89.1139 179.151 88.7259C179.344 88.3379 179.679 88.0391 180.087 87.8914C184.815 85.6619 189.064 82.3177 194.695 82.0655C198.68 81.8798 202.265 82.6628 205.134 85.6089C205.904 86.3786 207.1 86.8032 207.153 88.263C207.153 88.8071 207.445 89.3114 206.9 89.683C206.356 90.0545 205.772 90.1607 205.4 89.8422C204.683 89.2583 203.819 88.9398 203.076 88.3957C200.735 86.5114 197.776 85.5652 194.775 85.7415C193.938 85.8079 193.447 85.9937 193.367 87.0686C193.3 88.6736 193.019 90.2624 192.531 91.793C191.827 94.3807 190.047 95.668 187.67 95.2035C186.143 94.8983 184.788 92.3902 185.014 90.3465C185.014 89.9616 185.439 89.5635 185.054 88.9796Z" fill="black"></path>
    <path d="M198.281 96.7561C198.414 98.4813 197.737 98.7069 196.741 98.4017C195.999 98.0282 195.408 97.4126 195.065 96.6571C194.722 95.9015 194.648 95.0515 194.855 94.2481C195.094 93.6907 195.413 93.0802 196.09 93.0271C196.398 93.0301 196.698 93.1271 196.95 93.3049C197.201 93.4828 197.392 93.7331 197.498 94.0224C198.069 95.031 197.87 96.2121 198.281 96.7561Z" fill="black"></path>
    <path d="M201.96 96.3449C201.324 96.1006 200.753 95.7123 200.292 95.2103C199.831 94.7083 199.493 94.1064 199.304 93.4519C199.304 92.4035 200.18 92.2575 200.964 92.2177C201.748 92.1779 203.341 93.9429 203.288 95.0311C203.233 95.3619 203.076 95.667 202.837 95.9029C202.599 96.1388 202.292 96.2935 201.96 96.3449Z" fill="black"></path>
    <path d="M141.241 87.6261C139.663 87.8602 138.133 88.3488 136.712 89.0726C136.386 89.2739 136.044 89.4471 135.689 89.5902C135.025 89.7627 134.149 89.922 133.817 89.2452C133.616 88.9137 133.532 88.5248 133.578 88.1401C133.623 87.7554 133.796 87.397 134.069 87.1218C134.791 86.4438 135.588 85.8516 136.446 85.3569C138.611 83.8828 141.102 82.9558 143.704 82.6553C146.306 82.3548 148.943 82.6899 151.387 83.6317C154.16 84.9243 156.742 86.5897 159.063 88.5816C159.252 88.6857 159.415 88.8294 159.542 89.0027C159.67 89.1761 159.758 89.3749 159.801 89.5856C159.844 89.7963 159.84 90.0138 159.791 90.223C159.742 90.4323 159.647 90.6284 159.515 90.7978C159.378 91.01 159.2 91.1927 158.991 91.3348C158.782 91.4769 158.547 91.5757 158.299 91.6252C158.052 91.6747 157.796 91.6739 157.549 91.623C157.301 91.5721 157.067 91.472 156.859 91.3287C154.84 90.3864 152.875 89.3247 150.856 88.3825C150.258 88.1038 149.714 87.5598 148.93 87.6925C148.655 88.5061 148.622 89.3822 148.837 90.2139C148.941 90.978 148.841 91.756 148.547 92.469C148.253 93.1821 147.776 93.805 147.164 94.2747C144.428 96.6767 142.356 95.0975 141.134 92.669C140.51 91.395 140.656 90.5854 141.241 87.6261Z" fill="black"></path>
    <path d="M138.505 93.8766C139.022 94.4686 139.377 95.1843 139.535 95.954C139.694 96.7238 139.65 97.5214 139.408 98.2692C139.036 98.8531 138.478 98.7337 138.013 98.5346C136.805 98.0569 136.898 96.8094 136.685 95.8805C136.566 95.4715 136.592 95.0339 136.759 94.642C136.926 94.2501 137.224 93.9282 137.602 93.7306C138.053 93.4652 138.292 93.797 138.598 93.9695C138.425 93.9031 138.332 93.9695 138.306 94.0757C138.279 94.1818 138.412 94.0757 138.438 94.0757C138.47 94.0129 138.493 93.9458 138.505 93.8766Z" fill="black"></path>
    <path d="M134.096 92.7221C134.309 92.7118 134.522 92.744 134.723 92.8169C134.923 92.8898 135.107 93.002 135.264 93.1468C135.518 93.3176 135.699 93.5764 135.773 93.8731C135.846 94.1697 135.807 94.483 135.663 94.7525C135.171 95.6416 135.543 96.9687 134.335 97.4066C134.115 97.4795 133.877 97.4795 133.657 97.4066C132.329 96.8492 132.94 95.708 132.94 94.7525C132.896 94.3358 132.984 93.9159 133.191 93.5517C133.398 93.1875 133.715 92.8974 134.096 92.7221Z" fill="black"></path>
    <path d="M152.901 107.253L152.848 107.174L152.861 107.293L152.901 107.253Z" fill="black"></path>
    <path d="M177.032 186.599V186.784C176.886 186.784 176.926 186.678 177.125 186.638L177.032 186.599Z" fill="black"></path>
    <path d="M74.7971 101.202H75.3284V101.719L74.7971 101.202Z" fill="black"></path>
  </g>
  <defs>
    <clipPath id="clip0_50_294">
      <rect width="239" height="350" fill="white"></rect>
    </clipPath>
  </defs>
</svg>
