<?xml version="1.0" encoding="UTF-8"?>
<svg xmlns="http://www.w3.org/2000/svg" viewBox="0 0 446.45 330.26">
  <defs>
    <style>.cls-1{fill:#fff;}.cls-2{fill:#005aff;}</style>
  </defs>
  <g id="Layer_2" data-name="Layer 2">
    <g id="Layer_13" data-name="Layer 13">
      <path class="cls-1" d="M193.56,39.63l-1-4.59,0-5.08,1.22-5.72.24-4.36-.36-5.18-1.32-.27L191,21.72l-1.8-3.08s-.75-4.28-.81-6-1.22,0-1.22,0l-.58-1-1.23-.25-1,.36-.66,2.54.39,2.18,0,4-.45.7-1.19-1.64-1.58-5.07-.72-1.21-1-.14-.29.86.11,2.56.92,5.92,1.53,5.09.52,1.86-.43.66-.76-.32L179,28.73h-1.13l-.69,1,.38,1.3L181,35.9l3.11,2.79.39,1.62.81,3.36v3s-1.41,6.78-3.21,10.44-6.36,7.68-6.36,7.68l-1.8,1.08-6.69,2.9-7.65,2.77-8.66,2.07-4.28,1.18-.94.8-.88-1.31-.92-7.47,5.13-4.68,1.55-3.19,4.2-2.67,3.72-3.66,1.08-6.82L154.8,33l-3.27-2-3.06-2.52s-13.46-1.62-14-1.53-10.35,7.11-10.39,7.25l-2.93,7.31-1.66,6.7,3.73,4.41,5.45,7.5,5.48,5.62,1.27,3.15-.94,7.34L131.1,77s-14.26,5.87-19.89,9.18S104.46,92,104.46,92l-6.17,7.2s-6.2,10.62-4.76,15,3.79,8,7.39,12.63,14.16,7,14.16,7,2.16.42,1.17,4.44.3,8.25.78,10.17,2,.18,2,.18l1.28,3.32a3.47,3.47,0,0,0,1.2,1.87L119,162.35l-1.62,5L114,181.47l-1.84,8.06-2.57,18.67-.09,4.19,1.13,1.53,4,2.29-.81,5.81-1.44,9.72-3.2,16.15-3.37,15.75-1.17,5.13L103.29,272l9.54-1.26,3.73-11.07,4.5-10.89,4-9.45,2.56-8.59.86-8.06v-3.42l8.39-.36,1.51-.45.4-1.17.77-4L141.94,202l2.93-9.59.67-.85,3.06,13,3.24,14.75,8.87,1.9v2L163,236.64l4.19,13.05,8.67,21.8a14.86,14.86,0,0,0,2.16,1.38l7.35-2.34-.54-1.4-.9-5.85-1.71-6.66-2-9.63-1.53-6-2.83-13.55-.81-5.17-.59-4,2.93-2.57-.72-6.48a5.47,5.47,0,0,0-.91-3.22c-.42-15.2-3.68-36.65-3.68-36.65l-2-11.38-1.53-6.39-1.53-2,3.24-2.15,1.71-.37-.33-.76-.93-6.12c-2.82-11.7-2.21-37.76-2.21-37.76l1.49-1.8,4.81-5,1.44-1.43L175.92,91l.09-6.77,1.62-.56,1.8-1.08,2.65-2.39,2.25-2.43,3.87-5.49,1.89-3s2.34-7.61,2.34-7.74,1-4.59,1-4.59l.81-7.16ZM119.44,126l-7.11-3.42-3.64-3.6v-2.48l3.24-5.62,1.44-1.13.69,3.29,1,.27,2-.86,2.86-1.15.25,5.61Z"></path>
      <path class="cls-1" d="M307.62,177.53s2.28-.11,2.5-2-.91-5.49-.91-5.49l-3.47-6.16-.22-10.4,1.46-7.33,1.31-4.5,13.16-6.17L325.54,146l6.57,7.29,4.73,3.25-3.38,11.51-3.55,4.23s-4.77,4.16-4.65,6.38a5.1,5.1,0,0,1,3.36,1.44c1.62,1.38,7.86,7.95,7.86,7.95l5,9.33,1.32,3.72,1.32,6.54v8.64a33,33,0,0,1-8,19.59,22.43,22.43,0,0,1,2.43,3.51l7.56,7.2,7.74,6.16,4.41,4.41,3.19,5.76.86,3.65a53.53,53.53,0,0,1-.86,7.29c-.63,2.7-2.39,8.2-6.39,11.47s-9.76,9.05-10.71,9.5-6.79,4.27-6.79,4.27l-1.8-3.24L333,292l-7.78-8.5,2.11-3.59,5.75-6.34,1-1.83-1.86-2.46-2.91-4.08-.45,1.05-1.05.57-1.11-1-.63-1.89-.9-2.37-.84,2.28-.84,4.14-1.59.39-2.25-1.47-3.48-4.17-.27,4.08L313.2,263l-1.44-3.54-2.16-.33L305,261.8l-3.12,1.44-7.56,3.06L290,267.53l-4.05,3.84-2,5.82-1.14,5.88-.15,2.57-.85.5-10.87-3.82-5.83-2.86-6.81-5.15L256,267.56l-.38-2.13s1.56-3.75,1.62-3.84,3.87-4.47,3.87-4.47l6.66-4.11L286,242.33l10.14-5.82a5.74,5.74,0,0,1,3.06-.9,1.57,1.57,0,0,0,1.8-1L301,230l-.24-3.06-2.68-1,.58-11.82-1.92-12.84.37-5.28-7.93-7.14s-5.94-5.68-5.7-7,.84-3.55.84-3.55l-2.76-4.08s-8.1-14.58-9.12-22-1.35-10.3-1.35-10.3l-.87-1.61-2.73-1.29-5.6-3.11-3.12-2.23L255.27,128v-1.5l1.11-.23s1.91,1.73,1.93,1.85-1.73-3.45-1.19-5.36,1.39-2,1.73-.9.59,1.85.59,1.85-1.42-3.42.27-4.3,1.11,1.48,2.08,3.49c0,0-1.32-4,.59-4.73s.89,2.65,2.62,5.11a14.49,14.49,0,0,0,4.6,4s1.93,1.43,2.95-.34,1.72-4.62,2.82-6.09c.78-1.06,3.24-1.32,2.64,1.77s-.42,3.06-.42,3.06.42,2.25.36,2.37-.47,1.92-.47,1.92l-.58,4.26.94,3.61,2.61,11.34,6,10.85,3.36,4,2,1.56a23,23,0,0,1,1.71,1.8c0,.14,6.53,7,6.53,7l3.15,2.16,3.19.9Z"></path>
      <polygon class="cls-1" points="203.01 103.76 205.3 106.14 207.55 110.19 205.93 114.65 202.38 119.64 199.63 122.25 196.89 120.23 193.87 116.58 193.87 115.77 198.1 111.68 200.78 107.85 202.24 105.2 203.01 103.76"></polygon>
      <path class="cls-1" d="M283.2,3,288.55.71l2.75,3.73,5,6.21,2,1.67s.94.67.3,1.37S296,16.57,296,16.57s-1,1-1.86.72a35.79,35.79,0,0,1-3.76-2l-2.5-2.38-4.49-8.55Z"></path>
      <path class="cls-1" d="M366.63,48.45l2.46,3.44A9.57,9.57,0,0,0,372,50.17a46.12,46.12,0,0,0,3.3-4.34l1.86-3.57a7.8,7.8,0,0,0-.19-2.67,10.82,10.82,0,0,0-1.91-2.25,1,1,0,0,0-.84.66,27.47,27.47,0,0,1-2.76,4.74c-.84,1-3.15,3.54-3.15,3.54Z"></path>
      <path class="cls-1" d="M295.92,77.3l1.95,1.88a9.5,9.5,0,0,0,1.89.67c0-.15.9-1.83.93-2a21.93,21.93,0,0,0-.9-2.31h-2.25s-.56.57-.73.6S295.92,77.3,295.92,77.3Z"></path>
      <polygon class="cls-1" points="77.7 45.89 80.58 47.6 81.99 47.93 84.78 44.15 86.7 41.18 90.03 36.71 91.41 34.55 89.49 32.45 85.98 30.41 84.59 35.09 81.75 39.65 79.41 43.46 77.7 45.89"></polygon>
      <path class="cls-1" d="M35.46,23.63l1.71,3.13.92.66,1.51-1.9s2.19-1.17,2.34-1.2.45-.39.48-.48-.81-2-.81-2l-4.26-8.4L35.7,7,35,4.34l-3,1.11-2.13,2V9.08l1.47,7.41Z"></path>
      <path d="M298.3,11.94c2.23,2.27-1.34,5.13-3.29,5.75a1.24,1.24,0,0,1-.89,0c-7-2.77-8.73-7.84-11.24-13.84a1.16,1.16,0,0,1,.61-1.52L288.7.05a.63.63,0,0,1,.8.27A56.71,56.71,0,0,0,298.3,11.94Zm.08.65a27.57,27.57,0,0,1-9.5-10.65.58.58,0,0,0-.78-.31l-4.35,1.56c-.34.12-.41.34-.21.64,3.26,5,5,9.52,10.18,12.89a.75.75,0,0,0,1-.08l3.71-3.36a.44.44,0,0,0,0-.62Z"></path>
      <path d="M34,5.27,30.46,7.33a.64.64,0,0,0-.34.74,53.36,53.36,0,0,0,7.43,18.31c.45.71.33.84-.38.38C32.73,23.93,29.76,13,29.31,8.46a1.49,1.49,0,0,1,.23-.94A9.62,9.62,0,0,1,36,3.29q1.09-.21.27.54a2.16,2.16,0,0,0-.63,1,2.26,2.26,0,0,0,.07,1.22,90.92,90.92,0,0,0,7,17.23.91.91,0,0,1-.24,1.15l-3.79,3a.4.4,0,0,1-.56-.06A.38.38,0,0,1,38,27a4.32,4.32,0,0,1,3.57-3c.47-.08.57-.31.29-.7a40.5,40.5,0,0,1-7.2-17.79.45.45,0,0,0-.51-.37Z"></path>
      <path d="M183.14,19.29l.31-.1a.11.11,0,0,0,.08-.15,11.48,11.48,0,0,1,.34-7.69.9.9,0,0,1,1-.56l2.22.3a.48.48,0,0,1,.48.57c-.15,3.43.33,6.2.43,9.56a.32.32,0,0,1-.3.34.32.32,0,0,1-.31-.19,13.22,13.22,0,0,1-1-8.62.7.7,0,0,0-.56-.84.69.69,0,0,0-.59.13,2.54,2.54,0,0,0-.83,2.29q.18,3.47.55,8.1a.76.76,0,0,1-.68.82.79.79,0,0,1-.51-.15c-1.52-1.1-3-7.06-3.52-8.9a.4.4,0,0,0-.79.11,35.44,35.44,0,0,0,2.78,13.94,1.58,1.58,0,0,1,.06,1.09,2.56,2.56,0,0,0,.64,2.56.3.3,0,0,1-.42.42l-3.28-2.95a.69.69,0,0,0-1,0A.67.67,0,0,0,178,30c1.17,4.76,6,6.33,7.19,11.3,2.24,9.35-2.6,17.31-9.12,23.91a1.07,1.07,0,0,0-.31.84q.75,11.91.68,27.17a1.61,1.61,0,0,1-.24.92c-.25.38-.4.34-.44-.11a201.57,201.57,0,0,1-.69-27.8q0-.55-.48-.3a82.34,82.34,0,0,1-25.79,8.57q-.45.08-.33-.36a.43.43,0,0,1,.3-.32,240.7,240.7,0,0,0,24.14-7.94c4.28-1.65,8.54-9.22,10.19-13,1.91-4.31,1.41-8.69.87-13.74a1,1,0,0,0-.49-.75c-1.88-1.11-9-7.16-6.36-9.8q1.09-1.07,4.21.76a.18.18,0,0,0,.26-.06.23.23,0,0,0,0-.2A30.24,30.24,0,0,1,178,13.26a1.06,1.06,0,0,1,.92-1c2.55-.33,3.37,5.12,3.82,6.81A.27.27,0,0,0,183.14,19.29Z"></path>
      <path d="M189.81,20.25a12.24,12.24,0,0,1-.93-7.89.24.24,0,0,1,.47,0L190.72,20a.49.49,0,0,1-.39.56A.48.48,0,0,1,189.81,20.25Z"></path>
      <path d="M192.52,15.76l-1,6.51c-.06.4-.27.51-.63.32a.35.35,0,0,1-.24-.34q.33-3.6.74-7.22a1.52,1.52,0,0,1,.27-.89,1.64,1.64,0,0,1,2.32.15,1.66,1.66,0,0,1,.41,1,47.51,47.51,0,0,1-.18,8.44C194,26,192.6,29.45,193,32.76c.51,4.77,1.84,12,1.87,17.1.07,12.52-5.7,27.85-17.27,34.32a.28.28,0,0,1-.45-.15c-.07-.17,0-.33.19-.47,10.69-7.58,16-20.82,16.25-33.42.14-8-2.48-15.27-.86-23.8a35.88,35.88,0,0,0,.42-10.56.3.3,0,0,0-.28-.3.29.29,0,0,0-.3.28Z"></path>
      <path d="M146.3,75l.36-.21a.28.28,0,0,1,.37.1.24.24,0,0,1,0,.2C145.63,81,138,83.72,133.15,80a.71.71,0,0,1-.25-.88,20.71,20.71,0,0,0,.91-12.22.36.36,0,0,0-.11-.21l-3.29-3.21a.69.69,0,0,0-.47-.18,6.93,6.93,0,0,1-6-2.87,1.62,1.62,0,0,1-.35-1l-.09-3.89a.64.64,0,0,0-.45-.62q-4.8-1.65-5.51-6.24c-.4-2.59,1.28-5.67,1.44-8.69a1,1,0,0,0-.41-.84c-1.37-1-2.9-1.51-3.82-2.92-2.85-4.36-2.09-8.47,1.49-12.27a28.56,28.56,0,0,1,10-7.16c5.6-2.26,9.27-1.71,14.1,1.3a30.83,30.83,0,0,0,11.12,4.39c7.56,1.53,10.79,5.72,9.77,13.52-.52,4,.88,8.18.95,11q.28,10.89-11,13.28a1.15,1.15,0,0,0-.78.57,14.81,14.81,0,0,1-4.76,5.1,1.09,1.09,0,0,0-.5,1l.36,7.63a.53.53,0,0,0,.55.51A.57.57,0,0,0,146.3,75ZM150,39.8a3.7,3.7,0,0,0-3.52-1.86q-.93.06-.45-.75l.18-.32a.76.76,0,0,0-.15-1.06,12,12,0,0,1-3.42-5.57c-.15-.52-.43-.61-.84-.25a33.28,33.28,0,0,1-15.51,7.83.65.65,0,0,0-.56.67c-.26,7.71,1.92,25.46,11.1,27.74,13.86,3.45,16.49-17,16.66-26.1a.87.87,0,0,0-.49-.84l-1.92-1.07a.43.43,0,0,0-.56.16.42.42,0,0,0,0,.33l.26.71a.43.43,0,0,1-.28.54A.41.41,0,0,1,150,39.8ZM125.67,51.89l-1-9a.13.13,0,0,0-.13-.11h0c-1.85.2-3.13,2.38-2.86,4.88h0l0,.22c.27,2.5,2,4.37,3.83,4.16h0A.11.11,0,0,0,125.67,51.89ZM154,44.41l-.41,6.65a.71.71,0,0,0,.66.75h.1A3.56,3.56,0,0,0,158,48.33h0l0-.64a3.57,3.57,0,0,0-3.15-3.92h-.1a.72.72,0,0,0-.76.66ZM136,73.23l-1.46,5.65a.7.7,0,0,0,.37.87c3.37,1.84,7.17-.06,9.75-2.36a.63.63,0,0,0,.2-.58l-1.08-6.57a.27.27,0,0,0-.31-.22.25.25,0,0,0-.16.08,7.88,7.88,0,0,1-6.67,2.66A.57.57,0,0,0,136,73.23Z"></path>
      <path class="cls-2" d="M3.06,73.84C6.61,56.89,6.17,41.3,0,24.74a.18.18,0,0,1,.11-.22.21.21,0,0,1,.11,0l.25.08a.39.39,0,0,1,.2.18A69.37,69.37,0,0,1,3.57,74.15c0,.17-.13.19-.25.07l-.2-.2A.2.2,0,0,1,3.06,73.84Z"></path>
      <path d="M185.85,28.78a3.66,3.66,0,0,1,1.88,3.78.44.44,0,0,1-.47.39.44.44,0,0,1-.35-.26l-1.57-3.45a.36.36,0,0,1,.18-.47A.35.35,0,0,1,185.85,28.78Z"></path>
      <path d="M85.75,29.4a12.26,12.26,0,0,1,5.9,5,.66.66,0,0,1,0,.78L81.6,49.76a.33.33,0,0,1-.47.09.33.33,0,0,1-.15-.29v-.84a.76.76,0,0,0-.53-.76l-3.78-1.37a.43.43,0,0,1-.26-.57.6.6,0,0,1,.09-.15A45.85,45.85,0,0,0,85.17,32a1.51,1.51,0,0,0,.1-.73l-.14-1.4a.47.47,0,0,1,.62-.48Zm4.54,4.8a13.58,13.58,0,0,0-3.21-2.58c-.39-.22-.64-.12-.76.3a29.64,29.64,0,0,1-7.8,13.21c-.52.52-.41.81.32.87a4.22,4.22,0,0,1,2.43,1c.37.33.67.28.92-.15a68.63,68.63,0,0,1,8.65-12,.34.34,0,0,0-.07-.59A.58.58,0,0,0,90.29,34.2Z"></path>
      <path d="M374.2,36.77a.47.47,0,0,1,.77-.22c6.85,4.26-1.17,13.38-5.58,15.85a.69.69,0,0,1-.91-.19L366,49a.61.61,0,0,1,.06-.89A44.33,44.33,0,0,0,374.2,36.77Zm.47,1.48A27.22,27.22,0,0,1,367.76,48a.53.53,0,0,0-.09.78l1.42,2a.47.47,0,0,0,.81.09,27.21,27.21,0,0,0,7-9.49.82.82,0,0,0-.1-.86L375,38.2a.23.23,0,0,0-.31,0A.24.24,0,0,0,374.67,38.25Z"></path>
      <path d="M132.63,37.77a.49.49,0,0,1,.38.57.48.48,0,0,1-.56.38h0a4,4,0,0,0-4,1.69c-.26.36-.43.32-.5-.12C127.57,37.81,130.75,37.29,132.63,37.77Z"></path>
      <path d="M138.54,53.43a.73.73,0,0,1,.65,1,.43.43,0,0,1-.51.34c-3.66-.69-2-9.43-1.53-12a2.08,2.08,0,0,0-.05-1L136.55,40c-.12-.38,0-.52.4-.4.87.28,1.3.77,1.29,1.49a80,80,0,0,1-.84,10.72A1.44,1.44,0,0,0,138.54,53.43Z"></path>
      <ellipse cx="146.64" cy="43.64" rx="2.15" ry="0.65" transform="translate(93.87 187.25) rotate(-86.4)"></ellipse>
      <ellipse cx="131.69" cy="43.93" rx="0.61" ry="2.07" transform="matrix(1, -0.03, 0.03, 1, -1.45, 4.62)"></ellipse>
      <path class="cls-2" d="M8.26,85.31A75.15,75.15,0,0,1,51.79,48.09a.2.2,0,0,1,.21.06l.15.22q.1.15-.06.21A86.78,86.78,0,0,0,8.63,86c-.15.25-.29.25-.42,0A.7.7,0,0,1,8.26,85.31Z"></path>
      <path d="M137.89,57.62a21.85,21.85,0,0,0,8.19-2.55c.29-.15.48-.07.58.24,0,.1.06.18.09.26a.18.18,0,0,1-.07.22c-3.69,2.44-8.14,4.37-12.26,2.21-.37-.19-.35-.33.06-.43C135.64,57.3,136.89,57.73,137.89,57.62Z"></path>
      <path d="M295.87,78a1.06,1.06,0,0,1-.23-1.49h0L296,76a3,3,0,0,1,4.11-.75l.05,0a3,3,0,0,1,.51,4.14l-.36.5a1.06,1.06,0,0,1-1.49.23Zm3.86.81a1.63,1.63,0,0,0-.34-2.25h0a1.62,1.62,0,0,0-2.26-.12h0a1.61,1.61,0,0,0,.34,2.24h0a1.61,1.61,0,0,0,2.26.13Z"></path>
      <path d="M109.21,87.21c6-4.82,14.38-8.28,22.11-10.56.34-.1.56,0,.67.26a.3.3,0,0,1-.17.38,171.85,171.85,0,0,0-22.17,10.57.39.39,0,0,1-.55-.1A.4.4,0,0,1,109.21,87.21Z"></path>
      <path class="cls-2" d="M66,86.57c1.06,0,2.12,0,3.19-.09a.33.33,0,0,1,.32.27c.09.25,0,.38-.26.38a86.09,86.09,0,0,0-56.18,21.19c-.15.13-.25.1-.3-.08l-.1-.3a.14.14,0,0,1,0-.17Q35.06,86.71,66,86.57Z"></path>
      <path class="cls-2" d="M250.78,88.16a1.33,1.33,0,0,1,.42-.72.36.36,0,0,1,.51.08.39.39,0,0,1,.07.26,59.53,59.53,0,0,0,0,16q.49,3.51-.86.23Q248.39,97.79,250.78,88.16Z"></path>
      <path d="M119.27,124.8l0-11.83a.45.45,0,0,0-.45-.44.47.47,0,0,0-.28.09,5.08,5.08,0,0,1-4.32,1.1.62.62,0,0,1-.54-.53A141,141,0,0,0,107,90.34a1.52,1.52,0,0,1-.1-.6c0-.42.18-.53.5-.32a.38.38,0,0,1,.15.16,64.75,64.75,0,0,1,6.82,22.9.51.51,0,0,0,.56.46.28.28,0,0,0,.15,0l4.22-1.77a.67.67,0,0,0,.45-.63c.15-2,.23-3,.23-3q1.41-5.49,1.09.27l-.92,16.94a.84.84,0,0,0,.8.89h0c3.4.21,9.17-1.08,11.81,1.44q.74.69-.24.42c-1.9-.53-3.33-1.16-5.37-.81q-12,2-18.92-7.85a1.19,1.19,0,0,1-.21-.93,15,15,0,0,1,3.76-7.6.4.4,0,0,1,.56,0,.38.38,0,0,1,.09.43l-3.4,7.08a.76.76,0,0,0,.12.88,20.87,20.87,0,0,0,9.72,6.47C119.13,125.21,119.27,125.1,119.27,124.8Z"></path>
      <path class="cls-2" d="M234.46,90.33c6.68,2,11.82,9.24,14.56,15.46a.26.26,0,0,1-.16.34.27.27,0,0,1-.28-.08c-4.32-5.86-7.8-11.4-14.3-15.31a.23.23,0,0,1-.05-.32A.25.25,0,0,1,234.46,90.33Z"></path>
      <path d="M93.86,108.35c1-6.34,6.54-13.38,10.75-17a.26.26,0,0,1,.4,0,2.28,2.28,0,0,0,.22.22.1.1,0,0,1,0,.14,60.12,60.12,0,0,0-10.7,16.78.35.35,0,0,1-.45.22A.36.36,0,0,1,93.86,108.35Z"></path>
      <path d="M169.27,99.8a.41.41,0,0,0,.42.4A.42.42,0,0,0,170,100a14.54,14.54,0,0,1,4.8-5,.45.45,0,0,1,.61.17.44.44,0,0,1,0,.51l-6.1,6.77a1,1,0,0,0-.25.63q-.23,21.63,1.43,31.91c.59,3.64.95,6.49,1.1,8.54q.41,5.57-.74,0a149.69,149.69,0,0,1-2.37-45.29.34.34,0,0,1,.34-.33.33.33,0,0,1,.33.33Z"></path>
      <path class="cls-2" d="M245.79,110.68c-4.89-5-10.38-8.39-17.5-9.05-.25,0-.3-.13-.17-.35a1.08,1.08,0,0,1,1-.51A21.53,21.53,0,0,1,246,109.93a1,1,0,0,1,.2.57Q246.22,111.13,245.79,110.68Z"></path>
      <path d="M199.9,121.21a27.17,27.17,0,0,0,7-10.12,1.82,1.82,0,0,0-.36-1.91,13.68,13.68,0,0,1-2.68-4.08c-.29-.67-.14-.78.43-.34a12.56,12.56,0,0,1,3.94,5.21,1.25,1.25,0,0,1,0,.85,21.5,21.5,0,0,1-7.37,11,1.85,1.85,0,0,0-.6.87l-.09.28c-.09.28-.26.34-.49.17a24.75,24.75,0,0,1-6.22-6.28,1.07,1.07,0,0,1,.15-1.37,42.53,42.53,0,0,0,9-12.11.33.33,0,0,1,.45-.14l.08,0,.25.24a.17.17,0,0,1,0,.14,23.79,23.79,0,0,1-8.76,12.09.65.65,0,0,0-.15.9l.07.07,4.49,4.48A.55.55,0,0,0,199.9,121.21Z"></path>
      <path d="M115,134.27c-11.73-1.16-20.87-10.94-22-22.59a.22.22,0,0,1,.13-.24l.23-.13c.09,0,.14,0,.16.08q3.95,18,21.92,22.25c.29.08.32.22.11.42A.74.74,0,0,1,115,134.27Z"></path>
      <path d="M267.5,126.27a8.55,8.55,0,0,1-4.34-6.69.34.34,0,0,1,.29-.38.34.34,0,0,1,.36.2,18.26,18.26,0,0,0,4.29,6.08Q271.37,128.57,267.5,126.27Z"></path>
      <path d="M266.68,129.29c-2.77-.08-5.73-6.77-6.2-9a.37.37,0,0,1,.28-.44.37.37,0,0,1,.42.21,32.14,32.14,0,0,0,5.74,8.73C267.26,129.13,267.18,129.31,266.68,129.29Z"></path>
      <path d="M272.59,127.8a.12.12,0,0,1-.15.06h0c-.58-.28-.61-1.38-.07-2.46h0l1.37-2.76c.53-1.07,1.43-1.72,2-1.44h0l0,0a.12.12,0,0,1,.05.15h0Z"></path>
      <path d="M264.08,131.87a15.74,15.74,0,0,1-5.49-10.05.26.26,0,0,1,.24-.28.26.26,0,0,1,.24.12l3.89,7.51a1.79,1.79,0,0,0,.93.85,2,2,0,0,1,1.08,1.24.57.57,0,0,1-.35.72A.56.56,0,0,1,264.08,131.87Z"></path>
      <path d="M277,129.1c.56-2.07-.23-3.72,0-5.76a1.31,1.31,0,0,1,.57-1c.39-.26.57-.16.52.32a10.94,10.94,0,0,0,.62,4.7.43.43,0,0,1,0,.25L277,134.78c-.06.25-.17.28-.34.08C275.58,133.58,276.61,130.65,277,129.1Z"></path>
      <path d="M255.77,127.31c1.89,5.45,8.93,9.26,13.67,12.08a1,1,0,0,1,.18.17l1.67,2.31a.72.72,0,0,1,.13.33,85,85,0,0,0,12.28,34.59c.23.37.13.49-.28.35a2.21,2.21,0,0,1-1.1-.95,65.17,65.17,0,0,1-11.64-34,2.19,2.19,0,0,0-1.32-1.89c-5.76-2.43-13.77-6.93-14.59-13.93a.47.47,0,0,1,.49-.59,3.15,3.15,0,0,1,2.84,1.12,28.22,28.22,0,0,0,6.19,5.86c.26.18.24.3-.07.37-2.72.65-6.17-4.36-8-6.13a.3.3,0,0,0-.42,0A.29.29,0,0,0,255.77,127.31Z"></path>
      <path d="M306.66,167.17a.41.41,0,0,0-.57-.09.38.38,0,0,0-.11.11c-2.28,3.77-5.73,2.64-8-.32-3.71-4.89,5.75-13.29,3-14.87-9.41-26.85,29-33.32,30.71-18.4,6.29,1.28,8.52,7.46,8.19,13.52a1.46,1.46,0,0,0,.27.91c2.45,3.48,8.49,13.8,6.62,17.89,6.77,11.08-.42,13.74-7.36,15.49-5.86,2.94-18.06-7.5-14.63-17a1,1,0,0,0-.12-.94l-.46-.7a.26.26,0,0,1,.09-.35.26.26,0,0,1,.24,0l1.72.85a1,1,0,0,0,.67.09c3.17-.59,4-4.94,2.8-7.42a.8.8,0,0,0-.81-.49,3.64,3.64,0,0,1-3.83-2.86.35.35,0,0,0-.44-.22.38.38,0,0,0-.22.21c-1,2.73-2,6.14-5.39,5.68-2.84-.39-4.18-3.76-3.3-6.28a.52.52,0,0,0-.34-.66.5.5,0,0,0-.6.21,11.39,11.39,0,0,0-1.66,6.72.34.34,0,0,1-.32.38.33.33,0,0,1-.34-.19l-.69-1.26a.47.47,0,0,0-.63-.18l0,0a2.82,2.82,0,0,1-4.7-2.33,20.05,20.05,0,0,0-.17,7.62c.83,5.13,5.43,7.89,4,13.69a.54.54,0,0,1-.51.48q-.5,0-.3-.42C310.6,173.46,308.16,169.24,306.66,167.17Zm8-18a.7.7,0,0,0,1.38.22,8.77,8.77,0,0,1,3.55-5.13.63.63,0,0,0,.26-.77l-1.08-3.5c-.09-.28-.25-.33-.48-.16a20.25,20.25,0,0,1-8.73,3.74.93.93,0,0,0-.78.71l-.44,1.65a1.85,1.85,0,0,0-.09.54c.19-.33,2.21-2.4,3.81-2.06S314.79,147.48,314.7,149.18Zm3.92,7.92c1.75.41,3.8-1.91,4.55-5.16s-.05-6.24-1.81-6.65-3.8,1.9-4.56,5.16h0C316.05,153.71,316.86,156.69,318.62,157.1ZM310.71,146a6.85,6.85,0,0,0-3.64,5,16.26,16.26,0,0,0,0,3.1c.17,1.1.66,3,2.56,2.39a1.58,1.58,0,0,0,.61-.33A9.05,9.05,0,0,0,313,147a1.57,1.57,0,0,0-1.87-1.19A1.9,1.9,0,0,0,310.71,146Z"></path>
      <path d="M126.41,147.09c-.27-5.07,1-8.7,1.64-13.53a1,1,0,0,1,.69-.89c.46-.17.63,0,.52.46A55.32,55.32,0,0,0,127.9,150c0,.23-.05.26-.22.1l-.29-.29a.94.94,0,0,0-.69-.29h-.31a.77.77,0,0,1-.73-.43A15.33,15.33,0,0,1,124.15,138a.32.32,0,0,1,.63.05l.84,9.06a.19.19,0,0,0,.21.2h.42C126.36,147.26,126.42,147.21,126.41,147.09Z"></path>
      <path d="M116.38,135.65c.19-.45.37-.45.54,0a2.89,2.89,0,0,1,0,1.59,22.36,22.36,0,0,0,.47,11.4c0,.18,0,.28-.2.29l-.3,0a.18.18,0,0,1-.2-.12A15.6,15.6,0,0,1,116.38,135.65Z"></path>
      <path d="M289.36,163.77a38.26,38.26,0,0,1-11.77-26.48q0-.18.18-.21h.29a.15.15,0,0,1,.16.14,53,53,0,0,0,11.7,26.33c.17.21.13.36-.12.44s-.29,0-.35-.09Z"></path>
      <path d="M117.93,139.73a.41.41,0,0,1,.49-.31.43.43,0,0,1,.32.41c-.14,5,.79,7.56,1.94,12.31a.31.31,0,0,1-.23.37.29.29,0,0,1-.32-.13A16,16,0,0,1,117.93,139.73Z"></path>
      <path d="M121.72,151.24a14.51,14.51,0,0,1-1.14-11,.17.17,0,0,1,.22-.12.19.19,0,0,1,.14.15l1.35,10.79Q122.51,152.77,121.72,151.24Z"></path>
      <path d="M168.47,152.77a.48.48,0,0,0-.57-.38l-.1,0c-12.15,5.19-32.27,5.47-44.83,1.65a.51.51,0,0,1-.39-.33c-.11-.29,0-.4.29-.34a71.2,71.2,0,0,0,47.57-6,.27.27,0,0,1,.39.13l.12.22s0,0,0,.06l-2.31,1.45a.54.54,0,0,0-.17.88l.23.31a2.27,2.27,0,0,1,.36.79,345.13,345.13,0,0,1,8,61.48q0,.51-.42.27a.81.81,0,0,1-.36-.69A587.91,587.91,0,0,0,168.47,152.77Z"></path>
      <path d="M309.51,153.67c-2.59-.79-.5-5,1.08-4.84S312.1,154.46,309.51,153.67Z"></path>
      <path d="M319.57,154.39c-2.49-.32-1.67-4.8.56-4.81S322.05,154.72,319.57,154.39Z"></path>
      <path d="M394.4,151.88C389,149.61,386,163,385.68,166.31c-1,9.6.05,18.75-6.23,26a1.4,1.4,0,0,1-.88.47c-4.55.61-5.45-6.36-6.46-9.66a1.32,1.32,0,0,0-1.64-.88,1.39,1.39,0,0,0-.45.24c-5.77,4.69-3.37,17.87-1.73,24.07A30.55,30.55,0,0,1,369,219a2.39,2.39,0,0,1-2.08,2c-4.7.58-3.9-8.65-8.45-6.52-7.71,3.59.69,22.53,3.46,28.26,5.07,10.53,9.94,20.29,10.69,31.48a.38.38,0,0,1-.07.28.37.37,0,0,1-.21.12c-.05,0-.07,0-.08-.06a55.83,55.83,0,0,0-4.53-16.85c-5.41-11.28-17.81-34.66-12.53-42.15,2.24-3.18,6.26-3.5,8.27.2.63,1.16,1.39,4.12,3.22,3.94a1.1,1.1,0,0,0,1-1,32.59,32.59,0,0,0-.61-11.66c-1.59-7.52-5.34-22.6,3.46-26.42a1.14,1.14,0,0,1,1,0c2.5,1.36,3.53,6.88,4.42,9.52a1.62,1.62,0,0,0,2.06,1l.13,0c5.59-2.44,5.77-19.72,6.09-24.73.27-4.31,3.63-17.59,10.26-16.12a3.42,3.42,0,0,1,2.77,3.39,174.9,174.9,0,0,1,.22,24.69c-.13,2.75.7,5,3.45,5.6a1.37,1.37,0,0,0,.93-.12c12.7-6.37,6.61,14.33,5.25,18.54a.48.48,0,0,0,.33.61A.48.48,0,0,0,408,203c9.56-11.37-.13-32.87,15.55-40.44,2.66-1.29,4,1.19,4.17,3.49,1,10.56-2.32,21.12-6.78,30.58a18.75,18.75,0,0,0-1.74,7.42,1.4,1.4,0,0,0,1.35,1.44,1.35,1.35,0,0,0,.88-.29c2.79-2.13,6.09-8.06,9.88-7.9a1.25,1.25,0,0,1,.88.44c4.31,5.19-.69,18.16-3.67,22.76-2,3-5.51,6.48-7.89,9.88a3.48,3.48,0,0,0-.61,1.75c-.07,1.17.21,1.95.84,2.33,1.91,1.15,5-2.14,7.13,0a2.5,2.5,0,0,1,.64,2.42c-3.8,17.63-22.89,22.42-26.07,39.88,0,.22-.14.29-.29.2a.31.31,0,0,1-.11-.09.27.27,0,0,1-.06-.26c2.67-17.15,22.48-23.25,25.38-40.05a1.26,1.26,0,0,0-1.23-1.66c-2.5-.33-4.11,2.56-7-.19a1.32,1.32,0,0,1-.41-.8c-.57-4.29,3.77-7.78,6.71-11.58,5.11-6.59,7.31-13.12,6.63-21.68-.09-1.18-.54-1.88-1.35-2.11a1.14,1.14,0,0,0-1,.25,51,51,0,0,0-5.7,6.09c-1.56,2-5.57,3.18-6-.58a14.31,14.31,0,0,1,1.52-8c5-10.48,7.63-20.52,6.58-31.38a1.24,1.24,0,0,0-1.36-1.11,1.73,1.73,0,0,0-.31.07c-16,6-5,40.62-19,41.13-4.52.16-5.2-4.89-6.43-8.22a1.79,1.79,0,0,0-2.31-1.06,1.87,1.87,0,0,0-.4.2c-2.05,1.42-3.23,7.46-3.47,9.84-.72,7.16,6.12,23.9-1.65,28.42a1.31,1.31,0,0,1-.93.14c-3.08-.67-3.72-4-4.21-6.69a2,2,0,0,0-2.38-1.63,2.09,2.09,0,0,0-.95.45c-8.9,7.66-.83,25.06,1.93,33.68,1.08,3.37,2.57,12.6.65,15.48-.25.38-.34.35-.27-.11a31.93,31.93,0,0,0-1.52-16.34c-3.58-9.85-10.51-25-1.2-34a1.34,1.34,0,0,1,.85-.38c6-.35,3.25,8.28,7.35,8.16a1.87,1.87,0,0,0,1.66-1.1c4.14-9.1-1.63-17.42-.51-26.67.3-2.56,1.85-12.61,6.52-10.76,4,1.58,2.58,10.48,7.8,9.28a.79.79,0,0,0,.65-.66q1.28-6.28,2.32-12.52c.5-3-1.44-10.21-5.87-5.79a1,1,0,0,1-.72.32q-6.42.24-6.11-6a207.82,207.82,0,0,0-.25-24.83A2.69,2.69,0,0,0,394.4,151.88Z"></path>
      <path d="M128.94,220.48a47.22,47.22,0,0,1-4,20.79Q119,254.92,114,269c-1.4,4-.65,8.06-1.18,12.27a1,1,0,0,1-.52.79,192.58,192.58,0,0,1-22.53,11.5,10.58,10.58,0,0,1-3.62.93.72.72,0,0,1-.77-.68.76.76,0,0,1,.17-.52q8.56-10,16.56-20.36c2-2.56,2.24-5,2.89-8q5.08-23.73,9-47.68a.64.64,0,0,0-.42-.76,9.86,9.86,0,0,1-4.12-3.37,1.52,1.52,0,0,1-.3-.87,24.64,24.64,0,0,1,0-2.48,196.28,196.28,0,0,1,11.05-52.69,2.06,2.06,0,0,1,.71-1c.33-.22.43-.15.31.23A281.2,281.2,0,0,0,109.87,212a1.13,1.13,0,0,0,.41,1c6.41,5.3,19.66,6.2,27.46,5.46a.79.79,0,0,0,.73-.72,96.14,96.14,0,0,1,6.39-26.61,1.22,1.22,0,0,0-.18-1.23l-7.5-9.34c-.31-.38-.22-.57.28-.55h.32a.61.61,0,0,1,.44.19c3.31,3.47,6.78,6.92,8.12,11.69a203.3,203.3,0,0,1,5.52,26.54.65.65,0,0,0,.5.59c9,2.68,17.61,3.13,24.64-3.63a.4.4,0,0,1,.55,0,.37.37,0,0,1,0,.53l-2.5,2.63a.82.82,0,0,0-.22.77l10.49,49.45a.73.73,0,0,0,.27.45q9.22,7.66,18.63,15.06a6,6,0,0,1,1.76,2,1.53,1.53,0,0,1-.69,2,1.5,1.5,0,0,1-.83.15,174.41,174.41,0,0,1-27.39-4.95.69.69,0,0,1-.57-.74c0-4.25.23-7.93-1.45-12-3-7.27-7.81-18.09-11.14-28.23-2-6.17-2.64-13.38-3.69-20a.51.51,0,0,0-.38-.44l-7.9-2.3a.91.91,0,0,1-.65-.69l-5.7-25.59a.38.38,0,0,0-.74,0l-5.94,24.27a2,2,0,0,1-1.71,1.49l-8,.85A.28.28,0,0,0,128.94,220.48Zm-17.13,49.78a1,1,0,0,0,.37,0,.68.68,0,0,0,.67-.54,257.79,257.79,0,0,1,12.07-31.82q2.86-6.27,3.23-17.57a.51.51,0,0,0-.54-.59,41.83,41.83,0,0,1-12.17-2.57c-.37-.13-.58,0-.62.39a369.32,369.32,0,0,1-9.81,52c-.13.48.06.72.55.7l5.67-.11A1.89,1.89,0,0,1,111.81,270.26Zm62.65-50.17a.51.51,0,0,0,.06-.38c-.07-.41-.29-.51-.65-.3a20.31,20.31,0,0,1-12.35,2.81c-.36,0-.51.13-.44.48,1.55,8,2.61,15.88,5.6,23.56q4.66,12,9.26,24.08a.62.62,0,0,0,.75.37l7.23-2.09a.54.54,0,0,0,.37-.66,421.87,421.87,0,0,1-9.92-47.36A.76.76,0,0,1,174.46,220.09Z"></path>
      <path d="M313.43,160.83l1.79-.34a.44.44,0,0,1,.51.36.43.43,0,0,1-.16.42,3.64,3.64,0,0,1-5.15-.14c-.74-.64-.63-.87.33-.67l1.66.35A2.5,2.5,0,0,0,313.43,160.83Z"></path>
      <path d="M391.68,165.23c.11-2.24.29-2.25.52,0q.68,6.42-1.06,16.78a206.15,206.15,0,0,1-11.42,41.39.18.18,0,0,1-.25.12l-.26-.09a.14.14,0,0,1-.1-.19C385.84,201.62,390.71,185,391.68,165.23Z"></path>
      <path d="M291.19,166.14a59.76,59.76,0,0,0-7.12,15.2.88.88,0,0,0,.21.9l10.37,11.09a.38.38,0,0,1,0,.53.37.37,0,0,1-.52,0h0a44.67,44.67,0,0,1-10.81-11.55,1.11,1.11,0,0,1-.18-.83,32.91,32.91,0,0,1,8.12-16.85.41.41,0,0,1,.71,0,79.38,79.38,0,0,0,11.67,11.44,1.46,1.46,0,0,0,.84.32l3.8.27c.43,0,.6.26.49.68-2.69,10.71,8.79,7.64,13.44,4.11a.3.3,0,0,1,.41,0,.28.28,0,0,1,0,.4c-4.59,5.87-17.54,6.36-15.5-3.46.11-.5-.09-.71-.6-.61l-1.06.2a1.44,1.44,0,0,1-1.07-.19,39.82,39.82,0,0,1-12.5-11.7C291.67,165.78,291.43,165.78,291.19,166.14Z"></path>
      <path d="M20.5,211.52c0-11.26-10.64-26.55-1.55-36.16a2,2,0,0,1,2.87-.08,2.35,2.35,0,0,1,.26.29,20.05,20.05,0,0,1,3.1,6.21c2.2,7.83,4.16,16.18,8,23.41a.9.9,0,0,0,1.69-.32c.51-4.28,6-2.36,6.49,1.32a230.8,230.8,0,0,1,1.94,23.57,10.51,10.51,0,0,0,2.2,6.47.65.65,0,0,0,.8.18l2.46-1.2a1.5,1.5,0,0,1,1.08-.11c6.29,1.57,4.56,13,4,17.81-1.64,13.9-2.78,22.31-2.1,33.7,0,.3-.08.34-.27.11a.76.76,0,0,1-.19-.46c-1.07-12.34.66-24.46,1.83-36.92.31-3.26.8-11-2.15-12.69a2.41,2.41,0,0,0-3.08.4,2.31,2.31,0,0,1-3.28-.14,1.15,1.15,0,0,1-.14-.17A12.34,12.34,0,0,1,42,229.51a219.34,219.34,0,0,0-2-23,3.57,3.57,0,0,0-.8-1.82c-.71-.84-1.44-1.08-2.19-.7-1.07.53-1,1.9-1.84,2.59a2.15,2.15,0,0,1-3-.36,1.57,1.57,0,0,1-.2-.3c-4.33-7.93-5.94-17.05-8.78-25.59a9.07,9.07,0,0,0-2.48-3.93.76.76,0,0,0-1.07.06l-.06.07c-5.12,7.46-2.21,16.66.5,24.38a30,30,0,0,1,1.61,12.31,1,1,0,0,1-1.1,1,1,1,0,0,1-.59-.25l-3-2.59a1.19,1.19,0,0,0-.79-.28,2.49,2.49,0,0,0-2.52,2.28c-1.8,8.59,4.12,17.21,7.83,24.65a30.89,30.89,0,0,1,3,10.06,2.18,2.18,0,0,1-1.85,2.47,2.09,2.09,0,0,1-.66,0c-1.92-.3-2.89-2.61-4.85-3.12a.45.45,0,0,0-.62.37c-2.49,10.5,9.19,24.1,17,29.49,3,2.07,11,8.35,9.65,11.58-.12.28-.23.28-.32,0a16.63,16.63,0,0,0-7.2-9.22c-9.38-5.68-19.09-16.2-20.56-27.25-.29-2.24-.26-3.75.11-4.53,1.94-4.11,4.77.19,6.55,1.44a1,1,0,0,0,1.52-.87c-.94-11.08-14.82-24.92-10.65-35.75,1.39-3.6,4.56-4.25,6.87-.77a.54.54,0,0,0,1-.3Z"></path>
      <path d="M325.88,179.28l-2.11.53c-.57.15-.67,0-.3-.47,3.52-4.33,9.55,3.79,12.67,7.53a37,37,0,0,1,8.37,20.63,2.81,2.81,0,0,1-.21,1.62c-.23.44-.38.42-.45-.08A43.33,43.33,0,0,0,327,179.5,1.28,1.28,0,0,0,325.88,179.28Z"></path>
      <path d="M66.09,245.75a.31.31,0,0,0,.4-.24,65.66,65.66,0,0,0,3.24-12.82.26.26,0,0,1,.3-.21.28.28,0,0,1,.18.12q5.06,8.37.57,16.27c-1.64,2.87-5.86,5.79-6.47,9.44A45.25,45.25,0,0,0,67,283.07c0,.09,0,.13-.09.11a.85.85,0,0,1-.71-.45A42.62,42.62,0,0,1,62.45,266a1.93,1.93,0,0,0-.29-1A35.57,35.57,0,0,1,56.37,244a.78.78,0,0,1,.82-.75.79.79,0,0,1,.47.17c3.23,2.63,4.56,9.16,4.85,13.09a.24.24,0,0,0,.24.26.25.25,0,0,0,.26-.24L64.93,243a1,1,0,0,0-.11-.61c-3.95-7-7.27-13.2-9.33-21.12a1.7,1.7,0,0,1,.77-2q1-.66,2.16.87a39.36,39.36,0,0,1,6.46,13,.23.23,0,0,0,.29.16.24.24,0,0,0,.16-.23c-.21-6-3.75-10.84-6.47-16C53.09,206.2,55,194.63,56.23,183c0-.34.17-.39.41-.14,5.43,5.81,3.53,13.17.92,20-1.86,4.86.42,10.87,3.09,15,.18.29.3.27.37-.07,1.14-6,3.2-10.88,3.48-17.06a.65.65,0,0,1,.7-.59.66.66,0,0,1,.57.45c1.68,6.22,2.32,15.18-1.61,20.9a.24.24,0,0,1-.34,0,.25.25,0,0,1-.08-.27,25.79,25.79,0,0,0,1.86-13.74c-.07-.56-.22-.58-.43-.06-1.35,3.26-3.3,8.43-2.68,12.24A22.57,22.57,0,0,0,64.15,224a30.47,30.47,0,0,1,1.65,21.26A.35.35,0,0,0,66.09,245.75Zm-8.81-59-1.7,17.46a.26.26,0,0,0,.22.28.25.25,0,0,0,.27-.19c1.78-6.31,3.79-11,1.77-17.61a.29.29,0,0,0-.56.06Zm8.33,53.18a41.22,41.22,0,0,0-8-18.32.27.27,0,0,0-.36-.05.25.25,0,0,0-.1.27,67.25,67.25,0,0,0,7.71,18.38.41.41,0,0,0,.56.16A.42.42,0,0,0,65.61,239.93Zm4.82-3a60.8,60.8,0,0,1-5.28,13.78,6.93,6.93,0,0,0-.25,3.09c0,.43.17.48.44.15,4.38-5.37,7.61-9.57,5.53-17a.23.23,0,0,0-.44,0Zm-8.51,24.69A37,37,0,0,0,59,247.56c-1-2.42-1.41-2.33-1.18.29.29,3.3,1.16,10.58,3.78,13.88C61.83,262,61.93,262,61.92,261.63Z"></path>
      <path d="M326.74,227.24c-9.15-.16-19.2,3.2-27.42,0a2.05,2.05,0,0,1-1.32-1.86c-.16-4.14.68-8.08,0-12.13-1.26-7.78-3.7-17.81,1.31-25.08a.28.28,0,0,1,.39-.06.27.27,0,0,1,.11.29c-1.76,5.94-2.83,10.93-1.72,17.19a80.21,80.21,0,0,1,1,19.09,1.38,1.38,0,0,0,1.05,1.55,22.45,22.45,0,0,0,9.76.84,116.65,116.65,0,0,1,15.18-.84,2.11,2.11,0,0,1,.95.23q1.21.6,1.77-.78c3.11-7.81.59-13.4-3.92-19.86a.4.4,0,0,1,.14-.56.41.41,0,0,1,.47,0,16.17,16.17,0,0,1,5.32,11.46c0,.43.19.5.5.2,3.33-3.12,9.71-6.91,14.59-5.59.51.14.54.35.08.61l-.32.19a.41.41,0,0,0-.21.42c1.2,8.89-2.41,16.41-7.36,23.45a.57.57,0,0,0,0,.77,67.66,67.66,0,0,0,12.26,11.48c7.1,5.16,10.77,8.69,13,16.54.7,2.43.09,6.72-.51,9.25-3,12.81-12.9,18.41-23.25,24.79a.93.93,0,0,0-.46.83v.78c0,.73-.18.77-.53.13l-3.36-6.05a.44.44,0,0,0-.6-.17.47.47,0,0,0-.21.27l-.18.67a1.35,1.35,0,0,1-.47.7,69.52,69.52,0,0,0-11.75,11.63,1.13,1.13,0,0,0-.08,1.29,49.18,49.18,0,0,1,7,19.93,1.09,1.09,0,0,1-1,1.35,3.11,3.11,0,0,1-2.59-1q-8.28-7.19-16.07-14.9c-2.89-2.85-3-5.9.11-8.47a1.65,1.65,0,0,0,.53-.77c1.91-5.62,5.83-10,10.21-14.85.27-.29.22-.52-.15-.68a15.17,15.17,0,0,1-6.85-5.85.8.8,0,0,0-.77-.38,182.93,182.93,0,0,1-27.5-.09.59.59,0,0,0-.67.49l-.58,2.23a.54.54,0,0,1-.6.46,22.27,22.27,0,0,1-11.9-3.95c-3-1.95-8.51-3.18-11.31-6.72-10.2-12.92,2.79-20.27,12.11-25.74q15.34-9,25.74-14.46a6.79,6.79,0,0,1,2.93-.57.45.45,0,0,0,.5-.51l.09-5.68q0-.57.57-.42a1.2,1.2,0,0,1,.83,1.19,19.1,19.1,0,0,1-.33,6.11,1.36,1.36,0,0,0,1,1.64h0a52.74,52.74,0,0,0,18.2.83,1.08,1.08,0,0,0,.85-.56l5.66-9.68C327.37,227.48,327.25,227.26,326.74,227.24Zm-2.06,36c1.06,8.36-5.16,5.9-7.23,1.6a.45.45,0,0,0-.33-.27c-.2,0-.29.05-.28.25L317,267a.77.77,0,0,1-1.32.59,14.52,14.52,0,0,1-3.82-6.57,1.66,1.66,0,0,0-2-1.16,1.72,1.72,0,0,0-.44.19,57,57,0,0,1-16.84,7.15c-1.29.32-1.3.68,0,1.07l18.25,5.6a1.41,1.41,0,0,0,.93,0c7.41-2.43,9.23,2.9,12.74,7.65q1.31,1.77,2.22-.24a22.5,22.5,0,0,1,6.44-8.27,1,1,0,0,0,0-1.74,8.57,8.57,0,0,1-2.92-4.84c-.11-.49-.35-.57-.74-.24l-.79.69a1.66,1.66,0,0,1-2.69-.81l-1.83-6.61a.57.57,0,0,1,.28-.7c.42-.24.69-.14.81.31q1,3.54,2.1,6.69a.67.67,0,0,0,1.28-.4l-3.1-11.51a1.45,1.45,0,0,1,0-.85c4.92-14.8,19-23,18.29-40.39a.55.55,0,0,0-.57-.52h-.09A30.24,30.24,0,0,0,330.63,218a1,1,0,0,0-.4.84c-.06,11.51-9.17,19.79-13.18,30a.17.17,0,0,1-.26.1.37.37,0,0,1-.19-.18.56.56,0,0,1,0-.38,24.26,24.26,0,0,1,3.54-8.28.52.52,0,0,0-.54-.8,32,32,0,0,1-18.2-1.34,1.33,1.33,0,0,1-.8-.74q-1-2.13-3.37-.73L264,255.74a19.62,19.62,0,0,0-7.88,9,1.54,1.54,0,0,0-.13.89c.77,5.2,3,9.93,8,12.19,5.51,2.49,11.22,7.24,17.93,7.82.45,0,.65-.17.58-.61a33.44,33.44,0,0,1,3.4-20.24.43.43,0,0,0-.18-.58l0,0L279,261.5a.41.41,0,0,1-.2-.54.42.42,0,0,1,.41-.24,16.17,16.17,0,0,1,6.86,2.56.78.78,0,0,1,.35.91l-.26,1a1.84,1.84,0,0,0,1.31,2.25,1.74,1.74,0,0,0,1,0A143.15,143.15,0,0,0,309,259.29a.86.86,0,0,0,.52-.78c.24-5.45,3.78-5.39,5.24-9.38.09-.22.22-.25.39-.08l.19.19a.72.72,0,0,1,.17.84c-2.17,5.37-4.45,8.95-.69,14.39a.32.32,0,0,0,.45.08.33.33,0,0,0,.13-.26l0-4.79a.37.37,0,0,1,.71-.14,26.05,26.05,0,0,0,4.45,7.36c.05.06.15.07.3,0a.29.29,0,0,0,.2-.37.41.41,0,0,0,0-.08,11.28,11.28,0,0,1-1.76-6.89.3.3,0,0,1,.33-.28.32.32,0,0,1,.27.2l2.61,7.9a.47.47,0,0,0,.61.3.5.5,0,0,0,.33-.42l.29-3.47a.59.59,0,0,1,.29-.47l.29-.17C324.5,262.84,324.65,262.91,324.68,263.2Zm10.06,7.72a.49.49,0,0,1,.62.31.5.5,0,0,1-.08.46l-8.65,11.24a.44.44,0,0,0,.09.68A32.38,32.38,0,0,1,337.4,298c.15.39.39.46.73.22,11-7.92,21-13.34,23.71-27.94,1.64-8.83-6.81-16.13-13.11-20.79a65,65,0,0,1-12.13-11.95.25.25,0,0,0-.35,0l0,0A88.29,88.29,0,0,0,326.69,252a2.52,2.52,0,0,0,0,2.3,27.6,27.6,0,0,1,2.71,9.5,1.33,1.33,0,0,0,.42.88,15.73,15.73,0,0,1,3.85,6.1.44.44,0,0,0,.63.31Zm-23.28-15.83-1,3.57a.36.36,0,0,0,.24.44.35.35,0,0,0,.42-.21,16.18,16.18,0,0,0,1.05-3.64.36.36,0,0,0-.28-.43A.36.36,0,0,0,311.46,255.09Z"></path>
      <path d="M38.29,252.26c-4.72-16.9-10.28-33.89-13.12-50.58a31.06,31.06,0,0,1-.46-5.44.15.15,0,0,1,.14-.16.16.16,0,0,1,.16.14,276.17,276.17,0,0,0,8.65,35.07.1.1,0,0,0,.14.06.11.11,0,0,0,.07-.09L33.77,214c0-.46.19-.57.58-.31a.93.93,0,0,1,.34.85c0,10.83.68,22.22,3.81,33.11,3.83,13.31,7.23,26.4,7.78,39.73,0,.18-.07.24-.23.18a1.52,1.52,0,0,1-.28-.09.17.17,0,0,1-.13-.16C44.17,265.6,35.53,248.44,23.23,231a2.45,2.45,0,0,1-.5-1.18c0-.45.08-.5.37-.15a125.61,125.61,0,0,1,14.77,22.73.23.23,0,0,0,.32.07A.25.25,0,0,0,38.29,252.26Z"></path>
      <path d="M401.66,232.59c7.88-11.05,11-23.09,13.29-36.25a.1.1,0,0,1,0-.05.65.65,0,0,1,.26,0,.13.13,0,0,1,.07.15,73.73,73.73,0,0,1-6.74,27.11q-.34.75-6.09,10.66a73.63,73.63,0,0,0-9.94,34.71c0,.28-.14.35-.38.2a.37.37,0,0,1-.21-.34,65.82,65.82,0,0,1,5.39-27.53,38.3,38.3,0,0,0,2.39-7.2c1.42-6.6,2.77-17.72,8.15-22.39a.27.27,0,0,1,.38.05.28.28,0,0,1,0,.28c-3.75,6.87-5.46,12.93-6.87,20.53C401.36,232.87,401.44,232.9,401.66,232.59Z"></path>
      <rect x="369" y="225.59" width="1.2" height="24.22" rx="0.58" transform="translate(-48.93 103.76) rotate(-15)"></rect>
      <path d="M374.54,242.55q1.14-6.72.77.09a107.55,107.55,0,0,0,1.75,23.6.53.53,0,0,1-.18.59.24.24,0,0,1-.34-.05l0-.08Q372.64,253.71,374.54,242.55Z"></path>
      <path d="M446,283c-16.24-.39-32.44-1.52-48.68-.31q-.14,0-.21-.24c-.06-.2,0-.32.23-.36,15.22-2.32,29-1.06,46.16,0a7.23,7.23,0,0,1,2.59.58C446.61,282.91,446.58,283,446,283Z"></path>
      <path d="M252,288.77a92.08,92.08,0,0,0-24.2-1.53q-10.34.63-.1-1a72.32,72.32,0,0,1,11.28-.7c7.88.05,15.93,2.88,23.79,2.86,2.11,0,2.14.21.07.67A26.55,26.55,0,0,1,252,288.77Z"></path>
    </g>
  </g>
</svg>
