<?xml version="1.0" encoding="UTF-8"?>
<svg xmlns="http://www.w3.org/2000/svg" viewBox="0 0 236.67 266.01">
  <defs>
    <style>.cls-1{fill:#fff;}.cls-2{fill:#005aff;}</style>
  </defs>
  <g id="Layer_2" data-name="Layer 2">
    <g id="Layer_13" data-name="Layer 13">
      <path class="cls-1" d="M232.8,140.1c-8.19-14.94-26.34-34.47-26.34-34.47l-1.74-2.46L200,101.31,191.22,93l10.44-5.22-.9-9.61-9.18-15.93-11.7-25.34-6.66-4.38-19.49,2L155,38.76s-6.25,5.13-6.39,5.22-1.93,9.09-1.93,9.09-1.13,4.91-1.26,5.13-1,5.36-1,5.36l-.59,6.12,2,9.81,1.67,4.9L152,89.16l.54,2.3-4.86.36L140,94.34l-5.8,5-9.5,10.75-11.2,12.38-4.5,4.18-1,.41-.72-.5-.13-1.48,4.23-11.43,6.93-14.09V97a9.44,9.44,0,0,1-2-1c-.36-.36.18-1.89.18-1.89L118.46,92,122,85.29l-.59-3.91L118.28,78l2.34-3.64,3-.23,5.31,0,1-1.51.38-1.51.7-5.8-.7-1.71-1.6-1L125.7,62,120,59.82,79,36.24l-5-2.65L71.82,33l-2.5,3.15L67.16,45.2l-.68,14.44L69.77,78.9l2.62,5.49,3-.16,3.15-1.77,23.23-8.28,9.71-3.06,1.93,0L113,73.23l-3.61,3-3,.64-2.7,4L101,84.67s-2.1,4.64-2.1,4.69,1.74,4.09,1.74,4.09l4.11-.06L107.79,95l-4,2.22-7,3.24-2.58,5.16-3.84,18L90.06,138l2,7.44s3.18,3.72,3,3.73,8.52.47,8.52.47l12.66-7.5,10.56-9,5.7-5.76,1.44-.66-1.2,6-4.44,42-2,26.46,1.08,35.22,2.16,29.36h32.1L158.52,243l.66-11.88,16.72,34.58h34.58L196.56,224l-5.82-21.36-.87-.81-.63-.69,6.21-8.22,4.23-3.87s2.62,1.9,10.68-5.37c19.44-17.52,24.45-28,25.78-31.56S234,142.35,232.8,140.1Zm-18.3,13.28-13.86,12.91-6.24,4.44-1.08,1.74-1.08.78-3.72-.78-1.08-1.08.3-4.56,3.42-14.7s2.4-7.19,2.46-7.47,2.7-9.09,2.7-9.09l1.08-2.76,2,1.19,4.56,3.43,3.9,4.68,5.4,7.44,1.5,2.22Z"></path>
      <polygon class="cls-1" points="1.1 4.3 1.1 3.32 11.82 2.96 111.66 3.32 115.87 3.32 115.87 13.47 115.87 24.72 110.13 25.46 74.13 25.46 24.18 25.89 11.67 25.46 6.54 25.46 1.26 25.29 1.1 4.3"></polygon>
      <polygon class="cls-1" points="132.06 3.32 136.32 1.17 139.92 1.77 142.14 2.96 144 5.07 144.3 7.16 143.15 10.23 141.3 11.91 136.38 13.11 133.5 11.85 131.31 9.87 129.96 6.09 132.06 3.32"></polygon>
      <path d="M198.39,190.49a1.07,1.07,0,0,1,.85-.37c10.73-.24,28.29-22.56,34.14-31,4.39-6.34,4.15-10.61.73-17.68a120,120,0,0,0-27.92-37.31c-.37-.37-.37-.61.24-.73,3.42-.49,7.56-1.22,10.12-3.05,3.3-2.44,4-5.85,2.08-10.24-4.15-9.27-12.88-20.5-15.56-30.75-4.27-16-1.39-29.12-22.12-29-6.34,0-6.3-9.27-22.54-6.15-10,1.92-21.23,15.66-13.43,30.05a1.75,1.75,0,0,1,.12,1.1c-3.29,12.07-4.51,26.94,6.34,34.87.12.12.25.24.25.36a.53.53,0,0,1-.49.49c-9.15-.24-18.78,6.46-23.66,12.81a271.52,271.52,0,0,1-18.9,22.19.75.75,0,0,1-.73.12.62.62,0,0,1-.36-.85c3-8.66,7.92-17.08,11.34-25.73,2.31-5.49-6.35-4.76-9.15-4.51-.12,0-.24,0-.12-.13l6.83-10.24a2.21,2.21,0,0,0,.24-1.22,4.27,4.27,0,0,1,.73-3,.77.77,0,0,1,.86-.24c5.6,2.2-.13,10.73-2.32,13.66a.56.56,0,0,0,0,.61.58.58,0,0,0,.73.12c3.29-2.56,10-12.8,4-15.85A2.27,2.27,0,0,1,119.62,77a2,2,0,0,1,2.07-2.07h6.58a1.52,1.52,0,0,0,1-.49,10.78,10.78,0,0,0,2.44-8.78c-.86-5.73-8-4.39-12.07-6.95C104.5,49.29,89.38,40.75,74,32.83a3.23,3.23,0,0,0-4.14,1.1c-7.32,11-4.27,33.77-.37,46.82.73,2.56,2.56,5,5.37,4.14,9.26-2.56,21.58-7.07,36.82-13.29.37-.24.37-.12.25.25-1.22,2.31-2.57,3.65-4.15,3.9-4.39.73-5.24,4.75-7.32,7.8-2.68,3.9-5,7.68.13,10.61a1.76,1.76,0,0,0,1.34.24,5.72,5.72,0,0,1,3.53.37.27.27,0,0,1,.25.24.67.67,0,0,1-.37.61c-4.51,1.22-9.14,3.17-10.85,7.81-3.42,9.51-13.17,45.36,3.9,48.16,8.78,1.34,27.19-16,32.92-22.56a.75.75,0,0,1,.49-.12.68.68,0,0,1,.37.61,138.27,138.27,0,0,0-2.69,16.1c-4.23,39.55-6.54,80.65-.74,120.11h1.79c-1.8-21-2.88-42-3.12-63.17a.46.46,0,0,1,.12-.25c0-.12.25-.12.37,0,14,12.69,37.19,11.22,53.77,5.86a18.13,18.13,0,0,0,7.68-4.88c.12-.12.25-.24.37-.24s.61.12.73.48a504.23,504.23,0,0,0,19.11,62.2h.91l-19.78-64a.9.9,0,0,1,.13-1ZM145.47,71c.12-5.73.73-33,13.41-24,.24.12.36.25.61.12a.54.54,0,0,0,.36-.73,4.78,4.78,0,0,0-3.29-2.8c-.85-.25-1-.61-.12-1A68.25,68.25,0,0,1,171.8,37c.37-.12.49,0,.61.37l2.08,9.27c.12.36,0,.61-.49.48a4.23,4.23,0,0,0-4.88,2c-.12.12-.12.24,0,.12,0,.24.25.36.49.24,3.29-1.46,5.73-.49,7.07,2.93a53.5,53.5,0,0,0,12.93,18.78,1.92,1.92,0,0,1,.61,2.07c-1.1,4.14-5.49,8.66-10.12,6.09a.77.77,0,0,0-1,.25c-4.88,5.85-10.61,9.39-17.31,10.61C150.83,92.09,145.22,80.14,145.47,71Zm36,22.93a12.26,12.26,0,0,1-6.59,2.8c-3.9.49-5.85-2.32-7.8-5.12-.25-.37-.25-.73.24-.85a25.75,25.75,0,0,0,10-6.83c.49-.49.73-.49.73.36a10.9,10.9,0,0,0,3.42,8.66C181.8,93.31,181.8,93.55,181.44,93.92Zm-68.53-7.08a17.73,17.73,0,0,1-5.12,6.59.86.86,0,0,1-1.34,0c-.25-.37-.25-.61.12-.73,3.41-1.59,3.78-5.37,5.85-6.34C113,86.11,113.15,86.23,112.91,86.84ZM74.75,82.58a1.44,1.44,0,0,1-1.1,1.09,1.5,1.5,0,0,1-1.71-1.09c-2.93-12-7.19-37.44-.49-48a1.23,1.23,0,0,1,.61-.49,1.3,1.3,0,0,1,1.71.73,48.43,48.43,0,0,1,3.54,16,.93.93,0,0,1-.74,1l-6.09,1.71a.9.9,0,0,0-.61.85v9c0,.73.49,1.22,1.1,1.1l5.36.73a.8.8,0,0,1,.73.85A76.58,76.58,0,0,1,74.75,82.58ZM77.55,54l-.37,9.52c0,.36-.24.61-.61.48h-.12c-2.56-.12-4.63-1.46-4.63-2.92L72.06,56c.13-1.59,2.2-2.69,4.88-2.56h.12A.55.55,0,0,1,77.55,54Zm32.56,17.08c-11.34,3.41-22.56,7.43-33.54,11.82a.23.23,0,0,1-.36,0c-.12-.12-.24-.24-.12-.48a11.73,11.73,0,0,0,1.34-3.78c2.56-14.51,3.78-28.29-1.1-42.44-.24-.49-.12-.61.37-.36,13.41,7.92,26.94,15.6,40.6,22.92,3.78,2.07,6.1,4.88,11.46,4.51H129A1.52,1.52,0,0,1,130.35,65l-.86,7.44a.8.8,0,0,1-.73.85A11,11,0,0,1,120.23,71a1.44,1.44,0,0,0-1.22-.24C115.72,71.36,113.89,69.9,110.11,71.12Zm1.34,5a4.52,4.52,0,0,0,2.44-2.92,1.08,1.08,0,0,1,1-.61l4.39.61c.73.12.85.49.61,1.1L115.47,81a1.06,1.06,0,0,0-.24.86,5.68,5.68,0,0,1-.37,2.92.44.44,0,0,1-.61.25.45.45,0,0,1-.24-.61l.36-1.22a1.1,1.1,0,0,0-.12-.61l-3-5.49A.67.67,0,0,1,111.45,76.11Zm-4.76,1.71,1.47-.85a.46.46,0,0,1,.73.12l.12.12c2.32,3.78,3.78,7.07,3.29,7.44l-.36.24c-.61.25-2.93-2.43-5.25-6.21l-.12-.13A.46.46,0,0,1,106.69,77.82ZM105,80.5a.46.46,0,0,1,.73.13l3.78,5.48a1.31,1.31,0,0,1-.13,1.71,1.44,1.44,0,0,1-1.82-.12,8.67,8.67,0,0,1-2.81-6.83C104.74,80.63,104.86,80.5,105,80.5Zm-1.71,11.59a.74.74,0,0,1-.86.36A2.72,2.72,0,0,1,100.35,90c-.12-.73.12-.85.61-.36L103,91.36C103.28,91.6,103.4,91.84,103.28,92.09Zm-1.22-6.83a.83.83,0,0,1,1.46-.12,8.11,8.11,0,0,0,3.9,4.39.66.66,0,0,1,.37.61.79.79,0,0,1-.73.73C104.25,91,101.69,87.82,102.06,85.26ZM185.7,204.51c-9.75,5.61-26.7,5.73-37.55,4.51a36.89,36.89,0,0,1-19.88-8.41,2.66,2.66,0,0,1-1-2.44c2-18.53,3.78-37.31,5.36-56.46.74-8.53,3.05-18.41,7.08-29.63.12-.36,0-.48-.74-.36-.24,0-.36.24-.48.49a80.68,80.68,0,0,0-4.39,10.6c-3.17,9.27-21.22,20.73-29.63,25.12s-13.42-3.29-13.42-10.85c.13-12.92,1.83-24.39,5-34.14,1.47-4.76,16.46-6.1,21-5.85.24,0,.36,0,.48.12a1.16,1.16,0,0,1,.37,1.46c-3.78,7.07-11,19.51-11.22,27.56a1.67,1.67,0,0,0,.25.85,1.53,1.53,0,0,0,2,.37c13.53-9.27,20-25.61,34.63-33.29,5-2.68,14.63-1.71,20.36-2a.9.9,0,0,1,1,.37c4.76,5.85,10.73,8.9,17.2,2.92a.74.74,0,0,1,1,0,37.5,37.5,0,0,0,20.12,8.17,2.51,2.51,0,0,1,1,.49A164.66,164.66,0,0,1,234,143.54c2.8,5.12,2.32,9.27-1,13.66-9.38,12.68-18.9,23.53-31,31.58-.12.12-.24.12-.48.12-.49,0-.74-.36-.74-.85.49-6.46-1.7-11.59-6.7-15.49-.49-.24-.49-.61,0-.85a71.89,71.89,0,0,0,21.21-18.53.92.92,0,0,0,.13-1c-3.3-6.83-12.93-21.22-21.46-20.73a1.18,1.18,0,0,0-1,.37.12.12,0,0,0-.12.12c-.12.24,0,.49.24.49l2.44.49a.63.63,0,0,1,.49,1,186.34,186.34,0,0,0-9.88,36c-.12.85-.73,1.1-1.7.73a1.46,1.46,0,0,0-1.22.12,3.55,3.55,0,0,0-1.71,3.54,1.54,1.54,0,0,0,.49,1.1l2.44,2.44a1,1,0,0,1,.12,1.22c-3.05,4.39-11.59,9.14-16.46,13.41l-.25.24a2.73,2.73,0,0,0,.37,3.9q2.92,2.38,6.58,5.12c2.2,1.59,4.15,1.71,6.59,2.69a2.1,2.1,0,0,0,1.22,0l2.68-.73C187.78,202.92,187.9,203.29,185.7,204.51Zm7.44-32.68a1.32,1.32,0,0,1-1.7.86c-2.08-.61-3.3-1-2.81-3.66a232.62,232.62,0,0,1,8.78-34.39c.12-.12.12-.24.24-.36a.81.81,0,0,1,1.22,0,145.94,145.94,0,0,1,15,17.55,1.12,1.12,0,0,1-.12,1.35c-6,5.6-12.19,11.09-18.66,16.33A6.78,6.78,0,0,0,193.14,171.83Zm-6.09,29a1.25,1.25,0,0,1-1.1.25c-2.2-.49-7.93.6-9-.37-.37-.24-.37-.49.12-.49a12.24,12.24,0,0,0,7.44-3.29c.24-.24.24-.37.12-.85a.45.45,0,0,0-.61-.25,31,31,0,0,1-10.37,2.2,1.67,1.67,0,0,1-.85-.25c-.24-.12-.24-.24-.37-.36-.24-.37-.12-.49.25-.61a20.56,20.56,0,0,0,9.75-4.51.57.57,0,0,0,.12-.74l-.12-.24c-.12-.12-.36-.24-.49-.12A24.67,24.67,0,0,1,170.34,195a.44.44,0,0,1-.36-.12.59.59,0,0,1,0-.86c4.51-4.63,10.12-7.8,14.51-12.68,1.95-2.31,2.56-4.88-.25-6.7a1.19,1.19,0,0,1-.49-1.47,1.22,1.22,0,0,1,1.59-.61,13.49,13.49,0,0,0,7.56,1.1,1.19,1.19,0,0,1,1.1.49,25.65,25.65,0,0,1,5.24,13,1.36,1.36,0,0,1-.37,1C194.61,192.07,192.41,197.07,187.05,200.85ZM161,232.07c-1.95-3.91-5.85-5.37-9.75-6-.25-.12-.61.12-.73.37a.76.76,0,0,0,.36,1l6.59,3a.92.92,0,0,1,.61,1A114.35,114.35,0,0,0,161,265.73h1.42a240.53,240.53,0,0,1-2.89-31.59c0-.12.12-.24.24-.37a.49.49,0,0,1,.49.25,202.15,202.15,0,0,0,12.44,27.31,30.09,30.09,0,0,0,2.83,4.4.87.87,0,0,1,.09.11c.13.12.37.25.49.12a.51.51,0,0,0,.25-.23.42.42,0,0,0,0-.38Q169,248.53,161,232.07Z"></path>
      <path d="M133.15,13.69A52.94,52.94,0,0,1,125.1,23a.63.63,0,0,1-1-.12.58.58,0,0,1,0-.85l7.68-9.64a.59.59,0,0,0,0-.85c-7-7.8,4.39-15,10.85-9.63,7.68,6.22-.61,13.78-8.53,11.46A.77.77,0,0,0,133.15,13.69Zm10-6.83C143,4.05,140.22,2,136.93,2.1s-5.85,2.56-5.61,5.37,2.93,4.87,6.22,4.75S143.27,9.66,143.15,6.86Z"></path>
      <path d="M4.39,2.35h108a1,1,0,0,1,1,1h0a1,1,0,0,1-1,1H4.39a1,1,0,0,1-1-1h0A1,1,0,0,1,4.39,2.35Z"></path>
      <ellipse cx="1.1" cy="14.78" rx="1.1" ry="11.83" transform="translate(-0.03 0) rotate(-0.1)"></ellipse>
      <ellipse cx="115.87" cy="13.82" rx="9.14" ry="1.22" transform="translate(101.84 129.67) rotate(-89.9)"></ellipse>
      <path d="M4.39,25.27a.25.25,0,0,1,0-.49H7.32q52.86-.91,105.71-.24a1.54,1.54,0,0,0,.73-.12c.74-.25,1,0,.74.85a.92.92,0,0,1-.61.49c-35.12,1.58-70.85.73-106,.36a3.62,3.62,0,0,1-1.22-.24A5,5,0,0,0,4.39,25.27Z"></path>
      <path class="cls-2" d="M45.48,53.68c5.12-4.76,8.05-12.32,2.32-17.92-.49-.49-.37-.61.24-.49a3.94,3.94,0,0,1,3.29,2.31c2.93,5.73,2.08,10.86-2.56,15.49a.74.74,0,0,0,0,1,12.76,12.76,0,0,1,3.3,11.71c0,.24-.37.49-.61.49h-.13l-.48-.12c-.12,0-.25-.13-.25-.37.73-4.88-1-8.53-5.12-10.85C45.24,54.29,45.12,54,45.48,53.68Z"></path>
      <path d="M148.27,56.36c2.56-3.41,6.22-1.83,7.32,2a.54.54,0,0,1-.49.73.53.53,0,0,1-.61-.12l-1.83-2.07a.74.74,0,0,0-.85-.24l-2.69.85a.69.69,0,0,1-.85-.49A.41.41,0,0,1,148.27,56.36Z"></path>
      <path d="M154.49,71.36a1.38,1.38,0,0,1-.73-1.46,30.87,30.87,0,0,1,5.36-14.39c.12-.25.49-.25.73-.12s.25.36.25.61l-4.63,13c-.13.25,0,.37,0,.61C156.68,71.73,156.32,72.33,154.49,71.36Z"></path>
      <path d="M166.2,60.26c2-3.17,7.43-1,8.41,2.08a.72.72,0,0,1-.49,1,.81.81,0,0,1-.85-.24,5.87,5.87,0,0,0-6.59-2,.47.47,0,0,1-.61-.37C166.07,60.51,166.07,60.39,166.2,60.26Z"></path>
      <ellipse cx="152.16" cy="62.27" rx="1.1" ry="0.73" transform="translate(1.21 127.42) rotate(-45.6)"></ellipse>
      <ellipse cx="166.63" cy="65.29" rx="0.98" ry="0.85" transform="translate(1.17 133.49) rotate(-43.8)"></ellipse>
      <path class="cls-2" d="M39.51,84.65A15.1,15.1,0,0,1,44.26,96a.56.56,0,0,1-.61.49c-.24,0-.48-.12-.48-.37A16.33,16.33,0,0,0,36.7,85.5a.66.66,0,0,1-.24-1c2.8-4.64,3.66-6.59,3.17-12.07a.61.61,0,0,1,.49-.61c.24,0,.48.12.48.36A11.39,11.39,0,0,1,39.26,83.8,1.29,1.29,0,0,0,39.51,84.65Z"></path>
      <path d="M165.83,80.75c-7.8,9.75-20.61-1-15.36-5.49a1.17,1.17,0,0,1,1.09-.24,10.14,10.14,0,0,0,8.17-1.71C166.32,68.43,170,75.51,165.83,80.75ZM151,77.21c-1.09,7.93,11.71,7.56,14.51-.73a2,2,0,0,0-1.22-2.56,2.4,2.4,0,0,0-1.58.12l-6.1,3.17a2.56,2.56,0,0,1-1.34.25l-3.53-.74C151.2,76.72,151.08,76.85,151,77.21Z"></path>
      <path class="cls-2" d="M60.11,97.82a15.86,15.86,0,0,1,12.2,5.85.58.58,0,0,1-.12.73.52.52,0,0,1-.61,0c-3.3-2.44-10-6.34-13.66-2.56-.49.49-.73.37-.85-.24a3.86,3.86,0,0,1,.24-2.07,2,2,0,0,0,.12-1.22A8.58,8.58,0,0,0,52.68,91c-.37-.24-.37-.37,0-.61,3-1.58,6.46,4.51,6.82,6.83C59.5,97.7,59.75,97.82,60.11,97.82Z"></path>
      <path d="M56.57,137.54a3.54,3.54,0,0,1-7.07,0h0a3.54,3.54,0,1,1,7.07,0Zm-2.44-.37a1.71,1.71,0,0,0-2.19-1h0a1.71,1.71,0,0,0-1.22,2.07h0a1.72,1.72,0,0,0,2.19,1h0a1.67,1.67,0,0,0,1.22-2.08Z"></path>
      <path d="M176.32,265.73a.51.51,0,0,1-.25.23c-.12.13-.36,0-.49-.12a.87.87,0,0,0-.09-.11Z"></path>
    </g>
  </g>
</svg>
