<svg id="Layer_1" data-name="Layer 1" xmlns="http://www.w3.org/2000/svg" xmlns:xlink="http://www.w3.org/1999/xlink" viewBox="0 0 500.94 475.66"><defs><style>.cls-1{fill:url(#linear-gradient);}.cls-2{fill:#fff;}.cls-3{fill:url(#linear-gradient-2);}</style><linearGradient id="linear-gradient" x1="284.9" y1="-1174.82" x2="241.85" y2="-1205.94" gradientTransform="translate(0 1274.21)" gradientUnits="userSpaceOnUse"><stop offset="0" stop-color="#1616e4"/><stop offset="1" stop-color="#439fd2"/></linearGradient><linearGradient id="linear-gradient-2" x1="272.49" y1="-1180.21" x2="243.74" y2="-1205.91" xlink:href="#linear-gradient"/></defs><g id="l6RPfU8SUFOfg6KFiWE7VWZ"><path id="pn1UpyDIT" d="M361.79,467.42c0-1.8.5-2.4,5.2-6.5,2.8-2.4,7.8-6.4,10.9-8.8,5.1-3.9,7-5.3,10.6-7.8,2-1.4.5-2.4-3.7-2.4h-3.7l-2.8-3.5a255.66,255.66,0,0,1-26.5-40.2l-2.4-4.7-.5,4.3c-.7,6.2,0,20.5,1.4,28,.6,3.5,1.3,7.9,1.5,9.9l.3,3.5-2.4.8a7.69,7.69,0,0,0-2.7,1.2,77.89,77.89,0,0,0,.9,8.1c.6,4.3,1.1,8.8,1.1,9.9,0,2.1-.1,2.1-3,2.7-22.9,4.7-46.1,7.8-50.3,6.7-1.2-.3-1.5-.7-1.5-2.2a5.21,5.21,0,0,1,.5-2.5c1.4-2.1,21.4-11.2,34.1-15.5,4.9-1.7,5.5-2,5.6-3.4s.1-1.5-2.4-1.5c-4,0-6.3-.6-6.6-1.8a1.38,1.38,0,0,0-1.3-1c-1,0-1.3-.9-8.5-27.7-5-18.3-10-38.9-11-45-.9-5.9-1-9.9-.9-36.3.1-16.3.3-30.2.4-30.8.2-1-.3-1.3-4-2.5-2.5-.8-4.4-1.8-4.6-2.3-.7-1.9-1-29.8-.3-39a309.35,309.35,0,0,1,4.3-33.9c1.2-5.4,1.3-6.2.5-6.7-1.7-.9-14.8-14.2-19.8-20-7.3-8.5-17.1-21.9-19.8-27.2-.5-1-1.3-1.8-1.8-1.8-.9,0-2-1.7-2-3.2a5.78,5.78,0,0,0-1.4-2.7,5.5,5.5,0,0,1-1.4-2.9c0-1.7-3.2-2.7-8.4-2.7-4.2,0-6.5-.9-8.2-3.1-.7-1-1.8-1.4-3.9-1.7-5.1-.6-8.1-4.3-7.6-9.4.7-7.1,1.6-10.1,3.1-10.1,1.2,0,.9-1.3-1-5a22.51,22.51,0,0,1-2.1-6.7l-.4-3.3h2.3c2,0,3.5.8,10.3,5.5,12.9,9,19.9,15,26.9,23.1,3.5,4,5,5.4,6.1,5.4a10.51,10.51,0,0,1,3.5,1.1c5.1,2.6,40.8,24.4,43.9,26.9.6.5,1.9.5,4.9.1,2.2-.3,3.8-.8,3.5-1s-2.4-.9-4.5-1.7c-4.6-1.5-6.8-3.2-8.4-6.5-1.3-2.7-2.4-10.1-2.4-16.4,0-3.5-.2-4.3-1.1-4.8-2.1-1.1-3.1-5.1-2.8-11.5.2-4.3.5-6,1-6.3.7-.5.6-.6-.3-.6-1.9,0-6.2-3.2-7.3-5.4-3.2-6.6-2.5-17.6,1.4-22,2.8-3.2,4.7-3.9,10.3-3.9a28.33,28.33,0,0,1,14.1,3.5l2.8,1.4.9-1.2c.7-1,1.4-1.2,4.8-1.2,2.5,0,4.7.3,5.7.9,1.6.8,1.7.8,1.7,0,0-.6.6-.9,2.2-.9,2,0,2.3.2,3,1.8a23.44,23.44,0,0,0,3,4.7c2.4,3.1,5.4,4.7,13.9,7.7,7.2,2.5,11.2,5.9,14.6,12.5,1.4,2.8,1.6,3.5,1.6,10.3s-.1,7.5-1.6,10.8c-1.3,2.9-1.6,4-1.2,6.2,1.3,8.5-3.7,14.1-12.4,14.1-5.4,0-6.3-.8-6.3-5.2a22.5,22.5,0,0,1,.7-5.6c.6-2.1.9-2.2,3.2-2.5,5-.5,7-3.5,5.1-7.1-1.2-2.2-2.2-2.4-3.3-.7a3,3,0,0,1-2.5,1.2,2.65,2.65,0,0,0-2.7,1.7,2.65,2.65,0,0,1-2.7,1.7,9.92,9.92,0,0,0-3.9,1.3c-1.8,1-3.1,1.3-7.1,1.3-5.7,0-8.4-1-13.2-5.2a18.65,18.65,0,0,0-3.6-2.6c-1.1,0-.5,3.4.9,5.1a5.85,5.85,0,0,1,1.4,4.1c0,1.7.2,2.4.9,2.4,1.2,0,2,1.9,2,4.8,0,4.1-.2,4.4-4.1,4.4h-3.4v-2c0-1.1-.2-2-.6-2-.9,0-.6-4.1.4-5.3.8-.9.8-1,0-1-1.3,0-3.1-2.6-3.6-5.1l-.3-2.2-3.3.3a26.25,26.25,0,0,0-3.3.4c-.3.2,1,8.8,1.8,11.8,1.2,4.7,3,6.5,7.8,8.1a14,14,0,0,1,6,3.5c2,2.1,2.2,2.5,2.5,6.5.3,3.8.6,4.4,2.1,5.8a5.33,5.33,0,0,0,6.2.9c1.8-.9,5.6-4.7,5.6-5.5a7,7,0,0,1,1.2-2.2c1.2-1.5,1.5-1.6,4.5-1.3,7.3.7,9.4,1.3,11.1,3.2,1,1.2,1.6,1.5,1.6.9s.6-.9,2.5-.9c3.9,0,9.1,2.9,14.7,8.3a60.81,60.81,0,0,1,13.5,18.1c6.2,11.8,8.6,22,8.6,35.9,0,4.9-.2,10-.6,11.4l-.6,2.4h6.2l.4,4.5c1.4,17.5,2.5,24.8,5.8,39.7,1.6,7,2,10,1.7,11.9l-.4,2.5-5.6,1.5c-10,2.8-21.6,4.5-29.5,4.5-2.8,0-3.5.2-3.5.9,0,1.7,4.7,24.2,7.8,37.4,1.7,7.3,5.6,22.6,8.6,34s6.2,23.1,6.9,25.9c1.8,6.7,1.8,9.1-.1,11.5-1.6,2.1-1.8,1.4,2.2,12.6,1.4,4.1,2.7,8.4,2.7,9.6v2.2l-4.1,1.2c-2.3.7-5.8,1.7-7.7,2.3-3.3,1-10.3,3.1-24.7,7.3a55.41,55.41,0,0,1-8.5,2C362,469.42,361.79,469.22,361.79,467.42Zm-20.6-30.9c5.1-1.2,5.2-1.3,4.9-2.8-.1-.8-.7-4.1-1.3-7.3-1.4-7.6-1.4-29.1-.1-36.6l.9-4.9-1.7-4.6a206.24,206.24,0,0,1-7.7-25.4c-5.6-24.2-9.5-35.2-14.4-40.6-1.4-1.6-2-2.8-2-4,0-1.7.1-1.8,2.2-1.8,3.1,0,5.9,2.9,9,9.5,3.3,6.8,5.4,13.4,9.3,29,6,24.3,11.8,39,22.9,58.3,5.1,8.9,20.6,31.7,21.6,31.7,1.3,0,9.6-4.9,12.1-7.2l3.1-2.9-2-6.6c-7.7-25.4-13.2-46.7-17.3-66.4-2.2-10.5-5-26.7-5-29.2V323l-5-.3c-17.4-1.2-27.6-2.7-36.3-5.5l-3.3-1-1.8-4.6c-1-2.5-2.3-6.3-2.9-8.5l-1.1-3.9-3.7.3c-2.1.2-5.8.3-8.2.3h-4.5v26.4c0,33.1.4,36.6,6.5,60.6,8.6,34.2,11.5,45.9,11.8,48.6l.3,2.9,4.3-.4A49.81,49.81,0,0,0,341.19,436.52ZM384.59,317a155,155,0,0,0,23.6-3.3c3.2-.7,5.9-1.3,6-1.4a69.52,69.52,0,0,0-1.8-7.6c-3.3-11.7-5.1-25.5-5.6-41.6,0-.4-.2-.6-.5-.5s-5.9.7-12.6,1.3c-14.9,1.2-47,1.4-60.6.3-5.2-.4-9.5-.6-9.6-.6-.6.6,4.1,22.1,6.9,32,1.8,6.3,3.5,12.6,3.9,13.9.6,2.8.5,2.7,10.5,4.7,10.5,2.1,25.6,3.6,32,3.1C377.89,317.42,381.39,317.22,384.59,317Zm-70.2-23.4c-.3-1.3.6-26.7,1.1-31.8l.3-3.3h-4.2v-8c0-9.8,1.5-41.2,2.4-48.5.7-6.1.7-6.3.2-9.3a9,9,0,0,1,1-5.2l1.4-3.1-9.9-5.8c-11.3-6.7-24.8-15-32.3-19.9-2.8-1.8-5.2-3.3-5.3-3.3s-.2.5-.2,1-1.3,2.2-2.8,3.9l-2.8,2.8,2,2.9c5,7.1,8.1,11.3,12.2,16.4,2.4,3,5,6.2,5.8,7.3,3.2,4.1,12.2,13.6,19.2,20.5,5.1,5,5.6,5.7,5.6,7.7,0,1.8-.2,2.1-1.3,2.1-1.3,0-1.4.3-3.2,13.1-2.6,18.1-3,23.3-3.4,42.8l-.3,17,5.1.7c2.8.4,5.5.8,6,.9C313.79,295,314.69,294.82,314.39,293.62Zm56.2-33.8c2.2-.3,2.9-.7,3.9-2.4,1.8-3.1,3.5-8.5,3.5-11.4,0-5.2-4.2-14.5-8-17.9a3.9,3.9,0,0,1-1.3-3.3c0-2.1.1-2.2,2-2.2,3.9,0,9.7,7.2,11.5,14.1,1.4,5.3,1.2,14.1-.5,19l-1.3,3.9,4.7-.3c2.5-.2,7.1-.5,10.2-.7l5.5-.3.4-6.7c1.2-20.8-7-42.5-21.4-56.7-5-5-6.6-6.2-9.2-7.6-2.8-1.4-3.1-1.2-3.1,2,0,3.6-1.1,6.4-3.1,7.7-1.2.8-1.5,1.5-1.5,3.2-.1,2.4-.3,3-4.4,13.1a187.15,187.15,0,0,0-11,34.9c-2.8,12.7-2.8,11.4.3,11.7C352.79,260.12,367.89,260.22,370.59,259.82Zm-29.4-7.5c1.9-14.7,6.1-29.1,13.5-46.5,2.2-5.2,2.5-6.5,2-7.4-1-1.6-.9-5.1.2-5.1A7.06,7.06,0,0,0,362,190c.7-1.5.7-1.8-.2-3.3a8.1,8.1,0,0,0-2.5-2.4c-1.7-.9-2-.5-4.2,5.8-4.8,13.8-10.6,38.1-14.4,59.5-1.6,9.2-1.7,10-1,10C340.09,259.62,340.69,256.32,341.19,252.32Zm-18.6-46c1-4.7,2.6-11.8,3.5-15.6s1.6-7,1.5-7a9.44,9.44,0,0,0-1.8.2c-1.6.2-2,.8-3.5,3.7l-1.7,3.5,1.3.9c1.7,1.2,1.8,4.5.1,5-2.4.7-2.9,3.2-3.5,15.4-.3,6.4-.6,13.6-.8,16-.2,3.6,0,2.8,1.3-4.6C320,219,321.49,211.12,322.59,206.32Zm-60.2-51.5,1.8-1.7-5.6-5.6c-3.3-3.3-5.9-5.5-6.3-5.2a3.27,3.27,0,0,0-.6,2.1c0,1.4-.3,1.7-1.8,2a12.14,12.14,0,0,1-7.8-1.4l-1.9-1.1v1.3c.1,3.1,4,5.6,8.9,5.6,3.8,0,6.1.9,6.9,2.6.4.9,2.5,2.4,4.3,3.1C260.39,156.42,261.29,155.72,262.39,154.82Zm89.4-7.7a10.25,10.25,0,0,0,2-3.2c.5-1.2,1.1-1.9,1.7-1.9,1.3,0,1.4-2.2.1-7.4l-.9-3.9-5,.2-5,.3-5.9,5c-3.2,2.7-5.9,5.1-5.9,5.2s.7.8,1.8,1.4a31.21,31.21,0,0,1,4,3.1,19.9,19.9,0,0,0,5,3.1c2.5.9,2.9,1,4.8.2A17.06,17.06,0,0,0,351.79,147.12Zm-35.3-5.6c.3-.5,3.2-2.8,6.2-5.3l5.6-4.4-7.1-.2a49,49,0,0,1-8-.7c-.9-.4-1-.1-1,3.9,0,4.3.7,6.6,2.5,8.9.5.7.7.6.9-.3A4.75,4.75,0,0,1,316.49,141.52Zm-74.9-8.7c-2.5-2-3.2-1.9-1.6.2a3.22,3.22,0,0,0,2.4,1.5C243.69,134.52,243.59,134.42,241.59,132.82Z"/><path id="phitkSdsJ" d="M55.49,326.52c-3.1-1.4-6.2-4.7-8.3-8.9-1.6-3.1-1.8-3.2-1.8-1.6,0,2.5-2.2,4.1-5.6,4.1h-2.6l.2-2.6c.2-2.6.2-2.6-1.7-2.6s-1.9-.1-1.9-2.2c0-2.7.4-2.9,6.5-3.3l4.4-.3v-3c0-2.5-.2-3.1-1.2-3.3s-1.2-.8-1.2-3.1c0-5,4-10.5,9.8-13.3,2.7-1.3,4-1.6,9.2-1.7,7.6-.2,11.7,1,12,3.5a5.29,5.29,0,0,0,2.2,3.1c3.3,2.5,4.8,4.4,5.8,7.3l.9,2.8h13.3l-.4-1.8c-1.5-7.3-1.4-33.2.1-40.2l.5-2,7.1-.1c4-.1,15.1-.5,24.8-1s20-.9,22.9-.9c4.1,0,5.3-.2,5.3-.8,0-1.3,1.6-2.2,4.1-2.6l2.3-.3-4.6-3.9c-2.5-2.1-7.4-6.6-10.8-9.8-5.7-5.5-6.3-6.2-6.8-8.8-.3-1.6-.7-12.6-1-24.5l-.3-21.6-.5,12.9c-.2,7.1-.7,17.3-1,22.7-.6,9.5-.6,9.8.6,11,1,1,1.2,2,1.2,4.8,0,4.6-.7,5.4-4.9,5.4-2.7,0-3.2-.2-4.3-1.5-2.2-2.8-1.2-9.5,1.4-9.5.6,0,.8-.7.7-2.4,0-1.4-.2-2.1-.3-1.7-.5,1.3-3.5,2.4-6.2,2.4-3.2,0-4.4-1.4-4.4-5.3a5.76,5.76,0,0,1,1.7-4.7l1.7-2-.8-12.6c-1.4-21.9-3.1-54.2-3.5-68.7l-.4-13.9h-4.1c-4.8,0-21.8,1-25.9,1.5l-2.7.3-5.5,7.4c-3,4-5.9,7.7-6.3,8.1-.6.5-.9,1.8-.9,4.1,0,2.8-.2,3.5-1.3,4.2-1.6,1.2-5.1,1.2-7.7.1-4.7-2-2.6-10.7,2.7-10.7.9,0,1.7-.2,1.7-.5,0-.6,6.9-10,10.4-14,2.7-3.2,2.9-3.2,7-3.9a164.81,164.81,0,0,1,28.1-1.2c3.6.3,6.7.5,6.8.5a3.14,3.14,0,0,1,.1,1.2c0,.6.4,1.2.9,1.2a1,1,0,0,1,.9,1c0,.5.3,4,.6,7.6.9,11,2.8,44.3,3.5,61.1,1,27,1,27.3,2.7,28.1,1.3.6,1.4.5,1.6-1.2.2-1,.6-12,.9-24.6s.9-29.2,1.2-37.2.6-18.9.6-24.4l.1-10,4.8-6.5c2.7-3.5,6.7-8.6,8.9-11.3,3.8-4.6,4-5.1,4.2-8,.1-2.4.3-3.3,1.4-4.1,2.2-1.8,7.4-1.3,8.8.9.7,1,.5,7.6-.2,8.3a5,5,0,0,1-2.8.7c-1.2,0-2.2.3-2.4.7-.6,1.4-9,12.6-13.5,17.8l-4.6,5.4-.3,29.1c-.2,18-.1,25.9.2,20.7.6-11.2,2.5-29.6,4-39.3l1.2-8h4v3.6c0,2-.5,8.3-1.2,14-2.1,19.1-3,34.9-3.3,59.6l-.3,24.5,11.7,10.5c18.9,16.9,17.3,15.2,17.9,18.7.8,4.8,2.2,18.2,2.2,20.7,0,1.8.2,2.2,1,2.2a4.2,4.2,0,0,1,2.3,1.3c1.7,1.8,1.8,8.4.2,9.8s-6.6,1.3-7.9-.2-1.8-5.7-1-8c.4-1.3.3-3.2-.2-7.1-.5-3-1-8.3-1.2-11.8-.3-5.4-.6-6.5-1.4-7.1-1-.6-1.1-.5-1.1,1.6,0,3.5-1.3,4.7-4.7,4.7-2.2,0-3.3-.3-4.2-1.2-1.2-1.1-1.4-1.1-16.1-.3-8.2.5-21.2,1-28.6,1.2l-13.7.4-.1,8.4c0,4.6,0,13.4.1,19.5l.1,11.1h-1.8c-1.7,0-1.8.1-1.8,2.2v2.2l-5.6.4c-8,.5-7.7.4-7.7,4,0,7.3-3.1,12-10.4,15.5-3.3,1.6-4.4,1.8-9.2,2C58.79,327.62,57.29,327.52,55.49,326.52Zm12.1-5.7c5.9-3,9.2-6.6,9.9-10.9.3-2.2.3-2.5-.9-2.5-1,0-1.2.3-1.2,2.7,0,5.1-3.8,8.8-9.7,9.3-9.7.9-14.8-5-13.7-15.9.4-4.1,1.3-6.1,3.3-8,2.3-2.1,3.7-2.5,8.2-2.5,4.3,0,4.4-.1,4.4-1.4s-.3-1.4-2.1-1.8c-6.1-1.2-14.6,3.2-17.6,9-1.4,2.8-1.4,4,.1,4,1,0,1.2.4,1.2,2.8,0,5.3,5.1,13.3,10.1,16C61.39,322.62,64.69,322.32,67.59,320.82Zm1.7-9.9c2.5-2.8,2.5-3.4.3-3.4-1.6,0-1.7-.2-1.7-2,0-2.1.6-2.4,6.5-3.5l2.1-.3-.9-1.7c-1.1-2.1-2-2.7-2-1.2,0,1-.3,1.2-2,1.2a10.36,10.36,0,0,1-4.3-1.2c-2.7-1.4-4.3-1.2-6.9.9-4.4,3.7-3.3,11.6,1.8,13.8C64.59,314.52,66.69,313.72,69.29,310.92Z"/><path id="pIU2QrLBV" d="M197.79,314.82c-2.2-1.2-2.8-1.2-19.3-.9-9.3.2-18.8.2-21-.1l-4-.4-.1-4.3c-.3-10.9-2.3-31.2-3.1-31.9-.1-.1-4.3.1-9.3.3s-15,.4-22.2.3l-13.1-.2-.2-2.1-.2-2.1,6.2-.4c3.4-.2,14.5-.5,24.7-.7l18.5-.3,1.2,6c1.4,6.9,2.5,21.7,2,27.1l-.3,3.8,19-.1c18.4-.1,19.1-.1,19.5-1.2,1.3-2.9,8.9-4.3,11.2-2,.9.9,1.2,1.9,1.2,4.6,0,3-.2,3.6-1.5,4.6C205,316.52,200.89,316.52,197.79,314.82Z"/><path id="p1CvRu0hma" d="M197.09,296c-1.4-.6-1.4-1-2.7-24.7l-.7-13.4-2.4-2.8c-2.7-3.2-13.4-13.7-25.3-24.8-7.5-7-8.2-7.9-8.2-9.7s.1-2,2.2-2,4.3,1.4,9.6,6.2c1.3,1.2,4.4,4,6.9,6.2,8.7,7.8,17.7,17.1,21.1,21.9,1.9,2.6,2,2.9,2,8.2,0,3.1.3,11.2.5,18l.5,12.5,1.5-.2c2.4-.4,25.6-1.4,32.2-1.4h5.9v-1.7c0-2.4,1.8-3.5,5.5-3.5,4.6,0,5.5,1,5.5,5.7,0,5-.8,5.8-5.2,5.8a9.08,9.08,0,0,1-4.3-.8c-.9-.6-2.4-.7-7.6-.3C223.39,296.22,198.49,296.62,197.09,296Z"/><path id="paL04DdBg" d="M63.79,280.12c0-4.6,3-8.9,6.2-8.9,1.8,0,1.9.1,1.9,2.3a13.78,13.78,0,0,1-1.6,5.5c-1.6,3.1-1.6,3.2-4,3.2S63.79,282.12,63.79,280.12Z"/><path id="parO2Zvqh" d="M55.09,280c-1.9-5-2.8-8.5-2.8-10.5,0-2.2.1-2.3,2-2.3,1.7,0,2.2.3,3.2,1.9.6,1,1.2,1.5,1.2,1.2,0-.5.9-.7,2.3-.7h2.3v9.8h-1.7c-1.3,0-1.7.2-1.7,1.2s-.4,1.2-2,1.2C56.09,281.52,55.59,281.22,55.09,280Z"/><path id="po5C99Rv" d="M109.19,269.92a27,27,0,0,1-5.6-.8,3.52,3.52,0,0,1-.6-2.3v-1.9l21.5-.2c11.8-.1,23.1-.1,25.2-.2l3.7-.1.2,2.1.2,2.1-2.9.4C140.39,270.52,119.79,270.92,109.19,269.92Z"/><path id="pZfhtw12Y" d="M170.89,246c-11.5-11.7-17.6-18.3-18.6-20.3-2.5-5-4-62.8-2.2-88.4l.3-5.1H154l.5,34.8c.2,19.1.6,39,.8,44.3l.3,9.6,9.1,9.3c5,5.1,11.3,11.8,14,14.8,4,4.6,4.8,5.8,4.8,7.4,0,1.9-.1,2-2.2,2C179.39,254.42,178.79,253.92,170.89,246Z"/><path id="poC6AF7qx" d="M118.59,209.62c-2.2-17.5-4.3-65.9-3.2-72.9.3-2,.5-2.2,2.3-2.2,1.2,0,2,.3,2,.7,0,3.8,2,45.1,2.6,55.4.5,7.3.9,15.7.9,18.6v5.3h-3.9Z"/><path id="p1HnA0SrzY" d="M407.09,135.52c-.5-4.9-2.1-46.1-2.1-53.3v-5.8l2.8-.4c3.9-.5,20.6-1.9,27.8-2.4l6.2-.4.3-2.1a51.77,51.77,0,0,0,.3-6.3v-4.1l-4.7.3c-12.2.9-16.9,1.6-17.6,2.7-1,1.5-5.3,1.5-6.6.1s-1.3-6.2.1-7.1c.9-.7,1-1.4.6-7.1-.2-3.5-.6-12.7-.9-20.6l-.4-14.3h-5.3c-2.9,0-10.7.5-17.2,1.2a190.81,190.81,0,0,1-21.8,1l-9.9-.2.2,27.1c.1,16.9.3,27.1.7,27.3s.6,1.1.6,2.1c0,2.4.5,2.2-13.8,3.5a97,97,0,0,0-10.3,1.2c-.2.2,0,.3.3.3s.7.9.7,2c0,1.8-.2,2-2.1,2.4-2.9.5-21.3.6-23.3,0-1.4-.3-1.6-.7-1.6-2.4s-.1-2-1.7-2c-1.4,0-1.7.2-1.7,1.3,0,2-1.7,3.3-4.5,3.3-3,0-4.2-1.5-4.2-5.2,0-3.4.9-4.1,4.6-3.9,1.6.1,2.9,0,2.9-.2s2.8-.4,6.2-.4c5.5-.1,17.2-.6,35.9-1.6l6.6-.4V42.62c0-22.3.2-28.6.7-28.8a1.29,1.29,0,0,0,.7-1.1c0-.8.8-.9,6.1-.6a181.65,181.65,0,0,0,18.9-.7c18.8-1.7,35.5-1.5,35.5.3a1,1,0,0,0,.6.9c.7.2,2.1,17.7,2.8,33.3l.4,11.2,2-.1c8.8-.6,24.4-.8,24.9-.3.3.3.7,2.6.9,5,.2,3.7.5,4.4,1.5,5,1.7.9,2.1,1.6,2.1,4.1V73l11.7-.2c6.4-.1,13.3-.1,15.3-.1,3.4.1,3.6.2,3.6,1.6,0,.9.3,1.4.8,1.4.9,0,1.3,2.8,2.1,17,.6,10.9.7,32.5.1,40.1l-.4,4.9-2,.2c-1.1.1-2.1,0-2.3-.3s-4.6-.3-9.9-.1-19,.6-30.5.7-23.6.5-26.6.6l-5.5.3Zm48.2-2.5,24.6-.3-.1-13c-.1-7.1-.2-12-.3-10.9-.3,2.4-.1,2.2-14,11-8,5-8.2,5.1-10.9,5.1-2.3,0-2.4-.1-2.4-1.8,0-2,1.4-3.1,14.9-12,1.6-1.1,3-2.1,3-2.4s-.9-.6-1.8-.7c-2.3-.5-7.9-3-9.2-4.2a4,4,0,0,1-1-2.9c0-1.7.1-1.9,1.8-1.9a16.44,16.44,0,0,1,5.1,1.4c1.8.7,5.1,1.9,7.3,2.6a18.9,18.9,0,0,1,5.6,2.4l1.5,1.2v-7.7c0-4.2-.2-10.8-.3-14.6l-.4-6.9-9.3.4c-5.1.2-17.3.8-27.1,1.3s-21.2,1-25.2,1.3l-7.4.3.3,4.4c.9,11.8,1.4,26.1,1.4,37.1v11.9l9.7-.4C426.39,133.62,441.69,133.22,455.29,133Z"/><path id="pY9xpCMmk" d="M431.49,128.12a15.38,15.38,0,0,1,1.4-5.5,33.06,33.06,0,0,0,1.4-3.3,5.44,5.44,0,0,0-2-.2c-2,0-2.2-.2-16.3-11l-4.1-3.2-.1-2.9v-2.9l4.7-3.7c12.3-9.8,13.9-10.9,16.2-11,2.1,0,2.1.1,2.1,2.2s-.3,2.4-7.5,8.4c-4.1,3.5-7.6,6.5-7.8,6.7s1.8,2.2,4.5,4.3c8.1,6.6,9.8,8.4,10.1,10.5.3,1.9.5,1.7,2.9-3.7,1.4-3.1,5.4-11.4,8.8-18.4l6.2-12.9h2.3c2.1,0,2.3.1,2.3,1.6s-1.5,5.8-4.2,11.6c-4.2,9.3-9,19.5-12.8,27l-4.4,8.7h-2C431.49,130.52,431.49,130.52,431.49,128.12Z"/><path id="pWD9p7Mx2" class="cls-1" d="M218.29,97.72c0-.3-.6-.6-1.4-.6-2,0-2.1-1.4-2.1-23.2V55.12l2.5-.3c1.3-.2,16.3-.5,33.3-.6s32-.4,33.4-.6a6.31,6.31,0,0,1,3.3.2c1.6,1.1,2.1,9.3,1.4,22.4-.8,13.9-1,15.7-2.2,15.7-.5,0-.8.7-.8,2,0,1.1-.2,2-.4,2s-4.1.4-8.5.9C266.09,97.92,218.29,98.72,218.29,97.72Zm27.1-4.7c8.7-.3,20.9-.7,27-1l11.1-.3v-7.8c0-4.3.2-11.9.4-17,.3-8.8.3-9.1-.7-8.8a49,49,0,0,1-6.2.7c-4.3.3-5,.5-4.4,1.2.4.5.5,2.2.3,5-.5,5.7-.5,5.5.3,9.3.6,2.5.6,3.6.1,4.4s-.5,1.7,0,3.2c.7,2.6.2,6.5-1.1,7.8a4.52,4.52,0,0,1-3.2,1c-2.1,0-2.2-.1-2.2-2.2a5.51,5.51,0,0,1,.6-2.8c.5-.5.5-1,0-1.8s-.6-4.6-.5-11c.1-7.4,0-9.9-.5-10.1s-.7-.9-.7-1.7v-1.4h-30.6v2.2a4.37,4.37,0,0,1-.8,2.9c-.5.4-.9,2.5-1.2,5.4a57.76,57.76,0,0,0-.2,10.2c.2,4.8.6,5.9,2.7,7.4a3.48,3.48,0,0,1,1.7,3.3c0,2,0,2-2.6,2-2.2,0-3-.3-4.7-2-2.1-1.9-2.2-2.1-2.4-6.5-.2-3.1-.5-4.7-1.1-5.2-.5-.3-1-1.7-1.2-3.1a4.54,4.54,0,0,1,1-4.2,6.15,6.15,0,0,0,1.2-4.6c-.1-3.2.8-6.5,2.1-7.3.6-.3-.9-.6-4.4-.9a43.56,43.56,0,0,0-5.5-.2c-.1.2-.1,8,.2,17.5l.3,17.3,4.7-.2C227.39,93.72,236.69,93.32,245.39,93Z"/><path id="pwilbd4IT" d="M361.59,59.52c-.6-5.9-.9-28-.6-34.4l.4-6.5,2.1.2,2.1.2.3,5.5c.2,3,.4,12.8.5,21.8l.1,16.3H362Z"/><path id="pHkUFXZr2" d="M420.39,54c-.6-2.1-1-22.2-.6-27.8l.4-5.8h1.9c1.2,0,2,.3,2.2.9s.3,8.3.3,17.3V55h-2C421.29,55,420.59,54.72,420.39,54Z"/></g><g id="l746a3wIAzfRTcnINhLZXwu"><path id="p5qHwIMhb" class="cls-2" d="M-53.81,242.32v-345.8h691.6v691.6H-53.81Zm425.1,223.1c14.6-4.2,34.9-10.3,35.3-10.6.2-.3-.9-3.9-5-15.3a37.27,37.27,0,0,1-1.8-5.7,8.64,8.64,0,0,1,1.8-3l1.8-2.3-1.4-5.6c-.7-3.1-3.9-14.9-7-26.3-6.6-24.8-10.8-42.6-14.6-61.2-3.1-15.3-4-16.3-1.6-1.8,3.3,20.5,9.9,48,18.4,77.1,1.8,6.2,3.7,12.6,4.2,14.4l.9,3.2-3.5,3.2a42.76,42.76,0,0,1-13.4,7.9l-2,.7-3.6-5c-6.1-8.3-14.7-21.3-18.4-27.8-11.1-19.4-16.9-34-22.9-58.3-1.7-7.1-4-15.4-5-18.4-2.5-7.6-6.4-15.4-9-18-2.9-2.9-3.8-2.8-1.2.1,5,5.5,8.9,16.4,14.5,40.6a223.7,223.7,0,0,0,8.3,27.1c1.5,3.7,1.7,4.9,1.2,6.3-1,3.1-2.3,15.2-2.3,21.3a110.92,110.92,0,0,0,2.9,23.9c.9,3.5,1,4.4.4,4.7-1.6,1-11.3,2.9-16.2,3.2-6.1.4-6.1,1.5,0,1.7l3.9.2v6.6l-5.5,1.8c-12.8,4.3-32.7,13.4-34.1,15.5s4.5,1.8,20-.5c10.1-1.6,30.3-5.2,30.6-5.6.2-.2-1.8-16-2.4-18.7-.2-1,.2-1.4,2.7-2.2,2.8-1,2.9-1.2,2.5-2.8-2.8-13.8-3.9-29.2-2.7-40.3,1.1-10,.9-9.9,4.7-2a232.69,232.69,0,0,0,28,43.5c2.5,3.1,3.1,3.5,4.8,3.4a12.3,12.3,0,0,0,3.5-.5c1.3-.3,1.7-.1,3.1,2,.9,1.3,1.4,2.5,1.1,2.8s-1.5,1-2.8,1.9c-5.2,3.6-7.8,5.5-14.1,10.5-8,6.4-12.9,10.9-11.2,10.4C365,467.22,368.09,466.32,371.29,465.42Zm-46-28.9c-.3-2.2-4.2-17.9-11.8-47.7a228.49,228.49,0,0,1-5.9-29.1c-.3-2.8-.6-17.9-.6-33.4v-28.2h5.9c3.3,0,7.7-.1,9.9-.3l4-.3,1.3,4.3c.7,2.4,2.1,6.2,3,8.6l1.6,4.3,3.3,1c17.6,5.6,45.2,6.9,65.2,3.1,4.4-.8,15.3-3.6,15.8-4,.9-.7-1-.6-5.2.4a181.15,181.15,0,0,1-42.6,4.2,201.19,201.19,0,0,1-34.1-4.9c-1.8-.5-2.2-.8-2.7-3-.3-1.3-2-7.5-3.8-13.7-2.7-9.2-5-20.1-7.6-34.8l-.3-1.7,2.8.3c20.2,2.5,64.7,2.1,82.3-.7l3-.5.1,7.7a139.28,139.28,0,0,0,5.2,35.6c3.5,12.1,4.3,12.1,1.5-.1-3.2-14-4.4-22.1-5.8-39.7l-.4-4.6-2.9.3c-5.5.6-29.2,1.8-29.5,1.4-.2-.2.2-1.2.9-2.2a30,30,0,0,0,3.5-13.1,24.81,24.81,0,0,0-7.6-18.7c-3.1-3.1-4.7-3.3-1.8-.2,8.3,8.6,10,22.4,4.2,32.3-1,1.7-1.6,2-3.9,2.4-3.5.5-19.5.5-25.1,0l-4.4-.4.3-1.8c3.2-18.6,7.3-32.8,13.6-47.9,4.2-10,4.6-11.4,4.3-13.3-.2-1.5-.1-1.9,1.4-2.8,3-1.8,4.3-6.7,2.5-10.1-1.1-2.1-3.6-4-5.1-4-1,.1-.9.2.7,1,3.7,2,5.1,5.9,3.3,9.3-.9,1.7-3.5,3.5-5.2,3.5-.5,0-.9.2-.7.5s.6,1.2,1,2.1c.9,1.8.7,2.5-4.3,14.5-5.5,13-10,29-11.6,42l-1,7.3h-2.5c-1.9,0-2.5-.2-2.5-.9,0-1.6,3.4-20.5,5.5-30.5,4.3-20.6,10.8-43.5,13.3-47.4,1-1.6.4-2.4-1.9-2.4-1.2,0-3.6,2.4-3.6,3.7,0,.9-3.9,4.6-5.8,5.5-2.4,1.3-7.1.9-9.2-.6-2.1-1.7-2.5-2.8-2.6-7-.1-3-.2-3.5-2.3-5.6a13.59,13.59,0,0,0-6.1-3.6c-4.7-1.6-6.5-3.5-7.7-7.8a85.63,85.63,0,0,1-2.1-14.6c0-1.4.2-1.4,2.3-1.3,1.7.2,3.1-.2,5.8-1.6,3.2-1.7,3.5-1.7,3.1-.6-1.2,3.8.1,8.2,2.8,9.2,1.8.7,1.9.3.2-1.7-1.3-1.5-1.5-2.4-1.5-5.2,0-2.5.2-3.5.9-3.7,1.5-.6,3.6.3,6.2,2.6,7.6,6.6,14.2,7.4,19.5,2.5,1.7-1.6,2.4-2.8,2.6-4.4l.3-2.3-1.3,2.6a10.6,10.6,0,0,1-7.3,5.5c-2.8.5-7.8-1.2-10.4-3.5-6.3-5.6-9-6.2-14.8-2.9-4,2.2-5.9,2.5-8.4,1.2-2.7-1.4-4-4.7-4.1-9.9-.1-3.1-.2-4-.5-3.1-1.4,4.3,0,12,2.4,13.3.9.5,1.1,1.2,1.1,4.7,0,6.3,1.1,13.7,2.4,16.4,1.6,3.3,3.9,5.1,8.7,6.6,3.4,1.1,4.4,1.7,5.8,3.6,1.7,2.3,1.7,4,.2,5.2-.4.3-1.5,4.2-2.5,8.6s-2.7,12.2-3.8,17.3c-4,18.1-6.1,33.3-6.4,45.8-.1,4.6-.5,10.2-.8,12.4-.7,4.8-1,27.5-.3,28.5s-7.2.5-14.1-.7l-4.2-.7.3-18.4c.2-10.1.6-21.7,1-25.6.8-8.8,4.3-32.7,4.8-33.2.2-.2.7-.1,1.3.3s.9.5.9.2-2.5-2.9-5.6-6c-7-6.9-16-16.4-19.2-20.5-.8-1-3.4-4.3-5.8-7.3s-6.2-8-8.4-11.1a78.13,78.13,0,0,0-5.6-7.4,5.65,5.65,0,0,1-1.6-2.4c0-.4,1.6-2.2,3.5-4.1s3.5-3.8,3.5-4.2c0-1-.8-.5-4.4,2.9l-2.4,2.3-2.1-1.9c-2.4-2.1-3.3-1.5-1.6,1s1.8,2.7,2.2,4.4a2.85,2.85,0,0,0,1.7,2.1c.8.3,1.4.7,1.4,1,0,1.6,11.9,18.3,18.8,26.5,4.7,5.5,12.4,13.5,18.2,18.9l4.4,4.1-1.7,7.4a271.82,271.82,0,0,0-4.6,35.2c-.6,9-.4,33.6.3,35.6.2.5,2.1,1.5,4.7,2.3l4.3,1.3-.3,4.9c-.2,2.7-.4,16.6-.5,30.8-.1,22.8,0,26.7.9,32.6,1,6.1,6,26.7,11,45,5.8,21.1,7.6,27.7,7.8,27.7C325.49,438.92,325.49,437.82,325.29,436.52ZM70.69,323.82c7.2-3.5,10.4-8.2,10.4-15.5,0-3.6-.3-3.5,7.7-4,3.1-.2,5.6-.6,5.6-.9s-3.1-.5-6.9-.5h-6.9l-.9-2.8c-1.4-4-6.2-8.8-9-8.8-1.3,0-1.2.1.5,1a15,15,0,0,1,6.5,6.7c1.8,3.8,1.6,4.1-2.8,4.9-6.2,1-6.5,1.9-.5,1.5l5-.3v3c0,6.2-2.2,9.7-8.2,13.3-3.6,2.1-8.1,3.1-11.6,2.4-5-.9-11.6-10.1-12-16.7-.1-1.5-.4-2.7-.7-2.7s-.3,1.7-.2,3.9c.6,6.7,5.3,13.9,10.5,16.4C60.59,326.52,65.89,326.12,70.69,323.82Zm-28.4-6.7c2.2-2,1.6-3.1-.9-1.4a6.27,6.27,0,0,0-2.2,2.1C38.79,318.92,40.59,318.52,42.29,317.12Zm27.3-1.3c2.2-1.6,4-4.1,4-5.9,0-.7-.3-.6-1.1.7-3.6,6-11.1,7.2-14.7,2.4-4.1-5.4-2.6-13.6,2.9-16.5,2-1,6-.7,8.5.6,2.9,1.6,3.3,1,.5-.9s-8.3-2.1-11.2-.2c-4.1,2.8-5.7,7.5-4.5,13.1.7,3.5,3.6,6.9,6.4,7.9A10.68,10.68,0,0,0,69.59,315.82Zm135.7-2.6c3.1-2.4,1-7.4-2.7-6.6-2.2.5-4.5,1.9-4.8,3.2-.2.8-2.2.9-20.9,1l-20.7.1.1-8.5c0-10.1-.3-14.6-2-22.5l-1.2-6-16.8.3c-20.3.5-29.2,1-28.8,1.6s21.9.6,34.2-.1c5.5-.3,10.1-.5,10.3-.3.9.9,2.8,20.7,3.2,32l.1,4.3,3.7.3c2.1.2,11.5.2,21,.1,16.8-.3,17.3-.2,19.6.9C202.49,314.72,203.39,314.72,205.29,313.22ZM41,312.72a3,3,0,0,0,2-1.2c.2-.6-.3-.7-2.7-.4-3.5.5-4.7.9-4.7,1.6S38.39,313.32,41,312.72Zm5.7-16c1.3-2.4,4.8-5.5,8.2-7.1s9.9-2.2,13.9-1.2c3.3.9,3.9.3,1-.9-1.6-.7-3.8-1-7.4-1-4.5,0-5.6.2-8.4,1.6-5.8,2.8-11.5,10.7-9.4,12.8.2.2.6-.2.8-.9A17.31,17.31,0,0,1,46.69,296.72Zm51.1-8.4c-.1-6.1-.1-15-.1-19.8l.1-8.6,12.6-.1c12.1-.1,46-1.7,46.9-2.2a4.11,4.11,0,0,1,2.1,1.2,5.5,5.5,0,0,0,2.9,1.4c1.3,0,3-2,3-3.4s-2.4-3.5-3.7-3.5c-1.5,0-3.7,1.6-3.7,2.7,0,.6-1.1.8-5.6.8-3.1,0-13.3.4-22.7.9s-20.3,1-24.5,1.2l-7.5.3-.4,1.9c-1.7,7.7-1.3,38.4.5,38.4C97.79,299.42,97.89,294.42,97.79,288.32Zm135,5.3c8-.5,9.2-.5,10.4.3,3,2.1,6.2.5,6.2-3.2,0-1.6-.3-2.4-1.3-3.1-2.7-1.9-6.2-.4-6.2,2.6v1.7h-6.2c-6.5,0-24.9.9-32.6,1.5l-4.5.3v-7.1c0-6.7-.6-16.7-1.5-25.2-.3-2.7-.2-3.6.3-3.3,1.2.7.6-.4-1.8-3.6-3.9-5.2-12.4-14-20.9-21.6-2.5-2.2-5.6-5.1-6.9-6.2-3.6-3.3-7.8-6.5-8.1-6.1-.1.2,3.4,3.8,8,8,12,11.2,22.7,21.7,25.4,24.9l2.4,2.8.7,13.4c1.3,23.6,1.3,24,2.7,24.7C200.29,294.92,219.09,294.52,232.79,293.62Zm-54.7-5.6c2.2-2,.5-7.7-2.5-7.7-.8,0-1-.5-1-2.2,0-2.5-1.4-15.9-2.2-20.7-.6-3.5,1-1.8-17.9-18.7l-11.7-10.5.3-26.5c.3-26.8,1.1-40.6,3.3-61.2,1.4-13.7,1.2-17-.5-6.2s-3.4,27.7-4.2,42.7c-.7,13.1-.3,46,.6,50.4.5,2.2,1.3,3.3,5.9,7.8,5.5,5.4,15.5,14.1,20.1,17.6l2.7,2,.3,6.1c.2,3.3.8,9,1.3,12.7.7,5.2.8,7.1.3,9C171.59,287.32,174.89,290.92,178.09,288Zm-109.5-10.8c1.8-3.9,2-4.9.3-3.4-2.1,2-4,6.6-2.7,6.6C66.69,280.42,67.69,278.92,68.59,277.22Zm-11.1-2.4c-.7-2.7-3.1-6.5-3.3-5.6-.2.6,1.3,5.6,2.8,9.2l.7,1.7.2-1.6A13,13,0,0,0,57.49,274.82Zm4-.5c0-3.2-.7-4.2-1.4-2-.5,1.4.2,5.2.9,5.2C61.29,277.52,61.49,276,61.49,274.32Zm77.4-6c18.6-1.3,17.1-2.2-3-1.7-8.4.2-18.9.3-23.3.1-6.2-.2-7.9-.1-7.4.5C106.49,268.62,125.59,269.22,138.89,268.32Zm265.6-24c.1-12.3-2.6-23-8.5-34.4a60.81,60.81,0,0,0-13.5-18.1c-4.8-4.6-11.5-8.8-13.3-8.2-.4.2.5.8,2,1.5,3.5,1.6,4.8,2.6,10.4,8.1,9.9,9.7,16.7,22.7,20.1,38,1,4.6,1.3,7.5,1.3,16.3,0,10,.1,10.4.7,7.5A64.72,64.72,0,0,0,404.49,244.32Zm-89.4-4.4c.6-8.9,1.4-21.8,1.7-28.5.6-12.8,1-14.8,3.4-16l1.4-.7-1.8-1.1c-1-.6-1.8-1.4-1.8-1.8a32.08,32.08,0,0,1,2.1-5l2.1-4.3,2.9-.5a23.08,23.08,0,0,1,4-.3c1.3.1,1.3-.8,0-1.3-1.5-.6-7.3.2-8.3,1.2-.9.7-1.4.5-5.2-2-6.8-4.6-19.1-12.2-30.3-18.8-11.4-6.8-14.6-8.6-15-8.2s20.2,13.7,38.7,24.5c5.7,3.3,10.4,6.1,10.5,6.2a23.68,23.68,0,0,1-1.8,4.3c-1.1,2.3-1.8,4.5-1.7,5a4.21,4.21,0,0,0,1.7,1.4l1.5.6-1.4,1.7c-1.5,1.7-1.8,3.3-2.4,10.1-1.2,14.6-2.5,51-1.8,50.3C313.79,256.42,314.49,248.92,315.09,239.92Zm-133.8,11.8c-2-2.7-10.3-11.6-18.4-19.9l-8.9-9.2-.3-9.6c-.2-5.2-.6-25.2-.9-44.4q-.75-54.9-1.6-8.4c-.5,28.2.9,60,2.8,63.7,1.4,2.8,26.3,28.8,27.6,28.8C181.89,252.72,181.69,252.22,181.29,251.72Zm-44.6-14.9c1.4-1.4,1.2-4.3-.5-6-1.4-1.4-1.4-1.6-.9-6.9,1.2-12.8,2.9-62.2,2.9-86.9v-16.3l4.8-5.6a194.11,194.11,0,0,0,13.3-17.5c.9-1.3,1.3-1.5,2.7-1.2a3.27,3.27,0,0,0,2.5-.4c1.1-.9,1.1-4.3,0-5.4-3.1-3-7.3-.2-5.9,3.9.5,1.4.3,2-2.8,5.6-6.2,7.4-15.8,20.2-15.5,20.7s-.2,15-1.2,42.9c-.9,23.8-2,60.3-2,63.3,0,2.5-.2,3.3-.8,3.3-1,0-2.7,2.2-2.7,3.5,0,1.6,2.2,4,3.7,4A4.39,4.39,0,0,0,136.69,236.82Zm-8.4-12.6c2.9-1.5,3.4-6.3.7-7-1.3-.3-1.4-1.7-2.4-27.8-1-26.7-3.7-69.1-4.4-69.7s.9,38.3,3.3,77.1l1.2,19.8-1.8,2c-2,2.3-2.2,3.5-.9,5.4C125.09,225.32,126.09,225.32,128.29,224.22Zm-7.9-36.2c-.6-10.8-1.3-24.9-1.6-31.2s-.5-11.9-.6-12.4-.2-2.5-.3-4.6l-.1-3.7-.6,3.2c-1.1,5.6,1.1,53.2,3.2,68.6C121.69,217,121.59,209.92,120.39,188Zm249.4-21.5c2.8-1.2,5.8-4.1,6.4-6.3a19.12,19.12,0,0,0,.2-5.6c-.3-3.2-.1-4.1,1.3-7.4s1.7-4.4,1.7-9.2-.2-5.9-1.6-8.5c-3.5-6.6-7.4-10-14.6-12.5-8.5-2.9-11.5-4.6-13.9-7.7a21,21,0,0,1-3-4.7c-.7-1.8-1.8-2.4-1.8-1a13.39,13.39,0,0,0,1.2,3.2l1.2,2.5-2.8-2.3c-3.7-3.1-5.9-4.1-8.7-4.1-2.4,0-4.1,1.4-4.1,3.6,0,1.4-.4,1.3-2.5-.3-6-4.6-16.5-7.1-20.6-5a15,15,0,0,0-5.4,5.2c-2.1,4-2.1,11.4.1,16.3,1.2,2.7,5.1,5.4,8.5,5.9,1.3.2,3.5.6,4.8.9a67,67,0,0,0,10.5.4c4.5-.1,8.1-.1,8.1.1a10.63,10.63,0,0,1-2.4,1.9c-3.6,2.6-13.4,10.5-14.3,11.5-.4.6-.5,1-.2,1,.6,0,8.2-5.4,14.2-10.1,5-3.9,7-5.1,7.9-4.8.3.1-1.7,2.1-4.4,4.3-5.8,4.6-9.3,8.1-8.7,8.6.4.4,3.3-1.8,10.8-8.2l5.6-4.8h3.6a30.68,30.68,0,0,0,5.9-.6c2.3-.6,4.1-.1,4.1,1.3,0,.4.4,2.3.8,4.2,1,4.4.6,12-.8,14.6-.7,1.4-.7,1.8-.2,1.7,1.2-.3,2.9-4.3,3.2-7.3.4-4.2.3-4.1,3.7-3.2a29.2,29.2,0,0,0,5.5.8c2.5,0,2.9.6,1.8,2.3-.5.7-.7.7-1.7.2a5.2,5.2,0,0,0-2.5-.7c-1.8,0-4.4,2.1-4.4,3.6,0,1.1.1,1.1,1.2-.3,3.4-4.3,9.4,1.6,7.4,7.4-.8,2.6-2.5,3.7-6.2,4.4-1.5.2-2.4.5-2,.5.6.1.4.5-.4,1.6-1.7,2.1-1.6,5.6.1,6.8S367,167.62,369.79,166.52Zm-37-1.6a4.93,4.93,0,0,0-.1-2.7c-.5-1.6-3-2.6-4.1-1.7s-1,1.8.4,1.4a1.4,1.4,0,0,1,1.7.3c.9,1.3.6,2.2-.6,2.2-.6,0-1.2.4-1.2.9s.6.9,1.7.9C332,166.22,332.49,166,332.79,164.92ZM253.59,154c-1-1-2.2-1.3-5.8-1.6-4.5-.3-7.1-1.4-8.6-3.5-1.1-1.5-1.6-.2-.5,1.4,1.8,2.7,4.2,3.7,9,3.7a16.57,16.57,0,0,1,5.2.6C254.39,155.82,254.89,155.32,253.59,154Zm11.8-4.6a143.42,143.42,0,0,0-16.7-16.4c-4.9-4-19.9-14.6-20.6-14.6-.5,0,.3,4.3,1.3,6a22,22,0,0,0,2,3.1c1.2,1.6,1.3,2.1.7,3.1a9.85,9.85,0,0,0-.3,4.1c.2,2.5.6,3.2,2.6,5.1,1.4,1.3,2.9,2.2,3.9,2.2,2,0,1.8-.7-.5-1.7a8.11,8.11,0,0,1-4.4-7.2c0-2.9.3-3.4,2-2.3,2.4,1.7,2,.7-.9-2.1-2.7-2.7-5.1-6.8-4-6.8.6,0,11.2,7.7,17.4,12.6,3,2.4,8.7,7.6,12.7,11.5C268,153.72,270.59,155.42,265.39,149.42Zm-29-.4c.2-.3-.1-.7-.7-.9-3.4-1.1-4.4-1.8-5.4-3.3-1.7-2.8-1.3-3.5.9-1.3s5.6,3.3,6.7,2.2q.6-.6-1.2-.9a9.84,9.84,0,0,1-3.9-2.4c-2.1-1.9-2.2-2.2-2.2-5.5,0-3.7-.3-4.3-1.3-2.2-1.6,3.3-1.8,9.2-.3,11.2C231,148.62,235.49,150.42,236.39,149Zm13.6-5.3c0-.3-.7-.5-1.6-.5-1.9,0-6.5-3.1-6.5-4.3s.6-1.1,4.4.6c5.4,2.4,5.8,1.6.6-1.4-3.9-2.2-5.9-2.4-6.5-.4s.2,3.6,2.4,5C246.09,144.62,250,145.22,250,143.72Zm-178.2-.3c1.4-1,1.8-4.1.6-5.2-.5-.5-.1-1.3,1.4-2.8,1.1-1.3,4.2-5.2,6.9-9,5-6.6,5-6.7,7.7-7,4.2-.5,21.1-1.5,27.3-1.6,4.3-.1,5.1-.2,3.7-.6-1.9-.6-18.5-.7-22.7-.2-1.4.2-4.7.6-7.1,1l-4.5.6-3.9,4.7c-4.4,5.3-8.2,10.4-9.2,12.3-.6,1-1,1.3-2.1,1-1.5-.4-4.2,1.6-4.4,3.1-.2,2.2.2,3,2,3.7C69.79,144.52,70.19,144.52,71.79,143.42Zm167.8-6.2c0-.9-2.2-3.8-2.9-3.8s-.6.7.6,2.8C238.49,138.12,239.59,138.62,239.59,137.22Zm212.7-1c12.9-.3,24.5-.9,25.9-1.1,6.3-1-47-.3-64.1.9l-4.5.3v-12.2c0-9.6-1.4-41.6-1.9-44.6-.1-.7,3.6-1,32.2-2.4,36.7-1.8,39.6-1.9,39.9-2.2s-2.4-.5-18-.3c-6,0-12.1.2-13.5.3l-2.6.3,1.9-1.2c2.6-1.7,2.5-4.3-.2-5.7-1-.6-1.3-1.3-1.5-4.9a24.84,24.84,0,0,0-.7-4.9c-.6-1-14.1-.9-20.5.2-3.8.6-5.5.7-6.1.3s-.9-3.9-1.2-12.4c-.5-13.3-1.8-32-2.4-32.6s.2,23.4.9,34.8c.6,8.3.6,8.6-.6,9.4-1.4,1-1.5,2.3-.2,3.7s2.2,1.3,3.2-.1c.8-1.2,6.6-2,19-2.7l6.7-.3.3,5.1a32.88,32.88,0,0,1-.2,7.4c-.3,1.7-.3,2.4.2,2.7s.6.6.5.7-5,.6-10.7.9c-11.5.7-26.9,2.2-27.3,2.7-.3.3,1.6,52.3,2,56.1l.3,2.6,9.9-.1C424.49,137,439.39,136.62,452.29,136.22Zm30.9-14.7c.4-18.2-.9-44-2.3-44-.3,0-.5,1.8-.2,5.1.2,2.8.6,16.1.7,29.5.2,14.5.6,24.1.9,23.8S483.09,129.12,483.19,121.52Zm-45-1.4c3.7-7.5,8.6-17.8,12.8-27,2.4-5.3,4-9.8,3.6-9.8-1.2,0-21.4,42.5-21.4,44.9C433.29,129.62,434.09,128.32,438.19,120.12Zm18.3,2.3c1.4-.7,11.4-7,17.3-10.7,2.1-1.4,3.9-2.8,3.9-3.1,0-1.1-3.2-2.9-7.1-4-2.2-.7-4.7-1.5-5.5-1.8-5.6-2.4-5.5-2.4-4.6-1.3,1.2,1.4,5.5,3.5,10.3,4.8,2.2.7,4.1,1.6,4.1,2s-2.7,2.4-5.9,4.6c-9.3,6.1-15.2,10.3-14.4,10.3C454.89,123,455.79,122.72,456.49,122.42Zm-24.1-5.8c-.6-1-4.8-4.7-10.7-9.5-3-2.4-5.6-4.6-5.9-4.8s3.6-3.7,8.5-7.8c8.1-6.7,9.8-8.4,8.5-8.4-.5.1-6.6,4.7-14.5,11-3.1,2.5-4.7,4.1-4.7,4.9s1.5,2.3,4.1,4.3C432.39,117.42,433.29,118.12,432.39,116.62ZM275,95.12c4.7-.5,8.7-1,8.9-1.3s-3.9-.2-9.2-.1-18.4.6-29.4,1c-28.9,1-30.1,1.7-2.3,1.4C258,96,269.49,95.62,275,95.12Zm-56.9-17.2c-.5-23.8-1.4-26.2-1.4-4.2-.1,17.5.2,21.6,1.3,21.6C218.29,95.42,218.29,89.82,218.09,77.92Zm16,11.8c-2.5-2.2-3.2-3.7-3.1-7.1.1-3.9-.4-5.5-1.8-5.9-1.6-.5-2.1.1-.8,1.1.9.7,1.2,1.6,1.2,5.2,0,4.4,0,4.4,2.1,6.4a8.1,8.1,0,0,0,3.2,2C235.59,91.32,235.49,90.92,234.09,89.72Zm52.8-13.5c.3-5.9.5-12.6.2-14.7-.7-7.1-1.4-2.1-1.7,13.8C285.09,92.92,285.89,93.42,286.89,76.22Zm-16.5,11.7c1.2-1.3,1.4-4.5.4-6.3s-.7-3.6.4-4.5c.9-.7.9-.7-.2-.8-2.7,0-3.3,2.7-1.7,6.6.8,2,.8,2.3,0,3.9a16.25,16.25,0,0,0-.9,2C268.39,89.42,269.49,88.92,270.39,87.92Zm63.6-7.4c1-.2,1.2-.5.6-.8-.9-.6-19-.6-21.5.1l-1.7.4,1.4.3C316.29,81.52,330.39,81.52,334,80.52Zm-30.1-.7a2.66,2.66,0,0,0-1.2-4.4c-2.8-.7-4,1.7-2.2,4.3C301.59,81.22,302.49,81.32,303.89,79.82Zm40.9-4.9a106.89,106.89,0,0,0,12.4-1.5c1.6-.6-6.3-.4-26.5.6-6.2.3-14,.7-17.4.7-4.9.1-6.2.3-6.2.9s2.1.7,13.4.5C327.79,76,338.79,75.42,344.79,74.92Zm-115.2-.5c1.4-1.3,1.6-1.7,1.6-5.7,0-3.4.2-4.6,1.1-5.5,1.3-1.4.9-2.1-.7-1.3s-2.5,3.7-2,6.7c.3,2.1.1,2.9-.8,4.1C226.39,76.22,226.69,76.82,229.59,74.42Zm41.4-.8c-.6-1.3-.6-5.4.1-8.7.3-2,.2-2.7-.6-3.6a4,4,0,0,0-2.2-1.2c-1.2,0-1.2.1.2,1.1,1.2.9,1.3,1.4,1,3-1,5.4-1,7.4-.1,8.9C270.29,74.82,271.69,75.22,271,73.62Zm86.1-28.4c0-13.1-.1-25.4-.3-27.1l-.4-3.2-.4,2.3c-.6,2.9-.6,48-.1,52.2C356.69,76,357.09,69.12,357.09,45.22Zm7.5-4.1c-.2-11.5-.5-19.8-.9-20.2-.9-.9-1.3,9.6-1,22.5.3,13.4.7,17.3,1.5,17.3C364.69,60.82,364.69,54.92,364.59,41.12Zm-85.3,15.6c3.9-.4,6.9-.9,6.6-1s-5.1-.2-10.5,0-20.5.4-33.3.5c-14.7.1-23.1.3-22.8.6a10.13,10.13,0,0,0,4,.8C230.19,58,272.29,57.42,279.29,56.72Zm143.1-33.8c-.9-1.5-1.4,8.9-1,18.7.6,14.4,1.2,13.1,1.3-2.9C422.79,30.52,422.69,23.42,422.39,22.92Zm-33.5-8.8c6.2-.6,14.5-1.2,18.4-1.2,5.4-.1,6.6-.2,4.9-.6-4.1-.8-16.4-.6-30.3.7a152.84,152.84,0,0,1-19.3.8c-5.6-.4-6.9-.1-3.1.9C363.19,15.52,377.69,15.22,388.89,14.12Z"/><path id="pgbRHskvm" class="cls-2" d="M201,311.82a.63.63,0,0,0-.7-.7c-1.6.2-1.2-1.2.6-2.1,1.4-.7,2.2-.8,3.1-.4a2,2,0,0,1,.3,3.3C203.39,312.92,201,312.82,201,311.82Z"/><path id="pb0WuSb1j" class="cls-2" d="M160.19,257.72c-1-1-1.1-1.5-.6-2a2.06,2.06,0,0,1,3.3,2.4C162.09,259.42,161.69,259.32,160.19,257.72Z"/><path id="pQ9ADi3VW" class="cls-2" d="M244.89,292.12c-2.2-1.5-1.4-3.7,1.4-3.7,1.2,0,2,2.3,1.3,3.6S246.59,293.32,244.89,292.12Z"/><path id="p18RbaIftH" class="cls-2" d="M174.89,287.42c-1.5-.3-1.2-4.3.4-4.6,1.3-.3,2.1.8,2.1,2.8C177.39,287.22,176.59,287.82,174.89,287.42Z"/><path id="psdhihmcP" class="cls-2" d="M132.59,235.12c-.5-2,.1-3.2,1.5-3.2s2,1.2,1.5,3.2c-.2.9-.7,1.4-1.5,1.4S132.89,236,132.59,235.12Z"/><path id="pdO8W2a7u" class="cls-2" d="M158.29,94.62c-1.9-1-1.9-2.9-.1-3.2a2.19,2.19,0,0,1,2.5,2.8C160.49,95.52,160.19,95.62,158.29,94.62Z"/><path id="p18pMt469b" class="cls-2" d="M125.29,222.92c-.7-.7-.4-2.3.6-3.2,2.3-2.1,4.4-.3,2.7,2.2C127.79,223.22,126.09,223.72,125.29,222.92Z"/><path id="p1Dr64xXyT" class="cls-2" d="M359.79,136.22a17.22,17.22,0,0,0-1.3-4.2c-.9-1.7-.9-1.7.1-1a8.35,8.35,0,0,1,2.7,5.8C361.19,139.42,360.29,139,359.79,136.22Z"/><path id="pVMEUgh1Y" class="cls-2" d="M323.79,127.62c5-.9,15-1.3,15-.7,0,1-1.7,1.3-9.7,1.2C323.29,128.12,321.89,127.92,323.79,127.62Z"/><path id="p1Dk7Qq5iq" class="cls-2" d="M340.69,127.52c-.3-.6,6.3-.5,8.7.1,1.2.3.1.5-3.3.4C343.29,128,340.89,127.82,340.69,127.52Z"/><path id="pWKKzMrC1" class="cls-2" d="M67.39,142.32a1.61,1.61,0,0,1-.7-1.4c0-1.5,1.5-2.5,3.2-2.1,1.2.3,1.4.7,1.3,2s-.5,1.6-1.6,1.7A11.8,11.8,0,0,1,67.39,142.32Z"/><path id="puPpgknvf" class="cls-2" d="M445.49,71.62a2.05,2.05,0,0,1,.9-1.5c1.1-.3,1.7,1.6.7,2.2C445.69,73.22,445.29,72.92,445.49,71.62Z"/><path id="pfALJqvHB" class="cls-2" d="M415.69,61.32a1.15,1.15,0,0,1,.9-1.7c.7,0,.7,1.6,0,2A.61.61,0,0,1,415.69,61.32Z"/><path id="pcNamXjdg" class="cls-2" d="M301.29,78.12c0-.7.3-1.2.7-1a1.26,1.26,0,0,1,.7,1,1.09,1.09,0,0,1-.7,1C301.59,79.22,301.29,78.82,301.29,78.12Z"/></g><path class="cls-3" d="M260.76,70.37c-.06-1.62-.35-3.36-1.74-4.47-.93-.75-1.57-.81-2.2.24a4.89,4.89,0,0,0,.11,4.64c.58,1.21,1.28,2.2,1.22,3.59a10.42,10.42,0,0,1-.93,3.19,16.36,16.36,0,0,1-1,1.63,36.36,36.36,0,0,0-1.63-4.12c-.87-1.68-1.33-3.54-2.15-5.22,1-.18,1.8,0,1.51-1.34-.34-1.5-1.91-1.16-3.19-1.16-1.1,0-3.3-.23-3.88,1.05s.58,1.22,1.33,1.45h.12a6.15,6.15,0,0,1,1.21,3.83,5.49,5.49,0,0,1-1,2.55,15.57,15.57,0,0,0-1.28,2.55v-.06a9.52,9.52,0,0,0-.58-1.21c-.69-1.8-1.39-3.54-2.26-5.28-.29-.58-1.33-1.92-.87-2.44h.17c.76.17,1.28-.46,1.22-1.33-.17-1.69-1.33-1.51-2.67-1.45-1,0-2.08,0-3.13,0-.81.06-2-.17-2.73.18a.9.9,0,0,0-.34,1.39,2.05,2.05,0,0,0,.34.81c.64.52,1.86-.06,2.44.41s.7,1.68,1,2.38c.35.93.69,1.85,1,2.84.87,2.32,1.74,4.64,2.67,7,.41,1,1.16,3.66,2.38,4.18,0,.06.12.11.17.11h.06a.37.37,0,0,0,.47-.23c.92-.69,1.33-2.26,1.85-3.19a36.13,36.13,0,0,0,2-4.12c.18.47.35,1,.47,1.34.46,1,1,2,1.51,3s1.1,2.84,2.14,3.13a.48.48,0,0,0,.53-.23h0c1-.76,2.61-3.77,2.78-4.12C259.31,78.14,260.88,74.49,260.76,70.37ZM258,79.3c-.58,1.22-1,2.56-1.68,3.72a17.74,17.74,0,0,1-1.51,2.38c-.75-.29-1.79-2.85-2.14-3.48a19.45,19.45,0,0,1-1.4-2.73,4.55,4.55,0,0,0-.75-1.51.42.42,0,0,0-.64.06c-.64,1.39-1.27,2.9-2,4.23a32.44,32.44,0,0,1-1.68,3.54,17.18,17.18,0,0,1-2.56-5.16c-.69-1.86-1.45-3.66-2.2-5.51-.35-.87-.7-1.8-1-2.67a14.55,14.55,0,0,0-.81-2.44c-.58-.81-2.49-.4-3.07-1,.17-.58-.06-.58,1.22-.64.75-.06,1.56-.06,2.32-.06s1.62-.06,2.43-.06c.23,0,.87-.17,1.05-.05.52.23.46,1,0,1.33-.4-.12-.69-.35-1,.29-.46.81.35,2,.75,2.67a30.21,30.21,0,0,1,1.86,3.94,20.14,20.14,0,0,0,1.68,4,.58.58,0,0,0,.53.23c.75-.12,1-1.68,1.33-2.26.58-1.16,1.68-2.38,1.8-3.72.11-1-.47-4.46-1.86-4.81,0-.06-.06-.12-.11-.18a1.91,1.91,0,0,1-.35-.17c-.47-.87.11-.81.75-.87.81-.06,1.68-.12,2.5-.12.58,0,1.33-.11,1.68.29.64.82-.58.64-1.16.82a.32.32,0,0,0-.23.4c.69,1.92,1.27,3.83,2.14,5.75.76,1.56,1.16,3.3,1.92,4.87a.46.46,0,0,0,.75,0,7.5,7.5,0,0,0,1.28-2.67c1-2,1.8-3.83.52-6a9.78,9.78,0,0,1-1.22-2.44c-.17-.81-.06-3.07,1.16-2.73,1.45.35,1.69,3.08,1.69,4.18A18.92,18.92,0,0,1,258,79.3Z"/></svg>