<?xml version="1.0" encoding="UTF-8"?>
<svg xmlns="http://www.w3.org/2000/svg" width="372" height="432" viewBox="0 0 372 432" fill="none">
  <g clip-path="url(#clip0_1314_11719)">
    <path d="M141.535 62.052C140.274 59.8332 138.407 58.8666 136.491 57.9001C134.574 56.9336 132.514 57.7236 130.522 57.7152C131.499 57.1193 132.588 56.7292 133.721 56.5688C134.854 56.4083 136.008 56.481 137.113 56.7823C139.299 57.51 141.446 58.3516 143.544 59.3037C144.015 57.6227 144.385 55.9418 145.049 54.2609C145.51 53.1691 146.091 52.1318 146.781 51.168C146.885 50.9512 147.039 50.7625 147.232 50.6178C147.424 50.4731 147.648 50.3765 147.885 50.3362C148.122 50.2958 148.365 50.3129 148.594 50.386C148.824 50.4591 149.032 50.586 149.202 50.7561C148.613 53.412 145.965 55.5048 146.882 59.0683C147.806 57.7488 148.513 56.7571 149.194 55.7569C155.541 46.3941 163.485 38.7795 173.574 33.4677C179.826 30.1173 186.687 28.0539 193.75 27.3996C204.343 26.4498 214.221 28.6266 223.175 34.4763C228.042 37.6701 231.262 42.3178 233.263 47.7641C235.501 53.858 236.011 60.4522 234.734 66.8175C233.989 71.1073 232.326 75.1857 229.859 78.7743C227.393 82.3628 224.181 85.3769 220.442 87.6106C212.464 92.5946 203.628 94.7462 194.381 95.0571C192.414 95.0613 190.45 95.1764 188.496 95.4017C187.499 95.6294 186.56 96.0616 185.738 96.6708C183.923 97.8307 182.292 99.3267 180.383 100.26C177.584 101.621 174.734 100.453 173.086 97.6626C173.641 95.6623 174.372 95.3597 176.188 96.3599C178.551 97.6626 180.173 97.3852 182.073 95.1328C181.232 94.8806 180.451 94.5949 179.677 94.452C174.238 93.4687 168.748 92.7711 163.384 91.4852C159.475 90.5606 155.726 88.9638 151.917 87.6022C151.25 87.3377 150.599 87.0346 149.967 86.6945C148.344 87.661 146.814 88.4847 145.377 89.4596C141.955 91.7793 140.215 95.2084 139.122 99.0914C137.423 105.31 136.853 111.784 137.441 118.204C137.516 119.179 137.499 120.162 137.491 121.145C137.464 121.478 137.405 121.807 137.315 122.129C135.894 123.162 135.003 123.204 133.498 122.263C132.38 121.557 131.329 120.725 130.135 120.095C125.721 117.708 121.19 120.036 120.425 124.936C119.584 130.214 121.913 134.181 125.637 137.484C127.009 138.742 128.617 139.716 130.367 140.351C132.117 140.985 133.975 141.268 135.835 141.182C137.095 141.102 138.358 141.102 139.618 141.182C140.285 141.315 140.932 141.532 141.543 141.829L141.585 142.493C140.882 142.977 140.108 143.349 139.29 143.594C132.254 144.435 125.982 142.838 121.434 137.089C118.256 133.071 116.465 128.508 118.012 123.213C118.492 121.376 119.536 119.736 120.997 118.523C121.417 118.178 121.837 117.809 122.401 117.33C120.719 116.069 119.189 115.027 117.785 113.816C112.636 109.521 109.172 103.543 108.008 96.9398C107.515 94.6872 107.269 92.3875 107.276 90.0816C107.739 78.315 114.002 67.7924 126.116 63.3295C130.354 61.7746 134.86 60.8501 139.509 62.0352C140.182 62.1125 140.861 62.1182 141.535 62.052ZM115.969 74.4321L115.877 74.4825L115.969 74.3817L116.465 73.9278L117.306 73.1546C121.887 69.203 127.374 66.4456 133.279 65.1281C131.699 64.2876 130.286 65.1281 128.882 65.4895C124.932 66.4611 121.314 68.4689 118.399 71.3055C117.969 71.8838 117.623 72.5206 117.373 73.1966L116.533 73.9698L115.969 74.4321ZM228.95 73.8269L229.791 72.8688L229.396 72.6335C229.278 73.0453 229.152 73.4739 229.026 73.8774L228.471 74.8355L228.858 74.9532L228.95 73.8269ZM229.967 71.4484L230.556 71.5577C231.284 69.2821 231.871 66.9635 232.313 64.6154C233.032 59.5355 232.474 54.3565 230.69 49.5459C228.689 44.3266 225.697 39.8217 220.863 36.8464C213.256 32.1468 204.394 29.8856 195.465 30.3664C194.39 30.5084 193.33 30.7446 192.296 31.0724L192.397 31.5683C193.658 31.5683 194.919 31.5683 196.172 31.5683C201.211 31.538 206.229 32.2372 211.069 33.6442C216.508 35.3252 221.342 37.9558 225.1 42.3683C228.712 46.6918 230.879 52.0382 231.296 57.6564C231.694 60.715 231.543 63.8202 230.85 66.8259C230.447 68.3387 230.253 69.9104 229.967 71.4484ZM111.118 84.8959C110.156 88.7334 110.156 92.7493 111.118 96.5868V84.8959ZM111.539 99.5116H112.085L111.9 97.9483H111.539V99.5116ZM111.488 83.1393L111.951 83.0973L111.858 82.2568H111.539L111.488 83.1393ZM112.665 100.789L112.337 100.907L112.615 101.655L112.909 101.554L112.665 100.789ZM189.488 31.3077V31.6859L190.076 31.5346L190.026 31.3077H189.488ZM227.714 76.0626V76.2391L227.992 76.1214C227.992 76.071 227.924 75.9869 227.882 75.9869C227.84 75.9869 227.782 76.0626 227.714 76.0626Z" fill="#005AFF"></path>
    <path d="M186.873 270.21V263.487C186.346 263.217 185.804 262.976 185.251 262.764C179.526 260.864 174.936 257.267 170.606 253.216C165.217 248.173 160.837 242.29 156.213 236.55C155.953 236.23 155.675 235.936 155.188 235.365C154.614 235.959 154.091 236.6 153.624 237.281C151.295 241.576 148.958 245.879 146.722 250.224C141.905 259.604 137.18 269.034 132.338 278.405C131.074 280.816 129.671 283.151 128.134 285.398C127.32 286.531 126.359 287.552 125.276 288.432C124.65 288.814 123.97 289.097 123.258 289.272C123.05 288.776 123.001 288.227 123.118 287.701C123.236 287.176 123.514 286.7 123.914 286.339C129.32 279.472 133.161 271.69 136.936 263.882C140.831 255.903 144.856 247.989 149.009 240.139C150.356 237.887 151.835 235.718 153.439 233.642C153.792 232.398 152.405 231.12 153.809 229.96C154.91 229.91 155.448 230.801 156.037 231.532C158.769 234.995 161.341 238.584 164.233 241.904C167.68 245.845 171.379 249.569 175.003 253.359C175.656 253.928 176.353 254.445 177.088 254.906C177.286 254.31 177.404 253.691 177.441 253.065C176.861 249.132 177.811 245.274 177.97 241.374C177.964 240.81 178.096 240.252 178.357 239.752C178.73 239.303 179.163 238.907 179.643 238.575L180.055 238.853C179.803 241.458 179.551 244.055 179.299 246.694L182.527 249.216C182.746 248.434 182.88 247.93 183.099 247.14L186.075 248.451V236.768L187.638 238.163L189.488 236.861C189.841 234.583 189.177 232.305 190.808 230.078C191.329 235.205 190.665 240.164 192.153 244.828C195.02 244.568 196.398 243.005 196.356 240.34C196.289 236.418 196.25 232.496 196.239 228.574C196.239 227.733 196.365 226.817 196.466 225.531C196.913 225.893 197.266 226.358 197.493 226.887C197.72 227.416 197.815 227.992 197.769 228.565C197.987 231.213 197.987 233.877 198.29 236.516C199.19 244.433 200.224 252.334 201.157 260.251C201.871 266.294 202.493 272.345 203.208 278.388C204.174 285.744 204.638 293.157 204.595 300.577C204.485 302.385 204.224 304.182 203.813 305.947C203.573 306.594 203.251 307.207 202.855 307.771L201.569 306.199L192.809 309.132L192.716 308.922L190.682 310.603C189.715 306.401 191.834 302.543 191.119 298.543C189.516 298.138 187.818 298.373 186.386 299.198C185.957 301.72 186.134 304.443 185.057 306.594L178.803 307.09C178.122 303.316 179.433 299.526 179.643 295.66C179.854 291.794 180.745 287.919 181.375 283.784L183.057 282.389L183.897 285.095L186.1 284.877C186.352 280.548 187.277 276.472 186.495 272.102C185.94 273.076 185.318 274.018 184.814 275.026C180.21 284.595 174.998 293.859 169.21 302.762C161.285 315.285 153.218 327.715 145.007 340.053C141.238 345.98 136.298 351.074 130.488 355.022C126.675 357.542 122.283 359.049 117.726 359.401C109.857 360.04 101.678 355.198 97.8608 347.752C95.5152 343.197 94.6325 338.255 94.1617 333.22C93.6828 326.66 93.9932 320.065 95.0864 313.579C95.7253 309.217 96.3391 304.855 97.1294 300.526C97.8944 296.324 98.7267 292.121 99.8028 288.028C101.316 282.288 102.922 276.573 104.78 270.942C107.544 262.742 110.772 254.705 114.448 246.871C118.136 238.638 122.571 230.761 127.697 223.338C132.481 216.563 137.895 210.352 144.763 205.579C147.945 203.351 151.626 201.94 155.482 201.469C155.987 201.328 156.519 201.317 157.029 201.438C157.539 201.558 158.011 201.806 158.399 202.158C154.814 203.264 151.428 204.935 148.37 207.108C143.622 210.341 139.322 214.187 135.583 218.547C128.376 227.03 122.43 236.507 117.928 246.686C114.565 254.048 111.329 261.495 108.521 269.076C106.288 275.171 104.429 281.396 102.955 287.717C101.089 295.601 99.643 303.585 98.2138 311.561C96.7724 319.421 96.4272 327.443 97.1882 335.397C97.5211 339.454 98.7071 343.395 100.669 346.962C104.973 354.45 112.951 358.359 122.157 355.829C128.042 354.215 132.43 350.568 136.449 346.306C142.291 340.12 146.671 332.859 151.32 325.782C160.114 312.402 168.546 298.795 176.432 284.86C178.113 281.935 179.795 279.027 181.384 276.094C182.625 273.657 184.528 271.618 186.873 270.21ZM194.65 284.498C194.018 288.088 193.737 291.73 193.809 295.374C196.231 294.699 198.457 293.454 200.299 291.743C200.686 291.39 200.988 290.954 201.183 290.468C201.378 289.982 201.461 289.458 201.426 288.936C201.317 286.986 201.274 285.028 201.148 283.053C201.044 282.518 200.88 281.997 200.661 281.498L194.65 284.498ZM194.65 271.261C195.835 270.681 196.659 270.345 197.416 269.899C199.316 268.773 199.593 268.101 199.29 265.958C199.063 264.277 198.912 262.596 198.66 260.965C198.517 260.041 198.231 259.133 197.954 257.973L193.834 259.268C193.506 263.293 194.44 267.067 194.65 271.278V271.261ZM194.65 282.187C199.761 280.422 200.535 279.414 200.282 274.623C200.177 273.478 200.011 272.339 199.786 271.211C197.475 271.253 196.23 272.732 194.65 273.413V282.187ZM187.924 286.574C187.311 290.172 186.688 293.491 186.915 297.282L191.119 296.551C191.819 292.937 192.073 289.25 191.876 285.574L187.924 286.574ZM192.338 272.286C192.187 269.093 192.044 266.201 191.892 263.041L188.782 263.688V273.572L192.338 272.286ZM184.208 297.181C185.226 295.097 185.89 288.776 185.335 286.961L182.998 287.28C182.468 290.525 181.972 293.559 181.451 296.778L184.208 297.181ZM187.949 247.787C187.445 250.535 188.37 252.233 190.917 253.099C190.682 251.275 190.472 249.585 190.245 247.787H187.949Z" fill="black"></path>
    <mask id="mask0_1314_11719" style="mask-type:alpha" maskUnits="userSpaceOnUse" x="93" y="201" width="112" height="159">
      <path d="M186.873 270.21V263.487C186.346 263.217 185.804 262.976 185.251 262.764C179.526 260.864 174.936 257.267 170.606 253.216C165.217 248.173 160.837 242.29 156.213 236.55C155.953 236.23 155.675 235.936 155.188 235.365C154.614 235.959 154.091 236.6 153.624 237.281C151.295 241.576 148.958 245.879 146.722 250.224C141.905 259.604 137.18 269.034 132.338 278.405C131.074 280.816 129.671 283.151 128.134 285.398C127.32 286.531 126.359 287.552 125.276 288.432C124.65 288.814 123.97 289.097 123.258 289.272C123.05 288.776 123.001 288.227 123.118 287.701C123.236 287.176 123.514 286.7 123.914 286.339C129.32 279.472 133.161 271.69 136.936 263.882C140.831 255.903 144.856 247.989 149.009 240.139C150.356 237.887 151.835 235.718 153.439 233.642C153.792 232.398 152.405 231.12 153.809 229.96C154.91 229.91 155.448 230.801 156.037 231.532C158.769 234.995 161.341 238.584 164.233 241.904C167.68 245.845 171.379 249.569 175.003 253.359C175.656 253.928 176.353 254.445 177.088 254.906C177.286 254.31 177.404 253.691 177.441 253.065C176.861 249.132 177.811 245.274 177.97 241.374C177.964 240.81 178.096 240.252 178.357 239.752C178.73 239.303 179.163 238.907 179.643 238.575L180.055 238.853C179.803 241.458 179.551 244.055 179.299 246.694L182.527 249.216C182.746 248.434 182.88 247.93 183.099 247.14L186.075 248.451V236.768L187.638 238.163L189.488 236.861C189.841 234.583 189.177 232.305 190.808 230.078C191.329 235.205 190.665 240.164 192.153 244.828C195.02 244.568 196.398 243.005 196.356 240.34C196.289 236.418 196.25 232.496 196.239 228.574C196.239 227.733 196.365 226.817 196.466 225.531C196.913 225.893 197.266 226.358 197.493 226.887C197.72 227.416 197.815 227.992 197.769 228.565C197.987 231.213 197.987 233.877 198.29 236.516C199.19 244.433 200.224 252.334 201.157 260.251C201.871 266.294 202.493 272.345 203.208 278.388C204.174 285.744 204.638 293.157 204.595 300.577C204.485 302.385 204.224 304.182 203.813 305.947C203.573 306.594 203.251 307.207 202.855 307.771L201.569 306.199L192.809 309.132L192.716 308.922L190.682 310.603C189.715 306.401 191.834 302.543 191.119 298.543C189.516 298.138 187.818 298.373 186.386 299.198C185.957 301.72 186.134 304.443 185.057 306.594L178.803 307.09C178.122 303.316 179.433 299.526 179.643 295.66C179.854 291.794 180.745 287.919 181.375 283.784L183.057 282.389L183.897 285.095L186.1 284.877C186.352 280.548 187.277 276.472 186.495 272.102C185.94 273.076 185.318 274.018 184.814 275.026C180.21 284.595 174.998 293.859 169.21 302.762C161.285 315.285 153.218 327.715 145.007 340.053C141.238 345.98 136.298 351.074 130.488 355.022C126.675 357.542 122.283 359.049 117.726 359.401C109.857 360.04 101.678 355.198 97.8608 347.752C95.5152 343.197 94.6325 338.255 94.1617 333.22C93.6828 326.66 93.9932 320.065 95.0864 313.579C95.7253 309.217 96.3391 304.855 97.1294 300.526C97.8944 296.324 98.7267 292.121 99.8028 288.028C101.316 282.288 102.922 276.573 104.78 270.942C107.544 262.742 110.772 254.705 114.448 246.871C118.136 238.638 122.571 230.761 127.697 223.338C132.481 216.563 137.895 210.352 144.763 205.579C147.945 203.351 151.626 201.94 155.482 201.469C155.987 201.328 156.519 201.317 157.029 201.438C157.539 201.558 158.011 201.806 158.399 202.158C154.814 203.264 151.428 204.935 148.37 207.108C143.622 210.341 139.322 214.187 135.583 218.547C128.376 227.03 122.43 236.507 117.928 246.686C114.565 254.048 111.329 261.495 108.521 269.076C106.288 275.171 104.429 281.396 102.955 287.717C101.089 295.601 99.643 303.585 98.2138 311.561C96.7724 319.421 96.4272 327.443 97.1882 335.397C97.5211 339.454 98.7071 343.395 100.669 346.962C104.973 354.45 112.951 358.359 122.157 355.829C128.042 354.215 132.43 350.568 136.449 346.306C142.291 340.12 146.671 332.859 151.32 325.782C160.114 312.402 168.546 298.795 176.432 284.86C178.113 281.935 179.795 279.027 181.384 276.094C182.625 273.657 184.528 271.618 186.873 270.21ZM194.65 284.498C194.018 288.088 193.737 291.73 193.809 295.374C196.231 294.699 198.457 293.454 200.299 291.743C200.686 291.39 200.988 290.954 201.183 290.468C201.378 289.982 201.461 289.458 201.426 288.936C201.317 286.986 201.274 285.028 201.148 283.053C201.044 282.518 200.88 281.997 200.661 281.498L194.65 284.498ZM194.65 271.261C195.835 270.681 196.659 270.345 197.416 269.899C199.316 268.773 199.593 268.101 199.29 265.958C199.063 264.277 198.912 262.596 198.66 260.965C198.517 260.041 198.231 259.133 197.954 257.973L193.834 259.268C193.506 263.293 194.44 267.067 194.65 271.278V271.261ZM194.65 282.187C199.761 280.422 200.535 279.414 200.282 274.623C200.177 273.478 200.011 272.339 199.786 271.211C197.475 271.253 196.23 272.732 194.65 273.413V282.187ZM187.924 286.574C187.311 290.172 186.688 293.491 186.915 297.282L191.119 296.551C191.819 292.937 192.073 289.25 191.876 285.574L187.924 286.574ZM192.338 272.286C192.187 269.093 192.044 266.201 191.892 263.041L188.782 263.688V273.572L192.338 272.286ZM184.208 297.181C185.226 295.097 185.89 288.776 185.335 286.961L182.998 287.28C182.468 290.525 181.972 293.559 181.451 296.778L184.208 297.181ZM187.949 247.787C187.445 250.535 188.37 252.233 190.917 253.099C190.682 251.275 190.472 249.585 190.245 247.787H187.949Z" fill="black"></path>
    </mask>
    <g mask="url(#mask0_1314_11719)">
      <path d="M188.5 233C186.5 238.2 179 238.833 175.5 238.5C174.667 241.667 173.5 248.9 175.5 252.5C177.5 256.1 184 261 187 263V272C186.667 274 185.4 278.6 183 281C180.6 283.4 177.667 291 176.5 294.5L169.5 310.5C170.833 309.5 176.2 308.1 187 310.5C197.8 312.9 207.167 308.833 210.5 306.5L206.5 259L199.5 221.5C196.667 223.167 190.5 227.8 188.5 233Z" fill="#005AFF"></path>
    </g>
    <path d="M174.717 345.121C175.061 344.678 175.506 344.322 176.015 344.084C176.523 343.846 177.081 343.732 177.643 343.751C181.348 343.459 185.076 343.866 188.63 344.953C197.121 347.525 205.562 350.273 214.103 352.669C219.61 354.215 225.234 355.341 230.842 356.501C236.121 357.6 241.508 358.091 246.899 357.963C249.976 357.888 253.061 357.602 255.861 356.106C259.871 353.971 262.158 350.458 263.578 346.298C265.13 341.648 265.98 336.793 266.1 331.892C266.265 325.733 265.944 319.57 265.142 313.461C264.752 310.129 264.154 306.825 263.351 303.568C261.594 296.677 259.778 289.785 257.702 282.977C253.605 269.972 248.454 257.323 242.3 245.156C236.984 234.189 230.036 224.09 221.695 215.202C219.103 212.654 216.351 210.273 213.456 208.075C212.553 207.422 211.551 206.92 210.489 206.587C207.403 205.469 206.335 205.747 204.209 208.175C203.948 208.47 203.847 208.907 203.502 209.108C203.25 205.747 206.327 203.343 209.698 203.763C213.742 204.284 216.819 206.579 219.677 209.167C227.334 216.266 233.87 224.484 239.064 233.541C245.487 244.391 250.48 255.922 255.096 267.639C258.259 275.4 260.959 283.343 263.183 291.424C264.663 297.097 265.789 302.862 266.975 308.603C268.426 315.88 269.055 323.298 268.849 330.716C268.715 337.238 268.051 343.701 265.26 349.744C262.469 355.787 257.836 359.745 250.968 360.552C249.872 360.738 248.795 361.02 247.748 361.393C243.965 362.51 240.081 362.326 236.273 361.88C231.548 361.357 226.859 360.546 222.233 359.451C217.189 358.224 212.33 356.493 207.395 354.955C200.669 352.862 193.944 350.693 187.218 348.668C183.284 347.483 179.29 346.5 175.322 345.415C175.11 345.341 174.907 345.242 174.717 345.121Z" fill="black"></path>
    <path d="M188.698 367.024L193.599 365.561C195.331 362.704 193.994 359.552 194.81 356.408C196.062 357.593 196.087 358.846 196.02 360.157C195.953 361.468 196.02 362.619 196.02 363.973C199.576 363.762 200.913 360.258 203.94 359.417C205.066 361.098 205.074 362.998 205.175 364.737C205.203 367.041 205.113 369.344 204.906 371.638C204.839 373.1 204.839 374.571 204.696 376.033C204.301 380.143 203.855 384.236 203.41 388.346C203.09 391.405 202.805 394.473 202.46 397.532C202.376 398.373 202.166 399.146 202.023 399.894C200.266 400.129 199.753 399.894 199.744 398.297C199.744 395.65 200.005 392.994 200.156 390.346C200.207 389.607 200.274 388.867 200.375 387.581L194.414 391.086V396.835C192.254 395.667 193.523 393.624 192.447 392.246L190.505 392.582C189.959 395.532 192.145 398.146 191.346 401.037L187.428 399.113L186.537 400.869C184.528 398.558 184.94 395.776 183.662 393.498L179.862 392.456L179.467 392.834C180.139 394.767 180.829 396.692 181.493 398.625C181.787 399.332 182.009 400.067 182.157 400.819C182.153 401.389 182.066 401.955 181.896 402.5L181.325 402.651C180.727 401.937 180.185 401.178 179.702 400.382C177.467 395.714 175.937 390.74 175.163 385.623C173.616 376.823 173.481 367.973 173.54 359.056C173.543 358.427 173.579 357.798 173.649 357.173C173.649 356.988 173.826 356.829 173.977 356.56C175.02 356.82 175.171 357.627 175.23 358.468C175.507 362.3 175.734 366.141 176.07 369.965C176.407 373.941 176.819 377.899 177.231 381.866C177.355 382.477 177.532 383.076 177.76 383.656L181.123 382.606C180.762 378.639 180.408 374.773 180.055 370.839L177.601 369.999L180.123 368.402C180.392 363.157 180.669 357.686 180.963 352.223L181.527 352.164L182.317 355.324L188.008 353.063C189.278 357.35 187.966 362.073 188.698 367.024ZM202.048 374.319C202.048 370.612 203.343 367.032 202.636 363.023L195.558 366.998C195.381 370.772 195.222 374.403 195.045 378.269C197.987 377.63 199.627 375.546 202.048 374.319ZM187.277 381.807C187.126 377.471 186.991 373.613 186.848 369.469L182.056 369.948C181.585 374.277 182.3 378.219 183.158 382.555L187.277 381.807ZM189.48 383.396C189.681 385.808 188.95 388.186 190.514 390.422L192.666 389.582V382.16L189.48 383.396ZM187.941 390.842C187.68 388.548 188.151 386.388 187.1 384.026L183.561 384.791L184.965 390.842H187.941Z" fill="#005AFF"></path>
    <path d="M1.19776 118.38C0.987582 116.699 -0.0969107 115.127 0.937143 113.043C1.45366 113.607 1.90492 114.227 2.28228 114.892C3.6358 118.178 5.10701 121.439 6.16629 124.826C7.92334 130.415 9.45341 136.089 10.9583 141.753C11.7569 144.787 12.2109 147.914 12.9927 150.948C13.5494 152.953 14.2403 154.919 15.0608 156.831C15.3797 157.74 16.0325 158.493 16.8865 158.938C17.7406 159.383 18.7319 159.486 19.6594 159.227C23.2155 158.537 26.7969 157.865 30.2774 156.857C36.095 155.176 41.8285 153.133 47.6377 151.393C52.3119 149.99 57.0198 148.654 61.7782 147.569C64.8215 146.872 67.9825 146.678 71.0931 146.283C71.3302 146.269 71.5676 146.31 71.7854 146.405C72.0032 146.5 72.1953 146.646 72.3457 146.83L58.8526 149.872L58.9282 150.393L66.3684 149.435L66.5617 150.057C65.7408 150.443 64.8988 150.783 64.0396 151.074C56.7928 153.142 49.5292 155.142 42.2909 157.243C37.398 158.664 32.5724 160.286 27.6796 161.698C24.1907 162.706 20.6514 163.496 16.9524 163.177C16.1508 163.104 15.3792 162.837 14.705 162.397C14.0309 161.958 13.4747 161.36 13.0852 160.655C11.2441 157.781 10.4958 154.503 9.7224 151.242C8.31845 145.485 7.14147 139.652 5.51893 133.954C4.30977 130.165 2.87524 126.452 1.223 122.834C0.474784 121.229 0.113261 119.767 1.19776 118.38ZM57.5242 151.049V150.62C57.2832 150.556 57.0338 150.527 56.7844 150.536C56.5565 150.625 56.346 150.753 56.1623 150.914L56.2716 151.183L57.5242 151.049ZM53.573 151.52V151.965L54.2876 151.797L54.2372 151.52H53.573Z" fill="black"></path>
    <path d="M345.916 199.779C341.771 199.578 337.929 197.729 333.818 197.476L333.709 197.888L339.838 199.931L339.72 200.511C337.761 200.637 335.861 200.032 333.953 199.721C329.539 198.989 325.151 198.174 320.745 197.409C316.685 196.712 312.624 196.039 308.555 195.367C305.932 194.93 303.293 194.619 300.695 194.089C297.013 193.333 293.28 192.77 289.884 190.946C289.008 190.51 288.273 189.837 287.762 189.003C287.25 188.169 286.983 187.209 286.992 186.231C286.689 181.541 287.765 177.045 289.001 172.599C291.406 164.263 292.731 155.654 292.944 146.981C292.944 145.384 293.305 144.065 294.709 143.502C295.743 141.955 294.936 139.896 296.987 138.585C297.19 139.413 297.322 140.256 297.383 141.106C297.184 147.317 296.478 153.501 295.272 159.597C294.222 165.001 292.75 170.329 291.582 175.717C290.991 178.3 290.595 180.924 290.396 183.567C290.211 186.5 290.766 187.34 293.608 188.198C297.082 189.228 300.61 190.069 304.175 190.719C309.22 191.644 314.264 192.299 319.308 193.123C324.613 193.963 329.934 194.804 335.205 195.888C338.904 196.661 342.629 197.577 345.916 199.779ZM332.322 197.367V196.989H330.086V197.367H332.322ZM327.093 196.434V195.989L326.134 196.149V196.434H327.093Z" fill="black"></path>
    <path d="M282.427 83.4415L283.864 82.828L277.979 80.5251L278.097 80.1805C284.293 80.8025 290.489 81.3824 296.676 82.0716C302.998 82.7692 309.287 82.0716 315.5 81.2311C321.712 80.3906 327.959 79.6426 334.045 77.0288C334.045 76.1379 334.045 75.3478 334.045 74.5074C333.785 69.1956 333.49 63.8923 333.255 58.5889C333.045 53.8487 332.818 49.1001 332.767 44.3514C332.827 42.3226 333.029 40.3005 333.373 38.3001C333.457 37.6817 333.668 37.0874 333.992 36.5539C334.316 36.0204 334.746 35.5591 335.256 35.1987C336.293 37.0513 336.845 39.1356 336.862 41.2585C336.685 48.31 337.038 55.3783 337.189 62.4383C337.307 67.6716 337.419 72.9105 337.526 78.155C337.49 78.5154 337.414 78.8707 337.299 79.214C335.247 80.8949 332.692 81.6261 330.203 82.1472C324.125 83.4163 318.022 84.719 311.859 85.4334C304.558 86.3425 297.172 86.3567 289.867 85.4755C287.345 85.1477 284.907 84.3913 282.427 83.7945V83.4415Z" fill="black"></path>
    <path d="M162.586 235.02C162.586 234.31 162.651 233.601 162.779 232.902C164.602 226.342 165.365 219.532 165.041 212.731C164.881 208.192 164.309 203.671 163.864 199.157C163.376 194.341 162.586 189.433 164.402 184.819C167.277 177.473 170.16 170.002 176.171 164.513C180.486 160.624 185.574 157.691 191.102 155.907C191.992 155.692 192.902 155.568 193.818 155.537C195.549 157.151 195.659 157.588 194.927 159.521C194.724 159.965 194.582 160.434 194.507 160.916C194.324 162.819 193.422 164.58 191.985 165.841C189.723 168.035 187.378 170.119 185.133 172.321C183.452 174.002 181.838 175.742 181.77 178.381C181.77 178.911 181.123 179.415 180.812 179.869C179.257 179.373 179.29 178.356 179.391 177.347C179.665 174.615 180.778 172.034 182.577 169.96C184.116 168.161 185.94 166.598 187.622 164.917C188.942 163.564 190.27 162.219 191.48 160.773C191.975 159.981 192.378 159.135 192.683 158.252C192.092 158.304 191.507 158.408 190.934 158.563C184.78 161.219 178.836 164.27 174.877 169.909C172.855 173.009 171.044 176.241 169.454 179.583C168.376 181.688 167.444 183.864 166.663 186.096C166.155 187.471 165.898 188.926 165.907 190.391C166.024 194.51 166.436 198.619 166.596 202.738C166.789 208.049 166.999 213.361 166.924 218.665C166.823 221.944 166.494 225.213 165.94 228.448C165.572 230.221 165.026 231.953 164.309 233.616C163.999 234.198 163.612 234.735 163.157 235.213L162.586 235.02Z" fill="black"></path>
    <path d="M167.31 349.525C166.722 349.021 165.68 348.508 165.268 347.684C163.721 344.6 163.199 341.196 162.746 337.809C162.746 337.515 162.939 337.178 163.099 336.725L165.041 337.296V331.984L159.467 328.942C160.442 327.311 161.434 327.799 162.493 328.227C165.335 329.379 168.193 330.505 171.06 331.589C171.775 331.796 172.506 331.94 173.246 332.018C175.07 327.017 174.557 321.605 177.012 317.016H177.668C177.814 317.681 177.887 318.36 177.886 319.041C177.567 321.605 177.214 324.168 176.768 326.715C176.012 331.051 175.331 335.405 174.33 339.683C173.711 341.967 172.837 344.175 171.724 346.264C171.291 347.112 170.667 347.848 169.901 348.414C169.135 348.979 168.248 349.36 167.31 349.525Z" fill="black"></path>
    <path d="M197.449 175.666C196.836 174.826 197.449 174.111 197.828 173.38C199.635 169.758 201.527 166.177 203.191 162.496C204.999 158.512 205.512 154.209 206.05 149.889C206.68 144.754 205.612 139.711 205.562 134.618C205.511 130.214 205.495 125.818 205.436 121.414C205.369 115.329 205.243 109.244 205.226 103.159C205.226 100.999 205.436 98.8307 205.621 96.6707C205.733 96.093 205.907 95.5294 206.142 94.9897H206.596C206.831 95.3531 207.009 95.7498 207.126 96.1664C207.323 97.6917 207.441 99.2262 207.479 100.764C207.479 108.462 207.344 116.17 207.538 123.86C207.689 129.928 208.185 135.996 208.656 142.056C209.435 150.668 207.909 159.333 204.234 167.161C203.225 169.304 202.09 171.363 200.871 173.431C199.795 175.322 199.122 175.649 197.449 175.666Z" fill="black"></path>
    <path d="M167.933 313.293C167.462 311.805 168.328 311.376 169.219 311.166C170.112 311 171.018 310.918 171.926 310.923C177.663 310.836 183.394 311.346 189.026 312.444C197.912 313.948 206.815 315.427 215.734 316.646C220.645 317.465 225.652 317.525 230.581 316.823C231.203 316.713 231.8 316.503 232.405 316.369C233.406 316.15 234.406 315.949 235.684 315.688C235.519 316.386 235.146 317.017 234.615 317.499C234.084 317.98 233.419 318.29 232.708 318.386C230.606 318.894 228.467 319.228 226.31 319.386C219.644 319.722 213.053 318.781 206.462 317.932C201.821 317.327 197.214 316.587 192.565 315.881C189.11 315.352 185.68 314.612 182.216 314.251C178.324 313.839 174.406 313.755 170.497 313.511C169.622 313.486 168.748 313.368 167.933 313.293Z" fill="black"></path>
    <path d="M187.1 127.742C189.152 132.6 191.842 137.139 189.446 142.148C188.964 142.694 188.365 143.123 187.694 143.406C187.023 143.688 186.297 143.816 185.57 143.779C183.132 143.779 180.661 143.997 178.332 142.938C177.491 142.543 176.693 142.098 176.693 140.963C177.701 139.938 178.87 140.467 180.005 140.627C181.451 140.837 182.897 141.089 184.343 141.232C187.151 141.526 188.185 139.198 187.664 137.172C187.243 135.124 186.612 133.124 185.78 131.205C184.099 127.776 182.098 124.481 180.207 121.12C179.727 120.279 179.164 119.439 178.794 118.901V115.228L179.198 114.959C179.849 115.493 180.446 116.089 180.98 116.741C181.955 118.186 182.729 119.766 183.704 121.204C184.372 122.181 185.154 123.075 186.033 123.868C186.246 124.091 186.503 124.268 186.787 124.39C187.07 124.511 187.376 124.573 187.685 124.573C187.993 124.573 188.299 124.511 188.583 124.39C188.867 124.268 189.123 124.091 189.337 123.868C190.572 121.044 189.631 118.186 189.118 115.337C188.883 114.034 188.361 112.816 188.168 111.471C187.958 110.017 188.395 109.614 190.312 109.353C190.925 110.608 191.423 111.916 191.8 113.261C192.328 115.784 192.657 118.344 192.783 120.918C192.91 124.75 191.598 126.272 187.899 127.314C187.617 127.426 187.349 127.57 187.1 127.742Z" fill="black"></path>
    <path d="M199.56 194.089C199.08 190.895 197.155 188.357 195.163 185.945C193.044 183.382 190.118 182.415 186.588 182.659C186.621 182.366 186.714 182.083 186.861 181.827C187.008 181.572 187.205 181.349 187.442 181.173C187.678 180.996 187.948 180.87 188.235 180.802C188.522 180.734 188.819 180.725 189.11 180.776C191.49 180.945 193.787 181.727 195.776 183.045C196.298 183.356 196.81 183.684 197.584 184.155C197.522 183.188 197.267 182.244 196.834 181.378C196.4 180.512 195.798 179.741 195.062 179.112C194.399 178.426 193.587 177.904 192.688 177.586C191.79 177.268 190.829 177.163 189.883 177.28C187.989 177.625 186.117 178.08 184.276 178.641C184.721 176.658 186.403 176.019 187.907 175.817C192.952 175.162 196.718 175.683 199.677 181.23C201.447 184.508 202.318 188.197 202.199 191.921C202.199 193.114 202.199 194.308 202.199 195.493C202.048 197.661 200.383 198.67 198.559 197.56C197.301 196.818 196.204 195.832 195.331 194.661C193.818 192.517 192.161 190.778 189.446 190.408C188.948 190.268 188.474 190.053 188.042 189.769C188.126 188.559 188.883 188.408 189.673 188.349C191.968 188.172 193.7 189.349 195.28 190.769C196.012 191.416 196.55 192.257 197.231 192.963C197.794 193.534 198.441 194.022 199.047 194.543L199.56 194.089Z" fill="black"></path>
    <path d="M202.653 219.463C203.389 219.45 204.122 219.543 204.831 219.74C207.882 220.968 210.701 222.711 213.162 224.893C217.08 228.649 218.097 233.297 216.937 238.34C216.277 240.836 215.364 243.258 214.213 245.568C213.8 246.38 213.595 247.281 213.614 248.191C213.633 249.102 213.876 249.993 214.322 250.787C215.163 252.468 216.222 254.048 217.096 255.721C217.983 257.303 218.764 258.943 219.433 260.629C219.864 261.709 220.056 262.869 219.995 264.03C219.934 265.191 219.622 266.324 219.08 267.353C218.396 268.726 217.588 270.034 216.668 271.261C216.01 271.919 215.266 272.484 214.457 272.942L213.935 272.597C213.958 272.043 214.057 271.494 214.23 270.967C214.732 269.968 215.294 269 215.911 268.067C216.871 266.677 217.389 265.029 217.398 263.339C217.407 261.649 216.906 259.996 215.961 258.595C214.532 256.208 213.271 253.712 212.01 251.216C211.555 250.269 211.319 249.232 211.319 248.182C211.319 247.132 211.555 246.095 212.01 245.148C213.196 242.257 214.591 239.458 215.02 236.264C215.331 234.357 215.133 232.402 214.447 230.596C213.76 228.79 212.61 227.196 211.111 225.977C209.138 224.441 207.065 223.037 204.906 221.774C204.066 221.228 203.225 220.732 202.384 220.22L202.653 219.463Z" fill="black"></path>
    <path d="M54.3128 96.7967C53.1358 98.6962 51.5805 98.6458 50.3195 99.0156C41.7696 101.537 33.203 104.058 24.6027 106.437C20.643 107.538 16.6077 108.378 12.606 109.32C10.706 109.765 8.81447 110.227 6.88928 110.564C5.62824 110.782 4.36719 110.79 3.0473 110.9L2.8203 110.412C3.03888 110.059 3.17343 109.572 3.49289 109.387C4.23662 109 5.03673 108.734 5.86366 108.597C13.5812 107.555 20.9961 105.353 28.3606 102.941C35.0861 100.747 41.8537 98.8643 48.6129 96.8724C49.6194 96.5719 50.6578 96.3913 51.7067 96.3345C52.589 96.3986 53.4623 96.5535 54.3128 96.7967Z" fill="black"></path>
    <path d="M299.703 136.231C300.717 136.197 301.733 136.276 302.729 136.467C310.004 138.737 317.465 140.359 325.025 141.316C331.111 142.157 337.156 143.317 343.217 144.35C345.218 144.695 347.219 145.031 349.195 145.477C350.313 145.72 351.532 145.998 351.624 147.611C350.262 148.301 348.959 147.889 347.69 147.662C341.914 146.611 336.147 145.519 330.371 144.46C324.049 143.308 317.702 142.249 311.405 140.988C308.262 140.307 305.156 139.465 302.099 138.467C301.233 138.198 299.938 138.173 299.703 136.231Z" fill="black"></path>
    <path d="M332.313 32.0219C331.568 32.2723 330.794 32.4277 330.01 32.4842C326.731 32.3665 323.453 32.1144 320.174 31.9715C311.515 31.5765 302.856 31.131 294.188 30.8789C288.799 30.7049 283.407 31.088 278.097 32.0219C277.382 32.0719 276.663 32.0465 275.953 31.9463L275.777 31.3664C276.24 30.9631 276.762 30.6317 277.324 30.383C278.665 29.9747 280.046 29.7098 281.443 29.593C286.613 29.3577 291.792 29.0215 296.962 29.1475C303.452 29.2988 309.934 29.8703 316.424 30.2654C321.306 30.5567 326.193 30.8565 331.086 31.1647C331.471 31.2139 331.853 31.2869 332.229 31.3832L332.313 32.0219Z" fill="black"></path>
    <path d="M131.186 396.432C130.385 395.566 129.925 394.441 129.891 393.263C129.572 388.691 130.27 384.203 130.984 379.715C131.421 376.966 131.9 374.218 132.371 371.47C132.657 369.747 133.019 368.041 133.212 366.318C133.632 363.006 133.977 359.686 134.372 356.19C134.82 356.502 135.177 356.927 135.407 357.421C135.637 357.916 135.733 358.462 135.684 359.006C135.795 361.246 135.767 363.492 135.599 365.729C135.011 370.856 134.17 375.958 133.531 381.085C133.002 385.363 131.993 389.615 132.539 393.994C132.783 395.44 132.531 395.675 131.186 396.432Z" fill="black"></path>
    <path d="M210.346 131.701C210.777 131.207 211.271 130.771 211.817 130.407C214.339 129.188 215.734 127.104 216.777 124.683C218.105 121.59 219.299 118.472 218.946 115.001C218.668 112.379 217.685 110.286 214.969 109.37C212.447 109.37 211.296 111.555 209.564 112.976C209.194 112.555 208.997 112.009 209.015 111.449C209.032 110.888 209.261 110.356 209.656 109.958C211.581 107.336 215.541 106.487 218.013 108.445C218.948 109.121 219.731 109.986 220.31 110.983C220.889 111.981 221.252 113.089 221.376 114.236C221.683 117.198 221.381 120.192 220.489 123.034C219.597 125.875 218.134 128.504 216.188 130.76C215.744 131.39 215.17 131.919 214.504 132.309C213.839 132.699 213.097 132.941 212.33 133.021C211.287 133.096 211.254 133.088 210.346 131.701Z" fill="black"></path>
    <path d="M305.403 177.028C304.906 176.769 304.515 176.346 304.294 175.831C304.074 175.317 304.038 174.742 304.192 174.204C304.646 170.674 305.1 167.135 305.714 163.631C306.134 161.227 306.798 158.865 307.395 156.495C307.597 155.655 307.942 154.932 308.337 153.839C309.215 153.825 310.091 153.924 310.943 154.133C315.281 155.814 319.854 156.419 324.394 157.26C328.783 158.1 333.179 158.882 337.559 159.781C338.384 159.991 339.146 160.398 339.779 160.966C336.416 161.319 333.255 159.924 329.976 159.613C326.698 159.302 323.335 158.672 320.039 158.042C316.744 157.411 313.389 156.604 309.825 155.823C308.404 159.109 308.017 162.799 307.118 166.354C306.218 169.909 306.807 173.473 305.403 177.028Z" fill="black"></path>
    <path d="M248.74 151.52C247.656 152.554 247.656 152.562 246.218 151.89C244.755 149.595 245.083 147.309 246.538 145.233C247.815 143.418 249.404 141.812 250.783 140.064C251.859 138.787 252.829 137.423 253.683 135.988C254.132 135.052 254.357 134.025 254.339 132.988C254.339 131.307 253.33 130.315 251.624 130.122C249.868 129.974 248.113 130.418 246.638 131.382C246.02 131.839 245.368 132.249 244.688 132.609C244.037 132.783 243.369 132.879 242.695 132.895L242.41 132.307C242.746 131.861 243.126 131.45 243.545 131.08C245.951 129.38 248.758 128.335 251.691 128.046C255.55 127.617 258.24 131.155 257.071 134.963C256.315 137.408 254.482 139.073 252.868 140.913C252.027 141.863 251.144 142.745 250.279 143.661C248.303 145.763 247.445 148.116 248.656 150.94C248.718 151.127 248.746 151.323 248.74 151.52Z" fill="black"></path>
    <path d="M170.547 129.281C171.168 128.715 171.601 127.973 171.787 127.154C171.974 126.335 171.905 125.479 171.59 124.7C171.06 122.902 170.312 121.17 169.648 119.414C169.227 118.304 168.723 117.203 170.06 115.951C170.706 116.409 171.289 116.952 171.791 117.565C173.853 120.686 174.768 124.426 174.381 128.146C174.234 129.045 173.827 129.881 173.21 130.55C172.593 131.22 171.793 131.693 170.909 131.912C169.669 132.176 168.384 132.141 167.161 131.811C165.937 131.481 164.81 130.864 163.872 130.012C160.846 127.197 159.088 123.532 157.567 119.758C157.435 119.36 157.369 118.943 157.373 118.523C157.373 118.347 157.542 118.162 157.676 117.876C159.021 117.96 159.458 119.052 159.996 119.969C161.232 122.07 162.266 124.314 163.662 126.297C165.276 128.575 167.453 130.029 170.547 129.281Z" fill="black"></path>
    <path d="M22.5262 130.466C23.075 130.715 23.6362 130.937 24.2075 131.13C24.8044 131.298 25.4266 131.373 26.2505 131.533L26.385 133.079C24.443 134.76 18.8776 132.399 17.4904 129.516C18.247 126.566 20.7271 124.725 22.2319 122.153C23.9133 123.675 23.9133 123.725 22.3328 126.801C24.7792 126.801 26.8557 125.851 29.0584 125.465C31.261 125.078 33.4384 124.624 35.6074 124.086C37.7763 123.548 39.9874 122.901 42.1816 122.305L42.459 122.674C42.2573 123.036 42.148 123.582 41.8453 123.725C40.6061 124.353 39.315 124.873 37.9865 125.28C33.4888 126.541 28.9575 127.692 24.4514 128.927C23.7631 129.177 23.0967 129.484 22.4589 129.844L22.5262 130.466Z" fill="black"></path>
    <path d="M275.617 77.1968C275.365 75.9529 275.012 74.6754 274.877 73.4483C274.655 71.4948 274.534 69.5311 274.516 67.565C274.516 60.0765 274.659 52.5879 274.692 45.091C274.692 42.0989 274.583 39.0984 274.524 36.1064C274.524 35.1314 274.339 34.0892 275.617 33.585C276.626 33.9548 276.811 34.8541 276.802 35.7702C276.802 41.3593 276.802 46.9568 276.626 52.5795C276.407 59.9168 275.785 67.2457 276.542 74.5829C276.596 75.4225 276.596 76.2647 276.542 77.1043L275.617 77.1968Z" fill="black"></path>
    <path d="M142.081 149.258C142.636 149.192 143.198 149.291 143.697 149.544C144.195 149.797 144.607 150.192 144.881 150.679C146.101 152.539 147.193 154.479 148.151 156.486C151.581 164.378 156.213 171.295 163.384 176.305C164.149 176.834 165.133 177.263 165.066 178.599C164.007 179.381 163.031 179.003 162.031 178.406C158.659 176.267 155.73 173.499 153.405 170.253C150.356 166.081 147.868 161.526 146.007 156.705C145.089 154.755 144.067 152.856 142.947 151.015C142.72 150.536 142.485 150.023 142.081 149.258Z" fill="black"></path>
    <path d="M59.8446 99.3516C60.2079 99.7359 60.5163 100.169 60.761 100.637C63.922 109.429 67.5958 118.044 69.8573 127.129C70.698 130.382 71.0847 133.718 71.5807 137.038C71.7488 138.164 71.9085 139.425 70.4961 140.282C69.5882 139.442 69.5546 138.307 69.4621 137.248C68.9403 132.106 67.8693 127.034 66.2675 122.12C64.1573 115.396 61.7698 108.782 59.5419 102.1C59.3422 101.272 59.2184 100.428 59.172 99.5785L59.8446 99.3516Z" fill="black"></path>
    <path d="M29.0584 140.459C30.0083 138.433 31.6729 138.45 32.9508 138.038C37.7932 136.483 42.6944 135.122 47.5536 133.643C48.3819 133.307 49.183 132.908 49.9496 132.449L45.2501 129.255L47.0324 127.759C49.4788 129.18 52.1691 129.928 53.8336 132.264C53.5226 135.475 50.7987 137.088 49.6302 139.593C47.0072 139.408 48.3944 137.483 47.9488 136.164C41.694 137.416 35.6746 139.501 29.0584 140.459Z" fill="black"></path>
    <path d="M88.5795 210.629L86.4778 210.974C85.6371 208.814 86.1078 206.973 87.6799 205.763C89.4178 204.506 91.2901 203.446 93.2622 202.603C95.4059 201.611 97.6926 200.922 99.8364 199.955C100.713 199.526 101.446 198.851 101.947 198.014C103.334 195.593 102.089 193.03 99.2059 192.517C97.2809 192.285 95.3439 192.167 93.4051 192.164C93.0183 192.164 92.6317 192.072 92.2365 192.021C91.9003 190.685 92.8334 190.391 93.6152 190.34C96.978 190.029 100.341 190.256 103.325 192.089C105.435 193.366 105.906 195.215 104.864 197.484C103.67 200.073 101.501 201.519 98.9789 202.527C97.2975 203.191 95.5489 203.695 93.8507 204.317C92.9254 204.627 92.0328 205.027 91.1857 205.511C90.3084 206.027 89.5969 206.783 89.1351 207.69C88.6734 208.597 88.4806 209.616 88.5795 210.629Z" fill="black"></path>
    <path d="M354.726 153.696C356.038 154.486 355.786 155.529 355.634 156.319C355.155 158.924 354.482 161.496 353.953 164.093C352.919 168.867 351.834 173.624 350.901 178.381C349.817 183.731 349.277 189.177 349.287 194.635C349.238 194.995 349.139 195.346 348.993 195.678C347.757 195.249 347.681 194.316 347.673 193.442C347.57 191.2 347.615 188.954 347.807 186.718C348.808 178.877 349.8 171.035 351.918 163.387C352.591 160.975 353.121 158.512 353.768 156.092C354.044 155.276 354.364 154.477 354.726 153.696Z" fill="black"></path>
    <path d="M342.957 166.925C341.782 167.952 340.543 168.903 339.249 169.775C337.089 171.035 334.835 172.136 332.608 173.288C331.65 173.803 330.58 174.072 329.493 174.072C328.406 174.072 327.336 173.803 326.378 173.288C321.813 171.077 317.82 168.001 313.827 164.942C312.843 164.185 312.28 162.883 311.447 161.723C312.885 160.95 313.742 161.824 314.575 162.437C316.769 164.059 318.862 165.799 321.082 167.396C322.839 168.648 324.747 169.691 326.546 170.892C327.443 171.516 328.501 171.867 329.592 171.904C330.684 171.942 331.763 171.663 332.7 171.103C335.113 169.842 337.484 168.497 339.846 167.144C340.282 166.799 340.813 166.594 341.368 166.555C341.922 166.516 342.476 166.645 342.957 166.925Z" fill="black"></path>
    <path d="M180.501 236.155C179.711 234.55 180.501 233.633 181.342 232.793C183.317 230.767 185.1 228.591 185.89 225.842C187.458 220.826 188.071 215.561 187.697 210.319C187.588 209.142 187.353 207.957 188.185 206.957C189.614 207.344 190.194 208.033 190.27 209.815C190.434 211.907 190.434 214.009 190.27 216.101C189.774 220.404 189.126 224.733 186.991 228.582C185.684 230.723 184.214 232.76 182.594 234.676C181.969 235.264 181.264 235.762 180.501 236.155Z" fill="black"></path>
    <path d="M338.19 183.298C339.712 179.415 338.804 175.137 341.309 171.38C341.418 171.721 341.486 172.073 341.511 172.43C341.015 175.885 340.485 179.331 340.006 182.793C339.829 184.079 339.165 184.911 337.862 184.911C335.706 185.028 333.545 184.94 331.406 184.651C327.37 183.869 323.419 182.676 319.4 181.785C316.038 181.037 312.549 180.499 309.127 179.818C308.337 179.596 307.564 179.315 306.815 178.978C307.5 178.546 308.272 178.27 309.076 178.171C309.879 178.073 310.695 178.153 311.464 178.406C316.719 179.532 321.914 180.928 327.16 182.037C330.086 182.667 333.045 183.088 336.029 183.525C336.756 183.53 337.48 183.454 338.19 183.298Z" fill="black"></path>
    <path d="M164.208 103.671C163.889 105.075 162.956 105.243 161.938 105.352C160.339 105.501 158.751 105.762 157.189 106.134C154.952 106.756 153.313 108.311 151.858 110.051C151.413 110.58 150.976 111.118 150.589 111.589C148.311 111.454 147.571 110.185 148.739 108.454C150.643 105.552 153.564 103.468 156.928 102.612C158.493 102.25 160.084 102.006 161.686 101.881C162.258 101.786 162.844 101.921 163.316 102.257C163.789 102.592 164.11 103.101 164.208 103.671Z" fill="black"></path>
    <path d="M241.527 389.783C239.972 390.212 239.4 389.557 239.106 388.615C238.265 385.959 237.424 383.312 236.718 380.614C235.877 377.37 235.222 374.092 234.541 370.814C234.314 369.705 234.272 368.553 234.146 367.452L234.801 367.208C235.214 367.637 235.558 368.128 235.819 368.663C236.659 371.386 237.5 374.142 238.265 376.891C239.307 380.437 240.367 383.976 241.359 387.539C241.489 388.28 241.545 389.032 241.527 389.783Z" fill="black"></path>
    <path d="M226.941 290.566C228.421 289.617 229.295 290.205 229.791 291.205C231.045 293.522 232.103 295.939 232.952 298.433C233.503 300.811 233.846 303.232 233.977 305.669C234.062 306.443 234.204 307.409 232.885 307.628C231.834 306.871 231.758 305.72 231.565 304.535C231.119 301.795 230.724 299.038 229.976 296.357C229.436 294.858 228.743 293.419 227.908 292.062C227.611 291.547 227.289 291.048 226.941 290.566Z" fill="black"></path>
    <path d="M297.315 44.5534C298.266 44.2514 299.242 44.0404 300.233 43.9231C304.983 43.7802 309.732 43.755 314.474 43.6457C316.004 43.6457 317.542 43.486 319.064 43.3432C319.905 43.2675 320.745 43.049 321.384 44.0828C320.544 45.3014 319.19 45.3014 317.904 45.3183C312.809 45.3771 307.706 45.3855 302.612 45.4359C301.283 45.4359 299.964 45.5788 298.644 45.5788C298.198 45.5312 297.76 45.4267 297.341 45.2678L297.315 44.5534Z" fill="black"></path>
    <path d="M298.122 63.9597C299.033 63.7766 299.954 63.6503 300.88 63.5815C304.655 63.5395 308.446 63.5815 312.204 63.5815C313.6 63.5815 314.995 63.4807 316.408 63.4134C317.248 63.4134 318.207 63.2201 319.014 64.5229C317.669 64.8843 316.492 65.481 315.348 65.4642C309.901 65.4138 304.419 65.1952 299.014 65.0187C298.696 64.9399 298.393 64.8123 298.114 64.6405L298.122 63.9597Z" fill="black"></path>
    <path d="M314.281 54.5133C313.515 54.914 312.693 55.1973 311.843 55.3537C307.866 55.4126 303.881 55.3537 299.896 55.2781C299.543 55.2781 299.198 54.9839 298.484 54.673C300.333 53.2021 302.183 53.967 303.839 53.8325C305.568 53.5896 307.316 53.5136 309.06 53.6056C310.741 53.7737 312.599 52.639 314.188 53.8829L314.281 54.5133Z" fill="black"></path>
    <path d="M275.415 191.837C277.635 191.795 278.778 192.559 279.123 194.165C279.188 194.824 279.044 195.486 278.71 196.058C278.376 196.63 277.871 197.082 277.265 197.35C276.686 197.576 276.052 197.617 275.449 197.466C274.847 197.315 274.306 196.981 273.902 196.51C272.893 195.173 273.314 193.837 275.415 191.837ZM275.869 194.829L275.81 194.972C275.861 194.972 275.928 195.03 275.945 195.022C275.974 194.979 275.994 194.93 276.004 194.879L275.869 194.829Z" fill="black"></path>
    <path d="M271.178 93.0231L270.279 90.653C270.691 89.8125 271.01 89.1065 271.321 88.4594C273.003 87.6189 274.633 87.7618 275.525 88.8544C275.89 89.2866 276.103 89.8277 276.129 90.3933C276.155 90.9589 275.992 91.5172 275.667 91.9809C274.86 93.4686 273.734 93.7123 271.178 93.0231ZM273.33 90.7959C273.251 90.7276 273.167 90.6658 273.078 90.611C273.078 90.611 272.944 90.695 272.952 90.7118C272.991 90.8138 273.039 90.9122 273.095 91.006L273.33 90.7959Z" fill="black"></path>
    <path d="M198.525 204.965L196.424 205.184C195.743 202.023 193.7 200.141 190.959 198.855V198.351C191.497 198.124 192.06 197.645 192.565 197.687C195.608 197.93 198.643 201.654 198.525 204.965Z" fill="black"></path>
    <path d="M84.0986 155.184C83.7694 155.221 83.4361 155.191 83.1188 155.096C82.8015 155.001 82.5067 154.843 82.2522 154.631C81.9977 154.419 81.7888 154.157 81.638 153.862C81.4872 153.568 81.3976 153.245 81.3747 152.915C81.3657 152.551 81.4302 152.189 81.5642 151.851C81.6983 151.512 81.8993 151.204 82.1552 150.945C82.411 150.687 82.7165 150.482 83.0533 150.344C83.3901 150.206 83.7514 150.137 84.1154 150.141C85.7968 150.066 86.772 150.763 86.8141 152.041C86.8381 152.81 86.5723 153.56 86.0694 154.142C85.5664 154.724 84.8631 155.096 84.0986 155.184ZM84.0986 152.301C84.0062 152.369 83.8464 152.427 83.8212 152.511C83.796 152.595 83.9137 152.722 83.9641 152.831L84.3508 152.537L84.0986 152.301Z" fill="black"></path>
    <path d="M264.074 99.3771C264.739 101.058 264.537 102.403 263.419 103.067C263.014 103.349 262.521 103.478 262.03 103.43C261.538 103.383 261.08 103.161 260.737 102.806C260.37 102.335 260.171 101.756 260.171 101.159C260.171 100.562 260.37 99.9825 260.737 99.5116C261.451 98.5451 262.301 98.5115 264.074 99.3771Z" fill="black"></path>
    <path d="M293.103 45.2929C293.108 45.9111 292.886 46.5094 292.478 46.9743C292.07 47.4391 291.506 47.7381 290.892 47.8143C290.299 47.7796 289.744 47.5119 289.347 47.0695C288.95 46.6272 288.744 46.046 288.774 45.4526C288.798 44.8597 289.042 44.2971 289.459 43.8745C289.875 43.4518 290.434 43.1994 291.027 43.1665C291.308 43.1499 291.59 43.1939 291.853 43.2956C292.116 43.3973 292.354 43.5543 292.551 43.7559C292.748 43.9575 292.899 44.1991 292.994 44.4643C293.09 44.7295 293.127 45.0121 293.103 45.2929Z" fill="black"></path>
    <path d="M291.674 66.2626C289.8 66.1953 288.976 65.649 288.782 64.4136C288.696 63.8932 288.79 63.3589 289.05 62.8999C289.311 62.441 289.72 62.0852 290.212 61.8922C290.597 61.7144 291.033 61.6811 291.44 61.7984C291.848 61.9157 292.199 62.1757 292.431 62.5309C293.221 63.5815 292.969 64.859 291.674 66.2626Z" fill="black"></path>
    <path d="M290.094 52.7144C292.128 52.9581 292.75 53.4203 292.86 54.7147C292.922 55.2336 292.804 55.7582 292.526 56.2004C292.247 56.6427 291.825 56.9757 291.33 57.1436C290.896 57.2864 290.427 57.27 290.004 57.0975C289.582 56.9249 289.235 56.6075 289.026 56.2023C288.387 55.1937 288.724 54.1011 290.094 52.7144Z" fill="black"></path>
    <path d="M179.442 153.772L181.964 152.999C183.889 154.915 183.788 156.201 181.644 157.504L179.627 156.798L179.442 153.772Z" fill="black"></path>
    <path d="M262.519 201.67L264.2 199.485L265.974 200.031C266.025 200.796 266.067 201.41 266.109 202.183L264.091 203.385L262.519 201.67Z" fill="black"></path>
    <path d="M93.2117 161.899C92.4551 160.328 93.0772 159.538 94.6325 158.941L96.1457 160.58C95.5908 162.236 94.6072 162.429 93.2117 161.899Z" fill="black"></path>
    <path d="M88.4618 216.42C88.0247 218.101 87.6211 218.345 85.9902 218.101C86.545 216.286 86.8141 216.109 88.4618 216.42Z" fill="black"></path>
    <path d="M252.229 157.395C251.607 158.706 250.892 159.075 249.48 158.361L251.027 156.251L252.229 157.395Z" fill="black"></path>
  </g>
  <defs>
    <clipPath id="clip0_1314_11719">
      <rect width="371" height="432" fill="white" transform="translate(0.5)"></rect>
    </clipPath>
  </defs>
</svg>
